<svg width="23" height="19" viewBox="0 0 23 19" fill="none" xmlns="http://www.w3.org/2000/svg">
<path d="M0.874901 2.27883C1.08771 2.33757 1.30797 2.37881 1.51085 2.46193C1.62005 2.50629 1.70009 2.62315 1.79315 2.70689C1.68644 2.79063 1.57662 2.94873 1.47301 2.94435C1.06538 2.92686 0.651542 2.89186 0.255701 2.79688C-0.023497 2.72939 -0.0818185 2.23571 0.119204 1.89451C0.364278 1.4777 0.734061 1.20087 1.15658 0.988404C1.94764 0.589716 2.80509 0.448488 3.66999 0.416618C8.5603 0.235396 13.0486 1.52895 17.1261 4.23853C18.9061 5.42147 20.4715 6.84437 21.5895 8.70721C22.2019 9.7283 22.5804 10.8238 22.5742 12.0323C22.5686 13.154 22.0853 14.0833 21.3699 14.8906C19.9851 16.4541 18.2019 17.2584 16.1712 17.5708C14.8869 17.7689 13.6014 17.7596 12.3152 17.6202C11.7841 17.5627 11.2586 17.4552 10.7095 17.3671C10.6394 17.519 10.5711 17.679 10.4936 17.8333C10.2764 18.2639 9.94884 18.4645 9.56231 18.4113C9.12986 18.352 8.86928 18.1008 8.76132 17.6233C8.71106 17.4015 8.66825 17.1765 8.63971 16.9503C8.58325 16.5029 8.3357 16.2423 7.92993 16.0567C6.1077 15.2206 4.56776 14.0414 3.53721 12.271C3.21458 11.7167 3.31509 11.2187 3.83316 10.8294C4.86868 10.0514 6.06426 9.64082 7.3008 9.33399C7.69975 9.23526 8.10365 9.15152 8.50756 9.07653C8.77001 9.02779 8.73836 8.83094 8.75946 8.64847C8.85997 7.77361 8.958 6.89812 9.06968 6.0245C9.0945 5.83141 9.16088 5.64206 9.22231 5.45584C9.3315 5.12214 9.54121 5.06028 9.80242 5.28774C10.2982 5.72017 10.4303 6.31008 10.4948 6.93061C10.5494 7.45678 10.6171 7.98107 10.6791 8.50599C10.712 8.7847 10.8404 8.88906 11.1444 8.89718C12.5472 8.93405 13.9488 9.02654 15.2815 9.52084C15.7506 9.69518 16.2054 9.92952 16.6328 10.192C17.2477 10.5694 17.5331 11.4537 17.3129 12.1392C17.1286 12.7141 16.4939 13.1028 15.7562 13.0884C15.5707 13.0847 15.382 13.0872 15.2009 13.054C15.1146 13.0384 15.0098 12.9603 14.9757 12.8828C14.9552 12.8353 15.0377 12.7166 15.101 12.6622C15.297 12.4941 15.5142 12.3504 15.7084 12.1804C15.9826 11.9405 15.9783 11.7205 15.6432 11.5874C15.1202 11.3799 14.5786 11.1956 14.0289 11.0887C13.0901 10.9056 12.139 10.79 11.1928 10.6469C11.1419 10.6394 11.0898 10.6394 11.0383 10.6369C10.6375 10.6194 10.6046 10.6382 10.596 11.035C10.5742 12.0523 10.5488 13.0697 10.5569 14.087C10.5606 14.5726 10.6388 15.0575 10.6791 15.543C10.699 15.7824 10.8454 15.8955 11.0582 15.9255C13.2291 16.2317 15.3851 16.2373 17.4487 15.3837C18.1356 15.1 18.8094 14.7175 19.3888 14.2526C20.4486 13.4027 20.7712 11.7736 20.2544 10.3757C19.5886 8.57473 18.3688 7.21869 16.8543 6.11824C14.0748 4.10167 10.993 2.76625 7.62591 2.11823C5.8558 1.77766 4.06645 1.66268 2.26779 1.78828C1.90235 1.8139 1.54125 1.92451 1.18202 2.012C1.07096 2.03887 0.97231 2.11823 0.868076 2.17322C0.869937 2.20822 0.872419 2.24384 0.874901 2.27883ZM8.4176 14.9462C8.43745 14.8988 8.45792 14.8713 8.45917 14.8431C8.51811 13.5583 8.57829 12.2742 8.62855 10.9887C8.63599 10.805 8.50384 10.7563 8.33197 10.77C7.7773 10.8144 7.21332 10.8013 6.66857 10.8981C5.88186 11.0387 5.09886 11.2237 4.33262 11.4524C3.82447 11.6043 3.76305 11.9405 4.0894 12.346C4.80043 13.2303 5.73853 13.8083 6.72193 14.3245C7.25737 14.6069 7.80832 14.8538 8.4176 14.9462Z" fill="inherit"/>
</svg>
