<svg width="292" height="51" viewBox="0 0 292 51" fill="none" xmlns="http://www.w3.org/2000/svg">
<path d="M284.417 19.5857C278.246 22.3254 282.345 31.4963 288.515 28.7566C294.686 26.017 290.588 16.8461 284.417 19.5857Z" fill="#F2DCDB"/>
<path d="M181.564 24.4382C178.351 25.8777 180.493 30.6373 183.707 29.1978C186.92 27.7815 184.778 22.9987 181.564 24.4382Z" fill="#F2DCDB"/>
<path d="M114.711 0.617158C111.498 2.05664 113.64 6.81622 116.854 5.37674C120.067 3.96047 117.925 -0.799108 114.711 0.617158Z" fill="#F2DCDB"/>
<path d="M1.58959 29.5228C-1.62383 30.9623 0.518454 35.7218 3.73187 34.3056C6.94529 32.8661 4.80301 28.1065 1.58959 29.5228Z" fill="#F2DCDB"/>
<path d="M251.84 4.03C251.84 3.98356 251.84 3.93713 251.84 3.89069C251.934 3.51921 252.05 3.12452 252.166 2.72982C252.912 2.91556 253.61 3.1013 254.332 3.28704C254.355 3.26382 254.355 3.2406 254.379 3.21738C254.006 2.54408 253.61 1.89399 253.214 1.17425C253.61 0.942078 253.983 0.733122 254.402 0.47773C254.751 1.1046 255.124 1.70825 255.473 2.33512C255.52 2.42799 255.566 2.49765 255.706 2.49765C255.892 1.80112 256.078 1.08138 256.288 0.36164C256.754 0.477727 257.173 0.593814 257.592 0.709901C257.476 1.12782 257.382 1.54573 257.266 1.94043C257.08 2.66017 256.87 3.40313 256.661 4.12287C256.614 4.26217 256.637 4.37826 256.707 4.49435C257.196 5.33018 257.685 6.16601 258.174 7.00183C258.407 7.41975 258.663 7.83766 258.896 8.25557C258.919 8.30201 258.966 8.34844 259.059 8.46453C259.106 8.37166 259.106 8.32523 259.152 8.27879C259.571 7.55905 259.967 6.83931 260.386 6.11957C260.689 5.58557 261.015 5.05157 261.318 4.54079C261.411 4.40148 261.434 4.26217 261.364 4.07643C261.062 3.00843 260.782 1.91721 260.479 0.84921C260.479 0.825992 260.479 0.779554 260.456 0.733119C260.875 0.617032 261.294 0.500945 261.76 0.384858C261.946 1.1046 262.156 1.80112 262.342 2.49765C262.459 2.52086 262.505 2.47443 262.575 2.38156C262.924 1.75469 263.274 1.15103 263.646 0.524162C264.042 0.756338 264.438 0.965295 264.834 1.19747C264.461 1.89399 264.019 2.5673 263.67 3.26382C263.693 3.28704 263.716 3.31026 263.739 3.33348C264.438 3.14774 265.137 2.962 265.882 2.75304C265.998 3.19417 266.115 3.61209 266.231 4.05322C265.858 4.14609 265.532 4.26218 265.183 4.33183C264.391 4.54078 263.576 4.74974 262.785 4.98191C262.692 5.00513 262.575 5.12122 262.529 5.23731C261.853 6.37496 261.201 7.51261 260.549 8.62705C260.479 8.71992 260.433 8.83601 260.363 8.92888C260.34 8.99853 260.316 9.09141 260.293 9.18427C260.503 9.18427 260.642 9.18427 260.805 9.18427C262.109 9.18427 263.437 9.18428 264.741 9.18428C264.95 9.18428 265.113 9.11462 265.253 8.97532C265.975 8.23236 266.697 7.51262 267.442 6.79288C267.512 6.72322 267.605 6.65357 267.675 6.58392C267.908 6.70001 268.397 7.16436 268.653 7.53583C268.187 8.00018 267.721 8.46453 267.256 8.92888C267.186 8.99853 267.093 9.04497 267.186 9.20749C267.931 9.20749 268.699 9.20749 269.468 9.20749C269.468 9.67184 269.468 10.0898 269.468 10.5541C268.699 10.5541 267.931 10.5309 267.069 10.5541C267.162 10.6934 267.209 10.7863 267.279 10.8327C267.698 11.2506 268.117 11.6685 268.536 12.0865C268.583 12.1329 268.606 12.1793 268.629 12.2025C268.303 12.5276 268.001 12.8294 267.651 13.1545C267.372 12.8758 267.046 12.574 266.767 12.2722C266.231 11.7382 265.719 11.2042 265.16 10.6702C265.067 10.6005 264.927 10.5309 264.811 10.5309C263.39 10.5309 261.946 10.5309 260.526 10.5309C260.433 10.5309 260.363 10.5541 260.223 10.5773C260.386 10.8559 260.526 11.1345 260.689 11.3899C261.248 12.3651 261.807 13.317 262.366 14.2921C262.529 14.5707 262.715 14.7565 263.064 14.8493C263.996 15.0583 264.927 15.3369 265.858 15.5691C265.975 15.5923 266.068 15.6387 266.231 15.7084C266.115 16.1263 265.998 16.5442 265.882 16.9853C265.137 16.8228 264.438 16.5906 263.716 16.4281C263.693 16.4513 263.693 16.4746 263.67 16.4978C264.065 17.1711 264.438 17.8212 264.857 18.5409C264.485 18.7731 264.112 18.982 263.716 19.2142C263.67 19.1446 263.6 19.0981 263.576 19.0285C263.25 18.4713 262.924 17.914 262.622 17.3336C262.575 17.2407 262.505 17.1943 262.389 17.2407C262.203 17.9373 262.016 18.6338 261.83 19.3303C261.388 19.2142 260.968 19.0981 260.526 18.982C260.573 18.7499 260.619 18.5177 260.689 18.3087C260.899 17.4729 261.131 16.6603 261.364 15.8245C261.388 15.7548 261.388 15.6852 261.411 15.6387C261.481 15.4762 261.457 15.3601 261.364 15.2208C260.666 13.9903 259.944 12.783 259.245 11.5525C259.199 11.4596 259.129 11.3899 259.036 11.2738C258.78 11.6918 258.57 12.0632 258.36 12.4347C257.825 13.3634 257.289 14.2921 256.754 15.1976C256.661 15.3369 256.661 15.4762 256.707 15.6619C257.01 16.7299 257.289 17.8212 257.592 18.8892C257.592 18.9124 257.592 18.9588 257.615 19.0053C257.196 19.1213 256.777 19.2374 256.311 19.3535C256.125 18.6338 255.915 17.9373 255.729 17.2407C255.566 17.2175 255.543 17.3336 255.496 17.4265C255.17 18.0301 254.821 18.6106 254.448 19.2374C254.029 19.0053 253.657 18.7963 253.261 18.5641C253.657 17.8676 254.053 17.1943 254.472 16.4746C254.355 16.4746 254.285 16.4513 254.216 16.4746C253.657 16.6371 253.098 16.7764 252.539 16.9389C252.446 16.9621 252.376 16.9621 252.236 16.9853C252.12 16.5674 252.003 16.1495 251.887 15.7084C252.329 15.5923 252.749 15.4762 253.168 15.3601C253.866 15.1744 254.588 14.9886 255.287 14.8029C255.496 14.7565 255.589 14.5939 255.659 14.4314C256.125 13.6188 256.591 12.783 257.08 11.9704C257.289 11.5989 257.499 11.2506 257.708 10.8791C257.755 10.8095 257.778 10.7166 257.848 10.6005C257.755 10.5773 257.708 10.5541 257.639 10.5541C256.614 10.5541 255.613 10.5541 254.588 10.5541C254.146 10.5541 253.68 10.5541 253.238 10.5773C253.144 10.5773 253.028 10.6238 252.958 10.6934C252.376 11.2738 251.794 11.8543 251.212 12.4115C250.956 12.6669 250.699 12.9223 250.42 13.1777C250.094 12.8526 249.768 12.5508 249.442 12.2258C249.978 11.6918 250.513 11.1578 251.025 10.647C250.909 10.5077 250.793 10.5309 250.676 10.5309C250.001 10.5309 249.326 10.5309 248.627 10.5309C248.627 10.0898 248.627 9.67184 248.627 9.20749C249.395 9.20749 250.141 9.20749 250.909 9.20749C251.025 9.0914 250.956 9.02175 250.839 8.92888C250.42 8.53418 250.024 8.11627 249.628 7.72157C249.558 7.65192 249.512 7.60549 249.465 7.53583C249.791 7.21079 250.094 6.90896 250.42 6.58392C250.467 6.63035 250.536 6.67679 250.606 6.72322C251.375 7.4894 252.143 8.25557 252.912 9.04497C253.005 9.13784 253.075 9.18427 253.214 9.18427C254.681 9.18427 256.148 9.18427 257.639 9.18427C257.685 9.18427 257.732 9.16106 257.802 9.16106C257.778 9.06819 257.755 8.97532 257.708 8.90566C257.01 7.67514 256.288 6.46783 255.589 5.23731C255.496 5.05157 255.357 4.98191 255.17 4.93548C254.146 4.68008 253.121 4.40148 252.097 4.12287C252.003 4.07643 251.934 4.05321 251.84 4.03Z" fill="#F9F0B9"/>
<path d="M152.038 35.5825C152.038 35.5361 152.038 35.4896 152.038 35.4432C152.131 35.0717 152.248 34.677 152.364 34.2823C153.109 34.4681 153.808 34.6538 154.53 34.8396C154.553 34.8163 154.553 34.7931 154.576 34.7699C154.204 34.0966 153.808 33.4465 153.412 32.7268C153.808 32.4946 154.18 32.2856 154.6 32.0302C154.949 32.6571 155.321 33.2608 155.671 33.8876C155.717 33.9805 155.764 34.0502 155.904 34.0502C156.09 33.3536 156.276 32.6339 156.486 31.9142C156.951 32.0302 157.371 32.1463 157.79 32.2624C157.673 32.6803 157.58 33.0982 157.464 33.4929C157.277 34.2127 157.068 34.9556 156.858 35.6754C156.812 35.8147 156.835 35.9308 156.905 36.0469C157.394 36.8827 157.883 37.7185 158.372 38.5543C158.605 38.9723 158.861 39.3902 159.094 39.8081C159.117 39.8545 159.164 39.901 159.257 40.017C159.303 39.9242 159.303 39.8777 159.35 39.8081C159.769 39.0883 160.165 38.3686 160.584 37.6489C160.887 37.1149 161.213 36.5809 161.515 36.0701C161.609 35.9308 161.632 35.7915 161.562 35.6057C161.259 34.5377 160.98 33.4465 160.677 32.3785C160.677 32.3553 160.677 32.3088 160.654 32.2624C161.073 32.1463 161.492 32.0302 161.958 31.9142C162.144 32.6339 162.354 33.3304 162.54 34.0269C162.656 34.0502 162.703 34.0037 162.773 33.9109C163.122 33.284 163.471 32.6803 163.844 32.0535C164.24 32.2856 164.636 32.4946 165.032 32.7268C164.659 33.4233 164.217 34.0966 163.867 34.7931C163.891 34.8163 163.914 34.8396 163.937 34.8628C164.636 34.677 165.334 34.4913 166.079 34.2823C166.196 34.7235 166.312 35.1414 166.429 35.5825C166.056 35.6754 165.73 35.7915 165.381 35.8611C164.589 36.0701 163.774 36.279 162.982 36.5112C162.889 36.5344 162.773 36.6505 162.726 36.7666C162.051 37.9043 161.399 39.0419 160.747 40.1564C160.677 40.2492 160.607 40.3653 160.561 40.4582C160.537 40.5278 160.514 40.6207 160.491 40.7136C160.7 40.7136 160.84 40.7136 161.003 40.7136C162.307 40.7136 163.634 40.7136 164.938 40.7136C165.148 40.7136 165.311 40.6439 165.451 40.5046C166.173 39.7617 166.894 39.0419 167.64 38.3222C167.709 38.2525 167.803 38.1829 167.872 38.1132C168.105 38.2293 168.594 38.6937 168.85 39.0651C168.385 39.5295 167.919 39.9938 167.453 40.4582C167.383 40.5278 167.29 40.5743 167.383 40.7368C168.129 40.7368 168.897 40.7368 169.665 40.7368C169.665 41.2011 169.665 41.6191 169.665 42.0834C168.897 42.0834 168.129 42.0602 167.267 42.0834C167.36 42.2227 167.407 42.3156 167.477 42.362C167.896 42.7799 168.315 43.1978 168.734 43.6158C168.781 43.6622 168.804 43.7086 168.827 43.7318C168.501 44.0569 168.198 44.3587 167.849 44.6838C167.57 44.4051 167.244 44.1033 166.964 43.8015C166.429 43.2675 165.916 42.7335 165.358 42.1995C165.264 42.1298 165.125 42.0602 165.008 42.0602C163.588 42.0602 162.144 42.0602 160.724 42.0602C160.631 42.0602 160.561 42.0834 160.421 42.1066C160.584 42.3852 160.724 42.6638 160.887 42.9192C161.446 43.8944 162.004 44.8463 162.563 45.8214C162.726 46.1 162.913 46.2858 163.262 46.3786C164.193 46.5876 165.125 46.8662 166.056 47.0984C166.173 47.1216 166.266 47.168 166.429 47.2377C166.312 47.6556 166.196 48.0735 166.079 48.5146C165.334 48.3521 164.636 48.1199 163.914 47.9806C163.891 48.0038 163.891 48.0271 163.867 48.0503C164.263 48.7236 164.636 49.3737 165.055 50.0934C164.682 50.3256 164.31 50.5346 163.914 50.7667C163.867 50.6971 163.797 50.6506 163.774 50.581C163.448 50.0238 163.122 49.4665 162.819 48.8861C162.773 48.7932 162.703 48.7468 162.587 48.7932C162.4 49.4898 162.214 50.1863 162.028 50.8828C161.585 50.7667 161.166 50.6506 160.724 50.5346C160.77 50.3024 160.817 50.0702 160.887 49.8612C161.096 49.0254 161.329 48.2128 161.562 47.377C161.585 47.3073 161.585 47.2377 161.609 47.1912C161.678 47.0287 161.655 46.9126 161.562 46.7733C160.863 45.5428 160.142 44.3355 159.443 43.105C159.396 43.0121 159.327 42.9424 159.233 42.8264C158.977 43.2443 158.768 43.6158 158.558 43.9872C158.023 44.9159 157.487 45.8446 156.951 46.7501C156.858 46.8894 156.858 47.0287 156.905 47.2145C157.208 48.2825 157.487 49.3737 157.79 50.4417C157.79 50.4649 157.79 50.5113 157.813 50.5578C157.347 50.6506 156.905 50.7667 156.462 50.8828C156.276 50.1631 156.067 49.4665 155.88 48.77C155.717 48.7468 155.694 48.8629 155.647 48.9558C155.321 49.5594 154.972 50.1399 154.6 50.7667C154.18 50.5346 153.808 50.3256 153.412 50.0934C153.808 49.3969 154.204 48.7236 154.623 48.0038C154.506 48.0038 154.437 47.9806 154.367 48.0038C153.808 48.1664 153.249 48.3057 152.69 48.4682C152.597 48.4914 152.527 48.4914 152.387 48.5146C152.271 48.0967 152.155 47.6788 152.038 47.2377C152.481 47.1216 152.9 47.0055 153.319 46.8894C154.017 46.7037 154.739 46.5179 155.438 46.3322C155.647 46.2858 155.741 46.1232 155.81 45.9607C156.276 45.1481 156.742 44.3123 157.231 43.4997C157.44 43.1282 157.65 42.7799 157.86 42.4084C157.906 42.3388 157.929 42.2459 157.999 42.1298C157.906 42.1066 157.86 42.0834 157.79 42.0834C156.765 42.0834 155.764 42.0834 154.739 42.0834C154.297 42.0834 153.831 42.0834 153.389 42.1066C153.296 42.1066 153.179 42.153 153.109 42.2227C152.527 42.8031 151.945 43.3836 151.363 43.9408C151.107 44.1962 150.851 44.4516 150.571 44.707C150.245 44.3819 149.919 44.0801 149.593 43.7551C150.129 43.2211 150.664 42.6871 151.177 42.1763C151.06 42.037 150.944 42.0602 150.827 42.0602C150.152 42.0602 149.477 42.0602 148.778 42.0602C148.778 41.619 148.778 41.2011 148.778 40.7368C149.547 40.7368 150.292 40.7368 151.06 40.7368C151.177 40.6207 151.107 40.551 150.99 40.4582C150.571 40.0635 150.175 39.6456 149.779 39.2509C149.71 39.1812 149.663 39.1348 149.616 39.0651C149.942 38.7401 150.245 38.4383 150.571 38.1132C150.618 38.1596 150.688 38.2061 150.757 38.2525C151.526 39.0187 152.294 39.7849 153.063 40.5743C153.156 40.6671 153.226 40.7136 153.365 40.7136C154.832 40.7136 156.299 40.7136 157.79 40.7136C157.836 40.7136 157.883 40.6904 157.953 40.6904C157.929 40.5975 157.906 40.5046 157.86 40.435C157.161 39.2044 156.439 37.9971 155.741 36.7666C155.647 36.5809 155.508 36.5112 155.321 36.4648C154.297 36.2094 153.272 35.9308 152.248 35.6522C152.178 35.6289 152.108 35.6057 152.038 35.5825Z" fill="#F9F0B9"/>
<path d="M38.6137 9.11471C38.6137 9.06828 38.6137 9.02185 38.6137 8.97541C38.7069 8.60393 38.8233 8.20923 38.9397 7.81454C39.6849 8.00028 40.3835 8.18602 41.1053 8.37176C41.1286 8.34854 41.1286 8.32532 41.1519 8.3021C40.7793 7.6288 40.3835 6.97871 39.9876 6.25897C40.3835 6.02679 40.756 5.81784 41.1752 5.56244C41.5245 6.18931 41.897 6.79297 42.2463 7.41984C42.2929 7.51271 42.3395 7.58236 42.4792 7.58236C42.6655 6.88584 42.8517 6.1661 43.0613 5.44636C43.527 5.56245 43.9462 5.67853 44.3653 5.79462C44.2489 6.21253 44.1557 6.63045 44.0393 7.02515C43.853 7.74489 43.6434 8.48784 43.4339 9.20758C43.3873 9.34689 43.4106 9.46297 43.4805 9.57906C43.9694 10.4149 44.4584 11.2507 44.9474 12.0866C45.1803 12.5045 45.4364 12.9224 45.6693 13.3403C45.6926 13.3867 45.7392 13.4332 45.8323 13.5492C45.8789 13.4564 45.8789 13.4099 45.9254 13.3635C46.3446 12.6438 46.7404 11.924 47.1596 11.2043C47.4623 10.6703 47.7883 10.1363 48.091 9.6255C48.1842 9.48619 48.2074 9.34689 48.1376 9.16115C47.8349 8.09315 47.5554 7.00193 47.2527 5.93392C47.2527 5.9107 47.2527 5.86427 47.2294 5.81784C47.6486 5.70175 48.0677 5.58566 48.5334 5.46958C48.7197 6.18932 48.9293 6.88584 49.1156 7.58236C49.232 7.60558 49.2786 7.55914 49.3484 7.46627C49.6977 6.8394 50.047 6.23575 50.4196 5.60888C50.8154 5.84105 51.2113 6.05001 51.6071 6.28219C51.2346 6.97871 50.7921 7.65202 50.4429 8.34854C50.4661 8.37176 50.4894 8.39497 50.5127 8.41819C51.2113 8.23245 51.9099 8.04671 52.655 7.83775C52.7714 8.27888 52.8879 8.6968 53.0043 9.13793C52.6317 9.2308 52.3057 9.34689 51.9564 9.41654C51.1647 9.6255 50.3497 9.83446 49.558 10.0666C49.4649 10.0898 49.3484 10.2059 49.3019 10.322C48.6266 11.4597 47.9746 12.5973 47.3226 13.7118C47.2527 13.8046 47.2062 13.9207 47.1363 14.0136C47.113 14.0832 47.0897 14.1761 47.0664 14.269C47.276 14.269 47.4157 14.269 47.5787 14.269C48.8827 14.269 50.21 14.269 51.514 14.269C51.7236 14.269 51.8866 14.1993 52.0263 14.06C52.7481 13.3171 53.47 12.5973 54.2151 11.8776C54.285 11.8079 54.3781 11.7383 54.448 11.6686C54.6808 11.7847 55.1698 12.2491 55.426 12.6206C54.9603 13.0849 54.4946 13.5492 54.0289 14.0136C53.959 14.0832 53.8659 14.1297 53.959 14.2922C54.7041 14.2922 55.4726 14.2922 56.241 14.2922C56.241 14.7566 56.241 15.1745 56.241 15.6388C55.4726 15.6388 54.7041 15.6156 53.8426 15.6388C53.9357 15.7781 53.9823 15.871 54.0521 15.9174C54.4713 16.3353 54.8904 16.7533 55.3096 17.1712C55.3561 17.2176 55.3794 17.264 55.4027 17.2873C55.0767 17.6123 54.774 17.9141 54.4247 18.2392C54.1453 17.9606 53.8193 17.6587 53.5399 17.3569C53.0043 16.8229 52.492 16.2889 51.9331 15.7549C51.84 15.6853 51.7003 15.6156 51.5839 15.6156C50.1634 15.6156 48.7197 15.6156 47.2993 15.6156C47.2062 15.6156 47.1363 15.6388 46.9966 15.662C47.1596 15.9406 47.2993 16.2193 47.4623 16.4746C48.0212 17.4498 48.58 18.4017 49.1389 19.3768C49.3019 19.6554 49.4881 19.8412 49.8374 19.934C50.7689 20.143 51.7003 20.4216 52.6317 20.6538C52.7481 20.677 52.8413 20.7234 53.0043 20.7931C52.8879 21.211 52.7714 21.6289 52.655 22.0701C51.9099 21.9075 51.2113 21.6754 50.4894 21.5128C50.4661 21.5361 50.4661 21.5593 50.4429 21.5825C50.8387 22.2558 51.2113 22.9059 51.6304 23.6256C51.2579 23.8578 50.8853 24.0668 50.4894 24.2989C50.4429 24.2293 50.373 24.1828 50.3497 24.1132C50.0237 23.556 49.6977 22.9988 49.395 22.4183C49.3484 22.3254 49.2786 22.279 49.1622 22.3254C48.9759 23.022 48.7896 23.7185 48.6033 24.415C48.1609 24.2989 47.7417 24.1828 47.2993 24.0668C47.3459 23.8346 47.3924 23.6024 47.4623 23.3934C47.6719 22.5576 47.9047 21.745 48.1376 20.9092C48.1609 20.8395 48.1609 20.7699 48.1842 20.7234C48.254 20.5609 48.2307 20.4448 48.1376 20.3055C47.439 19.075 46.7172 17.8677 46.0186 16.6372C45.972 16.5443 45.9022 16.4746 45.809 16.3586C45.5529 16.7765 45.3433 17.148 45.1337 17.5194C44.5982 18.4481 44.0626 19.3768 43.527 20.2823C43.4339 20.4216 43.4339 20.5609 43.4805 20.7467C43.7832 21.8147 44.0626 22.9059 44.3653 23.9739C44.3653 23.9971 44.3653 24.0435 44.3886 24.09C43.9694 24.2061 43.5503 24.3221 43.0846 24.4382C42.8983 23.7185 42.6887 23.022 42.5025 22.3254C42.3395 22.3022 42.3162 22.4183 42.2696 22.5112C41.9436 23.1148 41.5943 23.6953 41.2217 24.3221C40.8026 24.09 40.43 23.881 40.0342 23.6488C40.43 22.9523 40.8259 22.279 41.245 21.5593C41.1286 21.5593 41.0587 21.5361 40.9889 21.5593C40.43 21.7218 39.8712 21.8611 39.3123 22.0236C39.2192 22.0468 39.1493 22.0468 39.0096 22.0701C38.8932 21.6521 38.7768 21.2342 38.6603 20.7931C39.1027 20.677 39.5219 20.5609 39.941 20.4448C40.6396 20.2591 41.3615 20.0734 42.06 19.8876C42.2696 19.8412 42.3627 19.6787 42.4326 19.5161C42.8983 18.7035 43.364 17.8677 43.853 17.0551C44.0626 16.6836 44.2722 16.3353 44.4817 15.9639C44.5283 15.8942 44.5516 15.8013 44.6214 15.6853C44.5283 15.662 44.4817 15.6388 44.4119 15.6388C43.3873 15.6388 42.386 15.6388 41.3615 15.6388C40.919 15.6388 40.4533 15.6388 40.0109 15.662C39.9177 15.662 39.8013 15.7085 39.7315 15.7781C39.1493 16.3586 38.5672 16.939 37.985 17.4962C37.7289 17.7516 37.4728 18.007 37.1933 18.2624C36.8673 17.9373 36.5413 17.6355 36.2153 17.3105C36.7509 16.7765 37.2865 16.2425 37.7988 15.7317C37.6823 15.5924 37.5659 15.6156 37.4495 15.6156C36.7742 15.6156 36.0989 15.6156 35.4003 15.6156C35.4003 15.1745 35.4003 14.7566 35.4003 14.2922C36.1688 14.2922 36.9139 14.2922 37.6823 14.2922C37.7988 14.1761 37.7289 14.1065 37.6125 14.0136C37.1933 13.6189 36.7975 13.201 36.4016 12.8063C36.3318 12.7366 36.2852 12.6902 36.2386 12.6206C36.5646 12.2955 36.8673 11.9937 37.1933 11.6686C37.2399 11.7151 37.3098 11.7615 37.3796 11.8079C38.148 12.5741 38.9165 13.3403 39.6849 14.1297C39.778 14.2226 39.8479 14.269 39.9876 14.269C41.4546 14.269 42.9216 14.269 44.4119 14.269C44.4584 14.269 44.505 14.2458 44.5749 14.2458C44.5516 14.1529 44.5283 14.06 44.4817 13.9904C43.7832 12.7599 43.0613 11.5525 42.3627 10.322C42.2696 10.1363 42.1299 10.0666 41.9436 10.0202C40.919 9.7648 39.8945 9.48619 38.8699 9.20758C38.7535 9.16115 38.6836 9.13793 38.6137 9.11471Z" fill="#F9F0B9"/>
</svg>
