<svg width="101" height="120" viewBox="0 0 101 120" fill="none" xmlns="http://www.w3.org/2000/svg">
<path fill-rule="evenodd" clip-rule="evenodd" d="M50.0298 107C77.51 107 100.03 84.563 100.03 57C100.03 29.4278 77.51 7 50.0298 7C22.4575 7 0.0297852 29.437 0.0297852 57C0.0297852 84.563 22.4575 107 50.0298 107Z" fill="#F2DCDB"/>
<path d="M74.7938 89.7758L56.8523 68.6429L47.965 58.2404H65.9931C65.9993 58.2404 65.9993 58.2404 66.0055 58.2404C66.8404 58.2404 67.5207 57.5601 67.5207 56.7252C67.5207 56.2923 67.3352 55.8965 67.0445 55.6243L52.9807 39.031L38.7499 22.3202C38.4654 21.9801 38.0387 21.7883 37.5996 21.7883C37.1543 21.7883 36.7337 21.9862 36.4492 22.3202L8.11753 55.7418C7.73408 56.1933 7.65368 56.8241 7.90107 57.356C8.14845 57.8941 8.68651 58.2342 9.27405 58.2342H27.2527L0.362028 89.8994C-0.0214179 90.3509 -0.108003 90.9818 0.139382 91.5136C0.386766 92.0517 0.924828 92.3918 1.51237 92.3918H36.0843V118.485C36.0843 119.32 36.7646 120 37.5996 120C38.4345 120 39.1148 119.32 39.1148 118.485V92.3918H73.7486C73.7548 92.3918 73.7548 92.3918 73.761 92.3918C74.5959 92.3918 75.2762 91.7115 75.2762 90.8766C75.27 90.4437 75.0907 90.0541 74.7938 89.7758ZM37.5996 25.6475L50.6676 40.9977L62.7215 55.2162H44.6748H30.5182H12.5333L37.5996 25.6475ZM4.78403 89.3676L31.217 58.2466H43.9883L54.5516 70.6096L70.4769 89.3676H4.78403Z" fill="#0066E6"/>
<path d="M24.5439 11.5838L31.2171 16.3892L28.6566 24.2375C28.4526 24.8621 28.6752 25.5486 29.2071 25.9321C29.473 26.1238 29.7822 26.2166 30.0977 26.2166C30.4131 26.2166 30.7285 26.1176 30.9944 25.9259L37.612 21.071L44.2852 25.9321C44.817 26.3155 45.5345 26.3217 46.0663 25.9321C46.5982 25.5486 46.8208 24.8621 46.6168 24.2375L44.0563 16.3892L50.7295 11.5838C51.2614 11.2003 51.4902 10.5138 51.2861 9.8892C51.082 9.26455 50.5007 8.83781 49.8451 8.83781H41.6196L39.053 1.03902C38.8489 0.420558 38.2675 0 37.612 0C37.612 0 37.612 0 37.6058 0C36.9502 0 36.3689 0.426736 36.1709 1.05138L33.6662 8.84399H25.4283C24.7727 8.84399 24.1914 9.26455 23.9873 9.89538C23.7894 10.5138 24.012 11.2003 24.5439 11.5838ZM34.7547 11.8683C35.4102 11.8683 35.9916 11.4415 36.1957 10.8169L37.6181 6.40726L39.0715 10.8293C39.2756 11.4477 39.857 11.8683 40.5125 11.8683H45.1448L41.3846 14.5771C40.8527 14.9606 40.6239 15.6471 40.828 16.2779L42.2813 20.7308L38.4964 17.9725C38.2304 17.7808 37.9212 17.6818 37.6058 17.6818C37.2904 17.6818 36.9749 17.7808 36.709 17.9725L32.9982 20.6937L34.4454 16.2717C34.6495 15.6471 34.4269 14.9606 33.8888 14.5709L30.1286 11.8621H34.7547V11.8683Z" fill="#0066E6"/>
</svg>
