<svg width="17" height="21" viewBox="0 0 17 21" fill="none" xmlns="http://www.w3.org/2000/svg">
<path d="M16.3734 14.4422C16.285 14.2285 16.1704 14.0723 16.0247 13.9736C15.93 11.8465 14.8164 9.01951 12.0113 6.88116C12.1073 6.85992 12.1882 6.79368 12.2268 6.6987C12.2791 6.57247 12.2405 6.42625 12.1334 6.34126L11.2727 5.66014L12.3327 5.35895C12.4635 5.32146 12.5544 5.20148 12.5544 5.06525C12.5544 4.92903 12.4635 4.8078 12.3327 4.77156L11.2727 4.47037L12.1334 3.78925C12.2405 3.70426 12.2791 3.55804 12.2256 3.43181C12.1733 3.30558 12.0437 3.22935 11.9067 3.2456L10.8193 3.38057L11.3562 2.4145C11.4222 2.29453 11.4022 2.1458 11.3051 2.04957C11.2079 1.95334 11.0597 1.93209 10.9401 1.99958L9.98599 2.53823L10.1118 1.44594C10.128 1.30971 10.0508 1.17973 9.92496 1.12849C9.79915 1.076 9.65342 1.11475 9.56872 1.22223L8.88986 2.08581L8.58967 1.02226C8.5523 0.891037 8.43273 0.799805 8.29696 0.799805C8.16118 0.799805 8.04036 0.891037 8.00424 1.02226L7.70405 2.08581L7.0252 1.22223C6.9405 1.11475 6.796 1.076 6.66895 1.12849C6.54315 1.18098 6.46716 1.31096 6.48211 1.44594L6.60792 2.53823L5.65379 1.99958C5.53421 1.93209 5.38598 1.95334 5.28883 2.04957C5.19167 2.1458 5.17174 2.29578 5.23776 2.4145L5.77461 3.38057L4.6872 3.2456C4.55143 3.2281 4.42064 3.30433 4.36833 3.43181C4.31601 3.55804 4.35338 3.70426 4.4605 3.78925L5.32121 4.47037L4.2612 4.77156C4.13042 4.80905 4.03949 4.92903 4.03949 5.06525C4.03949 5.20148 4.13042 5.32271 4.2612 5.35895L5.32121 5.66014L4.4605 6.34126C4.35338 6.42625 4.31601 6.57122 4.36708 6.6987C4.40569 6.79368 4.4879 6.85992 4.58381 6.88116C1.77872 9.02076 0.665148 11.8465 0.570482 13.9748C0.424747 14.0748 0.308907 14.2323 0.217978 14.4547C-0.0610365 15.2171 -0.112107 18.2278 0.302679 19.0614C0.450905 19.3663 0.76355 19.625 1.26304 19.845C1.26304 19.845 1.26304 19.845 1.26428 19.845C1.69277 20.0337 2.25952 20.1937 2.97823 20.3311C3.01685 20.3486 3.05795 20.3586 3.10279 20.3586C3.10778 20.3586 3.11151 20.3574 3.11649 20.3574C3.56367 20.4386 4.06814 20.5111 4.63115 20.5773C5.66624 20.6911 6.7985 20.7623 8.08521 20.7923C8.10887 20.7973 8.13254 20.7998 8.15745 20.7998C8.19731 20.7986 8.23717 20.7986 8.27703 20.7973C8.2845 20.7973 8.29073 20.7998 8.2982 20.7998C8.30568 20.7998 8.31315 20.7986 8.32187 20.7973C8.36547 20.7986 8.40782 20.7986 8.45141 20.7998C8.45266 20.7998 8.45515 20.7998 8.45639 20.7998C8.48006 20.7998 8.50248 20.7973 8.52366 20.7923C9.79043 20.7623 10.9464 20.6898 11.9653 20.5773C12.5258 20.5124 13.0302 20.4399 13.4787 20.3574C13.4824 20.3574 13.4874 20.3586 13.4911 20.3586C13.536 20.3586 13.5771 20.3486 13.6157 20.3311C14.3057 20.1987 14.86 20.0437 15.286 19.8625C15.3271 19.8537 15.3645 19.8362 15.3981 19.8125C15.864 19.5975 16.1629 19.3488 16.3024 19.0601C16.6961 18.249 16.6873 15.2633 16.3734 14.4422ZM2.80136 15.3933V19.6675C2.32927 19.565 1.9668 19.4588 1.69152 19.3538V15.0984C1.99794 15.2121 2.3654 15.3108 2.80136 15.3933ZM3.41046 15.4945C3.75175 15.5433 4.12543 15.5858 4.53274 15.6208V19.9475C4.11422 19.8962 3.74054 19.8412 3.41046 19.785V15.4945ZM5.14185 15.6683C5.49311 15.692 5.86678 15.7108 6.26413 15.7258V20.1012C5.87675 20.0762 5.50182 20.0474 5.14185 20.0137V15.6683ZM6.87323 15.7458C7.23072 15.7558 7.6044 15.762 7.99552 15.767V20.1774C7.60814 20.1674 7.23321 20.1549 6.87323 20.1374V15.7458ZM8.60462 15.767C8.99574 15.7632 9.36942 15.7557 9.72691 15.747V20.1362C9.36444 20.1537 8.98951 20.1674 8.60462 20.1774V15.767ZM10.336 15.727C10.7321 15.712 11.1058 15.692 11.4583 15.6695V20.0149C11.0996 20.0487 10.7259 20.0787 10.336 20.1024V15.727ZM12.0686 15.622C12.476 15.587 12.8496 15.5445 13.1909 15.4958V19.7875C12.8608 19.8437 12.4884 19.8987 12.0686 19.9487V15.622ZM13.8 15.3946C14.241 15.3096 14.6134 15.2109 14.9223 15.0946V19.3551C14.6445 19.46 14.2796 19.5675 13.8 19.67V15.3946ZM6.17196 4.35914L5.69863 3.98421L6.29901 4.05794C6.41236 4.07294 6.52571 4.02045 6.58923 3.92547C6.65276 3.83049 6.65899 3.70676 6.60293 3.60553L6.29901 3.05938L6.83337 3.36057C6.93302 3.41681 7.05633 3.41182 7.15225 3.34808C7.24816 3.28434 7.29923 3.17186 7.28677 3.05813L7.21577 2.442L7.59817 2.92816C7.66917 3.01814 7.78501 3.06188 7.89712 3.03814C8.00922 3.01564 8.10015 2.9319 8.13129 2.82192L8.30194 2.21954L8.47259 2.82192C8.50373 2.9319 8.59466 3.01564 8.70676 3.03814C8.81886 3.06063 8.9347 3.01814 9.0057 2.92816L9.3881 2.442L9.3171 3.05813C9.3034 3.17186 9.35572 3.28434 9.45163 3.34808C9.54754 3.41182 9.66961 3.41681 9.7705 3.36057L10.3049 3.05938L10.0009 3.60553C9.94489 3.70551 9.94987 3.82924 10.0146 3.92547C10.0782 4.02045 10.1903 4.07294 10.3049 4.05794L10.9052 3.98421L10.4319 4.35914C10.3422 4.43037 10.2999 4.5466 10.3223 4.65908C10.3447 4.77156 10.4282 4.86279 10.5378 4.89404L11.1369 5.06525L10.5378 5.23647C10.4282 5.26772 10.3447 5.35895 10.3223 5.47143C10.2999 5.58391 10.3422 5.70013 10.4319 5.77137L10.9165 6.15505L10.3011 6.08381C10.1865 6.07007 10.0757 6.12255 10.0122 6.21879C9.94863 6.31502 9.94364 6.4375 9.9997 6.53748L10.2961 7.06738L9.76801 6.76993C9.66836 6.71369 9.54505 6.71869 9.44914 6.78243C9.35323 6.84617 9.30216 6.95865 9.31461 7.07238L9.38561 7.68851L9.00321 7.20235C8.93221 7.11237 8.81762 7.06863 8.70427 7.09237C8.59216 7.11487 8.50124 7.1986 8.4701 7.30858L8.29945 7.91097L8.1288 7.30858C8.09766 7.1986 8.00673 7.11487 7.89463 7.09237C7.8747 7.08863 7.85477 7.08612 7.83484 7.08612C7.74266 7.08612 7.65422 7.12862 7.59568 7.20235L7.21328 7.68851L7.28428 7.07238C7.29798 6.95865 7.24567 6.84617 7.14976 6.78243C7.05384 6.71869 6.93178 6.71369 6.83088 6.76993L6.30275 7.06738L6.5992 6.53748C6.65525 6.4375 6.65027 6.31377 6.58675 6.21879C6.52322 6.12255 6.41111 6.07132 6.29776 6.08381L5.68244 6.15505L6.16697 5.77137C6.25666 5.70013 6.29901 5.58391 6.27659 5.47143C6.25417 5.35895 6.17071 5.26772 6.0611 5.23647L5.46197 5.06525L6.0611 4.89404C6.17071 4.86279 6.25417 4.77156 6.27659 4.65908C6.30524 4.5466 6.26164 4.43037 6.17196 4.35914ZM5.74472 6.81868L5.24149 7.71726C5.17423 7.83723 5.1954 7.98596 5.29132 8.08344C5.38847 8.18092 5.5367 8.20091 5.65628 8.13343L6.61041 7.59478L6.4846 8.68707C6.46841 8.8233 6.54564 8.95327 6.67145 9.00451C6.79725 9.057 6.94299 9.01826 7.02769 8.91078L7.70654 8.04719L8.00673 9.11075C8.0441 9.24197 8.16368 9.3332 8.29945 9.3332C8.43522 9.3332 8.55604 9.24197 8.59216 9.11075L8.89235 8.04719L9.57121 8.91078C9.65591 9.01826 9.8004 9.057 9.92745 9.00451C10.0533 8.95202 10.1292 8.82205 10.1143 8.68707L9.98849 7.59478L10.9426 8.13343C11.0622 8.20091 11.2104 8.17967 11.3076 8.08344C11.4047 7.98596 11.4247 7.83723 11.3574 7.71726L10.8542 6.81993C14.1164 8.90579 15.3508 11.9115 15.4181 14.0861C15.357 14.171 15.2673 14.2523 15.1478 14.3273C15.0967 14.341 15.0519 14.366 15.0145 14.4023C14.6869 14.571 14.1974 14.7109 13.5472 14.8234C13.5297 14.8209 13.5123 14.8184 13.4936 14.8184C13.4413 14.8184 13.3927 14.8334 13.3491 14.8559C12.1558 15.0434 10.473 15.1446 8.30443 15.1596C6.12961 15.1446 4.44306 15.0421 3.24728 14.8547C3.20493 14.8322 3.15635 14.8172 3.10404 14.8172C3.0866 14.8172 3.06916 14.8197 3.05172 14.8222C2.41522 14.7122 1.93317 14.576 1.60558 14.4122C1.56198 14.366 1.50593 14.3335 1.4424 14.321C1.32656 14.2473 1.23813 14.1685 1.17958 14.0861C1.24809 11.9102 2.48248 8.90453 5.74472 6.81868ZM0.85448 18.7902C0.53436 18.1478 0.543081 15.3546 0.790956 14.676C0.803412 14.6472 0.814623 14.6222 0.825833 14.5997C0.899324 14.6709 0.984024 14.7384 1.08243 14.8022V19.0414C0.955375 18.9464 0.888111 18.8614 0.85448 18.7902ZM15.7569 18.7927C15.7232 18.8627 15.656 18.9489 15.5314 19.0414V14.7934C15.6236 14.7322 15.7058 14.6672 15.7756 14.5985C15.7855 14.6185 15.7967 14.641 15.8067 14.6672C16.0558 15.3196 16.0683 18.1465 15.7569 18.7927Z" fill="inherit"/>
</svg>
