<svg width="16" height="26" viewBox="0 0 16 26" fill="none" xmlns="http://www.w3.org/2000/svg">
<path d="M15.582 18.9028L11.8442 14.5001L9.9927 12.333H13.7486C13.7499 12.333 13.7499 12.333 13.7511 12.333C13.9251 12.333 14.0668 12.1912 14.0668 12.0173C14.0668 11.9271 14.0282 11.8446 13.9676 11.7879L11.0376 8.331L8.0729 4.84958C8.01363 4.77871 7.92472 4.73877 7.83324 4.73877C7.74047 4.73877 7.65286 4.78 7.59359 4.84958L1.69115 11.8124C1.61127 11.9065 1.59452 12.0379 1.64606 12.1487C1.69759 12.2608 1.80969 12.3317 1.93209 12.3317H5.67765L0.0754225 18.9286C-0.00446205 19.0226 -0.0225006 19.1541 0.0290378 19.2649C0.0805763 19.377 0.192672 19.4478 0.315076 19.4478H7.51757V24.8839C7.51757 25.0578 7.6593 25.1995 7.83324 25.1995C8.00718 25.1995 8.14892 25.0578 8.14892 24.8839V19.4478H15.3643C15.3656 19.4478 15.3656 19.4478 15.3669 19.4478C15.5408 19.4478 15.6825 19.3061 15.6825 19.1322C15.6813 19.042 15.6439 18.9608 15.582 18.9028ZM7.83324 5.54277L10.5558 8.74073L13.067 11.7029H9.30724H6.35796H2.61111L7.83324 5.54277ZM0.996672 18.8178L6.50355 12.3342H9.16422L11.3649 14.9099L14.6827 18.8178H0.996672Z" fill="inherit"/>
<path d="M5.11325 2.61299L6.5035 3.61413L5.97008 5.24918C5.92756 5.37932 5.97394 5.52234 6.08475 5.60222C6.14016 5.64216 6.20458 5.66149 6.27029 5.66149C6.336 5.66149 6.40171 5.64087 6.45712 5.60093L7.83577 4.58949L9.22602 5.60222C9.33683 5.68211 9.48629 5.6834 9.5971 5.60222C9.7079 5.52234 9.75429 5.37932 9.71177 5.24918L9.17835 3.61413L10.5686 2.61299C10.6794 2.53311 10.7271 2.39009 10.6846 2.25996C10.642 2.12982 10.5209 2.04092 10.3843 2.04092H8.67069L8.13598 0.416169C8.09346 0.287323 7.97235 0.199707 7.83577 0.199707C7.83577 0.199707 7.83577 0.199707 7.83448 0.199707C7.6979 0.199707 7.57679 0.28861 7.53556 0.418745L7.01373 2.04221H5.2975C5.16093 2.04221 5.03981 2.12982 4.99729 2.26124C4.95606 2.39009 5.00245 2.53311 5.11325 2.61299ZM7.2405 2.67226C7.37708 2.67226 7.49819 2.58336 7.54071 2.45322L7.83706 1.53455L8.13985 2.4558C8.18237 2.58465 8.30348 2.67226 8.44006 2.67226H9.40512L8.62173 3.23661C8.51092 3.31649 8.46325 3.45951 8.50577 3.59094L8.80856 4.51863L8.02002 3.94397C7.96462 3.90403 7.90019 3.88342 7.83448 3.88342C7.76877 3.88342 7.70306 3.90403 7.64765 3.94397L6.87458 4.5109L7.17608 3.58965C7.2186 3.45951 7.17221 3.31649 7.06012 3.23532L6.27673 2.67097H7.2405V2.67226Z" fill="inherit"/>
</svg>
