<svg width="114" height="104" viewBox="0 0 114 104" fill="none" xmlns="http://www.w3.org/2000/svg">
<path fill-rule="evenodd" clip-rule="evenodd" d="M63.0298 100C90.51 100 113.03 77.563 113.03 50C113.03 22.4278 90.51 0 63.0298 0C35.4575 0 13.0298 22.437 13.0298 50C13.0298 77.563 35.4575 100 63.0298 100Z" fill="#F2DCDB"/>
<path d="M97.3914 87.901C97.3828 87.8924 97.3742 87.8839 97.3657 87.8753C94.3942 84.998 89.8984 84.5784 86.533 86.5994L71.3587 71.4422H89.6244C90.7804 71.4422 91.7224 70.5002 91.7224 69.3442C91.7224 68.1881 90.7804 67.2461 89.6244 67.2461H67.1626L55.0797 55.1718H78.9801C79.9221 59.0595 83.4416 61.9625 87.612 61.9625C92.5102 61.9625 96.5008 57.9806 96.5008 53.0737C96.5008 48.1755 92.5188 44.1849 87.612 44.1849C83.4331 44.1849 79.9221 47.0794 78.9801 50.9757H55.0711L66.9914 39.0726H89.6158C90.7719 39.0726 91.7139 38.1306 91.7139 36.9746C91.7139 35.8185 90.7719 34.8765 89.6158 34.8765H71.1874L86.533 19.5481C89.8984 21.569 94.3942 21.1494 97.3657 18.2721C97.3742 18.2636 97.3828 18.255 97.3914 18.2464C100.868 14.7697 100.868 9.11788 97.3657 5.61546C93.8718 2.23292 88.2628 2.24148 84.8717 5.64115C83.1762 7.3367 82.2427 9.57174 82.2427 11.9438C82.2427 13.6051 82.6966 15.2064 83.5615 16.5937L68.3272 31.8108V13.6822C68.3272 12.5261 67.3853 11.5841 66.2292 11.5841C65.0732 11.5841 64.1312 12.5261 64.1312 13.6822V36.0155L52.0568 48.0727V24.0781C55.9446 23.1361 58.8476 19.6166 58.8476 15.4377C58.8476 10.5394 54.8656 6.54887 49.9588 6.54887C45.0605 6.54887 41.07 10.5308 41.07 15.4377C41.07 19.6166 43.9644 23.1276 47.8608 24.0781V47.9871L36.0433 36.1782V13.6822C36.0433 12.5261 35.1013 11.5841 33.9453 11.5841C32.7892 11.5841 31.8472 12.5261 31.8472 13.6822V31.9907L16.4588 16.6108C17.3152 15.2236 17.7776 13.6222 17.7776 11.9609C17.7776 9.58887 16.8442 7.35382 15.1486 5.65827C15.1401 5.64971 15.1315 5.64115 15.1229 5.63258C11.6291 2.25005 6.02006 2.25861 2.62896 5.65827C0.933409 7.35382 0 9.58887 0 11.9609C0 14.333 0.933409 16.568 2.62896 18.2636C5.52338 21.158 10.0277 21.5947 13.4702 19.5481L28.8329 34.8937H10.5672C9.41116 34.8937 8.46919 35.8356 8.46919 36.9917C8.46919 38.1478 9.41116 39.0897 10.5672 39.0897H33.029L44.9492 50.9928H20.9632C20.0212 47.1051 16.5016 44.2021 12.3313 44.2021C7.43302 44.2021 3.44248 48.184 3.44248 53.0909C3.44248 57.9035 7.51009 61.9797 12.3313 61.9797C16.5102 61.9797 20.0212 59.0852 20.9632 55.1889H44.9492L32.8663 67.2633H10.5672C9.41116 67.2633 8.46919 68.2052 8.46919 69.3613C8.46919 70.5173 9.41116 71.4593 10.5672 71.4593H28.6617L13.4788 86.6079C10.0448 84.5613 5.53195 84.998 2.62896 87.8924C-0.847775 91.3692 -0.847775 97.021 2.62896 100.498C4.33307 102.202 6.58524 103.05 8.85454 103.05C11.1153 103.05 13.376 102.21 15.1229 100.515C15.1315 100.506 15.1401 100.498 15.1486 100.489C18.1116 97.5263 18.5483 92.9877 16.4503 89.5452L31.8558 74.1568V92.6366C31.8558 93.7926 32.7978 94.7346 33.9538 94.7346C35.1099 94.7346 36.0518 93.7926 36.0518 92.6366V69.9864L47.8693 58.1775V82.0865C43.9815 83.0285 41.0786 86.548 41.0786 90.7269C41.0786 95.5481 45.1462 99.6157 49.9674 99.6157C54.8656 99.6157 58.8561 95.6338 58.8561 90.7269C58.8561 86.548 55.9617 83.037 52.0654 82.0865V58.0919L64.1398 70.1491V92.6451C64.1398 93.8012 65.0817 94.7432 66.2378 94.7432C67.3938 94.7432 68.3358 93.8012 68.3358 92.6451V74.3366L83.5701 89.5537C81.4806 92.9877 81.9088 97.5348 84.8803 100.498C88.2799 103.897 93.8804 103.906 97.3999 100.498C100.868 97.0296 100.868 91.3777 97.3914 87.901ZM87.612 48.3896C90.241 48.3896 92.3047 50.4533 92.3047 53.0823C92.3047 55.6684 90.1981 57.775 87.612 57.775C85.0258 57.775 82.9193 55.6684 82.9193 53.0823C82.9107 50.4448 84.9745 48.3896 87.612 48.3896ZM87.8346 8.6212C88.7252 7.73061 89.9155 7.28532 91.1059 7.28532C92.3047 7.28532 93.5036 7.73061 94.4285 8.6212C96.2953 10.488 96.3038 13.4167 94.437 15.2835C92.5788 17.0733 89.6158 17.0818 87.8346 15.2921C86.9355 14.3929 86.4388 13.2026 86.4388 11.9524C86.4388 10.7107 86.9355 9.52036 87.8346 8.6212ZM12.2114 15.275C10.3531 17.0733 7.38164 17.0904 5.59189 15.3006C4.69273 14.4015 4.19606 13.2112 4.19606 11.9609C4.19606 10.7107 4.69273 9.52036 5.59189 8.6212C6.48248 7.73061 7.66423 7.28532 8.85454 7.28532C10.0534 7.28532 11.2608 7.73061 12.1943 8.62977C13.0849 9.52892 13.5815 10.7107 13.5815 11.9524C13.5815 13.2112 13.0849 14.4015 12.2114 15.275ZM12.3313 57.775C9.78795 57.775 7.63854 55.6256 7.63854 53.0823C7.63854 50.4962 9.74513 48.3896 12.3313 48.3896C14.9602 48.3896 17.024 50.4533 17.024 53.0823C17.024 55.6684 14.9174 57.775 12.3313 57.775ZM12.2028 97.5263C10.3446 99.316 7.38164 99.3246 5.60045 97.5348C3.72507 95.6594 3.72507 92.7308 5.60045 90.8554C6.49105 89.9648 7.68136 89.5195 8.87167 89.5195C10.0705 89.5195 11.2694 89.9648 12.1943 90.8554C14.0525 92.7308 14.0611 95.6594 12.2028 97.5263ZM54.6601 90.7184C54.6601 93.3045 52.5535 95.4111 49.9674 95.4111C47.424 95.4111 45.2746 93.2617 45.2746 90.7184C45.2746 88.1322 47.3812 86.0256 49.9674 86.0256C52.6049 86.0256 54.6601 88.0894 54.6601 90.7184ZM49.9674 20.139C47.3812 20.139 45.2746 18.0324 45.2746 15.4462C45.2746 12.8601 47.3812 10.7535 49.9674 10.7535C52.5963 10.7535 54.6601 12.8173 54.6601 15.4462C54.6601 18.0752 52.6049 20.139 49.9674 20.139ZM94.4541 97.5177C92.5959 99.316 89.6244 99.3331 87.8346 97.5434C85.9593 95.668 85.9593 92.7393 87.8346 90.8639C88.7252 89.9734 89.907 89.5281 91.0973 89.5281C92.2962 89.5281 93.5036 89.9734 94.437 90.8725C96.2953 92.7479 96.2953 95.668 94.4541 97.5177Z" fill="#0066E6"/>
</svg>
