<svg width="195" height="81" viewBox="0 0 195 81" fill="none" xmlns="http://www.w3.org/2000/svg">
<path d="M3.06799 6.54416C3.81425 6.74868 4.58661 6.89227 5.29806 7.18164C5.68098 7.33611 5.96164 7.74296 6.28799 8.0345C5.91378 8.32605 5.52868 8.87649 5.16534 8.86126C3.73592 8.80034 2.28474 8.67851 0.89666 8.3478C-0.0823964 8.11283 -0.28691 6.39404 0.41801 5.20612C1.2774 3.75494 2.57411 2.79112 4.05575 2.05138C6.82974 0.663301 9.83653 0.171597 12.8694 0.0606377C30.0181 -0.57031 45.757 3.93335 60.0556 13.3671C66.2976 17.4857 71.7868 22.4397 75.7074 28.9254C77.8548 32.4804 79.182 36.2944 79.1602 40.5022C79.1406 44.4075 77.4458 47.6428 74.9372 50.4537C70.0811 55.8973 63.8282 58.6974 56.7072 59.7852C52.2035 60.4749 47.6955 60.4423 43.1854 59.9571C41.323 59.7569 39.4802 59.3827 37.5547 59.076C37.3088 59.6046 37.0695 60.1616 36.7976 60.699C36.0361 62.1981 34.8873 62.8965 33.5319 62.7115C32.0154 62.5048 31.1016 61.6302 30.7231 59.968C30.5468 59.1956 30.3967 58.4124 30.2966 57.6248C30.0986 56.067 29.2305 55.1597 27.8076 54.5136C21.4177 51.6025 16.0176 47.497 12.4038 41.3333C11.2725 39.4035 11.6249 37.6694 13.4416 36.314C17.0728 33.6053 21.2654 32.1758 25.6015 31.1076C27.0005 30.7638 28.4168 30.4723 29.8332 30.2112C30.7535 30.0415 30.6426 29.3562 30.7165 28.7209C31.069 25.6749 31.4127 22.6268 31.8044 19.5852C31.8914 18.9129 32.1242 18.2537 32.3396 17.6053C32.7225 16.4435 33.4579 16.2281 34.3738 17.0201C36.1122 18.5256 36.5756 20.5795 36.8019 22.7399C36.9934 24.5718 37.2305 26.3972 37.4481 28.2248C37.5634 29.1952 38.0138 29.5585 39.0798 29.5868C43.9991 29.7152 48.9139 30.0372 53.5873 31.7581C55.2321 32.3651 56.8269 33.181 58.3259 34.0948C60.482 35.4089 61.4828 38.4875 60.7105 40.8742C60.0643 42.8758 57.8386 44.2291 55.2517 44.1791C54.6011 44.166 53.9397 44.1747 53.3044 44.0594C53.002 44.005 52.6343 43.7331 52.5147 43.4633C52.4429 43.2979 52.7322 42.8845 52.9542 42.6953C53.6417 42.11 54.4032 41.6096 55.0841 41.0178C56.0458 40.1824 56.0306 39.4165 54.8557 38.9531C53.0216 38.2308 51.1222 37.5889 49.1946 37.2169C45.9028 36.5794 42.5675 36.1769 39.2495 35.6787C39.0711 35.6526 38.8884 35.6526 38.7078 35.6439C37.3023 35.583 37.187 35.6482 37.1565 37.0298C37.0804 40.5718 36.9912 44.1138 37.0195 47.6558C37.0325 49.3463 37.3067 51.0346 37.4481 52.7251C37.5177 53.5584 38.0312 53.9522 38.7774 54.0567C46.3901 55.1227 53.9506 55.1423 61.1869 52.1703C63.5954 51.1826 65.9582 49.8511 67.9903 48.2324C71.7063 45.2734 72.8377 39.6014 71.0254 34.7344C68.6908 28.4641 64.4135 23.7429 59.1026 19.9115C49.3556 12.8906 38.549 8.24119 26.7416 5.98501C20.5343 4.79927 14.2597 4.39894 7.95239 4.83626C6.67091 4.92546 5.40467 5.31055 4.14495 5.61515C3.7555 5.7087 3.40957 5.98501 3.04406 6.17647C3.05058 6.29831 3.05929 6.42233 3.06799 6.54416ZM29.5177 50.6474C29.5874 50.482 29.6592 50.3863 29.6635 50.2884C29.8702 45.8152 30.0812 41.3442 30.2575 36.8688C30.2836 36.2291 29.8202 36.0594 29.2175 36.1073C27.2724 36.2618 25.2947 36.2161 23.3845 36.5533C20.6257 37.0428 17.88 37.6868 15.1931 38.4831C13.4112 39.0118 13.1958 40.1824 14.3402 41.5944C16.8335 44.673 20.1231 46.6855 23.5716 48.4826C25.4492 49.466 27.3812 50.3254 29.5177 50.6474Z" fill="white"/>
<path d="M172.353 46.3554C173.661 44.8193 174.973 43.2877 176.278 41.7473C178.689 38.9015 181.095 36.0492 184.228 33.9431C185.005 33.421 185.823 32.9423 186.665 32.5333C189.165 31.3149 191.523 32.0894 192.613 34.6785C194.939 40.2091 194.441 45.5286 190.747 50.3108C188.295 53.4829 185.122 55.8718 181.221 57.0097C179.481 57.5166 177.612 57.6145 175.791 57.7886C175.199 57.8451 174.903 57.9713 174.681 58.5305C172.34 64.4549 170.663 70.562 169.595 76.8388C169.473 77.5503 169.375 78.2683 169.236 78.9754C169.035 79.9979 168.592 80.2198 167.621 79.8065C165.113 78.7338 164.107 76.6213 163.72 74.104C163.083 69.9702 164.171 66.0583 165.402 62.1987C166.333 59.2811 167.484 56.4353 168.511 53.5482C168.635 53.2001 168.757 52.7236 168.618 52.4299C166.871 48.7508 167.284 45.0783 168.481 41.36C169.977 36.7106 172.795 32.9771 176.372 29.7593C176.642 29.5156 177.125 29.5091 177.507 29.3916C177.577 29.7506 177.797 30.1618 177.695 30.462C177.035 32.3919 176.404 34.3435 175.569 36.2015C174.668 38.2053 173.489 40.0829 172.56 42.0758C172.142 42.9744 171.994 44.01 171.807 44.9999C171.731 45.4003 171.877 45.8441 171.92 46.2684C172.064 46.2945 172.208 46.3249 172.353 46.3554ZM178.993 50.4087C179.67 50.4087 180.092 50.5022 180.456 50.3934C184.539 49.1903 188.125 47.2996 189.654 42.9852C190.076 41.793 190.209 40.4506 190.198 39.1778C190.194 38.5773 189.537 37.9812 189.176 37.3807C188.767 37.6374 188.262 37.8137 187.966 38.1661C185.714 40.8292 183.434 43.4748 181.308 46.2401C180.386 47.441 179.812 48.9074 178.993 50.4087Z" fill="white"/>
<path d="M96.2372 37.1282C96.7702 37.3675 97.2815 37.7418 97.8385 37.8201C100.662 38.2248 103.504 38.5098 106.328 38.9232C109.004 39.3148 111.671 39.7673 114.326 40.2851C115.562 40.5266 116.46 41.386 117.015 42.4869C118.601 45.6286 119.04 48.8094 116.993 51.9402C115.857 53.6786 114.03 54.4553 112.15 55.021C106.791 56.631 101.585 56.2698 96.6375 53.5437C95.7955 53.0803 95.0166 52.4494 94.3247 51.7749C92.9258 50.4086 92.2361 48.8116 92.8148 46.7817C93.4109 44.6887 95.0579 44.086 96.8768 43.7184C101.411 42.8002 105.706 43.5856 109.787 45.6743C110.131 45.8505 110.653 46.2835 110.608 46.488C110.523 46.8666 110.135 47.256 109.774 47.4779C107.187 49.0727 104.581 49.027 101.837 47.7434C100.495 47.1146 98.9633 46.8687 97.5012 46.5272C97.1096 46.4358 96.6505 46.6077 96.2263 46.6903C95.3669 46.8557 94.7011 47.3082 94.6641 48.2285C94.625 49.1641 95.5214 49.1924 96.1284 49.399C99.5181 50.5543 102.96 50.389 106.395 49.658C108.262 49.262 110.098 48.7333 111.952 48.2764C112.866 48.0523 113.786 47.7194 113.956 46.7099C114.141 45.6112 113.403 44.7562 112.485 44.408C110.61 43.6988 108.686 42.946 106.72 42.6762C102.714 42.1301 98.6674 41.869 94.6359 41.5383C92.7539 41.3838 91.5616 40.346 91.3005 38.4902C90.9916 36.2949 91.6421 34.5848 93.5371 33.262C98.0974 30.0834 103.243 29.2697 108.604 29.4938C111.443 29.6112 114.269 30.0942 117.098 30.4532C117.922 30.5577 118.836 30.747 118.888 31.8196C118.938 32.8595 117.955 34.0562 116.997 34.1454C113.725 34.4565 110.449 34.7567 107.17 34.9895C103.743 35.231 100.33 35.5204 97.0161 36.5103C96.7876 36.5778 96.57 36.6866 96.3459 36.7779C96.309 36.8889 96.2741 37.0086 96.2372 37.1282Z" fill="white"/>
<path d="M125.942 40.3893C125.785 41.3945 125.539 42.3953 125.489 43.407C125.363 46.0417 125.411 48.6895 125.206 51.3178C125.115 52.51 124.675 53.7023 124.227 54.8293C123.973 55.4711 123.686 56.3566 122.678 56.2348C121.595 56.1021 120.737 55.5669 120.426 54.4812C120.15 53.5174 119.806 52.5035 119.852 51.5288C120.002 48.2914 120.309 45.0627 120.563 41.8318C120.744 39.5473 121.392 37.376 122.219 35.2525C122.454 34.6477 122.689 34.0298 123.031 33.4859C124.491 31.1536 124.604 31.0208 126.694 32.9594C128.283 34.4323 129.495 36.3382 130.737 38.144C132.293 40.4045 133.702 42.7652 135.191 45.0736C135.519 45.5848 135.915 46.0526 136.302 46.5682C137.281 46.2158 137.373 45.4391 137.233 44.6972C136.5 40.7657 135.73 36.8408 134.936 32.9224C134.607 31.3015 134.153 29.7046 133.813 28.0837C133.633 27.2178 133.65 26.3475 134.486 25.7144C136.511 26.5563 137.764 28.1729 138.811 29.9787C141.396 34.4323 142.838 39.2384 143.012 44.3817C143.106 47.1622 142.605 49.8709 141.017 52.2381C140.545 52.9408 139.897 53.5718 139.209 54.0743C137.743 55.1491 136.698 55.0643 135.336 53.8546C132.471 51.3091 130.602 48.0455 128.816 44.7254C128.035 43.2743 127.228 41.8361 126.433 40.3915C126.266 40.3893 126.103 40.3893 125.942 40.3893Z" fill="white"/>
<path d="M150.675 50.2971C151.356 50.2971 151.95 50.3754 152.518 50.284C154.904 49.9011 157.276 49.429 159.665 49.0743C160.472 48.9547 161.318 49.0939 162.145 49.1048C163.237 49.12 163.374 50.0534 163.529 50.7561C163.648 51.2957 163.553 52.1921 163.194 52.4815C160.015 55.027 156.641 57.2462 152.446 57.7314C150.42 57.9663 148.464 57.6465 146.663 56.7088C144.909 55.7972 143.739 52.7882 144.263 50.3863C144.544 49.1026 145.077 47.8603 145.603 46.6463C146.139 45.4105 146.463 44.2378 145.875 42.9085C145.471 41.9925 145.984 41.0156 146.978 40.8372C148.197 40.6196 148.76 39.8951 149.087 38.7986C149.319 38.011 149.657 37.2539 150.018 36.2922C149.152 35.831 148.142 35.4285 147.3 34.8019C146.652 34.3189 146.108 33.614 145.714 32.8982C145.429 32.3825 145.729 31.856 146.419 31.7385C147.2 31.6058 147.979 31.4426 148.765 31.3425C151.449 30.9966 154.128 30.5724 156.825 30.3722C159.199 30.196 161.592 30.2612 163.977 30.2699C164.34 30.2721 164.821 30.4462 165.047 30.7116C165.861 31.6711 166.66 32.6567 167.323 33.7206C167.734 34.3776 167.556 34.9716 166.666 35.3066C164.334 36.1791 161.901 36.0355 159.491 36.1421C158.442 36.1878 157.393 36.2204 156.347 36.2922C155.128 36.3749 153.745 38.9422 154.476 39.8582C154.739 40.1867 155.357 40.376 155.814 40.3803C157.076 40.3912 158.34 40.2367 159.604 40.2171C160.172 40.2084 160.772 40.2781 161.31 40.4565C162.948 40.9982 163.405 43.0085 162.165 44.2226C161.94 44.4423 161.521 44.5467 161.188 44.5533C159.308 44.5794 157.428 44.5598 155.548 44.5576C152.609 44.5511 151.797 45.1951 151.153 48.0518C151.014 48.6849 150.884 49.3158 150.675 50.2971Z" fill="white"/>
<path d="M90.7348 6.03719C93.1999 6.05242 95.4343 6.68555 97.2923 8.40216C97.5012 8.59579 97.8602 8.66759 98.1604 8.71981C102.035 9.38121 103.841 13.0211 101.657 16.2607C97.9211 21.8022 92.7713 25.1418 85.9179 25.3725C84.854 25.4073 83.7509 25.1941 82.7153 24.9177C82.0234 24.7328 81.6165 24.9177 81.2119 25.3833C81.1161 25.4921 81.0269 25.6074 80.9225 25.7053C80.3503 26.2297 79.8542 27.0303 78.9165 26.6431C78.0049 26.2645 77.7852 25.379 77.7112 24.4957C77.6612 23.8865 77.7395 23.2686 77.7351 22.655C77.7308 21.8305 77.4632 21.2213 76.7539 20.6338C75.6334 19.7048 75.5856 18.2841 75.7879 16.9395C76.1491 14.5267 77.4414 12.5621 79.0993 10.8629C81.8428 8.04752 86.8512 6.02196 90.7348 6.03719ZM87.3843 20.8079C88.4221 20.6665 89.288 20.5925 90.1365 20.4271C93.1912 19.8288 95.8781 18.4995 98.0603 16.2564C98.774 15.5232 99.3505 14.6551 99.0437 13.5411C98.6499 12.1095 97.5708 11.657 95.6149 12.0486C90.9328 12.9863 87.9586 16.3325 84.9736 19.6374C84.4732 20.1922 84.7212 20.6469 85.5045 20.6969C86.1876 20.7426 86.8708 20.7796 87.3843 20.8079ZM79.5736 18.0187C81.8624 15.7712 84.0381 13.6368 86.3291 11.3872C81.9581 11.633 78.5249 15.2773 79.5736 18.0187Z" fill="white"/>
<path d="M88.5244 47.9388C88.5244 49.8926 88.4591 51.8485 88.5483 53.7979C88.6027 54.9902 88.0675 55.5885 87.0558 56.0084C85.1738 56.7895 83.4942 56.1085 82.8785 54.1635C82.5782 53.2105 82.3716 52.1901 82.3476 51.1936C82.1975 45.0843 82.2715 38.9837 83.3158 32.9375C83.4376 32.2326 83.6182 31.5211 83.8793 30.8576C84.2992 29.7937 85.0999 29.6 86.031 30.244C87.1907 31.0468 87.5105 32.2935 87.6106 33.5554C87.987 38.3441 88.2894 43.1393 88.6179 47.9345C88.5875 47.9345 88.557 47.9367 88.5244 47.9388Z" fill="white"/>
</svg>
