<svg width="1440" height="912" viewBox="0 0 1440 912" fill="none" xmlns="http://www.w3.org/2000/svg">
<path d="M720.14 2032.28C1281.34 2032.28 1736.28 1577.34 1736.28 1016.14C1736.28 454.941 1281.34 0 720.14 0C158.941 0 -296 454.941 -296 1016.14C-296 1577.34 158.941 2032.28 720.14 2032.28Z" fill="#0895FF"/>
<path d="M723.28 1819.24C1167.63 1819.24 1527.85 1459.02 1527.85 1014.66C1527.85 570.309 1167.63 210.089 723.28 210.089C278.926 210.089 -81.2933 570.309 -81.2933 1014.66C-81.2933 1459.02 278.926 1819.24 723.28 1819.24Z" fill="#0686F9"/>
<path d="M723.187 1647.19C1072.86 1647.19 1356.32 1363.73 1356.32 1014.06C1356.32 664.394 1072.86 380.932 723.187 380.932C373.519 380.932 90.0565 664.394 90.0565 1014.06C90.0565 1363.73 373.519 1647.19 723.187 1647.19Z" fill="#0883F2"/>
<path d="M722.795 1493.14C987.214 1493.14 1201.57 1278.78 1201.57 1014.36C1201.57 749.943 987.214 535.589 722.795 535.589C458.376 535.589 244.022 749.943 244.022 1014.36C244.022 1278.78 458.376 1493.14 722.795 1493.14Z" fill="#0673EA"/>
</svg>
