<svg width="524" height="351" viewBox="0 0 524 351" fill="none" xmlns="http://www.w3.org/2000/svg">
<path d="M190.855 101.975C185.272 104.219 180.054 106.019 175.385 107.193C170.089 108.497 164.846 109.175 159.68 109.175C149.245 109.175 141.367 106.566 136.045 101.349C130.723 96.1316 128.036 88.7489 128.036 79.201C128.036 70.0443 129.497 62.1399 132.445 55.4876C135.393 48.8354 139.254 43.8005 144.028 40.3831C148.802 36.9657 153.837 35.2439 159.08 35.2439C166.802 35.2439 170.663 38.87 170.663 46.1223C170.663 47.5571 170.428 49.4615 169.933 51.8615C169.88 52.2006 169.854 52.4093 169.802 52.6963C174.837 53.8441 179.872 55.0441 185.089 55.0702C186.054 52.5137 186.524 49.4093 186.524 45.7832C186.524 38.5309 184.281 32.7134 179.846 28.2786C175.385 23.8699 168.863 21.6524 160.254 21.6524C151.019 21.6524 142.619 24.1307 135.054 29.1134C127.489 34.0961 121.488 41.1135 117.08 50.1919C112.671 59.2703 110.454 69.653 110.454 81.3662C110.454 89.8185 112.332 97.2012 116.062 103.566C119.793 109.932 125.167 114.862 132.184 118.306C139.176 121.775 147.419 123.497 156.915 123.497C162.419 123.497 168.185 122.923 174.289 121.775C178.359 121.019 182.272 119.845 186.133 118.488C188.141 113.14 189.628 107.61 190.855 101.975Z" fill="#F2DCDB"/>
<path d="M244.099 118.671C246.446 113.532 246.786 107.845 247.829 102.34C247.907 101.766 247.96 101.192 248.038 100.619C245.429 103.619 243.264 105.914 241.542 107.427C239.351 109.384 237.472 110.349 235.881 110.349C234.838 110.349 234.003 109.932 233.377 109.097C232.751 108.262 232.412 107.088 232.412 105.575C232.412 103.175 233.533 96.8881 235.751 86.714C237.733 77.7922 238.725 72.3399 238.725 70.3573C238.725 69.1573 238.359 68.3486 237.655 67.9051C236.925 67.4616 235.672 67.2529 233.82 67.2529C231.185 67.2529 229.229 67.7747 227.898 68.8182C226.594 69.8617 225.603 71.5573 224.977 73.9574C223.464 79.7748 222.316 84.5488 221.507 88.2793H206.22C206.768 84.5227 207.368 81.3401 208.02 78.7313C209.22 74.2704 209.82 71.4008 209.82 70.1225C209.82 69.0008 209.507 68.2442 208.855 67.8529C208.229 67.4616 207.107 67.2529 205.516 67.2529C202.489 67.2529 200.194 67.8008 198.602 68.8703C197.011 69.9399 195.863 71.6356 195.133 73.9574C192.185 83.2705 190.724 93.1054 190.724 103.462C190.724 110.48 191.35 115.567 192.576 118.749C193.802 121.932 195.942 123.523 198.968 123.523C200.794 123.523 202.124 123.054 202.907 122.141C203.716 121.227 204.185 119.767 204.342 117.784C204.498 115.801 204.629 112.332 204.707 107.401V104.897C204.707 104.01 204.785 102.471 204.942 100.253C207.655 100.41 212.507 100.488 219.524 100.488C219.133 103.514 218.924 106.097 218.924 108.262C218.924 113.349 219.759 117.184 221.429 119.714C223.098 122.271 226.02 123.549 230.142 123.549C235.072 123.549 239.481 122.193 243.342 119.48C243.577 119.323 243.812 119.088 244.046 118.906C244.073 118.801 244.046 118.749 244.099 118.671Z" fill="#F2DCDB"/>
<path d="M303.186 96.3925C303.786 97.3577 304.099 98.6882 304.099 100.384C304.099 103.619 303.343 106.123 301.804 107.897C298.804 111.523 294.603 114.888 289.125 117.967C283.673 121.045 277.829 122.584 271.621 122.584C263.142 122.584 256.542 120.288 251.846 115.671C247.151 111.054 244.829 104.766 244.829 96.7577C244.829 91.175 246.003 85.9837 248.351 81.1836C250.699 76.3835 253.933 72.5487 258.107 69.7313C262.281 66.9139 266.977 65.4791 272.221 65.4791C276.916 65.4791 280.673 66.8617 283.49 69.653C286.308 72.4444 287.716 76.227 287.716 81.001C287.716 86.5837 285.708 91.3576 281.716 95.3751C277.725 99.3925 270.942 102.549 261.42 104.897C263.429 108.627 267.29 110.48 272.925 110.48C276.551 110.48 280.699 109.201 285.342 106.671C289.986 104.114 294.003 100.801 297.395 96.6794C298.36 95.5577 299.456 94.9838 300.656 94.9838C301.751 94.9316 302.586 95.4272 303.186 96.3925ZM262.594 82.5662C260.534 86.0358 259.516 90.2359 259.516 95.1664V95.4012C264.29 94.2794 268.047 92.5837 270.786 90.3141C273.525 88.0446 274.908 85.4358 274.908 82.4358C274.908 80.8966 274.49 79.6705 273.629 78.7314C272.795 77.7923 271.621 77.3488 270.16 77.3488C267.186 77.3488 264.655 79.0966 262.594 82.5662Z" fill="#F2DCDB"/>
<path d="M347.248 97.6968C346.648 96.7316 345.839 96.262 344.795 96.262C343.517 96.262 342.447 96.8099 341.561 97.9316C337.987 102.236 333.865 105.549 329.195 107.897C324.526 110.245 319.856 111.419 315.16 111.419C311.978 111.419 309.734 111.054 308.482 110.349C307.204 109.645 306.578 108.393 306.578 106.645C306.578 104.506 307.36 102.784 308.978 101.506C310.569 100.227 313.073 98.7142 316.491 96.9664C319.673 95.3751 322.256 93.9142 324.239 92.5576C326.221 91.2011 327.943 89.375 329.378 87.0532C330.813 84.7575 331.517 81.8879 331.517 78.4444C331.517 74.4531 329.978 71.4269 326.926 69.3139C323.873 67.2008 319.334 66.1573 313.36 66.1573C310.178 66.1573 307.021 66.5486 303.917 67.3573C300.812 68.166 298.464 69.1573 296.873 70.3313C294.89 71.8443 293.899 73.6704 293.899 75.8357C293.899 77.427 294.316 78.7314 295.151 79.7227C295.986 80.714 297.16 81.2097 298.673 81.2097C299.404 81.2097 300.16 81.0271 300.995 80.6618C301.83 80.2966 302.638 79.9314 303.447 79.514C304.882 78.7314 306.186 78.1053 307.386 77.6618C308.586 77.2183 309.943 77.0096 311.456 77.0096C313.125 77.0096 314.404 77.2966 315.265 77.8966C316.152 78.4966 316.569 79.3053 316.569 80.3488C316.569 82.1749 315.812 83.7401 314.299 85.0706C312.786 86.3749 310.386 87.9141 307.125 89.6619C303.943 91.3315 301.282 92.9489 299.195 94.4881C297.082 96.0533 295.308 98.036 293.821 100.462C293.716 100.645 293.664 100.906 293.56 101.088C297.969 98.1142 305.456 101.323 303.212 107.48C301.543 112.097 299.717 116.662 297.734 121.175C301.517 123.445 306.786 124.619 313.569 124.619C320.247 124.619 326.352 123.288 331.83 120.628C337.334 117.967 341.978 114.08 345.813 108.993C347.326 107.01 348.082 104.532 348.082 101.584C348.135 99.9664 347.821 98.662 347.248 97.6968Z" fill="#F2DCDB"/>
<path d="M315.839 203.063C314.612 201.185 313.386 199.281 312.134 197.402C311.873 197.037 311.56 196.724 311.325 196.359C310.882 195.733 310.517 195.055 310.125 194.402C307.334 197.637 305.012 200.115 303.212 201.707C301.021 203.663 299.143 204.629 297.551 204.629C296.508 204.629 295.673 204.211 295.047 203.376C294.421 202.542 294.082 201.368 294.082 199.855C294.082 197.455 295.203 191.168 297.421 180.993C299.404 172.072 300.395 166.619 300.395 164.637C300.395 163.437 300.03 162.628 299.325 162.185C298.595 161.741 297.343 161.532 295.49 161.532C292.856 161.532 290.899 162.054 289.569 163.098C288.264 164.141 287.273 165.837 286.647 168.237C284.742 175.333 282.76 181.307 280.725 186.159C278.69 191.011 276.786 194.637 274.986 197.037C273.186 199.437 271.699 200.611 270.499 200.611C269.612 200.611 268.986 200.272 268.594 199.594C268.203 198.915 267.994 197.742 267.994 196.072C267.994 193.281 268.777 187.724 270.395 179.35C270.864 176.95 271.516 174.289 272.299 171.341C273.186 167.689 273.603 165.524 273.603 164.898C273.603 163.776 273.264 162.941 272.586 162.393C271.908 161.845 270.681 161.558 268.934 161.558C265.829 161.558 263.56 162.08 262.125 163.124C260.69 164.167 259.568 165.863 258.786 168.263C258.055 170.454 257.507 172.541 256.933 174.654C260.742 174.367 265.125 177.55 264.16 182.507C262.36 191.585 258.838 200.011 254.846 208.281C255.394 209.95 256.099 211.516 257.038 212.898C259.307 216.211 262.229 217.855 265.803 217.855C268.908 217.855 271.829 216.394 274.516 213.498C277.229 210.603 279.238 206.429 280.595 201.029C280.595 206.35 281.482 210.498 283.282 213.446C285.082 216.394 287.873 217.855 291.708 217.855C296.717 217.855 301.204 216.498 305.143 213.785C309.056 211.098 312.682 207.681 316.073 203.507C316.073 203.324 315.943 203.22 315.839 203.063Z" fill="#D7E8E6"/>
<path d="M405.318 195.185L404.796 195.811C401.848 199.385 399.683 201.863 398.3 203.22C396.918 204.576 395.483 205.255 394.048 205.255C390.631 205.255 388.909 201.081 388.909 192.707C388.909 189.759 389.065 184.933 389.379 178.254L389.613 169.411C389.613 166.698 388.909 164.767 387.474 163.567C386.039 162.367 383.822 161.767 380.796 161.767C377.691 161.767 375.291 162.393 373.622 163.619C371.952 164.845 370.491 167.141 369.213 170.48C367.935 173.898 366.317 177.811 364.387 182.193C362.43 186.576 360.552 190.515 358.726 194.011C356.326 198.628 354.656 201.524 353.639 202.724C352.648 203.924 351.761 204.524 350.952 204.524C349.517 204.524 348.787 203.089 348.787 200.22C348.787 199.385 348.917 198.133 349.126 196.515C344.587 196.541 340.074 196.985 335.561 197.298C335.195 198.785 334.934 200.35 334.934 202.124C334.934 206.585 336.082 210.289 338.404 213.237C340.7 216.185 343.908 217.646 347.952 217.646C353.926 217.646 359.248 214.776 363.891 209.037C368.535 203.298 372.474 195.133 375.657 184.567H375.891C375.578 188.063 375.422 191.689 375.422 195.446C375.422 202.933 376.413 208.515 378.396 212.22C380.378 215.924 383.718 217.776 388.439 217.776C392.013 217.776 395.222 217.072 398.04 215.689C400.596 214.437 402.735 212.95 404.587 211.281C405.083 205.933 405.605 200.559 405.318 195.185Z" fill="#D7E8E6"/>
<path d="M461.823 192.002C462.423 192.967 462.71 194.272 462.71 195.941C462.71 199.124 461.953 201.602 460.44 203.35C457.492 206.924 453.345 210.237 447.971 213.263C442.597 216.29 436.831 217.803 430.727 217.803C422.379 217.803 415.883 215.533 411.266 210.994C406.648 206.455 404.353 200.246 404.353 192.367C404.353 186.863 405.501 181.75 407.822 177.028C410.118 172.28 413.327 168.524 417.422 165.732C421.518 162.941 426.162 161.558 431.327 161.558C435.944 161.558 439.649 162.941 442.44 165.68C445.231 168.419 446.614 172.15 446.614 176.846C446.614 182.35 444.631 187.046 440.692 190.985C436.753 194.924 430.075 198.054 420.683 200.35C422.666 204.002 426.449 205.855 432.031 205.855C435.605 205.855 439.701 204.602 444.266 202.098C448.858 199.594 452.797 196.307 456.162 192.237C457.127 191.115 458.197 190.567 459.397 190.567C460.414 190.567 461.223 191.037 461.823 192.002ZM414.475 151.567C413.04 150.184 412.335 147.993 412.335 145.045C412.335 141.863 413.196 139.384 414.892 137.584C416.614 135.784 418.883 134.897 421.753 134.897C424.309 134.897 426.292 135.602 427.727 136.984C429.162 138.367 429.892 140.558 429.892 143.48C429.892 146.663 429.031 149.167 427.309 150.941C425.588 152.741 423.318 153.628 420.449 153.628C417.892 153.654 415.909 152.95 414.475 151.567ZM421.805 178.385C419.77 181.802 418.753 185.95 418.753 190.802V191.037C423.449 189.915 427.153 188.246 429.866 186.028C432.579 183.811 433.936 181.202 433.936 178.254C433.936 176.741 433.518 175.515 432.683 174.602C431.849 173.689 430.701 173.219 429.266 173.219C426.318 173.246 423.84 174.941 421.805 178.385ZM439.31 151.567C437.875 150.184 437.144 147.993 437.144 145.045C437.144 141.863 438.005 139.384 439.727 137.584C441.449 135.784 443.718 134.897 446.588 134.897C449.145 134.897 451.127 135.602 452.562 136.984C453.997 138.367 454.701 140.558 454.701 143.48C454.701 146.663 453.84 149.167 452.145 150.941C450.423 152.741 448.153 153.628 445.284 153.628C442.727 153.654 440.744 152.95 439.31 151.567Z" fill="#D7E8E6"/>
<path d="M507.45 194.063C502.832 197.194 498.11 200.559 493.18 204.394C493.571 201.837 493.962 199.437 494.328 197.168C494.693 194.898 495.032 192.811 495.345 190.907C497.015 180.889 498.006 174.628 498.319 172.15C498.397 171.602 498.423 170.845 498.423 169.88C498.423 168.132 498.006 166.958 497.171 166.358C496.336 165.758 494.928 165.472 492.919 165.472C490.936 165.472 489.188 165.628 487.675 165.941C487.284 164.193 486.788 162.967 486.188 162.289C485.588 161.611 484.415 161.271 482.667 161.271C477.162 161.271 471.971 162.993 467.093 166.463C462.188 169.932 458.275 174.498 455.327 180.185C452.379 185.872 450.918 191.898 450.918 198.289C450.918 204.107 452.379 208.802 455.327 212.376C458.275 215.95 462.214 217.75 467.145 217.75C469.284 217.75 471.449 217.176 473.64 216.029C475.832 214.881 477.606 213.211 478.962 211.072L478.232 215.742C465.971 225.211 457.623 233.194 453.162 239.69C448.701 246.186 446.484 252.238 446.484 257.899C446.484 261.968 447.762 265.229 450.318 267.76C452.875 270.264 456.162 271.516 460.232 271.516C467.797 271.516 474.032 266.794 478.91 257.351C483.815 247.933 487.78 234.968 490.806 218.481L498.449 213.342C501.476 211.229 506.223 207.994 512.563 203.715C510.867 200.507 509.171 197.272 507.45 194.063ZM468.266 252.786C465.762 257.56 463.519 259.934 461.51 259.934C460.31 259.934 459.449 259.516 458.927 258.629C458.406 257.768 458.145 256.647 458.145 255.29C458.145 252.107 459.501 248.403 462.214 244.177C464.927 239.951 469.336 235.229 475.467 229.959C473.197 240.394 470.771 248.012 468.266 252.786ZM480.267 192.837C479.536 196.985 478.362 200.168 476.693 202.385C475.023 204.602 473.275 205.724 471.449 205.724C469.701 205.724 468.319 205.124 467.327 203.924C466.336 202.724 465.84 200.898 465.84 198.42C465.84 193.959 466.675 189.733 468.345 185.767C470.014 181.776 472.232 178.593 475.023 176.167C477.814 173.741 480.841 172.489 484.101 172.411L480.267 192.837Z" fill="#D7E8E6"/>
<path d="M57.8094 313.491C54.0267 314.352 50.5571 314.978 47.6353 315.16C47.0093 309.265 45.0005 304.308 41.6614 300.29C38.3222 296.273 33.9656 294.056 28.6438 293.664C34.383 286.569 38.4787 279.812 40.9309 273.368C43.4092 266.925 44.6353 260.429 44.6353 253.907C44.6353 248.899 43.5136 244.803 41.2961 241.672C39.0787 238.516 36.1309 236.951 32.4526 236.951C25.696 236.951 19.8524 241.177 14.948 249.655C10.0436 258.133 6.33921 268.412 3.78265 280.464C1.27828 292.516 0 303.682 0 313.96C0 325.595 1.82611 334.465 5.50441 340.595C9.15663 346.726 15.0263 349.778 23.0611 349.778C28.3829 349.778 33.2874 347.743 37.6961 343.7C42.1049 339.63 45.131 334.308 46.7223 327.708C52.1745 327.473 57.1833 326.56 61.7747 325.021C60.5225 321.134 59.2442 317.273 57.8094 313.491ZM19.3568 275.142C20.9481 267.029 22.6698 260.586 24.5481 255.864C26.4264 251.142 28.1482 248.768 29.7395 248.768C30.783 248.768 31.5917 249.446 32.1917 250.803C32.7917 252.159 33.0787 254.116 33.0787 256.646C33.0787 262.386 31.5134 268.934 28.3569 276.29C25.2003 283.647 21.0002 292.151 15.7567 301.777C16.5654 292.151 17.7393 283.256 19.3568 275.142ZM30.1047 334.021C28.2003 336.108 26.009 337.126 23.5307 337.126C21.235 337.126 19.2002 335.926 17.5046 333.552C15.7828 331.152 14.948 327.708 14.948 323.169C14.948 317.743 16.0437 313.438 18.235 310.204C20.4263 306.969 23.1394 305.378 26.4264 305.378H26.7916C26.4786 307.282 26.3221 308.795 26.3221 309.917C26.3221 312.943 26.9742 315.812 28.3047 318.525C29.609 321.239 31.5134 323.43 33.9917 325.099C33.9656 325.334 44.0092 327.265 43.957 327.473C43.9049 327.76 32.9482 329.273 32.8439 329.56C31.8786 331.83 31.7482 332.221 30.1047 334.021Z" fill="#F2DCDB"/>
<path d="M222.237 328.126C220.15 330.343 218.272 332.039 216.681 333.108C214.255 334.752 211.724 335.56 209.089 335.56C205.594 335.56 203.089 332.795 201.576 327.265C200.063 321.734 199.307 314.065 199.307 304.282C199.307 293.064 200.298 277.412 202.281 257.351C202.594 254.325 201.863 252.003 200.063 250.359C198.263 248.716 195.707 247.907 192.367 247.907C190.228 247.907 188.559 248.168 187.359 248.69C186.159 249.212 185.089 250.099 184.124 251.377C183.159 252.655 182.037 254.69 180.785 257.455C175.854 267.968 171.185 279.16 166.802 291.003C162.419 302.873 159.184 313.23 157.124 322.047H156.889C154.984 304.699 154.019 289.569 154.019 276.655C154.019 271.151 154.228 265.047 154.619 258.264C155.089 251.351 152.063 247.881 145.541 247.881C141.654 247.881 138.706 248.612 136.697 250.099C134.715 251.559 133.384 254.064 132.758 257.56C129.184 276.499 125.845 291.708 122.793 303.186C119.741 314.665 116.793 322.986 113.949 328.152C111.132 333.317 108.21 335.9 105.184 335.9C102.784 335.9 100.775 335.117 99.1577 333.578C97.8272 332.326 96.8881 330.5 96.1837 328.334C91.8011 330.108 87.5228 331.882 82.9314 332.9C83.2444 335.456 83.9227 337.934 85.2271 340.204C86.9749 343.23 89.4793 345.63 92.688 347.43C95.9228 349.23 99.6012 350.117 103.749 350.117C111.393 350.117 117.549 347.117 122.245 341.143C126.941 335.169 130.541 327.708 133.045 318.76C135.549 309.812 138.367 297.369 141.471 281.429H141.706C141.393 285.342 141.236 289.908 141.236 295.177C141.236 304.256 141.784 313.23 142.906 322.099C144.028 330.969 145.567 338.587 147.576 344.978C148.697 348.813 151.15 350.717 154.984 350.717C157.202 350.717 158.924 350.248 160.124 349.282C161.324 348.343 162.315 346.621 163.098 344.143C170.428 320.978 178.072 298.438 186.028 276.551H186.263C184.437 289.125 183.524 299.951 183.524 309.03C183.524 322.256 185.324 332.326 188.95 339.291C192.576 346.256 197.898 349.726 204.889 349.726C209.507 349.726 213.811 348.578 217.776 346.334C219.211 345.526 220.646 344.456 222.107 343.282C222.263 338.247 222.342 333.187 222.237 328.126Z" fill="#F9F0B9"/>
<path d="M285.734 313.882C286.282 314.925 286.569 316.23 286.569 317.821C286.569 321.656 285.421 323.899 283.099 324.63C278.325 326.299 273.055 327.265 267.342 327.499C265.829 334.178 262.855 339.552 258.394 343.569C253.933 347.587 248.872 349.595 243.238 349.595C238.464 349.595 234.368 348.448 231.003 346.126C227.611 343.83 225.055 340.752 223.307 336.943C221.559 333.108 220.672 328.986 220.672 324.526C220.672 318.473 221.82 313.073 224.142 308.351C226.437 303.63 229.646 299.925 233.69 297.238C237.759 294.577 242.246 293.247 247.177 293.247C253.229 293.247 258.107 295.334 261.812 299.508C265.516 303.682 267.681 308.847 268.308 314.978C272.064 314.743 276.499 313.934 281.69 312.578C282.316 312.421 282.89 312.343 283.36 312.343C284.377 312.317 285.186 312.838 285.734 313.882ZM250.986 334.021C252.577 332.247 252.916 332.873 253.62 329.769C253.699 329.404 257.56 327.995 257.925 328.021C268.125 328.308 256.046 325.856 254.742 325.073C252.264 323.404 250.386 321.212 249.055 318.499C247.751 315.786 247.072 312.917 247.072 309.891C247.072 308.612 247.203 307.334 247.438 306.056H246.838C243.655 306.056 240.994 307.595 238.907 310.647C236.794 313.725 235.751 318.03 235.751 323.612C235.751 327.995 236.611 331.334 238.307 333.656C240.029 335.952 242.038 337.126 244.333 337.126C246.89 337.126 249.107 336.082 250.986 334.021Z" fill="#F9F0B9"/>
<path d="M315.421 345.447C317.221 339.082 319.673 332.873 321.473 326.508C318.473 329.743 315.421 332.299 312.343 334.073C308.56 336.265 305.038 337.36 301.777 337.36C293.743 337.36 289.725 332.743 289.725 323.508C289.725 320.169 290.195 317.091 291.16 314.325C292.125 311.534 293.377 309.317 294.995 307.699C296.586 306.056 298.308 305.247 300.134 305.247C301.099 305.247 301.83 305.534 302.351 306.082C302.873 306.63 303.134 307.438 303.134 308.482C303.134 309.525 302.925 310.621 302.534 311.821C302.456 312.134 302.325 312.656 302.169 313.386C302.012 314.117 301.934 314.743 301.934 315.291C301.934 316.569 302.377 317.56 303.317 318.291C304.23 319.021 305.456 319.36 306.969 319.36C309.369 319.36 311.299 318.212 312.76 315.891C314.221 313.595 314.978 310.751 314.978 307.412C314.978 303.343 313.752 300.03 311.325 297.447C308.899 294.864 305.482 293.56 301.125 293.56C296.664 293.56 292.412 294.864 288.343 297.499C284.273 300.134 280.986 303.864 278.429 308.717C277.386 310.725 276.603 312.917 275.977 315.186C281.612 312.499 288.316 320.117 283.073 325.23C280.569 327.682 277.882 329.952 275.429 332.456C276.395 336.63 278.221 340.256 281.116 343.178C285.447 347.587 291.525 349.804 299.325 349.804C304.177 349.804 309.212 348.552 314.43 346.047C314.743 345.839 315.082 345.63 315.421 345.447Z" fill="#F9F0B9"/>
<path d="M377.587 328.23C377.587 328.178 377.639 328.126 377.639 328.073C377.587 327.421 377.509 326.743 377.457 326.091C374.17 329.926 371.483 332.743 369.5 334.439C367.204 336.395 364.57 337.36 361.622 337.36C357.865 337.36 355.022 336.056 353.013 333.473C351.03 330.891 350.039 327.447 350.039 323.143C350.039 319.96 350.482 316.986 351.422 314.247C352.335 311.508 353.561 309.317 355.074 307.673C356.587 306.03 358.126 305.221 359.743 305.221C361.804 305.221 362.848 306.291 362.848 308.456C362.848 309.499 362.639 310.595 362.248 311.795C362.17 312.108 362.039 312.63 361.883 313.36C361.726 314.091 361.648 314.717 361.648 315.265C361.648 316.543 362.117 317.534 363.03 318.265C363.943 318.995 365.17 319.334 366.683 319.334C369.083 319.334 371.013 318.186 372.474 315.865C373.935 313.569 374.691 310.725 374.691 307.386C374.691 303.317 373.518 300.004 371.17 297.421C368.822 294.838 365.587 293.534 361.439 293.534C355.23 293.534 349.935 295.934 345.552 300.708C341.169 305.482 337.543 313.438 334.674 324.604C334.83 321.421 335.143 318.499 335.561 315.838C336.004 313.178 336.474 310.83 336.995 308.847C337.517 306.864 337.856 305.586 338.013 305.012C339.213 300.551 339.813 297.682 339.813 296.403C339.813 295.282 339.5 294.525 338.848 294.134C338.221 293.743 337.1 293.534 335.508 293.534C332.561 293.534 330.265 294.056 328.647 295.151C327.004 296.221 325.83 297.917 325.126 300.238C322.178 309.551 320.717 319.386 320.717 329.743C320.717 336.734 321.343 341.848 322.569 345.03C323.795 348.213 325.934 349.804 328.96 349.804C331.36 349.804 333.134 349.204 334.282 348.004C335.43 346.804 336.447 344.613 337.334 341.43C338.378 337.621 338.978 335.378 339.134 334.752C339.682 336.891 340.935 339.134 342.839 341.43C344.743 343.752 347.248 345.708 350.3 347.352C353.352 348.995 356.769 349.804 360.526 349.804C365.065 349.804 369.109 348.474 372.709 345.813C373.387 345.317 374.039 344.665 374.718 344.091C375.787 338.821 376.909 333.552 377.587 328.23Z" fill="#F9F0B9"/>
<path d="M382.387 290.351C383.692 290.716 384.892 291.63 385.779 292.803C388.935 292.412 391.596 290.925 393.97 288.551C394.596 283.882 395.3 279.395 396.135 275.142C397.726 267.029 399.448 260.586 401.327 255.864C403.205 251.142 404.927 248.768 406.518 248.768C407.561 248.768 408.37 249.446 408.97 250.803C409.57 252.159 409.857 254.116 409.857 256.646C409.857 262.386 408.292 268.934 405.135 276.29C403.935 279.108 402.527 282.134 401.013 285.264C402.318 285.499 403.544 285.995 404.405 286.856C406.231 288.708 406.492 291.082 405.735 293.247C411.292 286.308 415.309 279.682 417.735 273.342C420.214 266.899 421.44 260.403 421.44 253.881C421.44 248.872 420.318 244.777 418.101 241.646C415.883 238.49 412.935 236.925 409.257 236.925C402.5 236.925 396.657 241.151 391.752 249.629C386.848 258.107 383.144 268.386 380.587 280.438C379.857 283.882 379.257 287.247 378.735 290.56C379.857 290.169 381.057 289.96 382.387 290.351Z" fill="#F9F0B9"/>
<path d="M441.866 314.065C441.318 313.021 440.51 312.499 439.466 312.499C438.84 312.499 438.266 312.578 437.797 312.734C432.631 314.091 428.17 314.873 424.414 315.134C423.788 309.238 421.779 304.282 418.44 300.264C415.127 296.299 410.848 294.108 405.605 293.664C405.318 294.395 404.901 295.073 404.405 295.725C397.7 304.099 388.153 306.473 377.874 304.804C377.613 304.751 377.405 304.647 377.144 304.569C376.909 307.751 376.778 310.908 376.778 313.934C376.778 325.569 378.605 334.439 382.283 340.569C385.935 346.7 391.805 349.752 399.84 349.752C405.161 349.752 410.066 347.717 414.475 343.674C418.883 339.604 421.909 334.282 423.501 327.682C429.24 327.447 434.484 326.482 439.257 324.813C440.457 324.421 441.318 323.665 441.892 322.595C442.44 321.526 442.727 319.986 442.727 318.004C442.701 316.439 442.44 315.108 441.866 314.065ZM406.883 334.021C404.979 336.108 402.787 337.126 400.309 337.126C398.013 337.126 395.979 335.926 394.283 333.552C392.561 331.152 391.726 327.708 391.726 323.169C391.726 317.743 392.822 313.438 395.013 310.204C397.205 306.969 399.918 305.378 403.205 305.378H403.57C403.257 307.282 403.101 308.795 403.101 309.917C403.101 312.943 403.753 315.812 405.083 318.525C406.388 321.239 408.292 323.43 410.77 325.099C410.744 325.334 421.44 327.63 421.414 327.865C421.335 328.308 409.518 330.447 409.283 330.813C408.292 332.273 408.448 332.326 406.883 334.021Z" fill="#F9F0B9"/>
<path d="M481.91 330.265C480.893 329.456 479.901 328.647 478.884 327.839C476.354 330.213 473.667 332.378 470.588 334.074C465.997 336.578 461.927 337.83 458.353 337.83C452.771 337.83 448.988 336.004 447.005 332.326C456.397 330.03 463.075 326.9 467.014 322.934C470.953 318.995 472.936 314.273 472.936 308.795C472.936 304.099 471.553 300.369 468.762 297.63C465.971 294.89 462.266 293.508 457.649 293.508C452.484 293.508 447.84 294.89 443.744 297.682C439.649 300.473 436.44 304.23 434.144 308.978C433.231 310.856 432.553 312.838 431.979 314.847C436.127 313.569 440.431 317.352 440.17 321.369C440.17 321.526 440.118 321.656 440.092 321.812C440.014 322.308 439.936 322.778 439.701 323.273C439.492 323.769 439.101 324.213 438.71 324.682C438.553 324.839 438.527 325.021 438.344 325.178C438.292 325.204 438.266 325.256 438.214 325.282C438.214 325.282 438.214 325.282 438.188 325.308C437.197 326.221 436.205 327.056 435.318 328.047L435.292 328.073C434.014 329.3 432.762 330.578 431.562 331.908C432.605 336.265 434.562 339.969 437.562 342.917C442.179 347.456 448.675 349.726 457.023 349.726C463.153 349.726 468.919 348.213 474.267 345.187C479.641 342.161 483.788 338.847 486.736 335.274C486.762 335.221 486.788 335.169 486.815 335.117C485.014 333.76 483.345 332.091 481.91 330.265ZM445.101 322.804C445.101 317.952 446.118 313.804 448.153 310.386C450.188 306.969 452.666 305.247 455.614 305.247C457.049 305.247 458.197 305.717 459.032 306.63C459.866 307.543 460.284 308.769 460.284 310.282C460.284 313.23 458.927 315.812 456.214 318.056C453.501 320.273 449.797 321.969 445.101 323.065V322.804Z" fill="#F9F0B9"/>
<path d="M257.273 173.193C243.212 215.872 199.281 206.246 175.254 179.924C167.298 171.211 159.967 161.689 149.95 155.115C134.089 144.706 114.445 143.089 97.2273 151.567C63.5487 168.159 61.6443 209.794 85.3576 235.098C88.2533 232.255 91.9055 229.672 95.6882 227.716C75.3923 207.211 75.7836 171.185 108.184 160.567C129.628 153.55 147.028 167.48 160.567 182.193C171.054 193.568 180.654 206.376 195.237 212.794C227.611 227.116 259.021 208.046 269.403 176.533C271.934 168.837 259.803 165.55 257.273 173.193Z" fill="#D7E8E6"/>
<path d="M420.005 261.029C417.161 257.664 410.561 257.481 408.944 263.038C406.257 272.247 398.822 294.264 384.97 286.36C384.135 285.89 383.3 285.629 382.491 285.551C380.118 268.308 368.639 253.907 349.726 251.82C338.091 250.516 328.517 255.76 318.291 260.377C290.012 273.134 264.551 275.768 240.838 251.142C237.968 254.194 235.046 257.194 232.177 260.247C246.212 274.725 264.107 283.621 284.664 283.673C293.403 283.699 302.038 281.795 310.151 278.56C315.238 276.525 319.726 273.603 324.63 271.229C344.561 261.577 370.883 266.194 370.361 293.299C370.257 299.143 376.752 300.708 380.457 298.099C388.778 301.908 398.248 300.212 405.553 294.63C411.657 289.96 415.257 283.256 417.892 276.16C418.596 271.125 419.327 266.09 420.005 261.029Z" fill="#F9F0B9"/>
<path d="M274.647 241.803C266.56 241.803 266.534 254.377 274.647 254.377C282.734 254.377 282.76 241.803 274.647 241.803Z" fill="#F2DCDB"/>
<path d="M374.431 229.229C366.343 229.229 366.317 241.803 374.431 241.803C382.518 241.803 382.544 229.229 374.431 229.229Z" fill="#D7E8E6"/>
<path d="M221.22 270.864C213.133 270.864 213.107 283.438 221.22 283.438C229.307 283.438 229.333 270.864 221.22 270.864Z" fill="#F2DCDB"/>
<path d="M436.909 100.071C409.727 118.775 377.013 110.819 359.482 83.5314C357.422 80.2966 351.395 80.6357 349.543 83.8967C344.352 93.0272 338.3 100.436 330.186 107.245C323.978 112.462 332.013 122.115 338.221 116.897C344.874 111.314 350.326 105.471 355.074 98.6621C377.144 125.375 413.587 130.071 443.197 110.845C441.11 107.245 438.996 103.671 436.909 100.071Z" fill="#F2DCDB"/>
<path d="M504.084 337.647C495.997 337.647 495.971 350.222 504.084 350.222C512.171 350.222 512.197 337.647 504.084 337.647Z" fill="#D7E8E6"/>
<path d="M346.935 133.384C338.848 133.384 338.821 145.958 346.935 145.958C355.022 145.958 355.048 133.384 346.935 133.384Z" fill="#D7E8E6"/>
<path d="M365.796 114.523C357.709 114.523 357.682 127.097 365.796 127.097C373.883 127.097 373.909 114.523 365.796 114.523Z" fill="#D7E8E6"/>
<path d="M46.0179 213.524C37.9309 213.524 37.9048 226.098 46.0179 226.098C54.105 226.098 54.1311 213.524 46.0179 213.524Z" fill="#F2DCDB"/>
<path d="M101.01 287.377C92.9228 287.377 92.8967 299.951 101.01 299.951C109.097 299.951 109.123 287.377 101.01 287.377Z" fill="#F2DCDB"/>
<path d="M90.0271 263.012C81.9401 263.012 81.914 275.586 90.0271 275.586C98.1142 275.586 98.1142 263.012 90.0271 263.012Z" fill="#D7E8E6"/>
<path d="M357.943 57.9397C349.856 57.9397 349.83 70.5137 357.943 70.5137C366.03 70.5137 366.057 57.9397 357.943 57.9397Z" fill="#F2DCDB"/>
<path d="M404.3 83.088C396.213 83.088 396.187 95.662 404.3 95.662C412.388 95.662 412.388 83.088 404.3 83.088Z" fill="#F2DCDB"/>
<path d="M212.585 22.5916C204.498 22.5916 204.472 35.1656 212.585 35.1656C220.672 35.1656 220.698 22.5916 212.585 22.5916Z" fill="#F2DCDB"/>
<path d="M317.873 13.9566C309.786 13.9566 309.76 26.5307 317.873 26.5307C325.961 26.5307 325.987 13.9566 317.873 13.9566Z" fill="#F9F0B9"/>
<path d="M95.0619 99.6011C95.1923 99.6011 95.2706 99.575 95.3489 99.6011C96.1315 99.8098 96.9402 100.045 97.775 100.279C97.3837 101.792 96.9924 103.279 96.6011 104.766C96.6532 104.792 96.7054 104.845 96.7315 104.871C98.1141 104.062 99.4967 103.279 100.984 102.445C101.453 103.253 101.923 104.036 102.419 104.897C101.114 105.653 99.8359 106.384 98.5576 107.088C98.375 107.193 98.1924 107.271 98.2185 107.558C99.6794 107.949 101.166 108.366 102.653 108.758C102.392 109.697 102.158 110.584 101.897 111.497C101.01 111.262 100.175 111.053 99.3402 110.819C97.8272 110.401 96.3141 110.01 94.801 109.593C94.5141 109.514 94.2793 109.566 94.0445 109.723C92.2967 110.74 90.5749 111.758 88.827 112.775C87.9662 113.271 87.0792 113.767 86.1922 114.288C86.0879 114.34 86.0096 114.419 85.7748 114.627C85.9575 114.706 86.0618 114.758 86.1922 114.81C87.6792 115.671 89.1923 116.532 90.6792 117.393C91.7749 118.019 92.8967 118.671 93.9662 119.323C94.2793 119.506 94.5402 119.532 94.9054 119.454C97.1489 118.827 99.3924 118.227 101.636 117.627C101.688 117.601 101.766 117.601 101.871 117.601C102.105 118.488 102.34 119.349 102.601 120.288C101.114 120.68 99.6533 121.097 98.1924 121.488C98.1141 121.749 98.2446 121.854 98.4533 121.958C99.7315 122.662 101.01 123.419 102.34 124.149C101.871 124.984 101.401 125.767 100.932 126.601C99.4706 125.819 98.088 124.932 96.6532 124.175C96.6011 124.228 96.575 124.254 96.5228 124.306C96.9141 125.767 97.3054 127.228 97.6967 128.767C96.8098 129.001 95.9228 129.262 94.9836 129.523C94.7749 128.767 94.5662 128.062 94.3836 127.358C93.9402 125.688 93.5228 124.019 93.0271 122.375C92.9749 122.167 92.714 121.958 92.5054 121.827C90.1575 120.445 87.7836 119.088 85.4357 117.706C85.227 117.575 85.0183 117.445 84.8096 117.34C84.6531 117.262 84.4966 117.262 84.2618 117.184C84.2618 117.601 84.2618 117.94 84.2618 118.254C84.2618 120.967 84.2618 123.68 84.2618 126.393C84.2618 126.836 84.3922 127.149 84.7053 127.462C86.2183 128.949 87.7314 130.462 89.2444 131.975C89.401 132.132 89.5575 132.288 89.6879 132.445C89.4531 132.915 88.4879 133.932 87.7314 134.48C86.7662 133.515 85.8009 132.549 84.8357 131.584C84.7053 131.428 84.5748 131.245 84.2618 131.454C84.2618 132.993 84.2618 134.584 84.2618 136.202C83.3226 136.202 82.4357 136.202 81.4704 136.202C81.4704 134.584 81.4965 132.993 81.4704 131.219C81.1835 131.428 81.0009 131.506 80.8704 131.636C80.0096 132.497 79.1487 133.384 78.2878 134.271C78.2095 134.375 78.0791 134.428 78.0269 134.48C77.3747 133.802 76.7226 133.149 76.0443 132.471C76.6182 131.871 77.2443 131.245 77.8704 130.619C78.9661 129.523 80.1139 128.428 81.2096 127.306C81.3661 127.123 81.4965 126.836 81.4965 126.575C81.5226 123.601 81.5226 120.654 81.4965 117.68C81.4965 117.497 81.4444 117.34 81.3922 117.08C80.8704 117.367 80.3226 117.68 79.8009 117.993C77.7921 119.167 75.7834 120.341 73.7486 121.488C73.1486 121.827 72.7573 122.219 72.6008 122.923C72.1573 124.854 71.6095 126.784 71.0877 128.715C71.0355 128.949 70.9312 129.158 70.8007 129.497C69.9138 129.262 69.0529 129.028 68.1398 128.793C68.5051 127.254 68.9746 125.793 69.2877 124.28C69.2355 124.254 69.2094 124.201 69.1572 124.175C67.7746 124.984 66.392 125.767 64.905 126.628C64.4355 125.845 63.992 125.062 63.4963 124.254C63.6267 124.123 63.7311 124.019 63.8615 123.941C65.0355 123.262 66.1833 122.61 67.3572 121.958C67.5659 121.854 67.6703 121.723 67.5659 121.488C66.1311 121.097 64.6963 120.706 63.2094 120.314C63.4441 119.401 63.6789 118.54 63.9137 117.601C64.4094 117.706 64.8789 117.81 65.3485 117.94C67.0703 118.41 68.792 118.854 70.5399 119.323C70.6703 119.349 70.8007 119.375 70.9312 119.427C71.2442 119.584 71.5312 119.532 71.8182 119.349C74.3486 117.888 76.9052 116.427 79.4356 114.94C79.6182 114.836 79.7748 114.706 80.0096 114.523C79.1487 114.001 78.3661 113.558 77.6095 113.114C75.6791 111.993 73.7747 110.897 71.8442 109.775C71.5312 109.593 71.2442 109.566 70.9051 109.671C68.6616 110.297 66.4181 110.897 64.1746 111.497C64.1224 111.523 64.0441 111.523 63.9398 111.523C63.705 110.636 63.4702 109.775 63.2354 108.81C64.7485 108.393 66.2094 108.001 67.6442 107.61C67.6964 107.245 67.4616 107.219 67.279 107.114C66.0268 106.41 64.8007 105.679 63.4963 104.949C63.9659 104.114 64.4094 103.306 64.905 102.471C66.3398 103.306 67.7485 104.114 69.2355 104.949C69.2355 104.688 69.2616 104.532 69.2355 104.401C68.9225 103.227 68.5833 102.079 68.2703 100.905C68.2181 100.723 68.2181 100.54 68.192 100.305C69.079 100.071 69.9399 99.8359 70.8529 99.5751C71.1138 100.514 71.3486 101.375 71.5834 102.236C71.9747 103.697 72.366 105.158 72.7573 106.645C72.8616 107.088 73.2008 107.245 73.5138 107.453C75.2095 108.445 76.9313 109.41 78.6269 110.401C79.3835 110.845 80.14 111.288 80.8704 111.732C81.027 111.836 81.2096 111.888 81.4443 111.993C81.4965 111.81 81.5748 111.68 81.5748 111.575C81.5748 109.462 81.5748 107.349 81.5748 105.236C81.5748 104.297 81.5748 103.358 81.5226 102.419C81.5226 102.21 81.4183 101.975 81.2878 101.845C80.0878 100.645 78.8878 99.4446 77.6878 98.2446C77.14 97.6968 76.6182 97.175 76.0704 96.6011C76.7226 95.9228 77.3747 95.2707 78.0269 94.5924C79.1487 95.7141 80.2443 96.8098 81.34 97.8794C81.6531 97.6707 81.5487 97.3837 81.5487 97.175C81.5487 95.7924 81.5487 94.3837 81.5487 92.9489C82.4618 92.9489 83.3487 92.9489 84.2879 92.9489C84.2879 94.5402 84.2879 96.0794 84.2879 97.6707C84.5227 97.9055 84.6792 97.7489 84.8618 97.5402C85.6966 96.6794 86.5314 95.8446 87.3922 95.0098C87.5227 94.8793 87.6531 94.775 87.7575 94.6706C88.4097 95.3228 89.0618 95.975 89.7401 96.6533C89.6618 96.7576 89.5575 96.9142 89.4531 97.0185C87.8618 98.6098 86.2444 100.227 84.6531 101.819C84.4705 102.001 84.34 102.184 84.34 102.445C84.34 105.497 84.34 108.549 84.34 111.601C84.34 111.68 84.3661 111.784 84.3922 111.967C84.6009 111.888 84.7835 111.862 84.94 111.784C87.4705 110.323 90.001 108.836 92.5575 107.375C92.9227 107.166 93.1054 106.906 93.2097 106.514C93.7575 104.401 94.3315 102.288 94.9054 100.175C94.9576 99.9142 95.0097 99.7577 95.0619 99.6011Z" fill="#F9F0B9"/>
<path d="M274.073 6.73051C274.203 6.73051 274.281 6.70443 274.36 6.73051C275.142 6.93921 275.951 7.174 276.786 7.40878C276.394 8.92184 276.003 10.4088 275.612 11.8958C275.664 11.9219 275.716 11.9741 275.742 12.0001C277.125 11.1914 278.508 10.4088 279.995 9.57403C280.464 10.3827 280.934 11.1653 281.429 12.0262C280.125 12.7828 278.847 13.5132 277.568 14.2176C277.386 14.3219 277.203 14.4002 277.229 14.6871C278.69 15.0784 280.177 15.4958 281.664 15.8871C281.403 16.8263 281.168 17.7133 280.908 18.6263C280.021 18.3915 279.186 18.1828 278.351 17.948C276.838 17.5306 275.325 17.1393 273.812 16.7219C273.525 16.6437 273.29 16.6958 273.055 16.8524C271.307 17.8698 269.586 18.8872 267.838 19.9046C266.977 20.4002 266.09 20.8959 265.203 21.4176C265.099 21.4698 265.02 21.5481 264.786 21.7568C264.968 21.835 265.073 21.8872 265.203 21.9394C266.69 22.8003 268.203 23.6611 269.69 24.522C270.786 25.1481 271.907 25.8003 272.977 26.4525C273.29 26.6351 273.551 26.6612 273.916 26.5829C276.16 25.9568 278.403 25.3568 280.647 24.7568C280.699 24.7307 280.777 24.7307 280.882 24.7307C281.116 25.6177 281.351 26.4786 281.612 27.4177C280.125 27.809 278.664 28.2264 277.203 28.6177C277.125 28.8786 277.255 28.983 277.464 29.0873C278.742 29.7917 280.021 30.5482 281.351 31.2786C280.882 32.1134 280.412 32.896 279.942 33.7308C278.481 32.9482 277.099 32.0612 275.664 31.3047C275.612 31.3569 275.586 31.383 275.534 31.4352C275.925 32.896 276.316 34.3569 276.708 35.8961C275.821 36.1309 274.934 36.3917 273.994 36.6526C273.786 35.8961 273.577 35.1917 273.394 34.4874C272.951 32.8178 272.534 31.1482 272.038 29.5047C271.986 29.296 271.725 29.0873 271.516 28.9569C269.168 27.5742 266.794 26.2177 264.447 24.8351C264.238 24.7046 264.029 24.5742 263.82 24.4699C263.664 24.3916 263.507 24.3916 263.273 24.3133C263.273 24.7307 263.273 25.0699 263.273 25.3829C263.273 28.096 263.273 30.8091 263.273 33.5221C263.273 33.9656 263.403 34.2787 263.716 34.5917C265.229 36.0787 266.742 37.5917 268.255 39.1048C268.412 39.2613 268.568 39.4179 268.699 39.5744C268.464 40.044 267.499 41.0614 266.742 41.6092C265.777 40.644 264.812 39.6787 263.847 38.7135C263.716 38.557 263.586 38.3744 263.273 38.5831C263.273 40.1222 263.273 41.7135 263.273 43.3309C262.333 43.3309 261.446 43.3309 260.481 43.3309C260.481 41.7135 260.507 40.1222 260.481 38.3483C260.194 38.557 260.012 38.6352 259.881 38.7657C259.02 39.6266 258.159 40.5135 257.299 41.4005C257.22 41.5048 257.09 41.557 257.038 41.6092C256.386 40.9309 255.733 40.2787 255.055 39.6005C255.629 39.0005 256.255 38.3744 256.881 37.7483C257.977 36.6526 259.125 35.5569 260.22 34.4352C260.377 34.2526 260.507 33.9656 260.507 33.7047C260.533 30.7308 260.533 27.7829 260.507 24.809C260.507 24.6264 260.455 24.4699 260.403 24.209C259.803 24.5481 259.255 24.8612 258.733 25.1742C256.725 26.3481 254.716 27.5221 252.681 28.6699C252.081 29.009 251.69 29.4003 251.533 30.1047C251.09 32.0352 250.542 33.9656 250.02 35.8961C249.968 36.1309 249.864 36.3396 249.733 36.6787C248.846 36.4439 247.985 36.2091 247.072 35.9743C247.438 34.4352 247.907 32.9743 248.22 31.4612C248.168 31.4352 248.142 31.383 248.09 31.3569C246.707 32.1656 245.325 32.9482 243.838 33.8091C243.368 33.0265 242.925 32.2439 242.429 31.4352C242.559 31.3047 242.664 31.2004 242.794 31.1221C243.968 30.4438 245.116 29.7917 246.29 29.1395C246.498 29.0351 246.603 28.9047 246.498 28.6699C245.064 28.2786 243.629 27.8873 242.142 27.496C242.377 26.5829 242.611 25.722 242.846 24.7829C243.342 24.8873 243.811 24.9916 244.281 25.122C246.003 25.5916 247.725 26.0351 249.472 26.5047C249.603 26.5307 249.733 26.5568 249.864 26.609C250.177 26.7655 250.464 26.7134 250.751 26.5307C253.281 25.0699 255.838 23.609 258.368 22.122C258.551 22.0177 258.707 21.8872 258.942 21.7046C258.081 21.1829 257.299 20.7394 256.542 20.2959C254.612 19.1741 252.707 18.0785 250.777 16.9567C250.464 16.7741 250.177 16.748 249.838 16.8524C247.594 17.4785 245.351 18.0785 243.107 18.6785C243.055 18.7046 242.977 18.7046 242.872 18.7046C242.638 17.8176 242.403 16.9567 242.168 15.9915C243.681 15.5741 245.142 15.1828 246.577 14.7915C246.629 14.4263 246.394 14.4002 246.212 14.2958C244.959 13.5915 243.733 12.861 242.429 12.1306C242.898 11.2958 243.342 10.4871 243.838 9.65229C245.272 10.4871 246.681 11.2958 248.168 12.1306C248.168 11.8697 248.194 11.7132 248.168 11.5827C247.855 10.4088 247.516 9.26098 247.203 8.08705C247.151 7.90444 247.151 7.72183 247.125 7.48705C248.012 7.25226 248.872 7.01747 249.785 6.7566C250.046 7.69574 250.281 8.55662 250.516 9.4175C250.907 10.8784 251.299 12.3393 251.69 13.8263C251.794 14.2697 252.133 14.4263 252.446 14.635C254.142 15.6263 255.864 16.5915 257.559 17.5828C258.316 18.0263 259.073 18.4698 259.803 18.9133C259.96 19.0176 260.142 19.0698 260.377 19.1741C260.429 18.9915 260.507 18.8611 260.507 18.7567C260.507 16.6437 260.507 14.5306 260.507 12.4175C260.507 11.4784 260.507 10.5393 260.455 9.60011C260.455 9.39142 260.351 9.15663 260.22 9.02619C259.02 7.82618 257.82 6.62616 256.62 5.42615C256.177 4.74788 255.655 4.20005 255.107 3.65222C255.759 2.97395 256.412 2.32177 257.064 1.6435C258.186 2.76525 259.281 3.86092 260.377 4.93049C260.69 4.7218 260.586 4.43483 260.586 4.22614C260.586 2.84351 260.586 1.4348 260.586 0C261.499 0 262.386 0 263.325 0C263.325 1.59132 263.325 3.13047 263.325 4.7218C263.56 4.95658 263.716 4.80006 263.899 4.59136C264.733 3.73048 265.568 2.89569 266.429 2.06089C266.56 1.93046 266.69 1.82611 266.794 1.72176C267.447 2.37394 268.099 3.02612 268.777 3.70439C268.699 3.80874 268.594 3.96526 268.49 4.06961C266.899 5.66094 265.281 7.27835 263.69 8.86967C263.507 9.05228 263.377 9.23489 263.377 9.49576C263.377 12.548 263.377 15.6002 263.377 18.6524C263.377 18.7307 263.403 18.835 263.429 19.0176C263.638 18.9394 263.82 18.9133 263.977 18.835C266.507 17.3741 269.038 15.8871 271.594 14.4263C271.96 14.2176 272.142 13.9567 272.247 13.5654C272.794 11.4523 273.368 9.33924 273.942 7.22617C273.968 7.01747 274.021 6.88704 274.073 6.73051Z" fill="#F9F0B9"/>
<path d="M227.246 148.776C227.376 148.776 227.455 148.75 227.533 148.776C228.316 148.984 229.124 149.219 229.959 149.454C229.568 150.967 229.177 152.454 228.785 153.941C228.837 153.967 228.89 154.019 228.916 154.045C230.298 153.237 231.681 152.454 233.168 151.619C233.637 152.428 234.107 153.211 234.603 154.071C233.298 154.828 232.02 155.558 230.742 156.263C230.559 156.367 230.377 156.445 230.403 156.732C231.864 157.124 233.35 157.541 234.837 157.932C234.577 158.871 234.342 159.758 234.081 160.671C233.194 160.437 232.359 160.228 231.524 159.993C230.011 159.576 228.498 159.184 226.985 158.767C226.698 158.689 226.463 158.741 226.229 158.898C224.481 159.915 222.759 160.932 221.011 161.95C220.15 162.445 219.263 162.941 218.376 163.463C218.272 163.515 218.194 163.593 217.959 163.802C218.142 163.88 218.246 163.932 218.376 163.985C219.863 164.845 221.376 165.706 222.863 166.567C223.959 167.193 225.081 167.845 226.15 168.498C226.463 168.68 226.724 168.706 227.09 168.628C229.333 168.002 231.577 167.402 233.82 166.802C233.872 166.776 233.95 166.776 234.055 166.776C234.29 167.663 234.524 168.524 234.785 169.463C233.298 169.854 231.837 170.272 230.377 170.663C230.298 170.924 230.429 171.028 230.637 171.132C231.916 171.837 233.194 172.593 234.524 173.324C234.055 174.159 233.585 174.941 233.116 175.776C231.655 174.993 230.272 174.106 228.837 173.35C228.785 173.402 228.759 173.428 228.707 173.48C229.098 174.941 229.49 176.402 229.881 177.941C228.994 178.176 228.107 178.437 227.168 178.698C226.959 177.941 226.75 177.237 226.568 176.533C226.124 174.863 225.707 173.193 225.211 171.55C225.159 171.341 224.898 171.132 224.689 171.002C222.342 169.619 219.968 168.263 217.62 166.88C217.411 166.75 217.202 166.619 216.994 166.515C216.837 166.437 216.681 166.437 216.446 166.358C216.446 166.776 216.446 167.115 216.446 167.428C216.446 170.141 216.446 172.854 216.446 175.567C216.446 176.011 216.576 176.324 216.889 176.637C218.402 178.124 219.916 179.637 221.429 181.15C221.585 181.306 221.742 181.463 221.872 181.62C221.637 182.089 220.672 183.107 219.916 183.654C218.95 182.689 217.985 181.724 217.02 180.759C216.889 180.602 216.759 180.42 216.446 180.628C216.446 182.167 216.446 183.759 216.446 185.376C215.507 185.376 214.62 185.376 213.655 185.376C213.655 183.759 213.681 182.167 213.655 180.393C213.368 180.602 213.185 180.68 213.055 180.811C212.194 181.672 211.333 182.559 210.472 183.446C210.394 183.55 210.263 183.602 210.211 183.654C209.559 182.976 208.907 182.324 208.228 181.646C208.802 181.046 209.428 180.42 210.055 179.793C211.15 178.698 212.298 177.602 213.394 176.48C213.55 176.298 213.681 176.011 213.681 175.75C213.707 172.776 213.707 169.828 213.681 166.854C213.681 166.672 213.629 166.515 213.576 166.254C212.976 166.593 212.428 166.906 211.907 167.219C209.898 168.393 207.889 169.567 205.855 170.715C205.254 171.054 204.863 171.446 204.707 172.15C204.263 174.08 203.715 176.011 203.194 177.941C203.141 178.176 203.037 178.385 202.907 178.724C202.02 178.489 201.159 178.254 200.246 178.02C200.611 176.48 201.081 175.019 201.394 173.506C201.341 173.48 201.315 173.428 201.263 173.402C199.881 174.211 198.498 174.993 197.011 175.854C196.541 175.072 196.098 174.289 195.602 173.48C195.733 173.35 195.837 173.246 195.967 173.167C197.141 172.489 198.289 171.837 199.463 171.185C199.672 171.08 199.776 170.95 199.672 170.715C198.237 170.324 196.802 169.932 195.315 169.541C195.55 168.628 195.785 167.767 196.02 166.828C196.515 166.932 196.985 167.037 197.454 167.167C199.176 167.637 200.898 168.08 202.646 168.55C202.776 168.576 202.907 168.602 203.037 168.654C203.35 168.811 203.637 168.759 203.924 168.576C206.454 167.115 209.011 165.654 211.542 164.167C211.724 164.063 211.881 163.932 212.115 163.75C211.255 163.228 210.472 162.785 209.715 162.341C207.785 161.219 205.881 160.124 203.95 159.002C203.637 158.819 203.35 158.793 203.011 158.898C200.767 159.524 198.524 160.124 196.28 160.724C196.228 160.75 196.15 160.75 196.046 160.75C195.811 159.863 195.576 159.002 195.341 158.037C196.854 157.619 198.315 157.228 199.75 156.837C199.802 156.471 199.567 156.445 199.385 156.341C198.133 155.637 196.907 154.906 195.602 154.176C196.072 153.341 196.515 152.532 197.011 151.697C198.446 152.532 199.854 153.341 201.341 154.176C201.341 153.915 201.367 153.758 201.341 153.628C201.028 152.454 200.689 151.306 200.376 150.132C200.324 149.95 200.324 149.767 200.298 149.532C201.185 149.297 202.046 149.063 202.959 148.802C203.22 149.741 203.454 150.602 203.689 151.463C204.081 152.924 204.472 154.384 204.863 155.871C204.968 156.315 205.307 156.471 205.62 156.68C207.315 157.671 209.037 158.637 210.733 159.628C211.489 160.071 212.246 160.515 212.976 160.958C213.133 161.063 213.315 161.115 213.55 161.219C213.602 161.037 213.681 160.906 213.681 160.802C213.681 158.689 213.681 156.576 213.681 154.463C213.681 153.524 213.681 152.584 213.629 151.645C213.629 151.437 213.524 151.202 213.394 151.071C212.194 149.871 210.994 148.671 209.794 147.471C209.246 146.923 208.724 146.402 208.176 145.828C208.828 145.15 209.481 144.497 210.133 143.819C211.255 144.941 212.35 146.037 213.446 147.106C213.759 146.897 213.655 146.61 213.655 146.402C213.655 145.019 213.655 143.61 213.655 142.176C214.568 142.176 215.455 142.176 216.394 142.176C216.394 143.767 216.394 145.306 216.394 146.897C216.629 147.132 216.785 146.976 216.968 146.767C217.802 145.906 218.637 145.071 219.498 144.236C219.629 144.106 219.759 144.002 219.863 143.897C220.516 144.55 221.168 145.202 221.846 145.88C221.768 145.984 221.663 146.141 221.559 146.245C219.968 147.837 218.35 149.454 216.759 151.045C216.576 151.228 216.446 151.41 216.446 151.671C216.446 154.724 216.446 157.776 216.446 160.828C216.446 160.906 216.472 161.011 216.498 161.193C216.707 161.115 216.889 161.089 217.046 161.011C219.576 159.55 222.107 158.063 224.663 156.602C225.029 156.393 225.211 156.132 225.316 155.741C225.863 153.628 226.437 151.515 227.011 149.402C227.168 149.089 227.22 148.932 227.246 148.776Z" fill="#F2DCDB"/>
<path d="M144.158 191.011C144.289 191.011 144.367 190.985 144.445 191.011C145.228 191.22 146.036 191.454 146.871 191.689C146.48 193.202 146.089 194.689 145.697 196.176C145.749 196.202 145.802 196.255 145.828 196.281C147.21 195.472 148.593 194.689 150.08 193.854C150.549 194.663 151.019 195.446 151.515 196.307C150.21 197.063 148.932 197.794 147.654 198.498C147.471 198.602 147.289 198.681 147.315 198.968C148.776 199.359 150.263 199.776 151.749 200.168C151.489 201.107 151.254 201.994 150.993 202.907C150.106 202.672 149.271 202.463 148.436 202.228C146.923 201.811 145.41 201.42 143.897 201.002C143.61 200.924 143.375 200.976 143.141 201.133C141.393 202.15 139.671 203.168 137.923 204.185C137.062 204.681 136.175 205.176 135.288 205.698C135.184 205.75 135.106 205.829 134.871 206.037C135.054 206.115 135.158 206.168 135.288 206.22C136.775 207.081 138.288 207.942 139.775 208.802C140.871 209.429 141.993 210.081 143.062 210.733C143.375 210.916 143.636 210.942 144.002 210.863C146.245 210.237 148.489 209.637 150.732 209.037C150.784 209.011 150.863 209.011 150.967 209.011C151.202 209.898 151.436 210.759 151.697 211.698C150.21 212.089 148.749 212.507 147.289 212.898C147.21 213.159 147.341 213.263 147.549 213.368C148.828 214.072 150.106 214.829 151.436 215.559C150.967 216.394 150.497 217.177 150.028 218.011C148.567 217.229 147.184 216.342 145.749 215.585C145.697 215.637 145.671 215.663 145.619 215.716C146.01 217.176 146.402 218.637 146.793 220.177C145.906 220.411 145.019 220.672 144.08 220.933C143.871 220.177 143.662 219.472 143.48 218.768C143.036 217.098 142.619 215.429 142.123 213.785C142.071 213.576 141.81 213.368 141.602 213.237C139.254 211.855 136.88 210.498 134.532 209.116C134.323 208.985 134.115 208.855 133.906 208.75C133.749 208.672 133.593 208.672 133.358 208.594C133.358 209.011 133.358 209.35 133.358 209.663C133.358 212.376 133.358 215.09 133.358 217.803C133.358 218.246 133.488 218.559 133.801 218.872C135.315 220.359 136.828 221.872 138.341 223.385C138.497 223.542 138.654 223.698 138.784 223.855C138.549 224.324 137.584 225.342 136.828 225.89C135.862 224.924 134.897 223.959 133.932 222.994C133.801 222.837 133.671 222.655 133.358 222.864C133.358 224.403 133.358 225.994 133.358 227.611C132.419 227.611 131.532 227.611 130.567 227.611C130.567 225.994 130.593 224.403 130.567 222.629C130.28 222.837 130.097 222.916 129.967 223.046C129.106 223.907 128.245 224.794 127.384 225.681C127.306 225.785 127.175 225.837 127.123 225.89C126.471 225.211 125.819 224.559 125.14 223.881C125.714 223.281 126.34 222.655 126.967 222.029C128.062 220.933 129.21 219.837 130.306 218.716C130.462 218.533 130.593 218.246 130.593 217.985C130.619 215.011 130.619 212.063 130.593 209.089C130.593 208.907 130.541 208.75 130.488 208.489C129.888 208.829 129.341 209.142 128.819 209.455C126.81 210.629 124.801 211.803 122.767 212.95C122.167 213.289 121.775 213.681 121.619 214.385C121.175 216.316 120.627 218.246 120.106 220.177C120.053 220.411 119.949 220.62 119.819 220.959C118.932 220.724 118.071 220.49 117.158 220.255C117.523 218.716 117.993 217.255 118.306 215.742C118.253 215.716 118.227 215.663 118.175 215.637C116.793 216.446 115.41 217.229 113.923 218.09C113.453 217.307 113.01 216.524 112.514 215.716C112.645 215.585 112.749 215.481 112.879 215.403C114.053 214.724 115.201 214.072 116.375 213.42C116.584 213.316 116.688 213.185 116.584 212.95C115.149 212.559 113.714 212.168 112.227 211.776C112.462 210.863 112.697 210.003 112.932 209.063C113.427 209.168 113.897 209.272 114.366 209.402C116.088 209.872 117.81 210.316 119.558 210.785C119.688 210.811 119.819 210.837 119.949 210.889C120.262 211.046 120.549 210.994 120.836 210.811C123.367 209.35 125.923 207.889 128.454 206.402C128.636 206.298 128.793 206.168 129.027 205.985C128.167 205.463 127.384 205.02 126.627 204.576C124.697 203.455 122.793 202.359 120.862 201.237C120.549 201.055 120.262 201.028 119.923 201.133C117.68 201.759 115.436 202.359 113.193 202.959C113.14 202.985 113.062 202.985 112.958 202.985C112.723 202.098 112.488 201.237 112.253 200.272C113.766 199.855 115.227 199.463 116.662 199.072C116.714 198.707 116.48 198.681 116.297 198.576C115.045 197.872 113.819 197.141 112.514 196.411C112.984 195.576 113.427 194.768 113.923 193.933C115.358 194.768 116.766 195.576 118.253 196.411C118.253 196.15 118.28 195.994 118.253 195.863C117.94 194.689 117.601 193.541 117.288 192.368C117.236 192.185 117.236 192.002 117.21 191.767C118.097 191.533 118.958 191.298 119.871 191.037C120.132 191.976 120.367 192.837 120.601 193.698C120.993 195.159 121.384 196.62 121.775 198.107C121.88 198.55 122.219 198.707 122.532 198.915C124.227 199.907 125.949 200.872 127.645 201.863C128.401 202.307 129.158 202.75 129.888 203.194C130.045 203.298 130.228 203.35 130.462 203.455C130.514 203.272 130.593 203.142 130.593 203.037C130.593 200.924 130.593 198.811 130.593 196.698C130.593 195.759 130.593 194.82 130.541 193.881C130.541 193.672 130.436 193.437 130.306 193.307C129.106 192.107 127.906 190.907 126.706 189.707C126.158 189.159 125.636 188.637 125.088 188.063C125.74 187.385 126.393 186.733 127.045 186.054C128.167 187.176 129.262 188.272 130.358 189.341C130.671 189.133 130.567 188.846 130.567 188.637C130.567 187.254 130.567 185.846 130.567 184.411C131.48 184.411 132.367 184.411 133.306 184.411C133.306 186.002 133.306 187.541 133.306 189.133C133.541 189.367 133.697 189.211 133.88 189.002C134.715 188.141 135.549 187.307 136.41 186.472C136.541 186.341 136.671 186.237 136.775 186.133C137.428 186.785 138.08 187.437 138.758 188.115C138.68 188.22 138.575 188.376 138.471 188.481C136.88 190.072 135.262 191.689 133.671 193.281C133.488 193.463 133.358 193.646 133.358 193.907C133.358 196.959 133.358 200.011 133.358 203.063C133.358 203.142 133.384 203.246 133.41 203.429C133.619 203.35 133.801 203.324 133.958 203.246C136.488 201.785 139.019 200.298 141.575 198.837C141.941 198.628 142.123 198.368 142.228 197.976C142.775 195.863 143.349 193.75 143.923 191.637C144.054 191.298 144.106 191.168 144.158 191.011Z" fill="#D7E8E6"/>
<path d="M516.189 268.542C516.319 268.542 516.397 268.516 516.476 268.542C517.258 268.751 518.067 268.986 518.902 269.221C518.51 270.734 518.119 272.221 517.728 273.708C517.78 273.734 517.832 273.786 517.858 273.812C519.241 273.003 520.624 272.221 522.11 271.386C522.58 272.195 523.05 272.977 523.545 273.838C522.241 274.595 520.963 275.325 519.684 276.029C519.502 276.134 519.319 276.212 519.345 276.499C520.806 276.89 522.293 277.308 523.78 277.699C523.519 278.638 523.284 279.525 523.024 280.438C522.137 280.203 521.302 279.995 520.467 279.76C518.954 279.342 517.441 278.951 515.928 278.534C515.641 278.455 515.406 278.508 515.171 278.664C513.423 279.682 511.702 280.699 509.954 281.716C509.093 282.212 508.206 282.708 507.319 283.229C507.215 283.282 507.136 283.36 506.902 283.569C507.084 283.647 507.189 283.699 507.319 283.751C508.806 284.612 510.319 285.473 511.806 286.334C512.902 286.96 514.023 287.612 515.093 288.264C515.406 288.447 515.667 288.473 516.032 288.395C518.276 287.769 520.519 287.169 522.763 286.569C522.815 286.543 522.893 286.543 522.997 286.543C523.232 287.429 523.467 288.29 523.728 289.23C522.241 289.621 520.78 290.038 519.319 290.43C519.241 290.69 519.371 290.795 519.58 290.899C520.858 291.603 522.137 292.36 523.467 293.09C522.997 293.925 522.528 294.708 522.058 295.543C520.597 294.76 519.215 293.873 517.78 293.117C517.728 293.169 517.702 293.195 517.65 293.247C518.041 294.708 518.432 296.169 518.824 297.708C517.937 297.943 517.05 298.204 516.11 298.464C515.902 297.708 515.693 297.004 515.51 296.299C515.067 294.63 514.65 292.96 514.154 291.316C514.102 291.108 513.841 290.899 513.632 290.769C511.284 289.386 508.91 288.029 506.562 286.647C506.354 286.516 506.145 286.386 505.936 286.282C505.78 286.203 505.623 286.203 505.389 286.125C505.389 286.543 505.389 286.882 505.389 287.195C505.389 289.908 505.389 292.621 505.389 295.334C505.389 295.777 505.519 296.09 505.832 296.404C507.345 297.89 508.858 299.404 510.371 300.917C510.528 301.073 510.684 301.23 510.815 301.386C510.58 301.856 509.615 302.873 508.858 303.421C507.893 302.456 506.928 301.491 505.962 300.525C505.832 300.369 505.702 300.186 505.389 300.395C505.389 301.934 505.389 303.525 505.389 305.143C504.449 305.143 503.562 305.143 502.597 305.143C502.597 303.525 502.623 301.934 502.597 300.16C502.31 300.369 502.128 300.447 501.997 300.577C501.136 301.438 500.275 302.325 499.415 303.212C499.336 303.317 499.206 303.369 499.154 303.421C498.502 302.743 497.849 302.091 497.171 301.412C497.745 300.812 498.371 300.186 498.997 299.56C500.093 298.464 501.241 297.369 502.336 296.247C502.493 296.064 502.623 295.777 502.623 295.517C502.649 292.543 502.649 289.595 502.623 286.621C502.623 286.438 502.571 286.282 502.519 286.021C501.919 286.36 501.371 286.673 500.849 286.986C498.841 288.16 496.832 289.334 494.797 290.482C494.197 290.821 493.806 291.212 493.649 291.917C493.206 293.847 492.658 295.777 492.136 297.708C492.084 297.943 491.98 298.151 491.849 298.49C490.962 298.256 490.101 298.021 489.188 297.786C489.554 296.247 490.023 294.786 490.336 293.273C490.284 293.247 490.258 293.195 490.206 293.169C488.823 293.977 487.441 294.76 485.954 295.621C485.484 294.838 485.04 294.056 484.545 293.247C484.675 293.117 484.78 293.012 484.91 292.934C486.084 292.256 487.232 291.603 488.406 290.951C488.614 290.847 488.719 290.716 488.614 290.482C487.18 290.09 485.745 289.699 484.258 289.308C484.493 288.395 484.727 287.534 484.962 286.595C485.458 286.699 485.927 286.803 486.397 286.934C488.119 287.403 489.841 287.847 491.588 288.316C491.719 288.343 491.849 288.369 491.98 288.421C492.293 288.577 492.58 288.525 492.867 288.343C495.397 286.882 497.954 285.421 500.484 283.934C500.667 283.829 500.823 283.699 501.058 283.516C500.197 282.995 499.415 282.551 498.658 282.108C496.728 280.986 494.823 279.89 492.893 278.769C492.58 278.586 492.293 278.56 491.954 278.664C489.71 279.29 487.467 279.89 485.223 280.49C485.171 280.516 485.093 280.516 484.988 280.516C484.754 279.629 484.519 278.769 484.284 277.803C485.797 277.386 487.258 276.995 488.693 276.603C488.745 276.238 488.51 276.212 488.327 276.108C487.075 275.403 485.849 274.673 484.545 273.942C485.014 273.108 485.458 272.299 485.954 271.464C487.388 272.299 488.797 273.108 490.284 273.942C490.284 273.681 490.31 273.525 490.284 273.395C489.971 272.221 489.632 271.073 489.319 269.899C489.267 269.716 489.267 269.534 489.241 269.299C490.127 269.064 490.988 268.829 491.901 268.568C492.162 269.508 492.397 270.368 492.632 271.229C493.023 272.69 493.414 274.151 493.806 275.638C493.91 276.082 494.249 276.238 494.562 276.447C496.258 277.438 497.98 278.403 499.675 279.395C500.432 279.838 501.188 280.282 501.919 280.725C502.075 280.829 502.258 280.882 502.493 280.986C502.545 280.803 502.623 280.673 502.623 280.569C502.623 278.455 502.623 276.342 502.623 274.229C502.623 273.29 502.623 272.351 502.571 271.412C502.571 271.203 502.467 270.968 502.336 270.838C501.136 269.638 499.936 268.438 498.736 267.238C498.188 266.69 497.667 266.168 497.119 265.594C497.771 264.916 498.423 264.264 499.075 263.586C500.197 264.707 501.293 265.803 502.389 266.873C502.702 266.664 502.597 266.377 502.597 266.168C502.597 264.786 502.597 263.377 502.597 261.942C503.51 261.942 504.397 261.942 505.336 261.942C505.336 263.534 505.336 265.073 505.336 266.664C505.571 266.899 505.728 266.742 505.91 266.534C506.745 265.673 507.58 264.838 508.441 264.003C508.571 263.873 508.702 263.768 508.806 263.664C509.458 264.316 510.11 264.968 510.789 265.647C510.71 265.751 510.606 265.908 510.502 266.012C508.91 267.603 507.293 269.221 505.702 270.812C505.519 270.995 505.389 271.177 505.389 271.438C505.389 274.49 505.389 277.542 505.389 280.595C505.389 280.673 505.415 280.777 505.441 280.96C505.649 280.882 505.832 280.856 505.989 280.777C508.519 279.316 511.049 277.829 513.606 276.368C513.971 276.16 514.154 275.899 514.258 275.508C514.806 273.395 515.38 271.281 515.954 269.168C516.084 268.829 516.136 268.699 516.189 268.542Z" fill="#F9F0B9"/>
</svg>
