<svg width="1440" height="52" viewBox="0 0 1440 52" fill="none" xmlns="http://www.w3.org/2000/svg">
<path d="M433.417 19.7186C427.246 22.4582 431.345 31.6291 437.515 28.8895C443.686 26.1498 439.588 16.9789 433.417 19.7186Z" fill="#0895FF"/>
<path d="M330.564 24.571C327.351 26.0105 329.493 30.7701 332.707 29.3306C335.92 27.9143 333.778 23.1315 330.564 24.571Z" fill="#0895FF"/>
<path d="M263.711 0.74997C260.498 2.18945 262.64 6.94903 265.854 5.50955C269.067 4.09328 266.925 -0.666295 263.711 0.74997Z" fill="#0895FF"/>
<path d="M150.59 29.6557C147.376 31.0952 149.518 35.8548 152.732 34.4385C155.945 32.999 153.803 28.2395 150.59 29.6557Z" fill="#0895FF"/>
<path d="M400.84 4.16281C400.84 4.11637 400.84 4.06994 400.84 4.02351C400.934 3.65203 401.05 3.25733 401.166 2.86263C401.912 3.04837 402.61 3.23411 403.332 3.41985C403.355 3.39663 403.355 3.37342 403.379 3.3502C403.006 2.67689 402.61 2.0268 402.214 1.30706C402.61 1.07489 402.983 0.865935 403.402 0.610543C403.751 1.23741 404.124 1.84107 404.473 2.46794C404.52 2.56081 404.566 2.63046 404.706 2.63046C404.892 1.93393 405.078 1.21419 405.288 0.494452C405.754 0.610539 406.173 0.726626 406.592 0.842713C406.476 1.26063 406.382 1.67854 406.266 2.07324C406.08 2.79298 405.87 3.53594 405.661 4.25568C405.614 4.39499 405.637 4.51107 405.707 4.62716C406.196 5.46299 406.685 6.29882 407.174 7.13465C407.407 7.55256 407.663 7.97047 407.896 8.38839C407.919 8.43482 407.966 8.48126 408.059 8.59734C408.106 8.50447 408.106 8.45804 408.152 8.4116C408.571 7.69186 408.967 6.97212 409.386 6.25238C409.689 5.71838 410.015 5.18438 410.318 4.6736C410.411 4.53429 410.434 4.39499 410.364 4.20925C410.062 3.14124 409.782 2.05003 409.479 0.982022C409.479 0.958804 409.479 0.912366 409.456 0.865932C409.875 0.749845 410.294 0.633758 410.76 0.517671C410.946 1.23741 411.156 1.93393 411.342 2.63046C411.459 2.65368 411.505 2.60724 411.575 2.51437C411.924 1.8875 412.274 1.28385 412.646 0.656974C413.042 0.88915 413.438 1.09811 413.834 1.33028C413.461 2.02681 413.019 2.70011 412.67 3.39663C412.693 3.41985 412.716 3.44307 412.739 3.46629C413.438 3.28055 414.137 3.09481 414.882 2.88585C414.998 3.32698 415.115 3.7449 415.231 4.18603C414.858 4.2789 414.532 4.39499 414.183 4.46464C413.391 4.6736 412.576 4.88255 411.785 5.11473C411.692 5.13794 411.575 5.25403 411.529 5.37012C410.853 6.50777 410.201 7.64543 409.549 8.75986C409.479 8.85273 409.433 8.96882 409.363 9.06169C409.34 9.13135 409.316 9.22422 409.293 9.31709C409.503 9.31709 409.642 9.31709 409.805 9.31709C411.109 9.31709 412.437 9.31709 413.741 9.31709C413.95 9.31709 414.113 9.24744 414.253 9.10813C414.975 8.36517 415.697 7.64543 416.442 6.92569C416.512 6.85604 416.605 6.78638 416.675 6.71673C416.908 6.83282 417.397 7.29717 417.653 7.66865C417.187 8.133 416.721 8.59735 416.256 9.06169C416.186 9.13135 416.093 9.17778 416.186 9.3403C416.931 9.3403 417.699 9.3403 418.468 9.3403C418.468 9.80465 418.468 10.2226 418.468 10.6869C417.699 10.6869 416.931 10.6637 416.069 10.6869C416.162 10.8262 416.209 10.9191 416.279 10.9655C416.698 11.3834 417.117 11.8014 417.536 12.2193C417.583 12.2657 417.606 12.3121 417.629 12.3354C417.303 12.6604 417.001 12.9622 416.651 13.2873C416.372 13.0087 416.046 12.7068 415.767 12.405C415.231 11.871 414.719 11.337 414.16 10.803C414.067 10.7334 413.927 10.6637 413.811 10.6637C412.39 10.6637 410.946 10.6637 409.526 10.6637C409.433 10.6637 409.363 10.6869 409.223 10.7101C409.386 10.9887 409.526 11.2674 409.689 11.5227C410.248 12.4979 410.807 13.4498 411.366 14.4249C411.529 14.7035 411.715 14.8893 412.064 14.9821C412.996 15.1911 413.927 15.4697 414.858 15.7019C414.975 15.7251 415.068 15.7715 415.231 15.8412C415.115 16.2591 414.998 16.677 414.882 17.1181C414.137 16.9556 413.438 16.7235 412.716 16.5609C412.693 16.5841 412.693 16.6074 412.67 16.6306C413.065 17.3039 413.438 17.954 413.857 18.6737C413.485 18.9059 413.112 19.1148 412.716 19.347C412.67 19.2774 412.6 19.2309 412.576 19.1613C412.25 18.6041 411.924 18.0468 411.622 17.4664C411.575 17.3735 411.505 17.3271 411.389 17.3735C411.203 18.0701 411.016 18.7666 410.83 19.4631C410.388 19.347 409.968 19.2309 409.526 19.1149C409.573 18.8827 409.619 18.6505 409.689 18.4415C409.899 17.6057 410.131 16.7931 410.364 15.9573C410.388 15.8876 410.388 15.818 410.411 15.7715C410.481 15.609 410.457 15.4929 410.364 15.3536C409.666 14.1231 408.944 12.9158 408.245 11.6853C408.199 11.5924 408.129 11.5227 408.036 11.4067C407.78 11.8246 407.57 12.1961 407.36 12.5675C406.825 13.4962 406.289 14.4249 405.754 15.3304C405.661 15.4697 405.661 15.609 405.707 15.7948C406.01 16.8628 406.289 17.954 406.592 19.022C406.592 19.0452 406.592 19.0916 406.615 19.1381C406.196 19.2542 405.777 19.3702 405.311 19.4863C405.125 18.7666 404.915 18.0701 404.729 17.3735C404.566 17.3503 404.543 17.4664 404.496 17.5593C404.17 18.1629 403.821 18.7434 403.448 19.3702C403.029 19.1381 402.657 18.9291 402.261 18.6969C402.657 18.0004 403.053 17.3271 403.472 16.6074C403.355 16.6074 403.285 16.5841 403.216 16.6074C402.657 16.7699 402.098 16.9092 401.539 17.0717C401.446 17.0949 401.376 17.0949 401.236 17.1181C401.12 16.7002 401.003 16.2823 400.887 15.8412C401.329 15.7251 401.749 15.609 402.168 15.4929C402.866 15.3072 403.588 15.1214 404.287 14.9357C404.496 14.8893 404.589 14.7268 404.659 14.5642C405.125 13.7516 405.591 12.9158 406.08 12.1032C406.289 11.7317 406.499 11.3834 406.708 11.012C406.755 10.9423 406.778 10.8494 406.848 10.7333C406.755 10.7101 406.708 10.6869 406.639 10.6869C405.614 10.6869 404.613 10.6869 403.588 10.6869C403.146 10.6869 402.68 10.6869 402.238 10.7101C402.144 10.7101 402.028 10.7566 401.958 10.8262C401.376 11.4067 400.794 11.9871 400.212 12.5443C399.956 12.7997 399.699 13.0551 399.42 13.3105C399.094 12.9854 398.768 12.6836 398.442 12.3586C398.978 11.8246 399.513 11.2906 400.025 10.7798C399.909 10.6405 399.793 10.6637 399.676 10.6637C399.001 10.6637 398.326 10.6637 397.627 10.6637C397.627 10.2226 397.627 9.80465 397.627 9.3403C398.395 9.3403 399.141 9.3403 399.909 9.3403C400.025 9.22421 399.956 9.15456 399.839 9.06169C399.42 8.667 399.024 8.24908 398.628 7.85438C398.558 7.78473 398.512 7.7383 398.465 7.66864C398.791 7.3436 399.094 7.04177 399.42 6.71673C399.467 6.76316 399.536 6.8096 399.606 6.85603C400.375 7.62221 401.143 8.38839 401.912 9.17778C402.005 9.27065 402.075 9.31709 402.214 9.31709C403.681 9.31709 405.148 9.31709 406.639 9.31709C406.685 9.31709 406.732 9.29387 406.802 9.29387C406.778 9.201 406.755 9.10813 406.708 9.03848C406.01 7.80795 405.288 6.60064 404.589 5.37012C404.496 5.18438 404.357 5.11472 404.17 5.06829C403.146 4.8129 402.121 4.53429 401.097 4.25568C401.003 4.20925 400.934 4.18603 400.84 4.16281Z" fill="#0066E6"/>
<path d="M301.038 35.7153C301.038 35.6689 301.038 35.6225 301.038 35.576C301.131 35.2045 301.248 34.8098 301.364 34.4151C302.109 34.6009 302.808 34.7866 303.53 34.9724C303.553 34.9491 303.553 34.9259 303.576 34.9027C303.204 34.2294 302.808 33.5793 302.412 32.8596C302.808 32.6274 303.18 32.4184 303.6 32.1631C303.949 32.7899 304.321 33.3936 304.671 34.0204C304.717 34.1133 304.764 34.183 304.904 34.183C305.09 33.4864 305.276 32.7667 305.486 32.047C305.951 32.1631 306.371 32.2791 306.79 32.3952C306.673 32.8131 306.58 33.2311 306.464 33.6258C306.277 34.3455 306.068 35.0885 305.858 35.8082C305.812 35.9475 305.835 36.0636 305.905 36.1797C306.394 37.0155 306.883 37.8513 307.372 38.6872C307.605 39.1051 307.861 39.523 308.094 39.9409C308.117 39.9873 308.164 40.0338 308.257 40.1499C308.303 40.057 308.303 40.0106 308.35 39.9409C308.769 39.2212 309.165 38.5014 309.584 37.7817C309.887 37.2477 310.213 36.7137 310.515 36.2029C310.609 36.0636 310.632 35.9243 310.562 35.7385C310.259 34.6705 309.98 33.5793 309.677 32.5113C309.677 32.4881 309.677 32.4417 309.654 32.3952C310.073 32.2791 310.492 32.1631 310.958 32.047C311.144 32.7667 311.354 33.4632 311.54 34.1598C311.656 34.183 311.703 34.1365 311.773 34.0437C312.122 33.4168 312.471 32.8131 312.844 32.1863C313.24 32.4184 313.636 32.6274 314.032 32.8596C313.659 33.5561 313.217 34.2294 312.867 34.9259C312.891 34.9491 312.914 34.9724 312.937 34.9956C313.636 34.8098 314.334 34.6241 315.079 34.4151C315.196 34.8563 315.312 35.2742 315.429 35.7153C315.056 35.8082 314.73 35.9243 314.381 35.9939C313.589 36.2029 312.774 36.4118 311.982 36.644C311.889 36.6672 311.773 36.7833 311.726 36.8994C311.051 38.0371 310.399 39.1747 309.747 40.2892C309.677 40.382 309.607 40.4981 309.561 40.591C309.537 40.6606 309.514 40.7535 309.491 40.8464C309.7 40.8464 309.84 40.8464 310.003 40.8464C311.307 40.8464 312.634 40.8464 313.938 40.8464C314.148 40.8464 314.311 40.7767 314.451 40.6374C315.173 39.8945 315.894 39.1747 316.64 38.455C316.709 38.3853 316.803 38.3157 316.872 38.246C317.105 38.3621 317.594 38.8265 317.85 39.1979C317.385 39.6623 316.919 40.1266 316.453 40.591C316.383 40.6606 316.29 40.7071 316.383 40.8696C317.129 40.8696 317.897 40.8696 318.665 40.8696C318.665 41.3339 318.665 41.7519 318.665 42.2162C317.897 42.2162 317.129 42.193 316.267 42.2162C316.36 42.3555 316.407 42.4484 316.477 42.4948C316.896 42.9127 317.315 43.3306 317.734 43.7486C317.781 43.795 317.804 43.8414 317.827 43.8647C317.501 44.1897 317.198 44.4915 316.849 44.8166C316.57 44.538 316.244 44.2361 315.964 43.9343C315.429 43.4003 314.916 42.8663 314.358 42.3323C314.264 42.2626 314.125 42.193 314.008 42.193C312.588 42.193 311.144 42.193 309.724 42.193C309.631 42.193 309.561 42.2162 309.421 42.2394C309.584 42.518 309.724 42.7966 309.887 43.052C310.446 44.0272 311.004 44.9791 311.563 45.9542C311.726 46.2328 311.913 46.4186 312.262 46.5114C313.193 46.7204 314.125 46.999 315.056 47.2312C315.173 47.2544 315.266 47.3008 315.429 47.3705C315.312 47.7884 315.196 48.2063 315.079 48.6474C314.334 48.4849 313.636 48.2527 312.914 48.1134C312.891 48.1367 312.891 48.1599 312.867 48.1831C313.263 48.8564 313.636 49.5065 314.055 50.2262C313.682 50.4584 313.31 50.6674 312.914 50.8995C312.867 50.8299 312.797 50.7835 312.774 50.7138C312.448 50.1566 312.122 49.5994 311.819 49.0189C311.773 48.9261 311.703 48.8796 311.587 48.9261C311.4 49.6226 311.214 50.3191 311.028 51.0156C310.585 50.8995 310.166 50.7835 309.724 50.6674C309.77 50.4352 309.817 50.203 309.887 49.9941C310.096 49.1582 310.329 48.3456 310.562 47.5098C310.585 47.4401 310.585 47.3705 310.609 47.3241C310.678 47.1615 310.655 47.0454 310.562 46.9061C309.863 45.6756 309.142 44.4683 308.443 43.2378C308.396 43.1449 308.327 43.0753 308.233 42.9592C307.977 43.3771 307.768 43.7486 307.558 44.12C307.023 45.0487 306.487 45.9774 305.951 46.8829C305.858 47.0222 305.858 47.1615 305.905 47.3473C306.208 48.4153 306.487 49.5065 306.79 50.5745C306.79 50.5977 306.79 50.6441 306.813 50.6906C306.347 50.7835 305.905 50.8995 305.462 51.0156C305.276 50.2959 305.067 49.5994 304.88 48.9028C304.717 48.8796 304.694 48.9957 304.647 49.0886C304.321 49.6922 303.972 50.2727 303.6 50.8995C303.18 50.6674 302.808 50.4584 302.412 50.2262C302.808 49.5297 303.204 48.8564 303.623 48.1367C303.506 48.1367 303.437 48.1134 303.367 48.1367C302.808 48.2992 302.249 48.4385 301.69 48.601C301.597 48.6242 301.527 48.6242 301.387 48.6474C301.271 48.2295 301.155 47.8116 301.038 47.3705C301.481 47.2544 301.9 47.1383 302.319 47.0222C303.017 46.8365 303.739 46.6507 304.438 46.465C304.647 46.4186 304.741 46.256 304.81 46.0935C305.276 45.2809 305.742 44.4451 306.231 43.6325C306.44 43.261 306.65 42.9127 306.86 42.5413C306.906 42.4716 306.929 42.3787 306.999 42.2626C306.906 42.2394 306.86 42.2162 306.79 42.2162C305.765 42.2162 304.764 42.2162 303.739 42.2162C303.297 42.2162 302.831 42.2162 302.389 42.2394C302.296 42.2394 302.179 42.2859 302.109 42.3555C301.527 42.936 300.945 43.5164 300.363 44.0736C300.107 44.329 299.851 44.5844 299.571 44.8398C299.245 44.5147 298.919 44.2129 298.593 43.8879C299.129 43.3539 299.664 42.8199 300.177 42.3091C300.06 42.1698 299.944 42.193 299.827 42.193C299.152 42.193 298.477 42.193 297.778 42.193C297.778 41.7519 297.778 41.3339 297.778 40.8696C298.547 40.8696 299.292 40.8696 300.06 40.8696C300.177 40.7535 300.107 40.6839 299.99 40.591C299.571 40.1963 299.175 39.7784 298.779 39.3837C298.71 39.314 298.663 39.2676 298.616 39.1979C298.942 38.8729 299.245 38.5711 299.571 38.246C299.618 38.2925 299.688 38.3389 299.757 38.3853C300.526 39.1515 301.294 39.9177 302.063 40.7071C302.156 40.7999 302.226 40.8464 302.365 40.8464C303.832 40.8464 305.299 40.8464 306.79 40.8464C306.836 40.8464 306.883 40.8232 306.953 40.8232C306.929 40.7303 306.906 40.6374 306.86 40.5678C306.161 39.3372 305.439 38.1299 304.741 36.8994C304.647 36.7137 304.508 36.644 304.321 36.5976C303.297 36.3422 302.272 36.0636 301.248 35.785C301.178 35.7618 301.108 35.7385 301.038 35.7153Z" fill="#0066E6"/>
<path d="M187.614 9.24753C187.614 9.20109 187.614 9.15466 187.614 9.10822C187.707 8.73674 187.823 8.34205 187.94 7.94735C188.685 8.13309 189.383 8.31883 190.105 8.50457C190.129 8.48135 190.129 8.45813 190.152 8.43492C189.779 7.76161 189.383 7.11152 188.988 6.39178C189.383 6.15961 189.756 5.95065 190.175 5.69526C190.524 6.32213 190.897 6.92578 191.246 7.55265C191.293 7.64552 191.339 7.71518 191.479 7.71518C191.665 7.01865 191.852 6.29891 192.061 5.57917C192.527 5.69526 192.946 5.81134 193.365 5.92743C193.249 6.34535 193.156 6.76326 193.039 7.15796C192.853 7.8777 192.643 8.62065 192.434 9.34039C192.387 9.4797 192.411 9.59579 192.48 9.71187C192.969 10.5477 193.458 11.3835 193.947 12.2194C194.18 12.6373 194.436 13.0552 194.669 13.4731C194.693 13.5195 194.739 13.566 194.832 13.6821C194.879 13.5892 194.879 13.5428 194.925 13.4963C195.345 12.7766 195.74 12.0568 196.16 11.3371C196.462 10.8031 196.788 10.2691 197.091 9.75831C197.184 9.61901 197.207 9.4797 197.138 9.29396C196.835 8.22596 196.555 7.13474 196.253 6.06674C196.253 6.04352 196.253 5.99708 196.229 5.95065C196.649 5.83456 197.068 5.71847 197.533 5.60239C197.72 6.32213 197.929 7.01865 198.116 7.71518C198.232 7.73839 198.279 7.69196 198.348 7.59909C198.698 6.97222 199.047 6.36856 199.42 5.74169C199.815 5.97387 200.211 6.18283 200.607 6.415C200.235 7.11152 199.792 7.78483 199.443 8.48135C199.466 8.50457 199.489 8.52778 199.513 8.551C200.211 8.36526 200.91 8.17952 201.655 7.97057C201.771 8.4117 201.888 8.82961 202.004 9.27075C201.632 9.36362 201.306 9.4797 200.956 9.54935C200.165 9.75831 199.35 9.96727 198.558 10.1994C198.465 10.2227 198.348 10.3387 198.302 10.4548C197.627 11.5925 196.975 12.7301 196.323 13.8446C196.253 13.9375 196.206 14.0535 196.136 14.1464C196.113 14.2161 196.09 14.3089 196.066 14.4018C196.276 14.4018 196.416 14.4018 196.579 14.4018C197.883 14.4018 199.21 14.4018 200.514 14.4018C200.724 14.4018 200.887 14.3322 201.026 14.1928C201.748 13.4499 202.47 12.7301 203.215 12.0104C203.285 11.9408 203.378 11.8711 203.448 11.8014C203.681 11.9175 204.17 12.3819 204.426 12.7534C203.96 13.2177 203.495 13.6821 203.029 14.1464C202.959 14.2161 202.866 14.2625 202.959 14.425C203.704 14.425 204.472 14.425 205.241 14.425C205.241 14.8894 205.241 15.3073 205.241 15.7716C204.472 15.7716 203.704 15.7484 202.843 15.7716C202.936 15.9109 202.982 16.0038 203.052 16.0502C203.471 16.4682 203.89 16.8861 204.31 17.304C204.356 17.3504 204.379 17.3969 204.403 17.4201C204.077 17.7451 203.774 18.0469 203.425 18.372C203.145 18.0934 202.819 17.7916 202.54 17.4897C202.004 16.9557 201.492 16.4217 200.933 15.8877C200.84 15.8181 200.7 15.7484 200.584 15.7484C199.163 15.7484 197.72 15.7484 196.299 15.7484C196.206 15.7484 196.136 15.7716 195.997 15.7948C196.16 16.0735 196.299 16.3521 196.462 16.6075C197.021 17.5826 197.58 18.5345 198.139 19.5096C198.302 19.7883 198.488 19.974 198.837 20.0669C199.769 20.2758 200.7 20.5544 201.632 20.7866C201.748 20.8098 201.841 20.8563 202.004 20.9259C201.888 21.3438 201.771 21.7617 201.655 22.2029C200.91 22.0403 200.211 21.8082 199.489 21.6456C199.466 21.6689 199.466 21.6921 199.443 21.7153C199.839 22.3886 200.211 23.0387 200.63 23.7584C200.258 23.9906 199.885 24.1996 199.489 24.4317C199.443 24.3621 199.373 24.3157 199.35 24.246C199.024 23.6888 198.698 23.1316 198.395 22.5511C198.348 22.4583 198.279 22.4118 198.162 22.4583C197.976 23.1548 197.79 23.8513 197.603 24.5478C197.161 24.4317 196.742 24.3157 196.299 24.1996C196.346 23.9674 196.392 23.7352 196.462 23.5263C196.672 22.6904 196.905 21.8778 197.138 21.042C197.161 20.9723 197.161 20.9027 197.184 20.8563C197.254 20.6937 197.231 20.5776 197.138 20.4383C196.439 19.2078 195.717 18.0005 195.019 16.77C194.972 16.6771 194.902 16.6075 194.809 16.4914C194.553 16.9093 194.343 17.2808 194.134 17.6522C193.598 18.5809 193.063 19.5096 192.527 20.4151C192.434 20.5544 192.434 20.6937 192.48 20.8795C192.783 21.9475 193.063 23.0387 193.365 24.1067C193.365 24.1299 193.365 24.1763 193.389 24.2228C192.969 24.3389 192.55 24.455 192.085 24.571C191.898 23.8513 191.689 23.1548 191.502 22.4583C191.339 22.435 191.316 22.5511 191.27 22.644C190.944 23.2477 190.594 23.8281 190.222 24.455C189.803 24.2228 189.43 24.0138 189.034 23.7817C189.43 23.0851 189.826 22.4118 190.245 21.6921C190.129 21.6921 190.059 21.6689 189.989 21.6921C189.43 21.8546 188.871 21.9939 188.312 22.1564C188.219 22.1796 188.149 22.1796 188.01 22.2029C187.893 21.785 187.777 21.367 187.66 20.9259C188.103 20.8098 188.522 20.6937 188.941 20.5776C189.64 20.3919 190.361 20.2062 191.06 20.0204C191.27 19.974 191.363 19.8115 191.433 19.6489C191.898 18.8363 192.364 18.0005 192.853 17.1879C193.063 16.8164 193.272 16.4682 193.482 16.0967C193.528 16.027 193.552 15.9342 193.621 15.8181C193.528 15.7948 193.482 15.7716 193.412 15.7716C192.387 15.7716 191.386 15.7716 190.361 15.7716C189.919 15.7716 189.453 15.7716 189.011 15.7948C188.918 15.7948 188.801 15.8413 188.731 15.9109C188.149 16.4914 187.567 17.0718 186.985 17.629C186.729 17.8844 186.473 18.1398 186.193 18.3952C185.867 18.0702 185.541 17.7683 185.215 17.4433C185.751 16.9093 186.286 16.3753 186.799 15.8645C186.682 15.7252 186.566 15.7484 186.449 15.7484C185.774 15.7484 185.099 15.7484 184.4 15.7484C184.4 15.3073 184.4 14.8894 184.4 14.425C185.169 14.425 185.914 14.425 186.682 14.425C186.799 14.3089 186.729 14.2393 186.612 14.1464C186.193 13.7517 185.797 13.3338 185.402 12.9391C185.332 12.8694 185.285 12.823 185.239 12.7534C185.565 12.4283 185.867 12.1265 186.193 11.8014C186.24 11.8479 186.31 11.8943 186.38 11.9408C187.148 12.7069 187.916 13.4731 188.685 14.2625C188.778 14.3554 188.848 14.4018 188.988 14.4018C190.455 14.4018 191.922 14.4018 193.412 14.4018C193.458 14.4018 193.505 14.3786 193.575 14.3786C193.552 14.2857 193.528 14.1928 193.482 14.1232C192.783 12.8927 192.061 11.6854 191.363 10.4548C191.27 10.2691 191.13 10.1994 190.944 10.153C189.919 9.89761 188.894 9.619 187.87 9.34039C187.753 9.29396 187.684 9.27074 187.614 9.24753Z" fill="#0066E6"/>
<path d="M41.5644 24.571C38.351 26.0105 40.4932 30.7701 43.7067 29.3306C46.9201 27.9143 44.7778 23.1315 41.5644 24.571Z" fill="#0895FF"/>
<path d="M111.841 4.16281C111.841 4.11637 111.841 4.06994 111.841 4.02351C111.934 3.65203 112.05 3.25733 112.167 2.86263C112.912 3.04837 113.61 3.23411 114.332 3.41985C114.355 3.39663 114.355 3.37342 114.379 3.3502C114.006 2.67689 113.61 2.0268 113.214 1.30706C113.61 1.07489 113.983 0.865935 114.402 0.610543C114.751 1.23741 115.124 1.84107 115.473 2.46794C115.52 2.56081 115.566 2.63046 115.706 2.63046C115.892 1.93393 116.078 1.21419 116.288 0.494452C116.754 0.610539 117.173 0.726626 117.592 0.842713C117.476 1.26063 117.383 1.67854 117.266 2.07324C117.08 2.79298 116.87 3.53594 116.661 4.25568C116.614 4.39499 116.637 4.51107 116.707 4.62716C117.196 5.46299 117.685 6.29882 118.174 7.13465C118.407 7.55256 118.663 7.97047 118.896 8.38839C118.919 8.43482 118.966 8.48126 119.059 8.59734C119.106 8.50447 119.106 8.45804 119.152 8.4116C119.571 7.69186 119.967 6.97212 120.386 6.25238C120.689 5.71838 121.015 5.18438 121.318 4.6736C121.411 4.53429 121.434 4.39499 121.364 4.20925C121.062 3.14124 120.782 2.05003 120.479 0.982022C120.479 0.958804 120.479 0.912366 120.456 0.865932C120.875 0.749845 121.294 0.633758 121.76 0.517671C121.946 1.23741 122.156 1.93393 122.342 2.63046C122.459 2.65368 122.505 2.60724 122.575 2.51437C122.924 1.8875 123.274 1.28385 123.646 0.656974C124.042 0.88915 124.438 1.09811 124.834 1.33028C124.461 2.02681 124.019 2.70011 123.67 3.39663C123.693 3.41985 123.716 3.44307 123.739 3.46629C124.438 3.28055 125.137 3.09481 125.882 2.88585C125.998 3.32698 126.115 3.7449 126.231 4.18603C125.858 4.2789 125.532 4.39499 125.183 4.46464C124.391 4.6736 123.576 4.88255 122.785 5.11473C122.692 5.13794 122.575 5.25403 122.529 5.37012C121.853 6.50777 121.201 7.64543 120.549 8.75986C120.479 8.85273 120.433 8.96882 120.363 9.06169C120.34 9.13135 120.316 9.22422 120.293 9.31709C120.503 9.31709 120.642 9.31709 120.805 9.31709C122.109 9.31709 123.437 9.31709 124.741 9.31709C124.95 9.31709 125.113 9.24744 125.253 9.10813C125.975 8.36517 126.697 7.64543 127.442 6.92569C127.512 6.85604 127.605 6.78638 127.675 6.71673C127.908 6.83282 128.397 7.29717 128.653 7.66865C128.187 8.133 127.721 8.59735 127.256 9.06169C127.186 9.13135 127.093 9.17778 127.186 9.3403C127.931 9.3403 128.699 9.3403 129.468 9.3403C129.468 9.80465 129.468 10.2226 129.468 10.6869C128.699 10.6869 127.931 10.6637 127.069 10.6869C127.162 10.8262 127.209 10.9191 127.279 10.9655C127.698 11.3834 128.117 11.8014 128.536 12.2193C128.583 12.2657 128.606 12.3121 128.629 12.3354C128.303 12.6604 128.001 12.9622 127.651 13.2873C127.372 13.0087 127.046 12.7068 126.767 12.405C126.231 11.871 125.719 11.337 125.16 10.803C125.067 10.7334 124.927 10.6637 124.811 10.6637C123.39 10.6637 121.946 10.6637 120.526 10.6637C120.433 10.6637 120.363 10.6869 120.223 10.7101C120.386 10.9887 120.526 11.2674 120.689 11.5227C121.248 12.4979 121.807 13.4498 122.366 14.4249C122.529 14.7035 122.715 14.8893 123.064 14.9821C123.996 15.1911 124.927 15.4697 125.858 15.7019C125.975 15.7251 126.068 15.7715 126.231 15.8412C126.115 16.2591 125.998 16.677 125.882 17.1181C125.137 16.9556 124.438 16.7235 123.716 16.5609C123.693 16.5841 123.693 16.6074 123.67 16.6306C124.065 17.3039 124.438 17.954 124.857 18.6737C124.485 18.9059 124.112 19.1148 123.716 19.347C123.67 19.2774 123.6 19.2309 123.576 19.1613C123.25 18.6041 122.924 18.0468 122.622 17.4664C122.575 17.3735 122.505 17.3271 122.389 17.3735C122.203 18.0701 122.016 18.7666 121.83 19.4631C121.388 19.347 120.968 19.2309 120.526 19.1149C120.573 18.8827 120.619 18.6505 120.689 18.4415C120.899 17.6057 121.131 16.7931 121.364 15.9573C121.388 15.8876 121.388 15.818 121.411 15.7715C121.481 15.609 121.457 15.4929 121.364 15.3536C120.666 14.1231 119.944 12.9158 119.245 11.6853C119.199 11.5924 119.129 11.5227 119.036 11.4067C118.78 11.8246 118.57 12.1961 118.36 12.5675C117.825 13.4962 117.289 14.4249 116.754 15.3304C116.661 15.4697 116.661 15.609 116.707 15.7948C117.01 16.8628 117.289 17.954 117.592 19.022C117.592 19.0452 117.592 19.0916 117.615 19.1381C117.196 19.2542 116.777 19.3702 116.311 19.4863C116.125 18.7666 115.915 18.0701 115.729 17.3735C115.566 17.3503 115.543 17.4664 115.496 17.5593C115.17 18.1629 114.821 18.7434 114.448 19.3702C114.029 19.1381 113.657 18.9291 113.261 18.6969C113.657 18.0004 114.053 17.3271 114.472 16.6074C114.355 16.6074 114.285 16.5841 114.216 16.6074C113.657 16.7699 113.098 16.9092 112.539 17.0717C112.446 17.0949 112.376 17.0949 112.236 17.1181C112.12 16.7002 112.004 16.2823 111.887 15.8412C112.329 15.7251 112.749 15.609 113.168 15.4929C113.866 15.3072 114.588 15.1214 115.287 14.9357C115.496 14.8893 115.589 14.7268 115.659 14.5642C116.125 13.7516 116.591 12.9158 117.08 12.1032C117.289 11.7317 117.499 11.3834 117.708 11.012C117.755 10.9423 117.778 10.8494 117.848 10.7333C117.755 10.7101 117.708 10.6869 117.639 10.6869C116.614 10.6869 115.613 10.6869 114.588 10.6869C114.146 10.6869 113.68 10.6869 113.238 10.7101C113.145 10.7101 113.028 10.7566 112.958 10.8262C112.376 11.4067 111.794 11.9871 111.212 12.5443C110.956 12.7997 110.7 13.0551 110.42 13.3105C110.094 12.9854 109.768 12.6836 109.442 12.3586C109.978 11.8246 110.513 11.2906 111.026 10.7798C110.909 10.6405 110.793 10.6637 110.676 10.6637C110.001 10.6637 109.326 10.6637 108.627 10.6637C108.627 10.2226 108.627 9.80465 108.627 9.3403C109.396 9.3403 110.141 9.3403 110.909 9.3403C111.026 9.22421 110.956 9.15456 110.839 9.06169C110.42 8.667 110.024 8.24908 109.628 7.85438C109.559 7.78473 109.512 7.7383 109.465 7.66864C109.791 7.3436 110.094 7.04177 110.42 6.71673C110.467 6.76316 110.537 6.8096 110.606 6.85603C111.375 7.62221 112.143 8.38839 112.912 9.17778C113.005 9.27065 113.075 9.31709 113.214 9.31709C114.681 9.31709 116.148 9.31709 117.639 9.31709C117.685 9.31709 117.732 9.29387 117.802 9.29387C117.778 9.201 117.755 9.10813 117.708 9.03848C117.01 7.80795 116.288 6.60064 115.59 5.37012C115.496 5.18438 115.357 5.11472 115.17 5.06829C114.146 4.8129 113.121 4.53429 112.097 4.25568C112.004 4.20925 111.934 4.18603 111.841 4.16281Z" fill="#0066E6"/>
<path d="M12.0382 35.7153C12.0382 35.6689 12.0382 35.6225 12.0382 35.576C12.1313 35.2045 12.2478 34.8098 12.3642 34.4151C13.1093 34.6009 13.8079 34.7866 14.5298 34.9724C14.553 34.9491 14.553 34.9259 14.5763 34.9027C14.2037 34.2294 13.8079 33.5793 13.412 32.8596C13.8079 32.6274 14.1805 32.4184 14.5996 32.1631C14.9489 32.7899 15.3215 33.3936 15.6707 34.0204C15.7173 34.1133 15.7639 34.183 15.9036 34.183C16.0899 33.4864 16.2762 32.7667 16.4857 32.047C16.9515 32.1631 17.3706 32.2791 17.7897 32.3952C17.6733 32.8131 17.5802 33.2311 17.4637 33.6258C17.2775 34.3455 17.0679 35.0885 16.8583 35.8082C16.8117 35.9475 16.835 36.0636 16.9049 36.1797C17.3939 37.0155 17.8829 37.8513 18.3719 38.6872C18.6047 39.1051 18.8609 39.523 19.0937 39.9409C19.117 39.9873 19.1636 40.0338 19.2567 40.1499C19.3033 40.057 19.3033 40.0106 19.3499 39.9409C19.769 39.2212 20.1649 38.5014 20.584 37.7817C20.8867 37.2477 21.2127 36.7137 21.5154 36.2029C21.6086 36.0636 21.6319 35.9243 21.562 35.7385C21.2593 34.6705 20.9799 33.5793 20.6772 32.5113C20.6772 32.4881 20.6772 32.4417 20.6539 32.3952C21.073 32.2791 21.4922 32.1631 21.9579 32.047C22.1442 32.7667 22.3537 33.4632 22.54 34.1598C22.6564 34.183 22.703 34.1365 22.7729 34.0437C23.1222 33.4168 23.4714 32.8131 23.844 32.1863C24.2399 32.4184 24.6357 32.6274 25.0316 32.8596C24.659 33.5561 24.2166 34.2294 23.8673 34.9259C23.8906 34.9491 23.9139 34.9724 23.9372 34.9956C24.6357 34.8098 25.3343 34.6241 26.0794 34.4151C26.1959 34.8563 26.3123 35.2742 26.4287 35.7153C26.0561 35.8082 25.7301 35.9243 25.3809 35.9939C24.5891 36.2029 23.7741 36.4118 22.9824 36.644C22.8893 36.6672 22.7729 36.7833 22.7263 36.8994C22.051 38.0371 21.399 39.1747 20.747 40.2892C20.6772 40.382 20.6073 40.4981 20.5607 40.591C20.5374 40.6606 20.5142 40.7535 20.4909 40.8464C20.7004 40.8464 20.8402 40.8464 21.0032 40.8464C22.3072 40.8464 23.6344 40.8464 24.9384 40.8464C25.148 40.8464 25.311 40.7767 25.4507 40.6374C26.1726 39.8945 26.8944 39.1747 27.6396 38.455C27.7094 38.3853 27.8026 38.3157 27.8724 38.246C28.1053 38.3621 28.5943 38.8265 28.8504 39.1979C28.3847 39.6623 27.919 40.1266 27.4533 40.591C27.3834 40.6606 27.2903 40.7071 27.3834 40.8696C28.1286 40.8696 28.897 40.8696 29.6654 40.8696C29.6654 41.3339 29.6654 41.7519 29.6654 42.2162C28.897 42.2162 28.1286 42.193 27.267 42.2162C27.3601 42.3555 27.4067 42.4484 27.4766 42.4948C27.8957 42.9127 28.3148 43.3306 28.734 43.7486C28.7806 43.795 28.8038 43.8414 28.8271 43.8647C28.5011 44.1897 28.1984 44.4915 27.8491 44.8166C27.5697 44.538 27.2437 44.2361 26.9643 43.9343C26.4287 43.4003 25.9164 42.8663 25.3576 42.3323C25.2644 42.2626 25.1247 42.193 25.0083 42.193C23.5879 42.193 22.1441 42.193 20.7237 42.193C20.6306 42.193 20.5607 42.2162 20.421 42.2394C20.584 42.518 20.7237 42.7966 20.8867 43.052C21.4456 44.0272 22.0044 44.9791 22.5633 45.9542C22.7263 46.2328 22.9126 46.4186 23.2619 46.5114C24.1933 46.7204 25.1247 46.999 26.0561 47.2312C26.1726 47.2544 26.2657 47.3008 26.4287 47.3705C26.3123 47.7884 26.1959 48.2063 26.0794 48.6474C25.3343 48.4849 24.6357 48.2527 23.9139 48.1134C23.8906 48.1367 23.8906 48.1599 23.8673 48.1831C24.2632 48.8564 24.6357 49.5065 25.0549 50.2262C24.6823 50.4584 24.3097 50.6674 23.9139 50.8995C23.8673 50.8299 23.7974 50.7835 23.7742 50.7138C23.4482 50.1566 23.1221 49.5994 22.8194 49.0189C22.7729 48.9261 22.703 48.8796 22.5866 48.9261C22.4003 49.6226 22.214 50.3191 22.0277 51.0156C21.5853 50.8995 21.1662 50.7835 20.7237 50.6674C20.7703 50.4352 20.8169 50.203 20.8867 49.9941C21.0963 49.1582 21.3292 48.3456 21.562 47.5098C21.5853 47.4401 21.5853 47.3705 21.6086 47.3241C21.6784 47.1615 21.6552 47.0454 21.562 46.9061C20.8634 45.6756 20.1416 44.4683 19.443 43.2378C19.3965 43.1449 19.3266 43.0753 19.2334 42.9592C18.9773 43.3771 18.7677 43.7486 18.5582 44.12C18.0226 45.0487 17.487 45.9774 16.9515 46.8829C16.8583 47.0222 16.8583 47.1615 16.9049 47.3473C17.2076 48.4153 17.487 49.5065 17.7897 50.5745C17.7897 50.5977 17.7897 50.6441 17.813 50.6906C17.3473 50.7835 16.9049 50.8995 16.4625 51.0156C16.2762 50.2959 16.0666 49.5994 15.8803 48.9028C15.7173 48.8796 15.694 48.9957 15.6475 49.0886C15.3215 49.6922 14.9722 50.2727 14.5996 50.8995C14.1805 50.6674 13.8079 50.4584 13.412 50.2262C13.8079 49.5297 14.2038 48.8564 14.6229 48.1367C14.5065 48.1367 14.4366 48.1134 14.3668 48.1367C13.8079 48.2992 13.249 48.4385 12.6902 48.601C12.597 48.6242 12.5272 48.6242 12.3875 48.6474C12.2711 48.2295 12.1546 47.8116 12.0382 47.3705C12.4806 47.2544 12.8997 47.1383 13.3189 47.0222C14.0175 46.8365 14.7393 46.6507 15.4379 46.465C15.6475 46.4186 15.7406 46.256 15.8105 46.0935C16.2762 45.2809 16.7419 44.4451 17.2309 43.6325C17.4404 43.261 17.65 42.9127 17.8596 42.5413C17.9062 42.4716 17.9295 42.3787 17.9993 42.2626C17.9062 42.2394 17.8596 42.2162 17.7897 42.2162C16.7652 42.2162 15.7639 42.2162 14.7393 42.2162C14.2969 42.2162 13.8312 42.2162 13.3888 42.2394C13.2956 42.2394 13.1792 42.2859 13.1093 42.3555C12.5272 42.936 11.945 43.5164 11.3629 44.0736C11.1068 44.329 10.8506 44.5844 10.5712 44.8398C10.2452 44.5147 9.91919 44.2129 9.59319 43.8879C10.1288 43.3539 10.6643 42.8199 11.1766 42.3091C11.0602 42.1698 10.9438 42.193 10.8273 42.193C10.152 42.193 9.47677 42.193 8.7782 42.193C8.7782 41.7519 8.7782 41.3339 8.7782 40.8696C9.54662 40.8696 10.2918 40.8696 11.0602 40.8696C11.1766 40.7535 11.1068 40.6839 10.9903 40.591C10.5712 40.1963 10.1753 39.7784 9.77948 39.3837C9.70962 39.314 9.66305 39.2676 9.61648 39.1979C9.94248 38.8729 10.2452 38.5711 10.5712 38.246C10.6178 38.2925 10.6876 38.3389 10.7575 38.3853C11.5259 39.1515 12.2943 39.9177 13.0628 40.7071C13.1559 40.7999 13.2258 40.8464 13.3655 40.8464C14.8325 40.8464 16.2995 40.8464 17.7897 40.8464C17.8363 40.8464 17.8829 40.8232 17.9527 40.8232C17.9295 40.7303 17.9062 40.6374 17.8596 40.5678C17.161 39.3372 16.4392 38.1299 15.7406 36.8994C15.6475 36.7137 15.5077 36.644 15.3215 36.5976C14.2969 36.3422 13.2723 36.0636 12.2478 35.785C12.1779 35.7618 12.108 35.7385 12.0382 35.7153Z" fill="#0066E6"/>
<path d="M1008.42 19.7115C1002.25 22.4511 1006.34 31.622 1012.52 28.8824C1018.69 26.1427 1014.59 16.9718 1008.42 19.7115Z" fill="#0895FF"/>
<path d="M905.564 24.5639C902.351 26.0034 904.493 30.763 907.707 29.3235C910.92 27.9073 908.778 23.1245 905.564 24.5639Z" fill="#0895FF"/>
<path d="M838.711 0.74289C835.498 2.18237 837.64 6.94195 840.854 5.50247C844.067 4.0862 841.925 -0.673375 838.711 0.74289Z" fill="#0895FF"/>
<path d="M725.59 29.6486C722.376 31.0881 724.518 35.8477 727.732 34.4314C730.945 32.992 728.803 28.2324 725.59 29.6486Z" fill="#0895FF"/>
<path d="M975.841 4.15573C975.841 4.10929 975.841 4.06286 975.841 4.01643C975.934 3.64495 976.05 3.25025 976.167 2.85555C976.912 3.04129 977.61 3.22703 978.332 3.41277C978.355 3.38955 978.355 3.36634 978.379 3.34312C978.006 2.66981 977.61 2.01972 977.214 1.29998C977.61 1.06781 977.983 0.858855 978.402 0.603463C978.751 1.23033 979.124 1.83398 979.473 2.46086C979.52 2.55373 979.566 2.62338 979.706 2.62338C979.892 1.92685 980.078 1.20711 980.288 0.487372C980.754 0.603459 981.173 0.719546 981.592 0.835633C981.476 1.25355 981.383 1.67146 981.266 2.06616C981.08 2.7859 980.87 3.52886 980.661 4.2486C980.614 4.38791 980.637 4.50399 980.707 4.62008C981.196 5.45591 981.685 6.29174 982.174 7.12757C982.407 7.54548 982.663 7.96339 982.896 8.38131C982.919 8.42774 982.966 8.47418 983.059 8.59026C983.106 8.49739 983.106 8.45096 983.152 8.40452C983.571 7.68478 983.967 6.96504 984.386 6.2453C984.689 5.7113 985.015 5.1773 985.318 4.66652C985.411 4.52721 985.434 4.38791 985.364 4.20217C985.062 3.13416 984.782 2.04295 984.479 0.974942C984.479 0.951724 984.479 0.905286 984.456 0.858852C984.875 0.742765 985.294 0.626678 985.76 0.510591C985.946 1.23033 986.156 1.92685 986.342 2.62338C986.459 2.6466 986.505 2.60016 986.575 2.50729C986.924 1.88042 987.274 1.27677 987.646 0.649894C988.042 0.88207 988.438 1.09103 988.834 1.3232C988.461 2.01973 988.019 2.69303 987.67 3.38955C987.693 3.41277 987.716 3.43599 987.739 3.45921C988.438 3.27347 989.137 3.08773 989.882 2.87877C989.998 3.3199 990.115 3.73782 990.231 4.17895C989.858 4.27182 989.532 4.38791 989.183 4.45756C988.391 4.66652 987.576 4.87547 986.785 5.10765C986.692 5.13086 986.575 5.24695 986.529 5.36304C985.853 6.50069 985.201 7.63835 984.549 8.75278C984.479 8.84565 984.433 8.96174 984.363 9.05461C984.34 9.12427 984.316 9.21714 984.293 9.31001C984.503 9.31001 984.642 9.31001 984.805 9.31001C986.109 9.31001 987.437 9.31001 988.741 9.31001C988.95 9.31001 989.113 9.24036 989.253 9.10105C989.975 8.35809 990.697 7.63835 991.442 6.91861C991.512 6.84896 991.605 6.7793 991.675 6.70965C991.908 6.82574 992.397 7.29009 992.653 7.66157C992.187 8.12592 991.721 8.59027 991.256 9.05461C991.186 9.12427 991.093 9.1707 991.186 9.33322C991.931 9.33322 992.699 9.33322 993.468 9.33322C993.468 9.79757 993.468 10.2155 993.468 10.6798C992.699 10.6798 991.931 10.6566 991.069 10.6798C991.162 10.8191 991.209 10.912 991.279 10.9584C991.698 11.3764 992.117 11.7943 992.536 12.2122C992.583 12.2586 992.606 12.3051 992.629 12.3283C992.303 12.6533 992.001 12.9551 991.651 13.2802C991.372 13.0016 991.046 12.6998 990.767 12.3979C990.231 11.8639 989.719 11.3299 989.16 10.7959C989.067 10.7263 988.927 10.6566 988.811 10.6566C987.39 10.6566 985.946 10.6566 984.526 10.6566C984.433 10.6566 984.363 10.6798 984.223 10.7031C984.386 10.9817 984.526 11.2603 984.689 11.5157C985.248 12.4908 985.807 13.4427 986.366 14.4178C986.529 14.6965 986.715 14.8822 987.064 14.9751C987.996 15.184 988.927 15.4626 989.858 15.6948C989.975 15.718 990.068 15.7645 990.231 15.8341C990.115 16.252 989.998 16.6699 989.882 17.1111C989.137 16.9485 988.438 16.7164 987.716 16.5538C987.693 16.5771 987.693 16.6003 987.67 16.6235C988.065 17.2968 988.438 17.9469 988.857 18.6666C988.485 18.8988 988.112 19.1078 987.716 19.3399C987.67 19.2703 987.6 19.2239 987.576 19.1542C987.25 18.597 986.924 18.0398 986.622 17.4593C986.575 17.3665 986.505 17.32 986.389 17.3665C986.203 18.063 986.016 18.7595 985.83 19.456C985.388 19.3399 984.968 19.2239 984.526 19.1078C984.573 18.8756 984.619 18.6434 984.689 18.4345C984.899 17.5986 985.131 16.786 985.364 15.9502C985.388 15.8805 985.388 15.8109 985.411 15.7645C985.481 15.6019 985.457 15.4858 985.364 15.3465C984.666 14.116 983.944 12.9087 983.245 11.6782C983.199 11.5853 983.129 11.5157 983.036 11.3996C982.78 11.8175 982.57 12.189 982.36 12.5604C981.825 13.4891 981.289 14.4178 980.754 15.3233C980.661 15.4626 980.661 15.6019 980.707 15.7877C981.01 16.8557 981.289 17.9469 981.592 19.0149C981.592 19.0381 981.592 19.0846 981.615 19.131C981.196 19.2471 980.777 19.3632 980.311 19.4792C980.125 18.7595 979.915 18.063 979.729 17.3665C979.566 17.3432 979.543 17.4593 979.496 17.5522C979.17 18.1559 978.821 18.7363 978.448 19.3632C978.029 19.131 977.657 18.922 977.261 18.6899C977.657 17.9933 978.053 17.32 978.472 16.6003C978.355 16.6003 978.285 16.5771 978.216 16.6003C977.657 16.7628 977.098 16.9021 976.539 17.0646C976.446 17.0879 976.376 17.0878 976.236 17.1111C976.12 16.6932 976.004 16.2752 975.887 15.8341C976.329 15.718 976.749 15.6019 977.168 15.4858C977.866 15.3001 978.588 15.1144 979.287 14.9286C979.496 14.8822 979.589 14.7197 979.659 14.5571C980.125 13.7445 980.591 12.9087 981.08 12.0961C981.289 11.7246 981.499 11.3764 981.708 11.0049C981.755 10.9352 981.778 10.8424 981.848 10.7263C981.755 10.7031 981.708 10.6798 981.639 10.6798C980.614 10.6798 979.613 10.6798 978.588 10.6798C978.146 10.6798 977.68 10.6798 977.238 10.7031C977.145 10.7031 977.028 10.7495 976.958 10.8191C976.376 11.3996 975.794 11.98 975.212 12.5372C974.956 12.7926 974.7 13.048 974.42 13.3034C974.094 12.9784 973.768 12.6765 973.442 12.3515C973.978 11.8175 974.513 11.2835 975.026 10.7727C974.909 10.6334 974.793 10.6566 974.676 10.6566C974.001 10.6566 973.326 10.6566 972.627 10.6566C972.627 10.2155 972.627 9.79757 972.627 9.33322C973.396 9.33322 974.141 9.33322 974.909 9.33322C975.026 9.21713 974.956 9.14748 974.839 9.05461C974.42 8.65992 974.024 8.242 973.628 7.8473C973.559 7.77765 973.512 7.73122 973.465 7.66156C973.791 7.33652 974.094 7.03469 974.42 6.70965C974.467 6.75608 974.537 6.80252 974.606 6.84895C975.375 7.61513 976.143 8.38131 976.912 9.1707C977.005 9.26357 977.075 9.31001 977.214 9.31001C978.681 9.31001 980.148 9.31001 981.639 9.31001C981.685 9.31001 981.732 9.28679 981.802 9.28679C981.778 9.19392 981.755 9.10105 981.708 9.0314C981.01 7.80087 980.288 6.59356 979.59 5.36304C979.496 5.1773 979.357 5.10764 979.17 5.06121C978.146 4.80582 977.121 4.52721 976.097 4.2486C976.004 4.20217 975.934 4.17895 975.841 4.15573Z" fill="#0066E6"/>
<path d="M876.038 35.7082C876.038 35.6618 876.038 35.6154 876.038 35.5689C876.131 35.1975 876.248 34.8028 876.364 34.4081C877.109 34.5938 877.808 34.7795 878.53 34.9653C878.553 34.9421 878.553 34.9189 878.576 34.8956C878.204 34.2223 877.808 33.5722 877.412 32.8525C877.808 32.6203 878.18 32.4114 878.6 32.156C878.949 32.7828 879.321 33.3865 879.671 34.0134C879.717 34.1062 879.764 34.1759 879.904 34.1759C880.09 33.4794 880.276 32.7596 880.486 32.0399C880.951 32.156 881.371 32.2721 881.79 32.3881C881.673 32.8061 881.58 33.224 881.464 33.6187C881.277 34.3384 881.068 35.0814 880.858 35.8011C880.812 35.9404 880.835 36.0565 880.905 36.1726C881.394 37.0084 881.883 37.8442 882.372 38.6801C882.605 39.098 882.861 39.5159 883.094 39.9338C883.117 39.9803 883.164 40.0267 883.257 40.1428C883.303 40.0499 883.303 40.0035 883.35 39.9338C883.769 39.2141 884.165 38.4943 884.584 37.7746C884.887 37.2406 885.213 36.7066 885.515 36.1958C885.609 36.0565 885.632 35.9172 885.562 35.7315C885.259 34.6635 884.98 33.5722 884.677 32.5042C884.677 32.481 884.677 32.4346 884.654 32.3881C885.073 32.2721 885.492 32.156 885.958 32.0399C886.144 32.7596 886.354 33.4562 886.54 34.1527C886.656 34.1759 886.703 34.1295 886.773 34.0366C887.122 33.4097 887.471 32.8061 887.844 32.1792C888.24 32.4114 888.636 32.6203 889.032 32.8525C888.659 33.549 888.217 34.2223 887.867 34.9189C887.891 34.9421 887.914 34.9653 887.937 34.9885C888.636 34.8028 889.334 34.617 890.079 34.4081C890.196 34.8492 890.312 35.2671 890.429 35.7082C890.056 35.8011 889.73 35.9172 889.381 35.9869C888.589 36.1958 887.774 36.4048 886.982 36.6369C886.889 36.6602 886.773 36.7762 886.726 36.8923C886.051 38.03 885.399 39.1676 884.747 40.2821C884.677 40.375 884.607 40.491 884.561 40.5839C884.537 40.6536 884.514 40.7464 884.491 40.8393C884.7 40.8393 884.84 40.8393 885.003 40.8393C886.307 40.8393 887.634 40.8393 888.938 40.8393C889.148 40.8393 889.311 40.7697 889.451 40.6303C890.173 39.8874 890.894 39.1676 891.64 38.4479C891.709 38.3783 891.803 38.3086 891.872 38.2389C892.105 38.355 892.594 38.8194 892.85 39.1909C892.385 39.6552 891.919 40.1196 891.453 40.5839C891.383 40.6536 891.29 40.7 891.383 40.8625C892.129 40.8625 892.897 40.8625 893.665 40.8625C893.665 41.3269 893.665 41.7448 893.665 42.2091C892.897 42.2091 892.129 42.1859 891.267 42.2091C891.36 42.3484 891.407 42.4413 891.477 42.4877C891.896 42.9057 892.315 43.3236 892.734 43.7415C892.781 43.7879 892.804 43.8344 892.827 43.8576C892.501 44.1826 892.198 44.4844 891.849 44.8095C891.57 44.5309 891.244 44.229 890.964 43.9272C890.429 43.3932 889.916 42.8592 889.358 42.3252C889.264 42.2556 889.125 42.1859 889.008 42.1859C887.588 42.1859 886.144 42.1859 884.724 42.1859C884.631 42.1859 884.561 42.2091 884.421 42.2323C884.584 42.511 884.724 42.7896 884.887 43.045C885.446 44.0201 886.004 44.972 886.563 45.9471C886.726 46.2258 886.913 46.4115 887.262 46.5044C888.193 46.7133 889.125 46.9919 890.056 47.2241C890.173 47.2473 890.266 47.2938 890.429 47.3634C890.312 47.7813 890.196 48.1992 890.079 48.6404C889.334 48.4778 888.636 48.2457 887.914 48.1064C887.891 48.1296 887.891 48.1528 887.867 48.176C888.263 48.8493 888.636 49.4994 889.055 50.2192C888.682 50.4513 888.31 50.6603 887.914 50.8925C887.867 50.8228 887.797 50.7764 887.774 50.7067C887.448 50.1495 887.122 49.5923 886.819 49.0118C886.773 48.919 886.703 48.8725 886.587 48.919C886.4 49.6155 886.214 50.312 886.028 51.0085C885.585 50.8925 885.166 50.7764 884.724 50.6603C884.77 50.4281 884.817 50.1959 884.887 49.987C885.096 49.1511 885.329 48.3385 885.562 47.5027C885.585 47.4331 885.585 47.3634 885.609 47.317C885.678 47.1544 885.655 47.0384 885.562 46.8991C884.863 45.6685 884.142 44.4612 883.443 43.2307C883.396 43.1378 883.327 43.0682 883.233 42.9521C882.977 43.37 882.768 43.7415 882.558 44.113C882.023 45.0417 881.487 45.9704 880.951 46.8758C880.858 47.0151 880.858 47.1544 880.905 47.3402C881.208 48.4082 881.487 49.4994 881.79 50.5674C881.79 50.5906 881.79 50.6371 881.813 50.6835C881.347 50.7764 880.905 50.8925 880.462 51.0085C880.276 50.2888 880.067 49.5923 879.88 48.8958C879.717 48.8725 879.694 48.9886 879.647 49.0815C879.321 49.6852 878.972 50.2656 878.6 50.8925C878.18 50.6603 877.808 50.4513 877.412 50.2192C877.808 49.5226 878.204 48.8493 878.623 48.1296C878.506 48.1296 878.437 48.1064 878.367 48.1296C877.808 48.2921 877.249 48.4314 876.69 48.5939C876.597 48.6171 876.527 48.6171 876.387 48.6404C876.271 48.2225 876.155 47.8045 876.038 47.3634C876.481 47.2473 876.9 47.1312 877.319 47.0151C878.017 46.8294 878.739 46.6437 879.438 46.4579C879.647 46.4115 879.741 46.249 879.81 46.0864C880.276 45.2738 880.742 44.438 881.231 43.6254C881.44 43.2539 881.65 42.9057 881.86 42.5342C881.906 42.4645 881.929 42.3717 881.999 42.2556C881.906 42.2323 881.86 42.2091 881.79 42.2091C880.765 42.2091 879.764 42.2091 878.739 42.2091C878.297 42.2091 877.831 42.2091 877.389 42.2323C877.296 42.2323 877.179 42.2788 877.109 42.3484C876.527 42.9289 875.945 43.5093 875.363 44.0665C875.107 44.3219 874.851 44.5773 874.571 44.8327C874.245 44.5077 873.919 44.2058 873.593 43.8808C874.129 43.3468 874.664 42.8128 875.177 42.302C875.06 42.1627 874.944 42.1859 874.827 42.1859C874.152 42.1859 873.477 42.1859 872.778 42.1859C872.778 41.7448 872.778 41.3269 872.778 40.8625C873.547 40.8625 874.292 40.8625 875.06 40.8625C875.177 40.7464 875.107 40.6768 874.99 40.5839C874.571 40.1892 874.175 39.7713 873.779 39.3766C873.71 39.3069 873.663 39.2605 873.616 39.1909C873.942 38.8658 874.245 38.564 874.571 38.2389C874.618 38.2854 874.688 38.3318 874.757 38.3783C875.526 39.1444 876.294 39.9106 877.063 40.7C877.156 40.7929 877.226 40.8393 877.365 40.8393C878.832 40.8393 880.299 40.8393 881.79 40.8393C881.836 40.8393 881.883 40.8161 881.953 40.8161C881.929 40.7232 881.906 40.6303 881.86 40.5607C881.161 39.3302 880.439 38.1229 879.741 36.8923C879.647 36.7066 879.508 36.6369 879.321 36.5905C878.297 36.3351 877.272 36.0565 876.248 35.7779C876.178 35.7547 876.108 35.7315 876.038 35.7082Z" fill="#0066E6"/>
<path d="M762.614 9.24045C762.614 9.19401 762.614 9.14758 762.614 9.10114C762.707 8.72966 762.823 8.33497 762.94 7.94027C763.685 8.12601 764.383 8.31175 765.105 8.49749C765.129 8.47427 765.129 8.45105 765.152 8.42784C764.779 7.75453 764.383 7.10444 763.988 6.3847C764.383 6.15253 764.756 5.94357 765.175 5.68818C765.524 6.31505 765.897 6.9187 766.246 7.54557C766.293 7.63844 766.339 7.7081 766.479 7.7081C766.665 7.01157 766.852 6.29183 767.061 5.57209C767.527 5.68818 767.946 5.80426 768.365 5.92035C768.249 6.33827 768.156 6.75618 768.039 7.15088C767.853 7.87062 767.643 8.61357 767.434 9.33331C767.387 9.47262 767.411 9.58871 767.48 9.70479C767.969 10.5406 768.458 11.3765 768.947 12.2123C769.18 12.6302 769.436 13.0481 769.669 13.466C769.693 13.5125 769.739 13.5589 769.832 13.675C769.879 13.5821 769.879 13.5357 769.925 13.4892C770.345 12.7695 770.74 12.0498 771.16 11.33C771.462 10.796 771.788 10.262 772.091 9.75123C772.184 9.61193 772.207 9.47262 772.138 9.28688C771.835 8.21888 771.555 7.12766 771.253 6.05966C771.253 6.03644 771.253 5.99 771.229 5.94357C771.649 5.82748 772.068 5.71139 772.533 5.59531C772.72 6.31505 772.929 7.01157 773.116 7.7081C773.232 7.73131 773.279 7.68488 773.348 7.59201C773.698 6.96514 774.047 6.36148 774.42 5.73461C774.815 5.96679 775.211 6.17575 775.607 6.40792C775.235 7.10444 774.792 7.77775 774.443 8.47427C774.466 8.49749 774.489 8.5207 774.513 8.54392C775.211 8.35818 775.91 8.17244 776.655 7.96349C776.771 8.40462 776.888 8.82253 777.004 9.26367C776.632 9.35654 776.306 9.47262 775.956 9.54227C775.165 9.75123 774.35 9.96019 773.558 10.1924C773.465 10.2156 773.348 10.3317 773.302 10.4478C772.627 11.5854 771.975 12.7231 771.323 13.8375C771.253 13.9304 771.206 14.0465 771.136 14.1393C771.113 14.209 771.09 14.3019 771.066 14.3947C771.276 14.3947 771.416 14.3947 771.579 14.3947C772.883 14.3947 774.21 14.3947 775.514 14.3947C775.724 14.3947 775.887 14.3251 776.026 14.1858C776.748 13.4428 777.47 12.7231 778.215 12.0033C778.285 11.9337 778.378 11.864 778.448 11.7944C778.681 11.9105 779.17 12.3748 779.426 12.7463C778.96 13.2106 778.495 13.675 778.029 14.1393C777.959 14.209 777.866 14.2554 777.959 14.4179C778.704 14.4179 779.473 14.4179 780.241 14.4179C780.241 14.8823 780.241 15.3002 780.241 15.7646C779.473 15.7646 778.704 15.7413 777.843 15.7646C777.936 15.9039 777.982 15.9967 778.052 16.0432C778.471 16.4611 778.89 16.879 779.31 17.2969C779.356 17.3433 779.379 17.3898 779.403 17.413C779.077 17.738 778.774 18.0399 778.425 18.3649C778.145 18.0863 777.819 17.7845 777.54 17.4826C777.004 16.9486 776.492 16.4146 775.933 15.8806C775.84 15.811 775.7 15.7413 775.584 15.7413C774.163 15.7413 772.72 15.7413 771.299 15.7413C771.206 15.7413 771.136 15.7646 770.997 15.7878C771.16 16.0664 771.299 16.345 771.462 16.6004C772.021 17.5755 772.58 18.5274 773.139 19.5026C773.302 19.7812 773.488 19.9669 773.837 20.0598C774.769 20.2687 775.7 20.5473 776.632 20.7795C776.748 20.8027 776.841 20.8492 777.004 20.9188C776.888 21.3367 776.771 21.7547 776.655 22.1958C775.91 22.0333 775.211 21.8011 774.489 21.6386C774.466 21.6618 774.466 21.685 774.443 21.7082C774.839 22.3815 775.211 23.0316 775.63 23.7514C775.258 23.9835 774.885 24.1925 774.489 24.4247C774.443 24.355 774.373 24.3086 774.35 24.2389C774.024 23.6817 773.698 23.1245 773.395 22.544C773.348 22.4512 773.279 22.4047 773.162 22.4512C772.976 23.1477 772.79 23.8442 772.603 24.5408C772.161 24.4247 771.742 24.3086 771.299 24.1925C771.346 23.9603 771.392 23.7281 771.462 23.5192C771.672 22.6834 771.905 21.8707 772.138 21.0349C772.161 20.9653 772.161 20.8956 772.184 20.8492C772.254 20.6867 772.231 20.5706 772.138 20.4313C771.439 19.2007 770.717 17.9934 770.019 16.7629C769.972 16.67 769.902 16.6004 769.809 16.4843C769.553 16.9022 769.343 17.2737 769.134 17.6452C768.598 18.5739 768.063 19.5026 767.527 20.408C767.434 20.5473 767.434 20.6867 767.48 20.8724C767.783 21.9404 768.063 23.0316 768.365 24.0996C768.365 24.1228 768.365 24.1693 768.389 24.2157C767.969 24.3318 767.55 24.4479 767.085 24.564C766.898 23.8442 766.689 23.1477 766.502 22.4512C766.339 22.428 766.316 22.544 766.27 22.6369C765.944 23.2406 765.594 23.821 765.222 24.4479C764.803 24.2157 764.43 24.0067 764.034 23.7746C764.43 23.0781 764.826 22.4047 765.245 21.685C765.129 21.685 765.059 21.6618 764.989 21.685C764.43 21.8475 763.871 21.9868 763.312 22.1494C763.219 22.1726 763.149 22.1726 763.01 22.1958C762.893 21.7779 762.777 21.36 762.66 20.9188C763.103 20.8027 763.522 20.6867 763.941 20.5706C764.64 20.3848 765.361 20.1991 766.06 20.0133C766.27 19.9669 766.363 19.8044 766.433 19.6419C766.898 18.8293 767.364 17.9934 767.853 17.1808C768.063 16.8093 768.272 16.4611 768.482 16.0896C768.528 16.0199 768.552 15.9271 768.621 15.811C768.528 15.7878 768.482 15.7646 768.412 15.7646C767.387 15.7646 766.386 15.7646 765.361 15.7646C764.919 15.7646 764.453 15.7646 764.011 15.7878C763.918 15.7878 763.801 15.8342 763.731 15.9039C763.149 16.4843 762.567 17.0647 761.985 17.6219C761.729 17.8773 761.473 18.1327 761.193 18.3881C760.867 18.0631 760.541 17.7613 760.215 17.4362C760.751 16.9022 761.286 16.3682 761.799 15.8574C761.682 15.7181 761.566 15.7413 761.449 15.7413C760.774 15.7413 760.099 15.7413 759.4 15.7413C759.4 15.3002 759.4 14.8823 759.4 14.4179C760.169 14.4179 760.914 14.4179 761.682 14.4179C761.799 14.3019 761.729 14.2322 761.612 14.1393C761.193 13.7446 760.797 13.3267 760.402 12.932C760.332 12.8624 760.285 12.8159 760.239 12.7463C760.565 12.4212 760.867 12.1194 761.193 11.7944C761.24 11.8408 761.31 11.8872 761.38 11.9337C762.148 12.6998 762.916 13.466 763.685 14.2554C763.778 14.3483 763.848 14.3947 763.988 14.3947C765.455 14.3947 766.922 14.3947 768.412 14.3947C768.458 14.3947 768.505 14.3715 768.575 14.3715C768.552 14.2786 768.528 14.1858 768.482 14.1161C767.783 12.8856 767.061 11.6783 766.363 10.4478C766.27 10.262 766.13 10.1924 765.944 10.1459C764.919 9.89053 763.894 9.61192 762.87 9.33331C762.753 9.28688 762.684 9.26366 762.614 9.24045Z" fill="#0066E6"/>
<path d="M616.564 24.5639C613.351 26.0034 615.493 30.763 618.707 29.3235C621.92 27.9073 619.778 23.1245 616.564 24.5639Z" fill="#0895FF"/>
<path d="M549.711 0.74289C546.498 2.18237 548.64 6.94195 551.854 5.50247C555.067 4.0862 552.925 -0.673375 549.711 0.74289Z" fill="#0895FF"/>
<path d="M686.841 4.15573C686.841 4.10929 686.841 4.06286 686.841 4.01643C686.934 3.64495 687.05 3.25025 687.167 2.85555C687.912 3.04129 688.61 3.22703 689.332 3.41277C689.355 3.38955 689.355 3.36634 689.379 3.34312C689.006 2.66981 688.61 2.01972 688.214 1.29998C688.61 1.06781 688.983 0.858855 689.402 0.603463C689.751 1.23033 690.124 1.83398 690.473 2.46086C690.52 2.55373 690.566 2.62338 690.706 2.62338C690.892 1.92685 691.078 1.20711 691.288 0.487372C691.754 0.603459 692.173 0.719546 692.592 0.835633C692.476 1.25355 692.383 1.67146 692.266 2.06616C692.08 2.7859 691.87 3.52886 691.661 4.2486C691.614 4.38791 691.637 4.50399 691.707 4.62008C692.196 5.45591 692.685 6.29174 693.174 7.12757C693.407 7.54548 693.663 7.96339 693.896 8.38131C693.919 8.42774 693.966 8.47418 694.059 8.59026C694.106 8.49739 694.106 8.45096 694.152 8.40452C694.571 7.68478 694.967 6.96504 695.386 6.2453C695.689 5.7113 696.015 5.1773 696.318 4.66652C696.411 4.52721 696.434 4.38791 696.364 4.20217C696.062 3.13416 695.782 2.04295 695.479 0.974942C695.479 0.951724 695.479 0.905286 695.456 0.858852C695.875 0.742765 696.294 0.626678 696.76 0.510591C696.946 1.23033 697.156 1.92685 697.342 2.62338C697.459 2.6466 697.505 2.60016 697.575 2.50729C697.924 1.88042 698.274 1.27677 698.646 0.649894C699.042 0.88207 699.438 1.09103 699.834 1.3232C699.461 2.01973 699.019 2.69303 698.67 3.38955C698.693 3.41277 698.716 3.43599 698.739 3.45921C699.438 3.27347 700.137 3.08773 700.882 2.87877C700.998 3.3199 701.115 3.73782 701.231 4.17895C700.858 4.27182 700.532 4.38791 700.183 4.45756C699.391 4.66652 698.576 4.87547 697.785 5.10765C697.692 5.13086 697.575 5.24695 697.529 5.36304C696.853 6.50069 696.201 7.63835 695.549 8.75278C695.479 8.84565 695.433 8.96174 695.363 9.05461C695.34 9.12427 695.316 9.21714 695.293 9.31001C695.503 9.31001 695.642 9.31001 695.805 9.31001C697.109 9.31001 698.437 9.31001 699.741 9.31001C699.95 9.31001 700.113 9.24036 700.253 9.10105C700.975 8.35809 701.697 7.63835 702.442 6.91861C702.512 6.84896 702.605 6.7793 702.675 6.70965C702.908 6.82574 703.397 7.29009 703.653 7.66157C703.187 8.12592 702.721 8.59027 702.256 9.05461C702.186 9.12427 702.093 9.1707 702.186 9.33322C702.931 9.33322 703.699 9.33322 704.468 9.33322C704.468 9.79757 704.468 10.2155 704.468 10.6798C703.699 10.6798 702.931 10.6566 702.069 10.6798C702.162 10.8191 702.209 10.912 702.279 10.9584C702.698 11.3764 703.117 11.7943 703.536 12.2122C703.583 12.2586 703.606 12.3051 703.629 12.3283C703.303 12.6533 703.001 12.9551 702.651 13.2802C702.372 13.0016 702.046 12.6998 701.767 12.3979C701.231 11.8639 700.719 11.3299 700.16 10.7959C700.067 10.7263 699.927 10.6566 699.811 10.6566C698.39 10.6566 696.946 10.6566 695.526 10.6566C695.433 10.6566 695.363 10.6798 695.223 10.7031C695.386 10.9817 695.526 11.2603 695.689 11.5157C696.248 12.4908 696.807 13.4427 697.366 14.4178C697.529 14.6965 697.715 14.8822 698.064 14.9751C698.996 15.184 699.927 15.4626 700.858 15.6948C700.975 15.718 701.068 15.7645 701.231 15.8341C701.115 16.252 700.998 16.6699 700.882 17.1111C700.137 16.9485 699.438 16.7164 698.716 16.5538C698.693 16.5771 698.693 16.6003 698.67 16.6235C699.065 17.2968 699.438 17.9469 699.857 18.6666C699.485 18.8988 699.112 19.1078 698.716 19.3399C698.67 19.2703 698.6 19.2239 698.576 19.1542C698.25 18.597 697.924 18.0398 697.622 17.4593C697.575 17.3665 697.505 17.32 697.389 17.3665C697.203 18.063 697.016 18.7595 696.83 19.456C696.388 19.3399 695.968 19.2239 695.526 19.1078C695.573 18.8756 695.619 18.6434 695.689 18.4345C695.899 17.5986 696.131 16.786 696.364 15.9502C696.388 15.8805 696.388 15.8109 696.411 15.7645C696.481 15.6019 696.457 15.4858 696.364 15.3465C695.666 14.116 694.944 12.9087 694.245 11.6782C694.199 11.5853 694.129 11.5157 694.036 11.3996C693.78 11.8175 693.57 12.189 693.36 12.5604C692.825 13.4891 692.289 14.4178 691.754 15.3233C691.661 15.4626 691.661 15.6019 691.707 15.7877C692.01 16.8557 692.289 17.9469 692.592 19.0149C692.592 19.0381 692.592 19.0846 692.615 19.131C692.196 19.2471 691.777 19.3632 691.311 19.4792C691.125 18.7595 690.915 18.063 690.729 17.3665C690.566 17.3432 690.543 17.4593 690.496 17.5522C690.17 18.1559 689.821 18.7363 689.448 19.3632C689.029 19.131 688.657 18.922 688.261 18.6899C688.657 17.9933 689.053 17.32 689.472 16.6003C689.355 16.6003 689.285 16.5771 689.216 16.6003C688.657 16.7628 688.098 16.9021 687.539 17.0646C687.446 17.0879 687.376 17.0878 687.236 17.1111C687.12 16.6932 687.004 16.2752 686.887 15.8341C687.329 15.718 687.749 15.6019 688.168 15.4858C688.866 15.3001 689.588 15.1144 690.287 14.9286C690.496 14.8822 690.589 14.7197 690.659 14.5571C691.125 13.7445 691.591 12.9087 692.08 12.0961C692.289 11.7246 692.499 11.3764 692.708 11.0049C692.755 10.9352 692.778 10.8424 692.848 10.7263C692.755 10.7031 692.708 10.6798 692.639 10.6798C691.614 10.6798 690.613 10.6798 689.588 10.6798C689.146 10.6798 688.68 10.6798 688.238 10.7031C688.145 10.7031 688.028 10.7495 687.958 10.8191C687.376 11.3996 686.794 11.98 686.212 12.5372C685.956 12.7926 685.7 13.048 685.42 13.3034C685.094 12.9784 684.768 12.6765 684.442 12.3515C684.978 11.8175 685.513 11.2835 686.026 10.7727C685.909 10.6334 685.793 10.6566 685.676 10.6566C685.001 10.6566 684.326 10.6566 683.627 10.6566C683.627 10.2155 683.627 9.79757 683.627 9.33322C684.396 9.33322 685.141 9.33322 685.909 9.33322C686.026 9.21713 685.956 9.14748 685.839 9.05461C685.42 8.65992 685.024 8.242 684.628 7.8473C684.559 7.77765 684.512 7.73122 684.465 7.66156C684.791 7.33652 685.094 7.03469 685.42 6.70965C685.467 6.75608 685.537 6.80252 685.606 6.84895C686.375 7.61513 687.143 8.38131 687.912 9.1707C688.005 9.26357 688.075 9.31001 688.214 9.31001C689.681 9.31001 691.148 9.31001 692.639 9.31001C692.685 9.31001 692.732 9.28679 692.802 9.28679C692.778 9.19392 692.755 9.10105 692.708 9.0314C692.01 7.80087 691.288 6.59356 690.59 5.36304C690.496 5.1773 690.357 5.10764 690.17 5.06121C689.146 4.80582 688.121 4.52721 687.097 4.2486C687.004 4.20217 686.934 4.17895 686.841 4.15573Z" fill="#0066E6"/>
<path d="M587.038 35.7082C587.038 35.6618 587.038 35.6154 587.038 35.5689C587.131 35.1975 587.248 34.8028 587.364 34.4081C588.109 34.5938 588.808 34.7795 589.53 34.9653C589.553 34.9421 589.553 34.9189 589.576 34.8956C589.204 34.2223 588.808 33.5722 588.412 32.8525C588.808 32.6203 589.18 32.4114 589.6 32.156C589.949 32.7828 590.321 33.3865 590.671 34.0134C590.717 34.1062 590.764 34.1759 590.904 34.1759C591.09 33.4794 591.276 32.7596 591.486 32.0399C591.951 32.156 592.371 32.2721 592.79 32.3881C592.673 32.8061 592.58 33.224 592.464 33.6187C592.277 34.3384 592.068 35.0814 591.858 35.8011C591.812 35.9404 591.835 36.0565 591.905 36.1726C592.394 37.0084 592.883 37.8442 593.372 38.6801C593.605 39.098 593.861 39.5159 594.094 39.9338C594.117 39.9803 594.164 40.0267 594.257 40.1428C594.303 40.0499 594.303 40.0035 594.35 39.9338C594.769 39.2141 595.165 38.4943 595.584 37.7746C595.887 37.2406 596.213 36.7066 596.515 36.1958C596.609 36.0565 596.632 35.9172 596.562 35.7315C596.259 34.6635 595.98 33.5722 595.677 32.5042C595.677 32.481 595.677 32.4346 595.654 32.3881C596.073 32.2721 596.492 32.156 596.958 32.0399C597.144 32.7596 597.354 33.4562 597.54 34.1527C597.656 34.1759 597.703 34.1295 597.773 34.0366C598.122 33.4097 598.471 32.8061 598.844 32.1792C599.24 32.4114 599.636 32.6203 600.032 32.8525C599.659 33.549 599.217 34.2223 598.867 34.9189C598.891 34.9421 598.914 34.9653 598.937 34.9885C599.636 34.8028 600.334 34.617 601.079 34.4081C601.196 34.8492 601.312 35.2671 601.429 35.7082C601.056 35.8011 600.73 35.9172 600.381 35.9869C599.589 36.1958 598.774 36.4048 597.982 36.6369C597.889 36.6602 597.773 36.7762 597.726 36.8923C597.051 38.03 596.399 39.1676 595.747 40.2821C595.677 40.375 595.607 40.491 595.561 40.5839C595.537 40.6536 595.514 40.7464 595.491 40.8393C595.7 40.8393 595.84 40.8393 596.003 40.8393C597.307 40.8393 598.634 40.8393 599.938 40.8393C600.148 40.8393 600.311 40.7697 600.451 40.6303C601.173 39.8874 601.894 39.1676 602.64 38.4479C602.709 38.3783 602.803 38.3086 602.872 38.2389C603.105 38.355 603.594 38.8194 603.85 39.1909C603.385 39.6552 602.919 40.1196 602.453 40.5839C602.383 40.6536 602.29 40.7 602.383 40.8625C603.129 40.8625 603.897 40.8625 604.665 40.8625C604.665 41.3269 604.665 41.7448 604.665 42.2091C603.897 42.2091 603.129 42.1859 602.267 42.2091C602.36 42.3484 602.407 42.4413 602.477 42.4877C602.896 42.9057 603.315 43.3236 603.734 43.7415C603.781 43.7879 603.804 43.8344 603.827 43.8576C603.501 44.1826 603.198 44.4844 602.849 44.8095C602.57 44.5309 602.244 44.229 601.964 43.9272C601.429 43.3932 600.916 42.8592 600.358 42.3252C600.264 42.2556 600.125 42.1859 600.008 42.1859C598.588 42.1859 597.144 42.1859 595.724 42.1859C595.631 42.1859 595.561 42.2091 595.421 42.2323C595.584 42.511 595.724 42.7896 595.887 43.045C596.446 44.0201 597.004 44.972 597.563 45.9471C597.726 46.2258 597.913 46.4115 598.262 46.5044C599.193 46.7133 600.125 46.9919 601.056 47.2241C601.173 47.2473 601.266 47.2938 601.429 47.3634C601.312 47.7813 601.196 48.1992 601.079 48.6404C600.334 48.4778 599.636 48.2457 598.914 48.1064C598.891 48.1296 598.891 48.1528 598.867 48.176C599.263 48.8493 599.636 49.4994 600.055 50.2192C599.682 50.4513 599.31 50.6603 598.914 50.8925C598.867 50.8228 598.797 50.7764 598.774 50.7067C598.448 50.1495 598.122 49.5923 597.819 49.0118C597.773 48.919 597.703 48.8725 597.587 48.919C597.4 49.6155 597.214 50.312 597.028 51.0085C596.585 50.8925 596.166 50.7764 595.724 50.6603C595.77 50.4281 595.817 50.1959 595.887 49.987C596.096 49.1511 596.329 48.3385 596.562 47.5027C596.585 47.4331 596.585 47.3634 596.609 47.317C596.678 47.1544 596.655 47.0384 596.562 46.8991C595.863 45.6685 595.142 44.4612 594.443 43.2307C594.396 43.1378 594.327 43.0682 594.233 42.9521C593.977 43.37 593.768 43.7415 593.558 44.113C593.023 45.0417 592.487 45.9704 591.951 46.8758C591.858 47.0151 591.858 47.1544 591.905 47.3402C592.208 48.4082 592.487 49.4994 592.79 50.5674C592.79 50.5906 592.79 50.6371 592.813 50.6835C592.347 50.7764 591.905 50.8925 591.462 51.0085C591.276 50.2888 591.067 49.5923 590.88 48.8958C590.717 48.8725 590.694 48.9886 590.647 49.0815C590.321 49.6852 589.972 50.2656 589.6 50.8925C589.18 50.6603 588.808 50.4513 588.412 50.2192C588.808 49.5226 589.204 48.8493 589.623 48.1296C589.506 48.1296 589.437 48.1064 589.367 48.1296C588.808 48.2921 588.249 48.4314 587.69 48.5939C587.597 48.6171 587.527 48.6171 587.387 48.6404C587.271 48.2225 587.155 47.8045 587.038 47.3634C587.481 47.2473 587.9 47.1312 588.319 47.0151C589.017 46.8294 589.739 46.6437 590.438 46.4579C590.647 46.4115 590.741 46.249 590.81 46.0864C591.276 45.2738 591.742 44.438 592.231 43.6254C592.44 43.2539 592.65 42.9057 592.86 42.5342C592.906 42.4645 592.929 42.3717 592.999 42.2556C592.906 42.2323 592.86 42.2091 592.79 42.2091C591.765 42.2091 590.764 42.2091 589.739 42.2091C589.297 42.2091 588.831 42.2091 588.389 42.2323C588.296 42.2323 588.179 42.2788 588.109 42.3484C587.527 42.9289 586.945 43.5093 586.363 44.0665C586.107 44.3219 585.851 44.5773 585.571 44.8327C585.245 44.5077 584.919 44.2058 584.593 43.8808C585.129 43.3468 585.664 42.8128 586.177 42.302C586.06 42.1627 585.944 42.1859 585.827 42.1859C585.152 42.1859 584.477 42.1859 583.778 42.1859C583.778 41.7448 583.778 41.3269 583.778 40.8625C584.547 40.8625 585.292 40.8625 586.06 40.8625C586.177 40.7464 586.107 40.6768 585.99 40.5839C585.571 40.1892 585.175 39.7713 584.779 39.3766C584.71 39.3069 584.663 39.2605 584.616 39.1909C584.942 38.8658 585.245 38.564 585.571 38.2389C585.618 38.2854 585.688 38.3318 585.757 38.3783C586.526 39.1444 587.294 39.9106 588.063 40.7C588.156 40.7929 588.226 40.8393 588.365 40.8393C589.832 40.8393 591.299 40.8393 592.79 40.8393C592.836 40.8393 592.883 40.8161 592.953 40.8161C592.929 40.7232 592.906 40.6303 592.86 40.5607C592.161 39.3302 591.439 38.1229 590.741 36.8923C590.647 36.7066 590.508 36.6369 590.321 36.5905C589.297 36.3351 588.272 36.0565 587.248 35.7779C587.178 35.7547 587.108 35.7315 587.038 35.7082Z" fill="#0066E6"/>
<path d="M473.614 9.24045C473.614 9.19401 473.614 9.14758 473.614 9.10114C473.707 8.72966 473.823 8.33497 473.94 7.94027C474.685 8.12601 475.383 8.31175 476.105 8.49749C476.129 8.47427 476.129 8.45105 476.152 8.42784C475.779 7.75453 475.383 7.10444 474.988 6.3847C475.383 6.15253 475.756 5.94357 476.175 5.68818C476.524 6.31505 476.897 6.9187 477.246 7.54557C477.293 7.63844 477.339 7.7081 477.479 7.7081C477.665 7.01157 477.852 6.29183 478.061 5.57209C478.527 5.68818 478.946 5.80426 479.365 5.92035C479.249 6.33827 479.156 6.75618 479.039 7.15088C478.853 7.87062 478.643 8.61357 478.434 9.33331C478.387 9.47262 478.411 9.58871 478.48 9.70479C478.969 10.5406 479.458 11.3765 479.947 12.2123C480.18 12.6302 480.436 13.0481 480.669 13.466C480.693 13.5125 480.739 13.5589 480.832 13.675C480.879 13.5821 480.879 13.5357 480.925 13.4892C481.345 12.7695 481.74 12.0498 482.16 11.33C482.462 10.796 482.788 10.262 483.091 9.75123C483.184 9.61193 483.207 9.47262 483.138 9.28688C482.835 8.21888 482.555 7.12766 482.253 6.05966C482.253 6.03644 482.253 5.99 482.229 5.94357C482.649 5.82748 483.068 5.71139 483.533 5.59531C483.72 6.31505 483.929 7.01157 484.116 7.7081C484.232 7.73131 484.279 7.68488 484.348 7.59201C484.698 6.96514 485.047 6.36148 485.42 5.73461C485.815 5.96679 486.211 6.17575 486.607 6.40792C486.235 7.10444 485.792 7.77775 485.443 8.47427C485.466 8.49749 485.489 8.5207 485.513 8.54392C486.211 8.35818 486.91 8.17244 487.655 7.96349C487.771 8.40462 487.888 8.82253 488.004 9.26367C487.632 9.35654 487.306 9.47262 486.956 9.54227C486.165 9.75123 485.35 9.96019 484.558 10.1924C484.465 10.2156 484.348 10.3317 484.302 10.4478C483.627 11.5854 482.975 12.7231 482.323 13.8375C482.253 13.9304 482.206 14.0465 482.136 14.1393C482.113 14.209 482.09 14.3019 482.066 14.3947C482.276 14.3947 482.416 14.3947 482.579 14.3947C483.883 14.3947 485.21 14.3947 486.514 14.3947C486.724 14.3947 486.887 14.3251 487.026 14.1858C487.748 13.4428 488.47 12.7231 489.215 12.0033C489.285 11.9337 489.378 11.864 489.448 11.7944C489.681 11.9105 490.17 12.3748 490.426 12.7463C489.96 13.2106 489.495 13.675 489.029 14.1393C488.959 14.209 488.866 14.2554 488.959 14.4179C489.704 14.4179 490.473 14.4179 491.241 14.4179C491.241 14.8823 491.241 15.3002 491.241 15.7646C490.473 15.7646 489.704 15.7413 488.843 15.7646C488.936 15.9039 488.982 15.9967 489.052 16.0432C489.471 16.4611 489.89 16.879 490.31 17.2969C490.356 17.3433 490.379 17.3898 490.403 17.413C490.077 17.738 489.774 18.0399 489.425 18.3649C489.145 18.0863 488.819 17.7845 488.54 17.4826C488.004 16.9486 487.492 16.4146 486.933 15.8806C486.84 15.811 486.7 15.7413 486.584 15.7413C485.163 15.7413 483.72 15.7413 482.299 15.7413C482.206 15.7413 482.136 15.7646 481.997 15.7878C482.16 16.0664 482.299 16.345 482.462 16.6004C483.021 17.5755 483.58 18.5274 484.139 19.5026C484.302 19.7812 484.488 19.9669 484.837 20.0598C485.769 20.2687 486.7 20.5473 487.632 20.7795C487.748 20.8027 487.841 20.8492 488.004 20.9188C487.888 21.3367 487.771 21.7547 487.655 22.1958C486.91 22.0333 486.211 21.8011 485.489 21.6386C485.466 21.6618 485.466 21.685 485.443 21.7082C485.839 22.3815 486.211 23.0316 486.63 23.7514C486.258 23.9835 485.885 24.1925 485.489 24.4247C485.443 24.355 485.373 24.3086 485.35 24.2389C485.024 23.6817 484.698 23.1245 484.395 22.544C484.348 22.4512 484.279 22.4047 484.162 22.4512C483.976 23.1477 483.79 23.8442 483.603 24.5408C483.161 24.4247 482.742 24.3086 482.299 24.1925C482.346 23.9603 482.392 23.7281 482.462 23.5192C482.672 22.6834 482.905 21.8707 483.138 21.0349C483.161 20.9653 483.161 20.8956 483.184 20.8492C483.254 20.6867 483.231 20.5706 483.138 20.4313C482.439 19.2007 481.717 17.9934 481.019 16.7629C480.972 16.67 480.902 16.6004 480.809 16.4843C480.553 16.9022 480.343 17.2737 480.134 17.6452C479.598 18.5739 479.063 19.5026 478.527 20.408C478.434 20.5473 478.434 20.6867 478.48 20.8724C478.783 21.9404 479.063 23.0316 479.365 24.0996C479.365 24.1228 479.365 24.1693 479.389 24.2157C478.969 24.3318 478.55 24.4479 478.085 24.564C477.898 23.8442 477.689 23.1477 477.502 22.4512C477.339 22.428 477.316 22.544 477.27 22.6369C476.944 23.2406 476.594 23.821 476.222 24.4479C475.803 24.2157 475.43 24.0067 475.034 23.7746C475.43 23.0781 475.826 22.4047 476.245 21.685C476.129 21.685 476.059 21.6618 475.989 21.685C475.43 21.8475 474.871 21.9868 474.312 22.1494C474.219 22.1726 474.149 22.1726 474.01 22.1958C473.893 21.7779 473.777 21.36 473.66 20.9188C474.103 20.8027 474.522 20.6867 474.941 20.5706C475.64 20.3848 476.361 20.1991 477.06 20.0133C477.27 19.9669 477.363 19.8044 477.433 19.6419C477.898 18.8293 478.364 17.9934 478.853 17.1808C479.063 16.8093 479.272 16.4611 479.482 16.0896C479.528 16.0199 479.552 15.9271 479.621 15.811C479.528 15.7878 479.482 15.7646 479.412 15.7646C478.387 15.7646 477.386 15.7646 476.361 15.7646C475.919 15.7646 475.453 15.7646 475.011 15.7878C474.918 15.7878 474.801 15.8342 474.731 15.9039C474.149 16.4843 473.567 17.0647 472.985 17.6219C472.729 17.8773 472.473 18.1327 472.193 18.3881C471.867 18.0631 471.541 17.7613 471.215 17.4362C471.751 16.9022 472.286 16.3682 472.799 15.8574C472.682 15.7181 472.566 15.7413 472.449 15.7413C471.774 15.7413 471.099 15.7413 470.4 15.7413C470.4 15.3002 470.4 14.8823 470.4 14.4179C471.169 14.4179 471.914 14.4179 472.682 14.4179C472.799 14.3019 472.729 14.2322 472.612 14.1393C472.193 13.7446 471.797 13.3267 471.402 12.932C471.332 12.8624 471.285 12.8159 471.239 12.7463C471.565 12.4212 471.867 12.1194 472.193 11.7944C472.24 11.8408 472.31 11.8872 472.38 11.9337C473.148 12.6998 473.916 13.466 474.685 14.2554C474.778 14.3483 474.848 14.3947 474.988 14.3947C476.455 14.3947 477.922 14.3947 479.412 14.3947C479.458 14.3947 479.505 14.3715 479.575 14.3715C479.552 14.2786 479.528 14.1858 479.482 14.1161C478.783 12.8856 478.061 11.6783 477.363 10.4478C477.27 10.262 477.13 10.1924 476.944 10.1459C475.919 9.89053 474.894 9.61192 473.87 9.33331C473.753 9.28688 473.684 9.26366 473.614 9.24045Z" fill="#0066E6"/>
<path d="M1403.31 0.734101C1400.1 2.17358 1402.24 6.93316 1405.45 5.49368C1408.67 4.07741 1406.52 -0.682164 1403.31 0.734101Z" fill="#0895FF"/>
<path d="M1290.19 29.6399C1286.98 31.0793 1289.12 35.8389 1292.33 34.4226C1295.55 32.9832 1293.4 28.2236 1290.19 29.6399Z" fill="#0895FF"/>
<path d="M1440.64 35.6995C1440.64 35.653 1440.64 35.6066 1440.64 35.5601C1440.73 35.1887 1440.85 34.794 1440.96 34.3993C1441.71 34.585 1442.41 34.7708 1443.13 34.9565C1443.15 34.9333 1443.15 34.9101 1443.18 34.8868C1442.8 34.2135 1442.41 33.5634 1442.01 32.8437C1442.41 32.6115 1442.78 32.4026 1443.2 32.1472C1443.55 32.7741 1443.92 33.3777 1444.27 34.0046C1444.32 34.0974 1444.36 34.1671 1444.5 34.1671C1444.69 33.4706 1444.88 32.7508 1445.09 32.0311C1445.55 32.1472 1445.97 32.2633 1446.39 32.3794C1446.27 32.7973 1446.18 33.2152 1446.06 33.6099C1445.88 34.3296 1445.67 35.0726 1445.46 35.7923C1445.41 35.9316 1445.43 36.0477 1445.5 36.1638C1445.99 36.9996 1446.48 37.8355 1446.97 38.6713C1447.2 39.0892 1447.46 39.5071 1447.69 39.925C1447.72 39.9715 1447.76 40.0179 1447.86 40.134C1447.9 40.0411 1447.9 39.9947 1447.95 39.925C1448.37 39.2053 1448.76 38.4856 1449.18 37.7658C1449.49 37.2318 1449.81 36.6978 1450.12 36.187C1450.21 36.0477 1450.23 35.9084 1450.16 35.7227C1449.86 34.6547 1449.58 33.5634 1449.28 32.4954C1449.28 32.4722 1449.28 32.4258 1449.25 32.3794C1449.67 32.2633 1450.09 32.1472 1450.56 32.0311C1450.74 32.7508 1450.95 33.4474 1451.14 34.1439C1451.26 34.1671 1451.3 34.1207 1451.37 34.0278C1451.72 33.4009 1452.07 32.7973 1452.44 32.1704C1452.84 32.4026 1453.24 32.6115 1453.63 32.8437C1453.26 33.5402 1452.82 34.2135 1452.47 34.9101C1452.49 34.9333 1452.51 34.9565 1452.54 34.9797C1453.24 34.794 1453.93 34.6082 1454.68 34.3993C1454.8 34.8404 1454.91 35.2583 1455.03 35.6995C1454.66 35.7923 1454.33 35.9084 1453.98 35.9781C1453.19 36.187 1452.37 36.396 1451.58 36.6282C1451.49 36.6514 1451.37 36.7675 1451.33 36.8835C1450.65 38.0212 1450 39.1589 1449.35 40.2733C1449.28 40.3662 1449.21 40.4823 1449.16 40.5751C1449.14 40.6448 1449.11 40.7376 1449.09 40.8305C1449.3 40.8305 1449.44 40.8305 1449.6 40.8305C1450.91 40.8305 1452.23 40.8305 1453.54 40.8305C1453.75 40.8305 1453.91 40.7609 1454.05 40.6216C1454.77 39.8786 1455.49 39.1589 1456.24 38.4391C1456.31 38.3695 1456.4 38.2998 1456.47 38.2302C1456.71 38.3462 1457.19 38.8106 1457.45 39.1821C1456.98 39.6464 1456.52 40.1108 1456.05 40.5751C1455.98 40.6448 1455.89 40.6912 1455.98 40.8537C1456.73 40.8537 1457.5 40.8537 1458.27 40.8537C1458.27 41.3181 1458.27 41.736 1458.27 42.2003C1457.5 42.2003 1456.73 42.1771 1455.87 42.2003C1455.96 42.3396 1456.01 42.4325 1456.08 42.479C1456.5 42.8969 1456.91 43.3148 1457.33 43.7327C1457.38 43.7791 1457.4 43.8256 1457.43 43.8488C1457.1 44.1738 1456.8 44.4757 1456.45 44.8007C1456.17 44.5221 1455.84 44.2203 1455.56 43.9184C1455.03 43.3844 1454.52 42.8504 1453.96 42.3164C1453.86 42.2468 1453.72 42.1771 1453.61 42.1771C1452.19 42.1771 1450.74 42.1771 1449.32 42.1771C1449.23 42.1771 1449.16 42.2003 1449.02 42.2236C1449.18 42.5022 1449.32 42.7808 1449.49 43.0362C1450.05 44.0113 1450.6 44.9632 1451.16 45.9384C1451.33 46.217 1451.51 46.4027 1451.86 46.4956C1452.79 46.7045 1453.72 46.9831 1454.66 47.2153C1454.77 47.2385 1454.87 47.285 1455.03 47.3546C1454.91 47.7725 1454.8 48.1904 1454.68 48.6316C1453.93 48.4691 1453.24 48.2369 1452.51 48.0976C1452.49 48.1208 1452.49 48.144 1452.47 48.1672C1452.86 48.8405 1453.24 49.4906 1453.65 50.2104C1453.28 50.4425 1452.91 50.6515 1452.51 50.8837C1452.47 50.814 1452.4 50.7676 1452.37 50.6979C1452.05 50.1407 1451.72 49.5835 1451.42 49.0031C1451.37 48.9102 1451.3 48.8638 1451.19 48.9102C1451 49.6067 1450.81 50.3032 1450.63 50.9998C1450.19 50.8837 1449.77 50.7676 1449.32 50.6515C1449.37 50.4193 1449.42 50.1871 1449.49 49.9782C1449.7 49.1424 1449.93 48.3297 1450.16 47.4939C1450.19 47.4243 1450.19 47.3546 1450.21 47.3082C1450.28 47.1457 1450.25 47.0296 1450.16 46.8903C1449.46 45.6597 1448.74 44.4524 1448.04 43.2219C1448 43.129 1447.93 43.0594 1447.83 42.9433C1447.58 43.3612 1447.37 43.7327 1447.16 44.1042C1446.62 45.0329 1446.09 45.9616 1445.55 46.867C1445.46 47.0064 1445.46 47.1457 1445.5 47.3314C1445.81 48.3994 1446.09 49.4906 1446.39 50.5586C1446.39 50.5818 1446.39 50.6283 1446.41 50.6747C1445.95 50.7676 1445.5 50.8837 1445.06 50.9998C1444.88 50.28 1444.67 49.5835 1444.48 48.887C1444.32 48.8638 1444.29 48.9798 1444.25 49.0727C1443.92 49.6764 1443.57 50.2568 1443.2 50.8837C1442.78 50.6515 1442.41 50.4425 1442.01 50.2104C1442.41 49.5138 1442.8 48.8405 1443.22 48.1208C1443.11 48.1208 1443.04 48.0976 1442.97 48.1208C1442.41 48.2833 1441.85 48.4226 1441.29 48.5851C1441.2 48.6084 1441.13 48.6084 1440.99 48.6316C1440.87 48.2137 1440.75 47.7957 1440.64 47.3546C1441.08 47.2385 1441.5 47.1224 1441.92 47.0064C1442.62 46.8206 1443.34 46.6349 1444.04 46.4491C1444.25 46.4027 1444.34 46.2402 1444.41 46.0777C1444.88 45.265 1445.34 44.4292 1445.83 43.6166C1446.04 43.2451 1446.25 42.8969 1446.46 42.5254C1446.51 42.4557 1446.53 42.3629 1446.6 42.2468C1446.51 42.2236 1446.46 42.2003 1446.39 42.2003C1445.36 42.2003 1444.36 42.2003 1443.34 42.2003C1442.9 42.2003 1442.43 42.2003 1441.99 42.2236C1441.9 42.2236 1441.78 42.27 1441.71 42.3396C1441.13 42.9201 1440.54 43.5005 1439.96 44.0577C1439.71 44.3131 1439.45 44.5685 1439.17 44.8239C1438.84 44.4989 1438.52 44.197 1438.19 43.872C1438.73 43.338 1439.26 42.804 1439.78 42.2932C1439.66 42.1539 1439.54 42.1771 1439.43 42.1771C1438.75 42.1771 1438.08 42.1771 1437.38 42.1771C1437.38 41.736 1437.38 41.3181 1437.38 40.8537C1438.15 40.8537 1438.89 40.8537 1439.66 40.8537C1439.78 40.7376 1439.71 40.668 1439.59 40.5751C1439.17 40.1804 1438.78 39.7625 1438.38 39.3678C1438.31 39.2982 1438.26 39.2517 1438.22 39.1821C1438.54 38.857 1438.84 38.5552 1439.17 38.2302C1439.22 38.2766 1439.29 38.323 1439.36 38.3695C1440.13 39.1356 1440.89 39.9018 1441.66 40.6912C1441.76 40.7841 1441.83 40.8305 1441.97 40.8305C1443.43 40.8305 1444.9 40.8305 1446.39 40.8305C1446.44 40.8305 1446.48 40.8073 1446.55 40.8073C1446.53 40.7144 1446.51 40.6216 1446.46 40.5519C1445.76 39.3214 1445.04 38.1141 1444.34 36.8835C1444.25 36.6978 1444.11 36.6282 1443.92 36.5817C1442.9 36.3263 1441.87 36.0477 1440.85 35.7691C1440.78 35.7459 1440.71 35.7227 1440.64 35.6995Z" fill="#0066E6"/>
<path d="M1327.21 9.23166C1327.21 9.18522 1327.21 9.13879 1327.21 9.09235C1327.31 8.72088 1327.42 8.32618 1327.54 7.93148C1328.28 8.11722 1328.98 8.30296 1329.7 8.4887C1329.73 8.46548 1329.73 8.44226 1329.75 8.41905C1329.38 7.74574 1328.98 7.09565 1328.59 6.37591C1328.98 6.14374 1329.36 5.93478 1329.77 5.67939C1330.12 6.30626 1330.5 6.90991 1330.85 7.53679C1330.89 7.62965 1330.94 7.69931 1331.08 7.69931C1331.27 7.00278 1331.45 6.28304 1331.66 5.5633C1332.13 5.67939 1332.55 5.79547 1332.96 5.91156C1332.85 6.32948 1332.76 6.74739 1332.64 7.14209C1332.45 7.86183 1332.24 8.60478 1332.03 9.32453C1331.99 9.46383 1332.01 9.57992 1332.08 9.696C1332.57 10.5318 1333.06 11.3677 1333.55 12.2035C1333.78 12.6214 1334.04 13.0393 1334.27 13.4572C1334.29 13.5037 1334.34 13.5501 1334.43 13.6662C1334.48 13.5733 1334.48 13.5269 1334.53 13.4805C1334.94 12.7607 1335.34 12.041 1335.76 11.3212C1336.06 10.7872 1336.39 10.2532 1336.69 9.74244C1336.78 9.60314 1336.81 9.46383 1336.74 9.27809C1336.43 8.21009 1336.16 7.11887 1335.85 6.05087C1335.85 6.02765 1335.85 5.98122 1335.83 5.93478C1336.25 5.81869 1336.67 5.70261 1337.13 5.58652C1337.32 6.30626 1337.53 7.00278 1337.72 7.69931C1337.83 7.72252 1337.88 7.67609 1337.95 7.58322C1338.3 6.95635 1338.65 6.35269 1339.02 5.72582C1339.42 5.958 1339.81 6.16696 1340.21 6.39913C1339.83 7.09566 1339.39 7.76896 1339.04 8.46548C1339.07 8.4887 1339.09 8.51191 1339.11 8.53513C1339.81 8.34939 1340.51 8.16365 1341.25 7.9547C1341.37 8.39583 1341.49 8.81375 1341.6 9.25488C1341.23 9.34775 1340.91 9.46383 1340.56 9.53348C1339.76 9.74244 1338.95 9.9514 1338.16 10.1836C1338.06 10.2068 1337.95 10.3229 1337.9 10.439C1337.23 11.5766 1336.57 12.7143 1335.92 13.8287C1335.85 13.9216 1335.81 14.0377 1335.74 14.1305C1335.71 14.2002 1335.69 14.2931 1335.67 14.3859C1335.88 14.3859 1336.02 14.3859 1336.18 14.3859C1337.48 14.3859 1338.81 14.3859 1340.11 14.3859C1340.32 14.3859 1340.49 14.3163 1340.63 14.177C1341.35 13.434 1342.07 12.7143 1342.81 11.9945C1342.88 11.9249 1342.98 11.8552 1343.05 11.7856C1343.28 11.9017 1343.77 12.366 1344.03 12.7375C1343.56 13.2018 1343.09 13.6662 1342.63 14.1305C1342.56 14.2002 1342.47 14.2466 1342.56 14.4091C1343.3 14.4092 1344.07 14.4092 1344.84 14.4092C1344.84 14.8735 1344.84 15.2914 1344.84 15.7558C1344.07 15.7558 1343.3 15.7325 1342.44 15.7558C1342.54 15.8951 1342.58 15.9879 1342.65 16.0344C1343.07 16.4523 1343.49 16.8702 1343.91 17.2881C1343.96 17.3345 1343.98 17.381 1344 17.4042C1343.68 17.7292 1343.37 18.0311 1343.02 18.3561C1342.74 18.0775 1342.42 17.7757 1342.14 17.4739C1341.6 16.9399 1341.09 16.4059 1340.53 15.8718C1340.44 15.8022 1340.3 15.7325 1340.18 15.7325C1338.76 15.7325 1337.32 15.7325 1335.9 15.7325C1335.81 15.7325 1335.74 15.7558 1335.6 15.779C1335.76 16.0576 1335.9 16.3362 1336.06 16.5916C1336.62 17.5667 1337.18 18.5186 1337.74 19.4938C1337.9 19.7724 1338.09 19.9581 1338.44 20.051C1339.37 20.2599 1340.3 20.5386 1341.23 20.7707C1341.35 20.7939 1341.44 20.8404 1341.6 20.91C1341.49 21.328 1341.37 21.7459 1341.25 22.187C1340.51 22.0245 1339.81 21.7923 1339.09 21.6298C1339.07 21.653 1339.07 21.6762 1339.04 21.6994C1339.44 22.3727 1339.81 23.0228 1340.23 23.7426C1339.86 23.9747 1339.48 24.1837 1339.09 24.4159C1339.04 24.3462 1338.97 24.2998 1338.95 24.2301C1338.62 23.6729 1338.3 23.1157 1337.99 22.5353C1337.95 22.4424 1337.88 22.396 1337.76 22.4424C1337.58 23.1389 1337.39 23.8354 1337.2 24.532C1336.76 24.4159 1336.34 24.2998 1335.9 24.1837C1335.95 23.9515 1335.99 23.7193 1336.06 23.5104C1336.27 22.6746 1336.5 21.862 1336.74 21.0261C1336.76 20.9565 1336.76 20.8868 1336.78 20.8404C1336.85 20.6779 1336.83 20.5618 1336.74 20.4225C1336.04 19.1919 1335.32 17.9846 1334.62 16.7541C1334.57 16.6612 1334.5 16.5916 1334.41 16.4755C1334.15 16.8934 1333.94 17.2649 1333.73 17.6364C1333.2 18.5651 1332.66 19.4938 1332.13 20.3993C1332.03 20.5386 1332.03 20.6779 1332.08 20.8636C1332.38 21.9316 1332.66 23.0228 1332.96 24.0908C1332.96 24.114 1332.96 24.1605 1332.99 24.2069C1332.57 24.323 1332.15 24.4391 1331.68 24.5552C1331.5 23.8354 1331.29 23.1389 1331.1 22.4424C1330.94 22.4192 1330.92 22.5353 1330.87 22.6281C1330.54 23.2318 1330.19 23.8122 1329.82 24.4391C1329.4 24.2069 1329.03 23.998 1328.63 23.7658C1329.03 23.0693 1329.43 22.396 1329.84 21.6762C1329.73 21.6762 1329.66 21.653 1329.59 21.6762C1329.03 21.8387 1328.47 21.978 1327.91 22.1406C1327.82 22.1638 1327.75 22.1638 1327.61 22.187C1327.49 21.7691 1327.38 21.3512 1327.26 20.91C1327.7 20.7939 1328.12 20.6779 1328.54 20.5618C1329.24 20.376 1329.96 20.1903 1330.66 20.0046C1330.87 19.9581 1330.96 19.7956 1331.03 19.6331C1331.5 18.8205 1331.96 17.9846 1332.45 17.172C1332.66 16.8005 1332.87 16.4523 1333.08 16.0808C1333.13 16.0112 1333.15 15.9183 1333.22 15.8022C1333.13 15.779 1333.08 15.7558 1333.01 15.7558C1331.99 15.7558 1330.99 15.7558 1329.96 15.7558C1329.52 15.7558 1329.05 15.7558 1328.61 15.779C1328.52 15.779 1328.4 15.8254 1328.33 15.8951C1327.75 16.4755 1327.17 17.0559 1326.58 17.6132C1326.33 17.8685 1326.07 18.1239 1325.79 18.3793C1325.47 18.0543 1325.14 17.7525 1324.81 17.4274C1325.35 16.8934 1325.89 16.3594 1326.4 15.8486C1326.28 15.7093 1326.17 15.7325 1326.05 15.7325C1325.37 15.7325 1324.7 15.7325 1324 15.7325C1324 15.2914 1324 14.8735 1324 14.4091C1324.77 14.4091 1325.51 14.4091 1326.28 14.4091C1326.4 14.2931 1326.33 14.2234 1326.21 14.1305C1325.79 13.7358 1325.4 13.3179 1325 12.9232C1324.93 12.8536 1324.88 12.8071 1324.84 12.7375C1325.16 12.4124 1325.47 12.1106 1325.79 11.7856C1325.84 11.832 1325.91 11.8784 1325.98 11.9249C1326.75 12.6911 1327.52 13.4572 1328.28 14.2466C1328.38 14.3395 1328.45 14.3859 1328.59 14.3859C1330.05 14.3859 1331.52 14.3859 1333.01 14.3859C1333.06 14.3859 1333.1 14.3627 1333.17 14.3627C1333.15 14.2698 1333.13 14.177 1333.08 14.1073C1332.38 12.8768 1331.66 11.6695 1330.96 10.439C1330.87 10.2532 1330.73 10.1836 1330.54 10.1371C1329.52 9.88174 1328.49 9.60313 1327.47 9.32453C1327.35 9.27809 1327.28 9.25488 1327.21 9.23166Z" fill="#0066E6"/>
<path d="M1181.16 24.5551C1177.95 25.9946 1180.09 30.7542 1183.31 29.3147C1186.52 27.8985 1184.38 23.1157 1181.16 24.5551Z" fill="#0895FF"/>
<path d="M1114.31 0.734101C1111.1 2.17358 1113.24 6.93316 1116.45 5.49368C1119.67 4.07741 1117.52 -0.682164 1114.31 0.734101Z" fill="#0895FF"/>
<path d="M1251.44 4.14718C1251.44 4.10075 1251.44 4.05432 1251.44 4.00788C1251.53 3.6364 1251.65 3.24171 1251.77 2.84701C1252.51 3.03275 1253.21 3.21849 1253.93 3.40423C1253.96 3.38101 1253.96 3.35779 1253.98 3.33457C1253.61 2.66127 1253.21 2.01118 1252.81 1.29144C1253.21 1.05927 1253.58 0.85031 1254 0.594918C1254.35 1.22179 1254.72 1.82544 1255.07 2.45231C1255.12 2.54518 1255.17 2.61483 1255.31 2.61483C1255.49 1.91831 1255.68 1.19857 1255.89 0.478827C1256.35 0.594914 1256.77 0.711001 1257.19 0.827088C1257.08 1.245 1256.98 1.66292 1256.87 2.05762C1256.68 2.77736 1256.47 3.52032 1256.26 4.24006C1256.21 4.37936 1256.24 4.49545 1256.31 4.61154C1256.8 5.44736 1257.28 6.28319 1257.77 7.11902C1258.01 7.53693 1258.26 7.95485 1258.5 8.37276C1258.52 8.4192 1258.57 8.46563 1258.66 8.58172C1258.71 8.48885 1258.71 8.44241 1258.75 8.39598C1259.17 7.67624 1259.57 6.9565 1259.99 6.23676C1260.29 5.70275 1260.61 5.16876 1260.92 4.65797C1261.01 4.51867 1261.03 4.37936 1260.96 4.19362C1260.66 3.12562 1260.38 2.0344 1260.08 0.966397C1260.08 0.943179 1260.08 0.896741 1260.06 0.850307C1260.48 0.73422 1260.89 0.618133 1261.36 0.502046C1261.55 1.22179 1261.76 1.91831 1261.94 2.61483C1262.06 2.63805 1262.11 2.59162 1262.17 2.49875C1262.52 1.87188 1262.87 1.26822 1263.25 0.641349C1263.64 0.873525 1264.04 1.08248 1264.43 1.31466C1264.06 2.01118 1263.62 2.68449 1263.27 3.38101C1263.29 3.40423 1263.32 3.42745 1263.34 3.45066C1264.04 3.26492 1264.74 3.07919 1265.48 2.87023C1265.6 3.31136 1265.71 3.72927 1265.83 4.1704C1265.46 4.26327 1265.13 4.37936 1264.78 4.44902C1263.99 4.65797 1263.18 4.86693 1262.38 5.0991C1262.29 5.12232 1262.17 5.23841 1262.13 5.35449C1261.45 6.49215 1260.8 7.6298 1260.15 8.74424C1260.08 8.83711 1260.03 8.9532 1259.96 9.04607C1259.94 9.11572 1259.92 9.20859 1259.89 9.30146C1260.1 9.30146 1260.24 9.30146 1260.41 9.30146C1261.71 9.30146 1263.04 9.30146 1264.34 9.30146C1264.55 9.30146 1264.71 9.23181 1264.85 9.09251C1265.57 8.34955 1266.3 7.62981 1267.04 6.91006C1267.11 6.84041 1267.2 6.77076 1267.27 6.70111C1267.51 6.81719 1268 7.28154 1268.25 7.65302C1267.79 8.11737 1267.32 8.58172 1266.86 9.04607C1266.79 9.11572 1266.69 9.16215 1266.79 9.32468C1267.53 9.32468 1268.3 9.32468 1269.07 9.32468C1269.07 9.78903 1269.07 10.2069 1269.07 10.6713C1268.3 10.6713 1267.53 10.6481 1266.67 10.6713C1266.76 10.8106 1266.81 10.9035 1266.88 10.9499C1267.3 11.3678 1267.72 11.7857 1268.14 12.2036C1268.18 12.2501 1268.21 12.2965 1268.23 12.3197C1267.9 12.6448 1267.6 12.9466 1267.25 13.2716C1266.97 12.993 1266.65 12.6912 1266.37 12.3894C1265.83 11.8554 1265.32 11.3214 1264.76 10.7874C1264.67 10.7177 1264.53 10.6481 1264.41 10.6481C1262.99 10.6481 1261.55 10.6481 1260.13 10.6481C1260.03 10.6481 1259.96 10.6713 1259.82 10.6945C1259.99 10.9731 1260.13 11.2517 1260.29 11.5071C1260.85 12.4823 1261.41 13.4342 1261.97 14.4093C1262.13 14.6879 1262.31 14.8736 1262.66 14.9665C1263.6 15.1755 1264.53 15.4541 1265.46 15.6863C1265.57 15.7095 1265.67 15.7559 1265.83 15.8256C1265.71 16.2435 1265.6 16.6614 1265.48 17.1025C1264.74 16.94 1264.04 16.7078 1263.32 16.5453C1263.29 16.5685 1263.29 16.5917 1263.27 16.615C1263.67 17.2883 1264.04 17.9384 1264.46 18.6581C1264.08 18.8903 1263.71 19.0992 1263.32 19.3314C1263.27 19.2617 1263.2 19.2153 1263.18 19.1457C1262.85 18.5884 1262.52 18.0312 1262.22 17.4508C1262.17 17.3579 1262.11 17.3115 1261.99 17.3579C1261.8 18.0544 1261.62 18.751 1261.43 19.4475C1260.99 19.3314 1260.57 19.2153 1260.13 19.0992C1260.17 18.8671 1260.22 18.6349 1260.29 18.4259C1260.5 17.5901 1260.73 16.7775 1260.96 15.9417C1260.99 15.872 1260.99 15.8023 1261.01 15.7559C1261.08 15.5934 1261.06 15.4773 1260.96 15.338C1260.27 14.1075 1259.54 12.9002 1258.85 11.6696C1258.8 11.5768 1258.73 11.5071 1258.64 11.391C1258.38 11.8089 1258.17 12.1804 1257.96 12.5519C1257.42 13.4806 1256.89 14.4093 1256.35 15.3148C1256.26 15.4541 1256.26 15.5934 1256.31 15.7791C1256.61 16.8471 1256.89 17.9384 1257.19 19.0064C1257.19 19.0296 1257.19 19.076 1257.22 19.1224C1256.8 19.2385 1256.38 19.3546 1255.91 19.4707C1255.72 18.751 1255.52 18.0544 1255.33 17.3579C1255.17 17.3347 1255.14 17.4508 1255.1 17.5437C1254.77 18.1473 1254.42 18.7277 1254.05 19.3546C1253.63 19.1224 1253.26 18.9135 1252.86 18.6813C1253.26 17.9848 1253.65 17.3115 1254.07 16.5917C1253.96 16.5917 1253.89 16.5685 1253.82 16.5917C1253.26 16.7543 1252.7 16.8936 1252.14 17.0561C1252.05 17.0793 1251.98 17.0793 1251.84 17.1025C1251.72 16.6846 1251.6 16.2667 1251.49 15.8256C1251.93 15.7095 1252.35 15.5934 1252.77 15.4773C1253.47 15.2916 1254.19 15.1058 1254.89 14.9201C1255.1 14.8736 1255.19 14.7111 1255.26 14.5486C1255.72 13.736 1256.19 12.9002 1256.68 12.0876C1256.89 11.7161 1257.1 11.3678 1257.31 10.9963C1257.35 10.9267 1257.38 10.8338 1257.45 10.7177C1257.35 10.6945 1257.31 10.6713 1257.24 10.6713C1256.21 10.6713 1255.21 10.6713 1254.19 10.6713C1253.75 10.6713 1253.28 10.6713 1252.84 10.6945C1252.74 10.6945 1252.63 10.7409 1252.56 10.8106C1251.98 11.391 1251.39 11.9715 1250.81 12.5287C1250.56 12.7841 1250.3 13.0395 1250.02 13.2949C1249.69 12.9698 1249.37 12.668 1249.04 12.3429C1249.58 11.8089 1250.11 11.2749 1250.63 10.7642C1250.51 10.6249 1250.39 10.6481 1250.28 10.6481C1249.6 10.6481 1248.93 10.6481 1248.23 10.6481C1248.23 10.2069 1248.23 9.78902 1248.23 9.32467C1249 9.32467 1249.74 9.32467 1250.51 9.32467C1250.63 9.20859 1250.56 9.13894 1250.44 9.04607C1250.02 8.65137 1249.62 8.23346 1249.23 7.83876C1249.16 7.76911 1249.11 7.72267 1249.07 7.65302C1249.39 7.32798 1249.69 7.02615 1250.02 6.70111C1250.07 6.74754 1250.14 6.79397 1250.21 6.84041C1250.97 7.60658 1251.74 8.37276 1252.51 9.16215C1252.6 9.25502 1252.67 9.30146 1252.81 9.30146C1254.28 9.30146 1255.75 9.30146 1257.24 9.30146C1257.28 9.30146 1257.33 9.27824 1257.4 9.27824C1257.38 9.18537 1257.35 9.0925 1257.31 9.02285C1256.61 7.79233 1255.89 6.58502 1255.19 5.35449C1255.1 5.16875 1254.96 5.0991 1254.77 5.05266C1253.75 4.79727 1252.72 4.51867 1251.7 4.24006C1251.6 4.19362 1251.53 4.1704 1251.44 4.14718Z" fill="#0066E6"/>
<path d="M1151.64 35.6995C1151.64 35.653 1151.64 35.6066 1151.64 35.5601C1151.73 35.1887 1151.85 34.794 1151.96 34.3993C1152.71 34.585 1153.41 34.7708 1154.13 34.9565C1154.15 34.9333 1154.15 34.9101 1154.18 34.8868C1153.8 34.2135 1153.41 33.5634 1153.01 32.8437C1153.41 32.6115 1153.78 32.4026 1154.2 32.1472C1154.55 32.7741 1154.92 33.3777 1155.27 34.0046C1155.32 34.0974 1155.36 34.1671 1155.5 34.1671C1155.69 33.4706 1155.88 32.7508 1156.09 32.0311C1156.55 32.1472 1156.97 32.2633 1157.39 32.3794C1157.27 32.7973 1157.18 33.2152 1157.06 33.6099C1156.88 34.3296 1156.67 35.0726 1156.46 35.7923C1156.41 35.9316 1156.43 36.0477 1156.5 36.1638C1156.99 36.9996 1157.48 37.8355 1157.97 38.6713C1158.2 39.0892 1158.46 39.5071 1158.69 39.925C1158.72 39.9715 1158.76 40.0179 1158.86 40.134C1158.9 40.0411 1158.9 39.9947 1158.95 39.925C1159.37 39.2053 1159.76 38.4856 1160.18 37.7658C1160.49 37.2318 1160.81 36.6978 1161.12 36.187C1161.21 36.0477 1161.23 35.9084 1161.16 35.7227C1160.86 34.6547 1160.58 33.5634 1160.28 32.4954C1160.28 32.4722 1160.28 32.4258 1160.25 32.3794C1160.67 32.2633 1161.09 32.1472 1161.56 32.0311C1161.74 32.7508 1161.95 33.4474 1162.14 34.1439C1162.26 34.1671 1162.3 34.1207 1162.37 34.0278C1162.72 33.4009 1163.07 32.7973 1163.44 32.1704C1163.84 32.4026 1164.24 32.6115 1164.63 32.8437C1164.26 33.5402 1163.82 34.2135 1163.47 34.9101C1163.49 34.9333 1163.51 34.9565 1163.54 34.9797C1164.24 34.794 1164.93 34.6082 1165.68 34.3993C1165.8 34.8404 1165.91 35.2583 1166.03 35.6995C1165.66 35.7923 1165.33 35.9084 1164.98 35.9781C1164.19 36.187 1163.37 36.396 1162.58 36.6282C1162.49 36.6514 1162.37 36.7675 1162.33 36.8835C1161.65 38.0212 1161 39.1589 1160.35 40.2733C1160.28 40.3662 1160.21 40.4823 1160.16 40.5751C1160.14 40.6448 1160.11 40.7376 1160.09 40.8305C1160.3 40.8305 1160.44 40.8305 1160.6 40.8305C1161.91 40.8305 1163.23 40.8305 1164.54 40.8305C1164.75 40.8305 1164.91 40.7609 1165.05 40.6216C1165.77 39.8786 1166.49 39.1589 1167.24 38.4391C1167.31 38.3695 1167.4 38.2998 1167.47 38.2302C1167.71 38.3462 1168.19 38.8106 1168.45 39.1821C1167.98 39.6464 1167.52 40.1108 1167.05 40.5751C1166.98 40.6448 1166.89 40.6912 1166.98 40.8537C1167.73 40.8537 1168.5 40.8537 1169.27 40.8537C1169.27 41.3181 1169.27 41.736 1169.27 42.2003C1168.5 42.2003 1167.73 42.1771 1166.87 42.2003C1166.96 42.3396 1167.01 42.4325 1167.08 42.479C1167.5 42.8969 1167.91 43.3148 1168.33 43.7327C1168.38 43.7791 1168.4 43.8256 1168.43 43.8488C1168.1 44.1738 1167.8 44.4757 1167.45 44.8007C1167.17 44.5221 1166.84 44.2203 1166.56 43.9184C1166.03 43.3844 1165.52 42.8504 1164.96 42.3164C1164.86 42.2468 1164.72 42.1771 1164.61 42.1771C1163.19 42.1771 1161.74 42.1771 1160.32 42.1771C1160.23 42.1771 1160.16 42.2003 1160.02 42.2236C1160.18 42.5022 1160.32 42.7808 1160.49 43.0362C1161.05 44.0113 1161.6 44.9632 1162.16 45.9384C1162.33 46.217 1162.51 46.4027 1162.86 46.4956C1163.79 46.7045 1164.72 46.9831 1165.66 47.2153C1165.77 47.2385 1165.87 47.285 1166.03 47.3546C1165.91 47.7725 1165.8 48.1904 1165.68 48.6316C1164.93 48.4691 1164.24 48.2369 1163.51 48.0976C1163.49 48.1208 1163.49 48.144 1163.47 48.1672C1163.86 48.8405 1164.24 49.4906 1164.65 50.2104C1164.28 50.4425 1163.91 50.6515 1163.51 50.8837C1163.47 50.814 1163.4 50.7676 1163.37 50.6979C1163.05 50.1407 1162.72 49.5835 1162.42 49.0031C1162.37 48.9102 1162.3 48.8638 1162.19 48.9102C1162 49.6067 1161.81 50.3032 1161.63 50.9998C1161.19 50.8837 1160.77 50.7676 1160.32 50.6515C1160.37 50.4193 1160.42 50.1871 1160.49 49.9782C1160.7 49.1424 1160.93 48.3297 1161.16 47.4939C1161.19 47.4243 1161.19 47.3546 1161.21 47.3082C1161.28 47.1457 1161.25 47.0296 1161.16 46.8903C1160.46 45.6597 1159.74 44.4524 1159.04 43.2219C1159 43.129 1158.93 43.0594 1158.83 42.9433C1158.58 43.3612 1158.37 43.7327 1158.16 44.1042C1157.62 45.0329 1157.09 45.9616 1156.55 46.867C1156.46 47.0064 1156.46 47.1457 1156.5 47.3314C1156.81 48.3994 1157.09 49.4906 1157.39 50.5586C1157.39 50.5818 1157.39 50.6283 1157.41 50.6747C1156.95 50.7676 1156.5 50.8837 1156.06 50.9998C1155.88 50.28 1155.67 49.5835 1155.48 48.887C1155.32 48.8638 1155.29 48.9798 1155.25 49.0727C1154.92 49.6764 1154.57 50.2568 1154.2 50.8837C1153.78 50.6515 1153.41 50.4425 1153.01 50.2104C1153.41 49.5138 1153.8 48.8405 1154.22 48.1208C1154.11 48.1208 1154.04 48.0976 1153.97 48.1208C1153.41 48.2833 1152.85 48.4226 1152.29 48.5851C1152.2 48.6084 1152.13 48.6084 1151.99 48.6316C1151.87 48.2137 1151.75 47.7957 1151.64 47.3546C1152.08 47.2385 1152.5 47.1224 1152.92 47.0064C1153.62 46.8206 1154.34 46.6349 1155.04 46.4491C1155.25 46.4027 1155.34 46.2402 1155.41 46.0777C1155.88 45.265 1156.34 44.4292 1156.83 43.6166C1157.04 43.2451 1157.25 42.8969 1157.46 42.5254C1157.51 42.4557 1157.53 42.3629 1157.6 42.2468C1157.51 42.2236 1157.46 42.2003 1157.39 42.2003C1156.36 42.2003 1155.36 42.2003 1154.34 42.2003C1153.9 42.2003 1153.43 42.2003 1152.99 42.2236C1152.9 42.2236 1152.78 42.27 1152.71 42.3396C1152.13 42.9201 1151.54 43.5005 1150.96 44.0577C1150.71 44.3131 1150.45 44.5685 1150.17 44.8239C1149.84 44.4989 1149.52 44.197 1149.19 43.872C1149.73 43.338 1150.26 42.804 1150.78 42.2932C1150.66 42.1539 1150.54 42.1771 1150.43 42.1771C1149.75 42.1771 1149.08 42.1771 1148.38 42.1771C1148.38 41.736 1148.38 41.3181 1148.38 40.8537C1149.15 40.8537 1149.89 40.8537 1150.66 40.8537C1150.78 40.7376 1150.71 40.668 1150.59 40.5751C1150.17 40.1804 1149.78 39.7625 1149.38 39.3678C1149.31 39.2982 1149.26 39.2517 1149.22 39.1821C1149.54 38.857 1149.84 38.5552 1150.17 38.2302C1150.22 38.2766 1150.29 38.323 1150.36 38.3695C1151.13 39.1356 1151.89 39.9018 1152.66 40.6912C1152.76 40.7841 1152.83 40.8305 1152.97 40.8305C1154.43 40.8305 1155.9 40.8305 1157.39 40.8305C1157.44 40.8305 1157.48 40.8073 1157.55 40.8073C1157.53 40.7144 1157.51 40.6216 1157.46 40.5519C1156.76 39.3214 1156.04 38.1141 1155.34 36.8835C1155.25 36.6978 1155.11 36.6282 1154.92 36.5817C1153.9 36.3263 1152.87 36.0477 1151.85 35.7691C1151.78 35.7459 1151.71 35.7227 1151.64 35.6995Z" fill="#0066E6"/>
<path d="M1038.21 9.2319C1038.21 9.18547 1038.21 9.13903 1038.21 9.0926C1038.31 8.72112 1038.42 8.32642 1038.54 7.93172C1039.28 8.11747 1039.98 8.3032 1040.7 8.48894C1040.73 8.46573 1040.73 8.44251 1040.75 8.41929C1040.38 7.74598 1039.98 7.0959 1039.59 6.37616C1039.98 6.14398 1040.36 5.93502 1040.77 5.67963C1041.12 6.3065 1041.5 6.91016 1041.85 7.53703C1041.89 7.6299 1041.94 7.69955 1042.08 7.69955C1042.27 7.00303 1042.45 6.28329 1042.66 5.56354C1043.13 5.67963 1043.55 5.79572 1043.96 5.91181C1043.85 6.32972 1043.76 6.74764 1043.64 7.14233C1043.45 7.86207 1043.24 8.60503 1043.03 9.32477C1042.99 9.46407 1043.01 9.58016 1043.08 9.69625C1043.57 10.5321 1044.06 11.3679 1044.55 12.2037C1044.78 12.6217 1045.04 13.0396 1045.27 13.4575C1045.29 13.5039 1045.34 13.5503 1045.43 13.6664C1045.48 13.5736 1045.48 13.5271 1045.53 13.4807C1045.94 12.761 1046.34 12.0412 1046.76 11.3215C1047.06 10.7875 1047.39 10.2535 1047.69 9.74269C1047.78 9.60338 1047.81 9.46408 1047.74 9.27834C1047.43 8.21034 1047.16 7.11911 1046.85 6.05111C1046.85 6.02789 1046.85 5.98146 1046.83 5.93502C1047.25 5.81894 1047.67 5.70285 1048.13 5.58676C1048.32 6.3065 1048.53 7.00303 1048.72 7.69955C1048.83 7.72277 1048.88 7.67633 1048.95 7.58346C1049.3 6.95659 1049.65 6.35294 1050.02 5.72607C1050.42 5.95824 1050.81 6.1672 1051.21 6.39938C1050.83 7.0959 1050.39 7.7692 1050.04 8.46573C1050.07 8.48894 1050.09 8.51216 1050.11 8.53538C1050.81 8.34964 1051.51 8.1639 1052.25 7.95494C1052.37 8.39607 1052.49 8.81399 1052.6 9.25512C1052.23 9.34799 1051.91 9.46408 1051.56 9.53373C1050.76 9.74268 1049.95 9.95164 1049.16 10.1838C1049.06 10.207 1048.95 10.3231 1048.9 10.4392C1048.23 11.5769 1047.57 12.7145 1046.92 13.829C1046.85 13.9218 1046.81 14.0379 1046.74 14.1308C1046.71 14.2004 1046.69 14.2933 1046.67 14.3862C1046.88 14.3862 1047.02 14.3862 1047.18 14.3862C1048.48 14.3862 1049.81 14.3862 1051.11 14.3862C1051.32 14.3862 1051.49 14.3165 1051.63 14.1772C1052.35 13.4343 1053.07 12.7145 1053.81 11.9948C1053.88 11.9251 1053.98 11.8555 1054.05 11.7858C1054.28 11.9019 1054.77 12.3663 1055.03 12.7377C1054.56 13.2021 1054.09 13.6664 1053.63 14.1308C1053.56 14.2004 1053.47 14.2469 1053.56 14.4094C1054.3 14.4094 1055.07 14.4094 1055.84 14.4094C1055.84 14.8737 1055.84 15.2917 1055.84 15.756C1055.07 15.756 1054.3 15.7328 1053.44 15.756C1053.54 15.8953 1053.58 15.9882 1053.65 16.0346C1054.07 16.4525 1054.49 16.8704 1054.91 17.2884C1054.96 17.3348 1054.98 17.3812 1055 17.4044C1054.68 17.7295 1054.37 18.0313 1054.02 18.3564C1053.74 18.0778 1053.42 17.7759 1053.14 17.4741C1052.6 16.9401 1052.09 16.4061 1051.53 15.8721C1051.44 15.8024 1051.3 15.7328 1051.18 15.7328C1049.76 15.7328 1048.32 15.7328 1046.9 15.7328C1046.81 15.7328 1046.74 15.756 1046.6 15.7792C1046.76 16.0578 1046.9 16.3364 1047.06 16.5918C1047.62 17.567 1048.18 18.5189 1048.74 19.494C1048.9 19.7726 1049.09 19.9584 1049.44 20.0512C1050.37 20.2602 1051.3 20.5388 1052.23 20.771C1052.35 20.7942 1052.44 20.8406 1052.6 20.9103C1052.49 21.3282 1052.37 21.7461 1052.25 22.1872C1051.51 22.0247 1050.81 21.7925 1050.09 21.63C1050.07 21.6532 1050.07 21.6765 1050.04 21.6997C1050.44 22.373 1050.81 23.0231 1051.23 23.7428C1050.86 23.975 1050.48 24.1839 1050.09 24.4161C1050.04 24.3465 1049.97 24.3 1049.95 24.2304C1049.62 23.6732 1049.3 23.1159 1048.99 22.5355C1048.95 22.4426 1048.88 22.3962 1048.76 22.4426C1048.58 23.1392 1048.39 23.8357 1048.2 24.5322C1047.76 24.4161 1047.34 24.3 1046.9 24.1839C1046.95 23.9518 1046.99 23.7196 1047.06 23.5106C1047.27 22.6748 1047.5 21.8622 1047.74 21.0264C1047.76 20.9567 1047.76 20.8871 1047.78 20.8406C1047.85 20.6781 1047.83 20.562 1047.74 20.4227C1047.04 19.1922 1046.32 17.9849 1045.62 16.7544C1045.57 16.6615 1045.5 16.5918 1045.41 16.4757C1045.15 16.8937 1044.94 17.2651 1044.73 17.6366C1044.2 18.5653 1043.66 19.494 1043.13 20.3995C1043.03 20.5388 1043.03 20.6781 1043.08 20.8638C1043.38 21.9319 1043.66 23.0231 1043.96 24.0911C1043.96 24.1143 1043.96 24.1607 1043.99 24.2072C1043.57 24.3232 1043.15 24.4393 1042.68 24.5554C1042.5 23.8357 1042.29 23.1392 1042.1 22.4426C1041.94 22.4194 1041.92 22.5355 1041.87 22.6284C1041.54 23.232 1041.19 23.8125 1040.82 24.4393C1040.4 24.2072 1040.03 23.9982 1039.63 23.766C1040.03 23.0695 1040.43 22.3962 1040.84 21.6765C1040.73 21.6765 1040.66 21.6532 1040.59 21.6765C1040.03 21.839 1039.47 21.9783 1038.91 22.1408C1038.82 22.164 1038.75 22.164 1038.61 22.1872C1038.49 21.7693 1038.38 21.3514 1038.26 20.9103C1038.7 20.7942 1039.12 20.6781 1039.54 20.562C1040.24 20.3763 1040.96 20.1905 1041.66 20.0048C1041.87 19.9584 1041.96 19.7958 1042.03 19.6333C1042.5 18.8207 1042.96 17.9849 1043.45 17.1723C1043.66 16.8008 1043.87 16.4525 1044.08 16.0811C1044.13 16.0114 1044.15 15.9185 1044.22 15.8024C1044.13 15.7792 1044.08 15.756 1044.01 15.756C1042.99 15.756 1041.99 15.756 1040.96 15.756C1040.52 15.756 1040.05 15.756 1039.61 15.7792C1039.52 15.7792 1039.4 15.8257 1039.33 15.8953C1038.75 16.4757 1038.17 17.0562 1037.58 17.6134C1037.33 17.8688 1037.07 18.1242 1036.79 18.3796C1036.47 18.0545 1036.14 17.7527 1035.81 17.4277C1036.35 16.8937 1036.89 16.3597 1037.4 15.8489C1037.28 15.7096 1037.17 15.7328 1037.05 15.7328C1036.37 15.7328 1035.7 15.7328 1035 15.7328C1035 15.2917 1035 14.8737 1035 14.4094C1035.77 14.4094 1036.51 14.4094 1037.28 14.4094C1037.4 14.2933 1037.33 14.2237 1037.21 14.1308C1036.79 13.7361 1036.4 13.3182 1036 12.9235C1035.93 12.8538 1035.88 12.8074 1035.84 12.7377C1036.16 12.4127 1036.47 12.1109 1036.79 11.7858C1036.84 11.8323 1036.91 11.8787 1036.98 11.9251C1037.75 12.6913 1038.52 13.4575 1039.28 14.2469C1039.38 14.3397 1039.45 14.3862 1039.59 14.3862C1041.05 14.3862 1042.52 14.3862 1044.01 14.3862C1044.06 14.3862 1044.1 14.363 1044.17 14.363C1044.15 14.2701 1044.13 14.1772 1044.08 14.1076C1043.38 12.877 1042.66 11.6697 1041.96 10.4392C1041.87 10.2535 1041.73 10.1838 1041.54 10.1374C1040.52 9.88199 1039.49 9.60338 1038.47 9.32477C1038.35 9.27833 1038.28 9.25512 1038.21 9.2319Z" fill="#0066E6"/>
</svg>
