<svg width="68" height="284" viewBox="0 0 68 284" fill="none" xmlns="http://www.w3.org/2000/svg">
<g opacity="0.65">
<path d="M76.205 62.1421L75.8058 59.8804H66.3065L65.894 62.1421H76.205Z" fill="#F2DCDB"/>
<path d="M79.9301 82.8837H62.0223L61.6099 85.0923L80.4489 85.7708L79.9301 82.8837Z" fill="#F2DCDB"/>
<path d="M76.7233 65.0292L76.6168 64.4305L76.4439 63.4194H65.654L65.042 66.639L76.7233 65.0292Z" fill="#F2DCDB"/>
<path d="M66.7725 57.4191H75.3671L73.7573 48.4519H68.4488L66.7725 57.4191Z" fill="#F2DCDB"/>
<path d="M82.9765 99.8867L82.4976 97.2259L59.747 95.0706L58.0308 104.251H69.6721V113.391H72.1866V103.812H83.6817L82.9765 99.8867Z" fill="#F2DCDB"/>
<path d="M64.6431 68.8343L62.3281 81.2074H79.6239L77.8943 71.5084L77.096 67.1047L64.6431 68.8343Z" fill="#F2DCDB"/>
<path d="M80.9276 88.4449L61.1173 87.7265L60.1328 92.9818L82.1117 95.0572L80.9276 88.4449Z" fill="#F2DCDB"/>
<path d="M68.9148 216.109L54.9585 156L42 216.109H53.7877V223.626H56.1293V216.109H68.9148Z" fill="#F2DCDB"/>
<g opacity="0.75">
<path opacity="0.75" d="M41.3118 82.1832L40.8195 80.0944H29.1649L28.646 82.1832H41.3118Z" fill="#F2DCDB"/>
</g>
<g opacity="0.75">
<path opacity="0.75" d="M45.8751 101.435H23.8962L23.3906 103.483L46.5137 104.109L45.8751 101.435Z" fill="#F2DCDB"/>
</g>
<g opacity="0.75">
<path opacity="0.75" d="M41.9499 84.8573L41.8169 84.3118L41.5907 83.3672H28.3528L27.6211 86.374L41.9499 84.8573Z" fill="#F2DCDB"/>
</g>
<g opacity="0.75">
<path opacity="0.75" d="M29.7231 77.8059H40.2736L38.3045 69.4773H31.7854L29.7231 77.8059Z" fill="#F2DCDB"/>
</g>
<g opacity="0.75">
<path opacity="0.75" d="M49.6135 117.214L49.0281 114.752L21.1021 112.757L19 121.271H33.3022V129.76H36.3756V120.859H50.4782L49.6135 117.214Z" fill="#F2DCDB"/>
</g>
<g opacity="0.75">
<path opacity="0.75" d="M38.0253 68.3199L37.7991 67.3487L35.1117 56L32.0649 68.3199H38.0253Z" fill="#F2DCDB"/>
</g>
<g opacity="0.75">
<path opacity="0.75" d="M27.1161 88.4095L24.2822 99.8779H45.5161L43.3741 90.8841L42.4028 86.7997L27.1161 88.4095Z" fill="#F2DCDB"/>
</g>
<g opacity="0.75">
<path opacity="0.75" d="M47.0984 106.597L22.7913 105.945L21.5806 110.814L48.5619 112.743L47.0984 106.597Z" fill="#F2DCDB"/>
</g>
<g opacity="0.75">
<path opacity="0.75" d="M26.3118 213.183L25.8196 211.081H14.1649L13.646 213.183H26.3118Z" fill="#F2DCDB"/>
</g>
<g opacity="0.75">
<path opacity="0.75" d="M30.8751 232.421H8.8962L8.39062 234.483L31.5137 235.109L30.8751 232.421Z" fill="#F2DCDB"/>
</g>
<g opacity="0.75">
<path opacity="0.75" d="M26.9501 215.857L26.8171 215.298L26.5909 214.367H13.353L12.6079 217.361L26.9501 215.857Z" fill="#F2DCDB"/>
</g>
<g opacity="0.75">
<path opacity="0.75" d="M14.7236 208.806H25.2741L23.305 200.477H16.7725L14.7236 208.806Z" fill="#F2DCDB"/>
</g>
<g opacity="0.75">
<path opacity="0.75" d="M34.6135 248.214L34.0281 245.739L6.10212 243.743L4 252.272H18.289V260.746H21.3756V251.859H35.4782L34.6135 248.214Z" fill="#F2DCDB"/>
</g>
<g opacity="0.75">
<path opacity="0.75" d="M23.0248 199.307L22.7987 198.349L20.0979 187L17.0645 199.307H23.0248Z" fill="#F2DCDB"/>
</g>
<g opacity="0.75">
<path opacity="0.75" d="M12.1161 219.396L9.28223 230.878H30.5028L28.3741 221.871L27.4028 217.786L12.1161 219.396Z" fill="#F2DCDB"/>
</g>
<g opacity="0.75">
<path opacity="0.75" d="M32.0989 237.597L7.77844 236.931L6.58105 241.814L33.5491 243.73L32.0989 237.597Z" fill="#F2DCDB"/>
</g>
<path d="M28.3372 154C32.7869 154 32.8003 161.157 28.3372 161.157C23.8876 161.157 23.8876 154 28.3372 154Z" fill="#D7E8E6"/>
<path d="M69.4599 253.344C73.9061 253.344 73.9196 260.024 69.4599 260.024C65.0136 260.024 65.0001 253.344 69.4599 253.344Z" fill="#D7E8E6"/>
<path d="M70.8169 16C75.906 16 75.906 23.1566 70.8169 23.1566C65.7277 23.1566 65.7277 16 70.8169 16Z" fill="#F2DCDB"/>
<path d="M3.8576 44.8481C8.62868 44.8481 8.62868 52.4818 3.8576 52.4818C-0.913472 52.4679 -0.913472 44.8481 3.8576 44.8481Z" fill="#F2DCDB"/>
<path d="M45.6018 128.342C50.0583 128.342 50.0583 135.499 45.6018 135.499C41.1591 135.499 41.1454 128.342 45.6018 128.342Z" fill="#F9F0B9"/>
<path d="M77.7747 124.226C77.8158 124.226 77.8431 124.226 77.8705 124.226C78.1439 124.292 78.4037 124.372 78.6908 124.452C78.5541 124.959 78.4311 125.438 78.2943 125.931C78.308 125.945 78.3217 125.958 78.3354 125.958C78.8003 125.692 79.2788 125.438 79.7711 125.159C79.9351 125.425 80.0856 125.692 80.2633 125.971C79.8258 126.211 79.3882 126.465 78.9506 126.691C78.8823 126.731 78.8276 126.744 78.8413 126.851C79.3335 126.984 79.8394 127.118 80.3454 127.251C80.2633 127.557 80.1813 127.851 80.0993 128.157C79.7984 128.077 79.5113 128.01 79.2378 127.931C78.7319 127.797 78.2123 127.664 77.7064 127.517C77.6107 127.491 77.5286 127.504 77.4466 127.557C76.8586 127.891 76.2707 128.224 75.6827 128.57C75.3819 128.743 75.0947 128.903 74.7939 129.063C74.7666 129.077 74.7392 129.103 74.6572 129.17C74.7119 129.197 74.7529 129.21 74.7939 129.237C75.2998 129.516 75.8057 129.796 76.3117 130.09C76.6808 130.303 77.0637 130.516 77.4329 130.729C77.5423 130.796 77.6243 130.796 77.7474 130.769C78.4995 130.556 79.2651 130.369 80.0309 130.169C80.0582 130.169 80.0719 130.169 80.1129 130.156C80.1949 130.449 80.277 130.729 80.359 131.049C79.8531 131.182 79.3609 131.316 78.8686 131.436C78.8413 131.529 78.8823 131.555 78.9506 131.595C79.3882 131.835 79.8258 132.075 80.2633 132.315C80.0992 132.595 79.9488 132.848 79.7847 133.128C79.2925 132.862 78.8276 132.568 78.3354 132.328C78.3217 132.342 78.308 132.355 78.2943 132.368C78.4311 132.848 78.5541 133.328 78.6908 133.848C78.39 133.928 78.0892 134.008 77.7747 134.101C77.7064 133.848 77.638 133.621 77.5696 133.381C77.4192 132.835 77.2688 132.275 77.1184 131.729C77.091 131.662 77.009 131.595 76.9406 131.542C76.1476 131.089 75.3408 130.636 74.5478 130.183C74.4794 130.143 74.4111 130.103 74.329 130.063C74.2743 130.036 74.2196 130.036 74.1513 130.01C74.1513 130.143 74.1513 130.249 74.1513 130.369C74.1513 131.262 74.1513 132.169 74.1513 133.061C74.1513 133.208 74.1923 133.315 74.3017 133.408C74.8212 133.901 75.3272 134.394 75.8331 134.901C75.8878 134.954 75.9425 135.007 75.9835 135.06C75.9015 135.22 75.5733 135.554 75.3135 135.74C74.9854 135.42 74.6572 135.1 74.329 134.794C74.2743 134.741 74.247 134.687 74.1376 134.754C74.1376 135.26 74.1376 135.78 74.1376 136.313C73.8094 136.313 73.5086 136.313 73.1941 136.313C73.1941 135.78 73.2078 135.247 73.1941 134.661C73.0984 134.727 73.03 134.754 72.989 134.794C72.6882 135.087 72.401 135.367 72.1139 135.66C72.0865 135.687 72.0455 135.714 72.0318 135.727C71.8131 135.5 71.5943 135.287 71.3619 135.06C71.5533 134.861 71.7721 134.661 71.9772 134.447C72.3464 134.088 72.7292 133.728 73.0984 133.355C73.1531 133.301 73.1941 133.195 73.1941 133.115C73.1941 132.142 73.1941 131.156 73.1941 130.183C73.1941 130.129 73.1804 130.076 73.1668 129.983C72.9617 130.103 72.7839 130.196 72.6062 130.303C71.9225 130.689 71.2388 131.076 70.5551 131.449C70.35 131.555 70.227 131.689 70.1723 131.929C70.0219 132.568 69.8304 133.208 69.6527 133.834C69.6253 133.914 69.598 133.981 69.5569 134.088C69.2561 134.008 68.9553 133.928 68.6545 133.848C68.7775 133.341 68.9416 132.862 69.051 132.368C69.0374 132.355 69.0237 132.342 69.01 132.328C68.5451 132.595 68.0666 132.862 67.5743 133.128C67.4102 132.875 67.2598 132.608 67.0957 132.342C67.1367 132.302 67.1778 132.262 67.2188 132.235C67.6153 132.009 68.0118 131.795 68.4084 131.582C68.4767 131.542 68.5178 131.502 68.4768 131.422C67.9845 131.289 67.5059 131.169 67 131.036C67.082 130.729 67.1504 130.449 67.2325 130.143C67.3966 130.183 67.5606 130.209 67.711 130.249C68.299 130.396 68.8869 130.556 69.4612 130.703C69.5022 130.716 69.5569 130.716 69.598 130.743C69.7073 130.796 69.8031 130.769 69.8988 130.716C70.7602 130.236 71.6217 129.743 72.4831 129.263C72.5378 129.223 72.5925 129.183 72.6882 129.117C72.401 128.943 72.1413 128.797 71.8815 128.65C71.2388 128.277 70.5825 127.917 69.9262 127.557C69.8168 127.491 69.721 127.491 69.598 127.517C68.8459 127.731 68.0802 127.917 67.3145 128.117C67.2872 128.117 67.2735 128.117 67.2325 128.13C67.1504 127.837 67.082 127.544 67 127.238C67.5059 127.104 67.9982 126.971 68.4904 126.838C68.5041 126.718 68.4357 126.718 68.3674 126.678C67.9435 126.451 67.5333 126.211 67.0957 125.958C67.2598 125.678 67.4102 125.412 67.5743 125.145C68.0666 125.412 68.5314 125.678 69.0373 125.971C69.0373 125.891 69.051 125.838 69.0373 125.798C68.928 125.412 68.8186 125.025 68.7092 124.639C68.6955 124.585 68.6955 124.519 68.6819 124.439C68.9827 124.359 69.2698 124.279 69.5843 124.199C69.6664 124.505 69.7484 124.785 69.8304 125.079C69.9672 125.558 70.1039 126.051 70.227 126.531C70.268 126.678 70.3773 126.731 70.4867 126.798C71.061 127.118 71.649 127.437 72.2233 127.771C72.4831 127.917 72.7292 128.064 72.989 128.21C73.0437 128.237 73.112 128.264 73.1804 128.304C73.1941 128.237 73.2214 128.197 73.2214 128.157C73.2214 127.464 73.2214 126.771 73.2214 126.065C73.2214 125.758 73.2215 125.438 73.2078 125.132C73.2078 125.065 73.1668 124.985 73.1258 124.945C72.7292 124.545 72.319 124.146 71.9088 123.759C71.731 123.586 71.5533 123.399 71.3619 123.213C71.5806 122.986 71.7994 122.773 72.0318 122.546C72.4147 122.92 72.7839 123.279 73.1531 123.639C73.2625 123.573 73.2214 123.479 73.2214 123.399C73.2214 122.946 73.2214 122.48 73.2214 122C73.5223 122 73.8368 122 74.1513 122C74.1513 122.52 74.1513 123.04 74.1513 123.559C74.2333 123.639 74.288 123.586 74.3427 123.519C74.6298 123.239 74.917 122.96 75.1904 122.68C75.2314 122.64 75.2725 122.6 75.3135 122.56C75.5323 122.773 75.7511 122.986 75.9835 123.213C75.9562 123.253 75.9288 123.293 75.8878 123.333C75.3408 123.866 74.8076 124.386 74.2606 124.919C74.1923 124.985 74.1649 125.039 74.1649 125.132C74.1649 126.145 74.1649 127.144 74.1649 128.157C74.1649 128.184 74.1786 128.21 74.1923 128.277C74.2607 128.25 74.329 128.25 74.3837 128.21C75.2451 127.731 76.0929 127.238 76.9543 126.758C77.0774 126.691 77.1321 126.598 77.1731 126.465C77.3645 125.758 77.556 125.065 77.7474 124.372C77.7337 124.332 77.7474 124.279 77.7747 124.226Z" fill="#F9F0B9"/>
<path d="M53.7747 29.2998C53.8157 29.2998 53.8431 29.2998 53.8704 29.2998C54.1439 29.3687 54.4037 29.4513 54.6908 29.5339C54.5541 30.0572 54.431 30.553 54.2943 31.0625C54.308 31.0763 54.3216 31.0901 54.3353 31.0901C54.8002 30.8146 55.2788 30.553 55.7711 30.2638C55.9351 30.5392 56.0855 30.8146 56.2633 31.1038C55.8257 31.3517 55.3882 31.6134 54.9506 31.8475C54.8823 31.8888 54.8276 31.9026 54.8412 32.0127C55.3335 32.1504 55.8394 32.2882 56.3453 32.4259C56.2633 32.7426 56.1813 33.0456 56.0992 33.3623C55.7984 33.2797 55.5112 33.2108 55.2378 33.1282C54.7319 32.9905 54.2123 32.8528 53.7063 32.7013C53.6106 32.6738 53.5286 32.6875 53.4465 32.7426C52.8586 33.0869 52.2706 33.4312 51.6827 33.7892C51.3818 33.9683 51.0947 34.1335 50.7939 34.2988C50.7665 34.3125 50.7392 34.3401 50.6571 34.4089C50.7118 34.4365 50.7529 34.4503 50.7939 34.4778C51.2998 34.767 51.8057 35.0562 52.3117 35.3592C52.6808 35.5795 53.0637 35.7998 53.4329 36.0202C53.5422 36.089 53.6243 36.089 53.7474 36.0615C54.4994 35.8411 55.2651 35.6484 56.0309 35.4418C56.0582 35.4418 56.0719 35.4418 56.1129 35.428C56.1949 35.731 56.277 36.0202 56.359 36.3507C55.8531 36.4884 55.3609 36.6261 54.8686 36.7501C54.8413 36.8464 54.8823 36.874 54.9506 36.9153C55.3882 37.1632 55.8257 37.4111 56.2633 37.659C56.0992 37.9482 55.9488 38.2098 55.7847 38.499C55.2925 38.2236 54.8276 37.9206 54.3353 37.6727C54.3216 37.6865 54.308 37.7003 54.2943 37.714C54.431 38.2098 54.5541 38.7056 54.6908 39.2426C54.39 39.3253 54.0892 39.4079 53.7747 39.5043C53.7063 39.2426 53.638 39.0085 53.5696 38.7607C53.4192 38.196 53.2688 37.6176 53.1184 37.053C53.091 36.9842 53.009 36.9153 52.9406 36.8602C52.1476 36.392 51.3408 35.9238 50.5478 35.4555C50.4794 35.4142 50.411 35.3729 50.329 35.3316C50.2743 35.3041 50.2196 35.3041 50.1512 35.2765C50.1512 35.4142 50.1512 35.5244 50.1512 35.6483C50.1512 36.571 50.1512 37.5075 50.1512 38.4301C50.1512 38.5816 50.1923 38.6918 50.3017 38.7882C50.8212 39.2977 51.3272 39.8073 51.8331 40.3306C51.8878 40.3857 51.9424 40.4407 51.9835 40.4958C51.9014 40.6611 51.5733 41.0054 51.3135 41.1982C50.9853 40.8676 50.6572 40.5372 50.329 40.2204C50.2743 40.1653 50.247 40.1102 50.1376 40.1791C50.1376 40.7024 50.1376 41.2395 50.1376 41.7903C49.8094 41.7903 49.5086 41.7903 49.1941 41.7903C49.1941 41.2395 49.2078 40.6886 49.1941 40.0827C49.0984 40.1515 49.03 40.1791 48.989 40.2204C48.6881 40.5234 48.401 40.8126 48.1139 41.1155C48.0865 41.1431 48.0455 41.1706 48.0318 41.1844C47.8131 40.9503 47.5943 40.7299 47.3619 40.4958C47.5533 40.2893 47.772 40.0827 47.9771 39.8623C48.3463 39.4905 48.7292 39.1187 49.0984 38.7331C49.1531 38.678 49.1941 38.5678 49.1941 38.4852C49.1941 37.4799 49.1941 36.4609 49.1941 35.4555C49.1941 35.4005 49.1804 35.3454 49.1667 35.249C48.9616 35.3729 48.7839 35.4693 48.6061 35.5795C47.9224 35.9789 47.2388 36.3782 46.5551 36.7638C46.35 36.874 46.2269 37.0117 46.1722 37.2596C46.0218 37.9206 45.8304 38.5816 45.6527 39.2289C45.6253 39.3115 45.598 39.3804 45.5569 39.4905C45.2561 39.4079 44.9553 39.3253 44.6545 39.2426C44.7775 38.7193 44.9416 38.2236 45.051 37.714C45.0374 37.7003 45.0237 37.6865 45.01 37.6727C44.5451 37.9481 44.0665 38.2236 43.5743 38.499C43.4102 38.2374 43.2598 37.9619 43.0957 37.6865C43.1367 37.6452 43.1777 37.6039 43.2187 37.5763C43.6153 37.3422 44.0118 37.1219 44.4084 36.9015C44.4767 36.8602 44.5177 36.8189 44.4767 36.7363C43.9845 36.5986 43.5059 36.4746 43 36.3369C43.082 36.0202 43.1504 35.731 43.2324 35.4142C43.3965 35.4556 43.5606 35.4831 43.711 35.5244C44.299 35.6759 44.8869 35.8411 45.4612 35.9926C45.5022 36.0064 45.5569 36.0064 45.598 36.0339C45.7073 36.089 45.8031 36.0615 45.8988 36.0064C46.7602 35.5106 47.6216 35.0011 48.4831 34.5053C48.5377 34.464 48.5924 34.4227 48.6881 34.3538C48.401 34.1748 48.1412 34.0233 47.8814 33.8719C47.2388 33.4863 46.5824 33.1144 45.9261 32.7426C45.8167 32.6738 45.721 32.6738 45.598 32.7013C44.8459 32.9216 44.0802 33.1144 43.3145 33.321C43.2871 33.321 43.2734 33.321 43.2324 33.3348C43.1504 33.0318 43.082 32.7289 43 32.4121C43.5059 32.2744 43.9982 32.1367 44.4904 31.999C44.5041 31.875 44.4357 31.8613 44.3674 31.8337C43.9435 31.5996 43.5332 31.3517 43.0957 31.0901C43.2598 30.8009 43.4102 30.5254 43.5743 30.25C44.0665 30.5254 44.5314 30.8009 45.0373 31.1038C45.0373 31.0212 45.051 30.9661 45.0373 30.9248C44.928 30.5254 44.8186 30.1261 44.7092 29.7267C44.6955 29.6716 44.6955 29.6028 44.6818 29.5201C44.9826 29.4375 45.2698 29.3549 45.5843 29.2723C45.6663 29.589 45.7483 29.8782 45.8304 30.1812C45.9671 30.6769 46.1039 31.1865 46.2269 31.6822C46.268 31.8337 46.3773 31.8888 46.4867 31.9577C47.061 32.2882 47.649 32.6187 48.2233 32.963C48.483 33.1144 48.7292 33.2659 48.989 33.4174C49.0437 33.445 49.112 33.4725 49.1804 33.5138C49.1941 33.4449 49.2214 33.4036 49.2214 33.3623C49.2214 32.6462 49.2214 31.9301 49.2214 31.2002C49.2214 30.8835 49.2214 30.553 49.2077 30.2363C49.2077 30.1674 49.1667 30.0848 49.1257 30.0435C48.7292 29.6303 48.319 29.2172 47.9088 28.8178C47.731 28.6388 47.5533 28.446 47.3619 28.2532C47.5806 28.0191 47.7994 27.7987 48.0318 27.5646C48.4147 27.9502 48.7839 28.322 49.1531 28.6939C49.2625 28.625 49.2214 28.5286 49.2214 28.446C49.2214 27.9778 49.2214 27.4958 49.2214 27C49.5223 27 49.8367 27 50.1512 27C50.1512 27.5371 50.1512 28.0742 50.1512 28.6112C50.2333 28.6939 50.288 28.6388 50.3427 28.5699C50.6298 28.2807 50.917 27.9915 51.1904 27.7023C51.2314 27.661 51.2725 27.6197 51.3135 27.5784C51.5323 27.7987 51.751 28.0191 51.9835 28.2532C51.9561 28.2945 51.9288 28.3358 51.8878 28.3771C51.3408 28.928 50.8076 29.4651 50.2606 30.0159C50.1923 30.0848 50.1649 30.1399 50.1649 30.2363C50.1649 31.2829 50.1649 32.3157 50.1649 33.3623C50.1649 33.3899 50.1786 33.4174 50.1922 33.4863C50.2606 33.4587 50.329 33.4587 50.3837 33.4174C51.2451 32.9216 52.0929 32.4121 52.9543 31.9163C53.0774 31.8475 53.1321 31.7511 53.1731 31.6134C53.3645 30.8835 53.5559 30.1674 53.7474 29.4513C53.7474 29.41 53.761 29.3549 53.7747 29.2998Z" fill="#F2DCDB"/>
</g>
</svg>
