<svg width="1998" height="1279" viewBox="0 0 1998 1279" fill="none" xmlns="http://www.w3.org/2000/svg">
<rect width="1998" height="1279" fill="white"/>
<path d="M223.401 675.61L265.848 547.946L305.246 675.61H269.404V691.591H262.291V675.61H223.401Z" fill="#D7E8E6"/>
<path d="M630.675 642.346L632.061 634.494H665.039L666.471 642.346H630.675Z" fill="#D7E8E6"/>
<path d="M617.742 714.353H679.911L681.343 722.02L615.94 724.376L617.742 714.353Z" fill="#D7E8E6"/>
<path d="M628.874 652.369L629.243 650.29L629.844 646.78H667.302L669.427 657.957L628.874 652.369Z" fill="#D7E8E6"/>
<path d="M663.422 625.949H633.584L639.173 594.818H657.602L663.422 625.949Z" fill="#D7E8E6"/>
<path d="M607.165 773.381L608.828 764.144L687.809 756.661L693.768 788.531H653.353V820.262H644.624V787.007H604.717L607.165 773.381Z" fill="#D7E8E6"/>
<path opacity="0.75" d="M639.959 590.476L640.605 586.874L648.226 544.427L656.817 590.476H639.959Z" fill="#D7E8E6"/>
<path d="M670.812 665.578L678.849 708.533H618.804L624.809 674.862L627.58 659.573L670.812 665.578Z" fill="#D7E8E6"/>
<path d="M614.278 733.659L683.052 731.165L686.47 749.41L610.167 756.615L614.278 733.659Z" fill="#D7E8E6"/>
<path d="M299.95 498.028L348.402 289.35L393.389 498.028H352.466V524.124H344.337V498.028H299.95Z" fill="#F2DCDB"/>
<g opacity="0.75">
<path opacity="0.75" d="M460.53 275.898L462.239 268.646H502.7L504.501 275.898H460.53Z" fill="#F2DCDB"/>
</g>
<g opacity="0.75">
<path opacity="0.75" d="M444.687 342.732H520.99L522.745 349.845L442.47 352.016L444.687 342.732Z" fill="#F2DCDB"/>
</g>
<g opacity="0.75">
<path opacity="0.75" d="M458.313 285.182L458.775 283.288L459.56 280.009H505.517L508.058 290.447L458.313 285.182Z" fill="#F2DCDB"/>
</g>
<g opacity="0.75">
<path opacity="0.75" d="M500.76 260.702H464.133L470.968 231.789H493.601L500.76 260.702Z" fill="#F2DCDB"/>
</g>
<g opacity="0.75">
<path opacity="0.75" d="M431.709 397.511L433.741 388.967L530.69 382.038L537.987 411.599H488.335V441.067H477.666V410.167H428.706L431.709 397.511Z" fill="#F2DCDB"/>
</g>
<g opacity="0.75">
<path opacity="0.75" d="M471.939 227.77L472.724 224.398L482.054 185L492.631 227.77H471.939Z" fill="#F2DCDB"/>
</g>
<g opacity="0.75">
<path opacity="0.75" d="M509.812 297.514L519.65 337.328H445.934L453.37 306.105L456.742 291.926L509.812 297.514Z" fill="#F2DCDB"/>
</g>
<g opacity="0.75">
<path opacity="0.75" d="M440.438 360.654L524.823 358.39L529.026 375.295L435.357 381.992L440.438 360.654Z" fill="#F2DCDB"/>
</g>
<g opacity="0.75">
<path opacity="0.75" d="M295.824 985.898L297.533 978.646H337.994L339.795 985.898H295.824Z" fill="#F2DCDB"/>
</g>
<g opacity="0.75">
<path opacity="0.75" d="M279.981 1052.73H356.284L358.039 1059.85L277.764 1062.02L279.981 1052.73Z" fill="#F2DCDB"/>
</g>
<g opacity="0.75">
<path opacity="0.75" d="M293.607 995.182L294.069 993.288L294.854 990.009H340.811L343.352 1000.45L293.607 995.182Z" fill="#F2DCDB"/>
</g>
<g opacity="0.75">
<path opacity="0.75" d="M336.054 970.702H299.426L306.262 941.789H328.894L336.054 970.702Z" fill="#F2DCDB"/>
</g>
<g opacity="0.75">
<path opacity="0.75" d="M267.002 1107.51L269.035 1098.97L365.983 1092.04L373.281 1121.6H323.629V1151.07H312.96V1120.17H264L267.002 1107.51Z" fill="#F2DCDB"/>
</g>
<g opacity="0.75">
<path opacity="0.75" d="M307.233 937.77L308.018 934.398L317.348 895L327.925 937.77H307.233Z" fill="#F2DCDB"/>
</g>
<g opacity="0.75">
<path opacity="0.75" d="M345.106 1007.51L354.944 1047.33H281.228L288.664 1016.11L292.036 1001.93L345.106 1007.51Z" fill="#F2DCDB"/>
</g>
<g opacity="0.75">
<path opacity="0.75" d="M275.732 1070.65L360.117 1068.39L364.32 1085.3L270.651 1091.99L275.732 1070.65Z" fill="#F2DCDB"/>
</g>
<path d="M119.409 450.207L165.551 329.102L208.367 450.207H169.384V465.357H161.671V450.207H119.409Z" fill="#F9F0B9"/>
<g opacity="0.75">
<path opacity="0.75" d="M399.721 709.86L401.43 702.563H441.891L443.692 709.86H399.721Z" fill="#F2DCDB"/>
</g>
<g opacity="0.75">
<path opacity="0.75" d="M383.879 776.648H460.181L461.937 783.808L381.662 785.978L383.879 776.648Z" fill="#F2DCDB"/>
</g>
<g opacity="0.75">
<path opacity="0.75" d="M397.504 719.144L397.966 717.204L398.751 713.971H444.708L447.295 724.364L397.504 719.144Z" fill="#F2DCDB"/>
</g>
<g opacity="0.75">
<path opacity="0.75" d="M439.951 694.665H403.324L410.16 665.751H432.838L439.951 694.665Z" fill="#F2DCDB"/>
</g>
<g opacity="0.75">
<path opacity="0.75" d="M370.9 831.474L372.932 822.883L469.881 815.954L477.179 845.561H427.573V874.983H416.857V844.129H367.898L370.9 831.474Z" fill="#F2DCDB"/>
</g>
<g opacity="0.75">
<path opacity="0.75" d="M411.13 661.686L411.915 658.361L421.291 618.962L431.822 661.686H411.13Z" fill="#F2DCDB"/>
</g>
<g opacity="0.75">
<path opacity="0.75" d="M449.004 731.43L458.842 771.291H385.172L392.562 740.021L395.934 725.842L449.004 731.43Z" fill="#F2DCDB"/>
</g>
<g opacity="0.75">
<path opacity="0.75" d="M379.629 794.616L464.061 792.306L468.218 809.257L374.594 815.908L379.629 794.616Z" fill="#F2DCDB"/>
</g>
<path d="M651.104 378.792C635.656 378.792 635.61 403.638 651.104 403.638C666.551 403.638 666.551 378.792 651.104 378.792Z" fill="#D7E8E6"/>
<path d="M566.621 850.851C548.954 850.851 548.954 875.696 566.621 875.696C584.289 875.696 584.289 850.851 566.621 850.851Z" fill="#F2DCDB"/>
<path d="M592.295 242.973C575.732 242.973 575.732 269.474 592.295 269.474C608.859 269.426 608.859 242.973 592.295 242.973Z" fill="#F2DCDB"/>
<path d="M108.652 221.44C92.0765 221.44 92.0765 247.941 108.652 247.941C125.18 247.941 125.227 221.44 108.652 221.44Z" fill="#F2DCDB"/>
<path d="M88.767 562.647C74.4353 562.647 74.3887 585.836 88.767 585.836C103.099 585.836 103.145 562.647 88.767 562.647Z" fill="#F9F0B9"/>
<path d="M447.373 532.833C431.902 532.833 431.902 557.678 447.373 557.678C462.797 557.678 462.844 532.833 447.373 532.833Z" fill="#F9F0B9"/>
<path d="M545.972 112.727C545.83 112.727 545.735 112.727 545.64 112.727C544.69 112.958 543.788 113.235 542.792 113.513C543.266 115.271 543.693 116.937 544.168 118.649C544.121 118.695 544.073 118.741 544.026 118.741C542.412 117.816 540.75 116.937 539.041 115.965C538.472 116.891 537.95 117.816 537.332 118.787C538.852 119.62 540.371 120.499 541.89 121.286C542.127 121.425 542.317 121.471 542.269 121.841C540.56 122.304 538.804 122.766 537.048 123.229C537.332 124.293 537.617 125.311 537.902 126.375C538.946 126.098 539.943 125.866 540.893 125.589C542.649 125.126 544.453 124.663 546.209 124.154C546.542 124.062 546.826 124.108 547.111 124.293C549.152 125.45 551.194 126.606 553.235 127.809C554.279 128.411 555.276 128.966 556.32 129.521C556.415 129.568 556.51 129.66 556.795 129.891C556.605 129.984 556.463 130.03 556.32 130.123C554.564 131.094 552.808 132.066 551.051 133.084C549.77 133.824 548.44 134.564 547.159 135.305C546.779 135.536 546.494 135.536 546.067 135.443C543.456 134.703 540.798 134.055 538.14 133.361C538.045 133.361 537.997 133.361 537.855 133.315C537.57 134.333 537.285 135.305 537 136.415C538.757 136.878 540.466 137.34 542.174 137.757C542.269 138.081 542.127 138.173 541.89 138.312C540.371 139.145 538.852 139.978 537.332 140.81C537.902 141.782 538.424 142.661 538.994 143.633C540.703 142.707 542.317 141.689 544.026 140.857C544.073 140.903 544.121 140.949 544.168 140.995C543.693 142.661 543.266 144.327 542.792 146.131C543.836 146.409 544.88 146.686 545.972 147.01C546.209 146.131 546.447 145.344 546.684 144.512C547.206 142.615 547.728 140.672 548.251 138.775C548.345 138.543 548.63 138.312 548.868 138.127C551.621 136.554 554.422 134.981 557.175 133.408C557.412 133.269 557.649 133.13 557.934 132.991C558.124 132.899 558.314 132.899 558.551 132.806C558.551 133.269 558.551 133.639 558.551 134.055C558.551 137.155 558.551 140.301 558.551 143.401C558.551 143.91 558.409 144.28 558.029 144.604C556.225 146.316 554.469 148.028 552.713 149.786C552.523 149.971 552.333 150.156 552.19 150.341C552.475 150.896 553.614 152.053 554.516 152.701C555.656 151.59 556.795 150.48 557.934 149.416C558.124 149.231 558.219 149.046 558.599 149.277C558.599 151.035 558.599 152.84 558.599 154.69C559.738 154.69 560.782 154.69 561.874 154.69C561.874 152.84 561.827 150.989 561.874 148.953C562.207 149.185 562.444 149.277 562.586 149.416C563.631 150.434 564.628 151.405 565.624 152.423C565.719 152.516 565.862 152.608 565.909 152.655C566.669 151.868 567.428 151.128 568.235 150.341C567.571 149.647 566.811 148.953 566.099 148.213C564.817 146.964 563.488 145.715 562.207 144.419C562.017 144.234 561.874 143.864 561.874 143.586C561.874 140.209 561.874 136.785 561.874 133.408C561.874 133.223 561.922 133.038 561.969 132.714C562.681 133.13 563.298 133.454 563.915 133.824C566.289 135.166 568.662 136.508 571.036 137.803C571.748 138.173 572.175 138.636 572.365 139.469C572.887 141.689 573.552 143.91 574.169 146.085C574.264 146.362 574.359 146.594 574.501 146.964C575.545 146.686 576.59 146.409 577.634 146.131C577.207 144.373 576.637 142.707 576.258 140.995C576.305 140.949 576.352 140.903 576.4 140.857C578.014 141.782 579.675 142.707 581.384 143.633C581.954 142.754 582.476 141.828 583.046 140.903C582.903 140.764 582.761 140.625 582.618 140.533C581.242 139.746 579.865 139.006 578.489 138.266C578.251 138.127 578.109 137.988 578.251 137.71C579.96 137.248 581.622 136.831 583.378 136.369C583.093 135.305 582.856 134.333 582.571 133.269C582.001 133.408 581.432 133.5 580.91 133.639C578.868 134.148 576.827 134.703 574.833 135.212C574.691 135.258 574.501 135.258 574.359 135.351C573.979 135.536 573.647 135.443 573.314 135.258C570.324 133.593 567.333 131.881 564.343 130.215C564.153 130.076 563.963 129.938 563.631 129.706C564.627 129.105 565.529 128.596 566.431 128.087C568.662 126.792 570.941 125.542 573.219 124.293C573.599 124.062 573.932 124.062 574.359 124.154C576.97 124.895 579.628 125.542 582.286 126.236C582.381 126.236 582.428 126.236 582.571 126.283C582.856 125.265 583.093 124.247 583.378 123.183C581.622 122.72 579.913 122.257 578.204 121.795C578.156 121.378 578.394 121.378 578.631 121.24C580.103 120.453 581.527 119.62 583.046 118.741C582.476 117.77 581.954 116.844 581.384 115.919C579.675 116.844 578.061 117.77 576.305 118.787C576.305 118.51 576.258 118.325 576.305 118.186C576.685 116.844 577.064 115.503 577.444 114.161C577.492 113.976 577.492 113.744 577.539 113.467C576.495 113.189 575.498 112.912 574.406 112.634C574.121 113.698 573.837 114.67 573.552 115.688C573.077 117.353 572.602 119.065 572.175 120.731C572.033 121.24 571.653 121.425 571.273 121.656C569.28 122.766 567.238 123.877 565.245 125.033C564.343 125.542 563.488 126.051 562.586 126.56C562.396 126.653 562.159 126.745 561.922 126.884C561.874 126.653 561.779 126.514 561.779 126.375C561.779 123.969 561.779 121.563 561.779 119.111C561.779 118.047 561.779 116.937 561.827 115.873C561.827 115.641 561.969 115.364 562.112 115.225C563.488 113.837 564.912 112.449 566.336 111.107C566.954 110.506 567.571 109.858 568.235 109.21C567.476 108.424 566.716 107.683 565.909 106.897C564.58 108.192 563.298 109.442 562.017 110.691C561.637 110.459 561.779 110.136 561.779 109.858C561.779 108.285 561.779 106.666 561.779 105C560.735 105 559.643 105 558.551 105C558.551 106.804 558.551 108.609 558.551 110.413C558.267 110.691 558.077 110.506 557.887 110.274C556.89 109.303 555.893 108.331 554.944 107.36C554.801 107.221 554.659 107.082 554.516 106.943C553.757 107.683 552.997 108.424 552.19 109.21C552.285 109.349 552.38 109.488 552.523 109.627C554.422 111.477 556.273 113.282 558.172 115.132C558.409 115.364 558.504 115.549 558.504 115.873C558.504 119.389 558.504 122.859 558.504 126.375C558.504 126.468 558.456 126.56 558.409 126.792C558.172 126.699 557.934 126.699 557.744 126.56C554.754 124.895 551.811 123.183 548.82 121.517C548.393 121.286 548.203 120.962 548.061 120.499C547.396 118.047 546.731 115.641 546.067 113.235C546.114 113.097 546.067 112.912 545.972 112.727Z" fill="#F9F0B9"/>
<path d="M255.919 219.228C255.777 219.228 255.682 219.228 255.587 219.228C254.638 219.46 253.736 219.737 252.739 220.015C253.214 221.773 253.641 223.439 254.115 225.151C254.068 225.197 254.021 225.243 253.973 225.243C252.359 224.318 250.698 223.439 248.989 222.467C248.419 223.392 247.897 224.318 247.28 225.289C248.799 226.122 250.318 227.001 251.837 227.788C252.074 227.927 252.264 227.973 252.217 228.343C250.508 228.806 248.751 229.268 246.995 229.731C247.28 230.795 247.565 231.813 247.85 232.877C248.894 232.599 249.891 232.368 250.84 232.091C252.596 231.628 254.4 231.165 256.157 230.656C256.489 230.564 256.774 230.61 257.059 230.795C259.1 231.952 261.141 233.108 263.182 234.311C264.226 234.913 265.223 235.468 266.268 236.023C266.363 236.069 266.458 236.162 266.742 236.393C266.552 236.486 266.41 236.532 266.268 236.625C264.511 237.596 262.755 238.568 260.998 239.586C259.717 240.326 258.388 241.066 257.106 241.807C256.726 242.038 256.441 242.038 256.014 241.945C253.403 241.205 250.745 240.557 248.087 239.863C247.992 239.863 247.944 239.863 247.802 239.817C247.517 240.835 247.232 241.807 246.948 242.917C248.704 243.38 250.413 243.842 252.122 244.259C252.217 244.583 252.074 244.675 251.837 244.814C250.318 245.647 248.799 246.479 247.28 247.312C247.85 248.284 248.372 249.163 248.941 250.135C250.65 249.209 252.264 248.191 253.973 247.359C254.021 247.405 254.068 247.451 254.115 247.497C253.641 249.163 253.214 250.829 252.739 252.633C253.783 252.911 254.828 253.188 255.919 253.512C256.157 252.633 256.394 251.846 256.631 251.014C257.154 249.117 257.676 247.173 258.198 245.277C258.293 245.045 258.578 244.814 258.815 244.629C261.568 243.056 264.369 241.483 267.122 239.91C267.359 239.771 267.597 239.632 267.882 239.493C268.071 239.401 268.261 239.401 268.499 239.308C268.499 239.771 268.499 240.141 268.499 240.557C268.499 243.657 268.499 246.803 268.499 249.903C268.499 250.412 268.356 250.782 267.976 251.106C266.173 252.818 264.416 254.53 262.66 256.288C262.47 256.473 262.28 256.658 262.138 256.843C262.423 257.398 263.562 258.555 264.464 259.203C265.603 258.092 266.742 256.982 267.882 255.918C268.071 255.733 268.166 255.548 268.546 255.779C268.546 257.537 268.546 259.342 268.546 261.192C269.685 261.192 270.73 261.192 271.822 261.192C271.822 259.342 271.774 257.491 271.822 255.455C272.154 255.687 272.391 255.779 272.534 255.918C273.578 256.936 274.575 257.907 275.572 258.925C275.667 259.018 275.809 259.11 275.856 259.157C276.616 258.37 277.375 257.63 278.182 256.843C277.518 256.149 276.758 255.455 276.046 254.715C274.765 253.466 273.435 252.217 272.154 250.921C271.964 250.736 271.822 250.366 271.822 250.088C271.822 246.711 271.822 243.287 271.822 239.91C271.822 239.725 271.869 239.539 271.916 239.216C272.629 239.632 273.246 239.956 273.863 240.326C276.236 241.668 278.61 243.009 280.983 244.305C281.695 244.675 282.122 245.138 282.312 245.971C282.834 248.191 283.499 250.412 284.116 252.587C284.211 252.864 284.306 253.096 284.448 253.466C285.493 253.188 286.537 252.911 287.581 252.633C287.154 250.875 286.585 249.209 286.205 247.497C286.252 247.451 286.3 247.405 286.347 247.359C287.961 248.284 289.623 249.209 291.331 250.135C291.901 249.255 292.423 248.33 292.993 247.405C292.85 247.266 292.708 247.127 292.566 247.035C291.189 246.248 289.812 245.508 288.436 244.768C288.199 244.629 288.056 244.49 288.198 244.212C289.907 243.75 291.569 243.333 293.325 242.871C293.04 241.807 292.803 240.835 292.518 239.771C291.949 239.91 291.379 240.002 290.857 240.141C288.816 240.65 286.774 241.205 284.781 241.714C284.638 241.76 284.448 241.76 284.306 241.853C283.926 242.038 283.594 241.945 283.262 241.76C280.271 240.095 277.281 238.383 274.29 236.717C274.1 236.578 273.91 236.44 273.578 236.208C274.575 235.607 275.477 235.098 276.379 234.589C278.61 233.294 280.888 232.044 283.167 230.795C283.546 230.564 283.879 230.564 284.306 230.656C286.917 231.397 289.575 232.044 292.233 232.738C292.328 232.738 292.376 232.738 292.518 232.785C292.803 231.767 293.04 230.749 293.325 229.685C291.569 229.222 289.86 228.759 288.151 228.297C288.103 227.88 288.341 227.88 288.578 227.742C290.05 226.955 291.474 226.122 292.993 225.243C292.423 224.272 291.901 223.346 291.331 222.421C289.623 223.346 288.009 224.272 286.252 225.289C286.252 225.012 286.205 224.827 286.252 224.688C286.632 223.346 287.012 222.004 287.392 220.663C287.439 220.478 287.439 220.246 287.486 219.969C286.442 219.691 285.445 219.414 284.353 219.136C284.069 220.2 283.784 221.172 283.499 222.19C283.024 223.855 282.55 225.567 282.122 227.233C281.98 227.741 281.6 227.927 281.22 228.158C279.227 229.268 277.186 230.379 275.192 231.535C274.29 232.044 273.436 232.553 272.534 233.062C272.344 233.155 272.106 233.247 271.869 233.386C271.822 233.155 271.727 233.016 271.727 232.877C271.727 230.471 271.727 228.065 271.727 225.613C271.727 224.549 271.727 223.439 271.774 222.375C271.774 222.143 271.916 221.866 272.059 221.727C273.435 220.339 274.86 218.951 276.284 217.609C276.901 217.008 277.518 216.36 278.182 215.712C277.423 214.926 276.663 214.185 275.856 213.399C274.527 214.694 273.246 215.944 271.964 217.193C271.584 216.961 271.727 216.638 271.727 216.36C271.727 214.787 271.727 213.168 271.727 211.502C270.682 211.502 269.59 211.502 268.499 211.502C268.499 213.306 268.499 215.111 268.499 216.915C268.214 217.193 268.024 217.008 267.834 216.776C266.837 215.805 265.84 214.833 264.891 213.862C264.749 213.723 264.606 213.584 264.464 213.445C263.704 214.185 262.945 214.926 262.138 215.712C262.233 215.851 262.328 215.99 262.47 216.129C264.369 217.979 266.22 219.784 268.119 221.634C268.356 221.866 268.451 222.051 268.451 222.375C268.451 225.891 268.451 229.361 268.451 232.877C268.451 232.97 268.404 233.062 268.356 233.294C268.119 233.201 267.882 233.201 267.692 233.062C264.701 231.397 261.758 229.685 258.768 228.019C258.34 227.788 258.15 227.464 258.008 227.001C257.343 224.549 256.679 222.143 256.014 219.737C256.062 219.552 256.014 219.414 255.919 219.228Z" fill="#F2DCDB"/>
<path d="M547.436 582.225C547.294 582.225 547.199 582.225 547.104 582.225C546.154 582.464 545.252 582.751 544.255 583.038C544.73 584.855 545.157 586.576 545.632 588.345C545.585 588.393 545.537 588.44 545.49 588.44C543.876 587.484 542.214 586.576 540.505 585.572C539.936 586.528 539.414 587.484 538.796 588.488C540.316 589.349 541.834 590.257 543.354 591.07C543.591 591.213 543.781 591.261 543.733 591.644C542.024 592.122 540.268 592.6 538.512 593.078C538.797 594.177 539.081 595.229 539.366 596.329C540.41 596.042 541.407 595.803 542.357 595.516C544.113 595.038 545.917 594.56 547.673 594.034C548.006 593.938 548.29 593.986 548.575 594.177C550.616 595.373 552.658 596.568 554.699 597.811C555.743 598.432 556.74 599.006 557.784 599.58C557.879 599.628 557.974 599.723 558.259 599.962C558.069 600.058 557.927 600.106 557.784 600.201C556.028 601.205 554.271 602.209 552.515 603.261C551.233 604.026 549.904 604.791 548.623 605.556C548.243 605.795 547.958 605.795 547.531 605.699C544.92 604.934 542.262 604.265 539.603 603.548C539.508 603.548 539.461 603.548 539.319 603.5C539.034 604.552 538.749 605.556 538.464 606.703C540.221 607.181 541.929 607.66 543.638 608.09C543.733 608.424 543.591 608.52 543.354 608.664C541.834 609.524 540.316 610.385 538.796 611.245C539.366 612.249 539.888 613.158 540.458 614.162C542.167 613.205 543.781 612.154 545.49 611.293C545.537 611.341 545.585 611.389 545.632 611.436C545.157 613.158 544.73 614.879 544.255 616.743C545.3 617.03 546.344 617.317 547.436 617.652C547.673 616.743 547.911 615.931 548.148 615.07C548.67 613.11 549.192 611.102 549.714 609.142C549.809 608.903 550.094 608.664 550.332 608.472C553.085 606.847 555.885 605.221 558.639 603.596C558.876 603.452 559.113 603.309 559.398 603.166C559.588 603.07 559.778 603.07 560.015 602.974C560.015 603.452 560.015 603.835 560.015 604.265C560.015 607.468 560.015 610.719 560.015 613.923C560.015 614.448 559.873 614.831 559.493 615.166C557.689 616.934 555.933 618.703 554.177 620.52C553.987 620.711 553.797 620.903 553.654 621.094C553.939 621.668 555.079 622.863 555.98 623.532C557.12 622.385 558.259 621.237 559.398 620.138C559.588 619.946 559.683 619.755 560.063 619.994C560.063 621.811 560.063 623.676 560.063 625.588C561.202 625.588 562.246 625.588 563.338 625.588C563.338 623.676 563.291 621.763 563.338 619.66C563.67 619.899 563.908 619.994 564.05 620.138C565.095 621.189 566.091 622.193 567.088 623.245C567.183 623.341 567.326 623.436 567.373 623.484C568.133 622.672 568.892 621.907 569.699 621.094C569.034 620.377 568.275 619.66 567.563 618.895C566.281 617.604 564.952 616.313 563.67 614.974C563.481 614.783 563.338 614.401 563.338 614.114C563.338 610.624 563.338 607.086 563.338 603.596C563.338 603.405 563.386 603.213 563.433 602.879C564.145 603.309 564.762 603.644 565.379 604.026C567.753 605.413 570.126 606.799 572.5 608.138C573.212 608.52 573.639 608.998 573.829 609.859C574.351 612.154 575.016 614.448 575.633 616.695C575.728 616.982 575.823 617.221 575.965 617.604C577.009 617.317 578.054 617.03 579.098 616.743C578.671 614.926 578.101 613.205 577.721 611.436C577.769 611.389 577.816 611.341 577.864 611.293C579.478 612.249 581.139 613.205 582.848 614.162C583.418 613.253 583.94 612.297 584.51 611.341C584.367 611.197 584.225 611.054 584.082 610.958C582.706 610.146 581.329 609.381 579.952 608.616C579.715 608.472 579.573 608.329 579.715 608.042C581.424 607.564 583.085 607.134 584.842 606.656C584.557 605.556 584.32 604.552 584.035 603.452C583.465 603.596 582.896 603.691 582.373 603.835C580.332 604.361 578.291 604.934 576.297 605.46C576.155 605.508 575.965 605.508 575.823 605.604C575.443 605.795 575.111 605.699 574.778 605.508C571.788 603.787 568.797 602.018 565.807 600.297C565.617 600.154 565.427 600.01 565.095 599.771C566.091 599.15 566.993 598.624 567.895 598.098C570.126 596.759 572.405 595.468 574.683 594.177C575.063 593.938 575.395 593.938 575.823 594.034C578.433 594.799 581.092 595.468 583.75 596.185C583.845 596.185 583.892 596.185 584.035 596.233C584.32 595.181 584.557 594.13 584.842 593.03C583.085 592.552 581.377 592.074 579.668 591.596C579.62 591.166 579.858 591.118 580.095 591.022C581.566 590.209 582.991 589.349 584.51 588.44C583.94 587.436 583.418 586.48 582.848 585.524C581.139 586.48 579.525 587.436 577.769 588.488C577.769 588.201 577.721 588.01 577.769 587.867C578.149 586.48 578.528 585.094 578.908 583.707C578.956 583.516 578.956 583.277 579.003 582.99C577.959 582.703 576.962 582.417 575.87 582.13C575.585 583.229 575.301 584.233 575.016 585.285C574.541 587.006 574.066 588.775 573.639 590.496C573.497 591.022 573.117 591.213 572.737 591.452C570.743 592.6 568.702 593.747 566.709 594.942C565.807 595.468 564.952 595.994 564.05 596.52C563.86 596.616 563.623 596.711 563.386 596.855C563.338 596.616 563.243 596.472 563.243 596.329C563.243 593.843 563.243 591.357 563.243 588.823C563.243 587.723 563.243 586.576 563.291 585.476C563.291 585.237 563.433 584.95 563.576 584.807C564.952 583.373 566.376 581.938 567.8 580.552C568.417 579.93 569.034 579.261 569.699 578.592C568.94 577.779 568.18 577.014 567.373 576.201C566.044 577.54 564.762 578.831 563.481 580.122C563.101 579.883 563.243 579.548 563.243 579.261C563.243 577.636 563.243 575.962 563.243 574.241C562.199 574.241 561.107 574.241 560.015 574.241C560.015 576.106 560.015 577.97 560.015 579.835C559.731 580.122 559.541 579.93 559.351 579.691C558.354 578.687 557.357 577.683 556.408 576.68C556.265 576.536 556.123 576.393 555.98 576.249C555.221 577.014 554.461 577.779 553.654 578.592C553.749 578.735 553.844 578.879 553.987 579.022C555.885 580.934 557.737 582.799 559.636 584.711C559.873 584.95 559.968 585.142 559.968 585.476C559.968 589.11 559.968 592.695 559.968 596.329C559.968 596.425 559.92 596.52 559.873 596.759C559.636 596.664 559.398 596.664 559.208 596.52C556.218 594.799 553.275 593.03 550.284 591.309C549.857 591.07 549.667 590.735 549.524 590.257C548.86 587.723 548.195 585.237 547.531 582.751C547.531 582.608 547.483 582.417 547.436 582.225Z" fill="#F2DCDB"/>
<path d="M290.702 722.757C290.56 722.757 290.465 722.757 290.37 722.757C289.421 722.988 288.519 723.266 287.522 723.543C287.997 725.301 288.424 726.967 288.899 728.679C288.851 728.725 288.804 728.771 288.756 728.771C287.142 727.846 285.481 726.967 283.772 725.995C283.202 726.921 282.68 727.846 282.063 728.818C283.582 729.651 285.101 730.53 286.62 731.316C286.857 731.455 287.047 731.501 287 731.871C285.291 732.334 283.535 732.797 281.778 733.259C282.063 734.323 282.348 735.341 282.633 736.405C283.677 736.128 284.674 735.897 285.623 735.619C287.38 735.156 289.183 734.694 290.94 734.185C291.272 734.092 291.557 734.138 291.842 734.323C293.883 735.48 295.924 736.637 297.965 737.84C299.01 738.441 300.006 738.996 301.051 739.552C301.146 739.598 301.241 739.69 301.525 739.922C301.336 740.014 301.193 740.06 301.051 740.153C299.294 741.125 297.538 742.096 295.782 743.114C294.5 743.854 293.171 744.595 291.889 745.335C291.509 745.566 291.225 745.566 290.797 745.474C288.187 744.733 285.528 744.086 282.87 743.392C282.775 743.392 282.728 743.392 282.585 743.345C282.3 744.363 282.016 745.335 281.731 746.445C283.487 746.908 285.196 747.371 286.905 747.787C287 748.111 286.857 748.203 286.62 748.342C285.101 749.175 283.582 750.008 282.063 750.841C282.633 751.812 283.155 752.691 283.724 753.663C285.433 752.738 287.047 751.72 288.756 750.887C288.804 750.933 288.851 750.979 288.899 751.026C288.424 752.691 287.997 754.357 287.522 756.161C288.566 756.439 289.611 756.716 290.702 757.04C290.94 756.161 291.177 755.375 291.414 754.542C291.937 752.645 292.459 750.702 292.981 748.805C293.076 748.574 293.361 748.342 293.598 748.157C296.351 746.584 299.152 745.011 301.905 743.438C302.143 743.299 302.38 743.16 302.665 743.022C302.855 742.929 303.044 742.929 303.282 742.837C303.282 743.299 303.282 743.669 303.282 744.086C303.282 747.186 303.282 750.332 303.282 753.432C303.282 753.94 303.139 754.311 302.76 754.634C300.956 756.346 299.2 758.058 297.443 759.816C297.253 760.001 297.063 760.186 296.921 760.372C297.206 760.927 298.345 762.083 299.247 762.731C300.386 761.621 301.526 760.51 302.665 759.446C302.855 759.261 302.95 759.076 303.329 759.307C303.329 761.066 303.329 762.87 303.329 764.721C304.469 764.721 305.513 764.721 306.605 764.721C306.605 762.87 306.557 761.019 306.605 758.983C306.937 759.215 307.174 759.307 307.317 759.446C308.361 760.464 309.358 761.436 310.355 762.453C310.45 762.546 310.592 762.639 310.64 762.685C311.399 761.898 312.159 761.158 312.966 760.372C312.301 759.678 311.542 758.984 310.83 758.243C309.548 756.994 308.219 755.745 306.937 754.449C306.747 754.264 306.605 753.894 306.605 753.617C306.605 750.239 306.605 746.815 306.605 743.438C306.605 743.253 306.652 743.068 306.7 742.744C307.412 743.16 308.029 743.484 308.646 743.854C311.019 745.196 313.393 746.538 315.766 747.833C316.478 748.203 316.906 748.666 317.095 749.499C317.618 751.72 318.282 753.94 318.899 756.115C318.994 756.393 319.089 756.624 319.232 756.994C320.276 756.716 321.32 756.439 322.365 756.161C321.937 754.403 321.368 752.738 320.988 751.026C321.035 750.979 321.083 750.933 321.13 750.887C322.744 751.812 324.406 752.738 326.115 753.663C326.684 752.784 327.206 751.858 327.776 750.933C327.634 750.794 327.491 750.656 327.349 750.563C325.972 749.776 324.596 749.036 323.219 748.296C322.982 748.157 322.839 748.018 322.982 747.741C324.691 747.278 326.352 746.862 328.108 746.399C327.824 745.335 327.586 744.363 327.301 743.299C326.732 743.438 326.162 743.53 325.64 743.669C323.599 744.178 321.558 744.733 319.564 745.242C319.422 745.289 319.232 745.289 319.089 745.381C318.709 745.566 318.377 745.474 318.045 745.289C315.054 743.623 312.064 741.911 309.073 740.246C308.883 740.107 308.693 739.968 308.361 739.737C309.358 739.135 310.26 738.626 311.162 738.117C313.393 736.822 315.671 735.573 317.95 734.323C318.33 734.092 318.662 734.092 319.089 734.185C321.7 734.925 324.358 735.573 327.017 736.267C327.111 736.267 327.159 736.267 327.301 736.313C327.586 735.295 327.824 734.277 328.108 733.213C326.352 732.75 324.643 732.288 322.934 731.825C322.887 731.409 323.124 731.362 323.361 731.27C324.833 730.483 326.257 729.65 327.776 728.771C327.206 727.8 326.684 726.874 326.115 725.949C324.406 726.874 322.792 727.8 321.035 728.818C321.035 728.54 320.988 728.355 321.035 728.216C321.415 726.875 321.795 725.533 322.175 724.191C322.222 724.006 322.222 723.775 322.27 723.497C321.225 723.219 320.229 722.942 319.137 722.664C318.852 723.728 318.567 724.7 318.282 725.718C317.807 727.383 317.333 729.095 316.906 730.761C316.763 731.27 316.383 731.455 316.004 731.686C314.01 732.797 311.969 733.907 309.975 735.064C309.073 735.573 308.219 736.082 307.317 736.59C307.127 736.683 306.89 736.776 306.652 736.914C306.605 736.683 306.51 736.544 306.51 736.405C306.51 734 306.51 731.594 306.51 729.142C306.51 728.077 306.51 726.967 306.557 725.903C306.557 725.672 306.7 725.394 306.842 725.255C308.219 723.867 309.643 722.479 311.067 721.137C311.684 720.536 312.301 719.888 312.966 719.241C312.206 718.454 311.447 717.714 310.64 716.927C309.311 718.223 308.029 719.472 306.747 720.721C306.367 720.49 306.51 720.166 306.51 719.888C306.51 718.315 306.51 716.696 306.51 715.03C305.466 715.03 304.374 715.03 303.282 715.03C303.282 716.835 303.282 718.639 303.282 720.443C302.997 720.721 302.807 720.536 302.617 720.305C301.62 719.333 300.624 718.361 299.674 717.39C299.532 717.251 299.389 717.112 299.247 716.973C298.488 717.714 297.728 718.454 296.921 719.241C297.016 719.379 297.111 719.518 297.253 719.657C299.152 721.508 301.003 723.312 302.902 725.163C303.139 725.394 303.234 725.579 303.234 725.903C303.234 729.419 303.234 732.889 303.234 736.405C303.234 736.498 303.187 736.59 303.139 736.822C302.902 736.729 302.665 736.729 302.475 736.59C299.484 734.925 296.541 733.213 293.551 731.547C293.123 731.316 292.934 730.992 292.791 730.53C292.127 728.077 291.462 725.672 290.797 723.266C290.845 723.127 290.75 722.942 290.702 722.757Z" fill="#F9F0B9"/>
<path d="M86.9721 1010.96C86.8297 1010.96 86.7347 1010.96 86.6398 1010.96C85.6904 1011.19 84.7884 1011.47 83.7916 1011.75C84.2663 1013.51 84.6935 1015.17 85.1682 1016.88C85.1208 1016.93 85.0733 1016.98 85.0258 1016.98C83.4119 1016.05 81.7504 1015.17 80.0415 1014.2C79.4718 1015.12 78.9497 1016.05 78.3326 1017.02C79.8517 1017.85 81.3706 1018.73 82.8896 1019.52C83.127 1019.66 83.317 1019.71 83.2695 1020.08C81.5606 1020.54 79.8042 1021 78.0478 1021.46C78.3326 1022.53 78.6174 1023.55 78.9022 1024.61C79.9466 1024.33 80.9434 1024.1 81.8928 1023.82C83.6492 1023.36 85.453 1022.9 87.2094 1022.39C87.5417 1022.3 87.8265 1022.34 88.1113 1022.53C90.1525 1023.68 92.1937 1024.84 94.2349 1026.04C95.2792 1026.65 96.276 1027.2 97.3204 1027.76C97.4153 1027.8 97.5103 1027.89 97.7951 1028.13C97.6052 1028.22 97.4628 1028.26 97.3204 1028.36C95.564 1029.33 93.8076 1030.3 92.0512 1031.32C90.7695 1032.06 89.4405 1032.8 88.1588 1033.54C87.7791 1033.77 87.4942 1033.77 87.067 1033.68C84.4562 1032.94 81.7978 1032.29 79.1395 1031.6C79.0446 1031.6 78.9971 1031.6 78.8547 1031.55C78.5699 1032.57 78.2851 1033.54 78.0003 1034.65C79.7567 1035.11 81.4656 1035.57 83.1744 1035.99C83.2694 1036.31 83.127 1036.41 82.8896 1036.55C81.3706 1037.38 79.8517 1038.21 78.3326 1039.04C78.9023 1040.02 79.4245 1040.9 79.9941 1041.87C81.703 1040.94 83.3169 1039.92 85.0258 1039.09C85.0733 1039.14 85.1208 1039.18 85.1682 1039.23C84.6935 1040.9 84.2663 1042.56 83.7916 1044.37C84.8359 1044.64 85.8803 1044.92 86.9721 1045.24C87.2094 1044.37 87.4467 1043.58 87.6841 1042.75C88.2063 1040.85 88.7284 1038.91 89.2505 1037.01C89.3455 1036.78 89.6303 1036.55 89.8676 1036.36C92.6209 1034.79 95.4216 1033.22 98.1748 1031.64C98.4121 1031.5 98.6495 1031.36 98.9343 1031.23C99.1242 1031.13 99.3141 1031.13 99.5514 1031.04C99.5514 1031.5 99.5514 1031.87 99.5514 1032.29C99.5514 1035.39 99.5514 1038.54 99.5514 1041.64C99.5514 1042.14 99.4089 1042.51 99.0292 1042.84C97.2254 1044.55 95.469 1046.26 93.7126 1048.02C93.5228 1048.21 93.333 1048.39 93.1906 1048.58C93.4754 1049.13 94.6146 1050.29 95.5165 1050.94C96.6558 1049.82 97.795 1048.71 98.9343 1047.65C99.1242 1047.47 99.2192 1047.28 99.5989 1047.51C99.5989 1049.27 99.5989 1051.07 99.5989 1052.92C100.738 1052.92 101.782 1052.92 102.874 1052.92C102.874 1051.07 102.827 1049.22 102.874 1047.19C103.206 1047.42 103.444 1047.51 103.586 1047.65C104.631 1048.67 105.627 1049.64 106.624 1050.66C106.719 1050.75 106.862 1050.84 106.909 1050.89C107.669 1050.1 108.428 1049.36 109.235 1048.58C108.571 1047.88 107.811 1047.19 107.099 1046.45C105.817 1045.2 104.488 1043.95 103.207 1042.65C103.017 1042.47 102.874 1042.1 102.874 1041.82C102.874 1038.44 102.874 1035.02 102.874 1031.64C102.874 1031.46 102.922 1031.27 102.969 1030.95C103.681 1031.36 104.298 1031.69 104.915 1032.06C107.289 1033.4 109.662 1034.74 112.036 1036.04C112.748 1036.41 113.175 1036.87 113.365 1037.7C113.887 1039.92 114.552 1042.14 115.169 1044.32C115.264 1044.6 115.359 1044.83 115.501 1045.2C116.545 1044.92 117.59 1044.64 118.634 1044.37C118.207 1042.61 117.637 1040.94 117.258 1039.23C117.305 1039.18 117.352 1039.14 117.4 1039.09C119.014 1040.02 120.675 1040.94 122.384 1041.87C122.954 1040.99 123.476 1040.06 124.046 1039.14C123.903 1039 123.761 1038.86 123.618 1038.77C122.242 1037.98 120.865 1037.24 119.488 1036.5C119.251 1036.36 119.109 1036.22 119.251 1035.94C120.96 1035.48 122.622 1035.07 124.378 1034.6C124.093 1033.54 123.856 1032.57 123.571 1031.5C123.001 1031.64 122.432 1031.73 121.909 1031.87C119.868 1032.38 117.827 1032.94 115.833 1033.45C115.691 1033.49 115.501 1033.49 115.359 1033.59C114.979 1033.77 114.647 1033.68 114.314 1033.49C111.324 1031.83 108.333 1030.12 105.343 1028.45C105.153 1028.31 104.963 1028.17 104.631 1027.94C105.628 1027.34 106.529 1026.83 107.431 1026.32C109.662 1025.03 111.941 1023.78 114.219 1022.53C114.599 1022.3 114.931 1022.3 115.359 1022.39C117.969 1023.13 120.628 1023.78 123.286 1024.47C123.381 1024.47 123.428 1024.47 123.571 1024.52C123.856 1023.5 124.093 1022.48 124.378 1021.42C122.622 1020.95 120.913 1020.49 119.204 1020.03C119.156 1019.61 119.394 1019.61 119.631 1019.47C121.103 1018.69 122.527 1017.85 124.046 1016.98C123.476 1016 122.954 1015.08 122.384 1014.15C120.675 1015.08 119.061 1016 117.305 1017.02C117.305 1016.74 117.257 1016.56 117.305 1016.42C117.685 1015.08 118.065 1013.74 118.444 1012.4C118.492 1012.21 118.492 1011.98 118.539 1011.7C117.495 1011.42 116.498 1011.15 115.406 1010.87C115.121 1011.93 114.837 1012.9 114.552 1013.92C114.077 1015.59 113.602 1017.3 113.175 1018.96C113.033 1019.47 112.653 1019.66 112.273 1019.89C110.279 1021 108.238 1022.11 106.245 1023.27C105.343 1023.78 104.488 1024.29 103.586 1024.79C103.396 1024.89 103.159 1024.98 102.922 1025.12C102.874 1024.89 102.779 1024.75 102.779 1024.61C102.779 1022.2 102.779 1019.8 102.779 1017.35C102.779 1016.28 102.779 1015.17 102.827 1014.11C102.827 1013.88 102.969 1013.6 103.112 1013.46C104.488 1012.07 105.912 1010.68 107.336 1009.34C107.953 1008.74 108.571 1008.09 109.235 1007.44C108.476 1006.66 107.716 1005.92 106.909 1005.13C105.58 1006.43 104.298 1007.68 103.017 1008.93C102.637 1008.69 102.779 1008.37 102.779 1008.09C102.779 1006.52 102.779 1004.9 102.779 1003.23C101.735 1003.23 100.643 1003.23 99.5514 1003.23C99.5514 1005.04 99.5514 1006.84 99.5514 1008.65C99.2666 1008.93 99.0767 1008.74 98.8868 1008.51C97.8899 1007.54 96.8931 1006.57 95.9437 1005.59C95.8013 1005.46 95.6589 1005.32 95.5165 1005.18C94.757 1005.92 93.9975 1006.66 93.1906 1007.44C93.2855 1007.58 93.3805 1007.72 93.5229 1007.86C95.4216 1009.71 97.2728 1011.52 99.1716 1013.37C99.4089 1013.6 99.5039 1013.78 99.5039 1014.11C99.5039 1017.62 99.5039 1021.09 99.5039 1024.61C99.5039 1024.7 99.4565 1024.79 99.409 1025.03C99.1717 1024.93 98.9343 1024.93 98.7444 1024.79C95.7538 1023.13 92.8107 1021.42 89.8201 1019.75C89.3929 1019.52 89.2032 1019.2 89.0607 1018.73C88.3962 1016.28 87.7315 1013.88 87.067 1011.47C87.067 1011.33 87.0196 1011.15 86.9721 1010.96Z" fill="#F9F0B9"/>
<path d="M1722.37 675.61L1679.92 547.946L1640.52 675.61H1676.36V691.591H1683.48V675.61H1722.37Z" fill="#D7E8E6"/>
<path d="M1315.09 642.346L1313.71 634.494H1280.73L1279.3 642.346H1315.09Z" fill="#D7E8E6"/>
<path d="M1328.03 714.353H1265.86L1264.42 722.02L1329.83 724.376L1328.03 714.353Z" fill="#D7E8E6"/>
<path d="M1316.89 652.369L1316.52 650.29L1315.92 646.78H1278.47L1276.34 657.957L1316.89 652.369Z" fill="#D7E8E6"/>
<path d="M1282.35 625.949H1312.18L1306.59 594.818H1288.17L1282.35 625.949Z" fill="#D7E8E6"/>
<path d="M1338.6 773.381L1336.94 764.144L1257.96 756.661L1252 788.531H1292.41V820.262H1301.14V787.007H1341.05L1338.6 773.381Z" fill="#D7E8E6"/>
<path opacity="0.75" d="M1305.81 590.476L1305.16 586.874L1297.54 544.427L1288.95 590.476H1305.81Z" fill="#D7E8E6"/>
<path d="M1274.96 665.578L1266.92 708.533H1326.96L1320.96 674.862L1318.19 659.573L1274.96 665.578Z" fill="#D7E8E6"/>
<path d="M1331.49 733.659L1262.72 731.165L1259.3 749.41L1335.6 756.615L1331.49 733.659Z" fill="#D7E8E6"/>
<path d="M1645.82 498.028L1597.37 289.35L1552.38 498.028H1593.3V524.124H1601.43V498.028H1645.82Z" fill="#F2DCDB"/>
<g opacity="0.75">
<path opacity="0.75" d="M1485.24 275.898L1483.53 268.646H1443.07L1441.27 275.898H1485.24Z" fill="#F2DCDB"/>
</g>
<g opacity="0.75">
<path opacity="0.75" d="M1501.08 342.732H1424.78L1423.02 349.845L1503.3 352.016L1501.08 342.732Z" fill="#F2DCDB"/>
</g>
<g opacity="0.75">
<path opacity="0.75" d="M1487.45 285.182L1486.99 283.288L1486.21 280.009H1440.25L1437.71 290.447L1487.45 285.182Z" fill="#F2DCDB"/>
</g>
<g opacity="0.75">
<path opacity="0.75" d="M1445.01 260.702H1481.64L1474.8 231.789H1452.17L1445.01 260.702Z" fill="#F2DCDB"/>
</g>
<g opacity="0.75">
<path opacity="0.75" d="M1514.06 397.511L1512.03 388.967L1415.08 382.038L1407.78 411.599H1457.43V441.067H1468.1V410.167H1517.06L1514.06 397.511Z" fill="#F2DCDB"/>
</g>
<g opacity="0.75">
<path opacity="0.75" d="M1473.83 227.77L1473.04 224.398L1463.71 185L1453.14 227.77H1473.83Z" fill="#F2DCDB"/>
</g>
<g opacity="0.75">
<path opacity="0.75" d="M1435.96 297.514L1426.12 337.328H1499.83L1492.4 306.105L1489.03 291.926L1435.96 297.514Z" fill="#F2DCDB"/>
</g>
<g opacity="0.75">
<path opacity="0.75" d="M1505.33 360.654L1420.94 358.39L1416.74 375.295L1510.41 381.992L1505.33 360.654Z" fill="#F2DCDB"/>
</g>
<g opacity="0.75">
<path opacity="0.75" d="M1649.94 985.898L1648.23 978.646H1607.77L1605.97 985.898H1649.94Z" fill="#F2DCDB"/>
</g>
<g opacity="0.75">
<path opacity="0.75" d="M1665.79 1052.73H1589.48L1587.73 1059.85L1668 1062.02L1665.79 1052.73Z" fill="#F2DCDB"/>
</g>
<g opacity="0.75">
<path opacity="0.75" d="M1652.16 995.182L1651.7 993.288L1650.91 990.009H1604.96L1602.42 1000.45L1652.16 995.182Z" fill="#F2DCDB"/>
</g>
<g opacity="0.75">
<path opacity="0.75" d="M1609.71 970.702H1646.34L1639.51 941.789H1616.87L1609.71 970.702Z" fill="#F2DCDB"/>
</g>
<g opacity="0.75">
<path opacity="0.75" d="M1678.77 1107.51L1676.73 1098.97L1579.78 1092.04L1572.49 1121.6H1622.14V1151.07H1632.81V1120.17H1681.77L1678.77 1107.51Z" fill="#F2DCDB"/>
</g>
<g opacity="0.75">
<path opacity="0.75" d="M1638.54 937.77L1637.75 934.398L1628.42 895L1617.84 937.77H1638.54Z" fill="#F2DCDB"/>
</g>
<g opacity="0.75">
<path opacity="0.75" d="M1600.66 1007.51L1590.82 1047.33H1664.54L1657.1 1016.11L1653.73 1001.93L1600.66 1007.51Z" fill="#F2DCDB"/>
</g>
<g opacity="0.75">
<path opacity="0.75" d="M1670.04 1070.65L1585.65 1068.39L1581.45 1085.3L1675.12 1091.99L1670.04 1070.65Z" fill="#F2DCDB"/>
</g>
<path d="M1826.36 450.207L1780.22 329.102L1737.4 450.207H1776.38V465.357H1784.1V450.207H1826.36Z" fill="#F9F0B9"/>
<g opacity="0.75">
<path opacity="0.75" d="M1546.05 709.86L1544.34 702.563H1503.88L1502.08 709.86H1546.05Z" fill="#F2DCDB"/>
</g>
<g opacity="0.75">
<path opacity="0.75" d="M1561.89 776.648H1485.59L1483.83 783.808L1564.11 785.978L1561.89 776.648Z" fill="#F2DCDB"/>
</g>
<g opacity="0.75">
<path opacity="0.75" d="M1548.26 719.144L1547.8 717.204L1547.02 713.971H1501.06L1498.47 724.364L1548.26 719.144Z" fill="#F2DCDB"/>
</g>
<g opacity="0.75">
<path opacity="0.75" d="M1505.82 694.665H1542.44L1535.61 665.751H1512.93L1505.82 694.665Z" fill="#F2DCDB"/>
</g>
<g opacity="0.75">
<path opacity="0.75" d="M1574.87 831.474L1572.84 822.883L1475.89 815.954L1468.59 845.561H1518.19V874.983H1528.91V844.129H1577.87L1574.87 831.474Z" fill="#F2DCDB"/>
</g>
<g opacity="0.75">
<path opacity="0.75" d="M1534.64 661.686L1533.85 658.361L1524.48 618.962L1513.95 661.686H1534.64Z" fill="#F2DCDB"/>
</g>
<g opacity="0.75">
<path opacity="0.75" d="M1496.76 731.43L1486.93 771.291H1560.6L1553.21 740.021L1549.83 725.842L1496.76 731.43Z" fill="#F2DCDB"/>
</g>
<g opacity="0.75">
<path opacity="0.75" d="M1566.14 794.616L1481.71 792.306L1477.55 809.257L1571.17 815.908L1566.14 794.616Z" fill="#F2DCDB"/>
</g>
<path d="M1294.66 378.792C1310.11 378.792 1310.16 403.638 1294.66 403.638C1279.22 403.638 1279.22 378.792 1294.66 378.792Z" fill="#D7E8E6"/>
<path d="M1379.15 850.851C1396.81 850.851 1396.81 875.696 1379.15 875.696C1361.48 875.696 1361.48 850.851 1379.15 850.851Z" fill="#F2DCDB"/>
<path d="M1353.47 242.973C1370.04 242.973 1370.04 269.474 1353.47 269.474C1336.91 269.426 1336.91 242.973 1353.47 242.973Z" fill="#F2DCDB"/>
<path d="M1837.12 221.44C1853.69 221.44 1853.69 247.941 1837.12 247.941C1820.59 247.941 1820.54 221.44 1837.12 221.44Z" fill="#F2DCDB"/>
<path d="M1857 562.647C1871.33 562.647 1871.38 585.836 1857 585.836C1842.67 585.836 1842.62 562.647 1857 562.647Z" fill="#F9F0B9"/>
<path d="M1498.39 532.833C1513.87 532.833 1513.87 557.678 1498.39 557.678C1482.97 557.678 1482.92 532.833 1498.39 532.833Z" fill="#F9F0B9"/>
<path d="M1399.8 112.727C1399.94 112.727 1400.03 112.727 1400.13 112.727C1401.08 112.958 1401.98 113.235 1402.98 113.513C1402.5 115.271 1402.07 116.937 1401.6 118.649C1401.65 118.695 1401.69 118.741 1401.74 118.741C1403.36 117.816 1405.02 116.937 1406.73 115.965C1407.3 116.891 1407.82 117.816 1408.44 118.787C1406.92 119.62 1405.4 120.499 1403.88 121.286C1403.64 121.425 1403.45 121.471 1403.5 121.841C1405.21 122.304 1406.96 122.766 1408.72 123.229C1408.44 124.293 1408.15 125.311 1407.87 126.375C1406.82 126.098 1405.82 125.866 1404.87 125.589C1403.12 125.126 1401.31 124.663 1399.56 124.154C1399.23 124.062 1398.94 124.108 1398.66 124.293C1396.62 125.45 1394.57 126.606 1392.53 127.809C1391.49 128.411 1390.49 128.966 1389.45 129.521C1389.35 129.568 1389.26 129.66 1388.97 129.891C1389.16 129.984 1389.3 130.03 1389.45 130.123C1391.2 131.094 1392.96 132.066 1394.72 133.084C1396 133.824 1397.33 134.564 1398.61 135.305C1398.99 135.536 1399.27 135.536 1399.7 135.443C1402.31 134.703 1404.97 134.055 1407.63 133.361C1407.72 133.361 1407.77 133.361 1407.91 133.315C1408.2 134.333 1408.48 135.305 1408.77 136.415C1407.01 136.878 1405.3 137.34 1403.59 137.757C1403.5 138.081 1403.64 138.173 1403.88 138.312C1405.4 139.145 1406.92 139.978 1408.44 140.81C1407.87 141.782 1407.34 142.661 1406.77 143.633C1405.06 142.707 1403.45 141.689 1401.74 140.857C1401.69 140.903 1401.65 140.949 1401.6 140.995C1402.07 142.661 1402.5 144.327 1402.98 146.131C1401.93 146.409 1400.89 146.686 1399.8 147.01C1399.56 146.131 1399.32 145.344 1399.08 144.512C1398.56 142.615 1398.04 140.672 1397.52 138.775C1397.42 138.543 1397.14 138.312 1396.9 138.127C1394.15 136.554 1391.35 134.981 1388.59 133.408C1388.36 133.269 1388.12 133.13 1387.83 132.991C1387.64 132.899 1387.45 132.899 1387.22 132.806C1387.22 133.269 1387.22 133.639 1387.22 134.055C1387.22 137.155 1387.22 140.301 1387.22 143.401C1387.22 143.91 1387.36 144.28 1387.74 144.604C1389.54 146.316 1391.3 148.028 1393.05 149.786C1393.24 149.971 1393.43 150.156 1393.58 150.341C1393.29 150.896 1392.15 152.053 1391.25 152.701C1390.11 151.59 1388.97 150.48 1387.83 149.416C1387.64 149.231 1387.55 149.046 1387.17 149.277C1387.17 151.035 1387.17 152.84 1387.17 154.69C1386.03 154.69 1384.99 154.69 1383.89 154.69C1383.89 152.84 1383.94 150.989 1383.89 148.953C1383.56 149.185 1383.32 149.277 1383.18 149.416C1382.14 150.434 1381.14 151.405 1380.14 152.423C1380.05 152.516 1379.91 152.608 1379.86 152.655C1379.1 151.868 1378.34 151.128 1377.53 150.341C1378.2 149.647 1378.96 148.953 1379.67 148.213C1380.95 146.964 1382.28 145.715 1383.56 144.419C1383.75 144.234 1383.89 143.864 1383.89 143.586C1383.89 140.209 1383.89 136.785 1383.89 133.408C1383.89 133.223 1383.85 133.038 1383.8 132.714C1383.09 133.13 1382.47 133.454 1381.85 133.824C1379.48 135.166 1377.11 136.508 1374.73 137.803C1374.02 138.173 1373.59 138.636 1373.4 139.469C1372.88 141.689 1372.22 143.91 1371.6 146.085C1371.5 146.362 1371.41 146.594 1371.27 146.964C1370.22 146.686 1369.18 146.409 1368.13 146.131C1368.56 144.373 1369.13 142.707 1369.51 140.995C1369.46 140.949 1369.42 140.903 1369.37 140.857C1367.75 141.782 1366.09 142.707 1364.38 143.633C1363.81 142.754 1363.29 141.828 1362.72 140.903C1362.86 140.764 1363.01 140.625 1363.15 140.533C1364.53 139.746 1365.9 139.006 1367.28 138.266C1367.52 138.127 1367.66 137.988 1367.52 137.71C1365.81 137.248 1364.15 136.831 1362.39 136.369C1362.67 135.305 1362.91 134.333 1363.2 133.269C1363.77 133.408 1364.34 133.5 1364.86 133.639C1366.9 134.148 1368.94 134.703 1370.93 135.212C1371.08 135.258 1371.27 135.258 1371.41 135.351C1371.79 135.536 1372.12 135.443 1372.45 135.258C1375.44 133.593 1378.43 131.881 1381.42 130.215C1381.61 130.076 1381.8 129.938 1382.14 129.706C1381.14 129.105 1380.24 128.596 1379.34 128.087C1377.11 126.792 1374.83 125.542 1372.55 124.293C1372.17 124.062 1371.84 124.062 1371.41 124.154C1368.8 124.895 1366.14 125.542 1363.48 126.236C1363.39 126.236 1363.34 126.236 1363.2 126.283C1362.91 125.265 1362.67 124.247 1362.39 123.183C1364.15 122.72 1365.85 122.257 1367.56 121.795C1367.61 121.378 1367.37 121.378 1367.14 121.24C1365.67 120.453 1364.24 119.62 1362.72 118.741C1363.29 117.77 1363.81 116.844 1364.38 115.919C1366.09 116.844 1367.71 117.77 1369.46 118.787C1369.46 118.51 1369.51 118.325 1369.46 118.186C1369.08 116.844 1368.7 115.503 1368.32 114.161C1368.28 113.976 1368.28 113.744 1368.23 113.467C1369.27 113.189 1370.27 112.912 1371.36 112.634C1371.65 113.698 1371.93 114.67 1372.22 115.688C1372.69 117.353 1373.17 119.065 1373.59 120.731C1373.73 121.24 1374.11 121.425 1374.49 121.656C1376.49 122.766 1378.53 123.877 1380.52 125.033C1381.42 125.542 1382.28 126.051 1383.18 126.56C1383.37 126.653 1383.61 126.745 1383.85 126.884C1383.89 126.653 1383.99 126.514 1383.99 126.375C1383.99 123.969 1383.99 121.563 1383.99 119.111C1383.99 118.047 1383.99 116.937 1383.94 115.873C1383.94 115.641 1383.8 115.364 1383.66 115.225C1382.28 113.837 1380.86 112.449 1379.43 111.107C1378.81 110.506 1378.2 109.858 1377.53 109.21C1378.29 108.424 1379.05 107.683 1379.86 106.897C1381.19 108.192 1382.47 109.442 1383.75 110.691C1384.13 110.459 1383.99 110.136 1383.99 109.858C1383.99 108.285 1383.99 106.666 1383.99 105C1385.03 105 1386.12 105 1387.22 105C1387.22 106.804 1387.22 108.609 1387.22 110.413C1387.5 110.691 1387.69 110.506 1387.88 110.274C1388.88 109.303 1389.87 108.331 1390.82 107.36C1390.97 107.221 1391.11 107.082 1391.25 106.943C1392.01 107.683 1392.77 108.424 1393.58 109.21C1393.48 109.349 1393.39 109.488 1393.24 109.627C1391.35 111.477 1389.49 113.282 1387.6 115.132C1387.36 115.364 1387.26 115.549 1387.26 115.873C1387.26 119.389 1387.26 122.859 1387.26 126.375C1387.26 126.468 1387.31 126.56 1387.36 126.792C1387.6 126.699 1387.83 126.699 1388.02 126.56C1391.01 124.895 1393.96 123.183 1396.95 121.517C1397.37 121.286 1397.56 120.962 1397.71 120.499C1398.37 118.047 1399.04 115.641 1399.7 113.235C1399.65 113.097 1399.7 112.912 1399.8 112.727Z" fill="#F9F0B9"/>
<path d="M1689.85 219.228C1689.99 219.228 1690.09 219.228 1690.18 219.228C1691.13 219.46 1692.03 219.737 1693.03 220.015C1692.55 221.773 1692.13 223.439 1691.65 225.151C1691.7 225.197 1691.75 225.243 1691.79 225.243C1693.41 224.318 1695.07 223.439 1696.78 222.467C1697.35 223.392 1697.87 224.318 1698.49 225.289C1696.97 226.122 1695.45 227.001 1693.93 227.788C1693.69 227.927 1693.5 227.973 1693.55 228.343C1695.26 228.806 1697.02 229.268 1698.77 229.731C1698.49 230.795 1698.2 231.813 1697.92 232.877C1696.87 232.599 1695.88 232.368 1694.93 232.091C1693.17 231.628 1691.37 231.165 1689.61 230.656C1689.28 230.564 1688.99 230.61 1688.71 230.795C1686.67 231.952 1684.63 233.108 1682.59 234.311C1681.54 234.913 1680.54 235.468 1679.5 236.023C1679.41 236.069 1679.31 236.162 1679.03 236.393C1679.22 236.486 1679.36 236.532 1679.5 236.625C1681.26 237.596 1683.01 238.568 1684.77 239.586C1686.05 240.326 1687.38 241.066 1688.66 241.807C1689.04 242.038 1689.33 242.038 1689.75 241.945C1692.36 241.205 1695.02 240.557 1697.68 239.863C1697.78 239.863 1697.82 239.863 1697.97 239.817C1698.25 240.835 1698.54 241.807 1698.82 242.917C1697.06 243.38 1695.35 243.842 1693.65 244.259C1693.55 244.583 1693.69 244.675 1693.93 244.814C1695.45 245.647 1696.97 246.479 1698.49 247.312C1697.92 248.284 1697.4 249.163 1696.83 250.135C1695.12 249.209 1693.5 248.191 1691.79 247.359C1691.75 247.405 1691.7 247.451 1691.65 247.497C1692.13 249.163 1692.55 250.829 1693.03 252.633C1691.98 252.911 1690.94 253.188 1689.85 253.512C1689.61 252.633 1689.37 251.846 1689.14 251.014C1688.61 249.117 1688.09 247.173 1687.57 245.277C1687.47 245.045 1687.19 244.814 1686.95 244.629C1684.2 243.056 1681.4 241.483 1678.65 239.91C1678.41 239.771 1678.17 239.632 1677.89 239.493C1677.7 239.401 1677.51 239.401 1677.27 239.308C1677.27 239.771 1677.27 240.141 1677.27 240.557C1677.27 243.657 1677.27 246.803 1677.27 249.903C1677.27 250.412 1677.41 250.782 1677.79 251.106C1679.59 252.818 1681.35 254.53 1683.11 256.288C1683.3 256.473 1683.49 256.658 1683.63 256.843C1683.34 257.398 1682.21 258.555 1681.3 259.203C1680.16 258.092 1679.03 256.982 1677.89 255.918C1677.7 255.733 1677.6 255.548 1677.22 255.779C1677.22 257.537 1677.22 259.342 1677.22 261.192C1676.08 261.192 1675.04 261.192 1673.95 261.192C1673.95 259.342 1673.99 257.491 1673.95 255.455C1673.61 255.687 1673.38 255.779 1673.23 255.918C1672.19 256.936 1671.19 257.907 1670.2 258.925C1670.1 259.018 1669.96 259.11 1669.91 259.157C1669.15 258.37 1668.39 257.63 1667.59 256.843C1668.25 256.149 1669.01 255.455 1669.72 254.715C1671 253.466 1672.33 252.217 1673.61 250.921C1673.8 250.736 1673.95 250.366 1673.95 250.088C1673.95 246.711 1673.95 243.287 1673.95 239.91C1673.95 239.725 1673.9 239.539 1673.85 239.216C1673.14 239.632 1672.52 239.956 1671.9 240.326C1669.53 241.668 1667.16 243.009 1664.78 244.305C1664.07 244.675 1663.65 245.138 1663.46 245.971C1662.93 248.191 1662.27 250.412 1661.65 252.587C1661.56 252.864 1661.46 253.096 1661.32 253.466C1660.27 253.188 1659.23 252.911 1658.19 252.633C1658.61 250.875 1659.18 249.209 1659.56 247.497C1659.52 247.451 1659.47 247.405 1659.42 247.359C1657.81 248.284 1656.15 249.209 1654.44 250.135C1653.87 249.255 1653.34 248.33 1652.77 247.405C1652.92 247.266 1653.06 247.127 1653.2 247.035C1654.58 246.248 1655.96 245.508 1657.33 244.768C1657.57 244.629 1657.71 244.49 1657.57 244.212C1655.86 243.75 1654.2 243.333 1652.44 242.871C1652.73 241.807 1652.96 240.835 1653.25 239.771C1653.82 239.91 1654.39 240.002 1654.91 240.141C1656.95 240.65 1658.99 241.205 1660.99 241.714C1661.13 241.76 1661.32 241.76 1661.46 241.853C1661.84 242.038 1662.17 241.945 1662.51 241.76C1665.5 240.095 1668.49 238.383 1671.48 236.717C1671.67 236.578 1671.86 236.44 1672.19 236.208C1671.19 235.607 1670.29 235.098 1669.39 234.589C1667.16 233.294 1664.88 232.044 1662.6 230.795C1662.22 230.564 1661.89 230.564 1661.46 230.656C1658.85 231.397 1656.19 232.044 1653.53 232.738C1653.44 232.738 1653.39 232.738 1653.25 232.785C1652.96 231.767 1652.73 230.749 1652.44 229.685C1654.2 229.222 1655.91 228.759 1657.62 228.297C1657.66 227.88 1657.43 227.88 1657.19 227.742C1655.72 226.955 1654.29 226.122 1652.77 225.243C1653.34 224.272 1653.87 223.346 1654.44 222.421C1656.15 223.346 1657.76 224.272 1659.52 225.289C1659.52 225.012 1659.56 224.827 1659.52 224.688C1659.14 223.346 1658.76 222.004 1658.38 220.663C1658.33 220.478 1658.33 220.246 1658.28 219.969C1659.33 219.691 1660.32 219.414 1661.41 219.136C1661.7 220.2 1661.98 221.172 1662.27 222.19C1662.74 223.855 1663.22 225.567 1663.65 227.233C1663.79 227.741 1664.17 227.927 1664.55 228.158C1666.54 229.268 1668.58 230.379 1670.58 231.535C1671.48 232.044 1672.33 232.553 1673.23 233.062C1673.42 233.155 1673.66 233.247 1673.9 233.386C1673.95 233.155 1674.04 233.016 1674.04 232.877C1674.04 230.471 1674.04 228.065 1674.04 225.613C1674.04 224.549 1674.04 223.439 1673.99 222.375C1673.99 222.143 1673.85 221.866 1673.71 221.727C1672.33 220.339 1670.91 218.951 1669.48 217.609C1668.87 217.008 1668.25 216.36 1667.59 215.712C1668.34 214.926 1669.1 214.185 1669.91 213.399C1671.24 214.694 1672.52 215.944 1673.8 217.193C1674.18 216.961 1674.04 216.638 1674.04 216.36C1674.04 214.787 1674.04 213.168 1674.04 211.502C1675.09 211.502 1676.18 211.502 1677.27 211.502C1677.27 213.306 1677.27 215.111 1677.27 216.915C1677.55 217.193 1677.74 217.008 1677.93 216.776C1678.93 215.805 1679.93 214.833 1680.88 213.862C1681.02 213.723 1681.16 213.584 1681.3 213.445C1682.06 214.185 1682.82 214.926 1683.63 215.712C1683.53 215.851 1683.44 215.99 1683.3 216.129C1681.4 217.979 1679.55 219.784 1677.65 221.634C1677.41 221.866 1677.32 222.051 1677.32 222.375C1677.32 225.891 1677.32 229.361 1677.32 232.877C1677.32 232.97 1677.36 233.062 1677.41 233.294C1677.65 233.201 1677.89 233.201 1678.08 233.062C1681.07 231.397 1684.01 229.685 1687 228.019C1687.43 227.788 1687.62 227.464 1687.76 227.001C1688.42 224.549 1689.09 222.143 1689.75 219.737C1689.71 219.552 1689.75 219.414 1689.85 219.228Z" fill="#F2DCDB"/>
<path d="M1398.33 582.225C1398.47 582.225 1398.57 582.225 1398.66 582.225C1399.61 582.464 1400.52 582.751 1401.51 583.038C1401.04 584.855 1400.61 586.576 1400.14 588.345C1400.18 588.393 1400.23 588.44 1400.28 588.44C1401.89 587.484 1403.55 586.576 1405.26 585.572C1405.83 586.528 1406.35 587.484 1406.97 588.488C1405.45 589.349 1403.93 590.257 1402.41 591.07C1402.18 591.213 1401.99 591.261 1402.03 591.644C1403.74 592.122 1405.5 592.6 1407.26 593.078C1406.97 594.177 1406.69 595.229 1406.4 596.329C1405.36 596.042 1404.36 595.803 1403.41 595.516C1401.65 595.038 1399.85 594.56 1398.09 594.034C1397.76 593.938 1397.48 593.986 1397.19 594.177C1395.15 595.373 1393.11 596.568 1391.07 597.811C1390.02 598.432 1389.03 599.006 1387.98 599.58C1387.89 599.628 1387.79 599.723 1387.51 599.962C1387.7 600.058 1387.84 600.106 1387.98 600.201C1389.74 601.205 1391.5 602.209 1393.25 603.261C1394.53 604.026 1395.86 604.791 1397.14 605.556C1397.52 605.795 1397.81 605.795 1398.24 605.699C1400.85 604.934 1403.51 604.265 1406.16 603.548C1406.26 603.548 1406.31 603.548 1406.45 603.5C1406.73 604.552 1407.02 605.556 1407.3 606.703C1405.55 607.181 1403.84 607.66 1402.13 608.09C1402.03 608.424 1402.18 608.52 1402.41 608.664C1403.93 609.524 1405.45 610.385 1406.97 611.245C1406.4 612.249 1405.88 613.158 1405.31 614.162C1403.6 613.205 1401.99 612.154 1400.28 611.293C1400.23 611.341 1400.18 611.389 1400.14 611.436C1400.61 613.158 1401.04 614.879 1401.51 616.743C1400.47 617.03 1399.42 617.317 1398.33 617.652C1398.09 616.743 1397.86 615.931 1397.62 615.07C1397.1 613.11 1396.58 611.102 1396.05 609.142C1395.96 608.903 1395.67 608.664 1395.44 608.472C1392.68 606.847 1389.88 605.221 1387.13 603.596C1386.89 603.452 1386.65 603.309 1386.37 603.166C1386.18 603.07 1385.99 603.07 1385.75 602.974C1385.75 603.452 1385.75 603.835 1385.75 604.265C1385.75 607.468 1385.75 610.719 1385.75 613.923C1385.75 614.448 1385.89 614.831 1386.27 615.166C1388.08 616.934 1389.83 618.703 1391.59 620.52C1391.78 620.711 1391.97 620.903 1392.11 621.094C1391.83 621.668 1390.69 622.863 1389.79 623.532C1388.65 622.385 1387.51 621.237 1386.37 620.138C1386.18 619.946 1386.08 619.755 1385.7 619.994C1385.7 621.811 1385.7 623.676 1385.7 625.588C1384.57 625.588 1383.52 625.588 1382.43 625.588C1382.43 623.676 1382.48 621.763 1382.43 619.66C1382.1 619.899 1381.86 619.994 1381.72 620.138C1380.67 621.189 1379.68 622.193 1378.68 623.245C1378.58 623.341 1378.44 623.436 1378.39 623.484C1377.64 622.672 1376.88 621.907 1376.07 621.094C1376.73 620.377 1377.49 619.66 1378.2 618.895C1379.49 617.604 1380.82 616.313 1382.1 614.974C1382.29 614.783 1382.43 614.401 1382.43 614.114C1382.43 610.624 1382.43 607.086 1382.43 603.596C1382.43 603.405 1382.38 603.213 1382.33 602.879C1381.62 603.309 1381.01 603.644 1380.39 604.026C1378.01 605.413 1375.64 606.799 1373.27 608.138C1372.56 608.52 1372.13 608.998 1371.94 609.859C1371.42 612.154 1370.75 614.448 1370.13 616.695C1370.04 616.982 1369.94 617.221 1369.8 617.604C1368.76 617.317 1367.71 617.03 1366.67 616.743C1367.1 614.926 1367.67 613.205 1368.05 611.436C1368 611.389 1367.95 611.341 1367.9 611.293C1366.29 612.249 1364.63 613.205 1362.92 614.162C1362.35 613.253 1361.83 612.297 1361.26 611.341C1361.4 611.197 1361.54 611.054 1361.69 610.958C1363.06 610.146 1364.44 609.381 1365.82 608.616C1366.05 608.472 1366.19 608.329 1366.05 608.042C1364.34 607.564 1362.68 607.134 1360.93 606.656C1361.21 605.556 1361.45 604.552 1361.73 603.452C1362.3 603.596 1362.87 603.691 1363.39 603.835C1365.44 604.361 1367.48 604.934 1369.47 605.46C1369.61 605.508 1369.8 605.508 1369.94 605.604C1370.32 605.795 1370.66 605.699 1370.99 605.508C1373.98 603.787 1376.97 602.018 1379.96 600.297C1380.15 600.154 1380.34 600.01 1380.67 599.771C1379.68 599.15 1378.77 598.624 1377.87 598.098C1375.64 596.759 1373.36 595.468 1371.08 594.177C1370.7 593.938 1370.37 593.938 1369.94 594.034C1367.33 594.799 1364.68 595.468 1362.02 596.185C1361.92 596.185 1361.88 596.185 1361.73 596.233C1361.45 595.181 1361.21 594.13 1360.93 593.03C1362.68 592.552 1364.39 592.074 1366.1 591.596C1366.15 591.166 1365.91 591.118 1365.67 591.022C1364.2 590.209 1362.78 589.349 1361.26 588.44C1361.83 587.436 1362.35 586.48 1362.92 585.524C1364.63 586.48 1366.24 587.436 1368 588.488C1368 588.201 1368.05 588.01 1368 587.867C1367.62 586.48 1367.24 585.094 1366.86 583.707C1366.81 583.516 1366.81 583.277 1366.76 582.99C1367.81 582.703 1368.81 582.417 1369.9 582.13C1370.18 583.229 1370.47 584.233 1370.75 585.285C1371.23 587.006 1371.7 588.775 1372.13 590.496C1372.27 591.022 1372.65 591.213 1373.03 591.452C1375.02 592.6 1377.07 593.747 1379.06 594.942C1379.96 595.468 1380.82 595.994 1381.72 596.52C1381.91 596.616 1382.14 596.711 1382.38 596.855C1382.43 596.616 1382.52 596.472 1382.52 596.329C1382.52 593.843 1382.52 591.357 1382.52 588.823C1382.52 587.723 1382.52 586.576 1382.48 585.476C1382.48 585.237 1382.33 584.95 1382.19 584.807C1380.82 583.373 1379.39 581.938 1377.97 580.552C1377.35 579.93 1376.73 579.261 1376.07 578.592C1376.83 577.779 1377.59 577.014 1378.39 576.201C1379.72 577.54 1381.01 578.831 1382.29 580.122C1382.67 579.883 1382.52 579.548 1382.52 579.261C1382.52 577.636 1382.52 575.962 1382.52 574.241C1383.57 574.241 1384.66 574.241 1385.75 574.241C1385.75 576.106 1385.75 577.97 1385.75 579.835C1386.04 580.122 1386.23 579.93 1386.42 579.691C1387.41 578.687 1388.41 577.683 1389.36 576.68C1389.5 576.536 1389.64 576.393 1389.79 576.249C1390.55 577.014 1391.31 577.779 1392.11 578.592C1392.02 578.735 1391.92 578.879 1391.78 579.022C1389.88 580.934 1388.03 582.799 1386.13 584.711C1385.89 584.95 1385.8 585.142 1385.8 585.476C1385.8 589.11 1385.8 592.695 1385.8 596.329C1385.8 596.425 1385.85 596.52 1385.89 596.759C1386.13 596.664 1386.37 596.664 1386.56 596.52C1389.55 594.799 1392.49 593.03 1395.48 591.309C1395.91 591.07 1396.1 590.735 1396.24 590.257C1396.91 587.723 1397.57 585.237 1398.24 582.751C1398.24 582.608 1398.28 582.417 1398.33 582.225Z" fill="#F2DCDB"/>
<path d="M1655.07 722.757C1655.21 722.757 1655.3 722.757 1655.4 722.757C1656.35 722.988 1657.25 723.266 1658.25 723.543C1657.77 725.301 1657.34 726.967 1656.87 728.679C1656.92 728.725 1656.96 728.771 1657.01 728.771C1658.63 727.846 1660.29 726.967 1662 725.995C1662.57 726.921 1663.09 727.846 1663.7 728.818C1662.19 729.651 1660.67 730.53 1659.15 731.316C1658.91 731.455 1658.72 731.501 1658.77 731.871C1660.48 732.334 1662.23 732.797 1663.99 733.259C1663.7 734.323 1663.42 735.341 1663.13 736.405C1662.09 736.128 1661.09 735.897 1660.14 735.619C1658.39 735.156 1656.58 734.694 1654.83 734.185C1654.5 734.092 1654.21 734.138 1653.93 734.323C1651.88 735.48 1649.84 736.637 1647.8 737.84C1646.76 738.441 1645.76 738.996 1644.72 739.552C1644.62 739.598 1644.53 739.69 1644.24 739.922C1644.43 740.014 1644.57 740.06 1644.72 740.153C1646.47 741.125 1648.23 742.096 1649.99 743.114C1651.27 743.854 1652.6 744.595 1653.88 745.335C1654.26 745.566 1654.54 745.566 1654.97 745.474C1657.58 744.733 1660.24 744.086 1662.9 743.392C1662.99 743.392 1663.04 743.392 1663.18 743.345C1663.47 744.363 1663.75 745.335 1664.04 746.445C1662.28 746.908 1660.57 747.371 1658.86 747.787C1658.77 748.111 1658.91 748.203 1659.15 748.342C1660.67 749.175 1662.19 750.008 1663.7 750.841C1663.13 751.812 1662.61 752.691 1662.04 753.663C1660.33 752.738 1658.72 751.72 1657.01 750.887C1656.96 750.933 1656.92 750.979 1656.87 751.026C1657.34 752.691 1657.77 754.357 1658.25 756.161C1657.2 756.439 1656.16 756.716 1655.07 757.04C1654.83 756.161 1654.59 755.375 1654.35 754.542C1653.83 752.645 1653.31 750.702 1652.79 748.805C1652.69 748.574 1652.41 748.342 1652.17 748.157C1649.42 746.584 1646.62 745.011 1643.86 743.438C1643.62 743.299 1643.39 743.16 1643.1 743.022C1642.91 742.929 1642.72 742.929 1642.49 742.837C1642.49 743.299 1642.49 743.669 1642.49 744.086C1642.49 747.186 1642.49 750.332 1642.49 753.432C1642.49 753.94 1642.63 754.311 1643.01 754.634C1644.81 756.346 1646.57 758.058 1648.32 759.816C1648.51 760.001 1648.7 760.186 1648.85 760.372C1648.56 760.927 1647.42 762.083 1646.52 762.731C1645.38 761.621 1644.24 760.51 1643.1 759.446C1642.91 759.261 1642.82 759.076 1642.44 759.307C1642.44 761.066 1642.44 762.87 1642.44 764.721C1641.3 764.721 1640.25 764.721 1639.16 764.721C1639.16 762.87 1639.21 761.019 1639.16 758.983C1638.83 759.215 1638.59 759.307 1638.45 759.446C1637.41 760.464 1636.41 761.436 1635.41 762.453C1635.32 762.546 1635.18 762.639 1635.13 762.685C1634.37 761.898 1633.61 761.158 1632.8 760.372C1633.47 759.678 1634.23 758.984 1634.94 758.243C1636.22 756.994 1637.55 755.745 1638.83 754.449C1639.02 754.264 1639.16 753.894 1639.16 753.617C1639.16 750.239 1639.16 746.815 1639.16 743.438C1639.16 743.253 1639.12 743.068 1639.07 742.744C1638.36 743.16 1637.74 743.484 1637.12 743.854C1634.75 745.196 1632.37 746.538 1630 747.833C1629.29 748.203 1628.86 748.666 1628.67 749.499C1628.15 751.72 1627.49 753.94 1626.87 756.115C1626.77 756.393 1626.68 756.624 1626.54 756.994C1625.49 756.716 1624.45 756.439 1623.4 756.161C1623.83 754.403 1624.4 752.738 1624.78 751.026C1624.73 750.979 1624.68 750.933 1624.64 750.887C1623.02 751.812 1621.36 752.738 1619.65 753.663C1619.08 752.784 1618.56 751.858 1617.99 750.933C1618.13 750.794 1618.28 750.656 1618.42 750.563C1619.8 749.776 1621.17 749.036 1622.55 748.296C1622.79 748.157 1622.93 748.018 1622.79 747.741C1621.08 747.278 1619.42 746.862 1617.66 746.399C1617.94 745.335 1618.18 744.363 1618.47 743.299C1619.04 743.438 1619.61 743.53 1620.13 743.669C1622.17 744.178 1624.21 744.733 1626.2 745.242C1626.35 745.289 1626.54 745.289 1626.68 745.381C1627.06 745.566 1627.39 745.474 1627.72 745.289C1630.71 743.623 1633.7 741.911 1636.69 740.246C1636.88 740.107 1637.07 739.968 1637.41 739.737C1636.41 739.135 1635.51 738.626 1634.61 738.117C1632.37 736.822 1630.1 735.573 1627.82 734.323C1627.44 734.092 1627.11 734.092 1626.68 734.185C1624.07 734.925 1621.41 735.573 1618.75 736.267C1618.66 736.267 1618.61 736.267 1618.47 736.313C1618.18 735.295 1617.94 734.277 1617.66 733.213C1619.42 732.75 1621.12 732.288 1622.83 731.825C1622.88 731.409 1622.64 731.362 1622.41 731.27C1620.93 730.483 1619.51 729.65 1617.99 728.771C1618.56 727.8 1619.08 726.874 1619.65 725.949C1621.36 726.874 1622.98 727.8 1624.73 728.818C1624.73 728.54 1624.78 728.355 1624.73 728.216C1624.35 726.875 1623.97 725.533 1623.59 724.191C1623.55 724.006 1623.55 723.775 1623.5 723.497C1624.54 723.219 1625.54 722.942 1626.63 722.664C1626.92 723.728 1627.2 724.7 1627.49 725.718C1627.96 727.383 1628.43 729.095 1628.86 730.761C1629 731.27 1629.38 731.455 1629.76 731.686C1631.76 732.797 1633.8 733.907 1635.79 735.064C1636.69 735.573 1637.55 736.082 1638.45 736.59C1638.64 736.683 1638.88 736.776 1639.12 736.914C1639.16 736.683 1639.26 736.544 1639.26 736.405C1639.26 734 1639.26 731.594 1639.26 729.142C1639.26 728.077 1639.26 726.967 1639.21 725.903C1639.21 725.672 1639.07 725.394 1638.93 725.255C1637.55 723.867 1636.12 722.479 1634.7 721.137C1634.08 720.536 1633.47 719.888 1632.8 719.241C1633.56 718.454 1634.32 717.714 1635.13 716.927C1636.46 718.223 1637.74 719.472 1639.02 720.721C1639.4 720.49 1639.26 720.166 1639.26 719.888C1639.26 718.315 1639.26 716.696 1639.26 715.03C1640.3 715.03 1641.39 715.03 1642.49 715.03C1642.49 716.835 1642.49 718.639 1642.49 720.443C1642.77 720.721 1642.96 720.536 1643.15 720.305C1644.15 719.333 1645.14 718.361 1646.09 717.39C1646.24 717.251 1646.38 717.112 1646.52 716.973C1647.28 717.714 1648.04 718.454 1648.85 719.241C1648.75 719.379 1648.66 719.518 1648.51 719.657C1646.62 721.508 1644.76 723.312 1642.87 725.163C1642.63 725.394 1642.53 725.579 1642.53 725.903C1642.53 729.419 1642.53 732.889 1642.53 736.405C1642.53 736.498 1642.58 736.59 1642.63 736.822C1642.87 736.729 1643.1 736.729 1643.29 736.59C1646.28 734.925 1649.23 733.213 1652.22 731.547C1652.64 731.316 1652.83 730.992 1652.98 730.53C1653.64 728.077 1654.31 725.672 1654.97 723.266C1654.92 723.127 1655.02 722.942 1655.07 722.757Z" fill="#F9F0B9"/>
<path d="M1858.8 1010.96C1858.94 1010.96 1859.03 1010.96 1859.13 1010.96C1860.08 1011.19 1860.98 1011.47 1861.98 1011.75C1861.5 1013.51 1861.07 1015.17 1860.6 1016.88C1860.65 1016.93 1860.69 1016.98 1860.74 1016.98C1862.36 1016.05 1864.02 1015.17 1865.73 1014.2C1866.3 1015.12 1866.82 1016.05 1867.43 1017.02C1865.92 1017.85 1864.4 1018.73 1862.88 1019.52C1862.64 1019.66 1862.45 1019.71 1862.5 1020.08C1864.21 1020.54 1865.96 1021 1867.72 1021.46C1867.43 1022.53 1867.15 1023.55 1866.87 1024.61C1865.82 1024.33 1864.82 1024.1 1863.87 1023.82C1862.12 1023.36 1860.31 1022.9 1858.56 1022.39C1858.23 1022.3 1857.94 1022.34 1857.66 1022.53C1855.62 1023.68 1853.57 1024.84 1851.53 1026.04C1850.49 1026.65 1849.49 1027.2 1848.45 1027.76C1848.35 1027.8 1848.26 1027.89 1847.97 1028.13C1848.16 1028.22 1848.3 1028.26 1848.45 1028.36C1850.2 1029.33 1851.96 1030.3 1853.72 1031.32C1855 1032.06 1856.33 1032.8 1857.61 1033.54C1857.99 1033.77 1858.27 1033.77 1858.7 1033.68C1861.31 1032.94 1863.97 1032.29 1866.63 1031.6C1866.72 1031.6 1866.77 1031.6 1866.91 1031.55C1867.2 1032.57 1867.48 1033.54 1867.77 1034.65C1866.01 1035.11 1864.3 1035.57 1862.59 1035.99C1862.5 1036.31 1862.64 1036.41 1862.88 1036.55C1864.4 1037.38 1865.92 1038.21 1867.43 1039.04C1866.87 1040.02 1866.34 1040.9 1865.77 1041.87C1864.06 1040.94 1862.45 1039.92 1860.74 1039.09C1860.69 1039.14 1860.65 1039.18 1860.6 1039.23C1861.07 1040.9 1861.5 1042.56 1861.98 1044.37C1860.93 1044.64 1859.89 1044.92 1858.8 1045.24C1858.56 1044.37 1858.32 1043.58 1858.08 1042.75C1857.56 1040.85 1857.04 1038.91 1856.52 1037.01C1856.42 1036.78 1856.14 1036.55 1855.9 1036.36C1853.15 1034.79 1850.35 1033.22 1847.59 1031.64C1847.36 1031.5 1847.12 1031.36 1846.83 1031.23C1846.64 1031.13 1846.45 1031.13 1846.22 1031.04C1846.22 1031.5 1846.22 1031.87 1846.22 1032.29C1846.22 1035.39 1846.22 1038.54 1846.22 1041.64C1846.22 1042.14 1846.36 1042.51 1846.74 1042.84C1848.54 1044.55 1850.3 1046.26 1852.05 1048.02C1852.24 1048.21 1852.43 1048.39 1852.58 1048.58C1852.29 1049.13 1851.15 1050.29 1850.25 1050.94C1849.11 1049.82 1847.97 1048.71 1846.83 1047.65C1846.64 1047.47 1846.55 1047.28 1846.17 1047.51C1846.17 1049.27 1846.17 1051.07 1846.17 1052.92C1845.03 1052.92 1843.99 1052.92 1842.89 1052.92C1842.89 1051.07 1842.94 1049.22 1842.89 1047.19C1842.56 1047.42 1842.32 1047.51 1842.18 1047.65C1841.14 1048.67 1840.14 1049.64 1839.14 1050.66C1839.05 1050.75 1838.91 1050.84 1838.86 1050.89C1838.1 1050.1 1837.34 1049.36 1836.53 1048.58C1837.2 1047.88 1837.96 1047.19 1838.67 1046.45C1839.95 1045.2 1841.28 1043.95 1842.56 1042.65C1842.75 1042.47 1842.89 1042.1 1842.89 1041.82C1842.89 1038.44 1842.89 1035.02 1842.89 1031.64C1842.89 1031.46 1842.85 1031.27 1842.8 1030.95C1842.09 1031.36 1841.47 1031.69 1840.85 1032.06C1838.48 1033.4 1836.11 1034.74 1833.73 1036.04C1833.02 1036.41 1832.59 1036.87 1832.4 1037.7C1831.88 1039.92 1831.22 1042.14 1830.6 1044.32C1830.5 1044.6 1830.41 1044.83 1830.27 1045.2C1829.22 1044.92 1828.18 1044.64 1827.13 1044.37C1827.56 1042.61 1828.13 1040.94 1828.51 1039.23C1828.46 1039.18 1828.42 1039.14 1828.37 1039.09C1826.75 1040.02 1825.09 1040.94 1823.38 1041.87C1822.81 1040.99 1822.29 1040.06 1821.72 1039.14C1821.86 1039 1822.01 1038.86 1822.15 1038.77C1823.53 1037.98 1824.9 1037.24 1826.28 1036.5C1826.52 1036.36 1826.66 1036.22 1826.52 1035.94C1824.81 1035.48 1823.15 1035.07 1821.39 1034.6C1821.67 1033.54 1821.91 1032.57 1822.2 1031.5C1822.77 1031.64 1823.34 1031.73 1823.86 1031.87C1825.9 1032.38 1827.94 1032.94 1829.93 1033.45C1830.08 1033.49 1830.27 1033.49 1830.41 1033.59C1830.79 1033.77 1831.12 1033.68 1831.45 1033.49C1834.44 1031.83 1837.43 1030.12 1840.42 1028.45C1840.61 1028.31 1840.8 1028.17 1841.14 1027.94C1840.14 1027.34 1839.24 1026.83 1838.34 1026.32C1836.11 1025.03 1833.83 1023.78 1831.55 1022.53C1831.17 1022.3 1830.84 1022.3 1830.41 1022.39C1827.8 1023.13 1825.14 1023.78 1822.48 1024.47C1822.39 1024.47 1822.34 1024.47 1822.2 1024.52C1821.91 1023.5 1821.67 1022.48 1821.39 1021.42C1823.15 1020.95 1824.86 1020.49 1826.56 1020.03C1826.61 1019.61 1826.37 1019.61 1826.14 1019.47C1824.67 1018.69 1823.24 1017.85 1821.72 1016.98C1822.29 1016 1822.81 1015.08 1823.38 1014.15C1825.09 1015.08 1826.71 1016 1828.46 1017.02C1828.46 1016.74 1828.51 1016.56 1828.46 1016.42C1828.08 1015.08 1827.7 1013.74 1827.32 1012.4C1827.28 1012.21 1827.28 1011.98 1827.23 1011.7C1828.27 1011.42 1829.27 1011.15 1830.36 1010.87C1830.65 1011.93 1830.93 1012.9 1831.22 1013.92C1831.69 1015.59 1832.17 1017.3 1832.59 1018.96C1832.73 1019.47 1833.11 1019.66 1833.49 1019.89C1835.49 1021 1837.53 1022.11 1839.52 1023.27C1840.42 1023.78 1841.28 1024.29 1842.18 1024.79C1842.37 1024.89 1842.61 1024.98 1842.85 1025.12C1842.89 1024.89 1842.99 1024.75 1842.99 1024.61C1842.99 1022.2 1842.99 1019.8 1842.99 1017.35C1842.99 1016.28 1842.99 1015.17 1842.94 1014.11C1842.94 1013.88 1842.8 1013.6 1842.66 1013.46C1841.28 1012.07 1839.86 1010.68 1838.43 1009.34C1837.81 1008.74 1837.2 1008.09 1836.53 1007.44C1837.29 1006.66 1838.05 1005.92 1838.86 1005.13C1840.19 1006.43 1841.47 1007.68 1842.75 1008.93C1843.13 1008.69 1842.99 1008.37 1842.99 1008.09C1842.99 1006.52 1842.99 1004.9 1842.99 1003.23C1844.03 1003.23 1845.12 1003.23 1846.22 1003.23C1846.22 1005.04 1846.22 1006.84 1846.22 1008.65C1846.5 1008.93 1846.69 1008.74 1846.88 1008.51C1847.88 1007.54 1848.87 1006.57 1849.82 1005.59C1849.97 1005.46 1850.11 1005.32 1850.25 1005.18C1851.01 1005.92 1851.77 1006.66 1852.58 1007.44C1852.48 1007.58 1852.39 1007.72 1852.24 1007.86C1850.35 1009.71 1848.49 1011.52 1846.6 1013.37C1846.36 1013.6 1846.26 1013.78 1846.26 1014.11C1846.26 1017.62 1846.26 1021.09 1846.26 1024.61C1846.26 1024.7 1846.31 1024.79 1846.36 1025.03C1846.6 1024.93 1846.83 1024.93 1847.02 1024.79C1850.01 1023.13 1852.96 1021.42 1855.95 1019.75C1856.37 1019.52 1856.56 1019.2 1856.71 1018.73C1857.37 1016.28 1858.04 1013.88 1858.7 1011.47C1858.7 1011.33 1858.75 1011.15 1858.8 1010.96Z" fill="#F9F0B9"/>
</svg>
