<svg width="102" height="104" viewBox="0 0 102 104" fill="none" xmlns="http://www.w3.org/2000/svg">
<path fill-rule="evenodd" clip-rule="evenodd" d="M51.0298 100C78.51 100 101.03 77.563 101.03 50C101.03 22.4278 78.51 0 51.0298 0C23.4575 0 1.02979 22.437 1.02979 50C1.02979 77.563 23.4575 100 51.0298 100Z" fill="#F2DCDB"/>
<path d="M80.2822 6C74.939 6 69.9134 8.10063 66.1396 11.9233C62.4391 15.6666 60.43 20.6006 60.4911 25.785V40.5567L58.3416 38.0286C58.3355 38.0225 58.3294 38.0164 58.3233 38.0103C58.2622 37.9309 58.1523 37.7904 57.9752 37.6439C56.5768 36.0623 54.58 35.1524 52.461 35.1524C50.7268 35.1524 49.0353 35.7692 47.6919 36.8867C44.5714 39.488 44.1623 44.1595 46.782 47.2982C46.8125 47.3349 46.8431 47.3654 46.8736 47.402L47.1117 47.6402L60.5399 63.511C60.601 63.5781 60.6682 63.6392 60.7354 63.6942C61.3582 65.7521 63.0802 67.3214 65.2053 67.7061V82.3312C65.2053 83.1556 65.877 83.8273 66.7014 83.8273H93.7837C94.6081 83.8273 95.2798 83.1556 95.2798 82.3312V67.7061C97.9605 67.2176 100 64.8483 100 62.0027V25.785C100.006 14.8788 91.1579 6 80.2822 6ZM49.2979 45.5945L49.0475 45.3442C47.527 43.4695 47.7774 40.7215 49.6154 39.1888C50.4215 38.5171 51.4351 38.1446 52.4733 38.1446C53.7678 38.1446 54.9891 38.7186 55.8196 39.714C55.8807 39.7933 55.954 39.8605 56.0333 39.9216C56.0517 39.9399 56.07 39.9643 56.0883 39.9827L60.4972 45.1671V58.8273L49.3834 45.6861C49.3528 45.6556 49.3284 45.625 49.2979 45.5945ZM68.2036 67.8161H69.9378V80.8473H68.2036V67.8161ZM74.365 67.8161V80.8473H72.93V67.8161H74.365ZM78.7862 67.8161V80.8473H77.3511V67.8161H78.7862ZM83.1523 67.8161V80.8473H81.7783V67.8161H83.1523ZM87.5734 67.8161V80.8473H86.1384V67.8161H87.5734ZM92.2998 80.8473H90.5656V67.8161H92.2998V80.8473ZM97.0201 62.0149C97.0201 63.5354 95.7622 64.8239 94.2722 64.8239H93.7959H66.7136H66.2373C64.7473 64.8239 63.4894 63.5354 63.4894 62.0149V44.6175V25.7728C63.4344 21.3701 65.1381 17.1993 68.2708 14.03C71.4767 10.7814 75.7451 8.99218 80.2883 8.99218C89.5152 8.99218 97.0263 16.5276 97.0263 25.7912V62.0149H97.0201Z" fill="#0066E6"/>
<path d="M90.2113 29.3452C90.8463 29.3452 91.4692 29.0887 91.9211 28.6368C92.3974 28.1605 92.6539 27.4949 92.6233 26.8232C92.5928 26.2003 92.3241 25.6263 91.8722 25.2233C91.4265 24.8019 90.828 24.5638 90.2113 24.5638C89.5701 24.5638 88.9716 24.8203 88.5442 25.2722C88.1228 25.6691 87.8664 26.2309 87.8419 26.8293C87.8358 26.9392 87.8481 27.0491 87.8603 27.1591L87.0359 27.9834L84.3796 27.153L81.7171 25.779V24.6676C82.2606 24.234 82.6148 23.5684 82.6148 22.799C82.6148 21.4556 81.5645 20.4053 80.221 20.4053C78.9326 20.4053 77.8883 21.48 77.8883 22.799C77.8883 23.5318 78.2181 24.1791 78.7249 24.6188V25.7912L76.2884 27.098L73.4611 27.9834L72.6368 27.1591C72.649 27.0491 72.6612 26.9392 72.6551 26.8293C72.6307 26.2309 72.3742 25.6752 71.9529 25.2722C71.5254 24.8203 70.9269 24.5638 70.2858 24.5638C69.669 24.5638 69.0706 24.8019 68.6248 25.2233C68.1729 25.6263 67.9042 26.2003 67.8737 26.8232C67.8431 27.501 68.0996 28.1605 68.5759 28.6368C69.0278 29.0887 69.6446 29.3452 70.2858 29.3452C70.3835 29.3452 70.4751 29.3269 70.5728 29.3147L71.3544 30.0963L70.5239 32.8076L69.1561 35.4089H68.008C67.5684 34.8716 66.9028 34.5113 66.17 34.5113C64.8266 34.5113 63.7762 35.5616 63.7762 36.905C63.7762 38.2485 64.8266 39.2988 66.17 39.2988C66.9028 39.2988 67.5623 38.9385 68.008 38.4011H69.1561L70.4689 40.8926L71.3483 43.6649L70.5239 44.4893C70.4445 44.4832 70.3713 44.4649 70.2919 44.4649C69.6568 44.4649 69.0339 44.7213 68.5882 45.1732C68.1302 45.6312 67.8798 46.2296 67.8798 46.8586C67.8798 47.4876 68.1302 48.086 68.5882 48.544C69.04 48.9959 69.6568 49.2524 70.2919 49.2524C70.9575 49.2524 71.5742 48.9776 71.9956 48.5013C72.423 48.0494 72.6612 47.4693 72.6612 46.8647C72.6612 46.7792 72.6429 46.6937 72.6368 46.6082L73.4673 45.7778L76.1236 46.6021L78.731 47.97V49.1791C78.2181 49.6126 77.8945 50.266 77.8945 51.011C77.8945 52.33 78.9387 53.4048 80.2271 53.4048C81.5706 53.4048 82.6209 52.3545 82.6209 51.011C82.6209 50.2233 82.2728 49.5638 81.7232 49.1302V47.9822L84.2147 46.7182L87.0603 45.7839L87.8786 46.6021C87.8664 46.6876 87.8542 46.767 87.8542 46.8586C87.8542 47.4693 88.0862 48.0494 88.5137 48.4952C88.9411 48.9715 89.5579 49.2463 90.2174 49.2463C90.8524 49.2463 91.4753 48.9898 91.9272 48.5379C92.8676 47.5914 92.8676 46.1136 91.9272 45.1671C91.4753 44.7213 90.8586 44.4588 90.2235 44.4588C90.1441 44.4588 90.0708 44.4771 89.9914 44.4832L89.161 43.6527L89.9853 40.9964L91.3532 38.3889H92.5012C92.9409 38.9263 93.6065 39.2866 94.3392 39.2866C95.6827 39.2866 96.733 38.2362 96.733 36.8928C96.733 35.5494 95.6827 34.4991 94.3392 34.4991C93.6065 34.4991 92.947 34.8593 92.5012 35.3967H91.3532L90.0464 32.9053L89.161 30.0719L89.9365 29.2963C90.0219 29.3269 90.1135 29.3452 90.2113 29.3452ZM83.1216 29.8642C83.201 29.907 83.2804 29.9375 83.3659 29.9619L84.6544 30.365L81.7232 33.2961V29.1376L83.1216 29.8642ZM77.3204 29.907C77.412 29.8764 77.4975 29.8398 77.583 29.7971L78.731 29.1803V33.2411L75.8549 30.365L77.3204 29.907ZM73.2352 34.0777C73.2779 33.9983 73.3146 33.9067 73.339 33.8212L73.7482 32.49L76.6732 35.415H72.5329L73.2352 34.0777ZM73.278 39.8606C73.2535 39.7751 73.2169 39.6957 73.1742 39.6163L72.5329 38.4011H76.6121L73.7298 41.2834L73.278 39.8606ZM77.3876 43.8909C77.3082 43.8481 77.2228 43.8115 77.1373 43.787L75.8488 43.384L78.7249 40.5079V44.587L77.3876 43.8909ZM83.1644 43.9153C83.0911 43.9397 83.0178 43.9702 82.9506 44.0008L81.7171 44.6297V40.4529L84.6788 43.4146L83.1644 43.9153ZM87.2679 39.7384C87.2252 39.8178 87.1885 39.9033 87.1641 39.9888L86.7611 41.2773L83.8849 38.4011H87.9641L87.2679 39.7384ZM87.2252 33.9434C87.2496 34.0289 87.2863 34.1144 87.329 34.1937L87.9702 35.4089H83.83L86.7672 32.4717L87.2252 33.9434Z" fill="#0066E6"/>
<path d="M52.3205 56.3359C50.9953 55.2062 49.2977 54.5833 47.5391 54.5833C45.359 54.5833 43.3012 55.5237 41.9089 57.1603C41.8661 57.2091 41.8173 57.2763 41.7745 57.3496C41.7379 57.3862 41.6951 57.4289 41.6585 57.4717L39.5762 59.9509V45.2343C39.6373 40.0438 37.6282 35.1158 33.9216 31.3664C30.1905 27.5926 25.0427 25.4309 19.785 25.4309C8.87273 25.4309 0 34.2792 0 45.161V81.4458C0 84.2487 2.03956 86.5814 4.72031 87.0821V101.774C4.72031 102.599 5.39203 103.27 6.21641 103.27H33.3537C34.1781 103.27 34.8498 102.599 34.8498 101.774V87.0821C36.9687 86.6852 38.6847 85.1524 39.3136 83.1434C39.3869 83.0823 39.4541 83.0213 39.5151 82.948L52.9677 67.0467C53.0166 66.9856 53.0654 66.9245 53.1082 66.8574C53.1082 66.8574 53.1143 66.8513 53.1265 66.8391C53.157 66.8085 53.1876 66.7719 53.2181 66.7414C54.4882 65.2208 55.0928 63.3034 54.9279 61.3493C54.757 59.3769 53.8288 57.5938 52.3205 56.3359ZM7.70639 87.1859H9.50171V100.278H7.70639V87.1859ZM13.9289 87.1859V100.278H12.4939V87.1859H13.9289ZM18.2889 87.1859V100.278H16.915V87.1859H18.2889ZM22.7162 87.1859V100.278H21.2811V87.1859H22.7162ZM27.0762 87.1859V100.278H25.7022V87.1859H27.0762ZM31.8576 100.278H30.0623V87.1859H31.8576V100.278ZM33.775 84.1937H33.3537H6.21641H5.80117C4.28065 84.1937 2.99218 82.9358 2.99218 81.4458V45.1549C2.99218 35.928 10.5276 28.417 19.7912 28.417C24.2489 28.417 28.6273 30.255 31.7965 33.4671C34.9353 36.6424 36.639 40.8132 36.584 45.216V64.0484V81.4458C36.584 82.9602 35.32 84.1937 33.775 84.1937ZM50.9526 64.7812C50.8427 64.8972 50.7144 65.0376 50.6045 65.2086L39.5701 78.2521V64.5919L43.8263 59.5296C44.0401 59.3464 44.1805 59.1449 44.2782 58.9861C45.1026 58.0823 46.2811 57.5694 47.5391 57.5694C48.5894 57.5694 49.5969 57.9358 50.3969 58.6197C51.3007 59.3708 51.8503 60.4272 51.948 61.5936C52.0396 62.7477 51.6915 63.8774 50.9526 64.7812Z" fill="#0066E6"/>
<path d="M33.8909 53.942C33.1581 53.942 32.4986 54.3022 32.0528 54.8396H30.917L29.5431 52.1772L28.7126 49.5208L29.5248 48.7087C29.6041 48.7148 29.6835 48.727 29.7629 48.727C30.4102 48.727 30.9964 48.4888 31.4239 48.0675C31.8819 47.6095 32.1322 47.005 32.1322 46.3516C32.1322 45.7043 31.8819 45.0936 31.4239 44.6357C30.9964 44.2082 30.4041 43.97 29.7629 43.97C29.1706 43.97 28.5966 44.1716 28.1569 44.5379C28.1203 44.5685 28.0897 44.599 28.0592 44.6295C27.5157 45.173 27.2959 45.918 27.3753 46.6264L26.6059 47.3958L23.7724 46.5103L21.281 45.1975V44.0494C21.8184 43.6098 22.1787 42.9442 22.1787 42.2114C22.1787 40.9168 21.0856 39.8176 19.7849 39.8176C18.4903 39.8176 17.3911 40.9107 17.3911 42.2114C17.3911 42.9442 17.7514 43.6037 18.2888 44.0494V45.1975L15.6813 46.5653L13.025 47.3897L12.2006 46.5653C12.2678 45.8692 12.0419 45.1547 11.5167 44.6234C11.4862 44.5929 11.4495 44.5624 11.4129 44.5318C10.5275 43.793 9.12907 43.793 8.24363 44.5318C8.20699 44.5624 8.17645 44.5929 8.14592 44.6234C7.68793 45.0814 7.43757 45.686 7.43757 46.3394C7.43757 46.9867 7.68793 47.5973 8.14592 48.0553C8.17645 48.0858 8.2131 48.1164 8.24363 48.1469C8.6833 48.5133 9.2512 48.7209 9.83132 48.7209C9.92292 48.7209 10.0084 48.7087 10.1 48.6965L10.9061 49.5025L9.97176 52.3482L8.70771 54.8396H7.54748C7.11392 54.2961 6.44831 53.942 5.67889 53.942C4.38432 53.942 3.28516 55.035 3.28516 56.3357C3.28516 57.6303 4.37821 58.7294 5.67889 58.7294C6.44831 58.7294 7.10781 58.3814 7.54748 57.8318H8.72603L10.0939 60.4393L10.9183 63.0956L10.0695 63.9444C9.37943 63.8772 8.66498 64.0909 8.15203 64.6039C7.69405 65.0619 7.44368 65.6603 7.44368 66.2893C7.44368 66.9183 7.69405 67.5167 8.15203 67.9747C8.61002 68.4327 9.20845 68.683 9.83741 68.683C10.4664 68.683 11.0648 68.4327 11.5228 67.9747C12.0602 67.4373 12.28 66.7228 12.2067 66.0389L13.0311 65.2145L15.8035 66.0939L18.2949 67.4068V68.5853C17.7514 69.0189 17.3973 69.6845 17.3973 70.4539C17.3973 71.7485 18.4903 72.8477 19.791 72.8477C21.0856 72.8477 22.1847 71.7546 22.1847 70.4539C22.1847 69.6845 21.8306 69.025 21.2871 68.5853V67.4068L23.8885 66.0389L26.5998 65.2084L27.3814 65.9901C27.2898 66.6923 27.5096 67.4312 28.0592 67.9808C28.5111 68.4266 29.1278 68.6891 29.7629 68.6891C30.4285 68.6891 31.0453 68.4143 31.4727 67.938C31.9002 67.4862 32.1322 66.906 32.1322 66.3015C32.1322 65.6908 31.9002 65.1107 31.4727 64.665C31.0453 64.1887 30.4285 63.9139 29.7629 63.9139C29.6896 63.9139 29.6164 63.9261 29.5431 63.9383L28.7126 63.1078L29.598 60.2805L30.9048 57.844H32.059C32.4986 58.3814 33.1642 58.7417 33.897 58.7417C35.1916 58.7417 36.2908 57.6486 36.2908 56.3479C36.2847 55.0411 35.1855 53.942 33.8909 53.942ZM26.728 53.1909C26.7524 53.2763 26.7891 53.3557 26.8257 53.4351L27.5524 54.8396H23.3938L26.325 51.9085L26.728 53.1909ZM22.4962 49.2277C22.5756 49.2705 22.6611 49.3071 22.7466 49.3315L24.2182 49.7895L21.281 52.7268V48.5866L22.4962 49.2277ZM16.7011 49.3926C16.7866 49.3682 16.8721 49.3315 16.9515 49.2888L18.2888 48.5866V52.6657L15.4126 49.7895L16.7011 49.3926ZM12.6892 53.6061C12.7258 53.5389 12.7502 53.4656 12.7746 53.3924L13.2754 51.878L16.237 54.8396H12.0602L12.6892 53.6061ZM12.9029 59.4195C12.8785 59.334 12.8418 59.2485 12.7991 59.1691L12.0968 57.8318H16.176L13.2998 60.7079L12.9029 59.4195ZM17.0736 63.3826C16.9942 63.3398 16.9149 63.3093 16.8294 63.2788L15.4065 62.8269L18.2888 59.9446V64.0238L17.0736 63.3826ZM22.8748 63.2177C22.7832 63.2421 22.6977 63.2788 22.6183 63.3215L21.281 64.0238V59.8836L24.206 62.8086L22.8748 63.2177ZM26.8929 58.9798C26.8501 59.0653 26.8135 59.1508 26.7829 59.2424L26.325 60.7079L23.4488 57.8318H27.5096L26.8929 58.9798Z" fill="#0066E6"/>
</svg>
