<svg width="21" height="20" viewBox="0 0 21 20" fill="none" xmlns="http://www.w3.org/2000/svg">
<path d="M16.5071 0C15.4085 0 14.3751 0.431916 13.5992 1.2179C12.8383 1.98757 12.4252 3.00207 12.4378 4.06805V7.10528L11.9958 6.58547C11.9946 6.58422 11.9933 6.58296 11.9921 6.5817C11.9795 6.56538 11.9569 6.5365 11.9205 6.50637C11.633 6.18118 11.2224 5.9941 10.7867 5.9941C10.4301 5.9941 10.0823 6.12091 9.80612 6.35068C9.16452 6.88555 9.0804 7.84606 9.61904 8.49143C9.62532 8.49896 9.6316 8.50524 9.63788 8.51277L9.68684 8.56174L12.4478 11.825C12.4604 11.8388 12.4742 11.8513 12.488 11.8626C12.6161 12.2858 12.9702 12.6084 13.4071 12.6875V15.6946C13.4071 15.8641 13.5452 16.0023 13.7147 16.0023H19.2832C19.4527 16.0023 19.5908 15.8641 19.5908 15.6946V12.6875C20.142 12.5871 20.5613 12.0999 20.5613 11.5148V4.06805C20.5626 1.8256 18.7433 0 16.5071 0ZM10.1363 8.14112L10.0849 8.08965C9.77222 7.70419 9.8237 7.13918 10.2016 6.82403C10.3674 6.68592 10.5758 6.60933 10.7892 6.60933C11.0554 6.60933 11.3065 6.72735 11.4773 6.93201C11.4898 6.94833 11.5049 6.96214 11.5212 6.9747C11.525 6.97847 11.5288 6.98349 11.5325 6.98725L12.4391 8.05323V10.8619L10.1539 8.15996C10.1476 8.15368 10.1426 8.1474 10.1363 8.14112ZM14.0236 12.7101H14.3802V15.3895H14.0236V12.7101ZM15.2905 12.7101V15.3895H14.9954V12.7101H15.2905ZM16.1995 12.7101V15.3895H15.9044V12.7101H16.1995ZM17.0972 12.7101V15.3895H16.8147V12.7101H17.0972ZM18.0063 12.7101V15.3895H17.7112V12.7101H18.0063ZM18.9781 15.3895H18.6215V12.7101H18.9781V15.3895ZM19.9486 11.5174C19.9486 11.83 19.69 12.0949 19.3836 12.0949H19.2857H13.7172H13.6193C13.3129 12.0949 13.0543 11.83 13.0543 11.5174V7.94023V4.06554C13.043 3.16027 13.3933 2.30272 14.0374 1.65108C14.6966 0.983112 15.5742 0.61523 16.5084 0.61523C18.4055 0.61523 19.9499 2.1646 19.9499 4.06931V11.5174H19.9486Z" fill="inherit"/>
<path d="M18.5486 4.80007C18.6792 4.80007 18.8073 4.74734 18.9002 4.65442C18.9981 4.55649 19.0509 4.41963 19.0446 4.28152C19.0383 4.15345 18.9831 4.03543 18.8902 3.95256C18.7985 3.86593 18.6755 3.81696 18.5486 3.81696C18.4168 3.81696 18.2938 3.86969 18.2059 3.9626C18.1192 4.04422 18.0665 4.15973 18.0615 4.28277C18.0602 4.30538 18.0627 4.32798 18.0653 4.35058L17.8957 4.52008L17.3496 4.34932L16.8022 4.06682V3.8383C16.9139 3.74916 16.9867 3.6123 16.9867 3.4541C16.9867 3.17787 16.7708 2.96191 16.4945 2.96191C16.2296 2.96191 16.0149 3.18289 16.0149 3.4541C16.0149 3.60477 16.0827 3.73786 16.1869 3.82826V4.06933L15.6859 4.33802L15.1046 4.52008L14.9351 4.35058C14.9376 4.32798 14.9401 4.30538 14.9389 4.28277C14.9339 4.15973 14.8811 4.04547 14.7945 3.9626C14.7066 3.86969 14.5836 3.81696 14.4517 3.81696C14.3249 3.81696 14.2019 3.86593 14.1102 3.95256C14.0173 4.03543 13.962 4.15345 13.9558 4.28152C13.9495 4.42089 14.0022 4.55649 14.1002 4.65442C14.1931 4.74734 14.3199 4.80007 14.4517 4.80007C14.4718 4.80007 14.4906 4.7963 14.5107 4.79379L14.6714 4.95451L14.5007 5.51198L14.2194 6.04685H13.9834C13.893 5.93636 13.7561 5.86228 13.6055 5.86228C13.3292 5.86228 13.1133 6.07824 13.1133 6.35447C13.1133 6.63069 13.3292 6.84665 13.6055 6.84665C13.7561 6.84665 13.8917 6.77257 13.9834 6.66208H14.2194L14.4894 7.17436L14.6702 7.74438L14.5007 7.91389C14.4844 7.91263 14.4693 7.90886 14.453 7.90886C14.3224 7.90886 14.1943 7.9616 14.1027 8.05451C14.0085 8.14868 13.957 8.27172 13.957 8.40105C13.957 8.53037 14.0085 8.65342 14.1027 8.74759C14.1956 8.8405 14.3224 8.89323 14.453 8.89323C14.5898 8.89323 14.7166 8.83673 14.8033 8.7388C14.8912 8.64588 14.9401 8.52661 14.9401 8.4023C14.9401 8.38473 14.9364 8.36715 14.9351 8.34957L15.1059 8.17881L15.652 8.34831L16.1882 8.62956V8.87816C16.0827 8.96731 16.0162 9.10166 16.0162 9.25484C16.0162 9.52604 16.2309 9.74702 16.4958 9.74702C16.772 9.74702 16.988 9.53106 16.988 9.25484C16.988 9.09287 16.9164 8.95727 16.8034 8.86812V8.63207L17.3157 8.37217L17.9008 8.18007L18.069 8.34831C18.0665 8.36589 18.064 8.38222 18.064 8.40105C18.064 8.52661 18.1117 8.64588 18.1996 8.73754C18.2875 8.83547 18.4143 8.89198 18.5499 8.89198C18.6805 8.89198 18.8085 8.83924 18.9015 8.74633C19.0948 8.55172 19.0948 8.24787 18.9015 8.05325C18.8085 7.9616 18.6817 7.90761 18.5512 7.90761C18.5348 7.90761 18.5198 7.91138 18.5034 7.91263L18.3327 7.74187L18.5022 7.1957L18.7834 6.65957H19.0195C19.1099 6.77006 19.2467 6.84414 19.3974 6.84414C19.6736 6.84414 19.8896 6.62818 19.8896 6.35196C19.8896 6.07573 19.6736 5.85977 19.3974 5.85977C19.2467 5.85977 19.1111 5.93385 19.0195 6.04434H18.7834L18.5148 5.53207L18.3327 4.94948L18.4921 4.79003C18.5097 4.7963 18.5286 4.80007 18.5486 4.80007ZM17.0909 4.90679C17.1073 4.91558 17.1236 4.92186 17.1412 4.92688L17.4061 5.00975L16.8034 5.61242V4.75738L17.0909 4.90679ZM15.8981 4.91558C15.917 4.9093 15.9345 4.90177 15.9521 4.89298L16.1882 4.76617V5.60112L15.5968 5.00975L15.8981 4.91558ZM15.0582 5.77314C15.0669 5.75682 15.0745 5.73798 15.0795 5.7204L15.1636 5.44669L15.765 6.04811H14.9138L15.0582 5.77314ZM15.0669 6.96216C15.0619 6.94459 15.0544 6.92826 15.0456 6.91194L14.9138 6.66208H15.7525L15.1599 7.25471L15.0669 6.96216ZM15.9119 7.79084C15.8956 7.78205 15.878 7.77452 15.8605 7.7695L15.5955 7.68663L16.1869 7.09525V7.93398L15.9119 7.79084ZM17.0997 7.79586C17.0847 7.80089 17.0696 7.80716 17.0558 7.81344L16.8022 7.94276V7.08395L17.4111 7.69291L17.0997 7.79586ZM17.9435 6.93705C17.9347 6.95337 17.9271 6.97095 17.9221 6.98853L17.8393 7.25346L17.2479 6.66208H18.0866L17.9435 6.93705ZM17.9347 5.74551C17.9397 5.76309 17.9472 5.78067 17.956 5.79699L18.0879 6.04685H17.2366L17.8405 5.44292L17.9347 5.74551Z" fill="inherit"/>
<path d="M10.7577 10.3498C10.4853 10.1175 10.1362 9.98946 9.77462 9.98946C9.32638 9.98946 8.90326 10.1828 8.61699 10.5193C8.6082 10.5294 8.59815 10.5432 8.58936 10.5582C8.58183 10.5658 8.57304 10.5746 8.5655 10.5833L8.13736 11.0931V8.06718C8.14991 6.99994 7.73683 5.9867 6.9747 5.21578C6.20754 4.43983 5.1491 3.99536 4.06805 3.99536C1.82434 3.99536 0 5.81468 0 8.05211V15.5127C0 16.089 0.419358 16.5687 0.970554 16.6716V19.6925C0.970554 19.862 1.10867 20.0001 1.27817 20.0001H6.85793C7.02743 20.0001 7.16555 19.862 7.16555 19.6925V16.6716C7.60123 16.59 7.95404 16.2748 8.08337 15.8618C8.09844 15.8492 8.11225 15.8367 8.1248 15.8216L10.8908 12.5521C10.9009 12.5395 10.9109 12.527 10.9197 12.5132C10.9197 12.5132 10.921 12.5119 10.9235 12.5094C10.9297 12.5031 10.936 12.4956 10.9423 12.4893C11.2035 12.1767 11.3278 11.7824 11.2939 11.3806C11.2587 10.9751 11.0679 10.6085 10.7577 10.3498ZM1.58453 16.693H1.95367V19.3849H1.58453V16.693ZM2.86396 16.693V19.3849H2.5689V16.693H2.86396ZM3.76043 16.693V19.3849H3.47793V16.693H3.76043ZM4.67072 16.693V19.3849H4.37567V16.693H4.67072ZM5.5672 16.693V19.3849H5.2847V16.693H5.5672ZM6.55031 19.3849H6.18117V16.693H6.55031V19.3849ZM6.94456 16.0777H6.85793H1.27817H1.19279C0.880155 16.0777 0.615229 15.8191 0.615229 15.5127V8.05086C0.615229 6.15369 2.16461 4.60934 4.06931 4.60934C4.98587 4.60934 5.88612 4.98726 6.53776 5.64769C7.18312 6.30059 7.53342 7.15815 7.52212 8.06341V11.9356V15.5127C7.52212 15.8241 7.26222 16.0777 6.94456 16.0777ZM10.4765 12.0863C10.4539 12.1101 10.4275 12.139 10.4049 12.1742L8.1361 14.8561V12.0473L9.01124 11.0065C9.05518 10.9688 9.08406 10.9274 9.10415 10.8947C9.27365 10.7089 9.51597 10.6034 9.77462 10.6034C9.99058 10.6034 10.1977 10.6788 10.3622 10.8194C10.548 10.9738 10.6611 11.191 10.6811 11.4309C10.7 11.6682 10.6284 11.9004 10.4765 12.0863Z" fill="inherit"/>
<path d="M6.96822 9.85738C6.81755 9.85738 6.68194 9.93146 6.59029 10.042H6.35675L6.07425 9.49452L5.90349 8.94835L6.07048 8.78136C6.0868 8.78261 6.10313 8.78513 6.11945 8.78513C6.25254 8.78513 6.37308 8.73616 6.46097 8.64952C6.55514 8.55536 6.60661 8.43105 6.60661 8.29671C6.60661 8.16362 6.55514 8.03806 6.46097 7.94389C6.37308 7.856 6.25128 7.80704 6.11945 7.80704C5.99766 7.80704 5.87963 7.84847 5.78923 7.9238C5.7817 7.93008 5.77542 7.93636 5.76915 7.94264C5.6574 8.05438 5.6122 8.20756 5.62852 8.35321L5.47032 8.51141L4.88773 8.32935L4.37546 8.05941V7.82336C4.48595 7.73296 4.56003 7.5961 4.56003 7.44543C4.56003 7.17925 4.33528 6.95325 4.06785 6.95325C3.80166 6.95325 3.57566 7.17799 3.57566 7.44543C3.57566 7.5961 3.64974 7.7317 3.76023 7.82336V8.05941L3.2241 8.34065L2.67793 8.51016L2.50842 8.34065C2.52224 8.19752 2.47578 8.05062 2.3678 7.94138C2.36152 7.9351 2.35399 7.92883 2.34646 7.92255C2.1644 7.77062 1.87687 7.77062 1.69482 7.92255C1.68728 7.92883 1.681 7.9351 1.67473 7.94138C1.58056 8.03555 1.52908 8.15985 1.52908 8.2942C1.52908 8.42729 1.58056 8.55285 1.67473 8.64701C1.681 8.65329 1.68854 8.65957 1.69482 8.66585C1.78522 8.74118 1.90199 8.78387 2.02127 8.78387C2.0401 8.78387 2.05767 8.78136 2.07651 8.77885L2.24224 8.94458L2.05014 9.52968L1.79024 10.042H1.55168C1.46253 9.93021 1.32568 9.85738 1.16747 9.85738C0.901294 9.85738 0.675293 10.0821 0.675293 10.3496C0.675293 10.6157 0.900038 10.8418 1.16747 10.8418C1.32568 10.8418 1.46128 10.7702 1.55168 10.6572H1.794L2.07525 11.1933L2.24476 11.7395L2.07023 11.914C1.92835 11.9002 1.78145 11.9441 1.67598 12.0496C1.58182 12.1438 1.53034 12.2668 1.53034 12.3961C1.53034 12.5255 1.58182 12.6485 1.67598 12.7427C1.77015 12.8369 1.89319 12.8883 2.02252 12.8883C2.15184 12.8883 2.27489 12.8369 2.36906 12.7427C2.47955 12.6322 2.52475 12.4853 2.50968 12.3447L2.67918 12.1752L3.24921 12.356L3.76149 12.6259V12.8682C3.64974 12.9574 3.57692 13.0942 3.57692 13.2524C3.57692 13.5186 3.80167 13.7446 4.0691 13.7446C4.33528 13.7446 4.56128 13.5199 4.56128 13.2524C4.56128 13.0942 4.48846 12.9586 4.37671 12.8682V12.6259L4.91159 12.3447L5.46906 12.1739L5.62977 12.3346C5.61094 12.479 5.65615 12.6309 5.76915 12.7439C5.86206 12.8356 5.98887 12.8896 6.11945 12.8896C6.25631 12.8896 6.38312 12.8331 6.47101 12.7352C6.5589 12.6422 6.60661 12.523 6.60661 12.3987C6.60661 12.2731 6.5589 12.1538 6.47101 12.0622C6.38312 11.9642 6.25631 11.9077 6.11945 11.9077C6.10438 11.9077 6.08932 11.9102 6.07425 11.9128L5.90349 11.742L6.08555 11.1607L6.35424 10.6597H6.59154C6.68195 10.7702 6.8188 10.8443 6.96947 10.8443C7.23565 10.8443 7.46165 10.6195 7.46165 10.3521C7.4604 10.0834 7.2344 9.85738 6.96822 9.85738ZM5.49543 9.70295C5.50045 9.72053 5.50799 9.73685 5.51552 9.75317L5.66493 10.042H4.80989L5.41256 9.43928L5.49543 9.70295ZM4.62532 8.88808C4.64164 8.89687 4.65922 8.9044 4.6768 8.90943L4.97939 9.00359L4.37546 9.60752V8.75625L4.62532 8.88808ZM3.43378 8.92198C3.45136 8.91696 3.46894 8.90943 3.48526 8.90064L3.76023 8.75625V9.59497L3.16886 9.00359L3.43378 8.92198ZM2.60887 9.78833C2.61641 9.77452 2.62143 9.75945 2.62645 9.74438L2.72941 9.433L3.33836 10.042H2.47955L2.60887 9.78833ZM2.65282 10.9836C2.6478 10.9661 2.64026 10.9485 2.63147 10.9322L2.48708 10.6572H3.3258L2.73443 11.2486L2.65282 10.9836ZM3.51037 11.7985C3.49405 11.7897 3.47773 11.7834 3.46015 11.7772L3.1676 11.6842L3.76023 11.0916V11.9303L3.51037 11.7985ZM4.70316 11.7646C4.68433 11.7696 4.66675 11.7772 4.65043 11.7859L4.37546 11.9303V11.0791L4.97688 11.6805L4.70316 11.7646ZM5.52933 10.8932C5.52054 10.9108 5.51301 10.9284 5.50673 10.9472L5.41256 11.2486L4.82119 10.6572H5.65614L5.52933 10.8932Z" fill="inherit"/>
</svg>
