<svg width="292" height="51" viewBox="0 0 292 51" fill="none" xmlns="http://www.w3.org/2000/svg">
<path d="M7.21853 19.5857C13.3892 22.3254 9.29095 31.4963 3.12024 28.7566C-3.05047 26.017 1.04782 16.8461 7.21853 19.5857Z" fill="#F2DCDB"/>
<path d="M110.071 24.4382C113.285 25.8777 111.142 30.6373 107.929 29.1978C104.716 27.7815 106.858 22.9987 110.071 24.4382Z" fill="#F2DCDB"/>
<path d="M176.924 0.617158C180.138 2.05664 177.995 6.81622 174.782 5.37674C171.569 3.96047 173.711 -0.799108 176.924 0.617158Z" fill="#F2DCDB"/>
<path d="M290.046 29.5228C293.259 30.9623 291.117 35.7218 287.904 34.3056C284.69 32.8661 286.833 28.1065 290.046 29.5228Z" fill="#F2DCDB"/>
<path d="M39.7951 4.03C39.7951 3.98356 39.7951 3.93713 39.7951 3.89069C39.702 3.51921 39.5856 3.12452 39.4691 2.72982C38.724 2.91556 38.0254 3.1013 37.3036 3.28704C37.2803 3.26382 37.2803 3.2406 37.257 3.21738C37.6296 2.54408 38.0254 1.89399 38.4213 1.17425C38.0254 0.942078 37.6529 0.733122 37.2337 0.47773C36.8844 1.1046 36.5119 1.70825 36.1626 2.33512C36.116 2.42799 36.0694 2.49765 35.9297 2.49765C35.7434 1.80112 35.5572 1.08138 35.3476 0.36164C34.8819 0.477727 34.4627 0.593814 34.0436 0.709901C34.16 1.12782 34.2531 1.54573 34.3696 1.94043C34.5559 2.66017 34.7654 3.40313 34.975 4.12287C35.0216 4.26217 34.9983 4.37826 34.9284 4.49435C34.4394 5.33018 33.9504 6.16601 33.4614 7.00183C33.2286 7.41975 32.9724 7.83766 32.7396 8.25557C32.7163 8.30201 32.6697 8.34844 32.5766 8.46453C32.53 8.37166 32.53 8.32523 32.4834 8.27879C32.0643 7.55905 31.6684 6.83931 31.2493 6.11957C30.9466 5.58557 30.6206 5.05157 30.3179 4.54079C30.2247 4.40148 30.2015 4.26217 30.2713 4.07643C30.574 3.00843 30.8534 1.91721 31.1562 0.84921C31.1562 0.825992 31.1562 0.779554 31.1795 0.733119C30.7603 0.617032 30.3412 0.500945 29.8754 0.384858C29.6892 1.1046 29.4796 1.80112 29.2933 2.49765C29.1769 2.52086 29.1303 2.47443 29.0604 2.38156C28.7112 1.75469 28.3619 1.15103 27.9893 0.524162C27.5935 0.756338 27.1976 0.965295 26.8017 1.19747C27.1743 1.89399 27.6167 2.5673 27.966 3.26382C27.9427 3.28704 27.9195 3.31026 27.8962 3.33348C27.1976 3.14774 26.499 2.962 25.7539 2.75304C25.6375 3.19417 25.521 3.61209 25.4046 4.05322C25.7772 4.14609 26.1032 4.26218 26.4525 4.33183C27.2442 4.54078 28.0592 4.74974 28.8509 4.98191C28.944 5.00513 29.0605 5.12122 29.107 5.23731C29.7823 6.37496 30.4343 7.51261 31.0863 8.62705C31.1562 8.71992 31.2027 8.83601 31.2726 8.92888C31.2959 8.99853 31.3192 9.09141 31.3425 9.18427C31.1329 9.18427 30.9932 9.18427 30.8302 9.18427C29.5262 9.18427 28.1989 9.18428 26.8949 9.18428C26.6853 9.18428 26.5223 9.11462 26.3826 8.97532C25.6607 8.23236 24.9389 7.51262 24.1938 6.79288C24.1239 6.72322 24.0308 6.65357 23.9609 6.58392C23.728 6.70001 23.239 7.16436 22.9829 7.53583C23.4486 8.00018 23.9143 8.46453 24.38 8.92888C24.4499 8.99853 24.543 9.04497 24.4499 9.20749C23.7048 9.20749 22.9363 9.20749 22.1679 9.20749C22.1679 9.67184 22.1679 10.0898 22.1679 10.5541C22.9363 10.5541 23.7047 10.5309 24.5663 10.5541C24.4732 10.6934 24.4266 10.7863 24.3568 10.8327C23.9376 11.2506 23.5185 11.6685 23.0993 12.0865C23.0528 12.1329 23.0295 12.1793 23.0062 12.2025C23.3322 12.5276 23.6349 12.8294 23.9842 13.1545C24.2636 12.8758 24.5896 12.574 24.869 12.2722C25.4046 11.7382 25.9169 11.2042 26.4757 10.6702C26.5689 10.6005 26.7086 10.5309 26.825 10.5309C28.2455 10.5309 29.6892 10.5309 31.1096 10.5309C31.2027 10.5309 31.2726 10.5541 31.4123 10.5773C31.2493 10.8559 31.1096 11.1345 30.9466 11.3899C30.3877 12.3651 29.8289 13.317 29.27 14.2921C29.107 14.5707 28.9207 14.7565 28.5715 14.8493C27.64 15.0583 26.7086 15.3369 25.7772 15.5691C25.6607 15.5923 25.5676 15.6387 25.4046 15.7084C25.521 16.1263 25.6375 16.5442 25.7539 16.9853C26.499 16.8228 27.1976 16.5906 27.9195 16.4281C27.9427 16.4513 27.9427 16.4746 27.966 16.4978C27.5702 17.1711 27.1976 17.8212 26.7785 18.5409C27.151 18.7731 27.5236 18.982 27.9195 19.2142C27.966 19.1446 28.0359 19.0981 28.0592 19.0285C28.3852 18.4713 28.7112 17.914 29.0139 17.3336C29.0605 17.2407 29.1303 17.1943 29.2467 17.2407C29.433 17.9373 29.6193 18.6338 29.8056 19.3303C30.248 19.2142 30.6672 19.0981 31.1096 18.982C31.063 18.7499 31.0165 18.5177 30.9466 18.3087C30.737 17.4729 30.5042 16.6603 30.2713 15.8245C30.248 15.7548 30.248 15.6852 30.2247 15.6387C30.1549 15.4762 30.1782 15.3601 30.2713 15.2208C30.9699 13.9903 31.6917 12.783 32.3903 11.5525C32.4369 11.4596 32.5067 11.3899 32.5999 11.2738C32.856 11.6918 33.0656 12.0632 33.2752 12.4347C33.8107 13.3634 34.3463 14.2921 34.8819 15.1976C34.975 15.3369 34.975 15.4762 34.9284 15.6619C34.6257 16.7299 34.3463 17.8212 34.0436 18.8892C34.0436 18.9124 34.0436 18.9588 34.0203 19.0053C34.4394 19.1213 34.8586 19.2374 35.3243 19.3535C35.5106 18.6338 35.7202 17.9373 35.9064 17.2407C36.0694 17.2175 36.0927 17.3336 36.1393 17.4265C36.4653 18.0301 36.8146 18.6106 37.1872 19.2374C37.6063 19.0053 37.9789 18.7963 38.3747 18.5641C37.9789 17.8676 37.583 17.1943 37.1639 16.4746C37.2803 16.4746 37.3502 16.4513 37.42 16.4746C37.9789 16.6371 38.5377 16.7764 39.0966 16.9389C39.1897 16.9621 39.2596 16.9621 39.3993 16.9853C39.5157 16.5674 39.6322 16.1495 39.7486 15.7084C39.3062 15.5923 38.887 15.4762 38.4679 15.3601C37.7693 15.1744 37.0474 14.9886 36.3489 14.8029C36.1393 14.7565 36.0462 14.5939 35.9763 14.4314C35.5106 13.6188 35.0449 12.783 34.5559 11.9704C34.3463 11.5989 34.1367 11.2506 33.9272 10.8791C33.8806 10.8095 33.8573 10.7166 33.7874 10.6005C33.8806 10.5773 33.9272 10.5541 33.997 10.5541C35.0216 10.5541 36.0229 10.5541 37.0474 10.5541C37.4899 10.5541 37.9556 10.5541 38.398 10.5773C38.4911 10.5773 38.6076 10.6238 38.6774 10.6934C39.2596 11.2738 39.8417 11.8543 40.4239 12.4115C40.68 12.6669 40.9361 12.9223 41.2156 13.1777C41.5416 12.8526 41.8676 12.5508 42.1936 12.2258C41.658 11.6918 41.1224 11.1578 40.6101 10.647C40.7266 10.5077 40.843 10.5309 40.9594 10.5309C41.6347 10.5309 42.31 10.5309 43.0086 10.5309C43.0086 10.0898 43.0086 9.67184 43.0086 9.20749C42.2401 9.20749 41.495 9.20749 40.7266 9.20749C40.6101 9.0914 40.68 9.02175 40.7964 8.92888C41.2156 8.53418 41.6114 8.11627 42.0073 7.72157C42.0771 7.65192 42.1237 7.60549 42.1703 7.53583C41.8443 7.21079 41.5416 6.90896 41.2156 6.58392C41.169 6.63035 41.0991 6.67679 41.0293 6.72322C40.2609 7.4894 39.4924 8.25557 38.724 9.04497C38.6309 9.13784 38.561 9.18427 38.4213 9.18427C36.9543 9.18427 35.4873 9.18427 33.997 9.18427C33.9504 9.18427 33.9039 9.16106 33.834 9.16106C33.8573 9.06819 33.8806 8.97532 33.9272 8.90566C34.6257 7.67514 35.3476 6.46783 36.0461 5.23731C36.1393 5.05157 36.279 4.98191 36.4653 4.93548C37.4899 4.68008 38.5144 4.40148 39.539 4.12287C39.6321 4.07643 39.702 4.05321 39.7951 4.03Z" fill="#F9F0B9"/>
<path d="M139.597 35.5825C139.597 35.5361 139.597 35.4896 139.597 35.4432C139.504 35.0717 139.388 34.677 139.271 34.2823C138.526 34.4681 137.828 34.6538 137.106 34.8396C137.083 34.8163 137.083 34.7931 137.059 34.7699C137.432 34.0966 137.828 33.4465 138.224 32.7268C137.828 32.4946 137.455 32.2856 137.036 32.0302C136.687 32.6571 136.314 33.2608 135.965 33.8876C135.918 33.9805 135.872 34.0502 135.732 34.0502C135.546 33.3536 135.359 32.6339 135.15 31.9142C134.684 32.0302 134.265 32.1463 133.846 32.2624C133.962 32.6803 134.055 33.0982 134.172 33.4929C134.358 34.2127 134.568 34.9556 134.777 35.6754C134.824 35.8147 134.801 35.9308 134.731 36.0469C134.242 36.8827 133.753 37.7185 133.264 38.5543C133.031 38.9723 132.775 39.3902 132.542 39.8081C132.519 39.8545 132.472 39.901 132.379 40.017C132.332 39.9242 132.332 39.8777 132.286 39.8081C131.867 39.0883 131.471 38.3686 131.052 37.6489C130.749 37.1149 130.423 36.5809 130.12 36.0701C130.027 35.9308 130.004 35.7915 130.074 35.6057C130.376 34.5377 130.656 33.4465 130.958 32.3785C130.958 32.3553 130.958 32.3088 130.982 32.2624C130.563 32.1463 130.143 32.0302 129.678 31.9142C129.491 32.6339 129.282 33.3304 129.096 34.0269C128.979 34.0502 128.933 34.0037 128.863 33.9109C128.513 33.284 128.164 32.6803 127.792 32.0535C127.396 32.2856 127 32.4946 126.604 32.7268C126.977 33.4233 127.419 34.0966 127.768 34.7931C127.745 34.8163 127.722 34.8396 127.698 34.8628C127 34.677 126.301 34.4913 125.556 34.2823C125.44 34.7235 125.323 35.1414 125.207 35.5825C125.579 35.6754 125.905 35.7915 126.255 35.8611C127.046 36.0701 127.861 36.279 128.653 36.5112C128.746 36.5344 128.863 36.6505 128.909 36.7666C129.585 37.9043 130.237 39.0419 130.889 40.1564C130.958 40.2492 131.028 40.3653 131.075 40.4582C131.098 40.5278 131.121 40.6207 131.145 40.7136C130.935 40.7136 130.795 40.7136 130.632 40.7136C129.328 40.7136 128.001 40.7136 126.697 40.7136C126.488 40.7136 126.325 40.6439 126.185 40.5046C125.463 39.7617 124.741 39.0419 123.996 38.3222C123.926 38.2525 123.833 38.1829 123.763 38.1132C123.53 38.2293 123.041 38.6937 122.785 39.0651C123.251 39.5295 123.717 39.9938 124.182 40.4582C124.252 40.5278 124.345 40.5743 124.252 40.7368C123.507 40.7368 122.739 40.7368 121.97 40.7368C121.97 41.2011 121.97 41.6191 121.97 42.0834C122.739 42.0834 123.507 42.0602 124.369 42.0834C124.275 42.2227 124.229 42.3156 124.159 42.362C123.74 42.7799 123.321 43.1978 122.902 43.6158C122.855 43.6622 122.832 43.7086 122.808 43.7318C123.134 44.0569 123.437 44.3587 123.786 44.6838C124.066 44.4051 124.392 44.1033 124.671 43.8015C125.207 43.2675 125.719 42.7335 126.278 42.1995C126.371 42.1298 126.511 42.0602 126.627 42.0602C128.048 42.0602 129.491 42.0602 130.912 42.0602C131.005 42.0602 131.075 42.0834 131.215 42.1066C131.052 42.3852 130.912 42.6638 130.749 42.9192C130.19 43.8944 129.631 44.8463 129.072 45.8214C128.909 46.1 128.723 46.2858 128.374 46.3786C127.442 46.5876 126.511 46.8662 125.579 47.0984C125.463 47.1216 125.37 47.168 125.207 47.2377C125.323 47.6556 125.44 48.0735 125.556 48.5146C126.301 48.3521 127 48.1199 127.722 47.9806C127.745 48.0038 127.745 48.0271 127.768 48.0503C127.372 48.7236 127 49.3737 126.581 50.0934C126.953 50.3256 127.326 50.5346 127.722 50.7667C127.768 50.6971 127.838 50.6506 127.861 50.581C128.187 50.0238 128.513 49.4665 128.816 48.8861C128.863 48.7932 128.933 48.7468 129.049 48.7932C129.235 49.4898 129.422 50.1863 129.608 50.8828C130.05 50.7667 130.469 50.6506 130.912 50.5346C130.865 50.3024 130.819 50.0702 130.749 49.8612C130.539 49.0254 130.306 48.2128 130.074 47.377C130.05 47.3073 130.05 47.2377 130.027 47.1912C129.957 47.0287 129.98 46.9126 130.074 46.7733C130.772 45.5428 131.494 44.3355 132.193 43.105C132.239 43.0121 132.309 42.9424 132.402 42.8264C132.658 43.2443 132.868 43.6158 133.077 43.9872C133.613 44.9159 134.149 45.8446 134.684 46.7501C134.777 46.8894 134.777 47.0287 134.731 47.2145C134.428 48.2825 134.149 49.3737 133.846 50.4417C133.846 50.4649 133.846 50.5113 133.823 50.5578C134.288 50.6506 134.731 50.7667 135.173 50.8828C135.359 50.1631 135.569 49.4665 135.755 48.77C135.918 48.7468 135.942 48.8629 135.988 48.9558C136.314 49.5594 136.663 50.1399 137.036 50.7667C137.455 50.5346 137.828 50.3256 138.224 50.0934C137.828 49.3969 137.432 48.7236 137.013 48.0038C137.129 48.0038 137.199 47.9806 137.269 48.0038C137.828 48.1664 138.387 48.3057 138.945 48.4682C139.039 48.4914 139.108 48.4914 139.248 48.5146C139.365 48.0967 139.481 47.6788 139.597 47.2377C139.155 47.1216 138.736 47.0055 138.317 46.8894C137.618 46.7037 136.896 46.5179 136.198 46.3322C135.988 46.2858 135.895 46.1232 135.825 45.9607C135.359 45.1481 134.894 44.3123 134.405 43.4997C134.195 43.1282 133.986 42.7799 133.776 42.4084C133.729 42.3388 133.706 42.2459 133.636 42.1298C133.729 42.1066 133.776 42.0834 133.846 42.0834C134.87 42.0834 135.872 42.0834 136.896 42.0834C137.339 42.0834 137.804 42.0834 138.247 42.1066C138.34 42.1066 138.456 42.153 138.526 42.2227C139.108 42.8031 139.691 43.3836 140.273 43.9408C140.529 44.1962 140.785 44.4516 141.064 44.707C141.39 44.3819 141.716 44.0801 142.042 43.7551C141.507 43.2211 140.971 42.6871 140.459 42.1763C140.575 42.037 140.692 42.0602 140.808 42.0602C141.484 42.0602 142.159 42.0602 142.857 42.0602C142.857 41.619 142.857 41.2011 142.857 40.7368C142.089 40.7368 141.344 40.7368 140.575 40.7368C140.459 40.6207 140.529 40.551 140.645 40.4582C141.064 40.0635 141.46 39.6456 141.856 39.2509C141.926 39.1812 141.973 39.1348 142.019 39.0651C141.693 38.7401 141.39 38.4383 141.064 38.1132C141.018 38.1596 140.948 38.2061 140.878 38.2525C140.11 39.0187 139.341 39.7849 138.573 40.5743C138.48 40.6671 138.41 40.7136 138.27 40.7136C136.803 40.7136 135.336 40.7136 133.846 40.7136C133.799 40.7136 133.753 40.6904 133.683 40.6904C133.706 40.5975 133.729 40.5046 133.776 40.435C134.475 39.2044 135.196 37.9971 135.895 36.7666C135.988 36.5809 136.128 36.5112 136.314 36.4648C137.339 36.2094 138.363 35.9308 139.388 35.6522C139.458 35.6289 139.528 35.6057 139.597 35.5825Z" fill="#F9F0B9"/>
<path d="M253.022 9.11471C253.022 9.06828 253.022 9.02185 253.022 8.97541C252.929 8.60393 252.812 8.20923 252.696 7.81454C251.951 8.00028 251.252 8.18602 250.53 8.37176C250.507 8.34854 250.507 8.32532 250.484 8.3021C250.856 7.6288 251.252 6.97871 251.648 6.25897C251.252 6.02679 250.88 5.81784 250.46 5.56244C250.111 6.18931 249.739 6.79297 249.389 7.41984C249.343 7.51271 249.296 7.58236 249.156 7.58236C248.97 6.88584 248.784 6.1661 248.574 5.44636C248.109 5.56245 247.689 5.67853 247.27 5.79462C247.387 6.21253 247.48 6.63045 247.596 7.02515C247.783 7.74489 247.992 8.48784 248.202 9.20758C248.248 9.34689 248.225 9.46297 248.155 9.57906C247.666 10.4149 247.177 11.2507 246.688 12.0866C246.455 12.5045 246.199 12.9224 245.966 13.3403C245.943 13.3867 245.896 13.4332 245.803 13.5492C245.757 13.4564 245.757 13.4099 245.71 13.3635C245.291 12.6438 244.895 11.924 244.476 11.2043C244.173 10.6703 243.847 10.1363 243.545 9.6255C243.451 9.48619 243.428 9.34689 243.498 9.16115C243.801 8.09315 244.08 7.00193 244.383 5.93392C244.383 5.9107 244.383 5.86427 244.406 5.81784C243.987 5.70175 243.568 5.58566 243.102 5.46958C242.916 6.18932 242.706 6.88584 242.52 7.58236C242.404 7.60558 242.357 7.55914 242.287 7.46627C241.938 6.8394 241.589 6.23575 241.216 5.60888C240.82 5.84105 240.424 6.05001 240.028 6.28219C240.401 6.97871 240.843 7.65202 241.193 8.34854C241.169 8.37176 241.146 8.39497 241.123 8.41819C240.424 8.23245 239.726 8.04671 238.981 7.83775C238.864 8.27888 238.748 8.6968 238.631 9.13793C239.004 9.2308 239.33 9.34689 239.679 9.41654C240.471 9.6255 241.286 9.83446 242.078 10.0666C242.171 10.0898 242.287 10.2059 242.334 10.322C243.009 11.4597 243.661 12.5973 244.313 13.7118C244.383 13.8046 244.429 13.9207 244.499 14.0136C244.523 14.0832 244.546 14.1761 244.569 14.269C244.36 14.269 244.22 14.269 244.057 14.269C242.753 14.269 241.426 14.269 240.122 14.269C239.912 14.269 239.749 14.1993 239.609 14.06C238.887 13.3171 238.166 12.5973 237.42 11.8776C237.351 11.8079 237.257 11.7383 237.188 11.6686C236.955 11.7847 236.466 12.2491 236.21 12.6206C236.675 13.0849 237.141 13.5492 237.607 14.0136C237.677 14.0832 237.77 14.1297 237.677 14.2922C236.931 14.2922 236.163 14.2922 235.395 14.2922C235.395 14.7566 235.395 15.1745 235.395 15.6388C236.163 15.6388 236.931 15.6156 237.793 15.6388C237.7 15.7781 237.653 15.871 237.583 15.9174C237.164 16.3353 236.745 16.7533 236.326 17.1712C236.279 17.2176 236.256 17.264 236.233 17.2873C236.559 17.6123 236.862 17.9141 237.211 18.2392C237.49 17.9606 237.816 17.6587 238.096 17.3569C238.631 16.8229 239.144 16.2889 239.702 15.7549C239.796 15.6853 239.935 15.6156 240.052 15.6156C241.472 15.6156 242.916 15.6156 244.336 15.6156C244.429 15.6156 244.499 15.6388 244.639 15.662C244.476 15.9406 244.336 16.2193 244.173 16.4746C243.614 17.4498 243.056 18.4017 242.497 19.3768C242.334 19.6554 242.147 19.8412 241.798 19.934C240.867 20.143 239.935 20.4216 239.004 20.6538C238.887 20.677 238.794 20.7234 238.631 20.7931C238.748 21.211 238.864 21.6289 238.981 22.0701C239.726 21.9075 240.424 21.6754 241.146 21.5128C241.169 21.5361 241.169 21.5593 241.193 21.5825C240.797 22.2558 240.424 22.9059 240.005 23.6256C240.378 23.8578 240.75 24.0668 241.146 24.2989C241.193 24.2293 241.263 24.1828 241.286 24.1132C241.612 23.556 241.938 22.9988 242.241 22.4183C242.287 22.3254 242.357 22.279 242.473 22.3254C242.66 23.022 242.846 23.7185 243.032 24.415C243.475 24.2989 243.894 24.1828 244.336 24.0668C244.29 23.8346 244.243 23.6024 244.173 23.3934C243.964 22.5576 243.731 21.745 243.498 20.9092C243.475 20.8395 243.475 20.7699 243.451 20.7234C243.382 20.5609 243.405 20.4448 243.498 20.3055C244.197 19.075 244.918 17.8677 245.617 16.6372C245.664 16.5443 245.733 16.4746 245.827 16.3586C246.083 16.7765 246.292 17.148 246.502 17.5194C247.037 18.4481 247.573 19.3768 248.109 20.2823C248.202 20.4216 248.202 20.5609 248.155 20.7467C247.852 21.8147 247.573 22.9059 247.27 23.9739C247.27 23.9971 247.27 24.0435 247.247 24.09C247.666 24.2061 248.085 24.3221 248.551 24.4382C248.737 23.7185 248.947 23.022 249.133 22.3254C249.296 22.3022 249.319 22.4183 249.366 22.5112C249.692 23.1148 250.041 23.6953 250.414 24.3221C250.833 24.09 251.206 23.881 251.601 23.6488C251.206 22.9523 250.81 22.279 250.391 21.5593C250.507 21.5593 250.577 21.5361 250.647 21.5593C251.206 21.7218 251.764 21.8611 252.323 22.0236C252.416 22.0468 252.486 22.0468 252.626 22.0701C252.742 21.6521 252.859 21.2342 252.975 20.7931C252.533 20.677 252.114 20.5609 251.695 20.4448C250.996 20.2591 250.274 20.0734 249.576 19.8876C249.366 19.8412 249.273 19.6787 249.203 19.5161C248.737 18.7035 248.272 17.8677 247.783 17.0551C247.573 16.6836 247.363 16.3353 247.154 15.9639C247.107 15.8942 247.084 15.8013 247.014 15.6853C247.107 15.662 247.154 15.6388 247.224 15.6388C248.248 15.6388 249.25 15.6388 250.274 15.6388C250.717 15.6388 251.182 15.6388 251.625 15.662C251.718 15.662 251.834 15.7085 251.904 15.7781C252.486 16.3586 253.068 16.939 253.651 17.4962C253.907 17.7516 254.163 18.007 254.442 18.2624C254.768 17.9373 255.094 17.6355 255.42 17.3105C254.885 16.7765 254.349 16.2425 253.837 15.7317C253.953 15.5924 254.07 15.6156 254.186 15.6156C254.861 15.6156 255.537 15.6156 256.235 15.6156C256.235 15.1745 256.235 14.7566 256.235 14.2922C255.467 14.2922 254.722 14.2922 253.953 14.2922C253.837 14.1761 253.907 14.1065 254.023 14.0136C254.442 13.6189 254.838 13.201 255.234 12.8063C255.304 12.7366 255.35 12.6902 255.397 12.6206C255.071 12.2955 254.768 11.9937 254.442 11.6686C254.396 11.7151 254.326 11.7615 254.256 11.8079C253.488 12.5741 252.719 13.3403 251.951 14.1297C251.858 14.2226 251.788 14.269 251.648 14.269C250.181 14.269 248.714 14.269 247.224 14.269C247.177 14.269 247.131 14.2458 247.061 14.2458C247.084 14.1529 247.107 14.06 247.154 13.9904C247.852 12.7599 248.574 11.5525 249.273 10.322C249.366 10.1363 249.506 10.0666 249.692 10.0202C250.717 9.7648 251.741 9.48619 252.766 9.20758C252.882 9.16115 252.952 9.13793 253.022 9.11471Z" fill="#F9F0B9"/>
</svg>
