<svg width="132" height="101" viewBox="0 0 132 101" fill="none" xmlns="http://www.w3.org/2000/svg">
<path fill-rule="evenodd" clip-rule="evenodd" d="M81.0298 101C108.51 101 131.03 78.563 131.03 51C131.03 23.4278 108.51 1 81.0298 1C53.4575 1 31.0298 23.437 31.0298 51C31.0298 78.563 53.4575 101 81.0298 101Z" fill="#F2DCDB"/>
<path d="M4.41825 9.48858C5.49294 9.78522 6.60524 9.99351 7.6298 10.4132C8.18125 10.6373 8.58544 11.2274 9.05542 11.6503C8.51651 12.0732 7.96193 12.8716 7.43868 12.8495C5.38015 12.7611 3.29029 12.5844 1.29129 12.1047C-0.11866 11.7639 -0.413183 9.27084 0.601981 7.54779C1.83961 5.4429 3.70701 4.04489 5.84073 2.97193C9.83559 0.958558 14.1657 0.245356 18.5334 0.084412C43.2295 -0.830759 65.8952 5.70167 86.4868 19.3851C95.476 25.3589 103.381 32.5446 109.027 41.9519C112.12 47.1084 114.031 52.6405 114 58.7437C113.971 64.4083 111.531 69.1009 107.918 73.1782C100.925 81.0739 91.9198 85.1354 81.6648 86.7132C75.179 87.7136 68.6869 87.6663 62.1918 86.9626C59.5097 86.6722 56.8559 86.1294 54.083 85.6845C53.7289 86.4513 53.3843 87.2592 52.9926 88.0387C51.896 90.213 50.2417 91.226 48.2897 90.9577C46.1058 90.658 44.7898 89.3893 44.2447 86.9783C43.9909 85.858 43.7747 84.722 43.6306 83.5796C43.3454 81.3201 42.0953 80.0041 40.0461 79.0668C30.8439 74.8444 23.0672 68.8895 17.8629 59.9492C16.2336 57.1501 16.7412 54.6349 19.3575 52.6689C24.5868 48.74 30.6245 46.6666 36.8691 45.1171C38.8837 44.6185 40.9234 44.1957 42.9632 43.817C44.2885 43.5708 44.1287 42.5768 44.2353 41.6553C44.7428 37.2372 45.2379 32.816 45.8019 28.4042C45.9272 27.4291 46.2625 26.4729 46.5727 25.5325C47.1241 23.8473 48.1831 23.5349 49.5022 24.6836C52.0057 26.8674 52.673 29.8464 52.9989 32.9801C53.2746 35.6372 53.6161 38.2849 53.9295 40.9358C54.0955 42.3432 54.7441 42.8702 56.2794 42.9113C63.3636 43.0975 70.4416 43.5645 77.1717 46.0607C79.5404 46.9412 81.8371 48.1246 83.9959 49.45C87.1009 51.3561 88.5422 55.8215 87.4299 59.2834C86.4993 62.1867 83.294 64.1495 79.5686 64.077C78.6318 64.058 77.6793 64.0706 76.7644 63.9034C76.3289 63.8245 75.7994 63.43 75.627 63.0387C75.5236 62.7989 75.9404 62.1993 76.2599 61.9247C77.2501 61.0758 78.3467 60.35 79.3274 59.4916C80.7123 58.2798 80.6903 57.169 78.9984 56.4968C76.3571 55.4491 73.6218 54.5182 70.8457 53.9785C66.1052 53.0539 61.3019 52.4701 56.5238 51.7474C56.2668 51.7095 56.0037 51.7095 55.7436 51.6969C53.7195 51.6085 53.5535 51.7032 53.5096 53.7071C53.3999 58.8447 53.2715 63.9823 53.3122 69.1199C53.331 71.5719 53.7258 74.0208 53.9295 76.4728C54.0297 77.6814 54.7692 78.2526 55.8439 78.4041C66.807 79.9504 77.695 79.9788 88.1161 75.6681C91.5845 74.2354 94.9872 72.304 97.9137 69.9561C103.265 65.6643 104.894 57.4372 102.285 50.3778C98.9226 41.2829 92.7626 34.4349 85.1144 28.8776C71.0776 18.6939 55.5149 11.9501 38.5109 8.67755C29.5718 6.95766 20.5356 6.377 11.4523 7.01131C9.60687 7.1407 7.78333 7.69927 5.96919 8.14107C5.40835 8.27677 4.91016 8.67755 4.38378 8.95526C4.39318 9.13198 4.40572 9.31186 4.41825 9.48858ZM42.5089 73.459C42.6091 73.2192 42.7125 73.0804 42.7188 72.9383C43.0164 66.4501 43.3204 59.965 43.5742 53.4736C43.6118 52.5458 42.9444 52.2997 42.0765 52.3691C39.2754 52.5931 36.4273 52.5269 33.6763 53.016C29.7034 53.7261 25.7492 54.6602 21.8797 55.8152C19.3136 56.582 19.0034 58.2798 20.6515 60.3279C24.2422 64.7933 28.9796 67.7124 33.9458 70.3191C36.6497 71.7455 39.432 72.992 42.5089 73.459Z" fill="#0066E6"/>
</svg>
