<svg width="110" height="113" viewBox="0 0 110 113" fill="none" xmlns="http://www.w3.org/2000/svg">
<path fill-rule="evenodd" clip-rule="evenodd" d="M59.0298 113C86.51 113 109.03 90.563 109.03 63C109.03 35.4278 86.51 13 59.0298 13C31.4575 13 9.02979 35.437 9.02979 63C9.02979 90.563 31.4575 113 59.0298 113Z" fill="#F2DCDB"/>
<path d="M86.7793 72.3049C86.3105 71.1722 85.7032 70.3443 84.9308 69.821C84.4291 58.5474 78.5271 43.5645 63.6601 32.2312C64.1684 32.1186 64.5976 31.7675 64.8022 31.2641C65.0795 30.5951 64.8748 29.8202 64.3071 29.3697L59.7453 25.7598L65.3633 24.1635C66.0565 23.9648 66.5385 23.3289 66.5385 22.6069C66.5385 21.8849 66.0565 21.2424 65.3633 21.0503L59.7453 19.454L64.3071 15.844C64.8748 15.3936 65.0795 14.6186 64.7956 13.9496C64.5183 13.2806 63.8318 12.8766 63.1056 12.9627L57.3423 13.6781L60.1876 8.5579C60.5375 7.92202 60.4319 7.13379 59.917 6.62376C59.402 6.11373 58.6164 6.00113 57.9827 6.35881L52.9258 9.21365L53.5925 3.42449C53.6784 2.7025 53.2691 2.01363 52.6023 1.74205C51.9355 1.46385 51.1631 1.66919 50.7142 2.23883L47.1163 6.81585L45.5253 1.17903C45.3272 0.483533 44.6935 0 43.9739 0C43.2543 0 42.6139 0.483533 42.4225 1.17903L40.8315 6.81585L37.2335 2.23883C36.7846 1.66919 36.0188 1.46385 35.3454 1.74205C34.6787 2.02025 34.276 2.70913 34.3552 3.42449L35.022 9.21365L29.9651 6.35881C29.3313 6.00113 28.5457 6.11373 28.0308 6.62376C27.5158 7.13379 27.4102 7.92865 27.7601 8.5579L30.6054 13.6781L24.8422 12.9627C24.1226 12.87 23.4294 13.274 23.1521 13.9496C22.8749 14.6186 23.0729 15.3936 23.6407 15.844L28.2024 19.454L22.5844 21.0503C21.8912 21.249 21.4093 21.8849 21.4093 22.6069C21.4093 23.3289 21.8912 23.9714 22.5844 24.1635L28.2024 25.7598L23.6407 29.3697C23.0729 29.8202 22.8749 30.5885 23.1455 31.2641C23.3502 31.7675 23.7859 32.1186 24.2942 32.2312C9.4272 43.5711 3.52529 58.5474 3.02356 69.8276C2.25116 70.3575 1.63721 71.1921 1.15529 72.3712C-0.323494 76.4117 -0.594168 92.3683 1.6042 96.7863C2.3898 98.4025 4.04682 99.7737 6.6941 100.939C6.6941 100.939 6.6941 100.939 6.70071 100.939C8.97169 101.94 11.9755 102.787 15.7846 103.516C15.9893 103.609 16.2072 103.662 16.4448 103.662C16.4712 103.662 16.491 103.655 16.5174 103.655C18.8874 104.086 21.5611 104.47 24.5451 104.821C30.0311 105.424 36.032 105.801 42.8516 105.96C42.977 105.987 43.1024 106 43.2345 106C43.4457 105.993 43.657 105.993 43.8682 105.987C43.9078 105.987 43.9409 106 43.9805 106C44.0201 106 44.0597 105.993 44.1059 105.987C44.337 105.993 44.5614 105.993 44.7925 106C44.7991 106 44.8123 106 44.8189 106C44.9443 106 45.0631 105.987 45.1754 105.96C51.8893 105.801 58.0157 105.417 63.4159 104.821C66.3866 104.477 69.0603 104.092 71.4369 103.655C71.4567 103.655 71.4831 103.662 71.5029 103.662C71.7406 103.662 71.9585 103.609 72.1631 103.516C75.8204 102.814 78.7582 101.993 81.016 101.032C81.2338 100.986 81.4319 100.893 81.6101 100.767C84.0792 99.6279 85.6636 98.3098 86.403 96.7797C88.4891 92.4809 88.4429 76.6567 86.7793 72.3049ZM14.8472 77.3456V99.9988C12.3452 99.4557 10.4241 98.8927 8.96508 98.3363V75.7824C10.5891 76.3851 12.5366 76.9085 14.8472 77.3456ZM18.0754 77.8821C19.8843 78.1405 21.8648 78.3657 24.0235 78.5511V101.483C21.8054 101.211 19.8249 100.92 18.0754 100.621V77.8821ZM27.2518 78.8028C29.1135 78.9287 31.094 79.028 33.1999 79.1075V102.297C31.1468 102.165 29.1597 102.012 27.2518 101.834V78.8028ZM36.4281 79.2135C38.3228 79.2665 40.3033 79.2996 42.3763 79.3261V102.701C40.3231 102.648 38.336 102.582 36.4281 102.489V79.2135ZM45.6045 79.3261C47.6774 79.3062 49.6579 79.2665 51.5526 79.2201V102.483C49.6315 102.575 47.6444 102.648 45.6045 102.701V79.3261ZM54.7808 79.1142C56.8802 79.0347 58.8607 78.9287 60.729 78.8094V101.84C58.8277 102.019 56.8472 102.178 54.7808 102.304V79.1142ZM63.9638 78.5577C66.1226 78.3723 68.1031 78.1471 69.9119 77.8888V100.635C68.1625 100.933 66.1886 101.224 63.9638 101.489V78.5577ZM73.1401 77.3522C75.4771 76.9018 77.4511 76.3785 79.0883 75.7625V98.3429C77.6161 98.8993 75.6818 99.4689 73.1401 100.012V77.3522ZM32.7114 18.8645L30.2027 16.8773L33.3848 17.2681C33.9855 17.3476 34.5863 17.0694 34.9229 16.566C35.2596 16.0626 35.2926 15.4069 34.9956 14.8703L33.3848 11.9757L36.2169 13.5721C36.745 13.8701 37.3986 13.8437 37.9069 13.5058C38.4152 13.168 38.6859 12.5719 38.6199 11.9691L38.2436 8.70363L40.2703 11.2803C40.6466 11.7572 41.2606 11.989 41.8547 11.8632C42.4489 11.7439 42.9308 11.3001 43.0958 10.7172L44.0003 7.52458L44.9047 10.7172C45.0697 11.3001 45.5517 11.7439 46.1458 11.8632C46.74 11.9824 47.3539 11.7572 47.7302 11.2803L49.757 8.70363L49.3807 11.9691C49.308 12.5719 49.5853 13.168 50.0937 13.5058C50.602 13.8437 51.2489 13.8701 51.7837 13.5721L54.6158 11.9757L53.005 14.8703C52.7079 15.4002 52.7343 16.056 53.0776 16.566C53.4143 17.0694 54.0084 17.3476 54.6158 17.2681L57.7978 16.8773L55.2892 18.8645C54.8139 19.242 54.5894 19.858 54.7082 20.4542C54.8271 21.0503 55.2694 21.5338 55.8503 21.6994L59.0257 22.6069L55.8503 23.5143C55.2694 23.6799 54.8271 24.1635 54.7082 24.7596C54.5894 25.3557 54.8139 25.9718 55.2892 26.3493L57.8572 28.3828L54.596 28.0052C53.9886 27.9324 53.4011 28.2106 53.0644 28.7206C52.7277 29.2306 52.7013 29.8798 52.9984 30.4097L54.5696 33.2181L51.7705 31.6417C51.2423 31.3436 50.5888 31.3701 50.0804 31.7079C49.5721 32.0457 49.3014 32.6419 49.3675 33.2446L49.7438 36.5101L47.717 33.9335C47.3407 33.4566 46.7334 33.2248 46.1326 33.3506C45.5385 33.4698 45.0566 33.9136 44.8915 34.4965L43.9871 37.6892L43.0826 34.4965C42.9176 33.9136 42.4357 33.4698 41.8415 33.3506C41.7359 33.3307 41.6303 33.3175 41.5246 33.3175C41.0361 33.3175 40.5674 33.5427 40.2571 33.9335L38.2304 36.5101L38.6067 33.2446C38.6793 32.6419 38.402 32.0457 37.8937 31.7079C37.3854 31.3701 36.7384 31.3436 36.2037 31.6417L33.4046 33.2181L34.9758 30.4097C35.2728 29.8798 35.2464 29.224 34.9098 28.7206C34.5731 28.2106 33.9789 27.939 33.3782 28.0052L30.1169 28.3828L32.685 26.3493C33.1603 25.9718 33.3847 25.3557 33.2659 24.7596C33.1471 24.1635 32.7048 23.6799 32.1238 23.5143L28.9484 22.6069L32.1238 21.6994C32.7048 21.5338 33.1471 21.0503 33.2659 20.4542C33.4178 19.858 33.1867 19.242 32.7114 18.8645ZM30.447 31.9L27.7799 36.6625C27.4234 37.2984 27.5356 38.0866 28.044 38.6033C28.5589 39.1199 29.3445 39.2259 29.9783 38.8682L35.0352 36.0134L34.3684 41.8025C34.2826 42.5245 34.6919 43.2134 35.3587 43.485C36.0254 43.7632 36.7978 43.5578 37.2467 42.9882L40.8447 38.4112L42.4357 44.048C42.6337 44.7435 43.2675 45.227 43.9871 45.227C44.7067 45.227 45.347 44.7435 45.5385 44.048L47.1295 38.4112L50.7274 42.9882C51.1763 43.5578 51.9421 43.7632 52.6155 43.485C53.2823 43.2068 53.685 42.5179 53.6057 41.8025L52.939 36.0134L57.9959 38.8682C58.6296 39.2259 59.4152 39.1133 59.9302 38.6033C60.4451 38.0866 60.5507 37.2984 60.1942 36.6625L57.5271 31.9066C74.817 42.9617 81.3593 58.8918 81.7158 70.4172C81.3923 70.8676 80.9169 71.2981 80.2832 71.6955C80.0125 71.7684 79.7748 71.9009 79.5768 72.093C77.8406 72.9872 75.2461 73.729 71.8 74.3252C71.7076 74.3119 71.6152 74.2987 71.5161 74.2987C71.2389 74.2987 70.9814 74.3781 70.7503 74.4974C64.4259 75.4909 55.507 76.0275 44.0135 76.107C32.4869 76.0275 23.5482 75.4843 17.2106 74.4908C16.9862 74.3716 16.7287 74.292 16.4514 74.292C16.359 74.292 16.2666 74.3053 16.1741 74.3186C12.8007 73.7357 10.2458 73.0137 8.50956 72.146C8.2785 71.9009 7.98143 71.7287 7.64474 71.6624C7.03078 71.2716 6.56207 70.8543 6.25179 70.4172C6.61489 58.8852 13.1572 42.9551 30.447 31.9ZM4.52874 95.349C2.83211 91.9444 2.87833 77.1403 4.19207 73.5436C4.25809 73.3912 4.3175 73.2587 4.37692 73.1395C4.76642 73.5171 5.21533 73.8747 5.73686 74.2126V96.6804C5.06349 96.177 4.70699 95.7265 4.52874 95.349ZM83.5114 95.3622C83.3332 95.7331 82.9767 96.1902 82.3165 96.6804V74.1662C82.805 73.8416 83.2407 73.4972 83.6104 73.1329C83.6633 73.2389 83.7227 73.3581 83.7755 73.4972C85.0958 76.9548 85.1618 91.9377 83.5114 95.3622Z" fill="#0066E6"/>
</svg>
