<svg width="21" height="20" viewBox="0 0 21 20" fill="none" xmlns="http://www.w3.org/2000/svg">
<path d="M19.4849 16.969C19.4832 16.9673 19.4815 16.9656 19.4798 16.9639C18.8853 16.3882 17.9858 16.3043 17.3125 16.7086L14.2766 13.6761H17.931C18.1623 13.6761 18.3508 13.4877 18.3508 13.2564C18.3508 13.0251 18.1623 12.8366 17.931 12.8366H13.4371L11.0197 10.4209H15.8014C15.9899 11.1988 16.694 11.7795 17.5284 11.7795C18.5084 11.7795 19.3068 10.9829 19.3068 10.0012C19.3068 9.02119 18.5101 8.22281 17.5284 8.22281C16.6923 8.22281 15.9899 8.8019 15.8014 9.58143H11.018L13.4029 7.19999H17.9293C18.1606 7.19999 18.3491 7.01154 18.3491 6.78024C18.3491 6.54895 18.1606 6.36049 17.9293 6.36049H14.2424L17.3125 3.29375C17.9858 3.69808 18.8853 3.61413 19.4798 3.03848C19.4815 3.03676 19.4832 3.03505 19.4849 3.03334C20.1805 2.33775 20.1805 1.207 19.4798 0.506273C18.7808 -0.170467 17.6586 -0.168753 16.9802 0.511413C16.6409 0.850639 16.4542 1.2978 16.4542 1.77237C16.4542 2.10475 16.545 2.42513 16.718 2.70268L13.6701 5.74715V2.12017C13.6701 1.88888 13.4817 1.70042 13.2504 1.70042C13.0191 1.70042 12.8306 1.88888 12.8306 2.12017V6.58836L10.4149 9.00063V4.20007C11.1928 4.01161 11.7735 3.30746 11.7735 2.47139C11.7735 1.4914 10.9769 0.693018 9.99518 0.693018C9.01519 0.693018 8.21681 1.48969 8.21681 2.47139C8.21681 3.30746 8.7959 4.0099 9.57543 4.20007V8.9835L7.21113 6.62091V2.12017C7.21113 1.88888 7.02267 1.70042 6.79138 1.70042C6.56009 1.70042 6.37163 1.88888 6.37163 2.12017V5.78312L3.29289 2.7061C3.46422 2.42855 3.55673 2.10817 3.55673 1.7758C3.55673 1.30123 3.36999 0.854065 3.03076 0.514839C3.02905 0.513126 3.02734 0.511413 3.02562 0.509699C2.32661 -0.16704 1.20442 -0.165327 0.525972 0.514839C0.186746 0.854065 0 1.30123 0 1.7758C0 2.25038 0.186746 2.69754 0.525972 3.03676C1.10505 3.61585 2.00623 3.70322 2.69496 3.29375L5.76856 6.36392H2.11417C1.88288 6.36392 1.69442 6.55238 1.69442 6.78367C1.69442 7.01496 1.88288 7.20342 2.11417 7.20342H6.60806L8.99292 9.58486H4.19407C4.00561 8.80703 3.30146 8.22624 2.4671 8.22624C1.48711 8.22624 0.688732 9.02291 0.688732 10.0046C0.688732 10.9675 1.50253 11.783 2.4671 11.783C3.30317 11.783 4.00561 11.2039 4.19407 10.4244H8.99292L6.57551 12.8401H2.11417C1.88288 12.8401 1.69442 13.0285 1.69442 13.2598C1.69442 13.4911 1.88288 13.6796 2.11417 13.6796H5.73429L2.69668 16.7103C2.00966 16.3008 1.10677 16.3882 0.525972 16.9673C-0.169613 17.6629 -0.169613 18.7936 0.525972 19.4892C0.866911 19.8302 1.3175 19.9998 1.77151 19.9998C2.22382 19.9998 2.67612 19.8319 3.02562 19.4927C3.02734 19.4909 3.02905 19.4892 3.03076 19.4875C3.62355 18.8947 3.71093 17.9867 3.29118 17.298L6.37334 14.2192V17.9165C6.37334 18.1477 6.5618 18.3362 6.79309 18.3362C7.02438 18.3362 7.21284 18.1477 7.21284 17.9165V13.3849L9.57714 11.0223V15.8057C8.79932 15.9942 8.21853 16.6983 8.21853 17.5344C8.21853 18.499 9.03233 19.3128 9.99689 19.3128C10.9769 19.3128 11.7753 18.5161 11.7753 17.5344C11.7753 16.6983 11.1962 15.9959 10.4166 15.8057V11.0052L12.8323 13.4174V17.9182C12.8323 18.1495 13.0208 18.3379 13.2521 18.3379C13.4834 18.3379 13.6718 18.1495 13.6718 17.9182V14.2552L16.7197 17.2997C16.3017 17.9867 16.3874 18.8964 16.9819 19.4892C17.662 20.1694 18.7825 20.1711 19.4867 19.4892C20.1805 18.7954 20.1805 17.6646 19.4849 16.969ZM17.5284 9.06402C18.0544 9.06402 18.4673 9.47692 18.4673 10.0029C18.4673 10.5203 18.0458 10.9418 17.5284 10.9418C17.011 10.9418 16.5895 10.5203 16.5895 10.0029C16.5878 9.47521 17.0007 9.06402 17.5284 9.06402ZM17.5729 1.10763C17.7511 0.929449 17.9893 0.840359 18.2274 0.840359C18.4673 0.840359 18.7071 0.929449 18.8922 1.10763C19.2656 1.48112 19.2674 2.06706 18.8939 2.44055C18.5221 2.79862 17.9293 2.80033 17.5729 2.44226C17.3931 2.26237 17.2937 2.02422 17.2937 1.77409C17.2937 1.52566 17.3931 1.28752 17.5729 1.10763ZM2.44311 2.43883C2.07134 2.79862 1.47683 2.80205 1.11876 2.44397C0.938868 2.26408 0.839499 2.02594 0.839499 1.7758C0.839499 1.52566 0.938868 1.28752 1.11876 1.10763C1.29694 0.929449 1.53337 0.840359 1.77151 0.840359C2.01137 0.840359 2.25294 0.929449 2.43969 1.10934C2.61787 1.28923 2.71724 1.52566 2.71724 1.77409C2.71724 2.02594 2.61787 2.26408 2.44311 2.43883ZM2.4671 10.9418C1.95826 10.9418 1.52823 10.5117 1.52823 10.0029C1.52823 9.48549 1.94969 9.06402 2.4671 9.06402C2.99307 9.06402 3.40597 9.47692 3.40597 10.0029C3.40597 10.5203 2.9845 10.9418 2.4671 10.9418ZM2.4414 18.8947C2.06962 19.2528 1.47683 19.2545 1.12047 18.8964C0.74527 18.5212 0.74527 17.9353 1.12047 17.5601C1.29865 17.3819 1.5368 17.2928 1.77494 17.2928C2.0148 17.2928 2.25465 17.3819 2.43969 17.5601C2.81147 17.9353 2.81318 18.5212 2.4414 18.8947ZM10.9358 17.5327C10.9358 18.0501 10.5143 18.4716 9.99689 18.4716C9.48805 18.4716 9.05803 18.0415 9.05803 17.5327C9.05803 17.0153 9.47949 16.5938 9.99689 16.5938C10.5246 16.5938 10.9358 17.0067 10.9358 17.5327ZM9.99689 3.41197C9.47949 3.41197 9.05803 2.99051 9.05803 2.4731C9.05803 1.95569 9.47949 1.53423 9.99689 1.53423C10.5229 1.53423 10.9358 1.94713 10.9358 2.4731C10.9358 2.99907 10.5246 3.41197 9.99689 3.41197ZM18.8973 18.893C18.5255 19.2528 17.931 19.2562 17.5729 18.8982C17.1977 18.523 17.1977 17.937 17.5729 17.5618C17.7511 17.3836 17.9876 17.2945 18.2257 17.2945C18.4656 17.2945 18.7071 17.3836 18.8939 17.5635C19.2656 17.9387 19.2656 18.523 18.8973 18.893Z" fill="inherit"/>
</svg>
