<?xml version="1.0" encoding="utf-8"?>
<!-- Generator: Adobe Illustrator 24.3.0, SVG Export Plug-In . SVG Version: 6.00 Build 0)  -->
<svg version="1.1" id="Слой_1" xmlns="http://www.w3.org/2000/svg" xmlns:xlink="http://www.w3.org/1999/xlink" x="0px" y="0px"
	 viewBox="0 0 135.2 59.9" style="enable-background:new 0 0 135.2 59.9;" xml:space="preserve">
<style type="text/css">
	.st0{fill:#FFFFFF;}
	.st1{fill-rule:evenodd;clip-rule:evenodd;fill:#FFFFFF;}
</style>
<g>
	<path class="st0" d="M29.1,52.5l-2.6-2.1l-2-0.6l-0.9-0.1h-0.2h-0.3h-4l-1.6-0.1l-1.4-0.3l-1.2-0.6L14,47.9l-0.8-1l-0.5-0.8
		l-0.4-1.3l-0.1-1v-0.7V12h34L46,44.5l-0.2,1l-0.5,1.2l-0.6,0.8l-0.9,0.9L42.6,49l-1.7,0.6l-1.2,0.2h-0.8L32.8,50l-2.1,1l-0.8,0.6
		L29.1,52.5z M23.8,48.8l2.6,0.6l1.7,0.9l1,0.9l1.2-1l1.9-1l1.7-0.4l1.3-0.1l5.2-0.1l1.3-0.3l1.1-0.5l0.9-0.7l0.8-1l0.5-1.3l0.2-1.1
		v-0.6v-30H13.1l0.1,31l0.3,1.1l0.5,1l0.6,0.8l0.6,0.6l1,0.6l1.5,0.5l1.4,0.1h0.4H23.8z"/>
	<path class="st0" d="M27.8,47.9l-0.1-0.5c0-0.2-0.2-0.2-0.4-0.2h-0.1C26.8,47,26.6,47,26.5,47c-0.2,0-0.3,0-0.5-0.2
		c-0.1-0.1-0.1-0.1-0.2-0.1l0,0c-0.2-0.1-0.5-0.1-0.7,0s-0.4,0.1-0.6,0.1c-0.1,0-0.2,0-0.3,0l0,0l0,0c0,0-0.1,0-0.2,0
		s-0.2,0.1-0.2,0.3l-0.2,0.5V47c0-0.6,0.2-0.9,0.7-0.9c0-0.1,0.1-0.2,0.2-0.3c0.2-0.1,0.5-0.1,0.9,0c0.4,0,0.4-0.1,0.4-0.1
		s0-0.1-0.2-0.3c-0.3-0.1-0.5-0.3-0.5-0.6s0.2-0.7,0.7-1.1c0-0.2-0.1-0.3-0.1-0.4c-0.1-0.1-0.2-0.2-0.2-0.6c-0.1-0.1-0.2-0.2-0.6,0
		c0.2,0.7,0.2,1.3-0.2,1.8c-0.3,0.4-0.8,0.7-1.4,0.7c-1,0.1-1.5-0.4-2-1.1C21,43.7,21,43,21.2,42.5c-0.6-0.1-1.2-0.3-1.7-0.5
		l-0.1,0.1c-0.2,0.6,0,1.1,0.6,1.7l0,0c0,0.1,0.1,0.2,0.1,0.2c0.2,0.3,0.3,0.5,0.3,0.8c0,0.1,0,0.2-0.2,0.2
		c-0.8,0.1-1.3-0.1-1.6-0.4l0,0c-0.1-0.3-0.1-0.5,0.1-0.7c-0.1-0.6-0.2-1-0.4-1.2c-0.5-0.4-0.4-0.7-0.3-0.9l0.3-0.4l0,0
		c-1.4-1-1.5-2.2-0.4-4c0.4-0.6,0.5-1.3,0.1-2c0-0.1-0.1-0.1-0.1-0.1s0,0-0.1,0.1c-0.2,0.2-0.3,0.4-0.6,0.4c-0.5,0.2-0.9,1-1,2.7
		v0.1l-0.3,0.1l-0.1-0.1c-0.8-1.7-0.8-2.9,0-4.1c0.1-0.2,0.2-0.4,0.1-0.6c0-0.1-0.1-0.2-0.3-0.3c-0.7-0.4-1.1-1-1-1.6
		c0-0.4,0.2-0.8,0.5-1c0.2-0.2,0.5-0.2,0.8-0.2v-0.7h0.3l0,0c0.4,0.4,0.6,0.9,0.5,1.5c0.3-0.7,0.6-1.2,1-1.7c1-1.2,2.2-1.3,3.7-0.3
		c0.1,0.1,0.2,0.1,0.3,0.2c0.2,0.1,0.4,0.2,0.6,0.3c0.2,0,0.4-0.1,0.6-0.1c0.1,0,0.2-0.1,0.4-0.1c0.2-0.1,0.4-0.1,0.6-0.1
		c0.1,0,0.2,0,0.3,0v-0.2c-0.1,0-0.2-0.1-0.3-0.2c-0.1-0.1-0.1-0.2-0.1-0.4c-0.5,0-0.6-0.2-0.9-0.4c-0.1-0.1-0.2-0.2-0.3-0.3
		c-0.9-0.7-2.1-0.8-4-0.1c-0.1,0-0.2,0-0.3-0.1c-0.1-0.1-0.1-0.3,0-0.5c0.2-0.3,0.3-0.6,0.5-0.7c0-0.3,0.1-0.5,0.3-0.6
		c0.4-0.2,0.6-0.5,0.7-0.7c0-0.2,0-0.3-0.2-0.5l0,0c-0.1-0.2-0.1-0.5,0-0.7c0.2-0.4,0.7-0.6,1.7-0.9c0.2,0,0.3-0.1,0.4-0.3
		c0.1-0.1,0.1-0.3,0-0.5c0,0,0,0-0.1,0c0,0,0,0-0.1,0l-0.9,0.1l0,0c-0.1-0.1-0.1-0.3-0.1-0.4c0.1-0.4,0.6-0.8,1-1.2l-0.1-0.5
		l-0.1-0.1c0,0,0,0,0-0.1c-0.1-0.1-0.3-0.4-0.3-0.7c-0.1-0.1-0.1-0.3-0.2-0.6l0.2-0.7c-0.3-0.3-0.2-0.5-0.1-0.8v-0.1
		c0,0,0-0.1-0.1-0.1l-1.4-1.9c-0.1-0.4,0.2-0.5,0.3-0.5h0.1l1.6,2c0.1,0,0.2,0.1,0.4,0.1c0.1,0,0.2,0,0.3,0.1c0.1,0.1,0.1,0.2,0,0.3
		l0.2,0.3l0,0c0,0.1,0.1,0.3,0.2,0.4c0.3,0,0.6,0.2,0.6,0.8l0.3,0.7c0,0.1,0,0.1,0,0.1s0.2,0,0.3-0.1l0.8-0.6
		c0.4-0.3,0.9-0.2,1.3,0.1h0.1c0.2-0.1,0.6-0.1,1.1,0c0-0.2,0.1-0.4,0.2-0.6c0-0.9,0.2-1.5,0.6-1.9c-0.3,0.1-0.6,0.2-0.9,0H27
		c-0.7,0-1.1-0.2-1.3-0.5l-0.2-0.2h0.3c0.1,0,0.3,0,0.4,0c-0.3-0.2-0.5-0.3-0.6-0.5c-0.1-0.1-0.1-0.2,0-0.3c0-0.1,0.1-0.1,0.3-0.1
		l0,0c0.8,0.4,1.1,0.1,1.6-0.1c0.2-0.1,0.5-0.3,0.9-0.4c0.3-0.2,0.5-0.2,0.8,0l0,0c0.1,0.1,0.2,0.1,0.4,0.2h0.2c0.1-0.1,0.2,0,0.3,0
		c0.1,0.1,0.2,0.2,0.2,0.5l0,0c0,0.2,0,0.6-0.3,0.9l-0.1,0.1c-0.1,0-0.1,0-0.1,0.1c0.3,0.4,0.5,1,0.4,1.8v0.1l0,0l0.1,0.6h-0.1v0.6
		c0.7-0.5,1.4-0.9,2.1-0.4c0.1,0,0.2,0,0.3,0s0.2,0,0.3,0h0.9c-0.1-0.1-0.1-0.2-0.2-0.2l-0.1-0.1c-0.1-0.1,0-0.2,0-0.2
		c0.1-0.1,0.2-0.1,0.3-0.1l0.7,0.1l0,0c-0.1-0.2,0-0.3,0-0.3c0.2-0.2,0.9,0.5,1,0.5c0.2,0.2,0.3,0.2,0.3,0.2c0.5-0.2,0.9-0.2,1.2,0
		c0.2,0.1,0.3,0.3,0.4,0.5l0.4,0.7L37.2,20l0,0l0,0c0.2,0.2,0.2,0.4,0.2,0.7v0.1c0.3,0.6,0.8,1.2,1.3,1.7l0.3,0.2
		c0.2,0.2,0.2,0.5,0.2,0.8c0.1,0.3,0,0.5-0.1,0.6s-0.2,0.2-0.4,0.2h-0.1l0,0l0,0c0,0.1-0.1,0.2-0.2,0.2c-0.2,0-0.6-0.2-0.9-0.5
		c-0.2-0.2-0.7-0.4-1.5-0.5c0.1,0.6,0.4,1.1,0.6,1.8c0.2,0.5,0.4,1,0.6,1.6c0.8,0.9,1.6,1.8,1.7,3c0,0.1,0,0.2,0.1,0.3
		c0,0,0,0,0.1,0l0.9-0.6c0.3-0.6,0.7-0.7,0.9-0.6c0.3,0.1,0.5,0.4,0.5,0.8c0.4,0.6,0.9,1.2,1.5,1.8c0.5,0.3,0.5,0.6,0.4,1.1v0.1
		c0,0.1,0,0.3,0,0.5l0.2,0.5c0.1,0.4,0.1,0.8,0,1.2c-0.1,0.1-0.2,0.2-0.3,0.1c-0.5-0.2-1-0.6-1-1.1c0-0.3,0.2-0.5,0.4-0.6l0,0
		c0.1-0.1,0.1-0.4-0.1-0.7c-0.1,0-0.2,0-0.3-0.1S42,32.2,42,31.9l-1-1c-0.1-0.1-0.2-0.2-0.3-0.2c0,0-0.1,0-0.2,0.1
		c-0.8,0.8-1.3,1.4-1.6,1.6c0.2,0,0.4,0,0.7-0.1c0.2-0.1,0.4-0.1,0.5,0c0.2,0.1,0.5,0.4,0.5,0.9c0.1,0.1,0.2,0.3,0.3,0.5
		c0.2,0.4,0.5,0.7,0.8,1s0.4,0.7,0.4,1.4c0,0.3,0.1,0.6,0.3,1c0.2,0.3,0.3,0.6,0.3,0.9c0,0.2,0,0.5-0.2,0.6c-0.1,0.1-0.3,0-0.6-0.2
		L41.5,38c-0.2-0.1-0.3-0.4-0.1-0.8c0.2-0.5,0.2-0.8,0-1.1c-0.3-0.2-0.6-0.5-0.4-0.8c0.1-0.2,0.1-0.3-0.1-0.4L40,34
		c-0.2-0.2-0.3-0.3-0.6-0.1l-0.9,0.3c-1.2,0.6-2.3,1-3.5,1.1c0,0-0.1,0-0.2,0.1c0,0,0,0-0.1,0l0.8,1.1l0.2-0.3l0.1,0.5
		c0.2-0.2,0.4-0.3,0.6-0.2c0.2,0.1,0.3,0.3,0.3,0.5c0.2,0.5,0.4,0.9,0.6,1.1l0,0c0.1-0.1,0.3-0.1,0.3-0.1c0.3,0.1,0.5,0.4,0.7,1.1
		l0.3,0.5c0.2,0.2,0.4,0.4,0.4,0.7c0,0.1,0.1,0.1,0.1,0.1s0.1,0.1,0.1,0.2c0,0.2-0.2,0.3-0.3,0.3l0,0h-0.3c0,0.2,0,0.2,0.1,0.2H39
		l-0.3,0.2c-0.1,0.1-0.3,0.1-0.4,0.1l0,0c0,0.9-0.2,1.3-0.5,1.5c-0.4,0.6-0.7,1-1.1,1.1c0,0.1-0.1,0.1-0.1,0.2
		c0,0.1-0.1,0.1-0.1,0.2l-0.1,0.1c-0.1,0.3-0.2,0.5-0.5,0.4h-0.1c0,0,0,0.1,0.1,0.2c0.1,0.1,0.2,0.2,0.7,0c0.2-0.2,0.4-0.3,0.6-0.2
		c0.1,0,0.3,0.1,0.4,0.3c0.2,0,0.4,0,0.5,0c0.1,0.1,0.1,0.1,0.2,0.3c0.2,0.2,0.3,0.3,0.3,0.5c0,0.1-0.1,0.3-0.3,0.4l-0.4,0.2
		l0.2-0.4v-0.1C38,46,37.9,46,37.8,46c0,0,0,0-0.1,0c0,0,0.1,0.1,0.1,0.2c0.1,0.3-0.2,0.8-0.5,0.9l-0.4,0.2l0.2-0.4
		c0.1-0.1,0.1-0.3,0.1-0.3c-0.1-0.1-0.3-0.1-0.5,0.1c0.1,0.2,0.1,0.4,0,0.6l0.3,0l-0.1-0.2c-0.4-0.5-0.8-0.6-1.6-0.4
		c-0.1,0-0.1,0-0.2,0c-0.1,0-0.2,0-0.3,0.1l0,0c-0.1,0-0.6,0-0.7-0.3h-0.3c-0.3,0.2-0.6,0.2-0.8,0.1c-0.1,0-0.2,0-0.3,0
		c0,0,0,0.1,0,0.2v0.6l-0.3-0.6c-0.1-0.2-0.2-0.4-0.1-0.7c0.1-0.1,0.2-0.2,0.3-0.3c0-0.1,0.1-0.2,0.1-0.2c0.1-0.1,0.3-0.2,0.6-0.2
		c0-0.1,0-0.1,0-0.1c-0.1,0-0.1,0-0.2,0c0,0.2-0.1,0-0.1-0.3c0,0-0.5,0-0.9,0.3c-0.1,0.1-0.2,0.2-0.3,0.2c-0.1,0-0.3-0.1-0.4-0.3
		c-0.1-0.1-0.2-0.1-0.2,0h-0.1l-0.3-0.1c-0.2-0.1-0.4-0.2-0.7-0.2c-0.1,0-0.2,0-0.2,0c-0.1,0-0.2,0-0.4-0.1c-0.1,0-0.2-0.1-0.3-0.2
		c-0.1-0.1-0.2-0.2-0.4-0.2c-0.2,0-0.3,0.1-0.3,0.2c0,0.2,0.3,0.5,0.9,0.6c0.2-0.1,0.3-0.2,0.4-0.2s0.2,0.1,0.2,0.2
		c0.4,0.1,0.6,0.3,0.6,0.7v0.2l-0.2-0.2c-0.2-0.2-0.3-0.2-0.4-0.2c0,0,0,0.1-0.1,0.1c0.1,0,0.2,0.1,0.3,0.2c0.1,0.2,0.1,0.5,0,0.9
		L30,47.6v-0.5c0-0.3-0.1-0.3-0.1-0.4c0,0,0,0-0.2,0.1l0,0l0,0c-0.3,0.1-0.6,0-1.1-0.2c-0.5-0.1-0.7-0.1-0.8-0.1c0,0,0,0,0,0.1
		c0.1,0.1,0.2,0.3,0.1,0.5L27.8,47.9z M27.2,46.9L27.2,46.9c0.2,0,0.4,0,0.5,0.1l0,0c0-0.1,0-0.1-0.1-0.2c-0.1-0.1-0.1-0.2-0.1-0.3
		c0.1-0.1,0.2-0.2,1.1-0.1c0.4,0.2,0.7,0.2,0.9,0.2c0.1-0.1,0.2-0.2,0.4-0.2c0,0,0.1,0,0.1,0.1c0-0.1,0-0.1-0.1-0.2
		c-0.1-0.1-0.2-0.2-0.5-0.2h-0.2V46c0-0.1,0.1-0.2,0.1-0.2c0.1,0,0.1,0,0.2,0c0,0,0,0,0.1-0.1l0,0l0,0c0.1-0.1,0.3-0.1,0.4,0
		c-0.1-0.1-0.2-0.1-0.4-0.2h-0.1v-0.1c0,0,0-0.1-0.1-0.1c0,0-0.1,0-0.3,0.2l0,0H29c-0.7-0.2-1.1-0.5-1.1-0.9c0-0.2,0.2-0.4,0.5-0.5
		s0.5,0.1,0.6,0.2c0.1,0.1,0.1,0.1,0.2,0.2c0.1,0,0.2,0,0.3,0c0.1,0,0.2,0,0.3,0c0.4,0,0.6,0.1,0.8,0.2l0.2,0.1
		c0.2-0.1,0.3-0.1,0.5,0.1c0.1,0.1,0.1,0.2,0.2,0.2l0,0l0.1-0.1c0.4-0.3,1-0.4,1.2-0.3c0.1,0.1,0.1,0.1,0.1,0.2c0,0.2,0,0.3,0,0.3
		l0,0c0.3,0,0.3,0.4,0.3,0.5V46h-0.1c-0.3,0-0.5,0-0.6,0.1c0,0-0.1,0.1-0.1,0.2v0.1h-0.1c-0.1,0-0.2,0.1-0.2,0.2v0.1
		c0.1-0.1,0.3-0.1,0.4-0.1c0.2,0,0.4,0,0.7-0.1h0.1l0.5-0.1v0.1c0,0.1,0,0.2,0.5,0.2c0.1,0,0.2-0.1,0.3-0.1s0.1,0,0.2,0
		c0.5-0.1,1.2-0.2,1.7,0.3c0-0.1,0-0.2-0.1-0.2l-0.1-0.1l0.1-0.1c0.3-0.2,0.7-0.3,0.9-0.1l0.1,0.1c0.1-0.1,0.1-0.3,0.1-0.3
		s0,0-0.1,0h-0.2l0.1-0.2c0.1-0.2,0.2-0.3,0.3-0.3c0.2,0,0.4,0.1,0.5,0.2l0,0c0-0.1-0.1-0.2-0.2-0.3l0,0l0,0c0-0.1,0-0.1-0.1-0.1
		s-0.2-0.1-0.4,0h-0.1v-0.1c-0.1-0.1-0.2-0.2-0.3-0.2s-0.2,0-0.4,0.2l0,0c-0.2,0.1-0.7,0.3-1-0.1c-0.2-0.2-0.2-0.4-0.1-0.5
		c0.1-0.1,0.2-0.1,0.4,0c0,0,0.1-0.2,0.2-0.3l0.1-0.1c0-0.1,0.1-0.1,0.1-0.2c0-0.1,0.1-0.1,0.1-0.2v-0.1h0.1c0.3,0,0.6-0.3,1-1l0,0
		l0,0c0.1-0.1,0.4-0.3,0.4-1.5v-0.2l0.2,0.1c0,0,0.1,0,0.2,0c-0.1-0.1-0.1-0.2-0.1-0.4v-0.1h0.5h0.1c-0.1,0-0.1-0.1-0.2-0.2l0,0
		c0-0.2-0.2-0.4-0.4-0.6l0,0l-0.4-0.6c-0.2-0.8-0.4-1-0.6-1c0,0-0.1,0-0.2,0.1l-0.1,0.1l-0.2-0.1c-0.3-0.3-0.5-0.7-0.7-1.2l0,0l0,0
		c0-0.2-0.1-0.3-0.2-0.3c-0.1,0-0.4,0.1-0.5,0.3l-0.2,0.3L35,37.1l-0.1,0.1l-1.2-1.7h0.2c0,0,0.1,0,0.2-0.1c0.1,0,0.2-0.1,0.2-0.1
		c1.2-0.1,2.3-0.4,3.5-1.1l0.9-0.3c0.4-0.2,0.6,0,0.8,0.2l0.9,0.9c0.2,0.2,0.2,0.4,0.1,0.7c0,0.1,0,0.2,0.4,0.5
		c0.2,0.3,0.4,0.7,0.1,1.4c-0.2,0.4,0,0.5,0,0.5l0.6,0.4c0.2,0.2,0.3,0.2,0.3,0.1c0,0,0.1-0.1,0.1-0.4c0-0.3-0.1-0.5-0.3-0.8
		c-0.2-0.4-0.3-0.8-0.4-1.1c0-0.7-0.1-1-0.3-1.2c-0.4-0.3-0.6-0.7-0.9-1.1c-0.1-0.2-0.1-0.3-0.2-0.4h-0.1v-0.1
		c0-0.4-0.2-0.7-0.4-0.8c-0.1-0.1-0.2-0.1-0.3,0l0,0c-0.2,0.1-0.6,0.1-0.9,0h-0.1v-0.3h0.1c0.3-0.2,0.9-0.7,1.6-1.6
		c0.1-0.1,0.2-0.2,0.3-0.2c0.2,0,0.3,0.1,0.4,0.3l1,1V32c0,0.3,0,0.5,0.1,0.6c0,0,0.1,0,0.2,0h0.1v0.1c0.4,0.7,0.3,1,0.1,1.1l0,0
		c-0.2,0.2-0.3,0.3-0.3,0.4c0,0.3,0.4,0.7,0.9,0.8c0.1-0.3,0.1-0.7,0-1l0.4-0.7c0-0.2,0-0.4,0-0.5v-0.1c0-0.4,0.1-0.6-0.4-0.9
		c-0.6-0.6-1.1-1.3-1.5-1.9l0,0l0,0c0-0.3-0.1-0.6-0.3-0.6s-0.5,0.2-0.7,0.5l0,0l-0.9,0.6c-0.2,0.1-0.3,0.1-0.3,0
		c-0.1-0.1-0.2-0.3-0.2-0.5c-0.1-1.1-0.9-2-1.7-2.8l0,0c-0.2-0.6-0.4-1.1-0.6-1.6c-0.3-0.7-0.6-1.4-0.7-2v-0.2h0.2
		c1,0.1,1.6,0.3,1.8,0.5c0.3,0.3,0.6,0.4,0.7,0.4c0,0,0,0,0.1,0c0,0-0.1-0.1-0.2-0.1c-0.1,0-0.1-0.1-0.2-0.1l-0.2-0.2h0.3
		c0.2,0,0.4,0.1,0.6,0.3c0.1,0,0.2,0,0.2-0.1c0.1-0.1,0.1-0.2,0-0.4l0,0l0,0c0.1-0.4,0-0.5-0.1-0.6l-0.3-0.2c-0.6-0.6-1-1.2-1.3-1.8
		c-0.1-0.1-0.1-0.2-0.1-0.3c0-0.3-0.1-0.4-0.3-0.6L36.7,20l0.2-0.1v-0.2h0.2L37,19.5c0-0.2-0.1-0.3-0.3-0.4s-0.6-0.1-1,0
		c-0.2,0.1-0.3-0.1-0.5-0.3c-0.2-0.2-0.4-0.4-0.6-0.4c0,0.1,0.1,0.2,0,0.2c0,0-0.1,0.1-0.2,0.1l-0.8-0.1c0.1,0.1,0.3,0.3,0.3,0.5
		v0.1l-1.2,0.1c-0.1,0-0.2,0-0.2,0c-0.1,0-0.2,0.1-0.4,0l0,0l0,0c-0.4-0.4-1-0.2-1.9,0.4h-0.1l-0.2-0.1v-1.1H30l-0.1-0.6H30
		c0-0.7-0.1-1.2-0.4-1.6l0,0c-0.1-0.3,0.2-0.4,0.2-0.4l0,0c0.2-0.2,0.2-0.5,0.2-0.7l0,0c0-0.3-0.1-0.3-0.1-0.3s0,0-0.1,0l0,0h-0.2
		c-0.3,0-0.5-0.1-0.6-0.2c-0.2-0.1-0.4-0.1-0.5,0l0,0c-0.4,0.1-0.6,0.2-0.9,0.4c-0.5,0.3-0.9,0.5-1.8,0.2c0.2,0.2,0.4,0.4,0.8,0.6
		l0.2,0.1l-0.2,0.1c-0.1,0.1-0.2,0.1-0.5,0.1c0.2,0.1,0.6,0.2,1,0.2l0,0l0,0c0.2,0.1,0.4,0.1,0.8-0.1c0,0,0.2-0.1,0.3,0
		c0.1,0.1,0,0.2,0,0.4l0,0c-0.4,0.3-0.6,0.9-0.6,1.8l0,0l0,0c-0.1,0.2-0.2,0.4-0.2,0.7v0.1h-0.1c-0.3-0.1-0.8-0.2-1-0.1l0,0H26l0,0
		c-0.4-0.3-0.7-0.3-1.1-0.1L24,19.9c-0.2,0.2-0.4,0.2-0.6,0.1c-0.1,0-0.2-0.1-0.2-0.2l-0.3-0.7l0,0c0-0.5-0.2-0.6-0.4-0.6l0,0l0,0
		c-0.2-0.2-0.3-0.3-0.3-0.5L22,17.7v-0.1c0-0.1,0-0.1,0-0.2h-0.1c-0.2,0-0.4,0-0.6-0.1l0,0l-1.5-1.9c-0.1,0-0.1,0.1-0.1,0.2l1.3,1.9
		c0,0,0,0.1,0.1,0.1c0,0.1,0.1,0.2,0.1,0.3c-0.1,0.3-0.1,0.4,0,0.5l0.5,0.5l0,0c0.1,0.4,0.1,0.6,0.2,0.6l0.1,0.1v0.1
		c-0.1,0.1,0,0.2,0.2,0.5c0,0,0,0.1,0.1,0.1c0,0,0,0.1,0.1,0.1l0,0l0.1,0.8l0,0c-0.8,0.7-0.9,1-1,1.1c0,0.1,0,0.1,0,0.2l0.9-0.1l0,0
		c0,0,0,0,0.1,0s0.1,0.1,0.2,0.1c0.1,0.2,0.1,0.5,0,0.7s-0.3,0.3-0.6,0.4c-0.5,0.1-1.3,0.4-1.5,0.8c-0.1,0.1-0.1,0.3,0,0.5
		c0.2,0.2,0.3,0.5,0.2,0.7c-0.1,0.3-0.3,0.6-0.8,0.9c-0.1,0.1-0.2,0.3-0.2,0.5v0.1l0,0c-0.2,0.1-0.3,0.3-0.5,0.7
		C19,27.6,19,27.7,19,27.7l0,0c1.2-0.4,3-0.8,4.2,0.2c0.2,0.1,0.3,0.2,0.3,0.3c0.2,0.2,0.3,0.3,0.9,0.4h0.1v0.1c0,0.2,0,0.3,0,0.3
		c0,0.1,0.1,0.1,0.2,0.1h0.1l0.1,0.6h-0.1c-0.2,0-0.3,0.1-0.5,0.1s-0.4,0-0.6,0.1c-0.1,0-0.2,0.1-0.4,0.1c-0.3,0.1-0.5,0.1-0.7,0.1
		l0,0l0,0c-0.2-0.1-0.4-0.2-0.6-0.4c-0.1-0.1-0.2-0.1-0.3-0.2c-1.4-0.9-2.5-0.8-3.4,0.2c-0.6,0.7-1,1.6-1.4,2.7
		c0,0.1-0.1,0.2-0.2,0.3s-0.3,0-0.5-0.1c-0.5-0.4-0.7-0.8-0.7-1.1c0-0.2,0.1-0.4,0.2-0.5c0.2-0.2,0.5-0.3,0.6-0.3s0.1,0.1,0.1,0.2
		s0,0.2,0,0.2c0.2,0,0.4,0.2,0.5,0.4c0.2-0.6,0.1-1-0.3-1.4v0.7h-0.2c-0.3-0.1-0.5,0-0.7,0.1c-0.2,0.2-0.4,0.5-0.4,0.8
		c0,0.5,0.2,1,0.9,1.4c0.2,0.1,0.3,0.2,0.4,0.4c0.1,0.3,0,0.6-0.2,0.8c-0.7,1-0.7,2.1-0.1,3.6c0.2-1.6,0.5-2.4,1.1-2.6
		c0.2-0.1,0.3-0.2,0.4-0.3s0.2-0.2,0.3-0.2l0,0c0.1,0,0.2,0.1,0.3,0.3c0.3,0.8,0.3,1.5-0.2,2.2c-1,1.7-0.9,2.8,0.3,3.7l0,0l0.1,0.2
		l-0.4,0.5c-0.1,0.2,0.1,0.4,0.3,0.5c0.2,0.3,0.4,0.7,0.5,1.4l0,0l0,0c-0.1,0.1-0.1,0.3-0.1,0.5c0.2,0.3,0.7,0.4,1.3,0.3l0,0l0,0
		c0-0.2-0.1-0.4-0.2-0.7c0-0.1-0.1-0.1-0.1-0.2c-0.7-0.6-0.9-1.3-0.7-1.9l0.2-0.3h0.1c0.5,0.2,1.2,0.4,1.9,0.5h0.2l-0.1,0.1
		c-0.3,0.6-0.2,1.2,0,1.5c0.5,0.8,0.9,1.1,1.7,1c0.5,0,0.9-0.3,1.2-0.6c0.3-0.4,0.3-1,0.1-1.7V42h0.1c0.6-0.3,0.9-0.1,1,0.1l0,0l0,0
		c0,0.3,0,0.4,0.1,0.5s0.2,0.2,0.2,0.6v0.1l0,0c-0.5,0.4-0.7,0.7-0.6,0.9c0,0.1,0.2,0.3,0.4,0.4l0,0c0.1,0.1,0.3,0.3,0.2,0.5
		c-0.1,0.2-0.3,0.2-0.7,0.3l0,0l0,0c-0.4-0.1-0.6-0.1-0.8,0c-0.1,0-0.1,0.1-0.1,0.2v0.1h-0.1c-0.3,0-0.4,0.1-0.5,0.3
		c0,0,0.1,0,0.1-0.1c0.1,0,0.2,0,0.3,0c0.1,0,0.2,0,0.3,0c0.2,0,0.3,0,0.5,0c0.3-0.1,0.5-0.1,0.8,0c0.2,0,0.3,0.1,0.4,0.2
		c0.1,0.1,0.2,0.1,0.3,0.1C26.6,46.7,26.8,46.7,27.2,46.9 M16.1,31.1c0,0-0.1,0-0.4,0.2c-0.1,0.1-0.2,0.2-0.2,0.4
		c0,0.3,0.2,0.6,0.6,0.9c0.1,0.1,0.3,0.1,0.3,0.1s0.1,0,0.1-0.1s0.1-0.3,0.1-0.4l0.1-0.2c-0.2-0.3-0.3-0.5-0.6-0.5H16v-0.2h0.1
		C16.1,31.2,16.1,31.1,16.1,31.1 M38.4,24.3L38.4,24.3L38.4,24.3 M35,45.8c-0.1,0-0.2,0-0.3-0.1s-0.2-0.2-0.2-0.3s0.1-0.2,0.3-0.3
		l0.1-0.1v0.1c0,0.1,0.1,0.2,0.2,0.2c0.1,0.1,0.2,0.2,0.1,0.3c0,0.1-0.1,0.1-0.1,0.1S35.1,45.7,35,45.8L35,45.8 M34.8,45.3
		C34.7,45.3,34.7,45.4,34.8,45.3c-0.1,0.1,0,0.1,0,0.2c0.1,0,0.1,0.1,0.1,0.1l0,0l0,0l0,0C34.9,45.4,34.9,45.4,34.8,45.3 M27.1,45.3
		l-0.4-0.4c-0.1-0.2-0.1-0.4,0.2-0.6l0.2-0.1v0.2c0,0.1,0,0.2,0.1,0.2c0.1,0.1,0.2,0.2,0.2,0.3C27.3,45.1,27.3,45.2,27.1,45.3
		L27.1,45.3z M26.9,44.8l0.2,0.2c0,0,0-0.1-0.1-0.1c0,0-0.1-0.1-0.1-0.2V44.8 M23,43.5L23,43.5c-0.2-0.1-0.3-0.2-0.3-0.3
		s0.1-0.3,0.3-0.4h0.1h0.1c0.2,0.1,0.2,0.2,0.2,0.3C23.4,43.2,23.3,43.4,23,43.5L23,43.5z M23.1,43C23,43.1,23,43.1,23,43.2l0,0
		C23.1,43.2,23.1,43.1,23.1,43C23.1,43.1,23.1,43,23.1,43 M35.3,42.8c-0.2,0-0.3,0-0.4-0.1c-0.2-0.1-0.4-0.4-0.4-1.1
		c0-0.3,0.1-0.5,0.1-0.8s0.1-0.7,0.1-1c0.1-0.6,0.1-0.9,0-1.2c-0.1-0.2-0.4-0.3-0.7-0.3h-0.1c-0.4,0-0.7,0-0.9,0.2
		c-0.3,0.2-0.7,0.1-1.2-0.2c-0.7-0.6-1.3-0.9-1.7-1c0.3,0.4,0.3,0.9,0.1,1.3c0.1,0.1,0.2,0.2,0.2,0.3c0,0.2-0.2,0.3-0.3,0.4l0,0
		c-0.8,0-1.7-0.1-2.9-0.4c0.7,0.3,1.1,0.8,1.1,1.4v0.1h-0.1c-0.5,0-0.9,0-1.1,0.1c-0.3,0.2-0.6,0.1-0.8-0.2c-0.3-0.3-0.5-0.7-0.5-1
		s0.2-0.5,0.5-0.7c0.2-0.2,0.7-0.6,1.5-1.6l0,0h0.1c0.3,0,0.5-0.1,0.8-0.1c0.1,0,0.3-0.1,0.4-0.1c2-0.2,3.4-0.6,4.5-1.3
		c0.4-0.1,0.6,0,0.7,0.2l1.1,1.4l-0.2,0.1l0.7,0.5l-0.1,0.1c0,0,0,0,0.1,0l0.1,0.1L35.9,38v0.1H36l0.1,0.2c0,0.1,0.1,0.3,0,0.3
		c-0.1,0.1-0.2,0-0.4-0.2c0,0,0,0.1,0.1,0.2l0.4,0.6c0,0.3,0.1,0.4,0.3,0.6l0,0l0.3,0.7c0,0.1,0,0.1,0.1,0.2v0.1
		c0.1,0.3,0.1,0.3,0.2,0.3h0.2l-0.1,0.2c-0.2,0.4-0.5,0.8-1,1.1C35.8,42.7,35.5,42.8,35.3,42.8 M33.9,38c0.4,0,0.7,0.2,0.9,0.4
		c0.2,0.3,0.2,0.7,0.1,1.3c0,0.4-0.1,0.7-0.1,1c0,0.2-0.1,0.5-0.1,0.8c0,0.5,0.1,0.8,0.3,0.9c0.2,0.1,0.6,0.1,1.1-0.1
		c0.4-0.2,0.7-0.6,0.8-0.8c-0.2-0.1-0.2-0.3-0.3-0.5c0,0,0,0,0-0.1s-0.1-0.2-0.1-0.2l-0.3-0.6c-0.2-0.2-0.3-0.4-0.4-0.7l-0.4-0.6
		c-0.1-0.3-0.2-0.5-0.1-0.6c0.1-0.1,0.1-0.1,0.2,0v-0.1c-0.1,0-0.1-0.1-0.1-0.2v-0.1l-0.8-0.6l0.3-0.1L34,35.9
		c-0.1-0.1-0.2-0.2-0.4-0.1c-1.1,0.6-2.6,1-4.6,1.3c-0.1,0-0.3,0-0.4,0.1c-0.2,0-0.5,0.1-0.7,0.1c-0.6,0.8-1.1,1.4-1.5,1.6
		C26.1,39,26,39.2,26,39.4s0.1,0.5,0.4,0.8l0,0c0.2,0.2,0.3,0.2,0.5,0.1l0,0c0.3,0,0.7-0.1,1-0.1c0-0.5-0.4-0.9-1.1-1.2l0,0
		c-0.1-0.1-0.2-0.2-0.2-0.3c0.1-0.1,0.3-0.1,0.4-0.1c1.1,0.3,2.1,0.5,2.8,0.4c0.2-0.1,0.2-0.1,0.2-0.1s0-0.1-0.2-0.1l-0.1-0.1
		l0.1-0.1c0.3-0.4,0.2-0.9-0.2-1.3L29.5,37h0.3c0.5,0,1.1,0.3,2.1,1.1c0.4,0.2,0.7,0.3,0.9,0.2C33,38.1,33.4,38.1,33.9,38L33.9,38z
		 M22.4,40.9L22.4,40.9c-0.3-0.2-0.6-0.2-0.9-0.1h-0.1v-0.1c0-0.1-0.1-0.2-0.6-0.1h-0.1l0,0c-0.1-0.1-0.3-0.2-0.5-0.2h-0.1v-0.1
		c0.2-0.9,0.8-1.5,1.8-1.6c0.8-0.1,1.6-0.5,2.5-1l0.4-0.2c0.2-0.1,0.4-0.2,0.5-0.1c0.1,0.1,0.1,0.3-0.2,0.8l-0.5,0.6
		c-0.1,0.2-0.2,0.3-0.2,0.4c0,0.1,0.1,0.2,0.2,0.3c0.6,0.3,0.8,0.6,0.7,0.8v0.1h-0.1c-0.6-0.2-1,0-1.4,0.3l0,0h-0.1
		C23.3,40.6,22.9,40.7,22.4,40.9L22.4,40.9z M21.9,40.5c0.2,0,0.4,0,0.5,0.1c0.5-0.2,0.8-0.3,1.2-0.2c0.4-0.3,0.9-0.5,1.4-0.4
		c-0.1-0.1-0.3-0.3-0.6-0.4c-0.2-0.2-0.3-0.3-0.3-0.5s0.1-0.4,0.3-0.6l0.5-0.6c0.1-0.2,0.2-0.3,0.2-0.4c0,0-0.1,0.1-0.2,0.1
		l-0.4,0.2c-0.9,0.4-1.8,0.8-2.6,1c-0.9,0.1-1.4,0.6-1.6,1.3c0.2,0.1,0.4,0.1,0.5,0.2c0.2,0,0.6-0.1,0.8,0.2
		C21.7,40.6,21.8,40.5,21.9,40.5 M19.3,39.9l-0.1-0.1c-0.5-0.3-0.6-0.8-0.2-1.7c0.8-1.6,0.7-2.9-0.4-4.2l0,0v-0.1
		c0.4-1.6,1-2.6,1.8-3c0.5-0.3,1.1-0.3,1.7-0.2l0.2,0.1l-0.1,0.1c-0.8,0.8-1.1,2.3-1,4.2c0,0.2,0,0.3,0,0.5c0.1,0.8,0.1,1.4-0.4,2
		c-0.2,0.2-0.4,0.4-0.6,0.5c-0.3,0.2-0.4,0.3-0.5,0.7s-0.2,0.9-0.3,1.2L19.3,39.9z M18.8,33.9c1.1,1.3,1.2,2.8,0.4,4.4
		c-0.4,0.9-0.2,1.2,0,1.3c0.1-0.3,0.2-0.6,0.2-1c0.1-0.5,0.3-0.6,0.6-0.8c0.2-0.1,0.3-0.2,0.5-0.4c0.5-0.5,0.4-1,0.4-1.8
		c0-0.1,0-0.3,0-0.5c-0.1-1.9,0.2-3.4,0.9-4.3c-0.5-0.1-0.9,0-1.3,0.2C19.8,31.4,19.2,32.4,18.8,33.9"/>
	<path class="st1" d="M41.5,37.5l0.2-0.3c0.1-0.1,0.1-0.1,0.2,0l0.4,0.3c-0.1,0.1-0.2,0.1-0.4,0.1l0.1,0.2l-0.1,0.1v0.2
		C41.6,37.9,41.5,37.7,41.5,37.5 M41.9,36.4c0,0,0.1,0.1,0.1,0.3s0,0.3-0.1,0.3s-0.1-0.1-0.1-0.3C41.8,36.6,41.8,36.4,41.9,36.4
		 M41.6,35.2c0,0,0.1,0,0.2,0.1c0.1,0.1,0.1,0.2,0,0.2c0,0-0.1,0-0.2-0.1C41.6,35.3,41.6,35.2,41.6,35.2"/>
	<path class="st1" d="M42.6,33.7h-0.1c-0.2,0.2-0.2,0.3-0.1,0.5l0.3,0.3c0.1,0.1,0.2,0,0.2,0l-0.1-0.2c0.1,0,0.1,0.1,0.2,0.1
		c0.1,0,0.1-0.1,0-0.1c-0.1-0.1-0.2-0.2-0.1-0.2V34L42.6,33.7z M42.6,32.3c-0.2-0.2-0.1-0.3,0.1-0.3c-0.2-0.3,0-0.3,0.2,0
		c0.1,0.1,0.1,0.4,0.1,0.7c0,0.1-0.1,0.1-0.2,0C42.7,32.6,42.7,32.4,42.6,32.3 M42.7,33.5l0.1-0.3c0-0.1,0-0.1,0.1,0
		c0.1,0.2,0.2,0.3,0.3,0.6c0,0.1,0,0.2-0.1,0.2s-0.2,0-0.2-0.1C42.7,33.7,42.7,33.6,42.7,33.5"/>
	<path class="st1" d="M37.4,29.7c0-0.6,0.1-1.1,0.1-1.6c0-0.2,0.1-0.2,0.1,0c0,0.5,0,1-0.1,1.5C37.5,29.7,37.4,29.8,37.4,29.7
		 M38.3,32.2L38.3,32.2c0,0.1,0,0.1,0,0.1C38.2,32.3,38.2,32.3,38.3,32.2C38.2,32.2,38.2,32.2,38.3,32.2 M36.8,29.9L36.8,29.9
		c0.1-0.1,0.1-0.1,0.1,0l0.2,0.3c0,0,0,0,0,0.1H37c0,0,0,0-0.1,0L36.8,29.9C36.7,30,36.7,30,36.8,29.9 M38.9,31.6L39,31l-0.1,0.2
		c-0.1,0-0.1-0.1-0.1-0.3c0-0.2,0-0.3,0.1-0.2l0.1,0.2l0.1-0.1c0.1-0.1,0.1,0,0.1,0.2v0.6C39,31.7,39,31.8,38.9,31.6 M40.5,29.7
		c-0.1-0.1-0.1-0.3,0-0.4s0.2-0.1,0.3,0c0.1,0,0.1,0.1,0.1,0.2l-0.2,0.1l0.2,0.1c0.1,0.1,0,0.3-0.1,0.1c-0.1-0.1-0.2-0.1-0.3,0
		C40.6,29.8,40.6,29.8,40.5,29.7 M38.4,30.8c0,0,0.1,0,0.1,0.1s0,0.2,0,0.2s-0.1,0-0.1-0.1C38.3,30.9,38.3,30.8,38.4,30.8 M37,30.6
		c0,0,0.1,0,0.1,0.1s0,0.2,0,0.2s-0.1,0-0.1-0.1C36.9,30.7,36.9,30.7,37,30.6 M37.4,29.9c0.1,0,0.2,0.1,0.3,0.3c0,0.2,0,0.3-0.1,0.4
		c-0.1,0-0.2-0.1-0.3-0.3C37.2,30.1,37.2,29.9,37.4,29.9 M37.6,30.9c-0.1-0.3,0-0.3,0.1-0.1c0.2,0.4,0.3,0.9,0.2,1.5
		c0,0.2-0.2,0.2-0.2,0C37.7,31.8,37.7,31.3,37.6,30.9 M39.3,31.4c0-0.3,0.1-0.6,0.2-0.9c0-0.1,0.1-0.2,0.2-0.1
		c0.3-0.4,0.2-0.2,0.1,0.1h0.1c0.3-0.6,0.2-0.1,0.2,0.2c-0.2,0.3-0.4,0.4-0.5,0.2l-0.1,0.4C39.4,31.5,39.3,31.5,39.3,31.4"/>
	<path class="st1" d="M18.8,41.9c-0.1,0.4-0.6,0.2-0.3-0.2c0.6-0.9,1.1-1.8,1.2-3c0-0.4,0.3-0.6,0.6-0.8c0.7-0.4,1-1.1,1-1.9
		c-0.2-3.4,0.8-4.9,2.2-5.5v0.1c-1.3,0.8-1.9,2.3-1.9,4.4c0,0.5-0.1,1,0,1.5v-0.1c0-1.2,0-2.3,0.2-3c0.2-0.8,0.4-1.3,0.7-1.6
		c0.1-0.1,0.2-0.3,0.3-0.4c0.1-0.1,0.3-0.2,0.4-0.3v0.1c-0.5,0.5-0.9,1.1-1.1,2c-0.2,1-0.2,2.1-0.2,3.2c0,0.2,0,0.3-0.1,0.4h0.1
		c0.1-0.2,0.1-0.4,0.1-0.7c-0.1-1.4,0-2.8,0.5-3.8c0.3-0.7,0.6-0.9,1.5-1.5v0.1c-0.8,0.6-1.6,1.2-1.7,3.4l0,0
		c0.2-1.7,0.8-2.9,1.9-3.4c0.4-0.2,0.9-0.1,1.4-0.1l-0.1,0.1c-0.8-0.1-1.5,0.2-2.1,0.8h0.1c0.6-0.6,1.2-0.9,2-0.7l-0.1,0.1
		c-0.6-0.1-1.1,0.1-1.5,0.5v0.1c0.5-0.3,1-0.5,1.4-0.4c0.2,0,0.2,0.1,0.2,0.3l-0.1,0.8c0,0.8-0.1,1.6-0.3,2.3L25,34.8l0.1-1.4
		l-0.3,1.7c0,0.2-0.2,0.2-0.1,0c0.1-0.4,0.2-0.9,0.3-1.4c-0.1,0-0.1,0.1-0.2,0.2c-0.1,0.7-0.2,1.3-0.4,1.6c0.1-0.5,0.2-0.9,0.2-1.4
		l-0.1,0.1l-0.2,1.3c0.2,0.1,0,0.2-0.1,0.1l0.1-0.7h-0.1l-0.3,1.2l0.1-0.8l-0.3,0.8h-0.1l0.1-0.7l-0.5,1.2c-0.1,0-0.2,0,0-0.2
		l0.3-0.8h-0.1c-0.2,0.6-0.3,1.1-0.5,1.2h-0.1c0.3-0.6,0.4-0.8,0.4-1.1c-0.2,0.5-0.3,0.9-0.6,1.2c0,0,0-0.2,0.2-0.5L23,36
		c-0.1-0.1-0.1-0.1-0.2,0.1c-0.1,0.4-0.2,0.6-0.4,0.9l0.2-0.7v-0.1c-0.1,0.4-0.3,0.8-0.6,1l0.1,0.1c0.4-0.3,1-0.2,1.5-0.4
		c0.1-0.1,0.2-0.1,0.3,0l-0.1,0.3L23.7,37c-0.1,0.2-0.2,0.4-0.3,0.5v-0.3C23.2,37.7,23,38,23,37.8v-0.3c-0.2,0.2-0.3,0.4-0.3,0.6
		c-0.1,0-0.1-0.2-0.1-0.5l-0.2,0.6c-0.1,0-0.2-0.1-0.1-0.5c-0.1,0.3-0.2,0.5-0.3,0.5c-0.1-0.1-0.1-0.2,0-0.4l-0.2,0.3
		c0,0.2-0.1,0.3-0.2,0.3c0-0.3,0-0.4,0-0.4l-0.2,0.5c-0.1,0.1-0.1-0.1-0.1-0.3c-0.2,0.1-0.1,0.4-0.2,0.6C21,38.7,21,38.6,21,38.4
		c-0.1,0.3-0.2,0.4-0.3,0.4v-0.5c0,0.2-0.1,0.4-0.2,0.6l-0.1-0.4l-0.1,0.3c-0.1,0.1-0.2,0-0.3-0.3c0,0.5-0.1,0.9-0.4,1.1
		c0,0.1-0.1,0.4-0.3,0.8l0.5-0.7c0.1,0,0.2,0,0.1,0.3l-0.5,0.8c-0.1,0.1-0.2,0.1-0.3,0c-0.1,0.4-0.3,0.7-0.5,1
		c0.2-0.1,0.3-0.4,0.5-0.8c0-0.1,0.2,0,0.1,0.3l0.2-0.3v0.2h-0.2v0.2l-0.1,0.1C19.3,41.8,19.1,42,18.8,41.9"/>
	<polygon class="st1" points="21.6,30.5 22.2,30.4 22.2,30.5 	"/>
	<path class="st1" d="M16.1,35.1c0.1-0.3,0.3-0.5,0.5-0.8c0.1-0.2,0.2-0.1,0.2,0.1C16.5,34.8,16.3,35,16.1,35.1"/>
	<path class="st1" d="M22.3,30.2c-1-0.9-1.9-1.3-2.6-1.2c-1.3,0.3-2,1.5-2.4,2.7c0.2-0.4,0.4-0.6,0.7-0.7c-0.7,1.1-1,2.1-1.1,3.4
		c0,0.2-0.1,0.3-0.2,0.4c-0.4,0.3-0.4,0.6-0.5,0.8c0.1-0.1,0.2-0.3,0.3-0.4c0.2-0.2,0.4-0.5,0.5-0.9c0.1-0.5,0.2-1.1,0.3-1.4
		c0.2-0.5,0.3-0.9,0.6-1.3c0.5-0.8,1.1-1.5,1.8-1.8v0.1c-0.7,0.4-1.2,1-1.8,1.8c-0.1,0.2-0.2,0.4-0.3,0.8c-0.1,0.3-0.2,0.6-0.3,1
		c-0.1,0.8-0.3,1.3-0.5,1.7c-0.2,0.3-0.4,0.5-0.4,0.6s-0.1,0.2-0.1,0.4c0.5-1,0.8-0.9,1-1.6c0.3-1.1,0.1-2.2,1.6-3.8H19
		c-0.7,0.8-1.2,1.6-1.4,3.2c0,0.3-0.1,0.6-0.2,0.9c-0.2,0.3-0.6,0.6-0.7,1h0.1c0.2-0.2,0.5-0.6,0.7-0.9c0.4-0.8,0.3-2,0.8-2.9
		c0.7-1.2,1.3-1.8,2.2-2.2h0.1c-1.2,0.6-1.4,1.1-2,1.8c-0.2,0.2-0.3,0.5-0.5,0.9c-0.1,0.4-0.2,1-0.3,1.5c-0.1,0.6-0.3,1-0.6,1.3
		c-0.1,0.2-0.2,0.2-0.3,0.4c-0.1,0.1-0.2,0.4-0.2,0.6h0.1c0.3-0.9,0.5-0.7,0.8-1c0.1-0.2,0.3-0.5,0.4-1c0.1-0.9,0.3-1.5,0.6-2.1
		c0.3-0.6,0.8-1.3,1.4-1.8c0.3-0.2,0.5-0.3,0.8-0.4h0.1c-0.4,0.3-0.7,0.3-1,0.6c-0.5,0.5-1,1.2-1.3,1.8s-0.4,1.2-0.5,1.9
		c0-0.1,0.1,0,0.1,0c0.3-1.6,0.8-2.7,1.5-3.4c0.4-0.4,0.9-0.7,1.3-0.8h0.3c-0.7,0.2-1.3,0.5-1.8,1.2h0.1c0.6-0.6,1.2-0.9,1.8-1.1
		h0.1c-0.4,0.1-0.8,0.3-1,0.5v0.1C20.9,30.5,21.5,30.3,22.3,30.2"/>
	<path class="st1" d="M16.3,36.8c-0.1-0.1-0.1-0.3-0.1-0.4c0-0.2,0.2-0.2,0.2,0S16.3,36.6,16.3,36.8"/>
	<path class="st1" d="M18,38.4l0.2-0.2c0.1,0,0.2-0.1,0.2,0C18.4,38.3,18.2,38.4,18,38.4"/>
	<path class="st1" d="M17.9,38.9l0.2-0.2c0.1-0.1,0.2-0.1,0.3,0C18.4,38.7,18.2,38.8,17.9,38.9"/>
	<path class="st1" d="M17.9,39.2l0.2-0.2c0.1-0.1,0.2-0.1,0.3,0C18.4,39,18.2,39.1,17.9,39.2"/>
	<path class="st1" d="M18,39.4l0.2-0.2c0.1-0.1,0.2-0.1,0.3,0C18.4,39.3,18.2,39.3,18,39.4"/>
	<path class="st1" d="M18.1,39.6l0.1-0.2c0.1,0,0.2-0.1,0.2,0C18.4,39.5,18.2,39.5,18.1,39.6"/>
	<path class="st1" d="M18.8,37.2l0.1-0.1c0.1,0,0.1,0,0.2,0C19.1,37.2,19,37.2,18.8,37.2"/>
	<path class="st1" d="M18.6,37.4l0.3-0.1c0.1,0,0.2,0,0.3,0.1C19.1,37.5,18.9,37.5,18.6,37.4"/>
	<path class="st1" d="M18.8,36.8l0.2-0.2c0.1,0,0.2,0,0.3,0C19.2,36.7,19,36.8,18.8,36.8"/>
	<path class="st1" d="M18.9,36.4h0.2c0.1,0,0.2,0,0.2,0.1C19.3,36.6,19.1,36.5,18.9,36.4"/>
	<path class="st1" d="M18.5,40.5l0.1-0.1c0.1,0,0.1,0,0.2,0C18.8,40.5,18.7,40.5,18.5,40.5"/>
	<path class="st1" d="M18.9,40h-0.3c-0.1,0.1-0.2,0.2-0.3,0.3C18.5,40.4,18.7,40.3,18.9,40"/>
	<path class="st1" d="M18.8,39.9h-0.3c-0.1,0-0.2,0.1-0.2,0.2C18.4,40.1,18.6,40,18.8,39.9"/>
	<path class="st1" d="M20,41.1l0.2-0.3c0.1-0.1,0.2-0.2,0.3-0.2C20.4,40.8,20.2,41,20,41.1"/>
	<path class="st1" d="M20.6,40.8l0.3-0.1c0.1,0,0.3,0,0.3,0.1l0,0c0,0.1-0.2,0.3-0.4,0.4l0.1-0.3l0.1-0.1h-0.1
		c-0.1,0.1-0.2,0.2-0.3,0.3V40.8c0.1,0.1,0.1,0,0.2,0C20.8,40.8,20.7,40.8,20.6,40.8"/>
	<path class="st1" d="M22,40.9c0.1,0,0.4,0,0.4,0.1s-0.2,0.3-0.4,0.4l0.1-0.3l0.1-0.1H22c-0.1,0.1-0.2,0.2-0.3,0.3l0.1-0.2
		c0,0,0,0,0.1,0h-0.1c0,0.1-0.1,0.1-0.2,0.2l0.1-0.2C21.7,40.9,21.8,40.9,22,40.9"/>
	<path class="st1" d="M23.9,40.8c0-0.3,0.2-0.4,0.6-0.5s1,0,0.8,0.2l0,0l-0.1,0.2L25,41.1l0.1-0.3v-0.2c0,0-0.1,0-0.2-0.1l-0.1,0.1
		l-0.2,0.3l0.2-0.3l0.1-0.1h-0.1l-0.1,0.1l-0.2,0.3l0.2-0.3l0.1-0.1h-0.1l-0.1,0.1l-0.2,0.3l0.2-0.3v-0.1c-0.1,0-0.1,0-0.2,0
		l-0.1,0.3v-0.2C24.1,40.6,24,40.7,23.9,40.8"/>
	<path class="st1" d="M22.5,41L22.5,41L22.5,41L22.5,41l0.4-0.3c0.3-0.1,0.6-0.2,0.5,0c0,0,0,0-0.1,0.1c0,0.1,0,0.2,0,0.3l-0.1-0.2
		h-0.1c0,0.1,0,0.2,0,0.4L23,40.9c0,0,0,0-0.1,0c0,0.2,0,0.3,0,0.5L22.8,41l0,0c0,0.1,0,0.2-0.1,0.3V41c0,0.1-0.1,0.3-0.2,0.4
		L22.5,41L22.5,41L22.5,41z"/>
	<path class="st1" d="M18.2,30.8c0.2-0.2,0.4-0.4,0.6-0.6C18.6,30.3,18.3,30.5,18.2,30.8"/>
	<path class="st1" d="M21.7,42.6c-0.1-0.2-0.1-0.3,0-0.6s0.3-0.4,0.4-0.4c0.1,0.1,0,0.4,0,0.7L21.9,42l0.1,0.4l-0.2-0.2L21.7,42.6z"
		/>
	<path class="st1" d="M23.9,43C23.8,43,23.8,42.9,23.9,43C23.8,42.9,23.8,43,23.9,43c0,0.1,0,0.1,0,0.1S23.9,43.1,23.9,43"/>
	<path class="st1" d="M23.9,43.3c-0.1-0.1-0.1-0.1-0.1-0.1C23.7,43.2,23.7,43.3,23.9,43.3c0,0.2,0,0.2,0.1,0.2
		C24,43.5,23.9,43.4,23.9,43.3"/>
	<path class="st1" d="M23.7,43.5c0-0.1-0.1-0.1-0.1-0.1S23.6,43.5,23.7,43.5c0,0.1,0,0.2,0,0.2C23.8,43.7,23.8,43.6,23.7,43.5"/>
	<path class="st1" d="M23.6,43.8c0-0.1-0.1-0.2-0.1-0.2s0,0.1,0,0.2c0,0.1,0.1,0.2,0.1,0.2S23.6,43.9,23.6,43.8"/>
	<path class="st1" d="M21.8,43.7c0.1,0,0.2,0,0.2,0.1C22,43.8,21.9,43.8,21.8,43.7c-0.1,0.1-0.2,0-0.2,0
		C21.7,43.7,21.8,43.7,21.8,43.7"/>
	<path class="st1" d="M21.8,43.5c0.1,0,0.2,0.1,0.2,0.1s-0.1,0-0.2,0s-0.2-0.1-0.2-0.1C21.6,43.5,21.7,43.5,21.8,43.5"/>
	<path class="st1" d="M21.7,43.3c0.1,0,0.2,0.1,0.2,0.1s-0.1,0.1-0.2,0c-0.1,0-0.2-0.1-0.2-0.1S21.6,43.2,21.7,43.3"/>
	<path class="st1" d="M25.6,40.7c-0.1-0.3,0.2-0.4,0.6-0.3c0.3,0.1,0.6,0.2,1,0.1c0.2,0,0.4,0,0.7,0c0.2,0.1,0.2,0.2,0,0.3
		c-0.5,0.5-0.8,0.9-0.9,1.4c-0.2-0.2,0.2-0.8,0.7-1.5c-0.3,0.3-0.6,0.6-0.9,1c0.1-0.2,0.3-0.6,0.5-0.9c-0.6,0.4-1,1.1-0.9,2.3
		c-0.2-0.7-0.1-1.4,0.4-2.1l-0.6,0.7l0.6-0.9l-0.4,0.1v-0.1l-0.2,0.1v-0.2l-0.3,0.2l0.1-0.3C25.8,40.5,25.7,40.6,25.6,40.7"/>
	<path class="st1" d="M25.9,42.4c0,0.2,0,0.4,0.1,0.6c0,0,0.1,0,0.1-0.1C26,42.8,26,42.6,25.9,42.4"/>
	<path class="st1" d="M26.7,42.5c0,0,0.1,0.1,0.1,0.2c0,0.1,0,0.2-0.1,0.2c0,0-0.1-0.1-0.1-0.2S26.6,42.5,26.7,42.5"/>
	<path class="st1" d="M27.4,41.7c0,0,0,0.1,0,0.2c0,0.1-0.1,0.2-0.1,0.1c0,0,0-0.1,0-0.2C27.3,41.8,27.3,41.7,27.4,41.7"/>
	<path class="st1" d="M27.5,41.4c0,0,0,0.1,0,0.2c0,0.1-0.1,0.1-0.1,0.1s0-0.1,0-0.2C27.5,41.4,27.5,41.4,27.5,41.4"/>
	<path class="st1" d="M33.2,41.9c0.3,0.1,0.3,0.5,0.2,0.9C33.4,42.5,33.3,42.2,33.2,41.9"/>
	<path class="st1" d="M31.9,43.8c0-0.1,0-0.2-0.1-0.2C31.8,43.7,31.8,43.8,31.9,43.8L31.9,43.8z"/>
	<path class="st1" d="M28.9,39.2H29l0.1,0.2H29L28.9,39.2z"/>
	<path class="st1" d="M28.7,40.6c0,0,0.1,0.1,0.1,0.2c0,0.1,0,0.1,0,0.1s-0.1-0.1-0.1-0.2C28.6,40.6,28.6,40.6,28.7,40.6"/>
	<path class="st1" d="M28.9,40.5c0,0,0.1,0,0.1,0.1s0,0.1,0,0.1s-0.1,0-0.1-0.1V40.5"/>
	<path class="st1" d="M29.2,40.5c0,0,0.1,0.1,0.1,0.2c0,0.1,0,0.1,0,0.1c-0.1,0,0,0-0.1-0.1C29.2,40.6,29.2,40.5,29.2,40.5"/>
	<path class="st1" d="M29.4,40.4c0,0,0.1,0.1,0.1,0.2c0,0.1,0,0.2,0,0.2s-0.1-0.1-0.1-0.2S29.4,40.4,29.4,40.4"/>
	<path class="st1" d="M29.7,40.4c0,0,0.1,0.1,0.1,0.2c0,0.1,0,0.2,0,0.3c0,0-0.1-0.1-0.1-0.2C29.7,40.5,29.7,40.4,29.7,40.4"/>
	<path class="st1" d="M30,40.4c0,0,0.1,0.1,0.1,0.3c0,0.1,0,0.2,0,0.2c-0.1,0-0.1,0-0.1-0.2C30,40.6,30,40.4,30,40.4"/>
	<path class="st1" d="M30.2,40.4c0,0,0.1,0.1,0.1,0.2c0,0.1,0,0.3,0,0.3s-0.1-0.1-0.1-0.2C30.2,40.5,30.2,40.4,30.2,40.4"/>
	<path class="st1" d="M30.5,40.3c0,0,0.1,0.1,0.1,0.3s0,0.3-0.1,0.3c0,0-0.1-0.1-0.1-0.3C30.4,40.4,30.5,40.3,30.5,40.3"/>
	<path class="st1" d="M30.8,40.4c0,0,0.1,0.1,0.1,0.3c0,0.1,0,0.3-0.1,0.3c0,0-0.1-0.1-0.1-0.3C30.7,40.5,30.7,40.4,30.8,40.4"/>
	<path class="st1" d="M31,40.3c0,0,0.1,0.1,0.1,0.3s0,0.3-0.1,0.3c0,0-0.1-0.1-0.1-0.3C31,40.5,31,40.3,31,40.3"/>
	<path class="st1" d="M31.3,40.3c0,0,0.1,0.2,0,0.3c0,0.2-0.1,0.3-0.1,0.3s0-0.2,0-0.3C31.2,40.4,31.3,40.3,31.3,40.3"/>
	<path class="st1" d="M31.7,40.2c0,0,0,0.2,0,0.3c0,0.2-0.1,0.3-0.1,0.3s0-0.2,0-0.3S31.6,40.2,31.7,40.2"/>
	<path class="st1" d="M32,40.1c0,0,0.1,0.2,0.1,0.4s-0.1,0.4-0.2,0.4c0,0,0-0.2,0-0.4C31.9,40.3,31.9,40.1,32,40.1"/>
	<path class="st1" d="M30.4,41.8c0,0,0,0,0.1,0.1c0,0.1,0,0.2,0,0.2s-0.1,0-0.1-0.1S30.4,41.8,30.4,41.8"/>
	<path class="st1" d="M30.6,41.7c0,0,0.1,0.1,0.1,0.2c0,0.1,0,0.1,0,0.2c-0.1,0,0,0-0.1-0.1C30.6,41.8,30.6,41.7,30.6,41.7"/>
	<path class="st1" d="M32.7,41.1v0.1l0.1-0.1c0-0.3,0-0.5,0-0.7C32.8,40.6,32.7,40.9,32.7,41.1"/>
	<path class="st1" d="M32.5,41.4c-0.1,0.4-0.1,0.5-0.2,0.6c0.1-0.2,0-0.4,0-0.5h-0.1l0,0c0,0.2,0,0.3-0.2,0.6c0-0.2,0.1-0.4,0.1-0.6
		H32v0.2c0,0.1-0.1,0.3-0.1,0.3s0.1-0.4,0-0.5h-0.1v0.1v0.1c0,0,0,0,0-0.1c0,0,0,0,0-0.1c0,0,0,0-0.1,0l0,0v0.1c0,0,0,0-0.1-0.1
		h-0.1c0,0.1,0,0.1,0,0.1c-0.1,0-0.1,0-0.1-0.1h-0.1c0,0.1,0,0.1,0,0.1s0,0-0.1-0.1H31c0,0.1,0,0.1,0,0.1s0,0-0.1-0.1l0,0l0,0
		c0,0,0,0,0-0.1s-0.1-0.2,0-0.2c0,0,0.1,0,0.1,0.2v0.1h0.1c0,0,0,0,0-0.1s0-0.2,0-0.2s0.1,0.1,0.1,0.2c0,0,0,0,0,0.1h0.1
		c0-0.1,0-0.1,0-0.2c0-0.1,0-0.1,0-0.1s0.1,0.1,0.1,0.2c0,0,0,0,0.1,0l0,0c0-0.1,0-0.1,0-0.2v-0.1c0,0,0.1,0.1,0.1,0.2l0,0
		c0,0,0,0,0.1,0l0,0v-0.2c0-0.1,0-0.1,0-0.1s0,0,0,0.1s0,0.1,0,0.2h0.1v-0.1v-0.1c0,0,0,0.1,0.1,0.2H32v-0.2V41c0,0,0,0,0,0.1
		c0,0,0,0.1,0,0.2h0.1c0-0.1,0-0.2,0-0.2c0-0.1,0-0.1,0-0.1s0,0,0,0.1s0,0.1,0,0.2h0.1c0.1-0.4,0.2-1,0.2-1.5c0-0.1-0.1-0.1-0.1-0.2
		c0,0.6-0.1,1.1-0.3,1.4c0.1-0.5,0.1-1,0-1.5l0,0l0,0c0,0.6,0,1.1-0.2,1.5c0.1-0.5,0-1-0.2-1.6h-0.1c0.1,0.1,0.1,0.6,0,0.7
		c-0.1-0.3,0-0.4-0.3-0.6h-0.1c0.1,0.2,0.2,0.4,0.1,0.6c-0.1-0.2-0.2-0.4-0.3-0.5h-0.1c0.2,0.2,0.2,0.3,0.2,0.5
		c-0.1-0.2-0.4-0.3-0.5-0.4c-0.1,0-0.1,0-0.1,0c0.2,0.1,0.4,0.3,0.3,0.4c-0.1-0.1-0.3-0.2-0.4-0.4c-0.1,0,0,0-0.1,0
		c0,0.1,0,0.2,0,0.3c-0.1,0-0.2,0-0.4-0.2h-0.1l0.1,0.2c0,0-0.3-0.2-0.4-0.3c0,0,0.1,0-0.1,0l0.1,0.3l-0.3-0.3c-0.1,0-0.1,0-0.2,0
		l-0.1-0.2c0.7,0,1.4,0,2.3-0.2l0.8-0.2c0.3-0.1,0.5,0.1,0.5,0.5v0.5c0.2,0.3,0.3,0.6,0.1,1c0.1,0.3,0.3,0.6,0.5,0.8s0.3,0.5,0,1
		c-0.3,0.7-0.6,1.1-0.9,1.5l0,0c0,0,0,0,0,0.1c0,0,0,0,0-0.1s0-0.2,0-0.2c0,0.1,0.1,0.1,0.1,0.2c0-0.1,0.1-0.2,0.1-0.2
		c0-0.1,0-0.2,0-0.2c0,0.1,0.1,0.1,0.1,0.2c0-0.1,0.1-0.1,0.1-0.2c0-0.1,0-0.2-0.1-0.3c0,0.1,0.1,0.1,0.1,0.2c0-0.1,0.1-0.1,0.1-0.2
		c0-0.1,0-0.2-0.1-0.2c0,0,0.1,0.1,0.1,0.2c0-0.1,0.1-0.2,0.1-0.3l-1.6,1c0.1-0.1,0.3-0.2,0.4-0.3l0,0c0-0.1,0-0.2,0-0.3
		c0,0.1,0.1,0.2,0.1,0.2l0.1-0.1c0-0.1,0-0.2,0-0.4c0.1,0.1,0.1,0.2,0.1,0.3l0.1-0.1c0-0.2,0-0.3-0.1-0.5c0.1,0.1,0.1,0.3,0.2,0.4
		l0.1-0.1c0-0.2,0-0.5-0.1-0.7c0.1,0.2,0.2,0.4,0.2,0.6c0,0,0.1,0,0.1-0.1c0-0.2,0-0.5-0.1-0.7c0.1,0.2,0.2,0.5,0.2,0.6l0,0
		c0-0.2,0-0.6-0.1-0.9c0.2,0.3,0.2,0.6,0.2,0.8l0.1-0.1c0-0.4-0.2-0.8-0.3-1.2c-0.1,0.2-0.1,0.3-0.1,0.3c0-0.2,0-0.3,0-0.4
		c0,0.3-0.1,0.5-0.2,0.6L32.5,41.4L32.5,41.4z"/>
	<path class="st1" d="M31.2,42.4L31.2,42.4c0,0.1,0,0.2-0.1,0.2C31,42.5,31,42.4,31.2,42.4L31.2,42.4z"/>
	<path class="st1" d="M31.3,42.2c0,0,0,0,0,0.2c0,0.1,0,0.2-0.1,0.2s-0.1-0.1,0-0.2C31.3,42.2,31.3,42.2,31.3,42.2"/>
	<path class="st1" d="M31.5,42.2L31.5,42.2c0,0.2,0,0.3-0.1,0.3C31.4,42.5,31.4,42.4,31.5,42.2L31.5,42.2z"/>
	<path class="st1" d="M31.5,42L31.5,42L31.5,42L31.5,42"/>
	<path class="st1" d="M31.7,42c0,0,0,0.1,0,0.2c0,0.1,0,0.3-0.1,0.2c-0.1,0-0.1-0.1,0-0.3C31.6,42,31.7,42,31.7,42"/>
	<path class="st1" d="M30.7,37.6c0.4,0.1,0.8,0.4,1.2,0.7c0.1,0.1,0,0.1-0.1,0.1C31.5,38.4,31.1,37.9,30.7,37.6"/>
	<path class="st1" d="M32.1,38.6c0.1,0,0.1,0.1,0.1,0.1C32.2,38.8,32.1,38.7,32.1,38.6c-0.1,0-0.2,0-0.2,0
		C32,38.6,32,38.6,32.1,38.6"/>
	<path class="st1" d="M28.3,39.2c0.1,0,0.3,0,0.4,0l0.1,0.2l0,0c0,0,0.1,0.5-0.1,0c0-0.1-0.1,0-0.2-0.1
		C28.4,39.2,28.4,39.2,28.3,39.2"/>
	<path class="st1" d="M26.4,45.7c0.1,0,0.2,0,0.2,0.1c0,0,0,0-0.1,0s-0.2,0-0.2,0C26.3,45.7,26.4,45.7,26.4,45.7"/>
	<path class="st1" d="M26.6,46.1c0.1,0,0.3,0,0.3,0s-0.1,0.1-0.2,0.1s-0.2,0-0.3,0C26.4,46.2,26.5,46.1,26.6,46.1"/>
	<path class="st1" d="M26.7,46.2c0.1,0,0.3,0,0.3,0s-0.1,0.1-0.2,0.1c-0.2,0-0.3,0-0.3,0S26.6,46.2,26.7,46.2"/>
	<path class="st1" d="M26.9,46.3c0.1,0,0.2,0,0.2,0C27.1,46.4,27.1,46.4,26.9,46.3c0,0.1-0.1,0.1-0.2,0.1
		C26.8,46.4,26.8,46.4,26.9,46.3"/>
	<path class="st1" d="M27,46.5c0.1,0,0.2,0,0.2,0.1c0,0,0,0-0.1,0s-0.2,0-0.2,0C26.9,46.5,27,46.5,27,46.5"/>
	<path class="st1" d="M28.7,45.9c0.1,0,0.2,0,0.3,0c0,0-0.1,0.1-0.2,0.2c-0.1,0-0.2,0-0.3,0C28.5,46,28.5,45.9,28.7,45.9"/>
	<path class="st1" d="M28.4,45.7c0.1,0,0.2,0,0.2,0s0,0.1-0.1,0.1s-0.2,0-0.2,0L28.4,45.7"/>
	<path class="st1" d="M28.3,45.4c0.1,0,0.1,0,0.2,0c0,0,0,0.1-0.1,0.1s-0.1,0-0.2,0C28.1,45.5,28.2,45.5,28.3,45.4"/>
	<path class="st1" d="M26.1,44.2c0-0.1-0.1-0.1-0.1,0s0,0.2,0.1,0.3s0.2-0.1,0.1-0.1C26.1,44.3,26.1,44.3,26.1,44.2"/>
	<path class="st1" d="M25.9,44.1c0-0.1-0.1-0.1-0.1-0.1c-0.1,0.1-0.1,0.3,0,0.4c0.1,0.1,0.2,0,0.2-0.1
		C25.8,44.2,25.8,44.2,25.9,44.1"/>
	<path class="st1" d="M36.4,37.3c-0.1,0.1-0.1,0.6,0.3,1.3c0.2,0.2,0,0.4,0.2,0.4c0.1,0,0.2-0.1,0.2-0.2l-0.2-0.1h0.2l-0.2-0.2
		c0.1,0,0.3,0,0.2,0c0-0.1-0.2-0.1-0.3-0.2l0.3-0.1c0-0.1-0.1-0.1-0.4-0.2H37l-0.3-0.2l0.2-0.1l-0.3-0.2l0.2-0.1l-0.2-0.1l0.2-0.1
		C36.6,37.3,36.5,37.2,36.4,37.3"/>
	<path class="st1" d="M36,37.7c-0.1-0.2-0.1-0.4-0.1-0.5c0.1-0.3,0.2-0.3,0.3-0.3c0.2,0.2-0.1,0.3-0.2,0.5C36,37.3,36,37.4,36,37.7"
		/>
	<path class="st1" d="M36,36.8c0.1-0.1,0.2-0.1,0.2-0.1s0,0.1-0.1,0.2c-0.1,0-0.2,0.1-0.2,0.1C35.8,36.9,35.9,36.9,36,36.8"/>
	<path class="st1" d="M35.9,37.7c0,0,0.1,0,0.1,0.1c0,0,0,0.1-0.1,0.1s-0.1,0-0.1-0.1C35.8,37.8,35.8,37.7,35.9,37.7"/>
	<path class="st1" d="M36.1,38c0.1,0,0.1,0.1,0,0.2c0,0.1-0.1,0.1-0.1,0.1c-0.1,0-0.1-0.1,0-0.2C36,38,36,38,36.1,38"/>
	<path class="st1" d="M36.3,38.4c0.1,0,0.1,0.1,0,0.2c0,0.1-0.2,0.1-0.2,0.1c-0.1,0-0.1-0.1,0-0.2C36.1,38.4,36.2,38.3,36.3,38.4"/>
	<path class="st1" d="M36.5,38.7c0,0.1,0,0.1-0.1,0.1s-0.2,0-0.2,0s0-0.1,0.1-0.1C36.4,38.6,36.5,38.7,36.5,38.7"/>
	<path class="st1" d="M37.6,38.9v-0.1c-0.1,0-0.1,0-0.2-0.1c-0.1-0.2,0-0.3,0.2-0.3c0.1,0,0.2,0,0.1,0.1l-0.1,0.1
		c0.1,0,0.2,0.1,0.3,0.2c-0.1,0-0.1,0-0.1,0.1c0.3,0,0.2,0.4,0,0.3c-0.2,0-0.2,0-0.2,0.3c0.1,0.3,0.3,0.4,0.3,0.1
		c0-0.2,0.5-0.2,0.5,0.2l-0.2-0.1c0,0.2,0.2,0.1,0.3,0.3h-0.2c0.2,0.1,0.3,0.3,0.4,0.5c-0.2,0-0.2-0.3-0.4-0.3
		c0.3,0.3,0.6,0.3,0.7,0.6c-0.2,0-0.5-0.2-0.8-0.5c0.3,0.4,0.4,0.7,0.4,0.8c-0.4-0.2-0.5-0.7-0.6-0.9c0,0.3,0.2,0.5,0.1,0.8
		C38,40.7,38,40.4,38,40c0.2,0,0.2-0.1,0.2-0.3c0-0.3-0.2-0.3-0.1,0c0,0.2-0.1,0.3-0.5,0c-0.1,0.1,0,0.1,0.3,0.3v0.2L38,40v0.6
		c0,0.2-0.1,0.1-0.1,0v-0.3c0,0.2,0,0.3-0.1,0.3L37.6,40l-0.2,0.2v-0.3L37.2,40v-0.4c-0.1,0.1-0.2,0-0.3-0.2c0.2,0,0.3,0,0.4-0.1
		C37.2,39.1,37.3,38.9,37.6,38.9"/>
	<path class="st1" d="M34,40.7c0-0.1,0-0.2-0.1-0.4c-0.1-0.1-0.1-0.1-0.1,0C33.9,40.5,34,40.6,34,40.7"/>
	<path class="st1" d="M33.8,39.8c0.2,0.1,0.3,0.1,0.4,0.4c0,0.1,0,0.2-0.1,0.1C34,40.2,33.9,39.9,33.8,39.8"/>
	<path class="st1" d="M33.8,39.2c0.3,0.2,0.4,0.2,0.5,0.6c0,0.2,0,0.3-0.1,0.1C34,39.8,34,39.4,33.8,39.2"/>
	<path class="st1" d="M33.9,38.8c0.3,0.1,0.5,0.4,0.5,0.7c0,0.2-0.1,0.3-0.1,0.1C34.2,39.4,34.1,39,33.9,38.8"/>
	<path class="st1" d="M34,38.6c0.3,0.1,0.4,0.3,0.5,0.6c0,0.2,0,0.2-0.1,0.1C34.4,39,34.2,38.8,34,38.6"/>
	<path class="st1" d="M35.8,46c0.1-0.2,0.3-0.3,0.6-0.2c0.1,0,0.1,0.2,0.1,0.3c-0.1-0.1-0.2-0.2-0.2-0.1C36,45.9,36,46,35.8,46"/>
	<path class="st1" d="M35,46.1c0.1,0,0.1,0,0.1,0.1c0,0,0,0.1-0.1,0.1C35,46.3,34.9,46.2,35,46.1C34.9,46.1,35,46.1,35,46.1"/>
	<path class="st1" d="M34.5,46.1c0,0,0.1,0,0.1,0.1s0,0.2,0,0.2s-0.1,0-0.1-0.1C34.4,46.2,34.4,46.1,34.5,46.1"/>
	<path class="st1" d="M34.7,46.1L34.7,46.1c0.1,0.1,0.1,0.2,0,0.2c0,0,0,0-0.1-0.1C34.6,46.1,34.6,46.1,34.7,46.1"/>
	<path class="st1" d="M34.7,44.1L34.7,44.1c-0.1,0.1-0.2,0.2-0.2,0.1c0,0,0-0.1,0-0.2C34.6,44.1,34.6,44,34.7,44.1
		C34.6,44,34.6,44,34.6,44l0,0c-0.1,0.1-0.1,0.1-0.2,0.1c0,0,0-0.1,0-0.2c0,0,0,0,0.1-0.1l0,0c-0.1,0.1-0.1,0.1-0.2,0.1
		c0,0,0-0.1,0-0.2l0,0c0,0,0,0,0-0.1h-0.1v-0.1c0-0.1,0-0.1,0-0.2c0.1-0.1,0.1,0,0.2,0.2c0,0.1,0,0.1,0,0.2c0,0.1,0.1,0.1,0.2,0.1
		C34.7,44,34.7,44.1,34.7,44.1C34.7,44.3,34.8,44.2,34.7,44.1"/>
	<path class="st1" d="M34.7,44.3c0,0,0,0.1-0.1,0.2c-0.1,0.1-0.2,0.1-0.2,0.1s0-0.1,0-0.2C34.6,44.3,34.7,44.2,34.7,44.3"/>
	<path class="st1" d="M36.6,43.4c0,0,0,0.1,0,0.2c0,0.1-0.1,0.2-0.1,0.1c0,0,0-0.1,0-0.2C36.5,43.4,36.5,43.4,36.6,43.4"/>
	<path class="st1" d="M36.3,43.3c0,0,0,0.1,0,0.3c-0.1,0.1-0.2,0.2-0.2,0.2s0-0.1,0-0.3C36.2,43.4,36.3,43.3,36.3,43.3"/>
	<path class="st1" d="M35.8,43.1c0,0,0,0.1,0,0.2c0,0.1-0.1,0.2-0.1,0.2s0-0.1,0-0.2C35.7,43.1,35.8,43.1,35.8,43.1"/>
	<path class="st1" d="M21.2,17.6c0-0.2,0.2-0.3,0.3-0.3l0.3,0.1c0.1,0.1,0.1,0.1,0,0.1c-0.3,0-0.4,0-0.5,0.2
		C21.2,17.8,21.1,17.8,21.2,17.6"/>
	<path class="st1" d="M22.2,18.2C22.2,18.2,22.3,18.2,22.2,18.2c0.1,0.1,0,0.2,0,0.2C22.2,18.4,22.1,18.3,22.2,18.2
		C22.1,18.2,22.2,18.2,22.2,18.2"/>
	<path class="st1" d="M21.1,17.9C21,18,21,18.2,21.2,18.4l0.2,0.3c0.2,0.2,0.3,0.1,0.3-0.1s0-0.2,0.2-0.2c0.1,0,0.1-0.1,0.2-0.1
		c0-0.1,0-0.2-0.1-0.2c-0.2,0.1-0.4,0.2-0.5,0.2c0.2-0.1,0.3-0.2,0.4-0.3c0,0,0.1-0.1,0.2,0c0-0.1,0-0.2-0.1-0.2
		c-0.2,0-0.4,0.2-0.6,0.4c0.1-0.3,0.3-0.4,0.6-0.4c0-0.1,0-0.1-0.1-0.2c-0.2,0-0.3,0-0.5,0.1L21.1,17.9z"/>
	<path class="st1" d="M22.3,19.8c0.5,0.5,0.9,1.1,1.3,1.7V22l-0.2-0.6c0,0.4,0,0.7,0,0.6l-0.1-0.9l-0.1,0.4L23,21
		c-0.1-0.1-0.1,0.3-0.1,0.8c-0.1-0.1-0.1-0.5-0.1-1l-0.2,0.4c-0.1-0.2,0-0.5,0-0.8c-0.1-0.1-0.2,0.1-0.2,0.5c-0.1-0.3-0.1-0.5,0-0.8
		l-0.1,0.2L22.3,19.8z"/>
	<path class="st1" d="M26,15.5c0.2,0.1,0.4,0.2,0.6,0.2v0.1c0.4,0,0.7-0.2,1.1-0.4c0,0-0.1,0-0.2,0c-0.3,0.1-0.2,0,0.3-0.2
		c0.1,0,0.1,0,0.3,0l0.3-0.1c-0.3,0.2-0.5,0.5-0.8,0.7c-0.4,0.2-0.8,0.3-1.1,0.2c-0.2-0.1-0.4-0.2-0.6-0.3
		C25.9,15.5,25.8,15.5,26,15.5"/>
	<path class="st1" d="M28.1,15.6C28.2,15.6,28.2,15.6,28.1,15.6c0.1,0.1,0,0.1,0,0.1C28.1,15.7,28.1,15.7,28.1,15.6L28.1,15.6"/>
	<path class="st1" d="M28.6,16.5C28.6,16.4,28.6,16.4,28.6,16.5C28.7,16.5,28.7,16.5,28.6,16.5c0.1,0.1,0,0.1,0,0.1
		C28.5,16.6,28.5,16.5,28.6,16.5"/>
	<path class="st1" d="M29.6,16.1h0.1c0,0,0,0.1-0.1,0.1h-0.1C29.6,16.2,29.6,16.1,29.6,16.1"/>
	<path class="st1" d="M29.4,15.9h0.1C29.5,15.9,29.5,16,29.4,15.9c0,0.1,0,0.1,0,0.1S29.4,16,29.4,15.9"/>
	<path class="st1" d="M27.8,16.2h0.1c0,0,0,0.1-0.1,0.1C27.7,16.4,27.7,16.3,27.8,16.2C27.7,16.3,27.7,16.3,27.8,16.2"/>
	<path class="st1" d="M28.3,17.4c0.1,0,0.1,0,0.1,0s0,0.1-0.1,0.1C28.3,17.5,28.3,17.5,28.3,17.4C28.2,17.4,28.3,17.4,28.3,17.4"/>
	<path class="st1" d="M26.4,16.3c0.2,0,0.4-0.1,0.7-0.2l0.3-0.2c0.2-0.1,0.2-0.1,0.1,0.1c-0.2,0.2-0.3,0.2-0.5,0.3
		c-0.1,0.1-0.3,0.2-0.7,0.1C26.2,16.4,26.3,16.3,26.4,16.3"/>
	<path class="st1" d="M27.5,16.2c0.2-0.2,0.3-0.2,0.6-0.3c0.3-0.1,0.5-0.1,0.8-0.1c0.2-0.2,0.3,0.1,0.2,0.2
		c-0.1,0.1-0.1,0.1-0.2,0.1c-0.2,0.2-0.4,0.2-0.6,0.3c-0.3,0.1-0.3,0-0.1-0.1c0.1-0.1,0.1-0.1,0.2-0.2c0.2-0.1,0.3-0.1,0.5-0.2
		C28.5,15.8,28,16,27.5,16.2C27.4,16.3,27.3,16.3,27.5,16.2"/>
	<path class="st1" d="M28.8,15.4c0.1,0,0.2,0,0.3,0c0.2,0.1,0.3,0.2,0.3,0.3s-0.1,0.2-0.2,0.2c0-0.2-0.1-0.4-0.3-0.4
		C28.9,15.5,28.9,15.5,28.8,15.4L28.8,15.4z"/>
	<path class="st1" d="M28.6,15.5c0.1,0,0.1,0,0.1-0.1v0.1C28.7,15.5,28.7,15.5,28.6,15.5C28.6,15.5,28.5,15.5,28.6,15.5"/>
	<path class="st1" d="M28.3,15.3c0.1-0.1,0.3-0.2,0.5-0.2s0.4,0,0.6,0c0.4,0.1,0.2,0.3,0,0.2s-0.3-0.1-0.5,0
		C28.8,15.4,28.5,15.3,28.3,15.3C28.3,15.4,28.3,15.4,28.3,15.3"/>
	<path class="st1" d="M29.4,15.3c0.1,0,0.2,0,0.2,0.1s0,0.2-0.1,0.3C29.6,15.5,29.5,15.5,29.4,15.3"/>
	<path class="st1" d="M29.8,15.3c0,0,0,0.2,0,0.4l-0.1,0.2c0,0.1,0,0.1,0.1,0.1c0.1-0.1,0.2-0.2,0.2-0.3c0-0.2,0-0.3,0.1-0.4
		C29.9,15,29.7,15,29.8,15.3"/>
	<path class="st1" d="M28.8,16.6c0,0.2,0.3,0.2,0.4,0s-0.1-0.3,0-0.5C28.9,16.2,28.8,16.3,28.8,16.6"/>
	<path class="st1" d="M28.7,17c0.1-0.1,0.2-0.2,0.4-0.2c0.1,0,0.2,0,0.2,0.2c0,0.1,0,0.3,0,0.4s-0.1,0.1-0.2,0.1
		c-0.2,0-0.2-0.1-0.4,0C28.8,17.3,28.6,17.2,28.7,17"/>
	<path class="st1" d="M29.4,16.4C29.3,16.3,29.4,16.2,29.4,16.4c0.2,0,0.2,0.1,0.2,0.2s-0.1,0.2-0.2,0.1S29.4,16.5,29.4,16.4"/>
	<path class="st1" d="M29.4,17c0-0.2,0-0.2,0.2-0.1c0.1,0.1,0.1,0.2,0.1,0.2c0.1,0.1,0.1,0.3,0,0.5c-0.1-0.1-0.2,0-0.2-0.1
		s-0.1,0,0-0.3C29.5,17.1,29.5,17.1,29.4,17"/>
	<path class="st1" d="M29.6,18.2c0.1,0,0.1,0,0.1,0.1l-0.1,0.1c-0.1,0-0.1,0-0.1-0.1S29.6,18.2,29.6,18.2"/>
	<path class="st1" d="M28.7,18.1c0.1,0,0.1,0,0.1,0.1l-0.1,0.1c-0.1,0-0.1,0-0.1-0.1S28.6,18.1,28.7,18.1"/>
	<path class="st1" d="M29.9,17.9c-0.1-0.2-0.3-0.3-0.6-0.3c-0.2,0-0.5,0-0.8,0.1c-0.2,0.2-0.2,0.5-0.2,0.8h0.1l-0.1,0.1h0.2
		l-0.1,0.2h0.1L28.3,19l0.1,0.1v0.1h0.1v0.1h0.1v0.1h0.1c0.1,0.1,0.2,0.2,0.3,0.2c0.1,0,0.2,0,0.3,0c0.2-0.1,0.2-0.3,0.4-0.4
		c0,0,0.1-0.1,0.1-0.2c0.1,0,0.1-0.1,0.1-0.2l0.1-0.1v-0.4c-0.1,0-0.2,0-0.2,0l-0.2-0.1l-0.1,0.5c0,0.1,0,0.2-0.2,0.2L29,18.8
		c-0.1,0,0-0.1,0-0.2h0.1v-0.4c-0.1,0-0.3,0.1-0.5,0c-0.1,0-0.1,0-0.2,0c0-0.1,0.1-0.2,0.2-0.2l-0.1-0.1h0.1c0.2,0,0.3,0,0.4,0
		c0.1,0.1,0.1,0.1,0.2,0.1v-0.1c0-0.1,0.1-0.2,0.3-0.1v0.3L29.9,17.9L29.9,17.9z M28.7,19.2c0.1,0,0.3,0,0.4,0
		c0.2,0.1,0.3,0.2,0,0.3c-0.1,0-0.3,0-0.4,0C28.8,19.3,28.8,19.3,28.7,19.2 M28.9,19.3c0.1,0,0.2,0,0.2,0v0.1c-0.1,0-0.1,0-0.2,0
		C28.9,19.3,29,19.3,28.9,19.3"/>
	<path class="st1" d="M29,18.8L29,18.8C29,18.9,29,18.9,29,18.8C28.9,18.9,28.9,18.9,29,18.8C28.9,18.8,28.9,18.8,29,18.8"/>
	<path class="st1" d="M29.2,18.1V18c0.1-0.1,0.1-0.1,0.1,0s0,0.1,0,0.2h-0.1V18.1z"/>
	<path class="st1" d="M29.1,18.8c0-0.2,0-0.4,0.1-0.6h0.1C29.3,18.4,29.3,18.6,29.1,18.8C29.2,18.9,29.1,18.9,29.1,18.8"/>
	<path class="st1" d="M28,17.8c0-0.1,0.1-0.1,0.1,0c0,0.2,0,0.4-0.1,0.5c-0.1,0-0.2,0-0.1-0.1C28,18,28,17.9,28,17.8"/>
	<path class="st1" d="M27.9,18.7C27.8,18.5,27.9,18.5,27.9,18.7c0.2,0.4,0.4,0.8,0.8,1.1c0.2,0.1,0,0.3-0.2,0.1
		C28.1,19.6,28,19.1,27.9,18.7"/>
	<path class="st1" d="M29.4,19.9c0-0.1,0-0.2,0.2-0.3c0.1-0.1,0.1,0,0.1,0.1C29.5,19.8,29.4,19.8,29.4,19.9"/>
	<path class="st1" d="M25.4,21.6c0-0.1,0-0.2,0.1-0.3c0,0-0.1,0-0.1-0.1c-0.1,0.2-0.2,0.3-0.3,0.5c0.1-0.3,0.2-0.6,0.4-0.8
		c0,0.1-0.1,0.2-0.1,0.3l0.1,0.1l0.1-0.1v0.1l0,0l0,0l0,0C25.6,21.4,25.5,21.5,25.4,21.6"/>
	<path class="st1" d="M25.2,21.8c0-0.1,0-0.2,0.1-0.2C25.3,21.7,25.3,21.8,25.2,21.8"/>
	<path class="st1" d="M26,22c0-0.1,0-0.1,0-0.2l0,0c0,0,0,0,0-0.1l0.1-0.1C26.2,21.8,26.2,21.8,26,22"/>
	<path class="st1" d="M26,22.4c0-0.2,0-0.3,0.2-0.3C26.2,22.3,26.2,22.3,26,22.4"/>
	<path class="st1" d="M26.4,22.3c0.2-0.4,0.2-0.5,0.1-1C26.7,21.7,26.6,21.8,26.4,22.3"/>
	<path class="st1" d="M28.8,23.6c0.1-0.3,0.1-0.6,0.1-0.9c0,0,0,0-0.1,0c0,0.2-0.1,0.4-0.2,0.6c0-0.2,0.1-0.4,0.1-0.6h-0.1
		c0,0.1-0.1,0.3-0.1,0.5c0-0.2,0-0.3,0-0.5h-0.1c0,0.2,0,0.4-0.1,0.7c0-0.2,0-0.5,0-0.7h-0.2c0,0.2,0,0.5-0.1,0.8c0-0.3,0-0.5,0-0.8
		c0,0-0.1,0-0.2,0c0,0.2,0,0.5-0.1,0.8c0-0.3,0-0.6,0-0.8h-0.1c0,0.2-0.1,0.5-0.1,0.8c0-0.3,0-0.5,0-0.8h-0.1c0,0.3,0,0.6-0.1,0.9
		c0-0.4-0.1-0.7,0-0.9c0,0-0.1,0-0.1-0.1c-0.1,0.4-0.1,0.7-0.1,1c-0.1-0.5-0.1-0.7,0-1.1c0,0-0.1,0-0.1-0.1c0,0.1-0.1,0.3-0.2,0.4
		c0.1-0.2,0.1-0.3,0.2-0.4c0,0-0.1-0.1-0.2-0.1c0,0.2-0.1,0.4-0.3,0.7c0.2-0.5,0.2-0.9,0.2-1.5c0,0.2,0.1,0.4,0.1,0.6
		c0.1,0,0.1,0,0.2,0.1c0-0.3,0-0.5,0-0.8c0.1,0.3,0.1,0.6,0.1,0.8h0.1c0,0,0-0.1,0.1-0.1v0.1h0.1c0-0.1,0-0.2,0.1-0.3
		c0,0.1,0,0.2,0,0.3h0.1c0-0.1,0-0.2,0-0.3c0,0.1,0,0.2,0,0.3h0.1v-0.3c0,0.1,0.1,0.2,0.1,0.3c0.1,0,0.1,0,0.2,0c0-0.1,0-0.2,0-0.4
		c0,0.1,0,0.3,0.1,0.4h0.2v-0.5c0.1,0.2,0.1,0.4,0.1,0.5h0.1c0-0.1,0-0.3,0-0.4c0.1,0.1,0.1,0.3,0.1,0.4h0.1c0-0.1,0-0.3-0.1-0.4
		c0.1,0.2,0.1,0.3,0.1,0.4h0.1c0-0.2,0-0.4-0.1-0.7C29.2,22.4,29.2,22.8,28.8,23.6"/>
	<path class="st1" d="M29.3,22.6l0.1,0.1l0.2-0.2c0.1-0.1,0.1-0.1,0.2,0v-0.2c0.1,0,0.1,0,0.2,0.1c0-0.1,0-0.1,0-0.2v-0.3
		c-0.1-0.2-0.2-0.3-0.3-0.4c0.1,0.2,0.1,0.3,0,0.4c0-0.2-0.1-0.3-0.3-0.4c0.1,0.1,0.1,0.2,0.1,0.4c0,0-0.1-0.1-0.2-0.1V22h-0.1
		L29.3,22.6z"/>
	<path class="st1" d="M30.7,21.6L30.7,21.6c-0.1,0.1-0.1,0-0.1,0H30.7z"/>
	<path class="st1" d="M30.6,21.3L30.6,21.3c0,0.1,0.1,0.1,0.1,0.2h-0.2c0,0-0.1-0.1-0.1-0.2l0,0H30.6z"/>
	<path class="st1" d="M30.3,21c0,0,0.2,0.1,0.2,0.2h-0.2C30.3,21.1,30.2,21,30.3,21"/>
	<path class="st1" d="M30.2,21.6c0,0,0.1,0,0.1,0.1s0.1,0.2,0,0.2c0,0-0.1,0-0.1-0.1C30.2,21.6,30.2,21.6,30.2,21.6"/>
	<path class="st1" d="M29.9,21.5c0,0,0.1,0.1,0.2,0.2s0.1,0.2,0.1,0.2s-0.1-0.1-0.2-0.2S29.9,21.5,29.9,21.5"/>
	<path class="st1" d="M25,20.9l0.1,0.1c0,0,0,0,0.1-0.1c0,0.1,0,0.1-0.1,0.2V21C25.1,21,25.1,20.9,25,20.9"/>
	<polygon class="st1" points="23.7,36 23.6,36.2 23.6,36.2 23.6,36 	"/>
	<path class="st1" d="M19,42.7c0.2-0.1,0.2,0,0.3,0.2c0.2,0.2,0.3,0.3,0.3,0.4c0.3,0.3,0.3,0.4-0.2,0.4c-0.2,0-0.2-0.2-0.2-0.4
		L19,42.7z"/>
	<path class="st1" d="M19.1,43.9C19,44,19,44.3,19.2,44.4c0.1,0.1,0.2,0.1,0.3,0.1l-0.1-0.2l0.2,0.1c0-0.1-0.1-0.2-0.2-0.3l0.2,0.1
		c0-0.1-0.1-0.2-0.3-0.3h0.2C19.3,43.8,19.2,43.7,19.1,43.9"/>
	<path class="st1" d="M19.7,44c0.1,0,0.1,0.1,0.1,0.2c0,0.1,0,0.2-0.1,0.2c0,0-0.1-0.1-0.1-0.2S19.6,44,19.7,44"/>
	<path class="st1" d="M22.7,33.6c0-0.5,0.2-1,0.5-1.4C23,32.7,22.9,33.2,22.7,33.6"/>
	<path class="st1" d="M23.8,30.8c-0.2,0.1-0.2-0.1-0.1-0.2c0.3-0.2,0.6-0.3,1-0.3h0.6c0.2,0,0.2,0.2,0,0.2h-0.5
		C24.5,30.5,24.2,30.6,23.8,30.8"/>
	<path class="st1" d="M25.2,30.6c0.2,0,0.3,0,0.3,0.1c0,0-0.1,0.1-0.3,0.1c-0.2,0-0.3,0-0.3-0.1C24.9,30.6,25,30.6,25.2,30.6"/>
	<path class="st1" d="M26.4,27.4c0,0-0.1,0.1-0.2,0.2s-0.2,0.2-0.1,0.2c0,0,0.1-0.1,0.2-0.2S26.5,27.4,26.4,27.4"/>
	<path class="st1" d="M25.4,28.4c-0.1,0.1,0,0.2,0.1,0.3c0.6,0.2,1.2,0,1.8-0.3L28,28c0.1-0.2,0.1-0.2-0.1-0.2L27.6,28l0.1-0.3
		c-0.2,0.2-0.3,0.3-0.4,0.5l-0.1-0.1c-0.1,0.1-0.2,0.2-0.2,0.3l-0.1-0.2c-0.1,0-0.1,0.1-0.2,0.2v-0.2c-0.1,0-0.2,0.1-0.3,0.3
		l0.1-0.2c0,0-0.1,0-0.2,0.3l0.2-0.7c-0.1,0-0.3,0.3-0.5,0.8c-0.1,0-0.1,0-0.1-0.1l0.3-0.5c-0.1,0-0.3,0.2-0.5,0.5l0.2-0.6l-0.4,0.5
		v-0.2C25.6,28.3,25.5,28.3,25.4,28.4"/>
	<path class="st1" d="M25.5,38.3C25.4,38.2,25.5,38.1,25.5,38.3l0.3,0.1l-0.1,0.1L25.5,38.3z"/>
	<path class="st1" d="M25.6,38.1C25.6,38.1,25.6,38,25.6,38.1l0.2,0.1c0,0,0,0.1-0.1,0.1L25.6,38.1z"/>
	<path class="st1" d="M25.7,38C25.6,37.9,25.7,37.9,25.7,38l0.3,0.1l-0.1,0.1L25.7,38z"/>
	<path class="st1" d="M25.8,37.8c-0.1-0.1,0.1-0.2,0.2-0.1l0.3,0.3c0.1,0.1-0.1,0.2-0.2,0.1L25.8,37.8z"/>
	<path class="st1" d="M26,37.5c-0.1-0.1,0-0.2,0.1-0.1l0.3,0.3c0.1,0.1,0,0.2-0.1,0.2L26,37.5z"/>
	<path class="st1" d="M26.2,37.4c-0.1-0.1,0-0.2,0.1-0.1l0.3,0.2c0.1,0.1,0,0.2-0.1,0.1L26.2,37.4z"/>
	<path class="st1" d="M26.5,37.3c-0.1-0.1,0-0.2,0.1-0.1l0.2,0.2c0.1,0.1,0,0.2-0.1,0.1L26.5,37.3z"/>
	<path class="st1" d="M25.3,35.6c0-0.1-0.1,0-0.1,0v0.3c0,0.1,0.1,0,0.1,0V35.6z"/>
	<path class="st1" d="M24.9,36c0-0.1-0.1-0.1-0.1,0v0.2c0,0.1,0.2,0,0.1,0V36z"/>
	<path class="st1" d="M24.4,36.3C24.4,36.1,24.4,36.2,24.4,36.3l-0.1,0.2c0,0.1,0.1,0.1,0.1,0V36.3z"/>
	<path class="st1" d="M25,35.9C25.1,35.9,25.1,35.9,25,35.9c0.1,0.1,0,0.2,0,0.2C25,36,25,36,25,35.9L25,35.9"/>
	<path class="st1" d="M24.6,36.1C24.6,36.1,24.7,36.2,24.6,36.1c0.1,0.2,0,0.2,0,0.2S24.5,36.3,24.6,36.1
		C24.5,36.2,24.6,36.1,24.6,36.1"/>
	<path class="st1" d="M24.2,36.4c0-0.1-0.1-0.1-0.1,0v0.2c0,0.1,0.1,0.1,0.1,0V36.4z"/>
	<path class="st1" d="M27.5,25c0,0,0.1,0,0.1,0.1s0,0.1-0.1,0.1l-0.1-0.1L27.5,25"/>
	<path class="st1" d="M27.7,25.3c0,0,0-0.1,0-0.2s0-0.2,0-0.2s0.1,0.1,0.1,0.2C27.7,25.2,27.7,25.3,27.7,25.3"/>
	<path class="st1" d="M28,25.2c0.1,0,0.1,0,0.1,0.1H28c-0.1,0-0.1,0-0.1,0C27.8,25.2,27.9,25.2,28,25.2"/>
	<path class="st1" d="M28.1,25.5C28.1,25.5,28.2,25.5,28.1,25.5c0.1,0.1,0,0.1,0,0.1S28.1,25.6,28.1,25.5L28.1,25.5"/>
	<path class="st1" d="M28.4,25.5H29c0.2,0,0.2,0.1,0.1,0.3c0.1,0.3-0.3,0.5-0.3,0c0-0.1-0.1-0.1-0.3-0.1
		C28.3,25.6,28.3,25.5,28.4,25.5"/>
	<path class="st1" d="M27.5,29C27.5,29,27.6,29,27.5,29c0.1,0.1,0,0.2,0,0.2S27.4,29.1,27.5,29C27.4,29,27.5,29,27.5,29"/>
	<path class="st1" d="M27.2,29.1c0,0,0.1,0,0.1,0.1c0,0,0,0.1-0.1,0.1s-0.1,0-0.1-0.1C27.2,29.1,27.2,29.1,27.2,29.1"/>
	<path class="st1" d="M27.5,29.2c0.2-0.1,0.4-0.2,0.4-0.2s-0.1,0.2-0.3,0.3c-0.2,0.1-0.4,0.2-0.4,0.2S27.3,29.4,27.5,29.2"/>
	<path class="st1" d="M28.3,28.8c0.1-0.1,0.2-0.2,0.3-0.2C28.6,28.7,28.5,28.8,28.3,28.8c0,0.2-0.2,0.3-0.2,0.2
		C28.1,29,28.1,28.9,28.3,28.8"/>
	<path class="st1" d="M27.8,29.9c0-0.1,0.1-0.2,0.2-0.3l0,0c0-0.2,0.2-0.3,0.3-0.4l0,0c0.1-0.1,0.1-0.1,0.2-0.2
		c0,0.1-0.1,0.2-0.1,0.2l0,0c0.1-0.1,0.2-0.2,0.4-0.2c-0.1,0.1-0.2,0.2-0.3,0.3l0.1,0.1c0.1-0.1,0.3-0.2,0.4-0.3
		c-0.1,0.1-0.2,0.2-0.3,0.3l0.1,0.1c0.1-0.1,0.3-0.2,0.5-0.2c-0.1,0.1-0.2,0.1-0.2,0.2c0.1,0,0.2,0,0.4,0c-0.2,0.1-0.3,0.1-0.5,0.2
		l0.1,0.1c0.2-0.1,0.3-0.1,0.5-0.1c-0.1,0.1-0.2,0.1-0.3,0.2l0.1,0.1c0.1-0.1,0.3-0.1,0.4-0.1c-0.1,0-0.2,0.1-0.3,0.2h0.1
		C29.7,30,29.9,30,30,30c-0.1,0-0.2,0.1-0.3,0.2h0.1c0.1,0,0.2,0,0.3,0c-0.1,0-0.2,0-0.3,0.1l0.3,0.2H30l-0.5-0.2c0,0,0,0-0.1,0l0,0
		h-0.1c-0.1,0-0.1,0.1-0.2,0.1c0-0.1,0.1-0.1,0.1-0.1h-0.1c-0.1,0-0.1,0.1-0.2,0.1c0,0,0.1-0.1,0.1-0.2V30c-0.1,0.1-0.2,0.1-0.3,0.2
		c0-0.1,0.1-0.1,0.2-0.2l-0.2-0.1c-0.1,0.1-0.2,0.1-0.2,0.2c0-0.1,0.1-0.2,0.1-0.2l-0.2-0.1c-0.1,0.1-0.2,0.2-0.3,0.2
		c0-0.1,0.1-0.2,0.2-0.3l-0.2-0.1C28,29.8,27.9,29.9,27.8,29.9"/>
	<path class="st1" d="M26.1,30.4c-0.2,0.4-0.4,1-0.5,2.2c-0.1,0.5-0.1,1.1,0,1.6c0.1,0.3,0.2,0.4,0.3,0.4l2.2-0.4
		c0.2,0,0.3-0.2,0.3-0.3l-0.1-0.2L28.2,34l-0.1-0.2L28,34.1l-0.1-0.3l-0.1,0.4l-0.1-0.3l-0.1,0.3l-0.1-0.3l-0.1,0.3l-0.1-0.3
		l-0.1,0.3l-0.1-0.3L27,34.2L26.9,34l-0.1,0.2L26.7,34c-0.1,0-0.2,0-0.3,0v0.1L26.3,34c-0.2,0-0.3-0.1-0.5-0.1l0.2-0.1
		c0-0.1-0.1-0.1-0.2-0.1l0.2-0.2h-0.2l0.2-0.1c0-0.1-0.1-0.1-0.2-0.2l0.2-0.1V33h-0.2l0.3-0.1c0-0.1,0-0.1-0.2-0.2l0.2-0.1
		c0-0.1,0-0.1-0.2-0.2l0.2-0.1l-0.2-0.1l0.2-0.1c0-0.1,0-0.1-0.2-0.2l0.2-0.1c0,0-0.1-0.1-0.2-0.2l0.2-0.1l-0.2-0.1l0.2-0.1L26,31.4
		l0.2-0.1c0,0,0-0.1-0.2-0.1l0.2-0.1V31L26,31l0.1-0.1L26,30.8l0.3-0.1v-0.1l-0.2-0.1l0.2-0.1C26.3,30.4,26.2,30.4,26.1,30.4
		 M26.5,30.7L26.5,30.7c-0.2,1.1-0.2,2.1-0.1,3c-0.1-1.4,0.1-3,0.4-3.2v0.1c-0.3,1.1-0.3,2.2-0.1,3.1c-0.1-1.6,0-2.5,0.3-3v0.2
		c-0.2,1.1-0.2,2,0,2.7h0.1c-0.1-1.1-0.1-2,0.1-2.9h0.1c-0.2,1.2-0.2,2.1-0.1,2.9l0.1-0.1c-0.1-1.2-0.1-2,0.1-2.8h0.1
		c-0.2,1.1-0.2,2.1,0,2.8h0.1c-0.1-1.3-0.1-2.1,0.1-2.8l0.1,0.1c-0.1,1-0.1,1.9,0,2.7h0.1c0-1.1-0.1-1.9,0-2.6l0.1-0.1
		c-0.1,0.8-0.1,1.7,0,2.7h0.1c-0.1-1.2-0.1-2.1,0-2.8h0.1c-0.1,1-0.1,1.8,0,2.8h0.1c-0.1-1.3,0-2.2,0.1-2.7c0.1,0,0.1,0.1,0,0.3
		c-0.1,0.8-0.1,1.6,0,2.4h0.1c-0.1-1.3,0-2,0.1-2.7c0.1-0.1,0.2,0,0.1,0.2c-0.1,0.9-0.2,1.5-0.1,2.5h0.1c0.1,0,0.1,0.1,0,0.1
		c-0.7,0.2-1.4,0.3-2.1,0.3c-0.1,0-0.2-0.1-0.2-0.3C26.1,32.6,26.2,31.6,26.5,30.7 M28.9,31.3l0.1-0.5c0.1-0.1,0.2,0,0.1,0.1
		L28.9,31.3L28.9,31.3z M28.8,30.8c-0.1,0.8-0.1,1.2-0.2,2l0.1,0.1c0-0.9,0.1-1.4,0.3-2.1C29,30.8,28.8,30.7,28.8,30.8 M28.6,30.8
		c0-0.1,0.1,0,0.1,0c-0.1,0.6-0.2,1.4-0.2,2.3l0,0C28.4,32.3,28.4,31.5,28.6,30.8 M25.4,35.8c0-0.2,0-0.5,0.1-0.8
		c0-0.1,0.1-0.2,0.3-0.2l2-0.3c0.1,0,0.1,0,0.1,0.2s-0.1,0.4-0.2,0.5s-0.1-0.2-0.1-0.6c-0.2,0.4-0.1,0.7-0.3,0.8
		c-0.1-0.2,0.1-0.5,0.1-0.7c-0.2,0.2-0.2,0.5-0.3,0.7c-0.1,0-0.1-0.2,0-0.6c-0.1,0.3-0.2,0.5-0.3,0.6c-0.1-0.1-0.1-0.3,0-0.6
		c-0.1,0.4-0.2,0.7-0.3,0.7c0-0.2,0-0.4,0-0.6l0,0c-0.1,0.4-0.1,0.6-0.2,0.7c-0.1-0.2-0.1-0.5,0-0.7h-0.1c-0.1,0.2-0.1,0.4-0.2,0.4
		s-0.2-0.2-0.2-0.4C25.7,35.4,25.6,35.6,25.4,35.8"/>
	<path class="st1" d="M29.2,31.5c-0.1,0.1-0.2,0.2,0.1,0.2c-0.2,0.2-0.2,0.3,0,0.3c-0.3,0.4-0.3,0.5,0,0.3c-0.3,0.4-0.3,0.5-0.1,0.4
		C28.9,33,29,33.1,29,33.1c-0.2,0.3-0.2,0.4,0,0.4c-0.2,0.1-0.3,0.2-0.3,0.4c-0.1,0.2-0.7,0.5-0.2,0.7c0.2,0.1,0.3,0.3,0.4,0.7
		c0,0.2,0.1,0.2,0.3,0.2c0.2,0,0.3-0.1,0.5-0.1c0.3,0,0.3-0.3,0-0.3c0-0.1-0.1-0.2-0.2-0.1c0.1-0.2,0-0.2-0.1-0.2
		c0.1,0,0.1-0.2-0.2,0v-0.1c0.1,0,0.2-0.1,0.2-0.2L29,34.6c0.1-0.1,0.2-0.2,0.2-0.3l-0.3,0.1c0.3-0.2,0.4-0.4,0.4-0.4L29,34.1
		c0.2-0.2,0.4-0.3,0.4-0.4l-0.3,0.1c0-0.1,0.1-0.2,0.3-0.2c0.2-0.1,0.3-0.2,0.2-0.4l-0.4,0.2c0.3-0.3,0.6-0.6,0.7-0.8
		c0-0.1-0.4,0.1-0.8,0.5V33c0.4-0.3,0.7-0.6,1-1l-0.8,0.6l0.7-0.9c0-0.1-0.3,0-0.7,0.4V32l0.4-0.4c0.3-0.2,0.5-0.4,0.6-0.6
		s-0.2,0.1-0.6,0.4c-0.1,0.1-0.2,0.1-0.3,0.2l0.9-1v-0.1C30.3,30.5,29.7,31.2,29.2,31.5 M28.1,35.2c-0.2-0.1,0-0.3,0.1-0.2l0.5,0.3
		c0.1,0.1,0,0.3-0.1,0.2L28.1,35.2z M28.3,34.9c-0.2-0.1,0-0.3,0.1-0.2l0.2,0.2c0.1,0.1,0,0.2-0.1,0.2L28.3,34.9z M29.3,35.8
		c-0.1-0.1-0.2,0-0.1,0.1c0.2,0.2,0.4,0.3,0.6,0.4c0.2,0.1,0.5,0.1,0.7,0.1s0.2-0.1,0-0.2C30.2,36.2,29.8,36.1,29.3,35.8 M29.4,35.8
		c-0.1-0.1-0.1-0.2,0-0.2h0.5c0.1,0,0.2,0.1,0.3,0.2l0.3,0.3c0.1,0.1,0,0.2-0.1,0.2C30.1,36.1,29.7,36,29.4,35.8"/>
	<path class="st1" d="M30,34.4c0.1-0.2,0.2-0.3,0.4-0.4c0.5-0.1,1-0.2,1.5-0.4c0.2-0.1,0.2-0.1,0.2,0.1c0,0.5-0.1,0.9-0.2,1v-0.8
		h-0.1c0,0.4-0.1,0.7-0.2,0.8v-0.8h-0.1l-0.2,0.7V34c0-0.1,0-0.1-0.1-0.1c-0.1,0.8-0.2,1.1-0.4,1.2c0.2-0.5,0.2-0.8,0.1-1.1l0,0
		c0,0.4-0.1,0.8-0.2,1.1c-0.2-0.2,0.1-0.6,0.1-1l0,0L30.5,35c-0.1,0-0.1-0.1,0-0.4v-0.5l0,0c-0.1,0.3-0.2,0.5-0.3,0.7v-0.7L30,34.6
		v-0.4L30,34.4z M32.2,33.8c0-0.2,0.2-0.1,0.1,0L32.2,34l0,0V33.8z M32.1,34.4c0,0,0,0,0,0.1s0,0.1,0,0.1s0,0,0-0.1V34.4 M32.2,34.2
		C32.3,34.2,32.3,34.2,32.2,34.2c0,0.1,0,0.1,0,0.1S32.2,34.3,32.2,34.2L32.2,34.2 M32.2,33.3l0.1,0.1c0,0.1,0,0.2,0,0.2
		s-0.1,0-0.1-0.1S32.2,33.3,32.2,33.3 M32,32.8c0.1,0.1,0.2,0.3,0.1,0.4c0,0.2-0.1,0.3-0.1,0.2s0-0.3-0.1-0.5
		C31.8,32.8,31.9,32.8,32,32.8 M30.9,32.6c0-0.2,0.1,0,0.1,0.1v0.2c0,0-0.1,0-0.1-0.1V32.6z M30.4,33.4c-0.1,0.1-0.1,0.1,0,0.2h0.1
		l0,0c0,0.1,0,0.1,0.1,0.1c0,0,0.1,0,0.1-0.1l0,0h0.1v0.3c0,0-0.1,0-0.2,0l0,0c0,0-0.1,0-0.1,0.1l0,0c0,0,0,0,0.1,0.1l1-0.2
		c0.3,0,0.4-0.2,0.3-0.6c0-0.1,0-0.2-0.1-0.2h-0.2l0.1-0.1c0.2-0.1,0.2-0.1,0-0.1h-0.3h0.3c0.1,0,0.1-0.1,0-0.2h-0.3h0.2
		c0.1-0.1,0.1-0.2-0.2-0.2c0.1-0.1,0.1-0.2,0-0.2c0-0.1-0.2-0.2-0.1,0l0.1,1c0,0.1,0,0.2-0.1,0.2L30.4,33.4z M30.9,33
		C31,33,31,33,30.9,33c0.1,0.1,0,0.2,0,0.2C30.9,33.1,30.9,33.1,30.9,33L30.9,33 M31.5,33.3C31.5,33.3,31.6,33.3,31.5,33.3
		C31.6,33.3,31.5,33.4,31.5,33.3C31.5,33.4,31.5,33.3,31.5,33.3L31.5,33.3 M31.5,33.1c0.1,0,0.1,0,0.1,0s0,0.1-0.1,0.1
		C31.4,33.2,31.4,33.2,31.5,33.1C31.4,33.1,31.4,33.1,31.5,33.1 M30.8,33.7L30.8,33.7v-0.3h-0.1L30.8,33.7z M30.9,33.7
		C31,33.7,31,33.7,30.9,33.7l0.1-0.3h-0.1V33.7z M31.1,33.6C31.1,33.6,31.2,33.6,31.1,33.6v-0.3H31L31.1,33.6z M31.3,33.6L31.3,33.6
		c0.2-0.1,0.2-0.2,0-0.2l0,0V33.6z"/>
	<path class="st1" d="M33.6,19.3c-1.3-0.1-1.9,0.3-2.2,0.7c-0.3,0.4-0.4,0.8-0.5,1.2c0,0.1,0.2-0.1,0.4-0.3h-0.1
		c0-0.1,0.1-0.2,0.1-0.3c0,0,0-0.1,0.1-0.2c0.1,0,0.2-0.1,0.2-0.2h-0.1c0.3-0.4,0.8-0.5,1.4-0.5c0.2,0,0.3,0,0.4,0
		c0.1,0,0.2,0,0.2,0s0.1-0.1,0-0.1c-0.5-0.1-1,0-1.4,0.1c0.3-0.2,0.8-0.2,1.6-0.2C33.9,19.5,33.9,19.3,33.6,19.3 M31.4,27.4
		c0,0,0.1,0.1,0,0.2c0,0.1-0.1,0.2-0.2,0.2s-0.1-0.1,0-0.2C31.3,27.4,31.3,27.3,31.4,27.4 M30.3,27.8c0,0,0,0.1,0,0.2s0,0.2,0,0.2
		s0-0.1,0-0.2S30.3,27.8,30.3,27.8 M30.4,28.3c0-0.3,0.2-0.5,0.4-0.7c0.2-0.2,0.3-0.1,0.1,0.1c-0.2,0.2-0.2,0.4-0.4,0.6
		C30.5,28.5,30.4,28.6,30.4,28.3 M31,27.2c-0.2,0.1-0.4,0.2-0.5,0.4c-0.1,0.2,0,0.2,0.1,0.1c0.1-0.2,0.3-0.2,0.5-0.4
		C31.2,27.2,31.2,27.1,31,27.2 M29.7,28.2c-0.1,0.1-0.1,0.2,0.1,0.1c0.3-0.4,0.5-0.7,0.6-0.8L31,27c0.4-0.1,0.6-0.5,0.7-1.2v-0.1
		c-0.2,0.5-0.4,0.9-0.7,1.1c-0.3,0.2-0.5,0.4-0.7,0.7c-0.1,0.1-0.1,0.2-0.2,0.3C30,27.9,29.8,28.1,29.7,28.2 M29.6,27.9
		C29.5,28,29.6,28.1,29.6,27.9c0.4-0.4,0.7-0.7,1-1s0.8-0.7,1-1.3c0.1-0.4,0-0.5-0.1-0.2c-0.2,0.5-0.4,1-0.8,1.3
		C30.4,26.9,29.9,27.3,29.6,27.9 M29.6,27.4c-0.1,0.1-0.1,0.2,0,0.3c0.3-0.1,0.2-0.6,0.9-0.9c0.1-0.1,0.1-0.2-0.1-0.1l-0.7,0.5
		c0.2-0.4,0.5-0.6,0.8-0.7c0.2,0,0.4-0.1,0.6-0.3c0.1-0.2,0-0.2-0.1-0.1c-0.4,0.3-0.8,0.4-1.1,0.6c-0.3,0.2-0.5,0.5-0.6,0.9
		L29.6,27.4z M29.5,26.5c0.1-0.3,0.5-0.4,0.9-0.6c0.3-0.1,0.6-0.3,0.8-0.6c0.2-0.2,0.2,0,0.1,0.2s-0.2,0.2-0.3,0.3
		c-0.2,0.2-0.5,0.3-0.7,0.4c-0.3,0.1-0.5,0.2-0.7,0.5C29.6,26.8,29.5,26.7,29.5,26.5 M30.2,25.6c0.2-0.1,0.4-0.3,0.6-0.5
		c0.2-0.3,0.3-0.3,0.2,0c-0.1,0.3-0.2,0.5-0.6,0.7C30.1,25.9,30,25.8,30.2,25.6 M31.2,24.9l0.1-0.5c0-0.2,0.1-0.4,0.2-0.6l0.2-0.5
		c0-0.2,0.1-0.2,0.1,0.1l-0.1,0.3c0.1,0,0,0.1,0,0.2s0,0.2-0.1,0.3c0,0.4-0.1,0.7-0.2,0.8C31.2,25.3,31.1,25.2,31.2,24.9 M30.5,24.9
		l0.2-0.6c0.1-0.2,0.2-0.3,0.3-0.3l0.3-0.3c0.1-0.1,0.1,0,0.1,0.1l-0.2,0.4c0,0.3-0.2,0.6-0.5,0.9c-0.1,0.1-0.2,0.1-0.1,0l0.3-0.6
		L30.5,24.9C30.4,25.1,30.4,25,30.5,24.9 M30,25.1c0.1-0.4,0.2-0.6,0.3-0.7c0.2-0.2,0.2-0.2,0.1,0c-0.1,0.1-0.2,0.4-0.2,0.7
		C30.3,25.5,29.9,25.5,30,25.1 M30,24.6C30,24.8,30,24.7,30,24.6l0.2-0.4c0.2-0.1,0.4-0.3,0.6-0.5c0.1,0.1,0.3,0,0.5-0.3
		c0.3-0.2,0.5-0.4,0.6-0.7c0.1-0.3,0-0.3-0.1-0.1c-0.2,0.3-0.4,0.4-0.5,0.7c-0.3,0.1-0.5,0.4-0.8,0.6c-0.1,0.1-0.1,0.2-0.1,0.3
		C30.1,24.1,30,24.3,30,24.6 M30,23.9c0,0,0.1-0.1,0.1,0V24c0,0.1-0.1,0.1-0.1,0V23.9 M31.7,21.3c0.2-0.3,0.5-0.4,0.7-0.5
		c0.3-0.1,0.3,0.1,0.1,0.1s-0.4,0.1-0.7,0.6C31.7,21.6,31.6,21.5,31.7,21.3 M29.7,24.4c0-0.5,0.1-0.9,0.3-1c0.7-0.4,0.9-1,1.2-1
		c0.2-0.4,0.6-0.8,1-1.2c0.3-0.2,0.4-0.2,0.2,0.2C32,22,31.5,22.8,31.1,23c-0.2,0-0.3,0.1-0.4,0.3L31,23c0.1,0,0.1,0,0.1,0.1
		c-0.2,0.1-0.6,0.7-0.7,0.3c-0.2,0.3-0.4,0.2-0.4,0.5v0.4C29.8,24.5,29.8,24.5,29.7,24.4 M32.4,20.4c0.1,0,0.2,0.1,0.1,0.2
		c-0.3,0.1-0.7,0.4-1,0.8c0,0.1,0,0.3-0.2,0.3c0,0.2-0.1,0.3-0.4,0.4l-0.3,0.4c0.1,0.1,0,0.3-0.3,0.5c-0.2,0.2-0.2,0.1-0.2-0.2
		c0.2-0.5,0.5-1.2,0.7-1.2c0.1,0,0.1,0,0.1-0.2c0-0.1,0.1-0.1,0.1,0s0,0.1,0.1,0C31.6,20.9,32,20.6,32.4,20.4 M31.4,20.6
		c0.3-0.3,0.7-0.5,1.6-0.5c0.2,0,0.1,0.2,0,0.2s-0.3,0-0.4,0.1c-0.2,0-0.3,0.1-0.5,0.2c-0.3,0.2-0.6,0.4-0.8,0.8
		c-0.1,0-0.1,0-0.1-0.1c0.3-0.5,0.7-0.8,1-0.9l0,0c-0.2,0-0.5,0-0.8,0.4C31.4,20.8,31.4,20.7,31.4,20.6 M31.7,20.1
		c0.3-0.2,0.7-0.3,1.1-0.3c0.3,0,0.3,0.2,0.1,0.2C32.6,20,32.2,20,31.7,20.1C31.6,20.3,31.6,20.2,31.7,20.1"/>
	<path class="st1" d="M33.8,18.9c-0.1-0.1,0-0.2,0.1-0.2c0.5,0.1,0.9,0.2,1.1,0.4c0.2,0.1,0,0.2-0.1,0.1L34.7,19
		c0,0.1-0.1,0.1-0.3-0.1C34.3,19,34.1,19,34,18.8l0.1,0.3c0,0.1,0,0.1-0.1,0L33.8,18.9z M34.5,19.1c-0.1,0,0,0.2,0.1,0.2
		c0.1,0.1,0.1,0,0.1-0.1C34.6,19.2,34.5,19.1,34.5,19.1"/>
	<path class="st1" d="M35.5,19.5c0,0-0.2-0.1,0-0.1c-0.2-0.1-0.1-0.2,0-0.2c0.4,0,0.7-0.2,1.2,0l0.2,0.2c0.1,0.3,0,0.5-0.2,0.2
		c-0.1-0.1,0-0.3-0.2-0.4c0.1,0.2,0.2,0.5,0.2,0.7c0.3,0.3,0,0.4-0.1,0.2l-0.1-0.6c0,0.3,0,0.5,0,0.5c-0.1,0,0-0.2-0.1-0.5
		c0-0.1-0.1-0.3-0.1-0.3c-0.3-0.1-0.5,0-0.7,0c0.3,0,0.6,0,0.6,0.1c0.1,0.2,0.1,0.3,0.1,0.5c-0.1,0.1-0.1,0.1-0.1-0.1v-0.2
		c0-0.1-0.1-0.1-0.3-0.1C35.7,19.5,35.6,19.6,35.5,19.5"/>
	<path class="st1" d="M31.3,30.8c0.5,0.8,1,1.6,1.7,2.3c0.1,0.1,0-0.2,0.1-0.1c0.1,0.3,0.3,0.6,0.4,0.6c0.1-0.1-0.2-0.3-0.2-0.6
		l0.9,1c0.1-0.1-0.4-0.7-0.8-1.2l0.1-0.1l1,1.3l0,0c-0.2-0.4-0.6-0.9-0.9-1.4v-0.1c0.2,0.2,0.4,0.6,0.6,0.9c0.3,0.4,0.5,0.8,0.6,0.8
		c0.4,0.1-0.9-1.2-1.4-2.3v-0.1c0.7,1,1.3,1.9,1.9,2.4c0.1,0,0.1,0,0.1-0.1c-0.6-0.7-1.3-1.4-1.7-2.1v-0.1c0.6,0.8,1,1.6,2.2,2.3
		c0.1,0,0.1,0.1,0.2,0.1c0.3-0.2-1-0.5-2.1-2.2V32c0.4,0.5,0.4,0.7,0.8,1c0.5,0.5,1.2,1.1,1.4,1.1c0.1-0.1-1.1-0.9-1.7-1.9l0,0
		c0.5,0.7,1.2,1.6,2.3,2.1c0.1,0.1,0.1,0.1,0.3,0.1c0.5,0-1-0.7-1.8-1.6v-0.1c0.2,0.2,0.5,0.5,0.8,0.7c0.4,0.3,0.8,0.5,1.1,0.7
		s0.5,0.2,0.6,0.2c0.3-0.1-1-0.6-1.4-1c0.2,0.1,0.4,0.2,0.6,0.3c0.6,0.3,1,0.5,1.1,0.4s-0.2-0.2-0.8-0.4c-0.1-0.1,0-0.1,0.1,0
		c0.6,0.2,1,0.4,1,0.4c0.2-0.1-0.1-0.2-0.5-0.4c0.5,0.2,0.8,0.4,1.1,0.3c0.1,0-0.3-0.2-0.5-0.5c0.4,0.3,1.4,0.6,0.5,0h0.1
		c0.3,0.3,0.8,0.4,0.3-0.1h0.1c0.3,0.2,0.5,0.4,0.2-0.1c0.3,0.4,0.6,0.6,0.2,0l0.5,0.4c-0.2,0.1-0.2,0.1,0,0.2
		c0.4,0.3,0.4,0.2,0.3,0c0-0.4-0.1-0.7-0.4-0.8c-0.3-0.2-0.3,0,0.1,0.6c-0.1-0.1-0.2-0.2-0.3-0.3s-0.2-0.2-0.3-0.2
		c-0.7,0-1.4,0.2-2.1,0.2c-0.5,0.1-0.9,0-1.1-0.1c-0.2-0.2-0.2-0.2-0.2-0.4c0.1-0.1,0-0.2-0.1-0.3l-0.5-1c0.1,0.1,0.1,0.2,0.2,0.2
		c0.2,0.3,0.3,0.6,0.4,0.6c-0.1-0.2-0.3-0.7-0.5-1.2c0.4,0.7,0.7,1.2,0.8,1.2c0-0.3-0.3-0.8-0.7-1.3c0.1,0.1,0.1,0.1,0.2,0.2
		c0.1,0.2,0.2,0.3,0.3,0.3c-0.2-0.5-0.5-0.8-0.8-0.9c-0.4-0.2-0.7-0.2-0.6,0.1l-0.2-0.2h-0.2c-0.1,0,0,0.2,0.2,0.4l0,0l-0.3-0.4
		c-0.1,0-0.2-0.1-0.2,0l0.1,0.3l-0.3-0.3c-0.1-0.1-0.3-0.1-0.3,0l0.4,0.7c-0.1-0.1-0.2-0.2-0.3-0.4c-0.2-0.2-0.3-0.4-0.5-0.4
		s0.2,0.3,0.5,1l-0.6-0.9c-0.1,0-0.3-0.1-0.3,0l0.8,1.1c-0.3-0.4-0.7-0.7-0.9-1.1h-0.1h-0.1l0.9,1.2c-0.2-0.2-0.4-0.3-0.5-0.5
		c-0.2-0.3-0.4-0.5-0.5-0.7c-0.1-0.1-0.2,0-0.2,0c-0.1,0.1,0.7,0.9,1,1.4c-0.5-0.4-0.8-0.9-1.2-1.4c-0.2-0.1-0.3-0.1-0.3,0
		s0.9,1,1.3,1.6c-0.5-0.5-1-1.1-1.4-1.6c-0.1-0.1-0.2-0.1-0.2,0c0,0.2,0.8,0.9,1.5,1.9c-0.5-0.5-1.1-1.3-1.4-1.4
		c-0.1,0,0.3,0.5,1.3,1.6c-0.5-0.4-0.9-0.9-1.3-1.4c-0.1,0.1,0.4,0.8,1.2,1.6l-1.2-1.3C31.2,30.6,31.2,30.6,31.3,30.8 M36.4,30.5
		c-0.1-0.2,0-0.2,0.2,0c0.2,0.4,0.5,0.8,0.6,1.1c0.1,0.2,0,0.2-0.1,0.1C36.9,31.2,36.6,30.9,36.4,30.5 M35.9,30.3
		c-0.1-0.1,0.1-0.2,0.3,0c0.3,0.5,0.6,1,0.9,1.5c0.1,0.3,0,0.4-0.1,0.1C36.7,31.3,36.3,30.8,35.9,30.3"/>
	<path class="st1" d="M33.8,20.1c0,0.3,0.1,0.6,0.4,0.8c0,0-0.1-0.3-0.2-0.4C33.9,20.3,33.8,20.2,33.8,20.1 M34.7,29.6
		c0-0.4-0.3-0.8-0.8-1.1c0,0.1,0.3,0.4,0.5,0.7C34.6,29.4,34.6,29.5,34.7,29.6 M34.7,29.1c-0.1,0-0.1-0.2-0.3-0.5
		C34.3,28.3,34,28.1,34,28C34.4,28.3,34.7,28.8,34.7,29.1 M34.6,28.5c0,0-0.1-0.2-0.2-0.3c-0.1-0.2-0.3-0.4-0.3-0.5
		C34.4,27.9,34.6,28.2,34.6,28.5 M34.6,27.9c0-0.2-0.2-0.4-0.4-0.5c0,0,0.1,0.2,0.2,0.3C34.5,27.8,34.5,27.9,34.6,27.9 M34.3,19.7
		c-0.1,0.3,0,0.6,0.2,0.9c0-0.1-0.1-0.3-0.1-0.5S34.4,19.7,34.3,19.7 M31.7,29.4c-0.2,0-0.3,0-0.3-0.3
		C31.5,29.2,31.6,29.3,31.7,29.4 M31.4,29c0.2,0.2,0.3,0.2,0.5,0.4c0.1,0,0.2,0,0.2,0c-0.2-0.3-0.5-0.4-0.7-0.7
		C31.3,28.8,31.3,28.9,31.4,29 M31.3,28.6c0.3,0.3,0.6,0.5,0.8,0.8c0.1,0,0.2,0,0.2,0c-0.3-0.4-0.7-0.8-1-1.2
		C31.3,28.3,31.3,28.4,31.3,28.6 M31.4,28.1c0.4,0.5,0.8,0.8,1.2,1.3c0.1,0.1,0.2,0.1,0.3,0c-0.4-0.5-0.9-1.1-1.3-1.6
		C31.4,27.9,31.4,28,31.4,28.1C31.4,28,31.4,28.1,31.4,28.1 M31.5,27.7c0.5,0.6,1,1.1,1.5,1.8c0.1,0,0.2,0,0.2,0
		c-0.1-0.1-0.4-0.5-0.5-0.6c-0.4-0.5-0.7-0.8-1.2-1.4C31.5,27.6,31.5,27.6,31.5,27.7 M31.6,27.4c0.5,0.6,0.7,0.9,1.3,1.6
		c0.1,0.1,0.4,0.4,0.4,0.5c0.1,0.2,0.3,0.2,0.2,0c-0.1-0.1,0,0-0.2-0.2c-0.5-0.6-1.3-1.6-1.8-2.2C31.6,27.2,31.6,27.3,31.6,27.4
		 M31.6,27c0-0.1,0-0.2,0-0.2c0.5,0.6,1.3,1.6,1.9,2.3c0.3,0.3,0.3,0.3,0.4,0.5c0,0.1-0.1,0-0.2,0c-0.1-0.1-0.1-0.1-0.3-0.3
		C32.9,28.5,32.2,27.6,31.6,27 M31.7,26.7c0-0.1,0-0.2,0-0.3c0.5,0.8,1.2,1.6,1.9,2.3c-0.1-0.3-1-1.1-1.6-1.9
		c-0.1-0.2-0.2-0.4-0.3-0.6c0-0.1,0-0.2,0-0.3c0.4,0.8,1.1,1.6,2,2.4c-0.1-0.3-1-1-1.5-1.8c-0.2-0.3-0.3-0.6-0.4-0.8v-0.1
		c0.4,0.8,1.1,1.7,2,2.4c-0.1-0.3-1.1-1.1-1.5-1.8c-0.2-0.3-0.3-0.6-0.4-0.8v-0.2c0.4,0.8,1.3,1.8,2.1,2.5c-0.1-0.3-1.2-1.2-1.6-1.9
		c-0.2-0.3-0.3-0.6-0.4-0.8v-0.2c0.3,0.8,1.2,1.8,2,2.5c-0.1-0.3-1.1-1.1-1.6-1.8c-0.2-0.4-0.3-0.7-0.4-0.9c0-0.1,0-0.2,0-0.2
		c0.3,0.8,1.1,1.8,1.9,2.4c-0.1-0.2-1.1-1-1.4-1.7c-0.3-0.4-0.4-0.7-0.5-0.9c0-0.1,0-0.2,0-0.3c0.2,0.8,1,1.7,1.8,2.4
		c-0.1-0.2-1-0.9-1.4-1.6c-0.3-0.5-0.4-0.8-0.5-1l0,0c0-0.1,0-0.2,0-0.3c0.2,0.8,0.9,1.8,1.8,2.5c-0.1-0.2-0.9-0.9-1.2-1.5
		s-0.4-0.9-0.5-1.1c0.3-2.2,1.2-3.5,2.5-3.7l0,0c0,0.3,0,0.6,0.2,0.9c0-0.1,0-0.4-0.1-0.6v-0.2h0.1c0,0.3,0.1,0.6,0.3,0.6
		c-0.1-0.2-0.1-0.4-0.1-0.6h0.2c0,0.3,0.1,0.7,0.3,0.7c-0.1-0.2-0.1-0.4-0.1-0.6l0,0c0,0.1,0.1,0.2,0.1,0.3c0.1-0.1,0-0.2,0-0.4
		c0.2-0.1,0.4-0.1,0.6,0.1c0.1,0.1,0,0.1-0.1,0.1h-0.1L36,20c0,0,0.1,0.1-0.1,0.1l-0.1,0.1h0.3c0.1,0,0.1,0.1,0.1,0.1l-0.1,0.1
		c0.3,0,0.6,0.1,0.9,0.2c0,0.1-0.2,0.1-0.4,0c0.1,0.1,0.3,0.2,0.3,0.3c0,0.2-0.4,0-0.6,0.2h0.4c0.1,0.1,0.1,0.1-0.1,0.1
		c0.2,0.3,0.4,0.3,0.4,0.2c0.1-0.1,0.1-0.1,0.2,0c0.3,0.2,0.3,0.2,0.2,0.2h-0.2h0.3c0.1,0,0.1,0.1,0,0.1c-0.2,0-0.2,0.1,0.2,0.1
		c0.2,0.1,0.2,0.2,0.2,0.2c-0.3,0-0.3,0.1,0.1,0.1c0.1,0,0.1,0.1,0.1,0.2c-0.2,0-0.2,0.1,0.1,0.1c0,0,0.1,0.1,0,0.1
		c-0.2,0.1-0.2,0.1,0.1,0.1c0,0.1,0.2,0.1,0.2,0.2c0.2,0,0.3,0.1,0.1,0.1l0,0c0.3,0,0.5,0.1,0.5,0.3c0,0.1-0.5-0.2-0.3,0.5l0.1,0.1
		c0.1,0,0-0.3,0.2-0.3c0,0,0.1,0.1,0,0.3c0,0.2-0.2,0.2-0.3,0.1c-0.2-0.1-0.2-0.2-0.2-0.3v-0.2c-0.2,0-0.2-0.1-0.2-0.3
		c0,0-0.1,0,0-0.1c-0.3,0-0.4,0-0.5,0.2c0,0.1-0.1,0-0.1-0.1c0,0-0.1,0-0.2,0c0,0,0-0.1-0.1-0.1c0,0,0,0-0.1,0c0,0,0-0.1-0.1,0
		s-0.1,0.1-0.1,0s0.1-0.2-0.1,0C37,23,37,23,37,23c-0.1-0.3-0.2-0.3-0.2,0c0,0.1-0.1,0.1-0.1,0c-0.1-0.4-0.1-0.4-0.1,0
		c0,0.2-0.1,0.1-0.2,0c-0.1-0.3-0.2,0-0.2-0.1c-0.1-0.2,0-0.4-0.2-0.5l0.1,0.5c0,0.1-0.1,0.1-0.1,0c-0.1-0.3-0.3-1-0.2-0.8l0.1,0.7
		c0,0.1-0.2,0-0.2-0.1l-0.2-0.9c0-0.3,0,0.5,0.1,0.8h-0.1c0-0.1-0.1-0.9-0.2-0.9c-0.1,0.1,0.2,1,0,0.8l-0.1-0.9v0.8
		c-0.2-0.3,0-1.1-0.2-1.2l-0.1,1c0.1,0.8,0.7,0.8,0.7,1l-0.6,0c0.1,0.2,0.3,0.5,0.4,0.7c-0.1,0,0,0.2,0.1,0.3
		c-0.1,0-0.1,0.1,0.2,0.3c0.1,0,0.1,0.1,0.1,0.1c-0.3-0.1-0.3-0.1,0.2,0.3c-0.3,0-0.3,0,0,0.2c0.1,0,0.1,0.1,0.1,0.2s0,0-0.1,0
		s-0.2-0.1-0.2-0.1c-0.1,0,0,0.1,0.4,0.4c0.1,0.1,0.2,0.2,0.1,0.2c-0.5-0.3-0.5-0.2,0.1,0.2c0.1,0.2,0.2,0.3,0.1,0.3
		c-0.5-0.4-0.8-0.6,0,0.2c0.1,0.1,0.2,0.2,0.1,0.2c-0.8-0.6-0.4-0.2,0.2,0.3v0.1c-0.8-0.6-0.8-0.4,0,0.4c0,0.1,0.1,0.1,0,0.2h-0.1
		c-0.5-0.5-0.5-0.4,0.1,0.4c0.1,0.1,0.1,0.3,0,0.2c-0.7-0.8-0.9-0.9,0,0.2c0.1,0.2,0.1,0.2,0,0.2c-0.6-0.8-0.6-0.7,0,0.2
		c0,0.1,0,0.1,0,0.1c-0.6-0.7-0.7-0.8,0,0.2c0.1,0.2,0.1,0.2,0,0.1c-0.7-0.8-0.7-0.7,0,0.1c0.1,0.1,0.1,0.2,0,0.1
		c-0.8-0.9-0.8-0.9,0,0.1c0,0.2,0,0.2-0.1,0.1s-0.1-0.2-0.1-0.2c-0.5-0.6-0.5-0.5,0,0.2c-0.1,0.1-0.1,0.1-0.2,0
		c-0.5-0.6-0.5-0.6-0.2,0h-0.3c0-0.1-0.1-0.1-0.2-0.2c-0.5-0.5-0.6-0.5-0.2,0.1l0,0L35,29.5c-0.1,0-0.1,0-0.2-0.1
		c-0.2-0.4-0.4-0.5-0.7-0.9c0,0.1,0.3,0.4,0.5,0.8c0.1,0.2-0.2,0.1-0.3,0.1c-0.2-0.2-0.2-0.3-0.5-0.5C33,28.3,32.3,27.3,31.7,26.7
		 M33.5,20.4c0,0,0.1,0.2,0.2,0.5c0.1,0.2,0.3,0.5,0.3,0.5C33.7,21.1,33.5,20.7,33.5,20.4 M33.3,20.6c0.1,0.1,0.1,0.3,0.2,0.5
		c0.2,0.3,0.4,0.5,0.4,0.6C33.5,21.4,33.3,21,33.3,20.6 M33.1,20.9c0.1,0.1,0.1,0.3,0.3,0.6c0.2,0.3,0.5,0.6,0.5,0.7
		C33.4,21.8,33.1,21.3,33.1,20.9 M32.9,21.2c0,0.5,0.3,1,0.9,1.4c0-0.1-0.4-0.5-0.5-0.8C33,21.5,33,21.2,32.9,21.2 M32.7,21.4
		c0,0.5,0.4,1.1,1,1.6c0-0.1-0.4-0.5-0.6-0.9C32.9,21.8,32.8,21.5,32.7,21.4 M32.6,21.7c0,0.6,0.5,1.2,1.1,1.7c0-0.1-0.5-0.5-0.7-1
		C32.7,22.1,32.7,21.8,32.6,21.7 M32.4,22c0.1,0.6,0.5,1.3,1.2,1.9c0-0.2-0.5-0.6-0.8-1.1C32.6,22.4,32.5,22.1,32.4,22 M32.3,22.3
		c0.1,0.7,0.6,1.4,1.3,2c0-0.2-0.6-0.6-0.9-1.1C32.5,22.7,32.4,22.4,32.3,22.3 M32.2,22.6c0.1,0.7,0.6,1.6,1.4,2.2
		c-0.1-0.2-0.6-0.7-1-1.2C32.3,23,32.3,22.7,32.2,22.6 M32.1,22.9c0.1,0.8,0.7,1.7,1.6,2.4c-0.1-0.2-0.8-0.8-1.1-1.4
		C32.3,23.4,32.2,23,32.1,22.9 M34.1,19.9c0,0,0.1,0.2,0.2,0.3c0.1,0.2,0.2,0.3,0.2,0.4C34.1,20.4,34,20.1,34.1,19.9 M38,23.9
		c-0.2-0.2-0.3,0,0,0.2c0.2,0.2,0.4,0.1,0.3,0.1L38,23.9z M36.8,22c0,0,0,0.2,0,0.3c0,0.1,0,0.2,0.1,0.2c0.1,0.1,0.1,0.1,0.1,0.1
		c-0.1-0.2-0.1-0.3-0.1-0.5C36.8,22.1,36.8,22.1,36.8,22 M36.6,21.8c0,0,0,0.2,0,0.3c0,0.1,0,0.2,0.1,0.3c0.1,0.1,0.1,0.1,0.1,0.1
		c-0.1-0.2-0.1-0.4-0.1-0.5C36.6,21.9,36.6,21.8,36.6,21.8 M36.3,21.6c0,0,0,0.2,0,0.3c0,0.1,0,0.2,0.1,0.3c0.1,0.1,0.1,0.1,0.1,0.1
		c0-0.2-0.1-0.4-0.1-0.6C36.4,21.6,36.4,21.6,36.3,21.6 M36.1,21.4c0,0,0,0.3,0,0.4s0,0.2,0.1,0.4c0.1,0.1,0.1,0.1,0.1,0.1
		c0-0.3-0.1-0.5-0.1-0.7C36.2,21.4,36.2,21.4,36.1,21.4 M35.9,21.1c0,0,0,0.3,0,0.5c0,0.1,0,0.3,0.1,0.4s0.1,0.2,0.1,0.1
		c0-0.3-0.1-0.6-0.1-0.8C36,21.2,36,21.1,35.9,21.1 M35.7,20.9c0,0,0,0.3,0,0.5s0,0.3,0.1,0.5s0.1,0.2,0.1,0.1
		c0-0.3-0.1-0.6-0.1-0.9C35.8,21,35.7,20.9,35.7,20.9 M35.5,20.9c0,0,0,0.3,0,0.4s0,0.3,0.1,0.4c0,0.1,0.1,0.2,0.1,0.1
		c0-0.3-0.1-0.5-0.1-0.7C35.6,21,35.5,20.9,35.5,20.9 M35.3,20.9c0,0,0,0.2,0,0.3c0,0.1,0,0.2,0,0.3c0,0.1,0.1,0.1,0.1,0.1
		c0-0.2,0-0.4,0-0.6C35.4,21,35.3,20.9,35.3,20.9"/>
	<path class="st1" d="M19.8,15.5c0.5,0.6,0.9,1.1,1.4,1.7c0,0.1,0,0.2-0.2,0.2C20.5,16.6,20.1,16.1,19.8,15.5
		C19.6,15.4,19.7,15.4,19.8,15.5 M22,19.3c0,0.1,0,0.2-0.1,0.1c-0.2-0.2-0.2-0.5,0.1-0.8c0.2-0.3,0.5-0.3,0.8-0.1
		c0.2,0.1,0.1,0.1-0.1,0.1C22.2,18.7,22,19,22,19.3 M22.6,19.1c-0.2-0.1-0.3,0-0.2,0.2c3,4.3,7.6,10.5,13,17.8v0.1l0.5,0.3l-0.2-0.6
		L35.5,37C31.4,31.2,26.5,24.4,22.6,19.1"/>
	<path class="st1" d="M29.9,20.2c0-0.1,0.4-0.4,0.9-0.7c0.2-0.2,0.4-0.2,0.6-0.2c0.1,0,0.2,0,0.3,0c0.1,0.1,0.1,0.1-0.1,0.2
		c-0.1,0-0.1-0.1-0.2,0c-0.1,0-0.2,0.1-0.2,0.2l-0.1-0.1c-0.2,0.1-0.3,0.5-0.4,0.6V20c-0.1,0-0.2,0.2-0.3,0.3c0-0.1,0-0.2-0.1-0.2
		C30.1,20.2,30,20.3,29.9,20.2 M23.9,28.1c0.1,0,0.3,0,0.3,0.1s-0.1,0.1-0.3,0.1c-0.2,0-0.3,0-0.3-0.1
		C23.6,28.2,23.8,28.1,23.9,28.1 M24.9,27.9c0.1-0.1,0.2-0.2,0.2-0.2s0,0.2-0.1,0.3c-0.1,0.1-0.2,0.2-0.2,0.2
		C24.8,28.2,24.9,28.1,24.9,27.9 M24.6,28.1c0.1-0.1,0.1-0.2,0.2-0.1c0,0,0,0.1-0.1,0.2s-0.2,0.2-0.2,0.1
		C24.5,28.3,24.5,28.2,24.6,28.1 M24.3,28.2c0.1-0.1,0.1-0.1,0.1-0.1C24.5,28.1,24.4,28.2,24.3,28.2c0,0.2,0,0.2-0.1,0.2
		C24.2,28.3,24.2,28.2,24.3,28.2 M19.3,27.1l-0.1,0.2c0.1,0,0.1-0.1,0.2-0.1l-0.1,0.3c0.1,0,0.3-0.2,0.5-0.3l-0.1,0.3
		c0.1,0,0.2-0.2,0.3-0.3l0,0.1c0.2,0,0.3-0.2,0.4-0.3v0.3c0.1,0,0.2-0.2,0.3-0.3l0.1,0.2c0.1,0,0.2-0.1,0.3-0.2v0.2l0.2-0.2v0.2
		l0.3-0.1l0.1,0.1l0.2-0.1v0.2l0.3-0.1v0.2l0.2-0.1v0.2l0.2-0.1v0.2l0.4-0.1l-0.1,0.3l0.3-0.2v0.2l0.3-0.1L23.3,28
		c0.2,0,0.3-0.1,0.5-0.2l-0.1,0.3c0.2,0,0.4-0.2,0.6-0.5c0,0.1,0,0.2-0.2,0.5c0.2-0.1,0.4-0.3,0.5-0.5l-0.1,0.3
		c0.2,0,0.3-0.1,0.4-0.3v0.3c0.1-0.1,0.2-0.2,0.3-0.4c0.2,0.1,0.3,0,0.4-0.3c0.1-0.2,0-0.3-0.2-0.2c-0.6,0.5-1.5,0.6-2.8,0.2
		c-0.8-0.2-1.7-0.3-2.5-0.3C19.7,26.7,19.4,26.7,19.3,27.1 M21.2,23.8c0.1-0.1,0.2-0.2,0.3-0.3v0.1l0.4-0.1v0.1l0.4-0.2
		c-0.2,0.3-0.3,0.4-0.2,0.4c0.1,0,0.3-0.3,0.4-0.2c-0.2,0.3,0,0.2,0.3-0.1c0.1,0-0.1,0.2-0.1,0.3c0,0,0.2-0.1,0.4-0.2
		c0.1,0,0.2-0.2,0.2-0.1s-0.1,0.1-0.1,0.2c-0.2,0.3-0.2,0.2,0.2,0c0.1,0,0.2-0.1,0.2-0.1c-0.3,0.4-0.2,0.3,0.3,0
		c0.1,0,0.1-0.1,0.2-0.1c-0.5,0.5-0.4,0.5,0.2,0.2c-0.3,0.4-0.2,0.4,0.3,0.1c0,0,0.1,0,0.2,0c-0.2,0.2-0.3,0.4-0.2,0.3
		c0.2-0.1,0.4-0.2,0.5-0.1c-0.2,0.2-0.2,0.3,0.1,0.3c0.1,0,0,0.1-0.3,0.3c0,0.1-0.1,0-0.1-0.2c0,0.1-0.1,0.1-0.1,0l-0.1,0.4h-0.1
		v-0.2c0-0.1-0.1-0.1-0.1,0l-0.1,0.3l-0.1-0.1c0,0.1-0.1,0.2-0.2,0.3c-0.1-0.1-0.2-0.1-0.2,0c-0.1,0-0.1,0-0.1,0
		c0,0.1-0.1,0.2-0.2,0.1c-0.1,0.1-0.2,0.2-0.3,0.3l-0.1-0.2c-0.1,0.2-0.2,0.2-0.3,0.2l-0.1-0.1l-0.2,0.3l-0.3,0.1
		c0,0.1,0.1,0.1,0.3,0c0.2,0,0.7-0.1,1-0.2s0.6-0.1,1-0.3c0.3-0.1,0.6-0.4,1-0.5c0.1,0.1,0,0.2-0.6,0.7l-0.3-0.1l0.2,0.2
		c-0.1,0.1-0.1,0.1-0.2,0.1l-0.3-0.1l0.1,0.3c-0.2,0-0.3-0.2-0.5-0.1L24,26l-0.4-0.1l0.1,0.3l-0.3-0.1l-0.1,0.1
		c-0.1,0-0.2,0-0.2,0.1c0.8,0.1,1.7-0.2,2.6-0.6c0,0,0.1,0,0.1,0.1c-0.1,0.4-0.3,0.7-0.7,1l0.1-0.5c-0.3,0.1-0.6,0.7-0.8,0.8
		l0.2-0.6l-0.7,0.6c-0.1-0.1,0-0.2,0.2-0.5c-0.2,0-0.6,0.5-0.6,0.5c-0.2-0.1,0.1-0.2,0.2-0.3c-0.2,0-0.3,0.2-0.5,0.3
		c0-0.1,0.1-0.2,0.3-0.4L22.9,27c0-0.1,0.2-0.2,0.3-0.3c-0.3,0.2-0.5,0.3-0.6,0.3l0.2-0.3L22.3,27l0.3-0.3L22.1,27l0.2-0.3L21.9,27
		l0.2-0.3c-0.2,0.2-0.4,0.3-0.5,0.3c0.1-0.1,0.2-0.2,0.2-0.3c-0.2,0.2-0.4,0.3-0.4,0.3l0.1-0.3C21.4,26.9,21.2,27,21,27l0.2-0.3
		v-0.1l-0.4,0.3c0.1-0.2,0.1-0.3,0.1-0.3l-0.3,0.1v-0.2l-0.3,0.4c0,0,0-0.1,0.1-0.3l-0.3,0.2c0.2-0.4,0.5-0.6,0.9-0.7
		c0.5-0.2,0.9-0.2,1.2-0.2c0.5-0.1,0.9-0.1,1.3-0.3c0.2-0.1,0.4-0.2,0.7-0.4c0.1-0.1,0.1-0.1-0.1-0.1h-0.5v-0.2l-0.2,0.3v-0.3
		L22.6,25l-0.1-0.6L22.4,25l-0.1-0.6L22,25.2v-0.8l-0.1,0.7l-0.1-0.8l-0.1,0.8l-0.2-0.7l-0.1,0.7l-0.2-0.7v0.7L21,24.5v0.6l-0.2-0.6
		L20.7,25l-0.1-0.5L20.5,25c-0.2-0.4-0.3-0.8-0.2-1C20.6,23.9,20.9,23.8,21.2,23.8 M22.9,22.2c0,0,0.1,0.1,0.1,0.2s0,0.2,0,0.2
		s-0.1-0.1-0.1-0.2C22.9,22.3,22.9,22.2,22.9,22.2 M21.4,22c0.2-0.3,0.4-0.5,0.5-0.2c0.1-0.5,0.3-0.5,0.5-0.1c0.3,0,0.3,0.4,0.3,1.1
		l-0.3-0.7v0.5C22.3,21.8,21.1,22.2,21.4,22 M26.4,19.4c0.3,0,0.7,0.2,1,0.3c0,0,0,0.1,0,0c-0.1-0.1-0.2-0.1-0.3-0.1
		c0,0.1,0,0.2,0,0.2c-0.1-0.2-0.2-0.2-0.3-0.2c0,0,0,0-0.1,0c-0.1-0.2-0.1-0.2-0.2-0.1C26.3,19.4,26.3,19.4,26.4,19.4 M24.7,19.5
		C24.6,19.5,24.6,19.6,24.7,19.5c0.1,0,0.2,0,0.3,0.1c0-0.2,0.1-0.2,0.2,0.1c-0.1-0.2,0-0.3,0.3,0.1c0-0.2,0-0.2,0.2,0.1
		c0,0.1,0.1,0.1,0.1,0c-0.1-0.3,0-0.3,0.2,0c0,0.1,0,0.1,0,0c0-0.2,0.1-0.2,0.3,0.1c0.1,0.1,0.1,0.1,0.1,0c0-0.2,0-0.2,0.2,0.1
		c0.2,0,0.4,0.1,0.6,0.3c0,0,0.1,0.1,0.1,0c-0.2-0.3,0-0.2,0.3,0c0.2-0.1,0.2-0.1,0.1-0.2c-0.5-0.2-0.9-0.4-1.2-0.6
		c-0.3-0.3-0.5-0.2-0.9-0.5C25.3,19.2,25,19.3,24.7,19.5 M23.9,20c-0.2,0.1-0.2,0.1,0,0.2c0.1,0,0.1,0,0.2,0s0.2,0,0.2,0.1
		c0.1,0.2,0.2,0.2,0.2,0.2s-0.3-0.3-0.1-0.3h0.1c0.3,0.2,0.5,0.4,0.5,0.3l-0.1-0.3c0-0.1,0.1,0,0.2,0l0.3,0.3c0,0.1,0,0-0.1-0.2
		c0-0.1,0.1-0.1,0.1,0c0.2,0.2,0.5,0.6,0.5,0.4v-0.1c0-0.1,0.1-0.1,0.1,0c0.1,0.2,0.3,0.3,0.3,0.2v-0.1c0-0.1,0-0.1,0.1,0l0.4,0.3
		c0.1,0.1,0.1,0,0.1,0l-0.1-0.1c0-0.1,0-0.1,0.1,0l0.3,0.2c0.1,0,0.1,0,0-0.2h0.2c0,0.1,0.1,0.1,0.3,0.2c0,0,0.1,0,0.1-0.1l0.4-0.1
		c0.1,0,0.1-0.1,0-0.1c-0.6,0.2-1.3-0.2-2-0.5C25.3,19.8,24.6,19.8,23.9,20 M30.2,20.3v0.1c0,0-0.1,0.1-0.1,0v-0.1
		C30.1,20.3,30.1,20.3,30.2,20.3 M30.6,20.4C30.5,20.4,30.5,20.5,30.6,20.4l0.3-0.2c0.1-0.2,0,0.1,0.1,0c0.1,0,0.2-0.3,0.2-0.4
		l0.2-0.1c0.1-0.1,0.1-0.2-0.1-0.1c-0.2,0.2-0.4,0.3-0.6,0.5L30.6,20.4z"/>
</g>
<g>
	<g>
		<path class="st0" d="M55.98,14.95h4.43v6.42h0.66v2.56h-0.86v-1.7H55.4v1.7h-0.86v-2.56h0.57c0.59-0.88,0.88-2.67,0.88-5.36V14.95
			z M59.45,15.81h-2.54v0.37c0,0.62-0.06,1.47-0.17,2.54c-0.11,1.07-0.33,1.96-0.65,2.65h3.36V15.81z"/>
		<path class="st0" d="M65.71,20.53l0.92,0.11c-0.15,0.54-0.42,0.96-0.81,1.26c-0.39,0.3-0.9,0.45-1.51,0.45
			c-0.77,0-1.38-0.24-1.84-0.71c-0.45-0.48-0.68-1.14-0.68-2c0-0.89,0.23-1.58,0.69-2.07c0.46-0.49,1.05-0.73,1.78-0.73
			c0.71,0,1.28,0.24,1.73,0.72c0.45,0.48,0.67,1.16,0.67,2.03c0,0.05,0,0.13,0,0.24h-3.93c0.03,0.58,0.2,1.02,0.49,1.33
			c0.29,0.31,0.66,0.46,1.1,0.46c0.33,0,0.61-0.09,0.84-0.26C65.39,21.18,65.57,20.91,65.71,20.53z M62.77,19.08h2.94
			c-0.04-0.44-0.15-0.78-0.34-1c-0.28-0.34-0.65-0.52-1.11-0.52c-0.41,0-0.76,0.14-1.04,0.41C62.95,18.26,62.8,18.62,62.77,19.08z"
			/>
		<path class="st0" d="M67.76,16.95h4.16v5.27h-0.89v-4.53h-2.37v4.53h-0.89V16.95z"/>
		<path class="st0" d="M76.7,21.58c-0.33,0.28-0.65,0.48-0.96,0.6c-0.31,0.12-0.63,0.17-0.99,0.17c-0.58,0-1.02-0.14-1.34-0.42
			c-0.31-0.28-0.47-0.64-0.47-1.09c0-0.26,0.06-0.49,0.18-0.71c0.12-0.21,0.27-0.38,0.46-0.51c0.19-0.13,0.4-0.23,0.64-0.29
			c0.18-0.05,0.44-0.09,0.79-0.13c0.72-0.09,1.25-0.19,1.59-0.31c0-0.12,0-0.2,0-0.23c0-0.36-0.08-0.62-0.25-0.77
			c-0.23-0.2-0.57-0.3-1.02-0.3c-0.42,0-0.73,0.07-0.93,0.22c-0.2,0.15-0.35,0.41-0.44,0.78l-0.87-0.12
			c0.08-0.37,0.21-0.68,0.39-0.91c0.18-0.23,0.45-0.41,0.79-0.53c0.34-0.12,0.74-0.19,1.2-0.19c0.45,0,0.82,0.05,1.1,0.16
			c0.28,0.11,0.49,0.24,0.62,0.4c0.13,0.16,0.23,0.36,0.28,0.61c0.03,0.15,0.04,0.43,0.04,0.82v1.19c0,0.83,0.02,1.36,0.06,1.58
			c0.04,0.22,0.11,0.43,0.23,0.63h-0.93C76.79,22.04,76.73,21.83,76.7,21.58z M76.63,19.58c-0.32,0.13-0.81,0.25-1.46,0.34
			c-0.37,0.05-0.63,0.11-0.78,0.18c-0.15,0.07-0.27,0.16-0.35,0.29c-0.08,0.13-0.12,0.27-0.12,0.42c0,0.24,0.09,0.44,0.27,0.6
			c0.18,0.16,0.44,0.24,0.79,0.24c0.34,0,0.65-0.08,0.92-0.23c0.27-0.15,0.46-0.36,0.59-0.62c0.1-0.2,0.14-0.5,0.14-0.89V19.58z"/>
		<path class="st0" d="M78.91,24.25v-7.29h0.81v0.69c0.19-0.27,0.41-0.47,0.65-0.6c0.24-0.13,0.53-0.2,0.88-0.2
			c0.45,0,0.85,0.12,1.19,0.35c0.34,0.23,0.6,0.56,0.78,0.98c0.18,0.42,0.26,0.88,0.26,1.39c0,0.54-0.1,1.03-0.29,1.46
			c-0.19,0.43-0.48,0.76-0.84,0.99c-0.37,0.23-0.76,0.35-1.16,0.35c-0.3,0-0.57-0.06-0.8-0.19c-0.24-0.13-0.43-0.28-0.58-0.48v2.57
			H78.91z M79.72,19.62c0,0.68,0.14,1.18,0.41,1.5c0.27,0.32,0.61,0.49,1,0.49c0.4,0,0.74-0.17,1.02-0.5
			c0.28-0.34,0.42-0.86,0.42-1.56c0-0.67-0.14-1.18-0.41-1.51c-0.28-0.33-0.61-0.5-0.99-0.5c-0.38,0-0.72,0.18-1.01,0.53
			C79.87,18.43,79.72,18.94,79.72,19.62z"/>
		<path class="st0" d="M83.86,16.95h4.29v0.74h-1.7v4.53h-0.89v-4.53h-1.7V16.95z"/>
		<path class="st0" d="M92.33,21.58c-0.33,0.28-0.65,0.48-0.96,0.6c-0.31,0.12-0.63,0.17-0.99,0.17c-0.58,0-1.02-0.14-1.34-0.42
			c-0.31-0.28-0.47-0.64-0.47-1.09c0-0.26,0.06-0.49,0.18-0.71c0.12-0.21,0.27-0.38,0.46-0.51c0.19-0.13,0.4-0.23,0.64-0.29
			c0.18-0.05,0.44-0.09,0.79-0.13c0.72-0.09,1.25-0.19,1.59-0.31c0-0.12,0-0.2,0-0.23c0-0.36-0.08-0.62-0.25-0.77
			c-0.23-0.2-0.57-0.3-1.02-0.3c-0.42,0-0.73,0.07-0.93,0.22c-0.2,0.15-0.35,0.41-0.44,0.78l-0.87-0.12
			c0.08-0.37,0.21-0.68,0.39-0.91c0.18-0.23,0.45-0.41,0.79-0.53c0.34-0.12,0.74-0.19,1.2-0.19c0.45,0,0.82,0.05,1.1,0.16
			c0.28,0.11,0.49,0.24,0.62,0.4c0.13,0.16,0.23,0.36,0.28,0.61c0.03,0.15,0.04,0.43,0.04,0.82v1.19c0,0.83,0.02,1.36,0.06,1.58
			c0.04,0.22,0.11,0.43,0.23,0.63h-0.93C92.42,22.04,92.36,21.83,92.33,21.58z M92.26,19.58c-0.32,0.13-0.81,0.25-1.46,0.34
			c-0.37,0.05-0.63,0.11-0.78,0.18c-0.15,0.07-0.27,0.16-0.35,0.29c-0.08,0.13-0.12,0.27-0.12,0.42c0,0.24,0.09,0.44,0.27,0.6
			c0.18,0.16,0.44,0.24,0.79,0.24c0.34,0,0.65-0.08,0.92-0.23c0.27-0.15,0.46-0.36,0.59-0.62c0.1-0.2,0.14-0.5,0.14-0.89V19.58z"/>
		<path class="st0" d="M94.57,16.95h1.39l1.39,4.22l1.54-4.22h1.29v5.27h-0.89v-4.25l-1.56,4.25h-0.8l-1.48-4.45v4.45h-0.87V16.95z"
			/>
		<path class="st0" d="M105.15,20.53l0.92,0.11c-0.15,0.54-0.42,0.96-0.81,1.26c-0.39,0.3-0.9,0.45-1.51,0.45
			c-0.77,0-1.38-0.24-1.84-0.71c-0.45-0.48-0.68-1.14-0.68-2c0-0.89,0.23-1.58,0.69-2.07c0.46-0.49,1.05-0.73,1.78-0.73
			c0.71,0,1.28,0.24,1.73,0.72c0.45,0.48,0.67,1.16,0.67,2.03c0,0.05,0,0.13,0,0.24h-3.93c0.03,0.58,0.2,1.02,0.49,1.33
			c0.29,0.31,0.66,0.46,1.1,0.46c0.33,0,0.61-0.09,0.84-0.26C104.83,21.18,105.01,20.91,105.15,20.53z M102.21,19.08h2.94
			c-0.04-0.44-0.15-0.78-0.34-1c-0.28-0.34-0.65-0.52-1.11-0.52c-0.41,0-0.76,0.14-1.04,0.41C102.4,18.26,102.24,18.62,102.21,19.08
			z"/>
		<path class="st0" d="M107.2,16.95h0.89v2.19h2.48v-2.19h0.89v5.27h-0.89v-2.34h-2.48v2.34h-0.89V16.95z"/>
		<path class="st0" d="M112.33,16.95h4.29v0.74h-1.7v4.53h-0.89v-4.53h-1.7V16.95z"/>
		<path class="st0" d="M55.2,28.11h0.89v2.28c0.28,0,0.48-0.05,0.6-0.16c0.11-0.11,0.28-0.43,0.5-0.95
			c0.18-0.42,0.32-0.69,0.43-0.82c0.11-0.13,0.24-0.22,0.38-0.27c0.14-0.05,0.37-0.07,0.69-0.07h0.18v0.74l-0.25-0.01
			c-0.24,0-0.39,0.03-0.45,0.1c-0.07,0.07-0.18,0.29-0.32,0.65c-0.14,0.34-0.26,0.58-0.37,0.72c-0.11,0.13-0.29,0.25-0.52,0.36
			c0.38,0.1,0.76,0.46,1.13,1.07l0.98,1.63h-0.98l-0.95-1.63c-0.2-0.33-0.37-0.54-0.51-0.65c-0.15-0.1-0.32-0.16-0.52-0.16v2.44
			H55.2V28.11z"/>
		<path class="st0" d="M59.73,35.41l-0.1-0.84c0.2,0.05,0.37,0.08,0.51,0.08c0.2,0,0.36-0.03,0.48-0.1
			c0.12-0.07,0.22-0.16,0.29-0.28c0.06-0.09,0.15-0.31,0.27-0.67c0.02-0.05,0.04-0.12,0.08-0.22l-2-5.28h0.96l1.1,3.05
			c0.14,0.39,0.27,0.79,0.38,1.22c0.1-0.41,0.22-0.81,0.37-1.2l1.13-3.07h0.89l-2.01,5.36c-0.22,0.58-0.38,0.98-0.5,1.2
			c-0.16,0.29-0.34,0.51-0.55,0.65c-0.2,0.14-0.45,0.21-0.73,0.21C60.14,35.52,59.94,35.49,59.73,35.41z"/>
		<path class="st0" d="M65.07,28.11h4.15v5.27h-0.89v-4.53h-2.37v2.63c0,0.61-0.02,1.02-0.06,1.21c-0.04,0.2-0.15,0.37-0.33,0.51
			c-0.18,0.15-0.44,0.22-0.77,0.22c-0.21,0-0.45-0.01-0.72-0.04v-0.74h0.39c0.19,0,0.32-0.02,0.4-0.06c0.08-0.04,0.13-0.1,0.16-0.18
			c0.03-0.08,0.04-0.35,0.04-0.81V28.11z"/>
		<path class="st0" d="M70.55,28.11h0.89v2.06h1.13c0.74,0,1.31,0.14,1.71,0.43c0.4,0.29,0.6,0.68,0.6,1.18
			c0,0.44-0.17,0.82-0.5,1.13c-0.33,0.31-0.86,0.47-1.6,0.47h-2.23V28.11z M71.45,32.65h0.94c0.57,0,0.97-0.07,1.21-0.21
			c0.24-0.14,0.36-0.36,0.36-0.65c0-0.23-0.09-0.43-0.27-0.61c-0.18-0.18-0.57-0.27-1.19-0.27h-1.06V32.65z"/>
		<path class="st0" d="M74.59,28.11h4.29v0.74h-1.7v4.53h-0.89v-4.53h-1.7V28.11z"/>
		<path class="st0" d="M79.8,35.41l-0.1-0.84c0.2,0.05,0.37,0.08,0.51,0.08c0.2,0,0.36-0.03,0.48-0.1c0.12-0.07,0.22-0.16,0.29-0.28
			c0.06-0.09,0.15-0.31,0.27-0.67c0.02-0.05,0.04-0.12,0.08-0.22l-2-5.28h0.96l1.1,3.05c0.14,0.39,0.27,0.79,0.38,1.22
			c0.1-0.41,0.22-0.81,0.37-1.2l1.13-3.07h0.89l-2.01,5.36c-0.22,0.58-0.38,0.98-0.5,1.2c-0.16,0.29-0.34,0.51-0.55,0.65
			c-0.21,0.14-0.45,0.21-0.73,0.21C80.21,35.52,80.01,35.49,79.8,35.41z"/>
		<path class="st0" d="M84.81,35.4v-7.29h0.81v0.69c0.19-0.27,0.41-0.47,0.65-0.6c0.24-0.13,0.53-0.2,0.88-0.2
			c0.45,0,0.85,0.12,1.19,0.35c0.34,0.23,0.6,0.56,0.78,0.98c0.18,0.42,0.26,0.88,0.26,1.39c0,0.54-0.1,1.03-0.29,1.46
			c-0.19,0.43-0.48,0.76-0.84,0.99c-0.37,0.23-0.76,0.35-1.16,0.35c-0.3,0-0.57-0.06-0.8-0.19c-0.24-0.13-0.43-0.28-0.58-0.48v2.57
			H84.81z M85.62,30.78c0,0.68,0.14,1.18,0.41,1.5c0.27,0.32,0.61,0.49,1,0.49c0.4,0,0.74-0.17,1.02-0.5
			c0.28-0.34,0.42-0.86,0.42-1.56c0-0.67-0.14-1.18-0.41-1.51c-0.28-0.33-0.61-0.5-0.99-0.5c-0.38,0-0.72,0.18-1.01,0.53
			C85.77,29.58,85.62,30.1,85.62,30.78z"/>
		<path class="st0" d="M90.49,28.11h0.89v2.06h1.13c0.74,0,1.31,0.14,1.71,0.43c0.4,0.29,0.6,0.68,0.6,1.18
			c0,0.44-0.17,0.82-0.5,1.13c-0.33,0.31-0.87,0.47-1.6,0.47h-2.23V28.11z M91.38,32.65h0.94c0.57,0,0.97-0.07,1.21-0.21
			c0.24-0.14,0.36-0.36,0.36-0.65c0-0.23-0.09-0.43-0.27-0.61c-0.18-0.18-0.57-0.27-1.19-0.27h-1.06V32.65z M95.49,28.11h0.89v5.27
			h-0.89V28.11z"/>
		<path class="st0" d="M55.21,39.26h3.03V40h-2.14v4.53h-0.89V39.26z"/>
		<path class="st0" d="M58.36,41.9c0-0.98,0.27-1.7,0.81-2.17c0.45-0.39,1.01-0.59,1.66-0.59c0.73,0,1.32,0.24,1.78,0.71
			c0.46,0.48,0.69,1.13,0.69,1.97c0,0.68-0.1,1.21-0.31,1.6c-0.2,0.39-0.5,0.69-0.89,0.91c-0.39,0.22-0.81,0.32-1.27,0.32
			c-0.74,0-1.34-0.24-1.79-0.71C58.59,43.47,58.36,42.79,58.36,41.9z M59.28,41.9c0,0.68,0.15,1.18,0.44,1.52
			c0.29,0.34,0.67,0.5,1.11,0.5c0.44,0,0.81-0.17,1.11-0.51c0.29-0.34,0.44-0.85,0.44-1.54c0-0.65-0.15-1.15-0.44-1.48
			c-0.3-0.34-0.66-0.5-1.1-0.5c-0.45,0-0.82,0.17-1.11,0.5C59.43,40.72,59.28,41.22,59.28,41.9z"/>
		<path class="st0" d="M64.35,46.56v-7.29h0.81v0.69c0.19-0.27,0.41-0.47,0.65-0.6c0.24-0.13,0.53-0.2,0.88-0.2
			c0.45,0,0.85,0.12,1.19,0.35c0.34,0.23,0.6,0.56,0.78,0.98c0.18,0.42,0.26,0.88,0.26,1.39c0,0.54-0.1,1.03-0.29,1.46
			c-0.19,0.43-0.48,0.76-0.84,0.99c-0.37,0.23-0.76,0.35-1.16,0.35c-0.3,0-0.57-0.06-0.8-0.19c-0.24-0.13-0.43-0.28-0.58-0.48v2.57
			H64.35z M65.16,41.93c0,0.68,0.14,1.18,0.41,1.5c0.27,0.32,0.61,0.49,1,0.49c0.4,0,0.74-0.17,1.02-0.5
			c0.28-0.34,0.42-0.86,0.42-1.56c0-0.67-0.14-1.18-0.41-1.51c-0.28-0.33-0.61-0.5-0.99-0.5c-0.38,0-0.72,0.18-1.01,0.53
			C65.31,40.73,65.16,41.25,65.16,41.93z"/>
		<path class="st0" d="M69.67,41.9c0-0.98,0.27-1.7,0.81-2.17c0.45-0.39,1.01-0.59,1.66-0.59c0.73,0,1.32,0.24,1.78,0.71
			c0.46,0.48,0.69,1.13,0.69,1.97c0,0.68-0.1,1.21-0.31,1.6c-0.2,0.39-0.5,0.69-0.89,0.91c-0.39,0.22-0.81,0.32-1.27,0.32
			c-0.74,0-1.33-0.24-1.79-0.71C69.9,43.47,69.67,42.79,69.67,41.9z M70.59,41.9c0,0.68,0.15,1.18,0.44,1.52
			c0.29,0.34,0.67,0.5,1.11,0.5c0.44,0,0.81-0.17,1.11-0.51c0.29-0.34,0.44-0.85,0.44-1.54c0-0.65-0.15-1.15-0.44-1.48
			c-0.3-0.34-0.66-0.5-1.1-0.5c-0.45,0-0.82,0.17-1.11,0.5C70.74,40.72,70.59,41.22,70.59,41.9z"/>
		<path class="st0" d="M76.14,39.26h3.67v4.54h0.57v2.23h-0.73v-1.49H75.5v1.49h-0.73V43.8h0.47
			C75.87,42.95,76.17,41.43,76.14,39.26z M76.89,40c-0.07,1.71-0.33,2.98-0.79,3.8h2.84V40H76.89z"/>
		<path class="st0" d="M84.81,43.89c-0.33,0.28-0.65,0.48-0.96,0.6c-0.31,0.12-0.63,0.17-0.99,0.17c-0.58,0-1.02-0.14-1.34-0.42
			c-0.31-0.28-0.47-0.64-0.47-1.09c0-0.26,0.06-0.49,0.18-0.71c0.12-0.21,0.27-0.38,0.46-0.51c0.19-0.13,0.4-0.23,0.64-0.29
			c0.18-0.05,0.44-0.09,0.79-0.13c0.72-0.09,1.25-0.19,1.59-0.31c0-0.12,0-0.2,0-0.23c0-0.36-0.08-0.62-0.25-0.77
			c-0.23-0.2-0.57-0.3-1.02-0.3c-0.42,0-0.73,0.07-0.93,0.22c-0.2,0.15-0.35,0.41-0.44,0.78l-0.87-0.12
			c0.08-0.37,0.21-0.68,0.39-0.91c0.18-0.23,0.45-0.41,0.79-0.53c0.34-0.12,0.74-0.19,1.2-0.19c0.45,0,0.82,0.05,1.1,0.16
			c0.28,0.11,0.49,0.24,0.62,0.4c0.13,0.16,0.23,0.36,0.28,0.61c0.03,0.15,0.04,0.43,0.04,0.82v1.19c0,0.83,0.02,1.36,0.06,1.58
			c0.04,0.22,0.11,0.43,0.23,0.63h-0.93C84.9,44.35,84.84,44.13,84.81,43.89z M84.74,41.89c-0.32,0.13-0.81,0.25-1.46,0.34
			c-0.37,0.05-0.63,0.11-0.78,0.18c-0.15,0.07-0.27,0.16-0.35,0.29c-0.08,0.13-0.12,0.27-0.12,0.42c0,0.24,0.09,0.44,0.27,0.6
			c0.18,0.16,0.44,0.24,0.79,0.24c0.34,0,0.65-0.08,0.92-0.23c0.27-0.15,0.46-0.36,0.59-0.62c0.1-0.2,0.14-0.5,0.14-0.89V41.89z"/>
		<path class="st0" d="M89.94,44.54v-7.28h1.45l1.72,5.15c0.16,0.48,0.27,0.84,0.35,1.08c0.08-0.26,0.21-0.65,0.39-1.17l1.74-5.07
			h1.3v7.28h-0.93v-6.09l-2.12,6.09h-0.87l-2.11-6.2v6.2H89.94z"/>
		<path class="st0" d="M98.11,41.9c0-0.98,0.27-1.7,0.81-2.17c0.45-0.39,1.01-0.59,1.66-0.59c0.72,0,1.32,0.24,1.78,0.71
			c0.46,0.48,0.69,1.13,0.69,1.97c0,0.68-0.1,1.21-0.31,1.6c-0.2,0.39-0.5,0.69-0.89,0.91c-0.39,0.22-0.81,0.32-1.27,0.32
			c-0.74,0-1.33-0.24-1.79-0.71C98.33,43.47,98.11,42.79,98.11,41.9z M99.03,41.9c0,0.68,0.15,1.18,0.44,1.52
			c0.29,0.34,0.67,0.5,1.11,0.5c0.44,0,0.81-0.17,1.11-0.51c0.29-0.34,0.44-0.85,0.44-1.54c0-0.65-0.15-1.15-0.44-1.48
			c-0.3-0.34-0.66-0.5-1.1-0.5c-0.45,0-0.82,0.17-1.11,0.5C99.17,40.72,99.03,41.22,99.03,41.9z"/>
		<path class="st0" d="M107.54,42.6l0.88,0.11c-0.1,0.61-0.34,1.08-0.74,1.42c-0.4,0.34-0.88,0.51-1.46,0.51
			c-0.72,0-1.3-0.24-1.74-0.71c-0.44-0.47-0.66-1.15-0.66-2.03c0-0.57,0.09-1.07,0.28-1.49c0.19-0.43,0.48-0.75,0.86-0.96
			c0.39-0.21,0.81-0.32,1.26-0.32c0.57,0,1.04,0.14,1.41,0.43c0.36,0.29,0.6,0.7,0.7,1.23l-0.87,0.13c-0.08-0.35-0.23-0.62-0.44-0.8
			c-0.21-0.18-0.46-0.27-0.76-0.27c-0.45,0-0.82,0.16-1.1,0.48c-0.28,0.32-0.42,0.83-0.42,1.53c0,0.71,0.14,1.22,0.41,1.54
			c0.27,0.32,0.63,0.48,1.06,0.48c0.35,0,0.64-0.11,0.88-0.32C107.32,43.38,107.47,43.05,107.54,42.6z"/>
		<path class="st0" d="M109.18,39.26h0.89v2.28c0.28,0,0.48-0.05,0.6-0.16c0.11-0.11,0.28-0.43,0.5-0.95
			c0.18-0.42,0.32-0.69,0.43-0.82c0.11-0.13,0.24-0.22,0.38-0.27c0.14-0.05,0.37-0.07,0.69-0.07h0.18V40L112.59,40
			c-0.24,0-0.39,0.03-0.45,0.1c-0.07,0.07-0.18,0.29-0.32,0.65c-0.14,0.34-0.26,0.58-0.37,0.72c-0.11,0.13-0.29,0.25-0.52,0.36
			c0.38,0.1,0.76,0.46,1.13,1.07l0.98,1.63h-0.98l-0.95-1.63c-0.2-0.33-0.37-0.54-0.51-0.65c-0.15-0.1-0.32-0.16-0.52-0.16v2.44
			h-0.89V39.26z"/>
		<path class="st0" d="M113.63,39.26h2.06c0.51,0,0.88,0.04,1.13,0.13c0.25,0.08,0.46,0.24,0.64,0.46c0.18,0.23,0.27,0.49,0.27,0.81
			c0,0.25-0.05,0.47-0.16,0.66c-0.1,0.19-0.26,0.34-0.47,0.47c0.25,0.08,0.45,0.24,0.62,0.46c0.16,0.23,0.25,0.5,0.25,0.81
			c-0.03,0.5-0.21,0.87-0.54,1.11c-0.32,0.24-0.8,0.36-1.42,0.36h-2.38V39.26z M114.53,41.48h0.95c0.38,0,0.64-0.02,0.78-0.06
			s0.27-0.12,0.38-0.24c0.11-0.12,0.17-0.27,0.17-0.43c0-0.28-0.1-0.47-0.3-0.58c-0.2-0.11-0.53-0.16-1.01-0.16h-0.98V41.48z
			 M114.53,43.8h1.18c0.51,0,0.85-0.06,1.04-0.18c0.19-0.12,0.29-0.32,0.3-0.61c0-0.17-0.05-0.33-0.16-0.47
			c-0.11-0.14-0.25-0.24-0.43-0.27c-0.18-0.04-0.46-0.06-0.84-0.06h-1.08V43.8z"/>
		<path class="st0" d="M119.05,39.26h0.89v2.06h1.13c0.74,0,1.31,0.14,1.71,0.43c0.4,0.29,0.6,0.68,0.6,1.18
			c0,0.44-0.17,0.82-0.5,1.13c-0.33,0.31-0.86,0.47-1.6,0.47h-2.23V39.26z M119.95,43.8h0.94c0.57,0,0.97-0.07,1.21-0.21
			c0.24-0.14,0.36-0.36,0.36-0.65c0-0.23-0.09-0.43-0.27-0.61c-0.18-0.18-0.57-0.27-1.19-0.27h-1.06V43.8z M124.05,39.26h0.89v5.27
			h-0.89V39.26z"/>
	</g>
</g>
</svg>
