<svg width="428" height="476" viewBox="0 0 428 476" fill="none" xmlns="http://www.w3.org/2000/svg">
<path d="M213.86 476C406.133 476 562 320.132 562 127.86C562 -64.4124 406.133 -220.28 213.86 -220.28C21.5878 -220.28 -134.28 -64.4124 -134.28 127.86C-134.28 320.132 21.5878 476 213.86 476Z" fill="#0895FF"/>
<path d="M214.936 403.009C367.176 403.009 490.591 279.594 490.591 127.354C490.591 -24.8863 367.176 -148.301 214.936 -148.301C62.6957 -148.301 -60.7192 -24.8863 -60.7192 127.354C-60.7192 279.594 62.6957 403.009 214.936 403.009Z" fill="#0686F9"/>
<path d="M214.904 344.065C334.704 344.065 431.822 246.948 431.822 127.148C431.822 7.34812 334.704 -89.769 214.904 -89.769C95.1044 -89.769 -2.0127 7.34812 -2.0127 127.148C-2.0127 246.948 95.1044 344.065 214.904 344.065Z" fill="#0883F2"/>
<path d="M214.77 291.283C305.362 291.283 378.802 217.844 378.802 127.251C378.802 36.6583 305.362 -36.7816 214.77 -36.7816C124.177 -36.7816 50.7373 36.6583 50.7373 127.251C50.7373 217.844 124.177 291.283 214.77 291.283Z" fill="#0673EA"/>
</svg>
