<svg width="502" height="718" viewBox="0 0 502 718" fill="none" xmlns="http://www.w3.org/2000/svg">
<g opacity="0.65">
<path d="M395.204 429.004L364.253 335.913L335.524 429.004H361.659V440.657H366.846V429.004H395.204Z" fill="#D7E8E6"/>
<path d="M309.355 157.31L308.345 151.585H284.298L283.254 157.31H309.355Z" fill="#F2DCDB"/>
<path d="M318.786 209.817H273.453L272.409 215.408L320.099 217.125L318.786 209.817Z" fill="#F2DCDB"/>
<path d="M310.669 164.619L310.399 163.103L309.962 160.544H282.647L281.098 168.694L310.669 164.619Z" fill="#F2DCDB"/>
<path d="M285.477 145.354H307.234L303.158 122.654H289.72L285.477 145.354Z" fill="#F2DCDB"/>
<path d="M326.498 252.859L325.286 246.123L267.693 240.667L263.349 263.906H292.819V287.044H299.184V262.795H328.283L326.498 252.859Z" fill="#F2DCDB"/>
<path opacity="0.75" d="M302.586 119.488L302.114 116.861L296.557 85.9096L290.293 119.488H302.586Z" fill="#F2DCDB"/>
<path d="M280.088 174.251L274.227 205.573H318.011L313.633 181.021L311.612 169.873L280.088 174.251Z" fill="#F2DCDB"/>
<path d="M321.312 223.895L271.163 222.076L268.67 235.38L324.309 240.634L321.312 223.895Z" fill="#F2DCDB"/>
<path d="M100.744 375.352L65.4139 223.188L32.61 375.352H62.4501V394.381H68.3777V375.352H100.744Z" fill="#F2DCDB"/>
<g opacity="0.75">
<path opacity="0.75" d="M222.294 137.54L221.047 132.253H191.544L190.23 137.54H222.294Z" fill="#F2DCDB"/>
</g>
<g opacity="0.75">
<path opacity="0.75" d="M233.846 186.275H178.207L176.927 191.461L235.462 193.044L233.846 186.275Z" fill="#F2DCDB"/>
</g>
<g opacity="0.75">
<path opacity="0.75" d="M223.91 144.31L223.573 142.929L223.001 140.538H189.489L187.637 148.149L223.91 144.31Z" fill="#F2DCDB"/>
</g>
<g opacity="0.75">
<path opacity="0.75" d="M192.959 126.46H219.667L214.682 105.376H198.179L192.959 126.46Z" fill="#F2DCDB"/>
</g>
<g opacity="0.75">
<path opacity="0.75" d="M243.31 226.219L241.828 219.988L171.134 214.936L165.813 236.491H202.018V257.979H209.798V235.447H245.499L243.31 226.219Z" fill="#F2DCDB"/>
</g>
<g opacity="0.75">
<path opacity="0.75" d="M213.975 102.446L213.402 99.9877L206.599 71.259L198.886 102.446H213.975Z" fill="#F2DCDB"/>
</g>
<g opacity="0.75">
<path opacity="0.75" d="M186.357 153.302L179.184 182.334H232.936L227.514 159.567L225.055 149.227L186.357 153.302Z" fill="#F2DCDB"/>
</g>
<g opacity="0.75">
<path opacity="0.75" d="M236.944 199.342L175.411 197.692L172.347 210.019L240.649 214.902L236.944 199.342Z" fill="#F2DCDB"/>
</g>
<path d="M404.253 706.691L370.607 618.383L339.386 706.691H367.811V717.738H373.436V706.691H404.253Z" fill="#F9F0B9"/>
<path d="M469.895 445.189H451.944L451.203 449.466H470.704L469.895 445.189Z" fill="#F2DCDB"/>
<path d="M478.012 488.636H444.164L443.188 494.092L478.787 492.812L478.012 488.636Z" fill="#F2DCDB"/>
<path d="M471.142 451.858H450.765L450.395 453.777L450.227 454.922L472.287 457.987L471.142 451.858Z" fill="#F2DCDB"/>
<path d="M465.854 423.6H455.817L452.786 440.541H469.02L465.854 423.6Z" fill="#F2DCDB"/>
<path d="M482.323 511.706L439.314 515.748L438.405 520.8L437.058 528.209H458.781V546.329H463.53V529.051H485.556L482.323 511.706Z" fill="#F2DCDB"/>
<path d="M460.735 396.151L456.592 419.256L456.255 421.209H465.416L460.735 396.151Z" fill="#F2DCDB"/>
<path d="M473.061 462.13L449.519 458.863L448.004 467.148L444.737 485.503H477.406L473.061 462.13Z" fill="#F2DCDB"/>
<path d="M479.73 497.83L442.278 499.177L440.022 511.673L481.582 507.766L479.73 497.83Z" fill="#F2DCDB"/>
<g opacity="0.75">
<path opacity="0.75" d="M266.634 453.979L265.388 448.657H235.885L234.571 453.979H266.634Z" fill="#F2DCDB"/>
</g>
<g opacity="0.75">
<path opacity="0.75" d="M278.186 502.679H222.548L221.268 507.9L279.803 509.482L278.186 502.679Z" fill="#F2DCDB"/>
</g>
<g opacity="0.75">
<path opacity="0.75" d="M268.251 460.748L267.914 459.334L267.342 456.976H233.83L231.944 464.554L268.251 460.748Z" fill="#F2DCDB"/>
</g>
<g opacity="0.75">
<path opacity="0.75" d="M237.299 442.898H264.007L259.023 421.815H242.486L237.299 442.898Z" fill="#F2DCDB"/>
</g>
<g opacity="0.75">
<path opacity="0.75" d="M287.65 542.657L286.168 536.392L215.475 531.341L210.154 552.929H246.325V574.383H254.139V551.885H289.839L287.65 542.657Z" fill="#F2DCDB"/>
</g>
<g opacity="0.75">
<path opacity="0.75" d="M258.316 418.851L257.743 416.426L250.906 387.697L243.227 418.851H258.316Z" fill="#F2DCDB"/>
</g>
<g opacity="0.75">
<path opacity="0.75" d="M230.698 469.707L223.524 498.772H277.243L271.855 475.971L269.396 465.632L230.698 469.707Z" fill="#F2DCDB"/>
</g>
<g opacity="0.75">
<path opacity="0.75" d="M281.285 515.781L219.719 514.097L216.688 526.457L284.956 531.307L281.285 515.781Z" fill="#F2DCDB"/>
</g>
<path d="M8.44805 130.44C19.7121 130.44 19.7462 148.557 8.44805 148.557C-2.81602 148.557 -2.81602 130.44 8.44805 130.44Z" fill="#D7E8E6"/>
<path d="M292.283 641.331C303.538 641.331 303.572 658.24 292.283 658.24C281.027 658.24 280.993 641.331 292.283 641.331Z" fill="#D7E8E6"/>
<path d="M26.5711 503.644C39.4541 503.644 39.4541 521.761 26.5711 521.761C13.6882 521.761 13.6882 503.644 26.5711 503.644Z" fill="#F2DCDB"/>
<path d="M126.213 113.531C138.291 113.531 138.291 132.856 126.213 132.856C114.135 132.821 114.135 113.531 126.213 113.531Z" fill="#F2DCDB"/>
<path d="M478.878 97.8301C490.964 97.8301 490.964 117.155 478.878 117.155C466.826 117.155 466.792 97.8301 478.878 97.8301Z" fill="#F2DCDB"/>
<path d="M493.378 346.633C503.828 346.633 503.862 363.541 493.378 363.541C482.927 363.541 482.893 346.633 493.378 346.633Z" fill="#F9F0B9"/>
<path d="M231.887 324.893C243.168 324.893 243.168 343.009 231.887 343.009C220.64 343.009 220.606 324.893 231.887 324.893Z" fill="#F9F0B9"/>
<path d="M154.093 287.047C154.196 287.047 154.266 287.047 154.335 287.047C155.027 287.215 155.685 287.418 156.412 287.62C156.066 288.902 155.754 290.117 155.408 291.365C155.443 291.399 155.477 291.432 155.512 291.432C156.689 290.758 157.9 290.117 159.146 289.408C159.562 290.083 159.942 290.758 160.392 291.466C159.285 292.073 158.177 292.714 157.069 293.288C156.896 293.389 156.758 293.423 156.793 293.693C158.039 294.03 159.319 294.367 160.6 294.705C160.392 295.481 160.185 296.223 159.977 296.999C159.216 296.796 158.489 296.628 157.796 296.425C156.516 296.088 155.2 295.751 153.92 295.38C153.677 295.312 153.47 295.346 153.262 295.481C151.774 296.324 150.285 297.168 148.797 298.045C148.035 298.483 147.308 298.888 146.547 299.293C146.478 299.327 146.408 299.394 146.201 299.563C146.339 299.63 146.443 299.664 146.547 299.732C147.828 300.44 149.108 301.149 150.389 301.891C151.323 302.431 152.293 302.97 153.227 303.51C153.504 303.679 153.712 303.679 154.023 303.611C155.927 303.072 157.866 302.599 159.804 302.093C159.873 302.093 159.908 302.093 160.012 302.059C160.219 302.802 160.427 303.51 160.635 304.32C159.354 304.657 158.108 304.995 156.862 305.298C156.792 305.534 156.896 305.602 157.069 305.703C158.177 306.31 159.285 306.918 160.392 307.525C159.977 308.233 159.596 308.874 159.181 309.583C157.935 308.908 156.758 308.166 155.512 307.559C155.477 307.592 155.443 307.626 155.408 307.66C155.754 308.874 156.066 310.089 156.412 311.405C155.65 311.607 154.889 311.809 154.093 312.046C153.92 311.405 153.747 310.831 153.573 310.224C153.193 308.841 152.812 307.424 152.431 306.04C152.362 305.872 152.154 305.703 151.981 305.568C149.974 304.421 147.931 303.274 145.924 302.127C145.751 302.026 145.578 301.924 145.37 301.823C145.231 301.756 145.093 301.756 144.92 301.688C144.92 302.026 144.92 302.296 144.92 302.599C144.92 304.86 144.92 307.154 144.92 309.414C144.92 309.785 145.024 310.055 145.301 310.291C146.616 311.539 147.897 312.788 149.177 314.07C149.316 314.205 149.454 314.34 149.558 314.475C149.351 314.879 148.52 315.723 147.862 316.195C147.031 315.385 146.201 314.576 145.37 313.8C145.231 313.665 145.162 313.53 144.885 313.699C144.885 314.981 144.885 316.296 144.885 317.646C144.055 317.646 143.293 317.646 142.497 317.646C142.497 316.296 142.532 314.947 142.497 313.462C142.255 313.631 142.082 313.699 141.978 313.8C141.216 314.542 140.489 315.251 139.762 315.993C139.693 316.06 139.589 316.128 139.555 316.161C139.001 315.588 138.447 315.048 137.859 314.475C138.343 313.969 138.897 313.462 139.416 312.923C140.351 312.012 141.32 311.101 142.255 310.156C142.393 310.021 142.497 309.751 142.497 309.549C142.497 307.086 142.497 304.59 142.497 302.127C142.497 301.992 142.462 301.857 142.428 301.621C141.909 301.924 141.459 302.161 141.009 302.431C139.278 303.409 137.547 304.387 135.816 305.332C135.297 305.602 134.986 305.939 134.847 306.546C134.467 308.166 133.982 309.785 133.532 311.371C133.463 311.573 133.393 311.742 133.29 312.012C132.528 311.809 131.767 311.607 131.005 311.405C131.317 310.123 131.732 308.908 132.009 307.66C131.974 307.626 131.94 307.592 131.905 307.559C130.728 308.233 129.517 308.908 128.271 309.583C127.855 308.942 127.474 308.267 127.059 307.592C127.163 307.491 127.267 307.39 127.371 307.322C128.374 306.749 129.378 306.209 130.382 305.669C130.555 305.568 130.659 305.467 130.555 305.264C129.309 304.927 128.098 304.623 126.817 304.286C127.024 303.51 127.198 302.802 127.405 302.026C127.821 302.127 128.236 302.194 128.617 302.296C130.105 302.667 131.593 303.072 133.047 303.443C133.151 303.476 133.29 303.476 133.393 303.544C133.67 303.679 133.913 303.611 134.155 303.476C136.336 302.262 138.516 301.014 140.697 299.799C140.835 299.698 140.974 299.597 141.216 299.428C140.489 298.989 139.832 298.618 139.174 298.247C137.547 297.303 135.886 296.392 134.224 295.481C133.947 295.312 133.705 295.312 133.393 295.38C131.49 295.919 129.551 296.392 127.613 296.898C127.544 296.898 127.509 296.898 127.405 296.931C127.198 296.189 127.024 295.447 126.817 294.671C128.098 294.334 129.344 293.996 130.59 293.659C130.624 293.355 130.451 293.355 130.278 293.254C129.205 292.681 128.167 292.073 127.059 291.432C127.474 290.724 127.855 290.049 128.271 289.374C129.517 290.049 130.694 290.724 131.974 291.466C131.974 291.264 132.009 291.129 131.974 291.028C131.697 290.049 131.42 289.071 131.144 288.092C131.109 287.957 131.109 287.789 131.074 287.586C131.836 287.384 132.563 287.181 133.359 286.979C133.567 287.755 133.774 288.464 133.982 289.206C134.328 290.42 134.674 291.668 134.986 292.883C135.09 293.254 135.366 293.389 135.643 293.558C137.097 294.367 138.586 295.177 140.039 296.021C140.697 296.392 141.32 296.763 141.978 297.134C142.116 297.201 142.289 297.269 142.462 297.37C142.497 297.201 142.566 297.1 142.566 296.999C142.566 295.245 142.566 293.49 142.566 291.702C142.566 290.926 142.566 290.117 142.532 289.341C142.532 289.172 142.428 288.97 142.324 288.868C141.32 287.856 140.282 286.844 139.243 285.866C138.793 285.427 138.343 284.955 137.859 284.483C138.412 283.909 138.966 283.369 139.555 282.796C140.524 283.74 141.459 284.651 142.393 285.562C142.67 285.393 142.566 285.157 142.566 284.955C142.566 283.808 142.566 282.627 142.566 281.412C143.328 281.412 144.124 281.412 144.92 281.412C144.92 282.728 144.92 284.044 144.92 285.36C145.128 285.562 145.266 285.427 145.404 285.259C146.131 284.55 146.858 283.842 147.551 283.133C147.654 283.032 147.758 282.931 147.862 282.829C148.416 283.369 148.97 283.909 149.558 284.483C149.489 284.584 149.42 284.685 149.316 284.786C147.931 286.136 146.581 287.451 145.197 288.801C145.024 288.97 144.954 289.105 144.954 289.341C144.954 291.905 144.954 294.435 144.954 296.999C144.954 297.066 144.989 297.134 145.024 297.303C145.197 297.235 145.37 297.235 145.508 297.134C147.689 295.919 149.835 294.671 152.016 293.457C152.327 293.288 152.466 293.052 152.57 292.714C153.054 290.926 153.539 289.172 154.023 287.418C153.989 287.316 154.023 287.182 154.093 287.047Z" fill="#F9F0B9"/>
<path d="M451.206 220.619C451.31 220.619 451.379 220.619 451.448 220.619C452.141 220.787 452.798 220.99 453.525 221.192C453.179 222.474 452.868 223.689 452.522 224.937C452.556 224.971 452.591 225.004 452.625 225.004C453.802 224.33 455.014 223.689 456.26 222.98C456.675 223.655 457.056 224.33 457.506 225.038C456.398 225.645 455.291 226.286 454.183 226.86C454.01 226.961 453.871 226.995 453.906 227.265C455.152 227.602 456.433 227.94 457.714 228.277C457.506 229.053 457.298 229.795 457.091 230.571C456.329 230.369 455.602 230.2 454.91 229.998C453.629 229.66 452.314 229.323 451.033 228.952C450.791 228.884 450.583 228.918 450.375 229.053C448.887 229.896 447.399 230.74 445.91 231.617C445.149 232.055 444.422 232.46 443.66 232.865C443.591 232.899 443.522 232.966 443.314 233.135C443.453 233.203 443.557 233.236 443.66 233.304C444.941 234.012 446.222 234.721 447.503 235.463C448.437 236.003 449.406 236.542 450.341 237.082C450.618 237.251 450.825 237.251 451.137 237.183C453.041 236.644 454.979 236.171 456.917 235.665C456.987 235.665 457.021 235.665 457.125 235.632C457.333 236.374 457.541 237.082 457.748 237.892C456.468 238.229 455.221 238.567 453.975 238.87C453.906 239.106 454.01 239.174 454.183 239.275C455.291 239.882 456.398 240.49 457.506 241.097C457.091 241.805 456.71 242.446 456.294 243.155C455.048 242.48 453.871 241.738 452.625 241.131C452.591 241.164 452.556 241.198 452.522 241.232C452.868 242.446 453.179 243.661 453.525 244.977C452.764 245.179 452.002 245.382 451.206 245.618C451.033 244.977 450.86 244.403 450.687 243.796C450.306 242.413 449.926 240.996 449.545 239.613C449.476 239.444 449.268 239.275 449.095 239.14C447.087 237.993 445.045 236.846 443.037 235.699C442.864 235.598 442.691 235.497 442.484 235.395C442.345 235.328 442.207 235.328 442.034 235.26C442.034 235.598 442.034 235.868 442.034 236.171C442.034 238.432 442.034 240.726 442.034 242.986C442.034 243.357 442.137 243.627 442.414 243.863C443.73 245.112 445.01 246.36 446.291 247.642C446.43 247.777 446.568 247.912 446.672 248.047C446.464 248.452 445.633 249.295 444.976 249.767C444.145 248.958 443.314 248.148 442.484 247.372C442.345 247.237 442.276 247.102 441.999 247.271C441.999 248.553 441.999 249.869 441.999 251.218C441.168 251.218 440.407 251.218 439.61 251.218C439.61 249.869 439.645 248.519 439.61 247.035C439.368 247.203 439.195 247.271 439.091 247.372C438.33 248.114 437.603 248.823 436.876 249.565C436.807 249.632 436.703 249.7 436.668 249.734C436.115 249.16 435.561 248.62 434.972 248.047C435.457 247.541 436.011 247.035 436.53 246.495C437.464 245.584 438.434 244.673 439.368 243.728C439.507 243.593 439.61 243.324 439.61 243.121C439.61 240.658 439.61 238.162 439.61 235.699C439.61 235.564 439.576 235.429 439.541 235.193C439.022 235.497 438.572 235.733 438.122 236.003C436.391 236.981 434.661 237.959 432.93 238.904C432.411 239.174 432.099 239.511 431.961 240.119C431.58 241.738 431.095 243.357 430.646 244.943C430.576 245.145 430.507 245.314 430.403 245.584C429.642 245.382 428.88 245.179 428.119 244.977C428.43 243.695 428.846 242.48 429.122 241.232C429.088 241.198 429.053 241.164 429.019 241.131C427.842 241.805 426.63 242.48 425.384 243.155C424.969 242.514 424.588 241.839 424.173 241.164C424.277 241.063 424.38 240.962 424.484 240.895C425.488 240.321 426.492 239.781 427.496 239.241C427.669 239.14 427.773 239.039 427.669 238.837C426.423 238.499 425.211 238.196 423.93 237.858C424.138 237.082 424.311 236.374 424.519 235.598C424.934 235.699 425.35 235.767 425.73 235.868C427.219 236.239 428.707 236.644 430.161 237.015C430.265 237.049 430.403 237.049 430.507 237.116C430.784 237.251 431.026 237.183 431.269 237.049C433.449 235.834 435.63 234.586 437.811 233.371C437.949 233.27 438.088 233.169 438.33 233C437.603 232.562 436.945 232.19 436.288 231.819C434.661 230.875 432.999 229.964 431.338 229.053C431.061 228.884 430.819 228.884 430.507 228.952C428.603 229.491 426.665 229.964 424.727 230.47C424.657 230.47 424.623 230.47 424.519 230.504C424.311 229.761 424.138 229.019 423.93 228.243C425.211 227.906 426.457 227.568 427.703 227.231C427.738 226.927 427.565 226.927 427.392 226.826C426.319 226.253 425.28 225.645 424.173 225.004C424.588 224.296 424.969 223.621 425.384 222.947C426.63 223.621 427.807 224.296 429.088 225.038C429.088 224.836 429.123 224.701 429.088 224.6C428.811 223.621 428.534 222.643 428.257 221.665C428.223 221.53 428.223 221.361 428.188 221.158C428.949 220.956 429.676 220.754 430.472 220.551C430.68 221.327 430.888 222.036 431.096 222.778C431.442 223.992 431.788 225.241 432.099 226.455C432.203 226.826 432.48 226.961 432.757 227.13C434.211 227.94 435.699 228.749 437.153 229.593C437.811 229.964 438.434 230.335 439.091 230.706C439.23 230.773 439.403 230.841 439.576 230.942C439.611 230.773 439.68 230.672 439.68 230.571C439.68 228.817 439.68 227.062 439.68 225.274C439.68 224.498 439.68 223.689 439.645 222.913C439.645 222.744 439.541 222.542 439.437 222.44C438.434 221.428 437.395 220.416 436.357 219.438C435.907 218.999 435.457 218.527 434.972 218.055C435.526 217.481 436.08 216.941 436.668 216.368C437.638 217.312 438.572 218.223 439.507 219.134C439.784 218.966 439.68 218.729 439.68 218.527C439.68 217.38 439.68 216.199 439.68 214.985C440.441 214.985 441.237 214.985 442.034 214.985C442.034 216.3 442.034 217.616 442.034 218.932C442.241 219.134 442.38 218.999 442.518 218.831C443.245 218.122 443.972 217.414 444.664 216.705C444.768 216.604 444.872 216.503 444.976 216.402C445.53 216.941 446.083 217.481 446.672 218.055C446.603 218.156 446.533 218.257 446.429 218.358C445.045 219.708 443.695 221.024 442.31 222.373C442.137 222.542 442.068 222.677 442.068 222.913C442.068 225.477 442.068 228.007 442.068 230.571C442.068 230.639 442.103 230.706 442.137 230.875C442.31 230.807 442.484 230.807 442.622 230.706C444.803 229.491 446.949 228.243 449.129 227.029C449.441 226.86 449.579 226.624 449.683 226.286C450.168 224.498 450.652 222.744 451.137 220.99C451.102 220.855 451.137 220.754 451.206 220.619Z" fill="#F2DCDB"/>
<path d="M154.093 459.947C154.196 459.947 154.266 459.947 154.335 459.947C155.027 460.121 155.685 460.33 156.412 460.539C156.066 461.864 155.754 463.119 155.408 464.409C155.442 464.444 155.477 464.479 155.512 464.479C156.689 463.781 157.9 463.119 159.146 462.387C159.562 463.084 159.942 463.781 160.392 464.514C159.285 465.141 158.177 465.803 157.069 466.396C156.896 466.501 156.758 466.536 156.792 466.814C158.039 467.163 159.319 467.512 160.6 467.86C160.392 468.662 160.185 469.429 159.977 470.231C159.215 470.022 158.489 469.847 157.796 469.638C156.516 469.29 155.2 468.941 153.919 468.557C153.677 468.488 153.47 468.523 153.262 468.662C151.773 469.534 150.285 470.405 148.797 471.312C148.035 471.765 147.308 472.183 146.547 472.601C146.477 472.636 146.408 472.706 146.201 472.88C146.339 472.95 146.443 472.985 146.547 473.055C147.827 473.787 149.108 474.519 150.389 475.286C151.323 475.844 152.293 476.401 153.227 476.959C153.504 477.133 153.712 477.133 154.023 477.064C155.927 476.506 157.866 476.018 159.804 475.495C159.873 475.495 159.908 475.495 160.012 475.46C160.219 476.227 160.427 476.959 160.635 477.796C159.354 478.144 158.108 478.493 156.862 478.807C156.792 479.051 156.896 479.12 157.069 479.225C158.177 479.853 159.285 480.48 160.392 481.108C159.977 481.84 159.596 482.502 159.181 483.234C157.935 482.537 156.758 481.77 155.512 481.142C155.477 481.177 155.442 481.212 155.408 481.247C155.754 482.502 156.066 483.757 156.412 485.117C155.65 485.326 154.889 485.535 154.093 485.779C153.919 485.117 153.746 484.524 153.573 483.897C153.193 482.467 152.812 481.003 152.431 479.574C152.362 479.399 152.154 479.225 151.981 479.086C149.974 477.9 147.931 476.715 145.924 475.53C145.751 475.425 145.578 475.321 145.37 475.216C145.231 475.146 145.093 475.146 144.92 475.077C144.92 475.425 144.92 475.704 144.92 476.018C144.92 478.354 144.92 480.724 144.92 483.06C144.92 483.443 145.024 483.722 145.301 483.966C146.616 485.256 147.897 486.546 149.177 487.871C149.316 488.01 149.454 488.15 149.558 488.289C149.35 488.707 148.52 489.579 147.862 490.067C147.031 489.23 146.201 488.394 145.37 487.592C145.231 487.452 145.162 487.313 144.885 487.487C144.885 488.812 144.885 490.172 144.885 491.566C144.055 491.566 143.293 491.566 142.497 491.566C142.497 490.172 142.532 488.777 142.497 487.243C142.255 487.417 142.081 487.487 141.978 487.592C141.216 488.359 140.489 489.091 139.762 489.858C139.693 489.928 139.589 489.997 139.555 490.032C139.001 489.439 138.447 488.882 137.859 488.289C138.343 487.766 138.897 487.243 139.416 486.685C140.351 485.744 141.32 484.803 142.255 483.827C142.393 483.687 142.497 483.408 142.497 483.199C142.497 480.654 142.497 478.075 142.497 475.53C142.497 475.39 142.462 475.251 142.428 475.007C141.908 475.321 141.458 475.565 141.008 475.844C139.278 476.854 137.547 477.865 135.816 478.842C135.297 479.12 134.986 479.469 134.847 480.097C134.466 481.77 133.982 483.443 133.532 485.082C133.463 485.291 133.393 485.465 133.29 485.744C132.528 485.535 131.767 485.326 131.005 485.117C131.317 483.792 131.732 482.537 132.009 481.247C131.974 481.212 131.94 481.177 131.905 481.142C130.728 481.84 129.517 482.537 128.271 483.234C127.855 482.572 127.474 481.875 127.059 481.177C127.163 481.073 127.267 480.968 127.371 480.898C128.374 480.306 129.378 479.748 130.382 479.19C130.555 479.086 130.659 478.981 130.555 478.772C129.309 478.423 128.098 478.11 126.817 477.761C127.024 476.959 127.197 476.227 127.405 475.425C127.821 475.53 128.236 475.6 128.617 475.704C130.105 476.088 131.593 476.506 133.047 476.889C133.151 476.924 133.29 476.924 133.393 476.994C133.67 477.133 133.913 477.064 134.155 476.924C136.336 475.669 138.516 474.379 140.697 473.124C140.835 473.02 140.974 472.915 141.216 472.741C140.489 472.288 139.832 471.904 139.174 471.521C137.547 470.545 135.886 469.603 134.224 468.662C133.947 468.488 133.705 468.488 133.393 468.557C131.49 469.115 129.551 469.603 127.613 470.126C127.544 470.126 127.509 470.126 127.405 470.161C127.197 469.394 127.024 468.627 126.817 467.825C128.098 467.477 129.344 467.128 130.59 466.78C130.624 466.466 130.451 466.431 130.278 466.361C129.205 465.769 128.167 465.141 127.059 464.479C127.474 463.747 127.855 463.049 128.271 462.352C129.517 463.049 130.694 463.747 131.974 464.514C131.974 464.304 132.009 464.165 131.974 464.06C131.697 463.049 131.42 462.038 131.144 461.027C131.109 460.888 131.109 460.714 131.074 460.505C131.836 460.295 132.563 460.086 133.359 459.877C133.566 460.679 133.774 461.411 133.982 462.178C134.328 463.433 134.674 464.723 134.986 465.978C135.089 466.361 135.366 466.501 135.643 466.675C137.097 467.512 138.585 468.348 140.039 469.22C140.697 469.603 141.32 469.987 141.978 470.37C142.116 470.44 142.289 470.51 142.462 470.614C142.497 470.44 142.566 470.335 142.566 470.231C142.566 468.418 142.566 466.605 142.566 464.758C142.566 463.956 142.566 463.119 142.531 462.317C142.531 462.143 142.428 461.934 142.324 461.829C141.32 460.783 140.282 459.738 139.243 458.727C138.793 458.273 138.343 457.785 137.859 457.297C138.412 456.705 138.966 456.147 139.555 455.554C140.524 456.53 141.459 457.472 142.393 458.413C142.67 458.239 142.566 457.995 142.566 457.785C142.566 456.6 142.566 455.38 142.566 454.125C143.328 454.125 144.124 454.125 144.92 454.125C144.92 455.484 144.92 456.844 144.92 458.204C145.128 458.413 145.266 458.273 145.404 458.099C146.131 457.367 146.858 456.635 147.551 455.903C147.654 455.798 147.758 455.694 147.862 455.589C148.416 456.147 148.97 456.705 149.558 457.297C149.489 457.402 149.42 457.506 149.316 457.611C147.931 459.005 146.581 460.365 145.197 461.76C145.024 461.934 144.954 462.073 144.954 462.317C144.954 464.967 144.954 467.581 144.954 470.231C144.954 470.301 144.989 470.37 145.024 470.545C145.197 470.475 145.37 470.475 145.508 470.37C147.689 469.115 149.835 467.825 152.016 466.57C152.327 466.396 152.466 466.152 152.57 465.803C153.054 463.956 153.539 462.143 154.023 460.33C154.023 460.226 154.058 460.086 154.093 459.947Z" fill="#F2DCDB"/>
<path d="M346.129 463.382C346.233 463.382 346.303 463.382 346.372 463.382C347.064 463.551 347.722 463.753 348.449 463.956C348.102 465.238 347.791 466.452 347.445 467.701C347.479 467.734 347.514 467.768 347.549 467.768C348.726 467.093 349.937 466.452 351.183 465.744C351.598 466.419 351.979 467.093 352.429 467.802C351.322 468.409 350.214 469.05 349.106 469.624C348.933 469.725 348.795 469.759 348.829 470.028C350.075 470.366 351.356 470.703 352.637 471.041C352.429 471.816 352.221 472.559 352.014 473.335C351.252 473.132 350.525 472.964 349.833 472.761C348.552 472.424 347.237 472.086 345.956 471.715C345.714 471.648 345.506 471.682 345.299 471.817C343.81 472.66 342.322 473.503 340.834 474.38C340.072 474.819 339.345 475.224 338.584 475.629C338.514 475.662 338.445 475.73 338.237 475.899C338.376 475.966 338.48 476 338.584 476.067C339.864 476.776 341.145 477.484 342.426 478.226C343.36 478.766 344.33 479.306 345.264 479.846C345.541 480.015 345.749 480.015 346.06 479.947C347.964 479.407 349.902 478.935 351.841 478.429C351.91 478.429 351.945 478.429 352.048 478.395C352.256 479.137 352.464 479.846 352.671 480.656C351.391 480.993 350.145 481.33 348.899 481.634C348.829 481.87 348.933 481.938 349.106 482.039C350.214 482.646 351.322 483.253 352.429 483.861C352.014 484.569 351.633 485.21 351.218 485.918C349.972 485.244 348.795 484.502 347.549 483.894C347.514 483.928 347.479 483.962 347.445 483.996C347.791 485.21 348.102 486.425 348.449 487.74C347.687 487.943 346.926 488.145 346.129 488.381C345.956 487.74 345.783 487.167 345.61 486.56C345.23 485.176 344.849 483.759 344.468 482.376C344.399 482.207 344.191 482.039 344.018 481.904C342.01 480.757 339.968 479.61 337.961 478.463C337.787 478.361 337.614 478.26 337.407 478.159C337.268 478.092 337.13 478.092 336.957 478.024C336.957 478.361 336.957 478.631 336.957 478.935C336.957 481.195 336.957 483.489 336.957 485.75C336.957 486.121 337.061 486.391 337.337 486.627C338.653 487.875 339.934 489.124 341.214 490.406C341.353 490.54 341.491 490.675 341.595 490.81C341.387 491.215 340.557 492.059 339.899 492.531C339.068 491.721 338.237 490.912 337.407 490.136C337.268 490.001 337.199 489.866 336.922 490.034C336.922 491.316 336.922 492.632 336.922 493.982C336.091 493.982 335.33 493.982 334.534 493.982C334.534 492.632 334.568 491.283 334.534 489.798C334.291 489.967 334.118 490.034 334.015 490.136C333.253 490.878 332.526 491.586 331.799 492.328C331.73 492.396 331.626 492.463 331.592 492.497C331.038 491.924 330.484 491.384 329.896 490.81C330.38 490.304 330.934 489.798 331.453 489.258C332.388 488.348 333.357 487.437 334.291 486.492C334.43 486.357 334.534 486.087 334.534 485.885C334.534 483.422 334.534 480.925 334.534 478.463C334.534 478.328 334.499 478.193 334.465 477.957C333.945 478.26 333.495 478.496 333.045 478.766C331.315 479.745 329.584 480.723 327.853 481.668C327.334 481.938 327.023 482.275 326.884 482.882C326.503 484.502 326.019 486.121 325.569 487.707C325.5 487.909 325.43 488.078 325.326 488.348C324.565 488.145 323.803 487.943 323.042 487.74C323.353 486.458 323.769 485.244 324.046 483.996C324.011 483.962 323.977 483.928 323.942 483.894C322.765 484.569 321.553 485.244 320.307 485.918C319.892 485.277 319.511 484.603 319.096 483.928C319.2 483.827 319.304 483.726 319.407 483.658C320.411 483.085 321.415 482.545 322.419 482.005C322.592 481.904 322.696 481.803 322.592 481.6C321.346 481.263 320.134 480.959 318.854 480.622C319.061 479.846 319.234 479.137 319.442 478.361C319.857 478.463 320.273 478.53 320.654 478.631C322.142 479.002 323.63 479.407 325.084 479.778C325.188 479.812 325.326 479.812 325.43 479.88C325.707 480.015 325.949 479.947 326.192 479.812C328.372 478.598 330.553 477.349 332.734 476.135C332.872 476.034 333.011 475.932 333.253 475.764C332.526 475.325 331.869 474.954 331.211 474.583C329.584 473.638 327.922 472.727 326.261 471.817C325.984 471.648 325.742 471.648 325.43 471.715C323.527 472.255 321.588 472.727 319.65 473.233C319.581 473.233 319.546 473.233 319.442 473.267C319.234 472.525 319.061 471.783 318.854 471.007C320.134 470.669 321.38 470.332 322.627 469.995C322.661 469.691 322.488 469.657 322.315 469.59C321.242 469.016 320.204 468.409 319.096 467.768C319.511 467.06 319.892 466.385 320.307 465.71C321.553 466.385 322.73 467.06 324.011 467.802C324.011 467.599 324.046 467.464 324.011 467.363C323.734 466.385 323.457 465.407 323.18 464.428C323.146 464.293 323.146 464.125 323.111 463.922C323.873 463.72 324.6 463.517 325.396 463.315C325.603 464.091 325.811 464.799 326.019 465.541C326.365 466.756 326.711 468.004 327.022 469.219C327.126 469.59 327.403 469.725 327.68 469.893C329.134 470.703 330.622 471.513 332.076 472.356C332.734 472.727 333.357 473.098 334.015 473.47C334.153 473.537 334.326 473.605 334.499 473.706C334.534 473.537 334.603 473.436 334.603 473.335C334.603 471.58 334.603 469.826 334.603 468.038C334.603 467.262 334.603 466.452 334.568 465.676C334.568 465.508 334.465 465.305 334.361 465.204C333.357 464.192 332.318 463.18 331.28 462.201C330.83 461.763 330.38 461.291 329.896 460.818C330.449 460.245 331.003 459.705 331.592 459.131C332.561 460.076 333.495 460.987 334.43 461.898C334.707 461.729 334.603 461.493 334.603 461.291C334.603 460.144 334.603 458.963 334.603 457.748C335.364 457.748 336.161 457.748 336.957 457.748C336.957 459.064 336.957 460.38 336.957 461.695C337.164 461.898 337.303 461.763 337.441 461.594C338.168 460.886 338.895 460.177 339.587 459.469C339.691 459.368 339.795 459.266 339.899 459.165C340.453 459.705 341.007 460.245 341.595 460.818C341.526 460.919 341.457 461.021 341.353 461.122C339.968 462.471 338.618 463.787 337.234 465.137C337.061 465.305 336.991 465.44 336.991 465.676C336.991 468.24 336.991 470.771 336.991 473.335C336.991 473.402 337.026 473.47 337.061 473.638C337.234 473.571 337.407 473.571 337.545 473.47C339.726 472.255 341.872 471.007 344.053 469.792C344.364 469.624 344.503 469.387 344.606 469.05C345.091 467.262 345.576 465.508 346.06 463.753C346.026 463.652 346.095 463.517 346.129 463.382Z" fill="#F9F0B9"/>
<path d="M494.686 673.536C494.79 673.536 494.859 673.536 494.929 673.536C495.621 673.704 496.278 673.907 497.005 674.109C496.659 675.391 496.348 676.606 496.002 677.854C496.036 677.888 496.071 677.922 496.105 677.922C497.282 677.247 498.494 676.606 499.74 675.897C500.155 676.572 500.536 677.247 500.986 677.955C499.878 678.563 498.771 679.204 497.663 679.777C497.49 679.878 497.351 679.912 497.386 680.182C498.632 680.519 499.913 680.857 501.194 681.194C500.986 681.97 500.778 682.712 500.571 683.488C499.809 683.286 499.082 683.117 498.39 682.915C497.109 682.577 495.794 682.24 494.513 681.869C494.271 681.801 494.063 681.835 493.856 681.97C492.367 682.813 490.879 683.657 489.39 684.534C488.629 684.973 487.902 685.377 487.14 685.782C487.071 685.816 487.002 685.883 486.794 686.052C486.933 686.12 487.037 686.153 487.14 686.221C488.421 686.929 489.702 687.638 490.983 688.38C491.917 688.92 492.886 689.46 493.821 689.999C494.098 690.168 494.305 690.168 494.617 690.101C496.521 689.561 498.459 689.088 500.398 688.582C500.467 688.582 500.501 688.582 500.605 688.549C500.813 689.291 501.021 689.999 501.228 690.809C499.948 691.146 498.701 691.484 497.455 691.787C497.386 692.024 497.49 692.091 497.663 692.192C498.771 692.8 499.878 693.407 500.986 694.014C500.571 694.723 500.19 695.364 499.774 696.072C498.528 695.397 497.351 694.655 496.105 694.048C496.071 694.082 496.036 694.115 496.002 694.149C496.348 695.364 496.659 696.578 497.005 697.894C496.244 698.096 495.482 698.299 494.686 698.535C494.513 697.894 494.34 697.32 494.167 696.713C493.786 695.33 493.406 693.913 493.025 692.53C492.956 692.361 492.748 692.192 492.575 692.057C490.567 690.91 488.525 689.763 486.517 688.616C486.344 688.515 486.171 688.414 485.964 688.312C485.825 688.245 485.687 688.245 485.514 688.178C485.514 688.515 485.514 688.785 485.514 689.088C485.514 691.349 485.514 693.643 485.514 695.903C485.514 696.274 485.617 696.544 485.894 696.78C487.21 698.029 488.49 699.277 489.771 700.559C489.91 700.694 490.048 700.829 490.152 700.964C489.944 701.369 489.113 702.212 488.456 702.684C487.625 701.875 486.794 701.065 485.964 700.289C485.825 700.154 485.756 700.019 485.479 700.188C485.479 701.47 485.479 702.786 485.479 704.135C484.648 704.135 483.887 704.135 483.091 704.135C483.091 702.786 483.125 701.436 483.091 699.952C482.848 700.12 482.675 700.188 482.571 700.289C481.81 701.031 481.083 701.74 480.356 702.482C480.287 702.55 480.183 702.617 480.148 702.651C479.595 702.077 479.041 701.537 478.452 700.964C478.937 700.458 479.491 699.952 480.01 699.412C480.945 698.501 481.914 697.59 482.848 696.646C482.987 696.511 483.091 696.241 483.091 696.038C483.091 693.575 483.091 691.079 483.091 688.616C483.091 688.481 483.056 688.346 483.021 688.11C482.502 688.414 482.052 688.65 481.602 688.92C479.871 689.898 478.141 690.877 476.41 691.821C475.891 692.091 475.579 692.428 475.441 693.036C475.06 694.655 474.576 696.274 474.126 697.86C474.056 698.062 473.987 698.231 473.883 698.501C473.122 698.299 472.36 698.096 471.599 697.894C471.91 696.612 472.326 695.397 472.603 694.149C472.568 694.115 472.533 694.082 472.499 694.048C471.322 694.723 470.11 695.397 468.864 696.072C468.449 695.431 468.068 694.756 467.653 694.082C467.757 693.98 467.86 693.879 467.964 693.812C468.968 693.238 469.972 692.698 470.976 692.159C471.149 692.057 471.253 691.956 471.149 691.754C469.903 691.416 468.691 691.113 467.41 690.775C467.618 689.999 467.791 689.291 467.999 688.515C468.414 688.616 468.83 688.684 469.21 688.785C470.699 689.156 472.187 689.561 473.641 689.932C473.745 689.966 473.883 689.966 473.987 690.033C474.264 690.168 474.506 690.101 474.749 689.966C476.929 688.751 479.11 687.503 481.291 686.288C481.429 686.187 481.568 686.086 481.81 685.917C481.083 685.479 480.425 685.108 479.768 684.736C478.141 683.792 476.479 682.881 474.818 681.97C474.541 681.801 474.299 681.801 473.987 681.869C472.083 682.409 470.145 682.881 468.207 683.387C468.137 683.387 468.103 683.387 467.999 683.421C467.791 682.678 467.618 681.936 467.41 681.16C468.691 680.823 469.937 680.486 471.183 680.148C471.218 679.845 471.045 679.845 470.872 679.743C469.799 679.17 468.76 678.563 467.653 677.922C468.068 677.213 468.449 676.538 468.864 675.864C470.11 676.538 471.287 677.213 472.568 677.955C472.568 677.753 472.603 677.618 472.568 677.517C472.291 676.538 472.014 675.56 471.737 674.582C471.703 674.447 471.703 674.278 471.668 674.076C472.43 673.873 473.156 673.671 473.953 673.468C474.16 674.244 474.368 674.953 474.576 675.695C474.922 676.909 475.268 678.158 475.579 679.372C475.683 679.743 475.96 679.878 476.237 680.047C477.691 680.857 479.179 681.666 480.633 682.51C481.291 682.881 481.914 683.252 482.571 683.623C482.71 683.691 482.883 683.758 483.056 683.859C483.091 683.691 483.16 683.589 483.16 683.488C483.16 681.734 483.16 679.979 483.16 678.191C483.16 677.415 483.16 676.606 483.125 675.83C483.125 675.661 483.021 675.459 482.918 675.358C481.914 674.345 480.875 673.333 479.837 672.355C479.387 671.916 478.937 671.444 478.452 670.972C479.006 670.398 479.56 669.858 480.148 669.285C481.118 670.23 482.052 671.14 482.987 672.051C483.264 671.883 483.16 671.646 483.16 671.444C483.16 670.297 483.16 669.116 483.16 667.902C483.921 667.902 484.717 667.902 485.514 667.902C485.514 669.217 485.514 670.533 485.514 671.849C485.721 672.051 485.86 671.916 485.998 671.748C486.725 671.039 487.452 670.331 488.144 669.622C488.248 669.521 488.352 669.42 488.456 669.319C489.01 669.858 489.563 670.398 490.152 670.972C490.083 671.073 490.013 671.174 489.909 671.275C488.525 672.625 487.175 673.941 485.791 675.29C485.617 675.459 485.548 675.594 485.548 675.83C485.548 678.394 485.548 680.924 485.548 683.488C485.548 683.556 485.583 683.623 485.617 683.792C485.79 683.724 485.964 683.724 486.102 683.623C488.283 682.409 490.429 681.16 492.609 679.946C492.921 679.777 493.059 679.541 493.163 679.204C493.648 677.416 494.132 675.661 494.617 673.907C494.617 673.806 494.652 673.671 494.686 673.536Z" fill="#F9F0B9"/>
<path d="M461.227 124.143L432.431 0L405.656 124.143H430.006V139.669H434.822V124.143H461.227Z" fill="#D7E8E6"/>
</g>
</svg>
