<svg width="1431" height="1389" viewBox="0 0 1431 1389" fill="none" xmlns="http://www.w3.org/2000/svg">
<path d="M414.14 1388.28C975.339 1388.28 1430.28 933.339 1430.28 372.14C1430.28 -189.059 975.339 -644 414.14 -644C-147.059 -644 -602 -189.059 -602 372.14C-602 933.339 -147.059 1388.28 414.14 1388.28Z" fill="#0895FF"/>
<path d="M417.28 1175.24C861.633 1175.24 1221.85 815.016 1221.85 370.662C1221.85 -73.691 861.633 -433.911 417.28 -433.911C-27.0737 -433.911 -387.293 -73.691 -387.293 370.662C-387.293 815.016 -27.0737 1175.24 417.28 1175.24Z" fill="#0686F9"/>
<path d="M417.187 1003.19C766.856 1003.19 1050.32 719.731 1050.32 370.062C1050.32 20.3937 766.856 -263.069 417.187 -263.069C67.5188 -263.069 -215.944 20.3937 -215.944 370.062C-215.944 719.731 67.5188 1003.19 417.187 1003.19Z" fill="#0883F2"/>
<path d="M416.795 849.135C681.214 849.135 895.568 634.781 895.568 370.362C895.568 105.943 681.214 -108.411 416.795 -108.411C152.376 -108.411 -61.9775 105.943 -61.9775 370.362C-61.9775 634.781 152.376 849.135 416.795 849.135Z" fill="#0673EA"/>
</svg>
