<svg width="273" height="267" viewBox="0 0 273 267" fill="none" xmlns="http://www.w3.org/2000/svg">
<path d="M238.09 66.9893C238.875 67.2413 239.396 67.2355 239.816 67.5437C244.121 70.3116 248.532 73.2868 253.1 76.3125C247.822 84.6627 242.594 92.8559 237.366 101.049C237.629 101.307 237.842 101.722 237.949 101.929C247.829 99.733 257.659 97.6939 268.217 95.5424C269.479 101.317 270.791 106.934 272.109 113.072C262.8 115.106 253.699 117.032 244.648 118.802C243.348 119.077 242.098 119.195 241.701 120.973C249.732 126.15 257.871 131.535 266.059 136.762C262.675 141.91 259.548 146.795 256.214 151.786C251.333 148.659 246.714 145.791 242.146 142.765C233.851 137.33 225.506 132.052 217.21 126.617C215.635 125.592 214.122 125.452 212.407 125.941C199.927 128.687 187.603 131.484 175.123 134.231C169.193 135.444 163.057 136.764 156.763 138.034C156.192 138.196 155.569 138.516 153.597 139.268C154.544 140.092 155.121 140.451 155.755 141.174C163.036 149.227 170.474 157.331 177.755 165.385C183.136 171.27 188.623 177.362 193.797 183.353C195.327 185.057 196.846 185.718 199.194 185.952C213.9 186.518 228.556 187.241 243.211 187.964C243.576 187.908 244.046 188.059 244.674 188.261C244.372 194.052 244.121 199.687 243.875 205.843C234.174 205.325 224.579 205.015 215.035 204.548C214.06 205.967 214.643 206.847 215.696 207.878C222.025 214.587 228.252 221.609 234.843 228.575C230.405 232.692 226.068 236.495 221.63 240.612C214.354 233.08 207.752 225.071 200.583 217.746C200.168 217.959 199.961 218.066 199.546 218.279C199.076 227.827 198.607 237.375 197.986 247.394C192.197 247.094 186.357 246.95 180.203 246.706C180.41 241.75 180.516 237.108 180.779 232.516C181.338 221.611 182.054 210.757 182.248 199.908C182.338 198.551 181.172 196.791 180.169 195.603C168.717 182.746 157.059 169.996 145.607 157.139C144.918 156.052 143.965 154.707 142.911 153.676C142.07 153.059 141.022 152.55 139.868 151.832C139.061 154.344 138.406 156.385 137.801 158.269C132.557 174.598 127.313 190.926 122.07 207.254C121.213 209.923 121.392 212.059 122.67 214.548C128.898 226.42 135.076 238.449 141.253 250.478C141.892 251.722 142.531 252.967 143.014 254.161C140.694 256.533 132.921 260.792 127.311 262.627C123.37 254.954 119.43 247.28 115.489 239.606C115.007 238.412 114.575 237.061 112.288 237.712C109.314 246.976 106.238 256.553 103.112 266.287C97.4627 264.473 92.1271 262.759 86.3207 260.894C89.4467 251.16 92.6792 241.634 95.9508 230.907C93.8212 231.609 92.5715 231.727 91.5347 232.26C84.6923 235.778 77.7994 239.453 70.9065 243.128C70.234 243.605 69.3485 243.667 68.9338 243.88C66.3215 238.538 63.6588 233.353 60.8895 227.961C65.5016 225.459 70.478 222.9 75.4543 220.341C84.1629 215.864 93.1854 211.487 101.944 206.853C103.239 206.056 104.578 204.581 105.082 203.011C110.987 185.163 116.684 167.422 122.275 149.473C122.628 148.374 122.617 147.332 122.807 145.661C118.436 146.335 114.535 147.161 110.792 148.037C96.4395 151.222 82.0871 154.406 67.6282 157.384C63.3634 158.266 60.2532 159.865 57.9503 163.801C51.5515 174.563 44.5249 185.123 37.6553 195.733C36.8877 197.045 35.8566 198.099 34.4165 199.888C29.5347 196.762 24.8099 193.686 19.7711 190.509C24.9429 181.952 30.5911 174.067 35.3985 165.565C35.1855 165.15 35.1294 164.786 34.866 164.528C24.9858 166.724 15.156 168.763 4.54721 171.072C3.23507 165.455 2.07987 159.888 0.661219 154.063C1.69796 153.53 2.52736 153.104 3.46326 152.885C11.8359 151.071 20.0013 149.363 28.3236 147.706C29.7807 147.481 30.6605 146.897 30.4865 145.283C22.8191 140.049 14.9443 134.923 6.75567 129.695C9.9327 124.654 13.0089 119.926 16.2363 114.728C19.0163 116.313 21.6394 117.848 24.212 119.54C33.6617 125.692 43.1619 131.688 52.7685 137.89C53.5028 138.299 54.237 138.708 54.9208 139.274C56.5014 140.821 58.3285 141.061 60.4076 140.517C78.4532 136.613 96.6557 132.76 114.752 128.699C116.052 128.424 117.245 127.941 119.011 127.295C114.633 122.599 110.99 118.311 107.139 114.131C97.8009 103.858 88.3058 93.5342 79.018 83.1042C77.4878 81.4005 75.8624 80.5321 73.4638 80.4546C58.7578 79.8886 44.1023 79.1656 29.4468 78.4426C29.0825 78.4988 28.6118 78.3477 27.984 78.1461C28.2859 72.3544 28.6944 66.7702 28.9402 60.6142C38.8487 61.0251 48.393 61.4922 57.7804 61.909C58.8001 59.8117 57.4382 59.2012 56.5413 58.2204C50.3701 51.5623 44.4062 44.7977 37.9715 37.8818C42.4096 33.7649 46.6404 29.7546 51.2355 25.688C58.3036 33.3269 65.2147 40.9153 72.4958 48.9689C73 47.3989 73.4594 46.5073 73.5546 45.6719C73.733 38.1086 74.1187 30.4388 74.3475 22.7186C74.4931 21.7262 74.846 20.6272 75.0364 18.9563C80.8257 19.2568 86.4581 19.5068 92.4548 19.7007C92.209 25.8567 91.9575 31.4913 91.7061 37.1259C91.2365 46.674 90.9239 56.2724 90.247 65.9271C90.068 68.6407 91.5982 70.3445 93.2853 72.0986C101.57 81.3404 110.062 90.4756 118.346 99.7174C122.04 103.848 125.734 107.978 129.478 111.952C130.218 112.882 131.215 113.549 132.426 114.631C133.042 113.789 133.765 113.156 134.017 112.371C138.101 99.6534 142.185 86.9363 146.269 74.2191C148.084 68.5671 149.899 62.915 151.401 57.1621C151.804 55.9061 151.63 54.2915 151.098 53.2545C146.198 43.7142 141.299 34.1739 136.399 24.6336C134.269 20.4857 132.032 16.1303 129.796 11.775C135.03 8.95282 140.214 6.28767 145.448 3.46551C150.235 12.277 154.708 20.9877 159.025 29.648C161.311 28.9967 161.238 27.0681 161.641 25.8121C164.314 17.491 167.036 9.01292 169.809 0.377813C175.302 2.14166 180.637 3.85512 186.287 5.66936C183.211 15.2465 180.237 24.5096 177.161 34.0867C178.327 35.8467 179.571 35.2071 181.23 34.3542C187.915 30.7858 194.55 27.3744 201.343 24.0134C202.379 23.4804 203.366 23.1043 204.195 22.6779C206.858 27.8629 209.52 33.0478 212.29 38.4401C211.617 38.917 210.687 39.6574 209.858 40.0838C197.052 46.5364 184.197 53.146 171.549 59.649C169.94 60.3448 169.01 61.0852 168.455 62.8123C162.556 81.1815 156.657 99.5507 150.758 117.92C150.607 118.391 150.562 119.069 150.366 120.219C151.773 120.151 153.079 120.397 154.172 120.228C172.217 116.325 190.313 112.264 208.516 108.411C211.116 107.86 212.719 106.643 214.103 104.49C221.482 92.8307 229.019 81.2222 236.555 69.6138C236.908 68.5148 237.474 67.8305 238.09 66.9893Z" fill="#F9F0B9" fill-opacity="0.3"/>
</svg>
