<svg width="241" height="628" viewBox="0 0 241 628" fill="none" xmlns="http://www.w3.org/2000/svg">
<path d="M155.574 395.734L130.702 320.93L107.617 395.734H128.618V405.098H132.786V395.734H155.574Z" fill="#D7E8E6"/>
<path d="M99.9694 206.375L99.1575 201.775H79.8339L78.9948 206.375H99.9694Z" fill="#F2DCDB"/>
<path d="M107.547 248.568H71.1192L70.2802 253.061L108.603 254.441L107.547 248.568Z" fill="#F2DCDB"/>
<path d="M101.025 212.248L100.808 211.03L100.457 208.974H78.5077L77.2628 215.523L101.025 212.248Z" fill="#F2DCDB"/>
<path d="M80.7811 196.768H98.2644L94.9896 178.527H84.1911L80.7811 196.768Z" fill="#F2DCDB"/>
<path d="M113.745 283.156L112.77 277.743L66.4912 273.359L63 292.033H86.6809V310.626H91.7959V291.14H115.179L113.745 283.156Z" fill="#F2DCDB"/>
<path opacity="0.75" d="M94.5295 175.983L94.1506 173.872L89.6851 149L84.6512 175.983H94.5295Z" fill="#F2DCDB"/>
<path d="M76.4509 219.989L71.7417 245.158H106.925L103.406 225.428L101.783 216.47L76.4509 219.989Z" fill="#F2DCDB"/>
<path d="M109.577 259.881L69.2789 258.419L67.2762 269.11L111.986 273.332L109.577 259.881Z" fill="#F2DCDB"/>
<g opacity="0.75">
<path opacity="0.75" d="M45.3862 53.2618L44.3848 49.0127H20.6769L19.6213 53.2618H45.3862Z" fill="#F2DCDB"/>
</g>
<g opacity="0.75">
<path opacity="0.75" d="M54.6691 92.4232H9.95953L8.93109 96.591L55.9681 97.863L54.6691 92.4232Z" fill="#F2DCDB"/>
</g>
<g opacity="0.75">
<path opacity="0.75" d="M46.6851 58.7016L46.4145 57.592L45.9544 55.6704H19.0258L17.5374 61.7869L46.6851 58.7016Z" fill="#F2DCDB"/>
</g>
<g opacity="0.75">
<path opacity="0.75" d="M21.8135 44.3577H43.2753L39.2698 27.4157H26.0085L21.8135 44.3577Z" fill="#F2DCDB"/>
</g>
<g opacity="0.75">
<path opacity="0.75" d="M62.2741 124.521L61.0832 119.514L4.27614 115.455L0 132.775H29.0937V150.042H35.3454V131.936H64.0332L62.2741 124.521Z" fill="#F2DCDB"/>
</g>
<g opacity="0.75">
<path opacity="0.75" d="M38.7014 25.0612L38.2413 23.0855L32.7744 0L26.5768 25.0612H38.7014Z" fill="#F2DCDB"/>
</g>
<g opacity="0.75">
<path opacity="0.75" d="M16.5089 65.9276L10.7443 89.2567H53.9384L49.581 70.9615L47.6053 62.6529L16.5089 65.9276Z" fill="#F2DCDB"/>
</g>
<g opacity="0.75">
<path opacity="0.75" d="M57.1589 102.924L7.71319 101.598L5.25037 111.503L60.1359 115.428L57.1589 102.924Z" fill="#F2DCDB"/>
</g>
<path d="M162.845 618.875L135.808 547.914L110.72 618.875H133.562V627.752H138.082V618.875H162.845Z" fill="#F9F0B9"/>
<path d="M215.594 408.74H201.168L200.573 412.177H216.243L215.594 408.74Z" fill="#F2DCDB"/>
<path d="M222.116 443.653H194.917L194.132 448.037L222.738 447.009L222.116 443.653Z" fill="#F2DCDB"/>
<path d="M216.595 414.099H200.221L199.924 415.642L199.788 416.562L217.515 419.025L216.595 414.099Z" fill="#F2DCDB"/>
<path d="M212.346 391.392H204.281L201.845 405.006H214.89L212.346 391.392Z" fill="#F2DCDB"/>
<path d="M225.58 462.191L191.02 465.439L190.289 469.499L189.206 475.453H206.662V490.013H210.478V476.129H228.178L225.58 462.191Z" fill="#F2DCDB"/>
<path d="M208.232 369.335L204.903 387.901L204.633 389.471H211.994L208.232 369.335Z" fill="#F2DCDB"/>
<path d="M218.138 422.353L199.22 419.728L198.002 426.386L195.377 441.136H221.629L218.138 422.353Z" fill="#F2DCDB"/>
<path d="M223.496 451.041L193.401 452.124L191.588 462.164L224.985 459.025L223.496 451.041Z" fill="#F2DCDB"/>
<g opacity="0.75">
<path opacity="0.75" d="M52.2592 415.803L51.2579 411.527H27.5499L26.4943 415.803H52.2592Z" fill="#F2DCDB"/>
</g>
<g opacity="0.75">
<path opacity="0.75" d="M61.5422 454.938H16.8326L15.8042 459.133L62.8413 460.405L61.5422 454.938Z" fill="#F2DCDB"/>
</g>
<g opacity="0.75">
<path opacity="0.75" d="M53.5582 421.243L53.2877 420.106L52.8275 418.212H25.8989L24.3834 424.301L53.5582 421.243Z" fill="#F2DCDB"/>
</g>
<g opacity="0.75">
<path opacity="0.75" d="M28.6865 406.899H50.1483L46.1428 389.957H32.8544L28.6865 406.899Z" fill="#F2DCDB"/>
</g>
<g opacity="0.75">
<path opacity="0.75" d="M69.147 487.062L67.9562 482.029L11.1491 477.969L6.87299 495.317H35.9397V512.557H42.2184V494.478H70.9062L69.147 487.062Z" fill="#F2DCDB"/>
</g>
<g opacity="0.75">
<path opacity="0.75" d="M45.5745 387.576L45.1144 385.627L39.6205 362.542L33.4499 387.576H45.5745Z" fill="#F2DCDB"/>
</g>
<g opacity="0.75">
<path opacity="0.75" d="M23.382 428.442L17.6174 451.798H60.7843L56.4541 433.476L54.4784 425.167L23.382 428.442Z" fill="#F2DCDB"/>
</g>
<g opacity="0.75">
<path opacity="0.75" d="M64.0321 465.465L14.5593 464.112L12.1235 474.045L66.9821 477.942L64.0321 465.465Z" fill="#F2DCDB"/>
</g>
<path d="M72.8693 566.354C81.9139 566.354 81.9413 579.941 72.8693 579.941C63.8247 579.941 63.7973 566.354 72.8693 566.354Z" fill="#D7E8E6"/>
<path d="M29.279 208C38.9844 208 38.9844 223.529 29.279 223.529C19.5737 223.5 19.5737 208 29.279 208Z" fill="#F2DCDB"/>
<path d="M222.812 129.613C232.524 129.613 232.524 145.142 222.812 145.142C213.127 145.142 213.1 129.613 222.812 129.613Z" fill="#F2DCDB"/>
<path d="M234.463 329.543C242.861 329.543 242.888 343.131 234.463 343.131C226.066 343.131 226.038 329.543 234.463 329.543Z" fill="#F9F0B9"/>
<path d="M24.3374 312.074C33.4026 312.074 33.4026 326.632 24.3374 326.632C15.2998 326.632 15.2721 312.074 24.3374 312.074Z" fill="#F9F0B9"/>
<path d="M122.918 81.5274C123.001 81.5274 123.057 81.5274 123.113 81.5274C123.669 81.6629 124.197 81.8256 124.782 81.9882C124.503 83.0184 124.253 83.9944 123.975 84.9974C124.003 85.0245 124.031 85.0516 124.058 85.0516C125.004 84.5094 125.978 83.9944 126.979 83.425C127.313 83.9672 127.619 84.5094 127.98 85.0788C127.09 85.5667 126.2 86.0818 125.31 86.5427C125.171 86.624 125.06 86.6511 125.088 86.868C126.089 87.1391 127.118 87.4102 128.147 87.6813C127.98 88.3048 127.813 88.9012 127.647 89.5248C127.035 89.3621 126.451 89.2266 125.894 89.0639C124.865 88.7928 123.808 88.5217 122.779 88.2235C122.584 88.1693 122.417 88.1964 122.25 88.3048C121.054 88.9826 119.858 89.6603 118.662 90.3652C118.05 90.7176 117.466 91.0429 116.854 91.3682C116.799 91.3954 116.743 91.4496 116.576 91.5851C116.688 91.6393 116.771 91.6664 116.854 91.7207C117.884 92.29 118.913 92.8593 119.942 93.4557C120.693 93.8895 121.472 94.3232 122.223 94.757C122.445 94.8925 122.612 94.8925 122.862 94.8383C124.392 94.4046 125.95 94.025 127.507 93.6184C127.563 93.6184 127.591 93.6184 127.674 93.5913C127.841 94.1877 128.008 94.757 128.175 95.4076C127.146 95.6787 126.144 95.9498 125.143 96.1938C125.088 96.3836 125.171 96.4378 125.31 96.5191C126.2 97.0071 127.09 97.4951 127.98 97.9831C127.647 98.5524 127.341 99.0675 127.007 99.6368C126.005 99.0946 125.06 98.4981 124.058 98.0102C124.031 98.0373 124.003 98.0644 123.975 98.0915C124.253 99.0675 124.503 100.043 124.782 101.101C124.17 101.263 123.558 101.426 122.918 101.616C122.779 101.101 122.64 100.64 122.501 100.152C122.195 99.0403 121.889 97.9017 121.583 96.7902C121.527 96.6547 121.36 96.5191 121.221 96.4107C119.608 95.489 117.967 94.5672 116.354 93.6455C116.215 93.5642 116.076 93.4828 115.909 93.4015C115.797 93.3473 115.686 93.3473 115.547 93.293C115.547 93.5641 115.547 93.781 115.547 94.025C115.547 95.8414 115.547 97.6848 115.547 99.5012C115.547 99.7994 115.631 100.016 115.853 100.206C116.91 101.209 117.939 102.212 118.968 103.242C119.08 103.351 119.191 103.459 119.274 103.568C119.107 103.893 118.44 104.571 117.911 104.95C117.244 104.3 116.576 103.649 115.909 103.026C115.797 102.917 115.742 102.809 115.519 102.944C115.519 103.974 115.519 105.032 115.519 106.116C114.852 106.116 114.24 106.116 113.6 106.116C113.6 105.032 113.628 103.947 113.6 102.754C113.405 102.89 113.266 102.944 113.183 103.026C112.571 103.622 111.987 104.191 111.403 104.788C111.347 104.842 111.264 104.896 111.236 104.923C110.791 104.462 110.346 104.029 109.873 103.568C110.262 103.161 110.707 102.754 111.125 102.321C111.876 101.589 112.654 100.857 113.405 100.098C113.517 99.9892 113.6 99.7723 113.6 99.6097C113.6 97.6306 113.6 95.6245 113.6 93.6455C113.6 93.537 113.572 93.4286 113.544 93.2388C113.127 93.4828 112.766 93.6726 112.404 93.8895C111.013 94.6757 109.623 95.4618 108.232 96.2209C107.815 96.4378 107.564 96.7089 107.453 97.1969C107.147 98.4981 106.758 99.7994 106.396 101.074C106.34 101.236 106.285 101.372 106.201 101.589C105.589 101.426 104.977 101.263 104.366 101.101C104.616 100.071 104.95 99.0946 105.172 98.0915C105.144 98.0644 105.117 98.0373 105.089 98.0102C104.143 98.5524 103.17 99.0946 102.168 99.6368C101.834 99.1217 101.529 98.5795 101.195 98.0373C101.278 97.9559 101.362 97.8746 101.445 97.8204C102.252 97.3595 103.058 96.9258 103.865 96.492C104.004 96.4107 104.087 96.3293 104.004 96.1667C103.003 95.8956 102.029 95.6516 101 95.3805C101.167 94.757 101.306 94.1877 101.473 93.5641C101.807 93.6455 102.14 93.6997 102.446 93.781C103.642 94.0792 104.838 94.4046 106.007 94.7028C106.09 94.7299 106.201 94.7299 106.285 94.7841C106.507 94.8925 106.702 94.8383 106.897 94.7299C108.649 93.7539 110.401 92.7509 112.154 91.7749C112.265 91.6936 112.376 91.6122 112.571 91.4767C111.987 91.1243 111.458 90.8261 110.93 90.5278C109.623 89.7688 108.287 89.0368 106.952 88.3048C106.73 88.1693 106.535 88.1693 106.285 88.2235C104.755 88.6573 103.197 89.0368 101.64 89.4434C101.584 89.4434 101.556 89.4435 101.473 89.4706C101.306 88.8741 101.167 88.2777 101 87.6542C102.029 87.3831 103.03 87.112 104.032 86.8409C104.06 86.5969 103.921 86.5969 103.781 86.5156C102.919 86.0547 102.085 85.5667 101.195 85.0516C101.529 84.4823 101.834 83.9401 102.168 83.3979C103.17 83.9401 104.115 84.4823 105.144 85.0788C105.144 84.9161 105.172 84.8077 105.144 84.7263C104.922 83.9401 104.699 83.154 104.477 82.3678C104.449 82.2593 104.449 82.1238 104.421 81.9611C105.033 81.7985 105.617 81.6358 106.257 81.4731C106.424 82.0967 106.591 82.666 106.758 83.2624C107.036 84.2384 107.314 85.2414 107.564 86.2174C107.648 86.5156 107.87 86.624 108.093 86.7596C109.261 87.4102 110.457 88.0608 111.625 88.7386C112.154 89.0368 112.654 89.335 113.183 89.6332C113.294 89.6874 113.433 89.7417 113.572 89.823C113.6 89.6874 113.656 89.6061 113.656 89.5248C113.656 88.1151 113.656 86.7053 113.656 85.2685C113.656 84.645 113.656 83.9944 113.628 83.3708C113.628 83.2353 113.544 83.0726 113.461 82.9913C112.654 82.178 111.82 81.3647 110.985 80.5785C110.624 80.2261 110.262 79.8465 109.873 79.467C110.318 79.0061 110.763 78.5724 111.236 78.1115C112.015 78.8706 112.766 79.6026 113.517 80.3345C113.739 80.199 113.656 80.0092 113.656 79.8465C113.656 78.9248 113.656 77.976 113.656 77C114.268 77 114.907 77 115.547 77C115.547 78.0573 115.547 79.1146 115.547 80.1719C115.714 80.3345 115.825 80.2261 115.936 80.0905C116.521 79.5212 117.105 78.9519 117.661 78.3826C117.744 78.3013 117.828 78.22 117.911 78.1386C118.356 78.5724 118.801 79.0061 119.274 79.467C119.219 79.5483 119.163 79.6297 119.08 79.711C117.967 80.7954 116.882 81.8527 115.77 82.9371C115.631 83.0726 115.575 83.1811 115.575 83.3708C115.575 85.4312 115.575 87.4644 115.575 89.5248C115.575 89.579 115.603 89.6332 115.631 89.7688C115.77 89.7146 115.909 89.7145 116.02 89.6332C117.772 88.6573 119.497 87.6542 121.249 86.6782C121.499 86.5427 121.611 86.3529 121.694 86.0818C122.084 84.645 122.473 83.2353 122.862 81.8256C122.835 81.7442 122.862 81.6358 122.918 81.5274Z" fill="#F9F0B9"/>
<path d="M200.575 228.282C200.659 228.282 200.715 228.282 200.77 228.282C201.326 228.418 201.855 228.581 202.439 228.743C202.161 229.774 201.911 230.749 201.632 231.753C201.66 231.78 201.688 231.807 201.716 231.807C202.662 231.265 203.635 230.749 204.636 230.18C204.97 230.722 205.276 231.265 205.638 231.834C204.748 232.322 203.858 232.837 202.968 233.298C202.829 233.379 202.717 233.406 202.745 233.623C203.746 233.894 204.776 234.165 205.805 234.436C205.638 235.06 205.471 235.656 205.304 236.28C204.692 236.117 204.108 235.982 203.552 235.819C202.523 235.548 201.466 235.277 200.436 234.979C200.242 234.924 200.075 234.952 199.908 235.06C198.712 235.738 197.516 236.415 196.32 237.12C195.708 237.473 195.124 237.798 194.512 238.123C194.456 238.15 194.401 238.205 194.234 238.34C194.345 238.394 194.428 238.422 194.512 238.476C195.541 239.045 196.57 239.614 197.599 240.211C198.35 240.645 199.129 241.078 199.88 241.512C200.103 241.648 200.27 241.648 200.52 241.593C202.05 241.16 203.607 240.78 205.165 240.373C205.221 240.373 205.248 240.373 205.332 240.346C205.499 240.943 205.666 241.512 205.832 242.163C204.803 242.434 203.802 242.705 202.801 242.949C202.745 243.139 202.829 243.193 202.968 243.274C203.858 243.762 204.748 244.25 205.638 244.738C205.304 245.307 204.998 245.823 204.664 246.392C203.663 245.85 202.717 245.253 201.716 244.765C201.688 244.792 201.66 244.82 201.632 244.847C201.911 245.823 202.161 246.799 202.439 247.856C201.827 248.018 201.215 248.181 200.575 248.371C200.436 247.856 200.297 247.395 200.158 246.907C199.852 245.795 199.546 244.657 199.24 243.545C199.185 243.41 199.018 243.274 198.879 243.166C197.266 242.244 195.625 241.322 194.011 240.401C193.872 240.319 193.733 240.238 193.566 240.157C193.455 240.102 193.344 240.102 193.205 240.048C193.205 240.319 193.205 240.536 193.205 240.78C193.205 242.597 193.205 244.44 193.205 246.256C193.205 246.555 193.288 246.771 193.511 246.961C194.568 247.964 195.597 248.967 196.626 249.997C196.737 250.106 196.848 250.214 196.932 250.323C196.765 250.648 196.097 251.326 195.569 251.705C194.901 251.055 194.234 250.404 193.566 249.781C193.455 249.672 193.399 249.564 193.177 249.699C193.177 250.729 193.177 251.787 193.177 252.871C192.509 252.871 191.897 252.871 191.258 252.871C191.258 251.787 191.285 250.702 191.258 249.51C191.063 249.645 190.924 249.699 190.84 249.781C190.228 250.377 189.644 250.946 189.06 251.543C189.005 251.597 188.921 251.651 188.893 251.678C188.448 251.217 188.003 250.784 187.53 250.323C187.92 249.916 188.365 249.51 188.782 249.076C189.533 248.344 190.312 247.612 191.063 246.853C191.174 246.744 191.258 246.527 191.258 246.365C191.258 244.386 191.258 242.38 191.258 240.401C191.258 240.292 191.23 240.184 191.202 239.994C190.785 240.238 190.423 240.428 190.062 240.645C188.671 241.431 187.28 242.217 185.889 242.976C185.472 243.193 185.222 243.464 185.111 243.952C184.805 245.253 184.415 246.555 184.054 247.829C183.998 247.991 183.942 248.127 183.859 248.344C183.247 248.181 182.635 248.018 182.023 247.856C182.273 246.826 182.607 245.85 182.83 244.847C182.802 244.82 182.774 244.792 182.746 244.765C181.801 245.307 180.827 245.85 179.826 246.392C179.492 245.877 179.186 245.335 178.852 244.792C178.936 244.711 179.019 244.63 179.103 244.576C179.909 244.115 180.716 243.681 181.522 243.247C181.662 243.166 181.745 243.084 181.662 242.922C180.66 242.651 179.687 242.407 178.658 242.136C178.824 241.512 178.964 240.943 179.13 240.319C179.464 240.401 179.798 240.455 180.104 240.536C181.3 240.834 182.496 241.16 183.664 241.458C183.748 241.485 183.859 241.485 183.942 241.539C184.165 241.648 184.36 241.593 184.554 241.485C186.307 240.509 188.059 239.506 189.811 238.53C189.922 238.449 190.034 238.367 190.228 238.232C189.644 237.879 189.116 237.581 188.587 237.283C187.28 236.524 185.945 235.792 184.61 235.06C184.387 234.924 184.193 234.924 183.942 234.979C182.413 235.412 180.855 235.792 179.297 236.199C179.242 236.199 179.214 236.199 179.13 236.226C178.964 235.629 178.824 235.033 178.658 234.409C179.687 234.138 180.688 233.867 181.689 233.596C181.717 233.352 181.578 233.352 181.439 233.271C180.577 232.81 179.742 232.322 178.852 231.807C179.186 231.237 179.492 230.695 179.826 230.153C180.827 230.695 181.773 231.237 182.802 231.834C182.802 231.671 182.83 231.563 182.802 231.481C182.579 230.695 182.357 229.909 182.134 229.123C182.107 229.014 182.107 228.879 182.079 228.716C182.691 228.554 183.275 228.391 183.915 228.228C184.081 228.852 184.248 229.421 184.415 230.018C184.693 230.993 184.971 231.997 185.222 232.972C185.305 233.271 185.528 233.379 185.75 233.515C186.919 234.165 188.115 234.816 189.283 235.494C189.811 235.792 190.312 236.09 190.84 236.388C190.952 236.443 191.091 236.497 191.23 236.578C191.258 236.443 191.313 236.361 191.313 236.28C191.313 234.87 191.313 233.46 191.313 232.024C191.313 231.4 191.313 230.749 191.285 230.126C191.285 229.99 191.202 229.828 191.119 229.746C190.312 228.933 189.478 228.12 188.643 227.334C188.281 226.981 187.92 226.602 187.53 226.222C187.975 225.761 188.421 225.327 188.893 224.867C189.672 225.626 190.423 226.358 191.174 227.09C191.397 226.954 191.313 226.764 191.313 226.602C191.313 225.68 191.313 224.731 191.313 223.755C191.925 223.755 192.565 223.755 193.205 223.755C193.205 224.812 193.205 225.87 193.205 226.927C193.372 227.09 193.483 226.981 193.594 226.846C194.178 226.276 194.762 225.707 195.319 225.138C195.402 225.056 195.485 224.975 195.569 224.894C196.014 225.327 196.459 225.761 196.932 226.222C196.876 226.303 196.82 226.385 196.737 226.466C195.624 227.551 194.54 228.608 193.427 229.692C193.288 229.828 193.232 229.936 193.232 230.126C193.232 232.186 193.232 234.22 193.232 236.28C193.232 236.334 193.26 236.388 193.288 236.524C193.427 236.47 193.566 236.47 193.678 236.388C195.43 235.412 197.154 234.409 198.907 233.433C199.157 233.298 199.268 233.108 199.352 232.837C199.741 231.4 200.13 229.99 200.52 228.581C200.492 228.472 200.52 228.391 200.575 228.282Z" fill="#F2DCDB"/>
<path d="M223.918 14.6783C224.001 14.6783 224.057 14.6783 224.113 14.6783C224.669 14.8183 225.197 14.9864 225.782 15.1545C225.503 16.219 225.253 17.2275 224.975 18.264C225.003 18.292 225.031 18.32 225.058 18.32C226.004 17.7598 226.978 17.2275 227.979 16.6392C228.313 17.1995 228.619 17.7597 228.98 18.348C228.09 18.8523 227.2 19.3845 226.31 19.8608C226.171 19.9448 226.06 19.9728 226.087 20.1969C227.089 20.4771 228.118 20.7572 229.147 21.0373C228.98 21.6817 228.813 22.298 228.646 22.9423C228.035 22.7742 227.45 22.6341 226.894 22.466C225.865 22.1859 224.808 21.9058 223.779 21.5976C223.584 21.5416 223.417 21.5696 223.25 21.6816C222.054 22.382 220.858 23.0823 219.662 23.8107C219.05 24.1749 218.466 24.511 217.854 24.8472C217.799 24.8752 217.743 24.9312 217.576 25.0713C217.687 25.1273 217.771 25.1553 217.854 25.2114C218.883 25.7997 219.913 26.3879 220.942 27.0042C221.693 27.4525 222.472 27.9007 223.223 28.3489C223.445 28.4889 223.612 28.4889 223.862 28.4329C225.392 27.9847 226.95 27.5925 228.507 27.1723C228.563 27.1723 228.591 27.1723 228.674 27.1443C228.841 27.7606 229.008 28.3489 229.175 29.0212C228.146 29.3014 227.144 29.5815 226.143 29.8336C226.088 30.0297 226.171 30.0857 226.31 30.1697C227.2 30.674 228.09 31.1783 228.98 31.6825C228.646 32.2708 228.34 32.803 228.007 33.3913C227.005 32.8311 226.06 32.2147 225.058 31.7105C225.031 31.7385 225.003 31.7665 224.975 31.7945C225.253 32.803 225.503 33.8115 225.782 34.904C225.17 35.0721 224.558 35.2402 223.918 35.4363C223.779 34.904 223.64 34.4278 223.501 33.9236C223.195 32.775 222.889 31.5985 222.583 30.4499C222.527 30.3098 222.36 30.1698 222.221 30.0577C220.608 29.1052 218.967 28.1528 217.354 27.2003C217.215 27.1163 217.076 27.0322 216.909 26.9482C216.797 26.8922 216.686 26.8922 216.547 26.8362C216.547 27.1163 216.547 27.3404 216.547 27.5925C216.547 29.4694 216.547 31.3743 216.547 33.2512C216.547 33.5594 216.631 33.7835 216.853 33.9796C217.91 35.0161 218.939 36.0526 219.968 37.1171C220.08 37.2292 220.191 37.3412 220.274 37.4533C220.107 37.7894 219.44 38.4898 218.911 38.882C218.244 38.2096 217.576 37.5373 216.909 36.893C216.797 36.781 216.742 36.6689 216.519 36.809C216.519 37.8735 216.519 38.966 216.519 40.0866C215.852 40.0866 215.24 40.0866 214.6 40.0866C214.6 38.966 214.628 37.8455 214.6 36.6129C214.405 36.7529 214.266 36.809 214.183 36.893C213.571 37.5093 212.987 38.0976 212.403 38.7139C212.347 38.7699 212.264 38.8259 212.236 38.854C211.791 38.3777 211.346 37.9295 210.873 37.4533C211.262 37.0331 211.707 36.6129 212.125 36.1646C212.876 35.4083 213.654 34.6519 214.405 33.8676C214.517 33.7555 214.6 33.5314 214.6 33.3633C214.6 31.3183 214.6 29.2453 214.6 27.2003C214.6 27.0883 214.572 26.9762 214.544 26.7801C214.127 27.0322 213.766 27.2283 213.404 27.4524C212.013 28.2648 210.622 29.0772 209.232 29.8616C208.815 30.0857 208.564 30.3658 208.453 30.8701C208.147 32.2147 207.758 33.5594 207.396 34.876C207.34 35.0441 207.285 35.1842 207.201 35.4083C206.589 35.2402 205.977 35.0721 205.366 34.904C205.616 33.8395 205.95 32.831 206.172 31.7945C206.144 31.7665 206.117 31.7385 206.089 31.7105C205.143 32.2708 204.17 32.8311 203.168 33.3913C202.834 32.8591 202.528 32.2988 202.195 31.7385C202.278 31.6545 202.362 31.5705 202.445 31.5144C203.252 31.0382 204.058 30.59 204.865 30.1417C205.004 30.0577 205.087 29.9737 205.004 29.8056C204.003 29.5255 203.029 29.2733 202 28.9932C202.167 28.3489 202.306 27.7606 202.473 27.1163C202.807 27.2003 203.14 27.2563 203.446 27.3404C204.642 27.6485 205.838 27.9847 207.007 28.2928C207.09 28.3209 207.201 28.3209 207.285 28.3769C207.507 28.4889 207.702 28.4329 207.897 28.3209C209.649 27.3124 211.401 26.2759 213.154 25.2674C213.265 25.1833 213.376 25.0993 213.571 24.9592C212.987 24.595 212.458 24.2869 211.93 23.9788C210.623 23.1944 209.287 22.438 207.952 21.6816C207.73 21.5416 207.535 21.5416 207.285 21.5976C205.755 22.0458 204.197 22.438 202.64 22.8582C202.584 22.8582 202.556 22.8582 202.473 22.8862C202.306 22.2699 202.167 21.6537 202 21.0093C203.029 20.7292 204.03 20.4491 205.032 20.1689C205.06 19.9168 204.921 19.8888 204.781 19.8328C203.919 19.3566 203.085 18.8523 202.195 18.32C202.528 17.7317 202.834 17.1715 203.168 16.6112C204.17 17.1715 205.115 17.7317 206.144 18.348C206.144 18.1799 206.172 18.0679 206.144 17.9839C205.922 17.1715 205.699 16.3591 205.477 15.5467C205.449 15.4346 205.449 15.2946 205.421 15.1265C206.033 14.9584 206.617 14.7903 207.257 14.6223C207.424 15.2666 207.591 15.8548 207.758 16.4711C208.036 17.4796 208.314 18.5161 208.564 19.5246C208.648 19.8328 208.87 19.9448 209.093 20.0849C210.261 20.7572 211.457 21.4295 212.625 22.1299C213.154 22.438 213.654 22.7462 214.183 23.0543C214.294 23.1103 214.433 23.1664 214.572 23.2504C214.6 23.1103 214.656 23.0263 214.656 22.9423C214.656 21.4856 214.656 20.0289 214.656 18.5441C214.656 17.8998 214.656 17.2275 214.628 16.5832C214.628 16.4431 214.544 16.2751 214.461 16.191C213.654 15.3506 212.82 14.5102 211.985 13.6978C211.624 13.3336 211.262 12.9414 210.873 12.5492C211.318 12.073 211.763 11.6248 212.236 11.1486C213.015 11.9329 213.766 12.6893 214.517 13.4457C214.739 13.3056 214.656 13.1095 214.656 12.9414C214.656 11.989 214.656 11.0085 214.656 10C215.268 10 215.907 10 216.547 10C216.547 11.0925 216.547 12.1851 216.547 13.2776C216.714 13.4457 216.825 13.3336 216.936 13.1935C217.521 12.6053 218.105 12.017 218.661 11.4287C218.744 11.3447 218.828 11.2606 218.911 11.1766C219.356 11.6248 219.801 12.073 220.274 12.5492C220.219 12.6333 220.163 12.7173 220.08 12.8014C218.967 13.9219 217.882 15.0144 216.77 16.135C216.631 16.275 216.575 16.3871 216.575 16.5832C216.575 18.7122 216.575 20.8133 216.575 22.9423C216.575 22.9983 216.603 23.0543 216.63 23.1944C216.77 23.1384 216.909 23.1384 217.02 23.0543C218.772 22.0458 220.497 21.0093 222.249 20.0009C222.499 19.8608 222.611 19.6647 222.694 19.3846C223.084 17.8998 223.473 16.4431 223.862 14.9864C223.862 14.9024 223.89 14.7903 223.918 14.6783Z" fill="#F2DCDB"/>
<path d="M116.139 423.36C116.223 423.36 116.278 423.36 116.334 423.36C116.89 423.495 117.418 423.658 118.003 423.821C117.724 424.851 117.474 425.827 117.196 426.83C117.224 426.857 117.252 426.884 117.279 426.884C118.225 426.342 119.199 425.827 120.2 425.258C120.534 425.8 120.84 426.342 121.201 426.911C120.311 427.399 119.421 427.914 118.531 428.375C118.392 428.457 118.281 428.484 118.309 428.701C119.31 428.972 120.339 429.243 121.368 429.514C121.201 430.137 121.034 430.734 120.868 431.357C120.256 431.195 119.672 431.059 119.115 430.896C118.086 430.625 117.029 430.354 116 430.056C115.805 430.002 115.638 430.029 115.471 430.137C114.275 430.815 113.079 431.493 111.883 432.198C111.271 432.55 110.687 432.875 110.075 433.201C110.02 433.228 109.964 433.282 109.797 433.418C109.909 433.472 109.992 433.499 110.075 433.553C111.105 434.123 112.134 434.692 113.163 435.288C113.914 435.722 114.693 436.156 115.444 436.589C115.666 436.725 115.833 436.725 116.083 436.671C117.613 436.237 119.171 435.858 120.728 435.451C120.784 435.451 120.812 435.451 120.895 435.424C121.062 436.02 121.229 436.59 121.396 437.24C120.367 437.511 119.366 437.782 118.364 438.026C118.309 438.216 118.392 438.27 118.531 438.352C119.421 438.84 120.311 439.328 121.201 439.816C120.868 440.385 120.562 440.9 120.228 441.469C119.226 440.927 118.281 440.331 117.279 439.843C117.252 439.87 117.224 439.897 117.196 439.924C117.474 440.9 117.724 441.876 118.003 442.933C117.391 443.096 116.779 443.259 116.139 443.448C116 442.933 115.861 442.472 115.722 441.984C115.416 440.873 115.11 439.734 114.804 438.623C114.748 438.487 114.581 438.352 114.442 438.243C112.829 437.321 111.188 436.4 109.575 435.478C109.436 435.397 109.297 435.315 109.13 435.234C109.018 435.18 108.907 435.18 108.768 435.126C108.768 435.397 108.768 435.614 108.768 435.858C108.768 437.674 108.768 439.517 108.768 441.334C108.768 441.632 108.852 441.849 109.074 442.039C110.131 443.042 111.16 444.045 112.189 445.075C112.301 445.183 112.412 445.292 112.495 445.4C112.328 445.726 111.661 446.403 111.132 446.783C110.465 446.132 109.797 445.482 109.13 444.858C109.018 444.75 108.963 444.641 108.74 444.777C108.74 445.807 108.74 446.864 108.74 447.949C108.073 447.949 107.461 447.949 106.821 447.949C106.821 446.864 106.849 445.78 106.821 444.587C106.626 444.722 106.487 444.777 106.404 444.858C105.792 445.454 105.208 446.024 104.624 446.62C104.568 446.674 104.485 446.729 104.457 446.756C104.012 446.295 103.567 445.861 103.094 445.4C103.483 444.994 103.928 444.587 104.346 444.153C105.097 443.421 105.875 442.689 106.626 441.93C106.738 441.822 106.821 441.605 106.821 441.442C106.821 439.463 106.821 437.457 106.821 435.478C106.821 435.37 106.793 435.261 106.766 435.071C106.348 435.315 105.987 435.505 105.625 435.722C104.234 436.508 102.844 437.294 101.453 438.053C101.036 438.27 100.785 438.541 100.674 439.029C100.368 440.331 99.9787 441.632 99.6171 442.906C99.5615 443.069 99.5058 443.204 99.4224 443.421C98.8105 443.259 98.1985 443.096 97.5866 442.933C97.8369 441.903 98.1707 440.927 98.3932 439.924C98.3654 439.897 98.3376 439.87 98.3098 439.843C97.3641 440.385 96.3905 440.927 95.3892 441.469C95.0554 440.954 94.7495 440.412 94.4158 439.87C94.4992 439.788 94.5826 439.707 94.6661 439.653C95.4727 439.192 96.2793 438.758 97.086 438.325C97.225 438.243 97.3084 438.162 97.225 437.999C96.2237 437.728 95.2502 437.484 94.221 437.213C94.3879 436.59 94.527 436.02 94.6938 435.397C95.0276 435.478 95.3614 435.532 95.6674 435.614C96.8634 435.912 98.0594 436.237 99.2277 436.535C99.3111 436.562 99.4224 436.562 99.5058 436.617C99.7283 436.725 99.923 436.671 100.118 436.562C101.87 435.586 103.622 434.583 105.375 433.607C105.486 433.526 105.597 433.445 105.792 433.309C105.208 432.957 104.679 432.659 104.151 432.36C102.844 431.601 101.508 430.869 100.173 430.137C99.9508 430.002 99.7562 430.002 99.5058 430.056C97.976 430.49 96.4184 430.869 94.8608 431.276C94.8052 431.276 94.7773 431.276 94.6938 431.303C94.527 430.707 94.3879 430.11 94.221 429.487C95.2502 429.216 96.2515 428.945 97.2528 428.673C97.2806 428.429 97.1416 428.402 97.0025 428.348C96.1403 427.887 95.3058 427.399 94.4158 426.884C94.7495 426.315 95.0554 425.773 95.3892 425.23C96.3905 425.773 97.3363 426.315 98.3654 426.911C98.3654 426.749 98.3932 426.64 98.3654 426.559C98.1429 425.773 97.9204 424.986 97.6979 424.2C97.6701 424.092 97.6701 423.956 97.6423 423.794C98.2542 423.631 98.8382 423.468 99.478 423.306C99.6449 423.929 99.8118 424.498 99.9787 425.095C100.257 426.071 100.535 427.074 100.785 428.05C100.869 428.348 101.091 428.457 101.314 428.592C102.482 429.243 103.678 429.893 104.846 430.571C105.375 430.869 105.875 431.168 106.404 431.466C106.515 431.52 106.654 431.574 106.793 431.656C106.821 431.52 106.877 431.439 106.877 431.357C106.877 429.948 106.877 428.538 106.877 427.101C106.877 426.477 106.877 425.827 106.849 425.203C106.849 425.068 106.766 424.905 106.682 424.824C105.875 424.011 105.041 423.197 104.207 422.411C103.845 422.059 103.483 421.679 103.094 421.3C103.539 420.839 103.984 420.405 104.457 419.944C105.236 420.703 105.987 421.435 106.738 422.167C106.96 422.031 106.877 421.842 106.877 421.679C106.877 420.757 106.877 419.808 106.877 418.833C107.489 418.833 108.128 418.833 108.768 418.833C108.768 419.89 108.768 420.947 108.768 422.004C108.935 422.167 109.046 422.059 109.158 421.923C109.742 421.354 110.326 420.784 110.882 420.215C110.965 420.134 111.049 420.052 111.132 419.971C111.577 420.405 112.022 420.839 112.495 421.3C112.44 421.381 112.384 421.462 112.301 421.544C111.188 422.628 110.103 423.685 108.991 424.77C108.852 424.905 108.796 425.014 108.796 425.203C108.796 427.264 108.796 429.297 108.796 431.357C108.796 431.412 108.824 431.466 108.852 431.601C108.991 431.547 109.13 431.547 109.241 431.466C110.993 430.49 112.718 429.487 114.47 428.511C114.72 428.375 114.832 428.185 114.915 427.914C115.305 426.478 115.694 425.068 116.083 423.658C116.056 423.577 116.111 423.468 116.139 423.36Z" fill="#F9F0B9"/>
<path d="M235.515 592.233C235.598 592.233 235.654 592.233 235.709 592.233C236.266 592.368 236.794 592.531 237.378 592.694C237.1 593.724 236.85 594.7 236.572 595.703C236.6 595.73 236.627 595.757 236.655 595.757C237.601 595.215 238.574 594.7 239.576 594.13C239.91 594.673 240.215 595.215 240.577 595.784C239.687 596.272 238.797 596.787 237.907 597.248C237.768 597.329 237.656 597.357 237.684 597.573C238.686 597.845 239.715 598.116 240.744 598.387C240.577 599.01 240.41 599.607 240.243 600.23C239.631 600.068 239.047 599.932 238.491 599.769C237.462 599.498 236.405 599.227 235.376 598.929C235.181 598.875 235.014 598.902 234.847 599.01C233.651 599.688 232.455 600.366 231.259 601.071C230.647 601.423 230.063 601.748 229.451 602.074C229.396 602.101 229.34 602.155 229.173 602.291C229.284 602.345 229.368 602.372 229.451 602.426C230.48 602.995 231.51 603.565 232.539 604.161C233.29 604.595 234.068 605.029 234.819 605.462C235.042 605.598 235.209 605.598 235.459 605.544C236.989 605.11 238.547 604.73 240.104 604.324C240.16 604.324 240.188 604.324 240.271 604.297C240.438 604.893 240.605 605.462 240.772 606.113C239.743 606.384 238.741 606.655 237.74 606.899C237.684 607.089 237.768 607.143 237.907 607.225C238.797 607.713 239.687 608.201 240.577 608.688C240.243 609.258 239.937 609.773 239.604 610.342C238.602 609.8 237.656 609.204 236.655 608.716C236.627 608.743 236.6 608.77 236.572 608.797C236.85 609.773 237.1 610.749 237.378 611.806C236.766 611.969 236.154 612.131 235.515 612.321C235.376 611.806 235.237 611.345 235.098 610.857C234.792 609.746 234.486 608.607 234.18 607.496C234.124 607.36 233.957 607.225 233.818 607.116C232.205 606.194 230.564 605.273 228.951 604.351C228.811 604.27 228.672 604.188 228.505 604.107C228.394 604.053 228.283 604.053 228.144 603.998C228.144 604.27 228.144 604.486 228.144 604.73C228.144 606.547 228.144 608.39 228.144 610.207C228.144 610.505 228.227 610.722 228.45 610.912C229.507 611.915 230.536 612.918 231.565 613.948C231.676 614.056 231.788 614.165 231.871 614.273C231.704 614.598 231.037 615.276 230.508 615.656C229.841 615.005 229.173 614.354 228.505 613.731C228.394 613.623 228.339 613.514 228.116 613.65C228.116 614.68 228.116 615.737 228.116 616.821C227.448 616.821 226.837 616.821 226.197 616.821C226.197 615.737 226.225 614.653 226.197 613.46C226.002 613.595 225.863 613.65 225.78 613.731C225.168 614.327 224.584 614.897 224 615.493C223.944 615.547 223.86 615.602 223.833 615.629C223.388 615.168 222.943 614.734 222.47 614.273C222.859 613.866 223.304 613.46 223.721 613.026C224.472 612.294 225.251 611.562 226.002 610.803C226.113 610.695 226.197 610.478 226.197 610.315C226.197 608.336 226.197 606.33 226.197 604.351C226.197 604.242 226.169 604.134 226.141 603.944C225.724 604.188 225.362 604.378 225.001 604.595C223.61 605.381 222.219 606.167 220.829 606.926C220.411 607.143 220.161 607.414 220.05 607.902C219.744 609.204 219.354 610.505 218.993 611.779C218.937 611.942 218.882 612.077 218.798 612.294C218.186 612.131 217.574 611.969 216.962 611.806C217.213 610.776 217.546 609.8 217.769 608.797C217.741 608.77 217.713 608.743 217.686 608.716C216.74 609.258 215.766 609.8 214.765 610.342C214.431 609.827 214.125 609.285 213.792 608.743C213.875 608.661 213.958 608.58 214.042 608.526C214.848 608.065 215.655 607.631 216.462 607.197C216.601 607.116 216.684 607.035 216.601 606.872C215.6 606.601 214.626 606.357 213.597 606.086C213.764 605.462 213.903 604.893 214.07 604.27C214.403 604.351 214.737 604.405 215.043 604.486C216.239 604.785 217.435 605.11 218.603 605.408C218.687 605.435 218.798 605.435 218.882 605.49C219.104 605.598 219.299 605.544 219.494 605.435C221.246 604.459 222.998 603.456 224.75 602.48C224.862 602.399 224.973 602.318 225.168 602.182C224.584 601.83 224.055 601.531 223.527 601.233C222.219 600.474 220.884 599.742 219.549 599.01C219.327 598.875 219.132 598.875 218.882 598.929C217.352 599.363 215.794 599.742 214.237 600.149C214.181 600.149 214.153 600.149 214.07 600.176C213.903 599.58 213.764 598.983 213.597 598.36C214.626 598.089 215.627 597.817 216.629 597.546C216.656 597.302 216.517 597.302 216.378 597.221C215.516 596.76 214.682 596.272 213.792 595.757C214.125 595.188 214.431 594.646 214.765 594.103C215.766 594.646 216.712 595.188 217.741 595.784C217.741 595.622 217.769 595.513 217.741 595.432C217.519 594.646 217.296 593.859 217.074 593.073C217.046 592.965 217.046 592.829 217.018 592.667C217.63 592.504 218.214 592.341 218.854 592.179C219.021 592.802 219.188 593.371 219.354 593.968C219.633 594.944 219.911 595.947 220.161 596.923C220.245 597.221 220.467 597.329 220.69 597.465C221.858 598.116 223.054 598.766 224.222 599.444C224.75 599.742 225.251 600.04 225.78 600.339C225.891 600.393 226.03 600.447 226.169 600.528C226.197 600.393 226.253 600.312 226.253 600.23C226.253 598.82 226.253 597.411 226.253 595.974C226.253 595.35 226.252 594.7 226.225 594.076C226.225 593.941 226.141 593.778 226.058 593.697C225.251 592.883 224.417 592.07 223.582 591.284C223.221 590.932 222.859 590.552 222.47 590.172C222.915 589.712 223.36 589.278 223.833 588.817C224.611 589.576 225.362 590.308 226.113 591.04C226.336 590.904 226.253 590.715 226.253 590.552C226.253 589.63 226.253 588.681 226.253 587.705C226.864 587.705 227.504 587.705 228.144 587.705C228.144 588.763 228.144 589.82 228.144 590.877C228.311 591.04 228.422 590.932 228.533 590.796C229.117 590.227 229.702 589.657 230.258 589.088C230.341 589.007 230.425 588.925 230.508 588.844C230.953 589.278 231.398 589.712 231.871 590.172C231.815 590.254 231.76 590.335 231.676 590.416C230.564 591.501 229.479 592.558 228.366 593.642C228.227 593.778 228.172 593.886 228.172 594.076C228.172 596.137 228.172 598.17 228.172 600.23C228.172 600.284 228.2 600.339 228.227 600.474C228.366 600.42 228.506 600.42 228.617 600.339C230.369 599.363 232.094 598.36 233.846 597.384C234.096 597.248 234.207 597.058 234.291 596.787C234.68 595.35 235.07 593.941 235.459 592.531C235.459 592.45 235.487 592.341 235.515 592.233Z" fill="#F9F0B9"/>
<path d="M208.628 150.758L185.488 51L163.972 150.758H183.54V163.234H187.41V150.758H208.628Z" fill="#D7E8E6"/>
</svg>
