<svg width="358" height="161" viewBox="0 0 358 161" fill="none" xmlns="http://www.w3.org/2000/svg">
<path d="M343.363 46.7632L332.802 15L323 46.7632H331.918V50.7393H333.687V46.7632H343.363Z" fill="#D7E8E6"/>
<path d="M42.4491 104.63L42.1043 102.677H33.8992L33.543 104.63H42.4491Z" fill="#F9F0B9"/>
<path d="M45.6669 122.546H30.199L29.8428 124.454L46.1151 125.04L45.6669 122.546Z" fill="#F9F0B9"/>
<path d="M42.8974 107.124L42.8055 106.607L42.6561 105.733H33.3362L32.8076 108.514L42.8974 107.124Z" fill="#F9F0B9"/>
<path d="M34.3018 100.551H41.7255L40.3349 92.8052H35.7497L34.3018 100.551Z" fill="#F9F0B9"/>
<path d="M48.2985 137.232L47.8848 134.934L28.2339 133.072L26.7515 141.002H36.8067V148.896H38.9787V140.622H48.9075L48.2985 137.232Z" fill="#F9F0B9"/>
<path opacity="0.75" d="M40.1393 91.725L39.9784 90.8286L38.0823 80.2677L35.9448 91.725H40.1393Z" fill="#F9F0B9"/>
<path d="M32.463 110.411L30.4634 121.098H45.4026L43.9087 112.721L43.2192 108.917L32.463 110.411Z" fill="#F9F0B9"/>
<path d="M46.529 127.349L29.4178 126.729L28.5674 131.268L47.5517 133.061L46.529 127.349Z" fill="#F9F0B9"/>
<g opacity="0.75">
<path opacity="0.75" d="M19.2717 39.6157L18.8465 37.8115H8.77974L8.33154 39.6157H19.2717Z" fill="#F2DCDB"/>
</g>
<g opacity="0.75">
<path opacity="0.75" d="M23.2135 56.2444H4.22917L3.79248 58.0141L23.7651 58.5542L23.2135 56.2444Z" fill="#F2DCDB"/>
</g>
<g opacity="0.75">
<path opacity="0.75" d="M19.8234 41.9255L19.7084 41.4543L19.5131 40.6384H8.07881L7.44678 43.2356L19.8234 41.9255Z" fill="#F2DCDB"/>
</g>
<g opacity="0.75">
<path opacity="0.75" d="M9.2627 35.8349H18.3757L16.6749 28.6411H11.0439L9.2627 35.8349Z" fill="#F2DCDB"/>
</g>
<g opacity="0.75">
<path opacity="0.75" d="M26.4425 69.8735L25.9369 67.7476L1.81572 66.0238L0 73.3785H12.3536V80.7103H15.0082V73.0223H27.1895L26.4425 69.8735Z" fill="#F2DCDB"/>
</g>
<g opacity="0.75">
<path opacity="0.75" d="M16.4335 27.6414L16.2381 26.8025L13.9168 17L11.2852 27.6414H16.4335Z" fill="#F2DCDB"/>
</g>
<g opacity="0.75">
<path opacity="0.75" d="M7.01025 44.994L4.5625 54.8999H22.9034L21.0532 47.1315L20.2143 43.6035L7.01025 44.994Z" fill="#F2DCDB"/>
</g>
<g opacity="0.75">
<path opacity="0.75" d="M24.2707 60.7032L3.27525 60.1401L2.22949 64.3461L25.5348 66.0124L24.2707 60.7032Z" fill="#F2DCDB"/>
</g>
<path d="M300.133 125.131L288.653 95L278 125.131H287.699V128.901H289.618V125.131H300.133Z" fill="#F9F0B9"/>
<path d="M219.205 118.875H213.079L212.827 119.736H219.48L219.205 118.875Z" fill="#F2DCDB"/>
<path d="M221.974 127.624H210.425L210.092 128.722L222.239 128.465L221.974 127.624Z" fill="#F2DCDB"/>
<path d="M219.63 120.218H212.677L212.551 120.604L212.493 120.835L220.02 121.452L219.63 120.218Z" fill="#F2DCDB"/>
<path d="M217.826 114.528H214.401L213.367 117.939H218.906L217.826 114.528Z" fill="#F2DCDB"/>
<path d="M223.445 132.27L208.77 133.084L208.46 134.101L208 135.593H215.412V139.242H217.032V135.762H224.548L223.445 132.27Z" fill="#F2DCDB"/>
<path d="M216.079 109L214.665 113.653L214.55 114.046H217.676L216.079 109Z" fill="#F2DCDB"/>
<path d="M220.285 122.286L212.252 121.628L211.735 123.297L210.62 126.993H221.767L220.285 122.286Z" fill="#F2DCDB"/>
<path d="M222.56 129.475L209.781 129.747L209.011 132.263L223.192 131.476L222.56 129.475Z" fill="#F2DCDB"/>
<path d="M102.205 109.732H96.0795L95.8267 111.192H102.48L102.205 109.732Z" fill="#F2DCDB"/>
<path d="M104.974 124.556H93.425L93.0918 126.418L105.239 125.981L104.974 124.556Z" fill="#F2DCDB"/>
<path d="M102.63 112.007H95.677L95.5506 112.662L95.4932 113.053L103.02 114.099L102.63 112.007Z" fill="#F2DCDB"/>
<path d="M100.826 102.366H97.401L96.3667 108.146H101.906L100.826 102.366Z" fill="#F2DCDB"/>
<path d="M106.445 132.428L91.7699 133.807L91.4597 135.531L91 138.059H98.4122V144.242H100.032V138.346H107.548L106.445 132.428Z" fill="#F2DCDB"/>
<path d="M99.0787 93L97.6652 100.883L97.5503 101.55H100.676L99.0787 93Z" fill="#F2DCDB"/>
<path d="M103.285 115.512L95.2519 114.398L94.7348 117.225L93.6201 123.488H104.767L103.285 115.512Z" fill="#F2DCDB"/>
<path d="M105.56 127.694L92.7812 128.153L92.0112 132.417L106.192 131.084L105.56 127.694Z" fill="#F2DCDB"/>
<g opacity="0.75">
<path opacity="0.75" d="M345.272 103.616L344.847 101.8H334.78L334.332 103.616H345.272Z" fill="#F2DCDB"/>
</g>
<g opacity="0.75">
<path opacity="0.75" d="M349.214 120.233H330.229L329.792 122.014L349.765 122.554L349.214 120.233Z" fill="#F2DCDB"/>
</g>
<g opacity="0.75">
<path opacity="0.75" d="M345.823 105.925L345.708 105.443L345.513 104.638H334.079L333.435 107.224L345.823 105.925Z" fill="#F2DCDB"/>
</g>
<g opacity="0.75">
<path opacity="0.75" d="M335.263 99.8349H344.376L342.675 92.6411H337.032L335.263 99.8349Z" fill="#F2DCDB"/>
</g>
<g opacity="0.75">
<path opacity="0.75" d="M352.443 133.873L351.937 131.736L327.816 130.012L326 137.378H338.342V144.699H341.008V137.022H353.189L352.443 133.873Z" fill="#F2DCDB"/>
</g>
<g opacity="0.75">
<path opacity="0.75" d="M342.433 91.6299L342.238 90.8025L339.905 81L337.285 91.6299H342.433Z" fill="#F2DCDB"/>
</g>
<g opacity="0.75">
<path opacity="0.75" d="M333.01 108.982L330.562 118.9H348.891L347.053 111.12L346.214 107.592L333.01 108.982Z" fill="#F2DCDB"/>
</g>
<g opacity="0.75">
<path opacity="0.75" d="M350.271 124.703L329.264 124.129L328.23 128.346L351.524 130.001L350.271 124.703Z" fill="#F2DCDB"/>
</g>
<path d="M254.885 128C258.725 128 258.737 133.769 254.885 133.769C251.044 133.769 251.033 128 254.885 128Z" fill="#D7E8E6"/>
<path d="M12.4326 105.32C16.5536 105.32 16.5536 111.914 12.4326 111.914C8.31154 111.902 8.31154 105.32 12.4326 105.32Z" fill="#F2DCDB"/>
<path d="M354.089 65C358.213 65 358.213 71.5937 354.089 71.5937C349.976 71.5937 349.965 65 354.089 65Z" fill="#F2DCDB"/>
<path d="M313.089 144C317.213 144 317.213 150.594 313.089 150.594C308.976 150.594 308.965 144 313.089 144Z" fill="#F2DCDB"/>
<path d="M136.679 113C140.244 113 140.256 118.769 136.679 118.769C133.113 118.769 133.101 113 136.679 113Z" fill="#F9F0B9"/>
<path d="M61.8825 102C65.7318 102 65.7318 108.182 61.8825 108.182C58.045 108.182 58.0333 102 61.8825 102Z" fill="#F9F0B9"/>
<path d="M41.3067 16.9224C41.3422 16.9224 41.3658 16.9224 41.3894 16.9224C41.6256 16.9799 41.85 17.049 42.098 17.1181C41.9799 17.5555 41.8736 17.9699 41.7555 18.3958C41.7673 18.4073 41.7792 18.4188 41.791 18.4188C42.1925 18.1886 42.6059 17.9699 43.0311 17.7282C43.1728 17.9584 43.3027 18.1886 43.4563 18.4304C43.0783 18.6376 42.7004 18.8563 42.3224 19.052C42.2634 19.0865 42.2161 19.098 42.228 19.1901C42.6531 19.3052 43.0901 19.4203 43.5271 19.5354C43.4563 19.8002 43.3854 20.0535 43.3145 20.3182C43.0547 20.2491 42.8067 20.1916 42.5705 20.1225C42.1335 20.0074 41.6847 19.8923 41.2477 19.7657C41.165 19.7427 41.0941 19.7542 41.0233 19.8002C40.5154 20.088 40.0076 20.3758 39.4997 20.6751C39.2399 20.8247 38.9919 20.9628 38.732 21.101C38.7084 21.1125 38.6848 21.1355 38.6139 21.1931C38.6612 21.2161 38.6966 21.2276 38.732 21.2506C39.169 21.4924 39.606 21.7341 40.043 21.9873C40.3619 22.1715 40.6926 22.3557 41.0115 22.5399C41.1059 22.5974 41.1768 22.5974 41.2831 22.5744C41.9327 22.3902 42.5941 22.2291 43.2555 22.0564C43.2791 22.0564 43.2909 22.0564 43.3263 22.0449C43.3972 22.2982 43.468 22.5399 43.5389 22.8162C43.1019 22.9313 42.6767 23.0464 42.2516 23.15C42.2279 23.2306 42.2634 23.2536 42.3224 23.2881C42.7004 23.4953 43.0783 23.7025 43.4563 23.9097C43.3145 24.1515 43.1846 24.3702 43.0429 24.6119C42.6177 24.3817 42.2161 24.1284 41.791 23.9212C41.7792 23.9327 41.7673 23.9443 41.7555 23.9558C41.8736 24.3702 41.9799 24.7846 42.098 25.2335C41.8382 25.3026 41.5784 25.3717 41.3067 25.4522C41.2477 25.2335 41.1886 25.0378 41.1296 24.8306C40.9997 24.3587 40.8697 23.8752 40.7398 23.4032C40.7162 23.3457 40.6453 23.2881 40.5863 23.2421C39.9013 22.8507 39.2044 22.4593 38.5194 22.0679C38.4604 22.0334 38.4013 21.9989 38.3305 21.9643C38.2832 21.9413 38.236 21.9413 38.1769 21.9183C38.1769 22.0334 38.1769 22.1255 38.1769 22.2291C38.1769 23.0003 38.1769 23.7831 38.1769 24.5544C38.1769 24.681 38.2124 24.7731 38.3068 24.8537C38.7556 25.2796 39.1926 25.7055 39.6296 26.1429C39.6769 26.189 39.7241 26.235 39.7595 26.2811C39.6887 26.4192 39.4052 26.707 39.1808 26.8681C38.8974 26.5919 38.6139 26.3156 38.3305 26.0508C38.2832 26.0048 38.2596 25.9587 38.1651 26.0163C38.1651 26.4537 38.1651 26.9027 38.1651 27.3631C37.8817 27.3631 37.6218 27.3631 37.3502 27.3631C37.3502 26.9027 37.362 26.4422 37.3502 25.9357C37.2675 25.9933 37.2085 26.0163 37.173 26.0508C36.9132 26.3041 36.6652 26.5458 36.4171 26.7991C36.3935 26.8221 36.3581 26.8451 36.3463 26.8566C36.1573 26.6609 35.9684 26.4767 35.7676 26.2811C35.9329 26.1084 36.1219 25.9357 36.2991 25.7515C36.6179 25.4407 36.9486 25.1299 37.2675 24.8076C37.3147 24.7616 37.3502 24.6695 37.3502 24.6004C37.3502 23.7601 37.3502 22.9083 37.3502 22.0679C37.3502 22.0219 37.3384 21.9758 37.3266 21.8953C37.1494 21.9989 36.9959 22.0794 36.8423 22.1715C36.2518 22.5054 35.6613 22.8392 35.0708 23.1615C34.8936 23.2536 34.7873 23.3687 34.7401 23.5759C34.6101 24.1284 34.4448 24.681 34.2913 25.222C34.2676 25.2911 34.244 25.3486 34.2086 25.4407C33.9487 25.3717 33.6889 25.3026 33.4291 25.2335C33.5354 24.7961 33.6771 24.3817 33.7716 23.9558C33.7598 23.9443 33.748 23.9327 33.7362 23.9212C33.3346 24.1515 32.9212 24.3817 32.4961 24.6119C32.3543 24.3932 32.2244 24.163 32.0827 23.9328C32.1181 23.8982 32.1535 23.8637 32.189 23.8407C32.5315 23.645 32.874 23.4608 33.2165 23.2766C33.2755 23.2421 33.311 23.2075 33.2756 23.1385C32.8504 23.0234 32.437 22.9198 32 22.8047C32.0709 22.5399 32.1299 22.2981 32.2008 22.0334C32.3425 22.0679 32.4842 22.0909 32.6141 22.1255C33.122 22.2521 33.6298 22.3902 34.1259 22.5169C34.1613 22.5284 34.2086 22.5284 34.244 22.5514C34.3385 22.5974 34.4212 22.5744 34.5038 22.5284C35.2479 22.114 35.992 21.6881 36.736 21.2736C36.7833 21.2391 36.8305 21.2046 36.9132 21.147C36.6652 20.9974 36.4408 20.8708 36.2164 20.7441C35.6613 20.4218 35.0944 20.111 34.5275 19.8002C34.433 19.7427 34.3503 19.7427 34.244 19.7657C33.5944 19.9499 32.933 20.111 32.2717 20.2837C32.248 20.2837 32.2362 20.2837 32.2008 20.2952C32.1299 20.0419 32.0709 19.7887 32 19.5239C32.437 19.4088 32.8622 19.2937 33.2873 19.1786C33.2992 19.075 33.2401 19.075 33.1811 19.0405C32.8149 18.8448 32.4606 18.6376 32.0827 18.4188C32.2244 18.1771 32.3543 17.9469 32.4961 17.7167C32.9212 17.9469 33.3228 18.1771 33.7598 18.4304C33.7598 18.3613 33.7716 18.3153 33.7598 18.2807C33.6653 17.9469 33.5708 17.6131 33.4763 17.2792C33.4645 17.2332 33.4645 17.1756 33.4527 17.1066C33.7125 17.0375 33.9606 16.9684 34.2322 16.8994C34.3031 17.1641 34.3739 17.4059 34.4448 17.6591C34.5629 18.0735 34.681 18.4994 34.7873 18.9138C34.8227 19.0405 34.9172 19.0865 35.0117 19.1441C35.5077 19.4203 36.0156 19.6966 36.5116 19.9844C36.736 20.111 36.9486 20.2376 37.173 20.3643C37.2203 20.3873 37.2793 20.4103 37.3384 20.4448C37.3502 20.3873 37.3738 20.3527 37.3738 20.3182C37.3738 19.7196 37.3738 19.121 37.3738 18.5109C37.3738 18.2462 37.3738 17.9699 37.362 17.7052C37.362 17.6476 37.3266 17.5785 37.2911 17.544C36.9486 17.1987 36.5943 16.8533 36.24 16.5195C36.0865 16.3698 35.9329 16.2087 35.7676 16.0475C35.9565 15.8518 36.1455 15.6677 36.3463 15.472C36.677 15.7943 36.9959 16.1051 37.3148 16.4159C37.4092 16.3583 37.3738 16.2778 37.3738 16.2087C37.3738 15.8173 37.3738 15.4144 37.3738 15C37.6336 15 37.9053 15 38.1769 15C38.1769 15.4489 38.1769 15.8979 38.1769 16.3468C38.2478 16.4159 38.295 16.3698 38.3423 16.3123C38.5903 16.0706 38.8383 15.8288 39.0745 15.5871C39.1099 15.5525 39.1454 15.518 39.1808 15.4835C39.3698 15.6677 39.5588 15.8518 39.7595 16.0475C39.7359 16.0821 39.7123 16.1166 39.6769 16.1511C39.2044 16.6116 38.7438 17.0605 38.2714 17.521C38.2124 17.5785 38.1887 17.6246 38.1887 17.7052C38.1887 18.58 38.1887 19.4434 38.1887 20.3182C38.1887 20.3412 38.2006 20.3643 38.2124 20.4218C38.2714 20.3988 38.3305 20.3988 38.3777 20.3643C39.1218 19.9499 39.854 19.5239 40.5981 19.1095C40.7044 19.052 40.7516 18.9714 40.7871 18.8563C40.9524 18.2462 41.1178 17.6476 41.2831 17.049C41.2713 17.0145 41.2831 16.9684 41.3067 16.9224Z" fill="#F9F0B9"/>
<path d="M77.3067 129.922C77.3421 129.922 77.3658 129.922 77.3894 129.922C77.6256 129.98 77.85 130.049 78.098 130.118C77.9799 130.556 77.8736 130.97 77.7555 131.396C77.7673 131.407 77.7791 131.419 77.7909 131.419C78.1925 131.189 78.6059 130.97 79.0311 130.728C79.1728 130.958 79.3027 131.189 79.4562 131.43C79.0783 131.638 78.7004 131.856 78.3224 132.052C78.2634 132.087 78.2161 132.098 78.2279 132.19C78.6531 132.305 79.0901 132.42 79.5271 132.535C79.4562 132.8 79.3854 133.053 79.3145 133.318C79.0547 133.249 78.8066 133.192 78.5704 133.123C78.1334 133.007 77.6847 132.892 77.2477 132.766C77.165 132.743 77.0941 132.754 77.0233 132.8C76.5154 133.088 76.0075 133.376 75.4997 133.675C75.2399 133.825 74.9918 133.963 74.732 134.101C74.7084 134.112 74.6848 134.136 74.6139 134.193C74.6611 134.216 74.6966 134.228 74.732 134.251C75.169 134.492 75.606 134.734 76.043 134.987C76.3619 135.172 76.6926 135.356 77.0114 135.54C77.1059 135.597 77.1768 135.597 77.2831 135.574C77.9327 135.39 78.594 135.229 79.2554 135.056C79.2791 135.056 79.2909 135.056 79.3263 135.045C79.3972 135.298 79.468 135.54 79.5389 135.816C79.1019 135.931 78.6767 136.046 78.2516 136.15C78.2279 136.231 78.2634 136.254 78.3224 136.288C78.7004 136.495 79.0783 136.703 79.4562 136.91C79.3145 137.151 79.1846 137.37 79.0428 137.612C78.6177 137.382 78.2161 137.128 77.7909 136.921C77.7791 136.933 77.7673 136.944 77.7555 136.956C77.8736 137.37 77.9799 137.785 78.098 138.234C77.8382 138.303 77.5783 138.372 77.3067 138.452C77.2476 138.234 77.1886 138.038 77.1295 137.831C76.9996 137.359 76.8697 136.875 76.7398 136.403C76.7162 136.346 76.6453 136.288 76.5863 136.242C75.9013 135.851 75.2044 135.459 74.5194 135.068C74.4604 135.033 74.4013 134.999 74.3305 134.964C74.2832 134.941 74.236 134.941 74.1769 134.918C74.1769 135.033 74.1769 135.125 74.1769 135.229C74.1769 136 74.1769 136.783 74.1769 137.554C74.1769 137.681 74.2124 137.773 74.3069 137.854C74.7557 138.28 75.1926 138.705 75.6296 139.143C75.6769 139.189 75.7241 139.235 75.7595 139.281C75.6887 139.419 75.4052 139.707 75.1808 139.868C74.8974 139.592 74.6139 139.316 74.3305 139.051C74.2832 139.005 74.2596 138.959 74.1651 139.016C74.1651 139.454 74.1651 139.903 74.1651 140.363C73.8816 140.363 73.6218 140.363 73.3502 140.363C73.3502 139.903 73.362 139.442 73.3502 138.936C73.2675 138.993 73.2084 139.016 73.173 139.051C72.9132 139.304 72.6652 139.546 72.4172 139.799C72.3935 139.822 72.3581 139.845 72.3463 139.857C72.1573 139.661 71.9683 139.477 71.7676 139.281C71.9329 139.108 72.1219 138.936 72.299 138.752C72.6179 138.441 72.9486 138.13 73.2675 137.808C73.3148 137.762 73.3502 137.669 73.3502 137.6C73.3502 136.76 73.3502 135.908 73.3502 135.068C73.3502 135.022 73.3384 134.976 73.3266 134.895C73.1494 134.999 72.9959 135.079 72.8423 135.172C72.2518 135.505 71.6613 135.839 71.0707 136.161C70.8936 136.254 70.7873 136.369 70.7401 136.576C70.6101 137.128 70.4448 137.681 70.2912 138.222C70.2676 138.291 70.244 138.349 70.2086 138.441C69.9488 138.372 69.6889 138.303 69.4291 138.234C69.5354 137.796 69.6771 137.382 69.7716 136.956C69.7598 136.944 69.748 136.933 69.7361 136.921C69.3346 137.151 68.9212 137.382 68.4961 137.612C68.3543 137.393 68.2244 137.163 68.0827 136.933C68.1181 136.898 68.1535 136.864 68.189 136.841C68.5315 136.645 68.874 136.461 69.2165 136.277C69.2755 136.242 69.311 136.208 69.2756 136.138C68.8504 136.023 68.437 135.92 68 135.805C68.0709 135.54 68.1299 135.298 68.2008 135.033C68.3425 135.068 68.4843 135.091 68.6142 135.125C69.122 135.252 69.6299 135.39 70.1259 135.517C70.1613 135.528 70.2086 135.528 70.244 135.551C70.3385 135.597 70.4212 135.574 70.5039 135.528C71.2479 135.114 71.992 134.688 72.736 134.274C72.7833 134.239 72.8305 134.205 72.9132 134.147C72.6652 133.997 72.4408 133.871 72.2164 133.744C71.6613 133.422 71.0944 133.111 70.5275 132.8C70.433 132.743 70.3503 132.743 70.244 132.766C69.5944 132.95 68.933 133.111 68.2717 133.284C68.248 133.284 68.2362 133.284 68.2008 133.295C68.1299 133.042 68.0709 132.789 68 132.524C68.437 132.409 68.8622 132.294 69.2874 132.179C69.2992 132.075 69.2401 132.075 69.1811 132.04C68.8149 131.845 68.4606 131.638 68.0827 131.419C68.2244 131.177 68.3543 130.947 68.4961 130.717C68.9212 130.947 69.3228 131.177 69.7598 131.43C69.7598 131.361 69.7716 131.315 69.7598 131.281C69.6653 130.947 69.5708 130.613 69.4763 130.279C69.4645 130.233 69.4645 130.176 69.4527 130.107C69.7125 130.037 69.9606 129.968 70.2322 129.899C70.3031 130.164 70.3739 130.406 70.4448 130.659C70.5629 131.074 70.681 131.499 70.7873 131.914C70.8227 132.04 70.9172 132.087 71.0117 132.144C71.5077 132.42 72.0156 132.697 72.5116 132.984C72.736 133.111 72.9486 133.238 73.173 133.364C73.2203 133.387 73.2793 133.41 73.3384 133.445C73.3502 133.387 73.3738 133.353 73.3738 133.318C73.3738 132.72 73.3738 132.121 73.3738 131.511C73.3738 131.246 73.3738 130.97 73.362 130.705C73.362 130.648 73.3266 130.579 73.2911 130.544C72.9486 130.199 72.5943 129.853 72.24 129.519C72.0865 129.37 71.9329 129.209 71.7676 129.048C71.9565 128.852 72.1455 128.668 72.3463 128.472C72.677 128.794 72.9959 129.105 73.3147 129.416C73.4092 129.358 73.3738 129.278 73.3738 129.209C73.3738 128.817 73.3738 128.414 73.3738 128C73.6336 128 73.9053 128 74.1769 128C74.1769 128.449 74.1769 128.898 74.1769 129.347C74.2478 129.416 74.295 129.37 74.3423 129.312C74.5903 129.071 74.8383 128.829 75.0745 128.587C75.11 128.553 75.1454 128.518 75.1808 128.483C75.3698 128.668 75.5587 128.852 75.7595 129.048C75.7359 129.082 75.7123 129.117 75.6768 129.151C75.2044 129.612 74.7438 130.061 74.2714 130.521C74.2124 130.579 74.1887 130.625 74.1887 130.705C74.1887 131.58 74.1887 132.443 74.1887 133.318C74.1887 133.341 74.2005 133.364 74.2123 133.422C74.2714 133.399 74.3305 133.399 74.3777 133.364C75.1218 132.95 75.854 132.524 76.5981 132.11C76.7044 132.052 76.7516 131.971 76.787 131.856C76.9524 131.246 77.1177 130.648 77.2831 130.049C77.2713 130.003 77.2831 129.968 77.3067 129.922Z" fill="#F2DCDB"/>
<path d="M189.307 115.986C189.342 115.986 189.366 115.986 189.389 115.986C189.626 116.046 189.85 116.117 190.098 116.189C189.98 116.641 189.874 117.069 189.755 117.509C189.767 117.521 189.779 117.533 189.791 117.533C190.192 117.295 190.606 117.069 191.031 116.819C191.173 117.057 191.303 117.295 191.456 117.545C191.078 117.759 190.7 117.985 190.322 118.187C190.263 118.223 190.216 118.235 190.228 118.33C190.653 118.449 191.09 118.568 191.527 118.687C191.456 118.96 191.385 119.222 191.315 119.495C191.055 119.424 190.807 119.365 190.57 119.293C190.133 119.174 189.685 119.055 189.248 118.925C189.165 118.901 189.094 118.913 189.023 118.96C188.515 119.258 188.008 119.555 187.5 119.864C187.24 120.019 186.992 120.162 186.732 120.304C186.708 120.316 186.685 120.34 186.614 120.4C186.661 120.423 186.697 120.435 186.732 120.459C187.169 120.709 187.606 120.959 188.043 121.22C188.362 121.411 188.693 121.601 189.011 121.791C189.106 121.851 189.177 121.851 189.283 121.827C189.933 121.637 190.594 121.47 191.255 121.292C191.279 121.292 191.291 121.292 191.326 121.28C191.397 121.541 191.468 121.791 191.539 122.077C191.102 122.196 190.677 122.315 190.252 122.422C190.228 122.505 190.263 122.529 190.322 122.564C190.7 122.778 191.078 122.993 191.456 123.207C191.314 123.457 191.185 123.683 191.043 123.932C190.618 123.694 190.216 123.433 189.791 123.219C189.779 123.231 189.767 123.242 189.755 123.254C189.874 123.683 189.98 124.111 190.098 124.575C189.838 124.646 189.578 124.717 189.307 124.801C189.248 124.575 189.189 124.372 189.13 124.158C189 123.671 188.87 123.171 188.74 122.683C188.716 122.624 188.645 122.564 188.586 122.517C187.901 122.112 187.204 121.708 186.519 121.304C186.46 121.268 186.401 121.232 186.33 121.196C186.283 121.173 186.236 121.173 186.177 121.149C186.177 121.268 186.177 121.363 186.177 121.47C186.177 122.267 186.177 123.076 186.177 123.873C186.177 124.004 186.212 124.099 186.307 124.182C186.756 124.622 187.193 125.062 187.63 125.514C187.677 125.562 187.724 125.61 187.76 125.657C187.689 125.8 187.405 126.097 187.181 126.264C186.897 125.978 186.614 125.693 186.33 125.419C186.283 125.372 186.26 125.324 186.165 125.384C186.165 125.836 186.165 126.299 186.165 126.775C185.882 126.775 185.622 126.775 185.35 126.775C185.35 126.299 185.362 125.824 185.35 125.3C185.268 125.36 185.208 125.384 185.173 125.419C184.913 125.681 184.665 125.931 184.417 126.192C184.394 126.216 184.358 126.24 184.346 126.252C184.157 126.05 183.968 125.859 183.768 125.657C183.933 125.479 184.122 125.3 184.299 125.11C184.618 124.789 184.949 124.468 185.268 124.135C185.315 124.087 185.35 123.992 185.35 123.92C185.35 123.052 185.35 122.172 185.35 121.304C185.35 121.256 185.338 121.208 185.327 121.125C185.149 121.232 184.996 121.315 184.842 121.411C184.252 121.756 183.661 122.1 183.071 122.434C182.894 122.529 182.787 122.648 182.74 122.862C182.61 123.433 182.445 124.004 182.291 124.563C182.268 124.634 182.244 124.694 182.209 124.789C181.949 124.717 181.689 124.646 181.429 124.575C181.535 124.123 181.677 123.694 181.772 123.254C181.76 123.242 181.748 123.231 181.736 123.219C181.335 123.457 180.921 123.694 180.496 123.932C180.354 123.706 180.224 123.468 180.083 123.231C180.118 123.195 180.154 123.159 180.189 123.135C180.531 122.933 180.874 122.743 181.216 122.552C181.276 122.517 181.311 122.481 181.276 122.41C180.85 122.291 180.437 122.184 180 122.065C180.071 121.791 180.13 121.541 180.201 121.268C180.342 121.304 180.484 121.327 180.614 121.363C181.122 121.494 181.63 121.637 182.126 121.767C182.161 121.779 182.209 121.779 182.244 121.803C182.338 121.851 182.421 121.827 182.504 121.779C183.248 121.351 183.992 120.911 184.736 120.483C184.783 120.447 184.83 120.411 184.913 120.352C184.665 120.197 184.441 120.066 184.216 119.936C183.661 119.603 183.094 119.281 182.527 118.96C182.433 118.901 182.35 118.901 182.244 118.925C181.594 119.115 180.933 119.281 180.272 119.46C180.248 119.46 180.236 119.46 180.201 119.472C180.13 119.21 180.071 118.948 180 118.675C180.437 118.556 180.862 118.437 181.287 118.318C181.299 118.211 181.24 118.199 181.181 118.175C180.815 117.973 180.461 117.759 180.083 117.533C180.224 117.283 180.354 117.045 180.496 116.807C180.921 117.045 181.323 117.283 181.76 117.545C181.76 117.473 181.772 117.426 181.76 117.39C181.665 117.045 181.571 116.7 181.476 116.355C181.465 116.308 181.464 116.248 181.453 116.177C181.713 116.105 181.961 116.034 182.232 115.963C182.303 116.236 182.374 116.486 182.445 116.748C182.563 117.176 182.681 117.616 182.787 118.044C182.823 118.175 182.917 118.223 183.012 118.282C183.508 118.568 184.016 118.853 184.512 119.151C184.736 119.281 184.949 119.412 185.173 119.543C185.22 119.567 185.279 119.591 185.338 119.626C185.35 119.567 185.374 119.531 185.374 119.495C185.374 118.877 185.374 118.258 185.374 117.628C185.374 117.354 185.374 117.069 185.362 116.795C185.362 116.736 185.327 116.664 185.291 116.629C184.949 116.272 184.594 115.915 184.24 115.57C184.086 115.416 183.933 115.249 183.768 115.082C183.957 114.88 184.145 114.69 184.346 114.488C184.677 114.821 184.996 115.142 185.315 115.463C185.409 115.404 185.374 115.32 185.374 115.249C185.374 114.845 185.374 114.428 185.374 114C185.634 114 185.905 114 186.177 114C186.177 114.464 186.177 114.928 186.177 115.392C186.248 115.463 186.295 115.416 186.342 115.356C186.59 115.106 186.838 114.856 187.075 114.607C187.11 114.571 187.145 114.535 187.181 114.5C187.37 114.69 187.559 114.88 187.76 115.082C187.736 115.118 187.712 115.154 187.677 115.189C187.204 115.665 186.744 116.129 186.271 116.605C186.212 116.664 186.189 116.712 186.189 116.795C186.189 117.699 186.189 118.591 186.189 119.495C186.189 119.519 186.201 119.543 186.212 119.603C186.271 119.579 186.33 119.579 186.378 119.543C187.122 119.115 187.854 118.675 188.598 118.247C188.704 118.187 188.752 118.104 188.787 117.985C188.952 117.354 189.118 116.736 189.283 116.117C189.283 116.082 189.295 116.034 189.307 115.986Z" fill="#F2DCDB"/>
<path d="M310.307 25.9865C310.342 25.9865 310.366 25.9865 310.389 25.9865C310.626 26.0459 310.85 26.1173 311.098 26.1887C310.98 26.6407 310.874 27.0689 310.755 27.509C310.767 27.5209 310.779 27.5328 310.791 27.5328C311.192 27.2949 311.606 27.0689 312.031 26.8191C312.173 27.057 312.303 27.2949 312.456 27.5447C312.078 27.7588 311.7 27.9848 311.322 28.187C311.263 28.2227 311.216 28.2346 311.228 28.3298C311.653 28.4487 312.09 28.5677 312.527 28.6866C312.456 28.9602 312.385 29.2219 312.315 29.4955C312.055 29.4241 311.807 29.3646 311.57 29.2933C311.133 29.1743 310.685 29.0554 310.248 28.9245C310.165 28.9007 310.094 28.9126 310.023 28.9602C309.515 29.2576 309.008 29.555 308.5 29.8642C308.24 30.0189 307.992 30.1616 307.732 30.3043C307.708 30.3162 307.685 30.34 307.614 30.3995C307.661 30.4233 307.697 30.4352 307.732 30.459C308.169 30.7088 308.606 30.9586 309.043 31.2203C309.362 31.4106 309.693 31.6009 310.011 31.7912C310.106 31.8507 310.177 31.8507 310.283 31.8269C310.933 31.6366 311.594 31.4701 312.255 31.2916C312.279 31.2916 312.291 31.2916 312.326 31.2797C312.397 31.5414 312.468 31.7912 312.539 32.0767C312.102 32.1957 311.677 32.3146 311.252 32.4216C311.228 32.5049 311.263 32.5287 311.322 32.5644C311.7 32.7785 312.078 32.9926 312.456 33.2067C312.314 33.4565 312.185 33.6825 312.043 33.9323C311.618 33.6944 311.216 33.4327 310.791 33.2186C310.779 33.2305 310.767 33.2424 310.755 33.2543C310.874 33.6825 310.98 34.1107 311.098 34.5746C310.838 34.646 310.578 34.7174 310.307 34.8006C310.248 34.5746 310.189 34.3724 310.13 34.1583C310 33.6706 309.87 33.171 309.74 32.6833C309.716 32.6239 309.645 32.5644 309.586 32.5168C308.901 32.1124 308.204 31.7079 307.519 31.3035C307.46 31.2678 307.401 31.2322 307.33 31.1965C307.283 31.1727 307.236 31.1727 307.177 31.1489C307.177 31.2678 307.177 31.363 307.177 31.47C307.177 32.267 307.177 33.0759 307.177 33.8728C307.177 34.0037 307.212 34.0988 307.307 34.1821C307.756 34.6222 308.193 35.0623 308.63 35.5144C308.677 35.5619 308.724 35.6095 308.76 35.6571C308.689 35.7998 308.405 36.0972 308.181 36.2637C307.897 35.9782 307.614 35.6928 307.33 35.4192C307.283 35.3716 307.26 35.324 307.165 35.3835C307.165 35.8355 307.165 36.2994 307.165 36.7752C306.882 36.7752 306.622 36.7752 306.35 36.7752C306.35 36.2994 306.362 35.8236 306.35 35.3002C306.268 35.3597 306.208 35.3835 306.173 35.4192C305.913 35.6809 305.665 35.9307 305.417 36.1924C305.394 36.2161 305.358 36.2399 305.346 36.2518C305.157 36.0496 304.968 35.8593 304.768 35.6571C304.933 35.4787 305.122 35.3002 305.299 35.1099C305.618 34.7887 305.949 34.4676 306.268 34.1345C306.315 34.0869 306.35 33.9918 306.35 33.9204C306.35 33.0521 306.35 32.1719 306.35 31.3035C306.35 31.2559 306.338 31.2084 306.327 31.1251C306.149 31.2322 305.996 31.3154 305.842 31.4106C305.252 31.7555 304.661 32.1005 304.071 32.4335C303.894 32.5287 303.787 32.6476 303.74 32.8618C303.61 33.4327 303.445 34.0037 303.291 34.5627C303.268 34.6341 303.244 34.6936 303.209 34.7888C302.949 34.7174 302.689 34.646 302.429 34.5746C302.535 34.1226 302.677 33.6944 302.772 33.2543C302.76 33.2424 302.748 33.2305 302.736 33.2186C302.335 33.4565 301.921 33.6944 301.496 33.9323C301.354 33.7063 301.224 33.4684 301.083 33.2305C301.118 33.1948 301.154 33.1591 301.189 33.1354C301.531 32.9331 301.874 32.7428 302.216 32.5525C302.276 32.5168 302.311 32.4811 302.276 32.4098C301.85 32.2908 301.437 32.1837 301 32.0648C301.071 31.7912 301.13 31.5414 301.201 31.2678C301.342 31.3035 301.484 31.3273 301.614 31.363C302.122 31.4938 302.63 31.6366 303.126 31.7674C303.161 31.7793 303.209 31.7793 303.244 31.8031C303.338 31.8507 303.421 31.8269 303.504 31.7793C304.248 31.3511 304.992 30.911 305.736 30.4828C305.783 30.4471 305.83 30.4114 305.913 30.3519C305.665 30.1973 305.441 30.0664 305.216 29.9356C304.661 29.6025 304.094 29.2814 303.527 28.9602C303.433 28.9007 303.35 28.9007 303.244 28.9245C302.594 29.1148 301.933 29.2814 301.272 29.4598C301.248 29.4598 301.236 29.4598 301.201 29.4717C301.13 29.21 301.071 28.9483 301 28.6747C301.437 28.5558 301.862 28.4368 302.287 28.3179C302.299 28.2108 302.24 28.1989 302.181 28.1752C301.815 27.9729 301.461 27.7588 301.083 27.5328C301.224 27.283 301.354 27.0451 301.496 26.8072C301.921 27.0451 302.323 27.283 302.76 27.5447C302.76 27.4733 302.772 27.4258 302.76 27.3901C302.665 27.0451 302.571 26.7002 302.476 26.3552C302.465 26.3076 302.464 26.2482 302.453 26.1768C302.713 26.1054 302.961 26.0341 303.232 25.9627C303.303 26.2363 303.374 26.486 303.445 26.7477C303.563 27.176 303.681 27.6161 303.787 28.0443C303.823 28.1751 303.917 28.2227 304.012 28.2822C304.508 28.5677 305.016 28.8532 305.512 29.1505C305.736 29.2814 305.949 29.4122 306.173 29.5431C306.22 29.5669 306.279 29.5906 306.338 29.6263C306.35 29.5668 306.374 29.5312 306.374 29.4955C306.374 28.877 306.374 28.2584 306.374 27.628C306.374 27.3544 306.374 27.0689 306.362 26.7953C306.362 26.7359 306.327 26.6645 306.291 26.6288C305.949 26.2719 305.594 25.9151 305.24 25.5701C305.086 25.4155 304.933 25.249 304.768 25.0824C304.957 24.8802 305.145 24.6899 305.346 24.4877C305.677 24.8208 305.996 25.1419 306.315 25.4631C306.409 25.4036 306.374 25.3203 306.374 25.249C306.374 24.8445 306.374 24.4282 306.374 24C306.634 24 306.905 24 307.177 24C307.177 24.4639 307.177 24.9278 307.177 25.3917C307.248 25.4631 307.295 25.4155 307.342 25.356C307.59 25.1062 307.838 24.8565 308.075 24.6067C308.11 24.571 308.145 24.5353 308.181 24.4996C308.37 24.6899 308.559 24.8802 308.76 25.0824C308.736 25.1181 308.712 25.1538 308.677 25.1895C308.204 25.6653 307.744 26.1292 307.271 26.605C307.212 26.6645 307.189 26.7121 307.189 26.7953C307.189 27.6993 307.189 28.5915 307.189 29.4955C307.189 29.5193 307.201 29.5431 307.212 29.6025C307.271 29.5788 307.33 29.5788 307.378 29.5431C308.122 29.1148 308.854 28.6747 309.598 28.2465C309.704 28.187 309.752 28.1038 309.787 27.9848C309.952 27.3544 310.118 26.7358 310.283 26.1173C310.283 26.0816 310.295 26.034 310.307 25.9865Z" fill="#F2DCDB"/>
<path d="M313.307 99.9224C313.342 99.9224 313.366 99.9224 313.389 99.9224C313.626 99.9799 313.85 100.049 314.098 100.118C313.98 100.556 313.874 100.97 313.756 101.396C313.767 101.407 313.779 101.419 313.791 101.419C314.193 101.189 314.606 100.97 315.031 100.728C315.173 100.958 315.303 101.189 315.456 101.43C315.078 101.638 314.7 101.856 314.322 102.052C314.263 102.087 314.216 102.098 314.228 102.19C314.653 102.305 315.09 102.42 315.527 102.535C315.456 102.8 315.385 103.053 315.315 103.318C315.055 103.249 314.807 103.192 314.57 103.123C314.133 103.007 313.685 102.892 313.248 102.766C313.165 102.743 313.094 102.754 313.023 102.8C312.515 103.088 312.008 103.376 311.5 103.675C311.24 103.825 310.992 103.963 310.732 104.101C310.708 104.112 310.685 104.136 310.614 104.193C310.661 104.216 310.697 104.228 310.732 104.251C311.169 104.492 311.606 104.734 312.043 104.987C312.362 105.172 312.693 105.356 313.011 105.54C313.106 105.597 313.177 105.597 313.283 105.574C313.933 105.39 314.594 105.229 315.255 105.056C315.279 105.056 315.291 105.056 315.326 105.045C315.397 105.298 315.468 105.54 315.539 105.816C315.102 105.931 314.677 106.046 314.252 106.15C314.228 106.231 314.263 106.254 314.322 106.288C314.7 106.495 315.078 106.703 315.456 106.91C315.315 107.151 315.185 107.37 315.043 107.612C314.618 107.382 314.216 107.128 313.791 106.921C313.779 106.933 313.767 106.944 313.756 106.956C313.874 107.37 313.98 107.785 314.098 108.234C313.838 108.303 313.578 108.372 313.307 108.452C313.248 108.234 313.189 108.038 313.13 107.831C313 107.359 312.87 106.875 312.74 106.403C312.716 106.346 312.645 106.288 312.586 106.242C311.901 105.851 311.204 105.459 310.519 105.068C310.46 105.033 310.401 104.999 310.33 104.964C310.283 104.941 310.236 104.941 310.177 104.918C310.177 105.033 310.177 105.125 310.177 105.229C310.177 106 310.177 106.783 310.177 107.554C310.177 107.681 310.212 107.773 310.307 107.854C310.756 108.28 311.193 108.705 311.63 109.143C311.677 109.189 311.724 109.235 311.76 109.281C311.689 109.419 311.405 109.707 311.181 109.868C310.897 109.592 310.614 109.316 310.33 109.051C310.283 109.005 310.26 108.959 310.165 109.016C310.165 109.454 310.165 109.903 310.165 110.363C309.882 110.363 309.622 110.363 309.35 110.363C309.35 109.903 309.362 109.442 309.35 108.936C309.268 108.993 309.208 109.016 309.173 109.051C308.913 109.304 308.665 109.546 308.417 109.799C308.394 109.822 308.358 109.845 308.346 109.857C308.157 109.661 307.968 109.477 307.768 109.281C307.933 109.108 308.122 108.936 308.299 108.752C308.618 108.441 308.949 108.13 309.268 107.808C309.315 107.762 309.35 107.669 309.35 107.6C309.35 106.76 309.35 105.908 309.35 105.068C309.35 105.022 309.338 104.976 309.327 104.895C309.149 104.999 308.996 105.079 308.842 105.172C308.252 105.505 307.661 105.839 307.071 106.162C306.894 106.254 306.787 106.369 306.74 106.576C306.61 107.128 306.445 107.681 306.291 108.222C306.268 108.291 306.244 108.349 306.209 108.441C305.949 108.372 305.689 108.303 305.429 108.234C305.535 107.796 305.677 107.382 305.772 106.956C305.76 106.944 305.748 106.933 305.736 106.921C305.335 107.151 304.921 107.382 304.496 107.612C304.354 107.393 304.224 107.163 304.083 106.933C304.118 106.898 304.154 106.864 304.189 106.841C304.531 106.645 304.874 106.461 305.216 106.277C305.276 106.242 305.311 106.208 305.276 106.138C304.85 106.023 304.437 105.92 304 105.805C304.071 105.54 304.13 105.298 304.201 105.033C304.342 105.068 304.484 105.091 304.614 105.125C305.122 105.252 305.63 105.39 306.126 105.517C306.161 105.528 306.209 105.528 306.244 105.551C306.338 105.597 306.421 105.574 306.504 105.528C307.248 105.114 307.992 104.688 308.736 104.274C308.783 104.239 308.831 104.205 308.913 104.147C308.665 103.997 308.441 103.871 308.216 103.744C307.661 103.422 307.094 103.111 306.527 102.8C306.433 102.743 306.35 102.743 306.244 102.766C305.594 102.95 304.933 103.111 304.272 103.284C304.248 103.284 304.236 103.284 304.201 103.295C304.13 103.042 304.071 102.789 304 102.524C304.437 102.409 304.862 102.294 305.287 102.179C305.299 102.075 305.24 102.063 305.181 102.04C304.815 101.845 304.461 101.638 304.083 101.419C304.224 101.177 304.354 100.947 304.496 100.717C304.921 100.947 305.323 101.177 305.76 101.43C305.76 101.361 305.772 101.315 305.76 101.281C305.665 100.947 305.571 100.613 305.476 100.279C305.465 100.233 305.465 100.176 305.453 100.107C305.713 100.037 305.961 99.9684 306.232 99.8994C306.303 100.164 306.374 100.406 306.445 100.659C306.563 101.074 306.681 101.499 306.787 101.914C306.823 102.04 306.917 102.087 307.012 102.144C307.508 102.42 308.016 102.697 308.512 102.984C308.736 103.111 308.949 103.238 309.173 103.364C309.22 103.387 309.279 103.41 309.338 103.445C309.35 103.387 309.374 103.353 309.374 103.318C309.374 102.72 309.374 102.121 309.374 101.511C309.374 101.246 309.374 100.97 309.362 100.705C309.362 100.648 309.327 100.579 309.291 100.544C308.949 100.199 308.594 99.8533 308.24 99.5195C308.086 99.3698 307.933 99.2087 307.768 99.0475C307.957 98.8518 308.145 98.6676 308.346 98.472C308.677 98.7943 308.996 99.1051 309.315 99.4159C309.409 99.3583 309.374 99.2778 309.374 99.2087C309.374 98.8173 309.374 98.4144 309.374 98C309.634 98 309.905 98 310.177 98C310.177 98.4489 310.177 98.8979 310.177 99.3468C310.248 99.4159 310.295 99.3698 310.342 99.3123C310.59 99.0705 310.838 98.8288 311.075 98.5871C311.11 98.5525 311.145 98.518 311.181 98.4835C311.37 98.6677 311.559 98.8518 311.76 99.0475C311.736 99.0821 311.712 99.1166 311.677 99.1511C311.204 99.6116 310.744 100.061 310.271 100.521C310.212 100.579 310.189 100.625 310.189 100.705C310.189 101.58 310.189 102.443 310.189 103.318C310.189 103.341 310.201 103.364 310.212 103.422C310.271 103.399 310.33 103.399 310.378 103.364C311.122 102.95 311.854 102.524 312.598 102.11C312.704 102.052 312.752 101.971 312.787 101.856C312.952 101.246 313.118 100.648 313.283 100.049C313.271 100.014 313.295 99.9684 313.307 99.9224Z" fill="#F9F0B9"/>
<path d="M267.307 149.922C267.342 149.922 267.366 149.922 267.389 149.922C267.626 149.98 267.85 150.049 268.098 150.118C267.98 150.556 267.874 150.97 267.756 151.396C267.767 151.407 267.779 151.419 267.791 151.419C268.193 151.189 268.606 150.97 269.031 150.728C269.173 150.958 269.303 151.189 269.456 151.43C269.078 151.638 268.7 151.856 268.322 152.052C268.263 152.087 268.216 152.098 268.228 152.19C268.653 152.305 269.09 152.42 269.527 152.535C269.456 152.8 269.385 153.053 269.315 153.318C269.055 153.249 268.807 153.192 268.57 153.123C268.133 153.007 267.685 152.892 267.248 152.766C267.165 152.743 267.094 152.754 267.023 152.8C266.515 153.088 266.008 153.376 265.5 153.675C265.24 153.825 264.992 153.963 264.732 154.101C264.708 154.112 264.685 154.136 264.614 154.193C264.661 154.216 264.697 154.228 264.732 154.251C265.169 154.492 265.606 154.734 266.043 154.987C266.362 155.172 266.693 155.356 267.011 155.54C267.106 155.597 267.177 155.597 267.283 155.574C267.933 155.39 268.594 155.229 269.255 155.056C269.279 155.056 269.291 155.056 269.326 155.045C269.397 155.298 269.468 155.54 269.539 155.816C269.102 155.931 268.677 156.046 268.252 156.15C268.228 156.231 268.263 156.254 268.322 156.288C268.7 156.495 269.078 156.703 269.456 156.91C269.315 157.151 269.185 157.37 269.043 157.612C268.618 157.382 268.216 157.128 267.791 156.921C267.779 156.933 267.767 156.944 267.756 156.956C267.874 157.37 267.98 157.785 268.098 158.234C267.838 158.303 267.578 158.372 267.307 158.452C267.248 158.234 267.189 158.038 267.13 157.831C267 157.359 266.87 156.875 266.74 156.403C266.716 156.346 266.645 156.288 266.586 156.242C265.901 155.851 265.204 155.459 264.519 155.068C264.46 155.033 264.401 154.999 264.33 154.964C264.283 154.941 264.236 154.941 264.177 154.918C264.177 155.033 264.177 155.125 264.177 155.229C264.177 156 264.177 156.783 264.177 157.554C264.177 157.681 264.212 157.773 264.307 157.854C264.756 158.28 265.193 158.705 265.63 159.143C265.677 159.189 265.724 159.235 265.76 159.281C265.689 159.419 265.405 159.707 265.181 159.868C264.897 159.592 264.614 159.316 264.33 159.051C264.283 159.005 264.26 158.959 264.165 159.016C264.165 159.454 264.165 159.903 264.165 160.363C263.882 160.363 263.622 160.363 263.35 160.363C263.35 159.903 263.362 159.442 263.35 158.936C263.268 158.993 263.208 159.016 263.173 159.051C262.913 159.304 262.665 159.546 262.417 159.799C262.394 159.822 262.358 159.845 262.346 159.857C262.157 159.661 261.968 159.477 261.768 159.281C261.933 159.108 262.122 158.936 262.299 158.752C262.618 158.441 262.949 158.13 263.268 157.808C263.315 157.762 263.35 157.669 263.35 157.6C263.35 156.76 263.35 155.908 263.35 155.068C263.35 155.022 263.338 154.976 263.327 154.895C263.149 154.999 262.996 155.079 262.842 155.172C262.252 155.505 261.661 155.839 261.071 156.162C260.894 156.254 260.787 156.369 260.74 156.576C260.61 157.128 260.445 157.681 260.291 158.222C260.268 158.291 260.244 158.349 260.209 158.441C259.949 158.372 259.689 158.303 259.429 158.234C259.535 157.796 259.677 157.382 259.772 156.956C259.76 156.944 259.748 156.933 259.736 156.921C259.335 157.151 258.921 157.382 258.496 157.612C258.354 157.393 258.224 157.163 258.083 156.933C258.118 156.898 258.154 156.864 258.189 156.841C258.531 156.645 258.874 156.461 259.216 156.277C259.276 156.242 259.311 156.208 259.276 156.138C258.85 156.023 258.437 155.92 258 155.805C258.071 155.54 258.13 155.298 258.201 155.033C258.342 155.068 258.484 155.091 258.614 155.125C259.122 155.252 259.63 155.39 260.126 155.517C260.161 155.528 260.209 155.528 260.244 155.551C260.338 155.597 260.421 155.574 260.504 155.528C261.248 155.114 261.992 154.688 262.736 154.274C262.783 154.239 262.831 154.205 262.913 154.147C262.665 153.997 262.441 153.871 262.216 153.744C261.661 153.422 261.094 153.111 260.527 152.8C260.433 152.743 260.35 152.743 260.244 152.766C259.594 152.95 258.933 153.111 258.272 153.284C258.248 153.284 258.236 153.284 258.201 153.295C258.13 153.042 258.071 152.789 258 152.524C258.437 152.409 258.862 152.294 259.287 152.179C259.299 152.075 259.24 152.063 259.181 152.04C258.815 151.845 258.461 151.638 258.083 151.419C258.224 151.177 258.354 150.947 258.496 150.717C258.921 150.947 259.323 151.177 259.76 151.43C259.76 151.361 259.772 151.315 259.76 151.281C259.665 150.947 259.571 150.613 259.476 150.279C259.465 150.233 259.465 150.176 259.453 150.107C259.713 150.037 259.961 149.968 260.232 149.899C260.303 150.164 260.374 150.406 260.445 150.659C260.563 151.074 260.681 151.499 260.787 151.914C260.823 152.04 260.917 152.087 261.012 152.144C261.508 152.42 262.016 152.697 262.512 152.984C262.736 153.111 262.949 153.238 263.173 153.364C263.22 153.387 263.279 153.41 263.338 153.445C263.35 153.387 263.374 153.353 263.374 153.318C263.374 152.72 263.374 152.121 263.374 151.511C263.374 151.246 263.374 150.97 263.362 150.705C263.362 150.648 263.327 150.579 263.291 150.544C262.949 150.199 262.594 149.853 262.24 149.519C262.086 149.37 261.933 149.209 261.768 149.048C261.957 148.852 262.145 148.668 262.346 148.472C262.677 148.794 262.996 149.105 263.315 149.416C263.409 149.358 263.374 149.278 263.374 149.209C263.374 148.817 263.374 148.414 263.374 148C263.634 148 263.905 148 264.177 148C264.177 148.449 264.177 148.898 264.177 149.347C264.248 149.416 264.295 149.37 264.342 149.312C264.59 149.071 264.838 148.829 265.075 148.587C265.11 148.553 265.145 148.518 265.181 148.483C265.37 148.668 265.559 148.852 265.76 149.048C265.736 149.082 265.712 149.117 265.677 149.151C265.204 149.612 264.744 150.061 264.271 150.521C264.212 150.579 264.189 150.625 264.189 150.705C264.189 151.58 264.189 152.443 264.189 153.318C264.189 153.341 264.201 153.364 264.212 153.422C264.271 153.399 264.33 153.399 264.378 153.364C265.122 152.95 265.854 152.524 266.598 152.11C266.704 152.052 266.752 151.971 266.787 151.856C266.952 151.246 267.118 150.648 267.283 150.049C267.271 150.014 267.295 149.968 267.307 149.922Z" fill="#F9F0B9"/>
<path d="M354.307 1.92238C354.342 1.92238 354.366 1.92238 354.389 1.92238C354.626 1.97994 354.85 2.04901 355.098 2.11807C354.98 2.5555 354.874 2.96991 354.756 3.39583C354.767 3.40734 354.779 3.41884 354.791 3.41884C355.192 3.18861 355.606 2.96991 356.031 2.72817C356.173 2.9584 356.303 3.18862 356.456 3.43036C356.078 3.63756 355.7 3.85627 355.322 4.05196C355.263 4.08649 355.216 4.09802 355.228 4.19011C355.653 4.30522 356.09 4.42032 356.527 4.53543C356.456 4.80019 356.385 5.05345 356.315 5.31821C356.055 5.24914 355.807 5.19159 355.57 5.12252C355.133 5.00741 354.685 4.8923 354.248 4.76567C354.165 4.74265 354.094 4.75416 354.023 4.80021C353.515 5.08799 353.008 5.37576 352.5 5.67506C352.24 5.8247 351.992 5.96283 351.732 6.10097C351.708 6.11248 351.685 6.13551 351.614 6.19306C351.661 6.21608 351.697 6.2276 351.732 6.25062C352.169 6.49236 352.606 6.7341 353.043 6.98734C353.362 7.17152 353.693 7.3557 354.011 7.53988C354.106 7.59744 354.177 7.59743 354.283 7.57441C354.933 7.39023 355.594 7.22908 356.255 7.05641C356.279 7.05641 356.291 7.05641 356.326 7.0449C356.397 7.29815 356.468 7.53989 356.539 7.81616C356.102 7.93127 355.677 8.04638 355.252 8.14998C355.228 8.23056 355.263 8.25359 355.322 8.28812C355.7 8.49533 356.078 8.70252 356.456 8.90973C356.314 9.15146 356.185 9.37018 356.043 9.61192C355.618 9.38169 355.216 9.12845 354.791 8.92125C354.779 8.93276 354.767 8.94427 354.756 8.95578C354.874 9.37019 354.98 9.78459 355.098 10.2335C354.838 10.3026 354.578 10.3717 354.307 10.4522C354.248 10.2335 354.189 10.0378 354.13 9.83063C354 9.35867 353.87 8.87519 353.74 8.40323C353.716 8.34567 353.645 8.28811 353.586 8.24207C352.901 7.85069 352.204 7.45931 351.519 7.06793C351.46 7.0334 351.401 6.99885 351.33 6.96432C351.283 6.94129 351.236 6.9413 351.177 6.91828C351.177 7.03339 351.177 7.12549 351.177 7.22909C351.177 8.00034 351.177 8.7831 351.177 9.55436C351.177 9.68098 351.212 9.77308 351.307 9.85366C351.756 10.2796 352.193 10.7055 352.63 11.1429C352.677 11.189 352.724 11.235 352.76 11.281C352.689 11.4192 352.405 11.707 352.181 11.8681C351.897 11.5919 351.614 11.3156 351.33 11.0508C351.283 11.0048 351.26 10.9587 351.165 11.0163C351.165 11.4537 351.165 11.9027 351.165 12.3631C350.882 12.3631 350.622 12.3631 350.35 12.3631C350.35 11.9027 350.362 11.4422 350.35 10.9357C350.268 10.9933 350.208 11.0163 350.173 11.0508C349.913 11.3041 349.665 11.5458 349.417 11.7991C349.394 11.8221 349.358 11.8451 349.346 11.8566C349.157 11.6609 348.968 11.4767 348.768 11.281C348.933 11.1084 349.122 10.9357 349.299 10.7515C349.618 10.4407 349.949 10.1299 350.268 9.80761C350.315 9.76156 350.35 9.66948 350.35 9.60041C350.35 8.76009 350.35 7.90825 350.35 7.06793C350.35 7.02189 350.338 6.97583 350.327 6.89525C350.149 6.99885 349.996 7.07944 349.842 7.17153C349.252 7.50536 348.661 7.83918 348.071 8.1615C347.894 8.25359 347.787 8.3687 347.74 8.57591C347.61 9.12845 347.445 9.68098 347.291 10.222C347.268 10.2911 347.244 10.3486 347.209 10.4407C346.949 10.3717 346.689 10.3026 346.429 10.2335C346.535 9.79611 346.677 9.3817 346.772 8.95578C346.76 8.94427 346.748 8.93276 346.736 8.92125C346.335 9.15147 345.921 9.38169 345.496 9.61192C345.354 9.3932 345.224 9.16298 345.083 8.93275C345.118 8.89822 345.154 8.86368 345.189 8.84066C345.531 8.64497 345.874 8.46078 346.217 8.2766C346.276 8.24207 346.311 8.20754 346.276 8.13847C345.85 8.02336 345.437 7.91977 345 7.80465C345.071 7.53989 345.13 7.29814 345.201 7.03338C345.343 7.06791 345.484 7.09094 345.614 7.12547C346.122 7.2521 346.63 7.39025 347.126 7.51687C347.161 7.52838 347.209 7.52838 347.244 7.5514C347.339 7.59745 347.421 7.57442 347.504 7.52838C348.248 7.11397 348.992 6.68806 349.736 6.27365C349.783 6.23912 349.831 6.20458 349.913 6.14702C349.665 5.99738 349.441 5.87075 349.216 5.74412C348.661 5.42181 348.094 5.11101 347.527 4.80021C347.433 4.74265 347.35 4.74265 347.244 4.76567C346.594 4.94985 345.933 5.11101 345.272 5.28368C345.248 5.28368 345.236 5.28367 345.201 5.29518C345.13 5.04193 345.071 4.78869 345 4.52393C345.437 4.40882 345.862 4.2937 346.287 4.17859C346.299 4.07498 346.24 4.07499 346.181 4.04046C345.815 3.84476 345.461 3.63755 345.083 3.41884C345.224 3.1771 345.354 2.94687 345.496 2.71665C345.921 2.94687 346.323 3.17711 346.76 3.43036C346.76 3.36129 346.772 3.31524 346.76 3.28071C346.665 2.94688 346.571 2.61306 346.476 2.27923C346.465 2.23319 346.465 2.17562 346.453 2.10655C346.713 2.03748 346.961 1.96842 347.232 1.89936C347.303 2.16412 347.374 2.40586 347.445 2.6591C347.563 3.07351 347.681 3.49942 347.787 3.91383C347.823 4.04046 347.917 4.0865 348.012 4.14405C348.508 4.42032 349.016 4.69659 349.512 4.98437C349.736 5.111 349.949 5.23762 350.173 5.36425C350.22 5.38727 350.279 5.4103 350.338 5.44483C350.35 5.38728 350.374 5.35274 350.374 5.31821C350.374 4.71962 350.374 4.12103 350.374 3.51093C350.374 3.24617 350.374 2.9699 350.362 2.70514C350.362 2.64759 350.327 2.57852 350.291 2.54398C349.949 2.19865 349.594 1.85331 349.24 1.51948C349.086 1.36983 348.933 1.20867 348.768 1.04751C348.957 0.851822 349.146 0.667641 349.346 0.471949C349.677 0.794266 349.996 1.10508 350.315 1.41588C350.409 1.35833 350.374 1.27774 350.374 1.20867C350.374 0.817287 350.374 0.414406 350.374 0C350.634 0 350.905 0 351.177 0C351.177 0.44894 351.177 0.897878 351.177 1.34682C351.248 1.41589 351.295 1.36984 351.342 1.31229C351.59 1.07055 351.838 0.828806 352.075 0.587069C352.11 0.552536 352.145 0.518006 352.181 0.483472C352.37 0.667653 352.559 0.851822 352.76 1.04751C352.736 1.08205 352.712 1.1166 352.677 1.15113C352.204 1.61158 351.744 2.06051 351.271 2.52096C351.212 2.57851 351.189 2.62456 351.189 2.70514C351.189 3.58 351.189 4.44335 351.189 5.31821C351.189 5.34123 351.201 5.36425 351.212 5.42181C351.271 5.39878 351.33 5.39878 351.378 5.36425C352.122 4.94984 352.854 4.52393 353.598 4.10952C353.704 4.05196 353.752 3.97138 353.787 3.85627C353.952 3.24617 354.118 2.64759 354.283 2.04901C354.283 2.01447 354.295 1.96843 354.307 1.92238Z" fill="#F9F0B9"/>
<path d="M159.961 154.359L150.136 112L141 154.359H149.309V159.656H150.952V154.359H159.961Z" fill="#D7E8E6"/>
</svg>
